<?xml version="1.0" encoding="UTF-8" standalone="no"?>
<svg width="60px" height="60px" viewBox="0 0 60 60" version="1.1" xmlns="http://www.w3.org/2000/svg" xmlns:xlink="http://www.w3.org/1999/xlink">
    <!-- Generator: Sketch 3.7 (28169) - http://www.bohemiancoding.com/sketch -->
    <title>Group 3</title>
    <desc>Created with Sketch.</desc>
    <defs></defs>
    <g id="Mobile-design" stroke="none" stroke-width="1" fill="none" fill-rule="evenodd">
        <g id="Help-page-mobile" transform="translate(-130.000000, -98.000000)">
            <g id="Group-3" transform="translate(130.000000, 98.000000)">
                <path d="M30,0 C13.4304918,0 0,13.4300578 0,29.9990306 C0,46.5680034 13.4304918,60 30,60 C46.5695082,60 60,46.5680034 60,29.9990306 C60,13.4300578 46.5695082,0 30,0" id="Fill-20" fill="#3CCD3F"></path>
                <path d="M36.5099607,22.7505376 L27.2087144,31.812565 L23.4893379,28.1881185 C22.4627227,27.1877056 20.7984466,27.1877056 19.7699614,28.1881185 C18.7433462,29.1903536 18.7433462,30.8121522 19.7699614,31.8143873 L25.3499612,37.2483237 C26.3765764,38.2505588 28.0427224,38.2505588 29.0693377,37.2483237 L40.2293372,26.3749841 C41.2559524,25.372749 41.2578224,23.7509504 40.2293372,22.7487153 C39.2027219,21.7501247 37.5365759,21.7501247 36.5099607,22.7505376" id="Fill-21" fill="#FFFFFF"></path>
            </g>
        </g>
    </g>
</svg>