<svg version="1" xmlns="http://www.w3.org/2000/svg" width="260pt" height="260pt" viewBox="0 0 260.000000 260.000000"><path d="M59.6 26.2c-2.9 5.1-6.3 10.9-7.5 12.8-1.1 1.9-2.4 4.2-2.8 5-.4.8-4.1 7.3-8.4 14.6-4.2 7.2-8.8 15.1-10.2 17.5-1.3 2.4-8.8 15.4-16.6 28.8l-14.1 24.3 24.1 41.7c13.3 22.9 27.8 47.9 32.2 55.6 4.4 7.7 8.2 14.2 8.4 14.4.2.3 29.4.5 65 .5l64.6.1 2.2-3.5c1.2-1.9 4.7-8 7.9-13.5s6.2-10.7 6.7-11.5c.5-.8 9.5-16.4 20-34.5 10.6-18.2 20.5-35.3 22.1-38 5.6-9.7 6.3-11.5 5.2-13.3-.6-.9-2.2-3.7-3.6-6.2s-8.3-14.4-15.3-26.5-13.3-22.9-13.9-24c-.6-1.1-7.8-13.6-16.1-27.8l-15-25.7h-129.4l-5.5 9.2zm84.9 23.7c9.5 2.2 23.3 7.5 28.4 10.9 1.4 1-.1 4.3-7.9 17.2-1.9 3-3.4 5.6-3.5 5.7-.1.1-3.7-1.5-8.1-3.7-19.6-9.7-40.3-9.8-49.7-.2-4.4 4.5-5.9 10.1-4.5 16.6 1.7 8 9.4 12.9 28.3 18.1 34.8 9.4 45.9 15 54.2 27.6 3.4 5.2 5.3 13 5.3 22.5 0 20.6-10.8 35.6-30.7 42.5-8.5 2.9-12.4 3.4-27.3 3.3-10.5 0-15.4-.6-21.8-2.3-9.4-2.4-25.2-9.2-26.6-11.4-.6-1 .2-3.2 2.6-7.3 1.9-3.2 4.7-8 6.2-10.6l2.7-4.7 5 3c9.3 5.8 23.9 9.9 34.8 9.9 11.2 0 22.5-5.2 25.8-11.8 2.6-5.4 2.3-13.9-.6-18.1-4.5-6.3-11.4-9.3-41.5-17.6-31.2-8.6-43.6-20.5-44.5-42.7-1-23.6 14.6-41.8 40.4-47.3 7-1.5 25.6-1.2 33 .4z"/></svg>
