<?xml version="1.0" standalone="no"?>
<!DOCTYPE svg PUBLIC "-//W3C//DTD SVG 20010904//EN"
 "http://www.w3.org/TR/2001/REC-SVG-20010904/DTD/svg10.dtd">
<svg version="1.0" xmlns="http://www.w3.org/2000/svg"
 width="260.000000pt" height="260.000000pt" viewBox="0 0 260.000000 260.000000"
 preserveAspectRatio="xMidYMid meet">
<metadata>
Created by potrace 1.11, written by Peter Selinger 2001-2013
</metadata>
<g transform="translate(0.000000,260.000000) scale(0.100000,-0.100000)"
fill="#000000" stroke="none">
<path d="M596 2338 c-29 -51 -63 -109 -75 -128 -11 -19 -24 -42 -28 -50 -4 -8
-41 -73 -84 -146 -42 -72 -88 -151 -102 -175 -13 -24 -88 -154 -166 -288
l-141 -243 241 -417 c133 -229 278 -479 322 -556 44 -77 82 -142 84 -144 2 -3
294 -5 650 -5 l646 -1 22 35 c12 19 47 80 79 135 32 55 62 107 67 115 5 8 95
164 200 345 106 182 205 353 221 380 56 97 63 115 52 133 -6 9 -22 37 -36 62
-14 25 -83 144 -153 265 -70 121 -133 229 -139 240 -6 11 -78 136 -161 278
l-150 257 -647 0 -647 0 -55 -92z m849 -237 c95 -22 233 -75 284 -109 14 -10
-1 -43 -79 -172 -19 -30 -34 -56 -35 -57 -1 -1 -37 15 -81 37 -196 97 -403 98
-497 2 -44 -45 -59 -101 -45 -166 17 -80 94 -129 283 -181 348 -94 459 -150
542 -276 34 -52 53 -130 53 -225 0 -206 -108 -356 -307 -425 -85 -29 -124 -34
-273 -33 -105 0 -154 6 -218 23 -94 24 -252 92 -266 114 -6 10 2 32 26 73 19
32 47 80 62 106 l27 47 50 -30 c93 -58 239 -99 348 -99 112 0 225 52 258 118
26 54 23 139 -6 181 -45 63 -114 93 -415 176 -312 86 -436 205 -445 427 -10
236 146 418 404 473 70 15 256 12 330 -4z"/>
</g>
</svg>
