<svg width="371" height="368" viewBox="0 0 371 368" xmlns="http://www.w3.org/2000/svg" xmlns:xlink="http://www.w3.org/1999/xlink"><title>Group 25</title><desc>Created with Sketch.</desc><defs><filter x="-50%" y="-50%" width="200%" height="200%" filterUnits="objectBoundingBox" id="g"><feOffset in="SourceAlpha" result="shadowOffsetOuter1"/><feGaussianBlur stdDeviation="20" in="shadowOffsetOuter1" result="shadowBlurOuter1"/><feColorMatrix values="0 0 0 0 0 0 0 0 0 0 0 0 0 0 0 0 0 0 0.147956295 0" in="shadowBlurOuter1" result="shadowMatrixOuter1"/><feMerge><feMergeNode in="shadowMatrixOuter1"/><feMergeNode in="SourceGraphic"/></feMerge></filter><path d="M80.657 72.692c18.174-18.174 36.15-40.859 36.15-40.859 24.079-28.804 63.131-28.797 87.415-.141 0 0 20.82 25.875 40.506 45.56 19.082 19.082 43.716 38.794 43.716 38.794 28.744 24.145 28.831 63.415.346 87.889 0 0-19.982 16.235-36.579 32.832-22.13 22.13-46.967 51.622-46.967 51.622-24.659 28.315-64.113 27.868-88.327-.842 0 0-18.867-23.683-37.506-42.322-20.128-20.128-46.965-41.809-46.965-41.809-28.683-24.213-28.617-63.42-.012-87.747 0 0 27.67-22.424 48.223-42.977z" id="a"/><mask id="h" x="0" y="0" width="319.733" height="319.412"><use xlink:href="#a"/></mask><path d="M109.432 218.634c60.438 0 109.432-48.943 109.432-109.317 0-60.374-48.994-109.317-109.432-109.317s-109.432 48.943-109.432 109.317c0 60.374 48.994 109.317 109.432 109.317zm.332-48.364c33.515 0 60.685-27.141 60.685-60.621 0-33.48-27.17-60.621-60.685-60.621s-60.685 27.141-60.685 60.621c0 33.48 27.17 60.621 60.685 60.621z" id="b"/><mask id="i" x="0" y="0" width="218.864" height="218.634"><use xlink:href="#b"/></mask><ellipse id="c" cx="80.913" cy="76.853" rx="7.295" ry="7.288"/><mask id="j" x="0" y="0" width="14.591" height="14.576"><use xlink:href="#c"/></mask><ellipse id="d" cx="80.913" cy="242.113" rx="7.295" ry="7.288"/><mask id="k" x="0" y="0" width="14.591" height="14.576"><use xlink:href="#d"/></mask><ellipse id="e" cx="239.424" cy="76.853" rx="7.295" ry="7.288"/><mask id="l" x="0" y="0" width="14.591" height="14.576"><use xlink:href="#e"/></mask><ellipse id="f" cx="239.424" cy="242.113" rx="7.295" ry="7.288"/><mask id="m" x="0" y="0" width="14.591" height="14.576"><use xlink:href="#f"/></mask></defs><g transform="translate(25 24)" filter="url(#g)" fill="none"><use stroke="#373D44" mask="url(#h)" stroke-width="8" opacity=".2" xlink:href="#a"/><g transform="translate(51.068 50.352)"><path d="M109.432 218.634c60.438 0 109.432-48.943 109.432-109.317 0-60.374-48.994-109.317-109.432-109.317s-109.432 48.943-109.432 109.317c0 60.374 48.994 109.317 109.432 109.317zm.332-48.364c33.515 0 60.685-27.141 60.685-60.621 0-33.48-27.17-60.621-60.685-60.621s-60.685 27.141-60.685 60.621c0 33.48 27.17 60.621 60.685 60.621z" id="Oval-149" fill="#fff"/><path d="M166.578 88.298c16.636-2.336 33.629-5.27 48.381-8.027 2.545 9.249 3.905 18.989 3.905 29.046 0 10.062-1.361 19.806-3.908 29.059-14.689-2.743-31.596-5.662-48.149-7.993 2.357-6.469 3.642-13.451 3.642-20.734 0-7.515-1.369-14.71-3.871-21.351zm-113.299-.855c-17.153-2.33-34.359-5.112-49.229-7.692-2.639 9.404-4.05 19.321-4.05 29.567 0 10.242 1.41 20.154 4.046 29.555 14.794-2.57 31.905-5.338 48.983-7.661-2.553-6.7-3.951-13.968-3.951-21.563 0-7.838 1.489-15.329 4.2-22.205zM87.121 165.909c-2.315 16.948-5.062 33.911-7.61 48.588 9.51 2.694 19.547 4.136 29.921 4.136 10.14 0 19.958-1.378 29.277-3.956-2.534-14.571-5.266-31.415-7.575-48.274-6.647 2.499-13.849 3.866-21.37 3.866-8.004 0-15.646-1.548-22.642-4.36zm1.115-112.957c-2.334-16.802-5.297-34.029-8.089-48.994 9.321-2.58 19.141-3.958 29.284-3.958 9.919 0 19.53 1.318 28.666 3.789-2.774 14.874-5.722 31.994-8.056 48.705-6.341-2.245-13.167-3.467-20.278-3.467-7.581 0-14.837 1.389-21.527 3.925z" id="Oval-149" fill="#49B9E8"/><use stroke="#373D44" mask="url(#i)" stroke-width="8" xlink:href="#b" fill="none"/></g><use stroke="#373D44" mask="url(#j)" stroke-width="8" fill="#fff" xlink:href="#c"/><use stroke="#373D44" mask="url(#k)" stroke-width="8" fill="#fff" xlink:href="#d"/><use stroke="#373D44" mask="url(#l)" stroke-width="8" fill="#fff" xlink:href="#e"/><use stroke="#373D44" mask="url(#m)" stroke-width="8" fill="#fff" xlink:href="#f"/></g></svg>
