<svg height="387" width="454" xmlns="http://www.w3.org/2000/svg" viewBox="0 0 454 387"><path stroke-linecap="square" stroke-dasharray="4" stroke="#373d44" opacity=".3" d="M388 118l-167-51M222 67l-155 51" fill="none"/><path stroke-linecap="square" stroke-dasharray="4" stroke="#373d44" d="M67 117l60 78.5M388 120l-61 75M220.5 64.5v93.05" fill="none"/><path stroke-width="4" stroke="#373d44" fill="#49b9e8" fill-rule="evenodd" d="M67 146.47c16.02 0 29-12.98 29-29s-12.98-29-29-29-29 12.98-29 29 12.98 29 29 29zm0 0"/><path fill="#373d44" fill-rule="evenodd" d="M76.91 116.66c.59 0 1.09.2 1.49.59.4.39.6.87.6 1.46 0 .93-.45 1.56-1.34 1.88l-2.48.85.81 2.4c.06.21.1.43.1.68 0 .57-.21 1.06-.61 1.47-.4.42-.89.62-1.46.62-.45 0-.86-.13-1.23-.39-.37-.25-.63-.6-.77-1.03l-.79-2.38-4.48 1.53.8 2.36c.08.23.11.46.11.68 0 .57-.2 1.06-.6 1.47-.41.41-.9.62-1.47.62-.46 0-.86-.13-1.23-.39-.36-.26-.62-.61-.76-1.04l-.8-2.35-2.2.77c-.28.08-.52.13-.73.13-.58 0-1.07-.2-1.46-.58-.39-.39-.58-.87-.58-1.46 0-.45.13-.86.39-1.22.27-.37.61-.62 1.03-.77l2.25-.76-1.51-4.52-2.25.78c-.25.08-.48.12-.69.12-.58 0-1.06-.2-1.46-.59-.39-.39-.59-.87-.59-1.45 0-.45.13-.86.4-1.22.26-.37.6-.62 1.03-.77l2.26-.76-.76-2.3c-.08-.23-.12-.45-.12-.67 0-.58.2-1.07.61-1.48.4-.41.89-.61 1.47-.61.45 0 .86.13 1.23.39.36.25.62.6.76 1.03l.78 2.31 4.47-1.51-.78-2.31c-.08-.23-.11-.46-.11-.68 0-.57.2-1.06.61-1.47.41-.41.9-.62 1.46-.62.45 0 .87.13 1.24.4.37.26.62.6.77 1.03l.76 2.32 2.34-.79c.2-.06.41-.09.62-.09.58 0 1.07.19 1.48.57.41.38.61.85.61 1.42 0 .43-.14.83-.43 1.18s-.65.59-1.07.74l-2.26.78 1.51 4.56 2.37-.81c.23-.08.45-.12.66-.12zm-11.45 3.78l4.47-1.51-1.52-4.55-4.47 1.55 1.52 4.51zm0 0"/><path stroke-width="4" stroke="#373d44" fill="#3ccd3f" fill-rule="evenodd" d="M221 96c16.02 0 29-12.98 29-29s-12.98-29-29-29-29 12.98-29 29 12.98 29 29 29zm0 0"/><path fill="#373d44" fill-rule="evenodd" d="M215.87 72.43c-.29 0-.57-.1-.8-.29l-6.07-5.14 6.41-5.43c.49-.41 1.25-.37 1.69.1.44.47.39 1.19-.1 1.61l-4.39 3.72 4.05 3.43c.5.42.54 1.14.1 1.61-.23.26-.56.39-.89.39zm10.72 0l6.41-5.43-6.07-5.14c-.49-.42-1.25-.38-1.69.09-.44.48-.4 1.2.1 1.62l4.05 3.43-4.39 3.72c-.49.42-.54 1.14-.1 1.61.24.26.57.38.9.38.28 0 .57-.09.79-.28zm-5.61 1.62l2.4-13.72c.11-.62-.33-1.21-.98-1.31-.66-.11-1.28.31-1.38.94l-2.4 13.71c-.11.62.33 1.21.98 1.32l.2.01c.58 0 1.09-.4 1.18-.95zm0 0"/><path stroke-width="4" stroke="#373d44" fill="#ffcc01" fill-rule="evenodd" d="M387 146.47c16.02 0 29-12.98 29-29s-12.98-29-29-29-29 12.98-29 29 12.98 29 29 29zm0 0"/><path fill="#373d44" fill-rule="evenodd" d="M377 109.27v17.46c0 1.81 1.46 3.27 3.27 3.27h17.73v-24h-17.73c-1.81 0-3.27 1.46-3.27 3.27zm19 18.73h-15.87c-.62 0-1.13-.45-1.13-1s.51-1 1.13-1h15.87v2zm-16-4c-.4 0-.64.88-1 1v-15c0-.6.37-2 1-2h16v16h-16zm0 0"/><path fill="#b8c0c9" opacity=".3" fill-rule="evenodd" d="M227 349c66.83 0 121-3.81 121-8.5 0-4.69-54.17-8.5-121-8.5s-121 3.81-121 8.5c0 4.69 54.17 8.5 121 8.5zm0 0"/><path stroke-width="4" stroke="#373d44" fill="#fff" fill-rule="evenodd" d="M131 186h192v116.01c0 2.2-1.79 3.99-4 3.99h-184c-2.21 0-4-1.79-4-3.99v-116.01zm0 0"/><path stroke-width="4" stroke="#373d44" fill-opacity=".4" fill="#b8c0c9" fill-rule="evenodd" d="M131 163.01c0-2.22 1.79-4.01 4-4.01h184c2.21 0 4 1.79 4 4.01v18.99h-192v-18.99zm0 0"/><path fill="#373d44" fill-rule="evenodd" d="M142.5 174c1.93 0 3.5-1.57 3.5-3.5s-1.57-3.5-3.5-3.5-3.5 1.57-3.5 3.5 1.57 3.5 3.5 3.5zm0 0M153.5 174c1.93 0 3.5-1.57 3.5-3.5s-1.57-3.5-3.5-3.5-3.5 1.57-3.5 3.5 1.57 3.5 3.5 3.5zm0 0M164.5 174c1.93 0 3.5-1.57 3.5-3.5s-1.57-3.5-3.5-3.5-3.5 1.57-3.5 3.5 1.57 3.5 3.5 3.5zm0 0"/><path fill="#b8c0c9" opacity=".4" fill-rule="evenodd" d="M141 197h10v100h-10v-100zm0 0"/><path fill="#b8c0c9" fill-rule="evenodd" d="M155 197h19v6h-19v-6zm0 0M155 249h18v6h-18v-6zm0 0M155 275h4v6h-4v-6zm0 0M196 288h4v6h-4v-6zm0 0M207 275h62v6h-62v-6zm0 0M167 275h33v6h-33v-6zm0 0M155 262h33v6h-33v-6zm0 0M155 288h33v6h-33v-6zm0 0M196 262h47v6h-47v-6zm0 0M207 236h47v6h-47v-6zm0 0M251 262h18v6h-18v-6zm0 0M181 249h33v6h-33v-6zm0 0M155 223h4v6h-4v-6zm0 0M196 236h4v6h-4v-6zm0 0M207 223h33v6h-33v-6zm0 0M167 223h33v6h-33v-6zm0 0M155 210h33v6h-33v-6zm0 0M155 236h33v6h-33v-6zm0 0M196 210h47v6h-47v-6zm0 0M251 210h18v6h-18v-6zm0 0M262 236h18v6h-18v-6zm0 0M181 197h33v6h-33v-6zm0 0"/></svg>
