<?xml version="1.0" encoding="UTF-8" standalone="no"?>
<svg width="454px" height="387px" viewBox="0 0 454 387" version="1.1" xmlns="http://www.w3.org/2000/svg" xmlns:xlink="http://www.w3.org/1999/xlink">
    <!-- Generator: Sketch 3.7 (28169) - http://www.bohemiancoding.com/sketch -->
    <title>Group 55</title>
    <desc>Created with Sketch.</desc>
    <defs>
        <filter x="-50%" y="-50%" width="200%" height="200%" filterUnits="objectBoundingBox" id="filter-1">
            <feOffset dx="0" dy="0" in="SourceAlpha" result="shadowOffsetOuter1"></feOffset>
            <feGaussianBlur stdDeviation="20" in="shadowOffsetOuter1" result="shadowBlurOuter1"></feGaussianBlur>
            <feColorMatrix values="0 0 0 0 0   0 0 0 0 0   0 0 0 0 0  0 0 0 0.147956295 0" type="matrix" in="shadowBlurOuter1" result="shadowMatrixOuter1"></feColorMatrix>
            <feMerge>
                <feMergeNode in="shadowMatrixOuter1"></feMergeNode>
                <feMergeNode in="SourceGraphic"></feMergeNode>
            </feMerge>
        </filter>
        <circle id="path-2" cx="29" cy="79.4699204" r="29"></circle>
        <mask id="mask-3" maskContentUnits="userSpaceOnUse" maskUnits="objectBoundingBox" x="0" y="0" width="58" height="58" fill="white">
            <use xlink:href="#path-2"></use>
        </mask>
        <circle id="path-4" cx="183" cy="29" r="29"></circle>
        <mask id="mask-5" maskContentUnits="userSpaceOnUse" maskUnits="objectBoundingBox" x="0" y="0" width="58" height="58" fill="white">
            <use xlink:href="#path-4"></use>
        </mask>
        <circle id="path-6" cx="349" cy="79.4699204" r="29"></circle>
        <mask id="mask-7" maskContentUnits="userSpaceOnUse" maskUnits="objectBoundingBox" x="0" y="0" width="58" height="58" fill="white">
            <use xlink:href="#path-6"></use>
        </mask>
        <rect id="path-8" x="93" y="148" width="192" height="120"></rect>
        <mask id="mask-9" maskContentUnits="userSpaceOnUse" maskUnits="objectBoundingBox" x="-4" y="-4" width="200" height="128">
            <rect x="89" y="144" width="200" height="128" fill="white"></rect>
            <use xlink:href="#path-8" fill="black"></use>
        </mask>
        <rect id="path-10" x="93" y="121" width="192" height="23" rx="4"></rect>
        <mask id="mask-11" maskContentUnits="userSpaceOnUse" maskUnits="objectBoundingBox" x="-4" y="-4" width="200" height="31">
            <rect x="89" y="117" width="200" height="31" fill="white"></rect>
            <use xlink:href="#path-10" fill="black"></use>
        </mask>
    </defs>
    <g id="Desktop-design" stroke="none" stroke-width="1" fill="none" fill-rule="evenodd">
        <g id="Help-page" transform="translate(-923.000000, -736.000000)">
            <g id="Group-22" filter="url(#filter-1)" transform="translate(99.000000, 30.000000)">
                <g id="Group-55" transform="translate(862.000000, 744.000000)">
                    <g id="Illustration-#1">
                        <g id="Group-21">
                            <path d="M350,80 L183,29" id="Line" stroke="#373D44" stroke-linecap="square" stroke-dasharray="4" opacity="0.3"></path>
                            <path d="M184,29 L29,80" id="Line" stroke="#373D44" stroke-linecap="square" stroke-dasharray="4" opacity="0.3"></path>
                            <path d="M29,79 L89,157.5" id="Line" stroke="#373D44" stroke-linecap="square" stroke-dasharray="4"></path>
                            <path d="M350,82 L289,157" id="Line" stroke="#373D44" stroke-linecap="square" stroke-dasharray="4"></path>
                            <path d="M182.5,26.5 L182.5,119.548378" id="Line" stroke="#373D44" stroke-linecap="square" stroke-dasharray="4"></path>
                            <use id="Oval-644-Copy" stroke="#373D44" mask="url(#mask-3)" stroke-width="8" fill="#49B9E8" xlink:href="#path-2"></use>
                            <path d="M38.9086542,78.6622285 C39.5048078,78.6622285 40.0024039,78.8569397 40.4014418,79.2463628 C40.8004806,79.6357859 41,80.1237665 41,80.7103053 C41,81.6429974 40.5528848,82.2679979 39.6586535,82.5853051 L37.1778846,83.4362673 L37.9855769,85.8449203 C38.0528846,86.0468434 38.086538,86.2728051 38.086538,86.5228055 C38.086538,87.090113 37.8846149,87.5804973 37.4807688,87.9939591 C37.0769226,88.4074209 36.5913457,88.6141513 36.0240382,88.6141513 C35.5721156,88.6141513 35.1610575,88.4843433 34.7908656,88.2247282 C34.4206729,87.965113 34.1634615,87.618959 34.0192304,87.1862668 L33.2259611,84.8064589 L28.7548074,86.3353054 L29.5480767,88.7006903 C29.6250001,88.9314594 29.6634617,89.1574202 29.6634617,89.3785746 C29.6634617,89.9458821 29.4615386,90.4362672 29.0576925,90.8497282 C28.6538463,91.26319 28.1634612,91.4699204 27.586538,91.4699204 C27.1346155,91.4699204 26.7259611,91.3401133 26.3605766,91.0804973 C25.9951921,90.8208821 25.7403843,90.474728 25.5961542,90.0420359 L24.8028849,87.6910749 L22.5961541,88.4554973 C22.3173077,88.5420362 22.0769229,88.5853053 21.8749999,88.5853053 C21.2884619,88.5853053 20.8004805,88.3929978 20.4110573,88.0083821 C20.0216342,87.6237672 19.8269231,87.1381895 19.8269231,86.5516515 C19.8269231,86.0997281 19.9591348,85.6910745 20.2235573,85.32569 C20.4879807,84.9603056 20.8317311,84.7054978 21.2548076,84.5612668 L23.5048075,83.7968435 L21.9903848,79.2824208 L19.740385,80.0612671 C19.4903846,80.1381895 19.2596155,80.1766512 19.0480768,80.1766512 C18.4711536,80.1766512 17.9855767,79.98194 17.5913462,79.5925169 C17.1971157,79.2030938 17,78.7199206 17,78.1429974 C17,77.6910748 17.1322117,77.2824204 17.3966342,76.9170359 C17.6610576,76.5516514 18.004808,76.2968437 18.4278845,76.1526127 L20.6923074,75.3881903 L19.927885,73.0949205 C19.8509617,72.8641514 19.8125,72.6381897 19.8125,72.4170362 C19.8125,71.840113 20.0144231,71.3473242 20.4182693,70.9386707 C20.8221154,70.5300171 21.3124997,70.3256904 21.8894229,70.3256904 C22.3413463,70.3256904 22.7499998,70.4554975 23.1153843,70.7151126 C23.4807688,70.9747286 23.7355766,71.3208827 23.8798076,71.7535749 L24.6586539,74.0612668 L29.1298076,72.5468442 L28.3509613,70.2391514 C28.2740388,70.0083823 28.2355772,69.7824206 28.2355772,69.5612671 C28.2355772,68.9939595 28.4399039,68.5035744 28.8485575,68.0901135 C29.2572119,67.6766517 29.7451924,67.4699204 30.3125,67.4699204 C30.7644226,67.4699204 31.1754807,67.6021321 31.5456734,67.8665555 C31.9158653,68.1309789 32.1730767,68.4747284 32.3173077,68.8978058 L33.081731,71.2199208 L35.418269,70.4266515 C35.620192,70.3689594 35.8269233,70.3401134 36.0384612,70.3401134 C36.6153844,70.3401134 37.1081732,70.5300171 37.5168267,70.9098246 C37.9254803,71.2896321 38.1298079,71.7631897 38.1298079,72.3304972 C38.1298079,72.7631903 37.9855769,73.1550171 37.6971157,73.5059786 C37.4086537,73.8569401 37.0528848,74.1045359 36.6298074,74.2487669 L34.3653845,75.0276132 L35.8798072,79.585305 L38.245192,78.7776127 C38.4759611,78.7006902 38.6971155,78.6622285 38.9086542,78.6622285 L38.9086542,78.6622285 Z M27.4567309,82.4410749 L31.9278846,80.9266514 L30.4134611,76.3833826 L25.9423074,77.9266513 L27.4567309,82.4410749 Z" id="Shape" fill="#373D44"></path>
                            <use id="Oval-644-Copy" stroke="#373D44" mask="url(#mask-5)" stroke-width="8" fill="#3CCD3F" xlink:href="#path-4"></use>
                            <path d="M177.865367,34.4285838 C177.582309,34.4285838 177.296852,34.3337271 177.068966,34.1405852 L171,29.0000384 L177.405997,23.5737787 C177.90015,23.1566379 178.658171,23.1966377 179.098351,23.6686354 C179.538531,24.1406331 179.494153,24.8629154 178.998801,25.2823419 L174.610195,29.0000384 L178.661769,32.4308791 C179.157121,32.8503056 179.201499,33.5725879 178.761319,34.0445856 C178.525037,34.2994415 178.195202,34.4285838 177.865367,34.4285838 L177.865367,34.4285838 Z M188.594003,34.4262981 L195,29.0000384 L188.931034,23.8594916 C188.435682,23.4400651 187.677661,23.4823506 187.238681,23.9543483 C186.798501,24.4263461 186.842879,25.1486283 187.338231,25.5680549 L191.389805,29.0000384 L187.001199,32.716592 C186.505847,33.1360185 186.461469,33.8583008 186.901649,34.3302985 C187.137931,34.5851544 187.467766,34.7142967 187.797601,34.7142967 C188.08066,34.7142967 188.366117,34.61944 188.594003,34.4262981 L188.594003,34.4262981 Z M182.983208,36.0457189 L185.382009,22.331499 C185.491154,21.7086448 185.049775,21.1200762 184.396102,21.0160767 C183.74003,20.9109344 183.123538,21.3326466 183.016792,21.9555008 L180.617991,35.6697207 C180.508846,36.2925748 180.950225,36.8811434 181.603898,36.9851429 C181.671064,36.9954286 181.735832,37 181.801799,37 C182.377511,37 182.886057,36.6034305 182.983208,36.0457189 L182.983208,36.0457189 Z" id="Shape" fill="#373D44"></path>
                            <use id="Oval-644-Copy" stroke="#373D44" mask="url(#mask-7)" stroke-width="8" fill="#FFCC01" xlink:href="#path-6"></use>
                            <path d="M339,71.2727273 L339,88.7272727 C339,90.5354545 340.464545,92 342.272727,92 L360,92 L360,68 L342.272727,68 C340.464545,68 339,69.4645455 339,71.2727273 Z M358,90 L342.133333,90 C341.50745,90 341,89.55225 341,89 C341,88.44775 341.50745,88 342.133333,88 L358,88 L358,90 L358,90 Z M342,86 C341.601917,86 341.355017,86.8791818 341,87 L341,72 C341,71.3972727 341.373833,70 342,70 L358,70 L358,86.0000002 L342,86 Z" id="Shape" fill="#373D44"></path>
                            <ellipse id="Oval-51" fill="#B8C0C9" opacity="0.3" cx="189" cy="302.5" rx="121" ry="8.5"></ellipse>
                            <g id="Rectangle-121">
                                <use fill="#FFFFFF" fill-rule="evenodd" xlink:href="#path-8"></use>
                                <use stroke="#373D44" mask="url(#mask-9)" stroke-width="8" xlink:href="#path-8"></use>
                            </g>
                            <g id="Rectangle-121">
                                <use fill-opacity="0.400000006" fill="#B8C0C9" fill-rule="evenodd" xlink:href="#path-10"></use>
                                <use stroke="#373D44" mask="url(#mask-11)" stroke-width="8" xlink:href="#path-10"></use>
                            </g>
                            <ellipse id="Oval-66" fill="#373D44" cx="104.499079" cy="132.5" rx="3.49907895" ry="3.5"></ellipse>
                            <ellipse id="Oval-66" fill="#373D44" cx="115.499079" cy="132.5" rx="3.49907895" ry="3.5"></ellipse>
                            <ellipse id="Oval-66" fill="#373D44" cx="126.499079" cy="132.5" rx="3.49907895" ry="3.5"></ellipse>
                            <rect id="Rectangle-123" fill="#B8C0C9" opacity="0.4" x="103" y="159" width="10" height="100"></rect>
                            <rect id="Rectangle-124" fill="#B8C0C9" x="117" y="159" width="19" height="6"></rect>
                            <rect id="Rectangle-124" fill="#B8C0C9" x="117" y="211" width="18" height="6"></rect>
                            <rect id="Rectangle-124" fill="#B8C0C9" x="117" y="237" width="4" height="6"></rect>
                            <rect id="Rectangle-124" fill="#B8C0C9" x="158" y="250" width="4" height="6"></rect>
                            <rect id="Rectangle-124" fill="#B8C0C9" x="169" y="237" width="62" height="6"></rect>
                            <rect id="Rectangle-124" fill="#B8C0C9" x="129" y="237" width="33" height="6"></rect>
                            <rect id="Rectangle-124" fill="#B8C0C9" x="117" y="224" width="33" height="6"></rect>
                            <rect id="Rectangle-124" fill="#B8C0C9" x="117" y="250" width="33" height="6"></rect>
                            <rect id="Rectangle-124" fill="#B8C0C9" x="158" y="224" width="47" height="6"></rect>
                            <rect id="Rectangle-124" fill="#B8C0C9" x="169" y="198" width="47" height="6"></rect>
                            <rect id="Rectangle-124" fill="#B8C0C9" x="213" y="224" width="18" height="6"></rect>
                            <rect id="Rectangle-124" fill="#B8C0C9" x="143" y="211" width="33" height="6"></rect>
                            <rect id="Rectangle-124" fill="#B8C0C9" x="117" y="185" width="4" height="6"></rect>
                            <rect id="Rectangle-124" fill="#B8C0C9" x="158" y="198" width="4" height="6"></rect>
                            <rect id="Rectangle-124" fill="#B8C0C9" x="169" y="185" width="33" height="6"></rect>
                            <rect id="Rectangle-124" fill="#B8C0C9" x="129" y="185" width="33" height="6"></rect>
                            <rect id="Rectangle-124" fill="#B8C0C9" x="117" y="172" width="33" height="6"></rect>
                            <rect id="Rectangle-124" fill="#B8C0C9" x="117" y="198" width="33" height="6"></rect>
                            <rect id="Rectangle-124" fill="#B8C0C9" x="158" y="172" width="47" height="6"></rect>
                            <rect id="Rectangle-124" fill="#B8C0C9" x="213" y="172" width="18" height="6"></rect>
                            <rect id="Rectangle-124" fill="#B8C0C9" x="224" y="198" width="18" height="6"></rect>
                            <rect id="Rectangle-124" fill="#B8C0C9" x="143" y="159" width="33" height="6"></rect>
                            <g id="***-Browser" transform="translate(103.000000, 159.000000)" opacity="0.3">
                                <g id="Group-47"></g>
                            </g>
                        </g>
                    </g>
                </g>
            </g>
        </g>
    </g>
</svg>
