<svg height="214" width="304" xmlns="http://www.w3.org/2000/svg" viewBox="0 0 304 214"><path stroke-width="4" stroke="#373d44" fill-opacity=".4" fill="#b8c0c9" fill-rule="evenodd" d="M229.34 130.56c0-3.87-.96-6.91-2.9-9.12-1.93-2.2-5.33-4.29-10.18-6.25-4.86-1.96-9.35-3.95-13.46-5.96-4.12-2.01-7.66-4.34-10.64-6.99-2.97-2.65-5.25-5.71-6.84-9.19-1.59-3.49-2.38-7.7-2.38-12.66 0-8.29 2.83-15.12 8.48-20.49 5.65-5.37 13.19-8.49 22.61-9.38v-15.52h11.82v15.82c9.07 1.32 16.2 5.01 21.38 11.07 5.18 6.06 7.77 13.74 7.77 23.06h-25.14c0-5.1-.99-9.02-2.97-11.77-1.98-2.74-4.81-4.12-8.48-4.12-3.27 0-5.81 1.02-7.62 3.06-1.81 2.03-2.71 4.84-2.71 8.42 0 3.63 1.04 6.51 3.12 8.64 2.08 2.14 5.43 4.17 10.04 6.11 4.61 1.94 8.96 3.95 13.05 6.03 4.09 2.09 7.62 4.45 10.6 7.1 2.97 2.65 5.3 5.74 6.99 9.27 1.68 3.53 2.53 7.77 2.53 12.73 0 8.38-2.69 15.23-8.07 20.52-5.38 5.3-12.71 8.39-21.98 9.27v14.79h-11.82v-14.86c-10.81-1.13-19.1-4.79-24.88-11-5.77-6.2-8.66-14.38-8.66-24.53h25.06c0 5.59 1.25 9.84 3.76 12.76 2.5 2.92 6.06 4.38 10.67 4.38 3.37 0 6.02-1 7.95-2.98 1.94-1.99 2.9-4.72 2.9-8.21zm0 0"/><path stroke-dasharray="4" stroke="#0070d3" d="M295 7h-157M295 207h-157M137 205v-199M297 205v-199" fill="none"/><path stroke-width="2" stroke="#0070d3" fill="#fff" fill-rule="evenodd" d="M292 2h10v10h-10v-10zm0 0M132 2h10v10h-10v-10zm0 0M132 202h10v10h-10v-10zm0 0M292 202h10v10h-10v-10zm0 0"/><path stroke-width="3" stroke="#373d44" fill-opacity=".4" fill="#b8c0c9" fill-rule="evenodd" d="M62.12 122.83c0-2.4-.59-4.29-1.79-5.65-1.19-1.37-3.29-2.66-6.29-3.87-3-1.22-5.77-2.45-8.31-3.69-2.54-1.25-4.73-2.69-6.57-4.33-1.84-1.64-3.25-3.53-4.23-5.69-.98-2.16-1.47-4.77-1.47-7.83 0-5.13 1.75-9.36 5.24-12.69 3.49-3.32 8.14-5.26 13.96-5.8v-9.61h7.31v9.79c5.6.82 10 3.1 13.2 6.85 3.2 3.75 4.8 8.51 4.8 14.28h-15.52c0-3.16-.62-5.59-1.84-7.29-1.23-1.7-2.97-2.55-5.24-2.55-2.02 0-3.59.63-4.71 1.89-1.11 1.26-1.67 3-1.67 5.22 0 2.24.64 4.03 1.93 5.35 1.28 1.32 3.35 2.58 6.2 3.78 2.85 1.2 5.53 2.44 8.06 3.73 2.53 1.29 4.71 2.76 6.54 4.4 1.84 1.64 3.28 3.55 4.32 5.74 1.04 2.18 1.56 4.81 1.56 7.87 0 5.2-1.66 9.43-4.98 12.71-3.32 3.28-7.85 5.19-13.57 5.74v9.15h-7.31v-9.2c-6.67-.69-11.79-2.96-15.36-6.8-3.57-3.85-5.35-8.91-5.35-15.19h15.48c0 3.46.77 6.09 2.32 7.9 1.54 1.81 3.74 2.71 6.59 2.71 2.08 0 3.72-.62 4.91-1.85 1.2-1.23 1.79-2.92 1.79-5.07zm0 0"/><path stroke-dasharray="4" stroke="#373d44" opacity=".2" d="M102.68 45.1h-96.97M102.68 168.9h-96.97M5.09 167.67v-123.2M103.91 167.67v-123.2" fill="none"/><path stroke-width="2" stroke="#d1d4d5" fill="#fff" fill-rule="evenodd" d="M100.82 42h6.18v6.19h-6.18v-6.19zm0 0M2 42h6.18v6.19h-6.18v-6.19zm0 0M2 165.81h6.18v6.19h-6.18v-6.19zm0 0M100.82 165.81h6.18v6.19h-6.18v-6.19zm0 0"/></svg>
