<?xml version="1.0" encoding="UTF-8" standalone="no"?>
<svg width="116px" height="18px" viewBox="0 0 116 18" version="1.1" xmlns="http://www.w3.org/2000/svg" xmlns:xlink="http://www.w3.org/1999/xlink">
    <!-- Generator: Sketch 3.6 (26304) - http://www.bohemiancoding.com/sketch -->
    <title>Page 1</title>
    <desc>Created with Sketch.</desc>
    <defs></defs>
    <g id="Page-1" stroke="none" stroke-width="1" fill="none" fill-rule="evenodd">
        <g id="Serverless-documentation" transform="translate(-210.000000, -100.000000)" fill="#0070D3">
            <g id="**-Shadow-group" transform="translate(100.000000, 30.000000)">
                <g id="//-Header">
                    <path d="M185.020979,79.0629371 C185.020979,75.6643357 182.566434,72.8951049 179.104895,72.8951049 C175.643357,72.8951049 173.251748,75.6643357 173.251748,79.0629371 C173.251748,82.4615385 175.706294,85.2307692 179.167832,85.2307692 C182.629371,85.2307692 185.020979,82.4615385 185.020979,79.0629371 L185.020979,79.0629371 Z M185.146853,87.6853147 L185.146853,85.7972028 C183.573427,87.1818182 181.496503,88 179.104895,88 C175.832168,88 173.188811,86.4895105 171.615385,84.2237762 C170.041958,86.4895105 167.398601,88 164.125874,88 C158.776224,88 155.062937,83.972028 155.062937,79.0629371 C155.062937,74.1538462 158.839161,70.0629371 164.125874,70.0629371 C166.328671,70.0629371 168.27972,70.7552448 169.79021,71.951049 C169.160839,72.7692308 168.657343,73.6503497 168.216783,74.5944056 C167.146853,73.5244755 165.762238,72.8321678 164.062937,72.8321678 C160.601399,72.8321678 158.20979,75.6013986 158.20979,79 C158.20979,82.3986014 160.664336,85.1678322 164.125874,85.1678322 C167.587413,85.1678322 169.979021,82.3986014 169.979021,79 C169.979021,74.0909091 173.755245,70 179.041958,70 C184.391608,70 188.104895,74.027972 188.104895,78.9370629 L188.104895,87.6223776 L185.146853,87.6223776 L185.146853,87.6853147 Z M121.265734,71.6363636 C119.755245,70.6293706 117.993007,70.1258741 115.916084,70.1258741 C112.454545,70.1258741 110,72.1398601 110,75.1608392 C110,78.3706294 112.076923,79.4405594 115.79021,80.3846154 C119,81.1398601 119.692308,81.7692308 119.692308,83.027972 C119.692308,84.3496503 118.496503,85.2307692 116.608392,85.2307692 C114.909091,85.2307692 113.587413,84.7272727 112.265734,83.8461538 L110.881119,86.3006993 C112.58042,87.3706294 114.531469,87.9370629 116.545455,87.9370629 C120.195804,87.9370629 122.713287,85.986014 122.713287,82.7132867 C122.713287,79.8181818 120.825175,78.4965035 117.174825,77.6153846 C113.839161,76.7972028 113.083916,76.2307692 113.083916,74.8461538 C113.083916,73.7132867 114.153846,72.7692308 115.916084,72.7692308 C117.237762,72.7692308 118.559441,73.2097902 119.881119,74.027972 L121.265734,71.6363636 Z M198.426573,70.1258741 C193.706294,70.1258741 190.748252,72.8321678 190.748252,78.0559441 L190.748252,87.6853147 L193.958042,87.6853147 L193.958042,78.1818182 C193.958042,74.8461538 195.72028,73.020979 198.552448,73.020979 C201.384615,73.020979 203.146853,74.8461538 203.146853,78.1818182 L203.146853,87.6853147 L206.356643,87.6853147 L206.356643,78.0559441 C206.356643,72.8321678 203.335664,70.1258741 198.678322,70.1258741 L198.426573,70.1258741 L198.426573,70.1258741 Z M222.783217,79.0629371 C222.783217,82.4615385 220.391608,85.2307692 216.93007,85.2307692 C213.468531,85.2307692 211.013986,82.4615385 211.013986,79.0629371 C211.013986,75.6643357 213.405594,72.8951049 216.867133,72.8951049 C220.328671,72.8321678 222.783217,75.6643357 222.783217,79.0629371 L222.783217,79.0629371 Z M225.993007,79 C225.993007,74.0909091 222.27972,70.0629371 216.93007,70.0629371 C211.58042,70.0629371 207.867133,74.1538462 207.867133,79.0629371 C207.867133,83.972028 211.58042,88 216.93007,88 C222.27972,88 225.993007,83.9090909 225.993007,79 L225.993007,79 Z M137.944056,87.6853147 L141.090909,87.6853147 L141.090909,78.0559441 C141.090909,74.7202797 142.853147,73.020979 145.622378,73.020979 C148.454545,73.020979 150.216783,74.8461538 150.216783,78.1818182 L150.216783,87.6853147 L153.363636,87.6853147 L153.363636,78.0559441 C153.363636,72.8321678 150.342657,70.1258741 145.685315,70.1258741 C140.965035,70.1258741 137.881119,72.8321678 137.881119,78.2447552 L137.881119,87.6853147 L137.944056,87.6853147 Z M138.951049,70.3776224 L132.027972,81.8321678 L132.027972,87.6853147 L128.881119,87.6853147 L128.881119,81.8951049 L121.958042,70.3146853 L125.482517,70.3776224 L130.454545,79 L135.426573,70.3776224 L138.951049,70.3776224 Z" id="Page-1"></path>
                </g>
            </g>
        </g>
    </g>
</svg>