<?xml version="1.0" encoding="UTF-8" standalone="no"?>
<svg width="178px" height="28px" viewBox="0 0 178 28" version="1.1" xmlns="http://www.w3.org/2000/svg" xmlns:xlink="http://www.w3.org/1999/xlink">
    <!-- Generator: Sketch 3.6 (26304) - http://www.bohemiancoding.com/sketch -->
    <title>Page 1</title>
    <desc>Created with Sketch.</desc>
    <defs></defs>
    <g id="Page-1" stroke="none" stroke-width="1" fill="none" fill-rule="evenodd" opacity="0.7">
        <g id="Serverless-documentation" transform="translate(-211.000000, -2707.000000)" fill="#B8C0C9">
            <g id="**-Shadow-group" transform="translate(100.000000, 30.000000)">
                <g id="//-Footer" transform="translate(0.000000, 2557.000000)">
                    <path d="M226.125339,133.907759 C226.125339,128.692349 222.358654,124.442756 217.046663,124.442756 C211.734672,124.442756 208.064569,128.692349 208.064569,133.907759 C208.064569,139.123169 211.831253,143.372762 217.143245,143.372762 C222.455236,143.372762 226.125339,139.123169 226.125339,133.907759 L226.125339,133.907759 Z M226.318502,147.139447 L226.318502,144.241997 C223.903961,146.366793 220.716766,147.622355 217.046663,147.622355 C212.024417,147.622355 207.967987,145.304395 205.553445,141.827455 C203.138904,145.304395 199.082474,147.622355 194.060228,147.622355 C185.850787,147.622355 180.152469,141.441129 180.152469,133.907759 C180.152469,126.37439 185.947368,120.096582 194.060228,120.096582 C197.440586,120.096582 200.434617,121.15898 202.752577,122.994031 C201.786761,124.249593 201.014107,125.601736 200.338036,127.050461 C198.696148,125.408573 196.571351,124.346175 193.963646,124.346175 C188.651655,124.346175 184.981552,128.595768 184.981552,133.811177 C184.981552,139.026587 188.748237,143.27618 194.060228,143.27618 C199.372219,143.27618 203.042322,139.026587 203.042322,133.811177 C203.042322,126.277808 208.837222,120 216.950081,120 C225.159523,120 230.85784,126.181226 230.85784,133.714596 L230.85784,147.042865 L226.318502,147.042865 L226.318502,147.139447 Z M128.288117,122.511123 C125.970157,120.965817 123.265871,120.193163 120.078676,120.193163 C114.766685,120.193163 111,123.283776 111,127.919696 C111,132.845361 114.187195,134.487249 119.885513,135.935974 C124.811177,137.094954 125.873576,138.06077 125.873576,139.992404 C125.873576,142.020619 124.038524,143.372762 121.141074,143.372762 C118.53337,143.372762 116.505155,142.600109 114.47694,141.247965 L112.352143,145.01465 C114.959848,146.656538 117.95388,147.525773 121.044493,147.525773 C126.646229,147.525773 130.509495,144.531742 130.509495,139.509495 C130.509495,135.066739 127.612046,133.038524 122.010309,131.686381 C116.891481,130.430819 115.732501,129.561584 115.732501,127.436788 C115.732501,125.698318 117.37439,124.249593 120.078676,124.249593 C122.106891,124.249593 124.135106,124.925665 126.163321,126.181226 L128.288117,122.511123 Z M246.697233,120.193163 C239.453608,120.193163 234.91427,124.346175 234.91427,132.362453 L234.91427,147.139447 L239.839935,147.139447 L239.839935,132.555616 C239.839935,127.436788 242.544221,124.63592 246.890396,124.63592 C251.236571,124.63592 253.940857,127.436788 253.940857,132.555616 L253.940857,147.139447 L258.866522,147.139447 L258.866522,132.362453 C258.866522,124.346175 254.230602,120.193163 247.083559,120.193163 L246.697233,120.193163 L246.697233,120.193163 Z M284.074335,133.907759 C284.074335,139.123169 280.404232,143.372762 275.092241,143.372762 C269.78025,143.372762 266.013565,139.123169 266.013565,133.907759 C266.013565,128.692349 269.683668,124.442756 274.995659,124.442756 C280.307651,124.346175 284.074335,128.692349 284.074335,133.907759 L284.074335,133.907759 Z M289,133.811177 C289,126.277808 283.301682,120.096582 275.092241,120.096582 C266.8828,120.096582 261.184482,126.37439 261.184482,133.907759 C261.184482,141.441129 266.8828,147.622355 275.092241,147.622355 C283.301682,147.622355 289,141.344547 289,133.811177 L289,133.811177 Z M153.882257,147.139447 L158.71134,147.139447 L158.71134,132.362453 C158.71134,127.243625 161.415627,124.63592 165.66522,124.63592 C170.011394,124.63592 172.715681,127.436788 172.715681,132.555616 L172.715681,147.139447 L177.544764,147.139447 L177.544764,132.362453 C177.544764,124.346175 172.908844,120.193163 165.761801,120.193163 C158.518177,120.193163 153.785676,124.346175 153.785676,132.652198 L153.785676,147.139447 L153.882257,147.139447 Z M155.427564,120.57949 L144.803581,138.157352 L144.803581,147.139447 L139.974498,147.139447 L139.974498,138.253934 L129.350515,120.482908 L134.759088,120.57949 L142.38904,133.811177 L150.018991,120.57949 L155.427564,120.57949 Z" id="Page-1"></path>
                </g>
            </g>
        </g>
    </g>
</svg>