<svg width="100" height="100" viewBox="0 0 100 100" xmlns="http://www.w3.org/2000/svg"><title>automation-is-key</title><path d="M50.256 89.854c21.882 0 39.604-17.732 39.604-39.604 0-21.871-17.722-39.604-39.604-39.604-21.88 0-39.604 17.733-39.604 39.604 0 21.872 17.723 39.604 39.604 39.604zM50.232.746c27.356 0 49.53 22.163 49.53 49.504 0 27.342-22.174 49.505-49.53 49.505C22.87 99.755.752 77.592.752 50.25.751 22.91 22.87.746 50.231.746zm2.5 24.752v25.99L75.009 64.7l-3.728 6.094-25.975-15.594V25.498h7.426z" fill="#D4E157" fill-rule="evenodd" fill-opacity=".902"/></svg>
