<svg width="100" height="104" viewBox="0 0 100 104" xmlns="http://www.w3.org/2000/svg"><title>data-management</title><path d="M9.506 10.284h9.453v9.34H9.506v-9.34zm90.44 74.704c0-5.156-5.59-9.34-12.486-9.34H12.541c-6.895 0-12.487 4.184-12.487 9.34v9.34c0 5.159 5.592 9.341 12.487 9.341h74.92c6.895 0 12.485-4.182 12.485-9.341v-9.34zm0-37.351c0-5.158-5.59-9.338-12.486-9.338H12.541c-6.895 0-12.487 4.18-12.487 9.338v9.338c0 5.157 5.592 9.34 12.487 9.34h74.92c6.895 0 12.485-4.183 12.485-9.34v-9.338zm0-37.353c0-5.156-5.59-9.338-12.486-9.338H12.54C5.644.946.053 5.128.053 10.284v9.34c0 5.157 5.591 9.34 12.487 9.34h74.92c6.894 0 12.484-4.183 12.484-9.34l.002-9.34zM9.506 56.975h9.453v-9.338H9.506v9.338zm0 37.353h9.453v-9.34H9.506v9.34z" fill="#66BB6A" fill-rule="evenodd"/></svg>
