<svg xmlns="http://www.w3.org/2000/svg" viewBox="0 0 60 60" width="512" height="512"><g fill="#0070d3"><path d="M59 16c.6 0 1-.4 1-1V1c0-.6-.4-1-1-1H37c-.6 0-1 .4-1 1v6H24V1c0-.6-.4-1-1-1H1C.4 0 0 .4 0 1v14c0 .6.4 1 1 1h9v5H1c-.6 0-1 .4-1 1v14c0 .6.4 1 1 1h18v-2H2V23h21v-2H12v-5h11c.6 0 1-.4 1-1V9h12v6c0 .6.4 1 1 1h10v5H37v2h21v12H41v2h18c.6 0 1-.4 1-1V22c0-.6-.4-1-1-1H49v-5h10zm-37-2H2V2h20v12zM38 2h20v12H38V2zM35 39H25c-3.9 0-7 3.1-7 7v14h2V46c0-2.8 2.2-5 5-5h1.3l2.8 7.4c.1.3.5.6.9.6s.8-.3 1.1-.6l2.8-7.4H35c2.8 0 5 2.2 5 5v14h2V46c0-3.9-3.1-7-7-7zm-4.9 6.2L28.5 41h3.2l-1.6 4.2z"/><path d="M29 51h2v2h-2zM29 55h2v2h-2zM29 38h2c2.8 0 5-2.2 5-5v-3c0-2.8-2.2-5-5-5h-2c-2.8 0-5 2.2-5 5v3c0 2.8 2.2 5 5 5zm-3-8c0-1.7 1.3-3 3-3h2c1.7 0 3 1.3 3 3v3c0 1.7-1.3 3-3 3h-2c-1.7 0-3-1.3-3-3v-3zM23 49h2v11h-2zM35 49h2v11h-2zM5 5h10v2H5zM5 9h14v2H5zM41 26h10v2H41zM41 30h14v2H41zM41 5h2v2h-2zM45 5h2v2h-2zM49 5h2v2h-2zM53 5h2v2h-2zM41 9h2v2h-2zM45 9h2v2h-2zM49 9h2v2h-2zM53 9h2v2h-2zM5 26h2v2H5zM9 26h2v2H9zM13 26h2v2h-2zM17 26h2v2h-2zM5 30h2v2H5zM9 30h2v2H9zM13 30h2v2h-2zM17 30h2v2h-2z"/></g></svg>
