<svg xmlns="http://www.w3.org/2000/svg" viewBox="0 0 56.004 56.004" width="512" height="512"><g fill="#0070d3"><path d="M51.426 44.336c-.429-4.107-3.852-7.332-7.953-7.332-2.564 0-4.984 1.286-6.48 3.402a5.11 5.11 0 0 0-.883-.076c-2.32 0-4.381 1.577-5.066 3.813-1.907 1.131-3.116 3.241-3.116 5.502 0 3.507 2.785 6.359 6.208 6.359H44.91c.06 0 .118-.004.171-.008.062.004.124.008.188.008h4.31c3.225 0 5.849-2.687 5.849-5.989-.001-2.6-1.643-4.873-4.002-5.679zm-1.848 9.668l-4.352-.003-.17-.006-10.922.009c-2.32 0-4.208-1.956-4.208-4.359 0-1.665.949-3.21 2.417-3.935l.435-.214.102-.475c.331-1.56 1.689-2.691 3.229-2.691.345 0 .688.057 1.02.168l.777.261.408-.711c1.096-1.906 3.024-3.044 5.158-3.044 3.265 0 5.955 2.747 5.998 6.123l.011.813.799.155c1.823.354 3.146 2.002 3.146 3.919.001 2.2-1.726 3.99-3.848 3.99z"/><path d="M25.577 41c-.827 0-1.637-.016-2.432-.044-.486-.018-.955-.049-1.429-.077-.293-.017-.595-.028-.883-.049a56.814 56.814 0 0 1-1.847-.167c-.114-.012-.233-.02-.346-.032a57.277 57.277 0 0 1-2.026-.259l-.051-.007c-3.385-.5-6.29-1.263-8.561-2.169a21.248 21.248 0 0 1-1.222-.533l-.132-.062a15.908 15.908 0 0 1-.945-.497c-.07-.04-.144-.079-.212-.12a11.544 11.544 0 0 1-.721-.463c-.086-.06-.175-.12-.257-.18a8.234 8.234 0 0 1-.526-.426c-.089-.079-.179-.157-.26-.236a5.42 5.42 0 0 1-.582-.669 3.729 3.729 0 0 1-.231-.369 2.449 2.449 0 0 1-.259-.659c-.038-.162-.079-.325-.079-.485V25.29c.028.026.063.051.092.077.218.191.44.382.69.566C7.126 28.786 14.659 31 25.577 31c10.872 0 18.386-2.196 22.169-5.028.302-.22.574-.447.83-.678h.001V34a1 1 0 1 0 2 0V9a.98.98 0 0 0-.146-.49C49.273 4.22 40.654 0 25.577 0S1.881 4.22.724 8.51A.97.97 0 0 0 .577 9v37c0 .161.042.313.115.448 1.139 4.833 10.691 7.68 19.81 8.364a.998.998 0 0 0 1.072-.922 1 1 0 0 0-.922-1.072c-11.114-.834-17.59-4.218-18.043-6.98a1.138 1.138 0 0 0-.032-.131v-8.414c.028.026.063.051.092.077.218.191.44.382.69.566C7.126 40.786 14.659 43 25.577 43a1 1 0 1 0 0-2zM3.179 13.797c.3.236.624.469.975.696.073.047.155.093.231.14a17.11 17.11 0 0 0 1.299.731c.365.186.748.366 1.151.542.066.029.126.059.193.087.469.199.967.389 1.485.572.143.051.293.099.44.149.412.139.838.272 1.279.401.159.046.315.094.478.139.585.162 1.189.316 1.823.458.087.02.181.037.269.056a43.778 43.778 0 0 0 2.348.444c.567.093 1.151.179 1.75.257.154.02.301.042.457.062.744.09 1.514.167 2.305.233.195.016.398.028.596.042.633.046 1.28.084 1.942.114.241.011.481.022.727.03.863.03 1.741.05 2.65.05s1.788-.021 2.65-.05c.245-.008.485-.02.727-.03.662-.03 1.309-.068 1.942-.114.198-.015.4-.026.596-.042a60.436 60.436 0 0 0 2.305-.233c.156-.019.303-.042.457-.062a53.904 53.904 0 0 0 2.363-.361 43.778 43.778 0 0 0 1.735-.34c.088-.019.182-.036.269-.056a37.577 37.577 0 0 0 1.823-.458c.163-.045.319-.092.478-.139.441-.128.867-.262 1.279-.401.147-.05.297-.098.44-.149a27.194 27.194 0 0 0 1.485-.572c.067-.028.127-.059.193-.087a21.377 21.377 0 0 0 1.518-.735c.327-.175.638-.354.932-.538.076-.047.158-.093.231-.14.351-.227.675-.459.975-.696.075-.06.142-.12.215-.18.13-.108.267-.215.387-.324V21.5c0 .161-.041.323-.079.485a2.412 2.412 0 0 1-.116.362 3.39 3.39 0 0 1-.593.943 5.42 5.42 0 0 1-.363.392c-.081.079-.17.157-.26.236a8.234 8.234 0 0 1-.526.426c-.082.061-.17.12-.257.18-.226.156-.462.311-.721.463-.068.041-.141.08-.212.12a17.18 17.18 0 0 1-.945.497l-.132.062c-.375.177-.767.351-1.186.519l-.036.014c-2.271.907-5.176 1.67-8.561 2.169l-.051.007a52.95 52.95 0 0 1-2.026.259c-.113.012-.232.02-.346.032-.605.063-1.217.121-1.847.167-.288.021-.59.032-.883.049-.474.028-.943.059-1.429.077a69.019 69.019 0 0 1-4.863-.003c-.486-.018-.955-.049-1.429-.077-.293-.017-.595-.028-.883-.049a56.814 56.814 0 0 1-1.847-.167c-.114-.012-.233-.02-.346-.032a57.277 57.277 0 0 1-2.026-.259l-.051-.007c-3.385-.5-6.29-1.263-8.561-2.169a21.248 21.248 0 0 1-1.222-.533l-.132-.062a15.908 15.908 0 0 1-.945-.497c-.07-.04-.144-.079-.212-.12a11.544 11.544 0 0 1-.721-.463c-.086-.06-.175-.12-.257-.18a8.234 8.234 0 0 1-.526-.426c-.089-.079-.179-.157-.26-.236a5.42 5.42 0 0 1-.582-.669 3.729 3.729 0 0 1-.231-.369 2.449 2.449 0 0 1-.259-.659c-.038-.162-.079-.325-.079-.485V13.29c.12.109.257.216.387.324.073.063.14.123.216.183zM25.577 2c13.555 0 23 3.952 23 7.5s-9.445 7.5-23 7.5-23-3.952-23-7.5 9.445-7.5 23-7.5z"/></g></svg>
