<svg width="180" height="160" viewBox="0 0 180 160" xmlns="http://www.w3.org/2000/svg"><title>the-instant-backend-solution-for-react-developers</title><g fill="none" fill-rule="evenodd"><path d="M147.467 52.126a120.3 120.3 0 0 0-5.77-1.818c.321-1.306.618-2.619.892-3.936 4.367-21.202 1.512-38.283-8.241-43.905-9.35-5.393-24.644.229-40.088 13.67a119.892 119.892 0 0 0-4.463 4.096 110.644 110.644 0 0 0-2.97-2.744C70.64 3.117 54.416-2.939 44.674 2.701c-9.342 5.408-12.11 21.466-8.177 41.559.392 1.99.833 3.97 1.325 5.937a117.56 117.56 0 0 0-6.634 2.086C12.211 58.9.092 69.27.092 80.023c0 11.11 13.009 22.252 32.776 29.007a101.89 101.89 0 0 0 4.847 1.515c-.529 2.12-.998 4.254-1.407 6.4-3.75 19.745-.822 35.422 8.495 40.796 9.623 5.55 25.774-.155 41.501-13.902a101.54 101.54 0 0 0 3.74-3.447 117.674 117.674 0 0 0 4.845 4.42c15.235 13.11 30.28 18.403 39.589 13.014 9.614-5.566 12.738-22.408 8.68-42.898-.318-1.606-.676-3.204-1.073-4.792 1.134-.335 2.247-.68 3.333-1.04 20.549-6.808 33.918-17.815 33.918-29.072 0-10.794-12.51-21.234-31.869-27.898z" fill="#53C1DE"/><path d="M143.01 101.828c-.98.324-1.986.638-3.01.94-2.27-7.18-5.331-14.817-9.078-22.706 3.576-7.703 6.519-15.242 8.724-22.377 1.79.517 3.567 1.078 5.328 1.682 16.587 5.709 26.705 14.152 26.705 20.657 0 6.93-10.928 15.924-28.669 21.804zm-7.362 14.587c1.793 9.06 2.05 17.253.862 23.657-1.068 5.754-3.215 9.59-5.87 11.127-5.648 3.27-17.73-.98-30.756-12.19a109.78 109.78 0 0 1-4.508-4.11c5.052-5.525 10.1-11.947 15.025-19.078 8.666-.77 16.852-2.027 24.277-3.742.365 1.476.69 2.921.97 4.336zM61.2 150.634c-5.52 1.95-9.915 2.004-12.571.473-5.654-3.26-8.005-15.85-4.799-32.734.381-1.996.818-3.98 1.31-5.952 7.34 1.625 15.468 2.793 24.154 3.497 4.958 6.98 10.152 13.393 15.386 19.01a94.29 94.29 0 0 1-3.415 3.145c-6.954 6.08-13.923 10.391-20.064 12.56H61.2zm-25.855-48.85c-8.74-2.986-15.958-6.87-20.906-11.105-4.446-3.808-6.69-7.588-6.69-10.655 0-6.527 9.73-14.852 25.96-20.51a110.649 110.649 0 0 1 6.17-1.941c2.243 7.295 5.185 14.924 8.736 22.637-3.597 7.829-6.582 15.579-8.845 22.96a93.916 93.916 0 0 1-4.425-1.386zm8.667-58.995C40.643 25.573 42.88 12.586 48.51 9.327c5.997-3.47 19.257 1.48 33.232 13.888.912.811 1.808 1.64 2.69 2.483-5.207 5.592-10.354 11.958-15.27 18.896-8.43.782-16.5 2.037-23.918 3.717-.457-1.83-.868-3.672-1.232-5.523v.001zm77.318 19.092a243.52 243.52 0 0 0-5.45-8.964c5.718.722 11.198 1.682 16.343 2.857-1.545 4.95-3.47 10.127-5.737 15.434a266.873 266.873 0 0 0-5.156-9.327zM89.8 31.17c3.53 3.825 7.069 8.098 10.548 12.733a225.483 225.483 0 0 0-21.186-.005c3.483-4.592 7.05-8.859 10.637-12.729zM58.067 61.933a226.272 226.272 0 0 0-5.06 9.268c-2.229-5.288-4.137-10.489-5.695-15.51 5.114-1.145 10.568-2.079 16.25-2.79a225.122 225.122 0 0 0-5.495 9.031zm5.659 45.758c-5.87-.656-11.407-1.544-16.52-2.656 1.583-5.11 3.533-10.422 5.81-15.824a224.887 224.887 0 0 0 10.71 18.48zm26.285 21.726c-3.629-3.916-7.249-8.247-10.784-12.906 3.431.135 6.93.202 10.487.202 3.654 0 7.265-.081 10.82-.24-3.49 4.745-7.015 9.083-10.523 12.944zm36.548-40.482c2.395 5.46 4.415 10.744 6.02 15.768-5.199 1.186-10.809 2.14-16.721 2.85a267.758 267.758 0 0 0 5.502-9.121 243.242 243.242 0 0 0 5.199-9.497zm-11.831 5.672a251.052 251.052 0 0 1-8.6 13.874c-5.317.38-10.814.576-16.414.576-5.578 0-11.003-.174-16.229-.512a217.195 217.195 0 0 1-16.407-28.338c2.36-4.91 4.902-9.731 7.624-14.45 2.72-4.72 5.62-9.334 8.691-13.835a217.001 217.001 0 0 1 32.673.005c3.04 4.493 5.92 9.092 8.637 13.79a251.004 251.004 0 0 1 7.726 14.381 230.687 230.687 0 0 1-7.701 14.509zM130.524 9.1c6.001 3.462 8.336 17.42 4.565 35.727-.248 1.192-.516 2.381-.807 3.564-7.435-1.716-15.51-2.993-23.966-3.787-4.925-7.013-10.028-13.39-15.15-18.91a112.582 112.582 0 0 1 4.121-3.78C112.52 10.397 124.888 5.85 130.524 9.1z" fill="#FFF"/><path d="M89.714 64.018c8.84 0 16.006 7.166 16.006 16.006S98.554 96.03 89.714 96.03s-16.006-7.166-16.006-16.006 7.166-16.006 16.006-16.006" fill="#53C1DE"/></g></svg>
