<svg width="100" height="100" viewBox="0 0 100 100" xmlns="http://www.w3.org/2000/svg"><title>user-management</title><path d="M79.945 95.645c0-11.23-10.935-16.945-21.585-21.535-10.615-4.57-14.005-8.42-14.005-16.67 0-4.945 3.24-3.335 4.66-12.405.6-3.76 3.46-.06 4.01-8.645 0-3.42-1.565-4.27-1.565-4.27s.795-5.065 1.105-8.965c.32-4.085-1.99-12.8-11.505-15.475-1.66-1.705-2.785-4.41 2.335-7.12-11.2-.52-13.805 5.34-19.77 9.65-5.075 3.78-6.445 9.765-6.2 12.95.325 3.9 1.115 8.965 1.115 8.965s-1.57.85-1.57 4.27c.55 8.59 3.42 4.885 4.015 8.645 1.42 9.07 4.665 7.46 4.665 12.405 0 8.25-1.06 11.05-11.68 15.62C3.315 77.65 0 85 .055 95.645.07 98.83 0 100 0 100h80s-.055-1.17-.055-4.355zm12.695-28.82c-5.675-2.285-8.025-5.01-8.025-10.33 0-3.205 2.09-2.16 3.01-8.015.385-2.42 2.235-.04 2.59-5.575 0-2.205-1.01-2.755-1.01-2.755s.515-3.28.715-5.795c.25-3.135-1.82-11.235-11.34-11.235-9.515 0-11.59 8.1-11.345 11.235.21 2.51.72 5.795.72 5.795s-1.01.545-1.01 2.755c.355 5.535 2.205 3.155 2.59 5.575.92 5.86 3.01 4.815 3.01 8.015 0 5.32-2.19 7.81-9.045 10.76l-.915.51c8.2 3.56 21.13 9.705 24.19 22.235H100V78.41c0-5-1.365-9.17-7.36-11.585z" fill="#0070D3" fill-rule="evenodd"/></svg>
