<svg xmlns="http://www.w3.org/2000/svg" viewBox="0 0 357.514 357.514" width="512" height="512"><path d="M353.352 108.129c0-12.128-9.865-21.994-21.994-21.994H217.682a7.499 7.499 0 0 0-7.5 7.5v35.42a7.499 7.499 0 0 0 10.762 6.753 24.085 24.085 0 0 1 10.561-2.405c13.408 0 24.318 10.909 24.318 24.318 0 13.408-10.91 24.317-24.318 24.317-3.703 0-7.256-.81-10.561-2.405a7.498 7.498 0 0 0-10.762 6.753v27.959h-17.758c.334-2.073.502-4.184.502-6.324 0-21.679-17.639-39.316-39.318-39.316-21.682 0-39.318 17.638-39.318 39.316 0 2.14.168 4.25.502 6.324h-25.27a7.499 7.499 0 0 0-7.5 7.5V335.52c0 12.128 9.865 21.994 21.994 21.994H331.36c12.127 0 21.992-9.866 21.992-21.994V108.129zM97.022 335.52V229.344h27.92a7.5 7.5 0 0 0 6.754-10.761 24.086 24.086 0 0 1-2.406-10.564c0-13.408 10.908-24.316 24.318-24.316 13.408 0 24.318 10.908 24.318 24.316 0 3.703-.811 7.257-2.406 10.563a7.5 7.5 0 0 0 6.754 10.762h27.908v17.768c-2.07-.332-4.176-.5-6.313-.5h-.012c-21.68 0-39.316 17.638-39.316 39.316 0 21.681 17.637 39.318 39.316 39.318h.012c2.137 0 4.242-.168 6.313-.5v17.768H104.016a7.001 7.001 0 0 1-6.994-6.994zm241.33 0c0 3.857-3.137 6.994-6.992 6.994H225.194v-27.92a7.503 7.503 0 0 0-8.028-7.483 7.476 7.476 0 0 0-2.746.729 24.089 24.089 0 0 1-10.557 2.406c-13.406-.004-24.313-10.911-24.313-24.318 0-13.406 10.906-24.313 24.313-24.316 3.701.001 7.252.811 10.557 2.406a7.465 7.465 0 0 0 3.68.734 7.5 7.5 0 0 0 7.094-7.489v-27.92h17.752a39.684 39.684 0 0 0-.496 6.283v.039c0 21.681 17.637 39.318 39.316 39.318 21.68 0 39.318-17.638 39.318-39.318v-.039c0-2.127-.166-4.223-.496-6.283h17.764V335.52zm0-121.215h-27.92a7.499 7.499 0 0 0-7.489 7.123 7.53 7.53 0 0 0 .734 3.678 24.086 24.086 0 0 1 2.406 10.561c-.022 13.391-10.922 24.279-24.318 24.279-13.4 0-24.305-10.898-24.316-24.298a24.099 24.099 0 0 1 2.404-10.541 7.488 7.488 0 0 0 .736-3.679 7.5 7.5 0 0 0-1.135-3.609 7.502 7.502 0 0 0-6.354-3.514h-27.92v-17.77c2.072.334 4.182.502 6.322.502 21.68 0 39.318-17.638 39.318-39.317 0-21.681-17.639-39.318-39.318-39.318-2.141 0-4.25.168-6.322.502v-17.77h106.176a7.002 7.002 0 0 1 6.994 6.994v106.177z" fill="#0070d3"/><path d="M64.626 187.268a7.5 7.5 0 0 1-6.691-4.109L6.548 81.757a21.857 21.857 0 0 1-1.283-16.785 21.849 21.849 0 0 1 10.961-12.776L117.626.809c3.693-1.867 8.207-.394 10.08 3.3l11.422 22.54a39.873 39.873 0 0 1 5.412-3.307c5.57-2.821 11.539-4.252 17.746-4.252 14.912 0 28.361 8.259 35.098 21.552 9.801 19.338 2.041 43.044-17.297 52.844a39.587 39.587 0 0 1-5.867 2.41l11.424 22.541a7.5 7.5 0 0 1-3.299 10.08l-31.594 16.012a7.5 7.5 0 0 1-10.891-6.544 24.113 24.113 0 0 0-2.629-10.513c-4.166-8.222-12.488-13.33-21.715-13.33-3.83 0-7.52.886-10.969 2.634-5.793 2.936-10.098 7.952-12.117 14.126-2.021 6.173-1.518 12.763 1.418 18.557a24.094 24.094 0 0 0 6.922 8.334 7.498 7.498 0 0 1-1.16 12.652l-31.594 16.013a7.493 7.493 0 0 1-3.39.81zm53.09-169.688L23.005 65.577a6.939 6.939 0 0 0-3.484 4.062 6.94 6.94 0 0 0 .408 5.338l47.996 94.712 15.852-8.034a39.974 39.974 0 0 1-3.307-5.414c-4.748-9.368-5.563-20.023-2.295-30.005 3.268-9.98 10.225-18.092 19.594-22.84a39.464 39.464 0 0 1 17.748-4.253c14.91 0 28.359 8.258 35.096 21.551a39.795 39.795 0 0 1 2.41 5.868l15.851-8.033-12.623-24.905a7.504 7.504 0 0 1 6.549-10.89 24.08 24.08 0 0 0 10.508-2.627c11.959-6.061 16.758-20.723 10.697-32.683-4.168-8.224-12.49-13.333-21.719-13.333-3.828 0-7.518.886-10.965 2.633a24.073 24.073 0 0 0-8.332 6.921 7.499 7.499 0 0 1-12.652-1.16L117.716 17.58z" fill="#0070d3"/></svg>
