<svg width="38" height="40" viewBox="0 0 38 40" version="1.1" xmlns="http://www.w3.org/2000/svg" xmlns:xlink="http://www.w3.org/1999/xlink">
<title>&#238;&#175;&#133;</title>

<g id="Canvas" transform="translate(-482 -3300)">
<g id="&#238;&#175;&#133;">
<use xlink:href="#path-db_fill" transform="translate(483 3302)" fill="#FFFFFF"/>
<use xlink:href="#path-db_stroke" transform="translate(483 3302)" fill="#FFFFFF"/>
</g>
</g>
<defs>
<path id="path-db_fill" d="M 34.8047 21.8359C 34.8047 22 34.7461 22.1406 34.6289 22.2578C 34.5117 22.375 34.3711 22.4336 34.207 22.4336C 34.043 22.4336 33.9023 22.375 33.7852 22.2578C 33.668 22.1406 33.6094 22 33.6094 21.8359L 33.6094 16.5273C 33 17.1367 32.1797 17.6992 31.1484 18.2148C 30.1172 18.707 28.9219 19.1406 27.5625 19.5156C 26.2266 19.8672 24.7383 20.1484 23.0977 20.3594C 21.4805 20.5469 19.7813 20.6406 18 20.6406C 16.2188 20.6406 14.5078 20.5469 12.8672 20.3594C 11.25 20.1484 9.76172 19.8672 8.40234 19.5156C 7.06641 19.1406 5.88281 18.707 4.85156 18.2148C 3.82031 17.6992 3 17.1367 2.39062 16.5273L 2.39062 21.8359C 2.39062 22.4922 2.76562 23.1484 3.51562 23.8047C 4.26563 24.4375 5.32031 25.0117 6.67969 25.5273C 8.0625 26.043 9.70312 26.4648 11.6016 26.793C 13.5234 27.0977 15.6563 27.25 18 27.25C 18.1641 27.25 18.3047 27.3086 18.4219 27.4258C 18.5391 27.543 18.5977 27.6836 18.5977 27.8477C 18.5977 28.0117 18.5391 28.1523 18.4219 28.2695C 18.3047 28.3867 18.1641 28.4453 18 28.4453C 16.2188 28.4453 14.5078 28.3516 12.8672 28.1641C 11.25 27.9531 9.76172 27.6719 8.40234 27.3203C 7.06641 26.9453 5.88281 26.5117 4.85156 26.0195C 3.82031 25.5039 3 24.9414 2.39062 24.332L 2.39062 29.4297C 2.39062 29.4531 2.39062 29.4766 2.39062 29.5C 2.39062 29.5 2.39062 29.5117 2.39062 29.5352C 2.39062 29.5586 2.39062 29.582 2.39062 29.6055C 2.39062 29.6055 2.39062 29.6172 2.39062 29.6406C 2.39062 30.2969 2.76562 30.9531 3.51562 31.6094C 4.26563 32.2422 5.32031 32.8164 6.67969 33.332C 8.0625 33.8477 9.70312 34.2578 11.6016 34.5625C 13.5234 34.8906 15.6563 35.0547 18 35.0547C 18.1641 35.0547 18.3047 35.1133 18.4219 35.2305C 18.5391 35.3477 18.5977 35.4883 18.5977 35.6523C 18.5977 35.8164 18.5391 35.957 18.4219 36.0742C 18.3047 36.1914 18.1641 36.25 18 36.25C 15.6563 36.25 13.4531 36.0742 11.3906 35.7227C 9.35156 35.3945 7.57031 34.9258 6.04688 34.3164C 4.54687 33.7305 3.36328 33.0391 2.49609 32.2422C 1.62891 31.4453 1.19531 30.5781 1.19531 29.6406C 1.19531 29.6172 1.19531 29.6055 1.19531 29.6055C 1.21875 29.582 1.23047 29.5586 1.23047 29.5352C 1.23047 29.5117 1.21875 29.5 1.19531 29.5C 1.19531 29.4766 1.19531 29.4531 1.19531 29.4297L 1.19531 7.07031C 1.19531 7.04687 1.19531 7.03516 1.19531 7.03516C 1.19531 7.01172 1.20703 7 1.23047 7C 1.23047 6.97656 1.21875 6.95313 1.19531 6.92969C 1.19531 6.90625 1.19531 6.88281 1.19531 6.85938C 1.19531 5.92187 1.62891 5.05469 2.49609 4.25781C 3.36328 3.46094 4.54687 2.76953 6.04688 2.18359C 7.57031 1.57422 9.35156 1.10547 11.3906 0.777344C 13.4531 0.425781 15.6563 0.25 18 0.25C 20.3438 0.25 22.5352 0.425781 24.5742 0.777344C 26.6367 1.10547 28.418 1.57422 29.918 2.18359C 31.4414 2.76953 32.6367 3.46094 33.5039 4.25781C 34.3711 5.05469 34.8047 5.92187 34.8047 6.85938C 34.8047 6.88281 34.793 6.90625 34.7695 6.92969C 34.7695 6.95313 34.7695 6.97656 34.7695 7C 34.793 7 34.8047 7.01172 34.8047 7.03516C 34.8047 7.03516 34.8047 7.04687 34.8047 7.07031L 34.8047 21.8359ZM 18 1.44531C 15.6563 1.44531 13.5234 1.60938 11.6016 1.9375C 9.70312 2.24219 8.0625 2.65234 6.67969 3.16797C 5.32031 3.68359 4.26563 4.26953 3.51562 4.92578C 2.76562 5.55859 2.39062 6.20312 2.39062 6.85938C 2.39062 7.51563 2.76562 8.17187 3.51562 8.82812C 4.26563 9.46094 5.32031 10.0352 6.67969 10.5508C 8.0625 11.043 9.70312 11.4531 11.6016 11.7812C 13.5234 12.0859 15.6563 12.2383 18 12.2383C 20.3438 12.2383 22.4648 12.0859 24.3633 11.7812C 26.2852 11.4531 27.9258 11.043 29.2852 10.5508C 30.668 10.0352 31.7344 9.46094 32.4844 8.82812C 33.2344 8.17187 33.6094 7.51563 33.6094 6.85938C 33.6094 6.20312 33.2344 5.55859 32.4844 4.92578C 31.7344 4.26953 30.668 3.68359 29.2852 3.16797C 27.9258 2.65234 26.2852 2.24219 24.3633 1.9375C 22.4648 1.60938 20.3438 1.44531 18 1.44531ZM 33.6094 9.32031C 33 9.92969 32.1797 10.4922 31.1484 11.0078C 30.1172 11.5 28.9219 11.9336 27.5625 12.3086C 26.2266 12.6602 24.7383 12.9414 23.0977 13.1523C 21.4805 13.3398 19.7813 13.4336 18 13.4336C 16.2188 13.4336 14.5078 13.3398 12.8672 13.1523C 11.25 12.9414 9.76172 12.6602 8.40234 12.3086C 7.06641 11.9336 5.88281 11.5 4.85156 11.0078C 3.82031 10.4922 3 9.92969 2.39062 9.32031L 2.39062 14.0664C 2.39062 14.6992 2.76562 15.3437 3.51562 16C 4.26563 16.6328 5.32031 17.207 6.67969 17.7227C 8.0625 18.2383 9.70312 18.6602 11.6016 18.9883C 13.5234 19.293 15.6563 19.4453 18 19.4453C 20.3438 19.4453 22.4648 19.293 24.3633 18.9883C 26.2852 18.6602 27.9258 18.2383 29.2852 17.7227C 30.668 17.207 31.7344 16.6328 32.4844 16C 33.2344 15.3437 33.6094 14.6992 33.6094 14.0664L 33.6094 9.32031ZM 22.6055 31.0117L 26.9297 34.7734L 32.5195 26.8984C 32.6133 26.7578 32.7422 26.6758 32.9062 26.6523C 33.0703 26.6289 33.2227 26.6641 33.3633 26.7578C 33.4805 26.8516 33.5508 26.9805 33.5742 27.1445C 33.6211 27.3086 33.5977 27.4609 33.5039 27.6016L 27.5273 36.0039C 27.4805 36.0742 27.4219 36.1211 27.3516 36.1445C 27.2812 36.1914 27.1992 36.2266 27.1055 36.25C 27.082 36.25 27.0586 36.25 27.0352 36.25C 26.9648 36.25 26.8945 36.2383 26.8242 36.2148C 26.7539 36.1914 26.6953 36.1562 26.6484 36.1094L 21.7969 31.8906C 21.6797 31.7969 21.6094 31.668 21.5859 31.5039C 21.5859 31.3398 21.6445 31.1875 21.7617 31.0469C 21.8555 30.9297 21.9844 30.8711 22.1484 30.8711C 22.3125 30.8477 22.4648 30.8945 22.6055 31.0117Z"/>
<path id="path-db_stroke" d="M 33.6094 16.5273L 35.1094 16.5273L 35.1094 12.906L 32.5487 15.4667L 33.6094 16.5273ZM 31.1484 18.2148L 31.7945 19.5686L 31.807 19.5626L 31.8193 19.5565L 31.1484 18.2148ZM 27.5625 19.5156L 27.9442 20.9662L 27.9528 20.964L 27.9614 20.9616L 27.5625 19.5156ZM 23.0977 20.3594L 23.2704 21.8494L 23.2797 21.8483L 23.2889 21.8471L 23.0977 20.3594ZM 12.8672 20.3594L 12.6732 21.8468L 12.685 21.8483L 12.6969 21.8497L 12.8672 20.3594ZM 8.40234 19.5156L 7.99696 20.9598L 8.01182 20.964L 8.02677 20.9678L 8.40234 19.5156ZM 4.85156 18.2148L 4.18074 19.5565L 4.19305 19.5626L 4.20547 19.5686L 4.85156 18.2148ZM 2.39062 16.5273L 3.45129 15.4667L 0.890625 12.906L 0.890625 16.5273L 2.39062 16.5273ZM 3.51562 23.8047L 2.52787 24.9336L 2.53801 24.9424L 2.54832 24.9511L 3.51562 23.8047ZM 6.67969 25.5273L 6.1477 26.9299L 6.15561 26.9328L 6.67969 25.5273ZM 11.6016 26.793L 11.3461 28.2711L 11.3564 28.2728L 11.3667 28.2745L 11.6016 26.793ZM 12.8672 28.1641L 12.6732 29.6515L 12.685 29.653L 12.6969 29.6544L 12.8672 28.1641ZM 8.40234 27.3203L 7.99696 28.7645L 8.01182 28.7687L 8.02677 28.7725L 8.40234 27.3203ZM 4.85156 26.0195L 4.18074 27.3612L 4.19305 27.3673L 4.20547 27.3733L 4.85156 26.0195ZM 2.39062 24.332L 3.45129 23.2714L 0.890625 20.7107L 0.890625 24.332L 2.39062 24.332ZM 3.51562 31.6094L 2.52787 32.7382L 2.53801 32.7471L 2.54832 32.7558L 3.51562 31.6094ZM 6.67969 33.332L 6.1477 34.7345L 6.15561 34.7375L 6.67969 33.332ZM 11.6016 34.5625L 11.854 33.0839L 11.8466 33.0826L 11.8393 33.0815L 11.6016 34.5625ZM 18.4219 35.2305L 17.3612 36.2911L 17.3612 36.2911L 18.4219 35.2305ZM 11.3906 35.7227L 11.6427 34.2439L 11.6289 34.2417L 11.3906 35.7227ZM 6.04688 34.3164L 6.60398 32.9236L 6.59265 32.9192L 6.04688 34.3164ZM 2.49609 32.2422L 3.51103 31.1377L 3.51103 31.1377L 2.49609 32.2422ZM 1.19531 29.6055L 0.134655 28.5448L -0.304688 28.9841L -0.304688 29.6055L 1.19531 29.6055ZM 1.19531 29.5L -0.304688 29.5L -0.304688 31L 1.19531 31L 1.19531 29.5ZM 1.23047 7L 1.23047 8.5L 2.73047 8.5L 2.73047 7L 1.23047 7ZM 1.19531 6.92969L -0.304688 6.92969L -0.304688 7.551L 0.134637 7.99033L 1.19531 6.92969ZM 2.49609 4.25781L 3.51103 5.3623L 3.51103 5.3623L 2.49609 4.25781ZM 6.04688 2.18359L 6.59267 3.58083L 6.60396 3.57631L 6.04688 2.18359ZM 11.3906 0.777344L 11.6289 2.25836L 11.6427 2.25602L 11.3906 0.777344ZM 24.5742 0.777344L 24.3194 2.25553L 24.3289 2.25719L 24.3385 2.25871L 24.5742 0.777344ZM 29.918 2.18359L 29.3534 3.57329L 29.3664 3.57857L 29.3795 3.58361L 29.918 2.18359ZM 34.7695 6.92969L 33.7089 5.86903L 33.2695 6.30837L 33.2695 6.92969L 34.7695 6.92969ZM 34.7695 7L 33.2695 7L 33.2695 8.5L 34.7695 8.5L 34.7695 7ZM 11.6016 1.9375L 11.8393 3.41855L 11.8466 3.41736L 11.854 3.4161L 11.6016 1.9375ZM 6.67969 3.16797L 6.1556 1.76248L 6.14771 1.76547L 6.67969 3.16797ZM 3.51562 4.92578L 4.48293 6.07222L 4.49324 6.06352L 4.50338 6.05465L 3.51562 4.92578ZM 3.51562 8.82812L 2.52787 9.95699L 2.53801 9.96587L 2.54832 9.97456L 3.51562 8.82812ZM 6.67969 10.5508L 6.14771 11.9533L 6.16215 11.9588L 6.1767 11.9639L 6.67969 10.5508ZM 11.6016 11.7812L 11.3461 13.2593L 11.3564 13.2611L 11.3667 13.2627L 11.6016 11.7812ZM 24.3633 11.7812L 24.601 13.2623L 24.6084 13.2611L 24.6157 13.2599L 24.3633 11.7812ZM 29.2852 10.5508L 29.7958 11.9612L 29.8025 11.9587L 29.8092 11.9563L 29.2852 10.5508ZM 32.4844 8.82812L 33.4517 9.97456L 33.462 9.96587L 33.4721 9.95699L 32.4844 8.82812ZM 32.4844 4.92578L 31.4966 6.05465L 31.5068 6.06352L 31.5171 6.07222L 32.4844 4.92578ZM 29.2852 3.16797L 28.7532 4.57049L 28.7611 4.57344L 29.2852 3.16797ZM 24.3633 1.9375L 24.1078 3.41558L 24.1181 3.41736L 24.1284 3.419L 24.3633 1.9375ZM 33.6094 9.32031L 35.1094 9.32031L 35.1094 5.69899L 32.5487 8.25965L 33.6094 9.32031ZM 31.1484 11.0078L 31.7945 12.3615L 31.807 12.3556L 31.8193 12.3495L 31.1484 11.0078ZM 27.5625 12.3086L 27.9442 13.7592L 27.9528 13.7569L 27.9614 13.7546L 27.5625 12.3086ZM 23.0977 13.1523L 23.2704 14.6424L 23.2797 14.6413L 23.2889 14.6401L 23.0977 13.1523ZM 12.8672 13.1523L 12.6732 14.6397L 12.685 14.6413L 12.6969 14.6426L 12.8672 13.1523ZM 8.40234 12.3086L 7.99696 13.7528L 8.01182 13.7569L 8.02677 13.7608L 8.40234 12.3086ZM 4.85156 11.0078L 4.18074 12.3495L 4.19305 12.3556L 4.20547 12.3615L 4.85156 11.0078ZM 2.39062 9.32031L 3.45128 8.25965L 0.890625 5.699L 0.890625 9.32031L 2.39062 9.32031ZM 3.51562 16L 2.52787 17.1289L 2.53801 17.1377L 2.54832 17.1464L 3.51562 16ZM 6.67969 17.7227L 6.1477 19.1252L 6.15561 19.1281L 6.67969 17.7227ZM 11.6016 18.9883L 11.3461 20.4664L 11.3564 20.4681L 11.3667 20.4698L 11.6016 18.9883ZM 24.3633 18.9883L 24.601 20.4693L 24.6084 20.4681L 24.6157 20.4669L 24.3633 18.9883ZM 29.2852 17.7227L 28.7611 16.3172L 28.7532 16.3202L 29.2852 17.7227ZM 32.4844 16L 33.4517 17.1464L 33.462 17.1377L 33.4721 17.1289L 32.4844 16ZM 22.6055 31.0117L 23.59 29.88L 23.578 29.8696L 23.5657 29.8594L 22.6055 31.0117ZM 26.9297 34.7734L 25.9452 35.9051L 27.1944 36.9919L 28.1529 35.6417L 26.9297 34.7734ZM 32.5195 26.8984L 33.7427 27.7667L 33.7554 27.7488L 33.7676 27.7305L 32.5195 26.8984ZM 33.3633 26.7578L 34.3003 25.5865L 34.2495 25.5458L 34.1953 25.5097L 33.3633 26.7578ZM 33.5742 27.1445L 32.0893 27.3567L 32.1038 27.4581L 32.1319 27.5566L 33.5742 27.1445ZM 33.5039 27.6016L 34.7262 28.471L 34.7394 28.4525L 34.752 28.4336L 33.5039 27.6016ZM 27.5273 36.0039L 26.305 35.1345L 26.2919 35.153L 26.2793 35.1719L 27.5273 36.0039ZM 27.3516 36.1445L 26.8772 34.7215L 26.6867 34.785L 26.5195 34.8965L 27.3516 36.1445ZM 27.1055 36.25L 27.1055 37.75L 27.2901 37.75L 27.4693 37.7052L 27.1055 36.25ZM 26.6484 36.1094L 27.7091 35.0487L 27.6721 35.0118L 27.6327 34.9775L 26.6484 36.1094ZM 21.7969 31.8906L 22.7811 30.7587L 22.7579 30.7385L 22.7339 30.7193L 21.7969 31.8906ZM 21.5859 31.5039L 20.0859 31.5039L 20.0859 31.6105L 20.101 31.716L 21.5859 31.5039ZM 21.7617 31.0469L 22.9141 32.0071L 22.9237 31.9956L 22.933 31.9839L 21.7617 31.0469ZM 22.1484 30.8711L 22.1484 32.3711L 22.255 32.3711L 22.3606 32.356L 22.1484 30.8711ZM 33.3047 21.8359C 33.3047 21.7353 33.3236 21.6137 33.3761 21.4875C 33.4286 21.3617 33.5005 21.2648 33.5682 21.1972L 35.6896 23.3185C 36.0848 22.9232 36.3047 22.4023 36.3047 21.8359L 33.3047 21.8359ZM 33.5682 21.1972C 33.6359 21.1295 33.7327 21.0575 33.8586 21.005C 33.9848 20.9525 34.1064 20.9336 34.207 20.9336L 34.207 23.9336C 34.7734 23.9336 35.2943 23.7138 35.6896 23.3185L 33.5682 21.1972ZM 34.207 20.9336C 34.3076 20.9336 34.4293 20.9525 34.5554 21.005C 34.6813 21.0575 34.7781 21.1295 34.8458 21.1972L 32.7245 23.3185C 33.1198 23.7138 33.6406 23.9336 34.207 23.9336L 34.207 20.9336ZM 34.8458 21.1972C 34.9135 21.2648 34.9855 21.3617 35.0379 21.4875C 35.0905 21.6137 35.1094 21.7353 35.1094 21.8359L 32.1094 21.8359C 32.1094 22.4023 32.3292 22.9232 32.7245 23.3185L 34.8458 21.1972ZM 35.1094 21.8359L 35.1094 16.5273L 32.1094 16.5273L 32.1094 21.8359L 35.1094 21.8359ZM 32.5487 15.4667C 32.0415 15.9829 31.4183 16.4068 30.4776 16.8732L 31.8193 19.5565C 32.941 18.9916 33.9585 18.2905 34.67 17.588L 32.5487 15.4667ZM 30.5023 16.8611C 29.5377 17.3235 28.4663 17.7115 27.1636 18.0696L 27.9614 20.9616C 29.3774 20.5698 30.6967 20.0906 31.7945 19.5686L 30.5023 16.8611ZM 27.1808 18.065C 25.8962 18.404 24.5033 18.667 22.9064 18.8716L 23.2889 21.8471C 24.9733 21.6299 26.5569 21.3304 27.9442 20.9662L 27.1808 18.065ZM 22.9249 18.8694C 21.3527 19.0523 19.7399 19.1412 18 19.1406L 18 22.1406C 19.8226 22.1401 21.6082 22.0414 23.2704 21.8494L 22.9249 18.8694ZM 18 19.1406C 16.2598 19.1412 14.6341 19.0522 13.0375 18.8691L 12.6969 21.8497C 14.3816 22.0416 16.1777 22.1401 18 22.1406L 18 19.1406ZM 13.0612 18.872C 11.4864 18.6672 10.089 18.4033 8.77792 18.0634L 8.02677 20.9678C 9.43448 21.3311 11.0136 21.6297 12.6732 21.8468L 13.0612 18.872ZM 8.80773 18.0714C 7.52743 17.7132 6.46449 17.3244 5.49766 16.8611L 4.20547 19.5686C 5.30113 20.0897 6.60538 20.568 7.99696 20.9598L 8.80773 18.0714ZM 5.52238 16.8732C 4.58167 16.4068 3.95854 15.9829 3.45129 15.4667L 1.32996 17.588C 2.04146 18.2905 3.05896 18.9916 4.18074 19.5565L 5.52238 16.8732ZM 0.890625 16.5273L 0.890625 21.8359L 3.89062 21.8359L 3.89062 16.5273L 0.890625 16.5273ZM 0.890625 21.8359C 0.890625 23.1081 1.6219 24.1408 2.52787 24.9336L 4.50338 22.6758C 3.90935 22.156 3.89062 21.8763 3.89062 21.8359L 0.890625 21.8359ZM 2.54832 24.9511C 3.41902 25.6757 4.69425 26.3748 6.14771 26.9298L 7.21167 24.1248C 5.94638 23.6486 5.11223 23.1993 4.48293 22.6583L 2.54832 24.9511ZM 6.15561 26.9328C 7.61306 27.4741 9.38835 27.9314 11.3461 28.2711L 11.857 25.3149C 10.0179 24.9982 8.51194 24.6119 7.20376 24.1219L 6.15561 26.9328ZM 11.3667 28.2745C 13.3524 28.5879 15.6028 28.749 18 28.75L 18 25.75C 15.7097 25.751 13.6945 25.6074 11.8364 25.3115L 11.3667 28.2745ZM 18 28.75C 17.8994 28.75 17.7778 28.7311 17.6516 28.6786C 17.5257 28.6261 17.4289 28.5541 17.3612 28.4864L 19.4825 26.3651C 19.0873 25.9698 18.5664 25.75 18 25.75L 18 28.75ZM 17.3612 28.4864C 17.2935 28.4187 17.2215 28.3219 17.1691 28.1961C 17.1165 28.0699 17.0977 27.9483 17.0977 27.8477L 20.0977 27.8477C 20.0977 27.2812 19.8778 26.7604 19.4825 26.3651L 17.3612 28.4864ZM 17.0977 27.8477C 17.0977 27.747 17.1165 27.6254 17.1691 27.4992C 17.2215 27.3734 17.2935 27.2766 17.3612 27.2089L 19.4825 29.3302C 19.8778 28.9349 20.0977 28.4141 20.0977 27.8477L 17.0977 27.8477ZM 17.3612 27.2089C 17.4289 27.1412 17.5257 27.0692 17.6516 27.0168C 17.7778 26.9642 17.8994 26.9453 18 26.9453L 18 29.9453C 18.5664 29.9453 19.0873 29.7255 19.4825 29.3302L 17.3612 27.2089ZM 18 26.9453C 16.2598 26.9459 14.6341 26.8569 13.0375 26.6738L 12.6969 29.6544C 14.3816 29.8462 16.1777 29.9448 18 29.9453L 18 26.9453ZM 13.0612 26.6767C 11.4864 26.4719 10.089 26.208 8.77792 25.8681L 8.02677 28.7725C 9.43448 29.1357 11.0136 29.4344 12.6732 29.6515L 13.0612 26.6767ZM 8.80773 25.8761C 7.52743 25.5179 6.46449 25.1291 5.49766 24.6658L 4.20547 27.3733C 5.30113 27.8943 6.60538 28.3727 7.99696 28.7645L 8.80773 25.8761ZM 5.52238 24.6779C 4.58167 24.2115 3.95854 23.7876 3.45129 23.2714L 1.32996 25.3927C 2.04146 26.0952 3.05896 26.7963 4.18074 27.3612L 5.52238 24.6779ZM 0.890625 24.332L 0.890625 29.4297L 3.89062 29.4297L 3.89062 24.332L 0.890625 24.332ZM 0.890625 29.4297C 0.890625 29.4531 0.890625 29.4766 0.890625 29.5L 3.89062 29.5C 3.89062 29.4766 3.89062 29.4531 3.89062 29.4297L 0.890625 29.4297ZM 2.39062 29.5C 0.890625 29.5 0.890625 29.5 0.890625 29.5C 0.890625 29.5 0.890625 29.5 0.890625 29.5C 0.890625 29.5 0.890625 29.5 0.890625 29.5C 0.890625 29.5 0.890625 29.5 0.890625 29.5C 0.890625 29.5 0.890625 29.5 0.890625 29.5C 0.890625 29.5001 0.890625 29.5001 0.890625 29.5001C 0.890625 29.5002 0.890625 29.5004 0.890625 29.5005C 0.890625 29.5009 0.890625 29.5015 0.890625 29.5022C 0.890625 29.5037 0.890625 29.5059 0.890625 29.5088C 0.890625 29.5146 0.890625 29.5234 0.890625 29.5352L 3.89062 29.5352C 3.89062 29.5234 3.89062 29.5146 3.89062 29.5088C 3.89062 29.5059 3.89062 29.5037 3.89062 29.5022C 3.89062 29.5015 3.89062 29.5009 3.89062 29.5005C 3.89062 29.5004 3.89062 29.5002 3.89062 29.5001C 3.89062 29.5001 3.89062 29.5001 3.89062 29.5C 3.89062 29.5 3.89062 29.5 3.89062 29.5C 3.89062 29.5 3.89062 29.5 3.89062 29.5C 3.89062 29.5 3.89062 29.5 3.89062 29.5C 3.89062 29.5 3.89062 29.5 3.89062 29.5C 3.89062 29.5 3.89062 29.5 2.39062 29.5ZM 0.890625 29.5352C 0.890625 29.5586 0.890625 29.582 0.890625 29.6055L 3.89062 29.6055C 3.89062 29.582 3.89062 29.5586 3.89062 29.5352L 0.890625 29.5352ZM 2.39062 29.6055C 0.890625 29.6055 0.890625 29.6055 0.890625 29.6055C 0.890625 29.6055 0.890625 29.6055 0.890625 29.6055C 0.890625 29.6055 0.890625 29.6055 0.890625 29.6055C 0.890625 29.6055 0.890625 29.6055 0.890625 29.6055C 0.890625 29.6055 0.890625 29.6055 0.890625 29.6055C 0.890625 29.6055 0.890625 29.6056 0.890625 29.6056C 0.890625 29.6057 0.890625 29.6058 0.890625 29.606C 0.890625 29.6064 0.890625 29.6069 0.890625 29.6077C 0.890625 29.6091 0.890625 29.6113 0.890625 29.6143C 0.890625 29.6201 0.890625 29.6289 0.890625 29.6406L 3.89062 29.6406C 3.89062 29.6289 3.89062 29.6201 3.89062 29.6143C 3.89062 29.6113 3.89062 29.6091 3.89062 29.6077C 3.89062 29.6069 3.89062 29.6064 3.89062 29.606C 3.89062 29.6058 3.89062 29.6057 3.89062 29.6056C 3.89062 29.6056 3.89062 29.6055 3.89062 29.6055C 3.89062 29.6055 3.89062 29.6055 3.89062 29.6055C 3.89062 29.6055 3.89062 29.6055 3.89062 29.6055C 3.89062 29.6055 3.89062 29.6055 3.89062 29.6055C 3.89062 29.6055 3.89062 29.6055 3.89062 29.6055C 3.89062 29.6055 3.89062 29.6055 2.39062 29.6055ZM 0.890625 29.6406C 0.890625 30.9127 1.6219 31.9455 2.52787 32.7382L 4.50338 30.4805C 3.90935 29.9607 3.89062 29.681 3.89062 29.6406L 0.890625 29.6406ZM 2.54832 32.7558C 3.41902 33.4804 4.69425 34.1795 6.14771 34.7345L 7.21167 31.9295C 5.94638 31.4533 5.11223 31.0039 4.48293 30.4629L 2.54832 32.7558ZM 6.15561 34.7375C 7.61787 35.2802 9.4021 35.7273 11.3639 36.0435L 11.8393 33.0815C 10.0042 32.7883 8.50713 32.4151 7.20376 31.9266L 6.15561 34.7375ZM 11.3491 36.0411C 13.3395 36.3793 15.5987 36.5536 18 36.5547L 18 33.5547C 15.7138 33.5558 13.7074 33.4019 11.854 33.0839L 11.3491 36.0411ZM 18 36.5547C 17.8994 36.5547 17.7778 36.5358 17.6516 36.4832C 17.5257 36.4308 17.4289 36.3588 17.3612 36.2911L 19.4825 34.1698C 19.0873 33.7745 18.5664 33.5547 18 33.5547L 18 36.5547ZM 17.3612 36.2911C 17.2935 36.2234 17.2215 36.1266 17.1691 36.0008C 17.1165 35.8746 17.0977 35.753 17.0977 35.6523L 20.0977 35.6523C 20.0977 35.0859 19.8778 34.5651 19.4825 34.1698L 17.3612 36.2911ZM 17.0977 35.6523C 17.0977 35.5517 17.1165 35.4301 17.1691 35.3039C 17.2215 35.1781 17.2935 35.0813 17.3612 35.0136L 19.4825 37.1349C 19.8778 36.7396 20.0977 36.2188 20.0977 35.6523L 17.0977 35.6523ZM 17.3612 35.0136C 17.4289 34.9459 17.5257 34.8739 17.6516 34.8214C 17.7778 34.7689 17.8994 34.75 18 34.75L 18 37.75C 18.5664 37.75 19.0873 37.5302 19.4825 37.1349L 17.3612 35.0136ZM 18 34.75C 15.7159 34.7512 13.639 34.5858 11.6427 34.244L 11.1386 37.2013C 13.2673 37.5627 15.5966 37.7488 18 37.75L 18 34.75ZM 11.6289 34.2417C 9.66196 33.927 8.04062 33.5014 6.60396 32.9237L 5.48979 35.7091C 7.10001 36.3501 9.04116 36.8621 11.1523 37.2036L 11.6289 34.2417ZM 6.59265 32.9192C 5.20006 32.3802 4.25417 31.8323 3.51103 31.1377L 1.48116 33.3467C 2.47239 34.2458 3.89369 35.0808 5.5011 35.7136L 6.59265 32.9192ZM 3.51103 31.1377C 2.8683 30.5471 2.69531 30.0557 2.69531 29.6406L -0.304688 29.6406C -0.304688 31.1006 0.38951 32.3435 1.48116 33.3467L 3.51103 31.1377ZM 2.69531 29.6406C 2.69531 29.6289 2.69531 29.6201 2.69531 29.6143C 2.69531 29.6113 2.69531 29.6091 2.69531 29.6077C 2.69531 29.6069 2.69531 29.6064 2.69531 29.606C 2.69531 29.6058 2.69531 29.6057 2.69531 29.6056C 2.69531 29.6056 2.69531 29.6055 2.69531 29.6055C 2.69531 29.6055 2.69531 29.6055 2.69531 29.6055C 2.69531 29.6055 2.69531 29.6055 2.69531 29.6055C 2.69531 29.6055 2.69531 29.6055 2.69531 29.6055C 2.69531 29.6055 2.69531 29.6055 2.69531 29.6055C 2.69531 29.6055 2.69531 29.6055 1.19531 29.6055C -0.304688 29.6055 -0.304688 29.6055 -0.304688 29.6055C -0.304688 29.6055 -0.304688 29.6055 -0.304688 29.6055C -0.304688 29.6055 -0.304688 29.6055 -0.304688 29.6055C -0.304688 29.6055 -0.304688 29.6055 -0.304688 29.6055C -0.304688 29.6055 -0.304688 29.6055 -0.304688 29.6055C -0.304688 29.6055 -0.304688 29.6056 -0.304688 29.6056C -0.304688 29.6057 -0.304688 29.6058 -0.304688 29.606C -0.304688 29.6064 -0.304688 29.6069 -0.304688 29.6077C -0.304688 29.6091 -0.304688 29.6113 -0.304688 29.6143C -0.304688 29.6201 -0.304688 29.6289 -0.304688 29.6406L 2.69531 29.6406ZM 2.25597 30.6661C 2.44291 30.4792 2.73047 30.0967 2.73047 29.5352L -0.269531 29.5352C -0.269531 29.0205 -0.00540839 28.6849 0.134655 28.5448L 2.25597 30.6661ZM 2.73047 29.5352C 2.73047 29.2922 2.66872 28.8345 2.28234 28.4481C 1.89596 28.0618 1.43825 28 1.19531 28L 1.19531 31C 0.975812 31 0.535678 30.9441 0.161018 30.5694C -0.213641 30.1948 -0.269531 29.7547 -0.269531 29.5352L 2.73047 29.5352ZM 2.69531 29.5C 2.69531 29.4766 2.69531 29.4531 2.69531 29.4297L -0.304688 29.4297C -0.304688 29.4531 -0.304688 29.4766 -0.304688 29.5L 2.69531 29.5ZM 2.69531 29.4297L 2.69531 7.07031L -0.304688 7.07031L -0.304688 29.4297L 2.69531 29.4297ZM 2.69531 7.07031C 2.69531 7.05859 2.69531 7.0498 2.69531 7.04395C 2.69531 7.04102 2.69531 7.03882 2.69531 7.03735C 2.69531 7.03662 2.69531 7.03607 2.69531 7.03571C 2.69531 7.03552 2.69531 7.03539 2.69531 7.03529C 2.69531 7.03525 2.69531 7.03521 2.69531 7.03519C 2.69531 7.03518 2.69531 7.03517 2.69531 7.03516C 2.69531 7.03516 2.69531 7.03516 2.69531 7.03516C 2.69531 7.03516 2.69531 7.03516 2.69531 7.03516C 2.69531 7.03516 2.69531 7.03516 2.69531 7.03516C 2.69531 7.03516 2.69531 7.03516 1.19531 7.03516C -0.304688 7.03516 -0.304688 7.03516 -0.304688 7.03516C -0.304688 7.03516 -0.304688 7.03516 -0.304688 7.03516C -0.304688 7.03516 -0.304688 7.03516 -0.304688 7.03516C -0.304688 7.03516 -0.304688 7.03516 -0.304688 7.03516C -0.304688 7.03517 -0.304688 7.03518 -0.304688 7.03519C -0.304688 7.03521 -0.304688 7.03525 -0.304688 7.03529C -0.304688 7.03539 -0.304688 7.03552 -0.304688 7.03571C -0.304688 7.03607 -0.304688 7.03662 -0.304688 7.03735C -0.304688 7.03882 -0.304688 7.04102 -0.304688 7.04395C -0.304688 7.0498 -0.304688 7.05859 -0.304688 7.07031L 2.69531 7.07031ZM 2.69531 7.03516C 2.69531 7.25464 2.63943 7.69479 2.26475 8.06946C 1.89008 8.44412 1.44994 8.5 1.23047 8.5L 1.23047 5.5C 0.987557 5.5 0.529838 5.56174 0.143449 5.94812C -0.242944 6.33451 -0.304688 6.79223 -0.304688 7.03516L 2.69531 7.03516ZM 2.73047 7C 2.73047 6.43841 2.44289 6.05595 2.25599 5.86904L 0.134637 7.99033C -0.00539004 7.8503 -0.269531 7.51471 -0.269531 7L 2.73047 7ZM 2.69531 6.92969C 2.69531 6.90625 2.69531 6.88281 2.69531 6.85938L -0.304688 6.85938C -0.304688 6.88281 -0.304688 6.90625 -0.304688 6.92969L 2.69531 6.92969ZM 2.69531 6.85938C 2.69531 6.44433 2.8683 5.95292 3.51103 5.3623L 1.48116 3.15332C 0.389511 4.15646 -0.304688 5.39942 -0.304688 6.85938L 2.69531 6.85938ZM 3.51103 5.3623C 4.25417 4.66772 5.20006 4.11985 6.59265 3.58078L 5.5011 0.786408C 3.89369 1.41922 2.47239 2.25416 1.48116 3.15332L 3.51103 5.3623ZM 6.60396 3.57631C 8.04062 2.99858 9.66196 2.573 11.6289 2.25829L 11.1523 -0.703604C 9.04116 -0.362065 7.10001 0.149855 5.48979 0.790879L 6.60396 3.57631ZM 11.6427 2.25602C 13.639 1.91422 15.7159 1.74881 18 1.75L 18 -1.25C 15.5966 -1.24881 13.2673 -1.06266 11.1386 -0.701329L 11.6427 2.25602ZM 18 1.75C 20.2837 1.7488 22.3476 1.914 24.3194 2.25553L 24.8291 -0.700846C 22.7227 -1.06244 20.4038 -1.2488 18 -1.25L 18 1.75ZM 24.3385 2.25871C 26.3276 2.57328 27.9438 2.99731 29.3534 3.57329L 30.4825 0.793894C 28.8921 0.151125 26.9458 -0.362341 24.8099 -0.704027L 24.3385 2.25871ZM 29.3795 3.58361C 30.7946 4.12294 31.7484 4.66962 32.489 5.3623L 34.5188 3.15332C 33.525 2.25225 32.0882 1.41613 30.4564 0.783576L 29.3795 3.58361ZM 32.489 5.3623C 33.1317 5.95292 33.3047 6.44433 33.3047 6.85938L 36.3047 6.85938C 36.3047 5.39942 35.6105 4.15646 34.5188 3.15332L 32.489 5.3623ZM 33.3047 6.85938C 33.3047 6.34468 33.5688 6.00908 33.7089 5.86903L 35.8302 7.99035C 36.0171 7.80341 36.3047 7.42095 36.3047 6.85938L 33.3047 6.85938ZM 33.2695 6.92969C 33.2695 6.95313 33.2695 6.97656 33.2695 7L 36.2695 7C 36.2695 6.97656 36.2695 6.95313 36.2695 6.92969L 33.2695 6.92969ZM 34.7695 8.5C 34.5501 8.5 34.1099 8.44413 33.7352 8.06945C 33.3606 7.69477 33.3047 7.25462 33.3047 7.03516L 36.3047 7.03516C 36.3047 6.79225 36.243 6.33452 35.8566 5.94813C 35.4702 5.56173 35.0124 5.5 34.7695 5.5L 34.7695 8.5ZM 34.8047 7.03516C 33.3047 7.03516 33.3047 7.03516 33.3047 7.03516C 33.3047 7.03516 33.3047 7.03516 33.3047 7.03516C 33.3047 7.03516 33.3047 7.03516 33.3047 7.03516C 33.3047 7.03516 33.3047 7.03516 33.3047 7.03516C 33.3047 7.03517 33.3047 7.03518 33.3047 7.03519C 33.3047 7.03521 33.3047 7.03525 33.3047 7.03529C 33.3047 7.03539 33.3047 7.03552 33.3047 7.03571C 33.3047 7.03607 33.3047 7.03662 33.3047 7.03735C 33.3047 7.03882 33.3047 7.04102 33.3047 7.04395C 33.3047 7.0498 33.3047 7.05859 33.3047 7.07031L 36.3047 7.07031C 36.3047 7.05859 36.3047 7.0498 36.3047 7.04395C 36.3047 7.04102 36.3047 7.03882 36.3047 7.03735C 36.3047 7.03662 36.3047 7.03607 36.3047 7.03571C 36.3047 7.03552 36.3047 7.03539 36.3047 7.03529C 36.3047 7.03525 36.3047 7.03521 36.3047 7.03519C 36.3047 7.03518 36.3047 7.03517 36.3047 7.03516C 36.3047 7.03516 36.3047 7.03516 36.3047 7.03516C 36.3047 7.03516 36.3047 7.03516 36.3047 7.03516C 36.3047 7.03516 36.3047 7.03516 36.3047 7.03516C 36.3047 7.03516 36.3047 7.03516 34.8047 7.03516ZM 33.3047 7.07031L 33.3047 21.8359L 36.3047 21.8359L 36.3047 7.07031L 33.3047 7.07031ZM 18 -0.0546875C 15.5987 -0.0535825 13.3395 0.120696 11.3491 0.458895L 11.854 3.4161C 13.7074 3.09805 15.7138 2.94421 18 2.94531L 18 -0.0546875ZM 11.3639 0.456453C 9.4021 0.772705 7.61787 1.21976 6.15561 1.7625L 7.20376 4.57344C 8.50713 4.08493 10.0042 3.71167 11.8393 3.41855L 11.3639 0.456453ZM 6.14771 1.76547C 4.68844 2.32318 3.40268 3.04261 2.52787 3.79692L 4.50338 6.05465C 5.12857 5.49645 5.95218 5.04401 7.21167 4.57046L 6.14771 1.76547ZM 2.54832 3.77934C 1.63067 4.55361 0.890625 5.57868 0.890625 6.85938L 3.89062 6.85938C 3.89062 6.82757 3.90058 6.56358 4.48293 6.07222L 2.54832 3.77934ZM 0.890625 6.85938C 0.890625 8.1315 1.62191 9.16427 2.52787 9.95699L 4.50338 7.69926C 3.90934 7.17948 3.89062 6.89975 3.89062 6.85938L 0.890625 6.85938ZM 2.54832 9.97456C 3.41902 10.6992 4.69425 11.3983 6.14771 11.9533L 7.21167 9.14829C 5.94638 8.67205 5.11223 8.22269 4.48293 7.68169L 2.54832 9.97456ZM 6.1767 11.9639C 7.62859 12.4788 9.39328 12.9208 11.3461 13.2593L 11.857 10.3032C 10.013 9.98548 8.49641 9.6071 7.18267 9.13763L 6.1767 11.9639ZM 11.3667 13.2627C 13.3524 13.5762 15.6028 13.7373 18 13.7383L 18 10.7383C 15.7097 10.7392 13.6945 10.5957 11.8364 10.2998L 11.3667 13.2627ZM 18 13.7383C 20.3975 13.7373 22.6376 13.576 24.601 13.2623L 24.1256 10.3002C 22.2921 10.5959 20.29 10.7392 18 10.7383L 18 13.7383ZM 24.6157 13.2599C 26.5935 12.9211 28.3636 12.4777 29.7958 11.9612L 28.7745 9.14038C 27.488 9.60828 25.9768 9.98516 24.1108 10.3026L 24.6157 13.2599ZM 29.8092 11.9563C 31.287 11.4014 32.5781 10.7011 33.4517 9.97456L 31.5171 7.68169C 30.8906 8.22073 30.0489 8.66886 28.7611 9.14531L 29.8092 11.9563ZM 33.4721 9.95699C 34.3781 9.16427 35.1094 8.1315 35.1094 6.85938L 32.1094 6.85938C 32.1094 6.89975 32.0907 7.17948 31.4966 7.69926L 33.4721 9.95699ZM 35.1094 6.85938C 35.1094 5.57868 34.3693 4.55361 33.4517 3.77934L 31.5171 6.07222C 32.0994 6.56358 32.1094 6.82757 32.1094 6.85938L 35.1094 6.85938ZM 33.4721 3.79692C 32.5944 3.0406 31.2928 2.31994 29.8092 1.7625L 28.7611 4.57344C 30.0431 5.04725 30.8743 5.49846 31.4966 6.05465L 33.4721 3.79692ZM 29.8171 1.76547C 28.3744 1.22102 26.5848 0.772418 24.5982 0.456002L 24.1284 3.419C 25.9855 3.71196 27.4771 4.08367 28.7532 4.57046L 29.8171 1.76547ZM 24.6188 0.459415C 22.6506 0.120925 20.4016 -0.0535703 18 -0.0546875L 18 2.94531C 20.2859 2.9442 22.2791 3.09783 24.1078 3.41558L 24.6188 0.459415ZM 32.5487 8.25965C 32.0415 8.77591 31.4183 9.19977 30.4776 9.66617L 31.8193 12.3495C 32.941 11.7846 33.9585 11.0835 34.67 10.381L 32.5487 8.25965ZM 30.5023 9.65409C 29.5377 10.1165 28.4663 10.5044 27.1636 10.8626L 27.9614 13.7546C 29.3774 13.3627 30.6967 12.8835 31.7945 12.3615L 30.5023 9.65409ZM 27.1808 10.858C 25.8962 11.197 24.5033 11.4599 22.9064 11.6646L 23.2889 14.6401C 24.9733 14.4229 26.5569 14.1233 27.9442 13.7592L 27.1808 10.858ZM 22.9249 11.6623C 21.3527 11.8453 19.7399 11.9342 18 11.9336L 18 14.9336C 19.8226 14.933 21.6082 14.8344 23.2704 14.6424L 22.9249 11.6623ZM 18 11.9336C 16.2598 11.9342 14.6341 11.8452 13.0375 11.662L 12.6969 14.6426C 14.3816 14.8345 16.1777 14.933 18 14.9336L 18 11.9336ZM 13.0612 11.6649C 11.4864 11.4601 10.089 11.1963 8.77792 10.8564L 8.02677 13.7608C 9.43448 14.124 11.0136 14.4227 12.6732 14.6397L 13.0612 11.6649ZM 8.80773 10.8644C 7.52743 10.5062 6.46449 10.1174 5.49766 9.65409L 4.20547 12.3615C 5.30114 12.8826 6.60538 13.361 7.99696 13.7528L 8.80773 10.8644ZM 5.52238 9.66617C 4.58167 9.19977 3.95854 8.77591 3.45128 8.25965L 1.32997 10.381C 2.04146 11.0835 3.05896 11.7846 4.18074 12.3495L 5.52238 9.66617ZM 0.890625 9.32031L 0.890625 14.0664L 3.89062 14.0664L 3.89062 9.32031L 0.890625 9.32031ZM 0.890625 14.0664C 0.890625 15.3285 1.63748 16.3498 2.52787 17.1289L 4.50338 14.8711C 3.89377 14.3377 3.89062 14.07 3.89062 14.0664L 0.890625 14.0664ZM 2.54832 17.1464C 3.41902 17.8711 4.69425 18.5701 6.14771 19.1252L 7.21167 16.3202C 5.94638 15.8439 5.11223 15.3946 4.48293 14.8536L 2.54832 17.1464ZM 6.15561 19.1281C 7.61306 19.6694 9.38835 20.1268 11.3461 20.4664L 11.857 17.5102C 10.0179 17.1936 8.51194 16.8072 7.20376 16.3172L 6.15561 19.1281ZM 11.3667 20.4698C 13.3524 20.7832 15.6028 20.9444 18 20.9453L 18 17.9453C 15.7097 17.9463 13.6945 17.8028 11.8364 17.5068L 11.3667 20.4698ZM 18 20.9453C 20.3975 20.9443 22.6376 20.783 24.601 20.4693L 24.1256 17.5072C 22.2921 17.8029 20.29 17.9463 18 17.9453L 18 20.9453ZM 24.6157 20.4669C 26.5984 20.1271 28.3792 19.6681 29.8171 19.1252L 28.7532 16.3202C 27.4723 16.8085 25.9719 17.1932 24.1108 17.5097L 24.6157 20.4669ZM 29.8092 19.1281C 31.287 18.5733 32.5781 17.873 33.4517 17.1464L 31.5171 14.8536C 30.8906 15.3926 30.0489 15.8407 28.7611 16.3172L 29.8092 19.1281ZM 33.4721 17.1289C 34.3625 16.3498 35.1094 15.3285 35.1094 14.0664L 32.1094 14.0664C 32.1094 14.07 32.1062 14.3377 31.4966 14.8711L 33.4721 17.1289ZM 35.1094 14.0664L 35.1094 9.32031L 32.1094 9.32031L 32.1094 14.0664L 35.1094 14.0664ZM 21.621 32.1434L 25.9452 35.9051L 27.9142 33.6417L 23.59 29.88L 21.621 32.1434ZM 28.1529 35.6417L 33.7427 27.7667L 31.2964 26.0302L 25.7065 33.9052L 28.1529 35.6417ZM 33.7676 27.7305C 33.711 27.8153 33.6214 27.9145 33.4918 27.9969C 33.3616 28.0798 33.2293 28.1214 33.1184 28.1373L 32.6941 25.1674C 32.0981 25.2526 31.5966 25.5787 31.2715 26.0664L 33.7676 27.7305ZM 33.1184 28.1373C 33.0285 28.1501 32.9208 28.1492 32.8063 28.1227C 32.6922 28.0964 32.5993 28.0513 32.5312 28.0059L 34.1953 25.5097C 33.817 25.2868 33.134 25.1303 32.6941 25.1674L 33.1184 28.1373ZM 32.4262 27.9291C 32.3329 27.8545 32.2493 27.7572 32.1871 27.6431C 32.1261 27.5313 32.0997 27.4294 32.0893 27.3567L 35.0591 26.9324C 34.9879 26.4334 34.7477 25.9444 34.3003 25.5865L 32.4262 27.9291ZM 32.1319 27.5566C 32.1024 27.4531 32.0847 27.3133 32.1092 27.1538C 32.1338 26.9938 32.1933 26.8633 32.2558 26.7695L 34.752 28.4336C 35.0925 27.9228 35.1829 27.315 35.0165 26.7325L 32.1319 27.5566ZM 32.2816 26.7321L 26.305 35.1345L 28.7497 36.8733L 34.7262 28.471L 32.2816 26.7321ZM 26.2793 35.1719C 26.3902 35.0054 26.5875 34.8181 26.8772 34.7215L 27.8259 37.5676C 28.1387 37.4387 28.5861 37.0879 28.7754 36.8359L 26.2793 35.1719ZM 26.5195 34.8965C 26.6112 34.8353 26.6922 34.8071 26.7417 34.7948L 27.4693 37.7052C 27.6781 37.6481 27.9957 37.5103 28.1836 37.3926L 26.5195 34.8965ZM 27.1055 34.75C 27.082 34.75 27.0586 34.75 27.0352 34.75L 27.0352 37.75C 27.0586 37.75 27.082 37.75 27.1055 37.75L 27.1055 34.75ZM 27.0352 34.75C 27.1346 34.75 27.2242 34.767 27.2986 34.7918L 26.3499 37.6379C 26.533 37.694 26.8411 37.7449 27.0352 37.75L 27.0352 34.75ZM 27.2986 34.7918C 27.4228 34.8332 27.5727 34.9123 27.7091 35.0487L 25.5878 37.17C 25.7722 37.3386 26.1271 37.5542 26.3499 37.6379L 27.2986 34.7918ZM 27.6327 34.9775L 22.7811 30.7587L 20.8126 33.0225L 25.6642 37.2413L 27.6327 34.9775ZM 22.7339 30.7193C 22.8272 30.794 22.9108 30.8912 22.9731 31.0054C 23.0341 31.1171 23.0605 31.219 23.0709 31.2918L 20.101 31.716C 20.1723 32.215 20.4125 32.7041 20.8598 33.0619L 22.7339 30.7193ZM 23.0859 31.5039C 23.0859 31.605 23.067 31.7085 23.0299 31.8051C 22.9936 31.8995 22.9479 31.9665 22.9141 32.0071L 20.6094 30.0866C 20.351 30.428 20.1111 31.066 20.0859 31.5039L 23.0859 31.5039ZM 22.933 31.9839C 22.8417 32.0981 22.7124 32.2065 22.5494 32.2806C 22.3904 32.3529 22.2468 32.3711 22.1484 32.3711L 22.1484 29.3711C 21.5772 29.3711 20.9978 29.6006 20.5904 30.1098L 22.933 31.9839ZM 22.3606 32.356C 22.2327 32.3743 22.0882 32.3665 21.9446 32.3223C 21.8047 32.2793 21.7051 32.214 21.6452 32.1641L 23.5657 29.8594C 23.137 29.5021 22.5673 29.296 21.9363 29.3862L 22.3606 32.356Z"/>
</defs>
</svg>
