<?xml version="1.0" encoding="UTF-8" standalone="no"?>
<svg width="834px" height="457px" viewBox="0 0 834 457" version="1.1" xmlns="http://www.w3.org/2000/svg" xmlns:xlink="http://www.w3.org/1999/xlink">
    <!-- Generator: Sketch 3.7.2 (28276) - http://www.bohemiancoding.com/sketch -->
    <title>Group 10</title>
    <desc>Created with Sketch.</desc>
    <defs></defs>
    <g id="Page-1" stroke="none" stroke-width="1" fill="none" fill-rule="evenodd" opacity="0.5">
        <g id="Group-10" transform="translate(421.097217, 224.216544) rotate(4.000000) translate(-421.097217, -224.216544) translate(-1.402783, -26.783456)" fill="#B8C0C9">
            <path d="M99.5037054,271.684321 L99.5037054,310.968395 C99.5037054,317.141606 94.4427128,322.192416 88.2570551,322.192416 L65.7637546,322.192416 L65.7637546,339.028448 L43.270454,322.192416 L20.7771535,322.192416 C14.5858725,322.192416 9.53050325,317.141606 9.53050325,310.968395 L9.53050325,271.684321 C9.53050325,265.511109 14.5858725,260.460299 20.7771535,260.460299 L88.2570551,260.460299 C94.4427128,260.460299 99.5037054,265.511109 99.5037054,271.684321 L99.5037054,271.684321 Z" id="Shape" opacity="0.3" transform="translate(54.517104, 299.744373) rotate(-15.000000) translate(-54.517104, -299.744373) "></path>
            <path d="M178.106207,467.229098 C177.704263,464.409567 175.547997,462.211432 172.772066,461.556218 C161.982363,459.003 159.27761,452.72986 158.821236,445.771917 C156.907811,445.412607 153.503842,445.023706 147.725887,445.023706 C141.947932,445.023706 138.543963,445.412607 136.630539,445.771917 C136.174164,452.72986 133.469411,459.003 122.679708,461.556218 C119.903777,462.215659 117.747512,464.409567 117.345567,467.229098 L115.264666,481.779061 C114.531954,486.902406 118.258316,491.522717 123.441728,491.522717 L172.010046,491.522717 C177.189271,491.522717 180.91982,486.902406 180.187108,481.779061 L178.106207,467.229098 L178.106207,467.229098 Z M147.725887,480.920943 C141.885128,480.920943 137.149717,476.186498 137.149717,470.352986 C137.149717,464.519473 141.885128,459.785029 147.725887,459.785029 C153.566646,459.785029 158.302057,464.519473 158.302057,470.352986 C158.302057,476.186498 153.562459,480.920943 147.725887,480.920943 L147.725887,480.920943 Z M189.38578,440.796523 C189.285294,434.455749 173.299619,423.892019 147.725887,423.887792 C122.147969,423.892019 106.162293,434.455749 106.065994,440.796523 C105.969694,447.137298 106.153919,455.388758 116.679846,454.014924 C128.993589,452.404367 128.235756,448.063051 128.235756,441.857546 C128.235756,437.528911 138.250878,436.484797 147.725887,436.484797 C157.200896,436.484797 167.211831,437.528911 167.216018,441.857546 C167.216018,448.063051 166.458185,452.404367 178.771928,454.014924 C189.293668,455.388758 189.48208,447.137298 189.38578,440.796523 L189.38578,440.796523 Z" id="Shape" opacity="0.2" transform="translate(147.725855, 457.705255) rotate(-345.000000) translate(-147.725855, -457.705255) "></path>
            <path d="M172.957352,154.547883 C172.957352,156.085849 172.673246,158.093744 172.105038,160.571572 C171.536831,163.049401 170.940211,165.000333 170.315181,166.424373 C169.121945,169.272453 165.65588,172.291418 159.916981,175.481266 C154.575828,178.386305 149.291492,179.838824 144.063978,179.838824 C142.529818,179.838824 141.038272,179.739142 139.589343,179.539779 C138.140414,179.340411 136.506814,178.984404 134.688553,178.471747 C132.870287,177.959095 131.520793,177.546124 130.640071,177.232835 C129.75935,176.919546 128.182572,176.335691 125.909738,175.481266 C123.63691,174.626841 122.244798,174.114189 121.733413,173.943305 C116.164976,171.94965 111.193155,169.585742 106.817954,166.851588 C99.5448959,162.35162 92.0303443,156.21401 84.2743096,148.438756 C76.5182698,140.663498 70.39583,133.130332 65.9069901,125.839246 C63.1795938,121.453205 60.8215294,116.469069 58.8328019,110.886834 C58.6623403,110.374177 58.1509503,108.978621 57.2986422,106.700155 C56.4463289,104.421695 55.8639175,102.84101 55.5514028,101.958106 C55.2388881,101.075202 54.8269383,99.7223642 54.3155484,97.8995929 C53.8041635,96.0768216 53.4490308,94.4391789 53.2501606,92.9866546 C53.0512853,91.5341354 52.9518502,90.0388926 52.9518502,88.5009314 C52.9518502,83.2604645 54.4007792,77.9630397 57.2986422,72.6086519 C60.4806062,66.855533 63.4921034,63.3808744 66.3331442,62.1846812 C67.7536645,61.5581031 69.6997792,60.960009 72.171483,60.390394 C74.6431868,59.8207738 76.6461186,59.5359688 78.1802783,59.5359688 C78.9757693,59.5359688 79.5723901,59.6214108 79.9701356,59.7922948 C80.9929054,60.1340628 82.4986566,62.2986073 84.4873841,66.2859179 C85.1124135,67.368185 85.9647267,68.9061462 87.0443238,70.8998016 C88.1239158,72.8934569 89.1182821,74.7019887 90.0274125,76.3253919 C90.936548,77.9488002 91.8172698,79.472522 92.6695779,80.8965622 C92.8400396,81.1244093 93.3372253,81.8364243 94.1611248,83.0326226 C94.9850244,84.2288107 95.5958495,85.2398804 95.993595,86.0658266 C96.3913405,86.8917677 96.5902158,87.7034693 96.5902158,88.5009314 C96.5902158,89.6401615 95.7805154,91.0642018 94.1611248,92.7730521 C92.5417343,94.4818973 90.7802906,96.0483426 88.876794,97.4723829 C86.9732973,98.896418 85.2118537,100.4059 83.592458,102.000825 C81.9730674,103.595749 81.1633721,104.905868 81.1633721,105.931177 C81.1633721,106.443829 81.3054201,107.084647 81.5895262,107.85363 C81.8736323,108.622608 82.1151205,109.206468 82.3139907,109.605199 C82.512866,110.00393 82.9106115,110.687466 83.5072272,111.655812 C84.103848,112.624163 84.4305669,113.165294 84.4873841,113.27922 C88.8057674,121.082958 93.7491751,127.775944 99.3176121,133.358179 C104.886049,138.940413 111.562492,143.89607 119.34694,148.225149 C119.460579,148.282112 120.000378,148.609641 120.966331,149.207735 C121.932283,149.805834 122.614135,150.204565 123.01188,150.403928 C123.409626,150.603296 123.992037,150.845382 124.75912,151.130187 C125.526197,151.414997 126.165431,151.557402 126.676821,151.557402 C127.699596,151.557402 129.006471,150.745701 130.597453,149.122293 C132.188435,147.498889 133.694187,145.733081 135.114707,143.824868 C136.535227,141.916654 138.097796,140.150846 139.802422,138.527438 C141.507044,136.904035 142.927564,136.092333 144.063978,136.092333 C144.859469,136.092333 145.66917,136.291696 146.493069,136.690427 C147.316969,137.089158 148.325539,137.701497 149.518776,138.527438 C150.712012,139.353384 151.422272,139.851797 151.649556,140.022681 C153.070077,140.877106 154.590032,141.76001 156.209423,142.671393 C157.828813,143.582781 159.632875,144.579606 161.621602,145.661879 C163.61033,146.744146 165.14449,147.598571 166.224087,148.225149 C170.201542,150.218804 172.360731,151.728286 172.701654,152.753596 C172.872121,153.152327 172.957352,153.750421 172.957352,154.547883 L172.957352,154.547883 Z" id="Shape"></path>
            <path d="M825.203976,228.909667 C816.234149,208.036698 801.805412,192.158292 794.506102,195.119921 C782.110299,200.165448 801.890353,224.362463 741.009917,249.103103 C735.749204,251.249293 734.418454,259.794412 736.621271,264.913556 C738.818426,270.021374 746.010143,275.112204 751.270856,272.97734 C752.182562,272.603597 755.523596,271.527671 755.523596,271.527671 C759.278012,276.573199 763.207974,273.583256 764.606678,276.782721 C766.282858,280.633404 769.924019,289.002978 771.164166,291.845688 C772.404312,294.688399 775.213046,297.321586 777.251643,296.545787 C779.284577,295.769988 786.210144,293.1368 788.860321,292.134489 C791.510497,291.126516 792.139064,288.759479 791.329288,286.90209 C790.457222,284.891807 786.878351,284.302879 785.85339,281.958492 C784.834091,279.625431 781.49872,272.116599 780.541712,269.749561 C779.239275,266.533108 782.008369,263.911246 786.034599,263.497864 C813.748193,260.598526 818.929627,277.722741 828.363801,273.883383 C835.651786,270.910429 834.16814,249.765647 825.203976,228.909667 L825.203976,228.909667 Z M822.08379,262.750378 C820.458575,263.401596 809.552081,254.811175 802.586874,238.58734 C795.616005,222.374831 796.493734,207.555363 798.113286,206.892819 C799.732838,206.2416 810.373182,216.615794 817.338389,232.828303 C824.309258,249.040813 823.703342,262.087834 822.08379,262.750378 L822.08379,262.750378 Z" id="Shape" opacity="0.3" transform="translate(784.302702, 245.723527) rotate(-15.000000) translate(-784.302702, -245.723527) "></path>
            <path d="M713.216146,433.524451 L713.216146,411.143244 L699.498632,411.143244 C695.527772,411.143244 692.278888,414.392129 692.278888,418.362989 L692.278888,440.022221 C692.278888,443.993081 695.527772,447.241965 699.498632,447.241965 L703.108504,447.241965 L703.108504,458.071582 L713.93812,447.241965 L731.987481,447.241965 C735.95834,447.241965 739.207225,443.993081 739.207225,440.022221 L739.207225,433.452254 C738.976193,433.502792 738.730722,433.528061 738.485251,433.528061 L713.216146,433.528061 L713.216146,433.524451 L713.216146,433.524451 Z M757.256586,393.093884 L724.767737,393.093884 C720.796877,393.093884 717.547992,396.342769 717.547992,400.313628 L717.547992,429.192605 L742.817097,429.192605 L753.646713,440.022221 L753.646713,429.192605 L757.256586,429.192605 C761.227445,429.192605 764.47633,425.94733 764.47633,421.972861 L764.47633,400.313628 C764.47633,396.342769 761.227445,393.093884 757.256586,393.093884 L757.256586,393.093884 Z" id="Shape" fill-opacity="0.2" transform="translate(728.377609, 425.582733) rotate(-15.000000) translate(-728.377609, -425.582733) "></path>
            <path d="M779.72943,47.7816566 L779.72943,104.539519 C779.72943,107.684791 778.605967,110.377337 776.359044,112.617149 C774.112117,114.856966 771.411027,115.976874 768.255771,115.976874 L662.698081,115.976874 C659.542825,115.976874 656.841735,114.856966 654.594808,112.617149 C652.347885,110.377337 651.224422,107.684791 651.224422,104.539519 L651.224422,47.7816566 C653.327924,50.1167828 655.742178,52.1898026 658.46717,54.0007204 C675.773277,65.7240036 687.653296,73.944604 694.107233,78.6625088 C696.832224,80.6640455 699.043294,82.2247702 700.740443,83.3446742 C702.437587,84.4645826 704.696465,85.6083172 707.517073,86.7758824 C710.337681,87.9434433 712.96706,88.5272259 715.405216,88.5272259 L715.476926,88.5272259 L715.548636,88.5272259 C717.986792,88.5272259 720.616171,87.9434433 723.436779,86.7758824 C726.257387,85.6083172 728.516265,84.4645826 730.213409,83.3446742 C731.910558,82.2247702 734.121628,80.6640455 736.846619,78.6625088 C744.973799,72.8008651 756.877723,64.580269 772.558393,54.0007204 C775.283388,52.14215 777.673731,50.0691302 779.72943,47.7816566 L779.72943,47.7816566 Z M779.72943,26.7655215 C779.72943,30.5303192 778.558159,34.1283199 776.215624,37.5595238 C773.87308,40.990732 770.95686,43.9215539 767.466956,46.3519894 C749.491551,58.7901084 738.304731,66.534153 733.906493,69.5841106 C733.428425,69.9177001 732.412528,70.644449 730.858804,71.7643573 C729.30508,72.8842657 728.01429,73.7897203 726.986443,74.4807298 C725.958596,75.1717349 724.715614,75.9461407 723.257502,76.8039385 C721.79939,77.6617405 720.424943,78.3050931 719.134157,78.733992 C717.843367,79.1628951 716.648198,79.3773446 715.548636,79.3773446 L715.476926,79.3773446 L715.405216,79.3773446 C714.305654,79.3773446 713.110485,79.1628951 711.819695,78.733992 C710.528909,78.3050931 709.154462,77.6617405 707.69635,76.8039385 C706.238238,75.9461407 704.995256,75.1717349 703.967409,74.4807298 C702.939562,73.7897203 701.648772,72.8842657 700.095048,71.7643573 C698.541324,70.644449 697.525427,69.9177001 697.047359,69.5841106 C692.696929,66.534153 686.43422,62.1855728 678.259237,56.5383828 C670.084254,50.8911885 665.184045,47.4957241 663.558607,46.3519894 C660.594579,44.3504527 657.797873,41.5983409 655.168493,38.0956496 C652.539114,34.5929625 651.224422,31.3404643 651.224422,28.3381593 C651.224422,24.6210186 652.216416,21.5234041 654.200401,19.0453117 C656.184389,16.5672193 659.016948,15.3281709 662.698081,15.3281709 L768.255771,15.3281709 C771.363219,15.3281709 774.052358,16.4480793 776.323187,18.6878917 C778.594016,20.9277084 779.72943,23.6202502 779.72943,26.7655215 L779.72943,26.7655215 Z" id="Shape" transform="translate(715.476926, 65.652523) rotate(-15.000000) translate(-715.476926, -65.652523) "></path>
        </g>
    </g>
</svg>
