<svg width="834" height="457" viewBox="0 0 834 457" xmlns="http://www.w3.org/2000/svg"><g fill="#B8C0C9" opacity=".5"><path d="M89.255 210.958l7.503 38.577c1.179 6.062-2.826 11.989-8.9 13.17l-22.088 4.296 3.216 16.533-25.304-12.237-22.088 4.296c-6.08 1.183-12.009-2.812-13.188-8.874l-7.503-38.577c-1.179-6.062 2.821-11.988 8.9-13.17l66.265-12.889c6.074-1.181 12.009 2.812 13.188 8.874z" id="Shape" opacity=".3"/><path d="M158.038 430.188c.539-2.798-.784-5.581-3.197-7.105-9.375-5.933-9.888-12.749-8.052-19.48-1.693-.964-4.786-2.441-10.252-4.325-5.466-1.884-8.813-2.625-10.74-2.909-2.7 6.433-7.304 11.486-18.343 10.384-2.841-.281-5.596 1.091-6.895 3.628l-6.712 13.086c-2.363 4.608-.344 10.193 4.559 11.883l45.946 15.833c4.9 1.688 9.935-1.466 10.912-6.552l2.775-14.443zm-33.203 3.049c-5.525-1.904-8.462-7.927-6.56-13.445 1.902-5.519 7.925-8.454 13.45-6.549 5.525 1.904 8.462 7.927 6.56 13.445-1.902 5.519-7.929 8.452-13.45 6.549zm52.491-24.377c1.972-6.031-9.707-21.236-33.898-29.577-24.198-8.334-42.764-3.552-44.923 2.415-2.158 5.967-4.674 13.833 5.732 15.965 12.174 2.491 12.872-1.863 14.895-7.734 1.411-4.095 11.226-1.818 20.189 1.271s18.093 7.34 16.686 11.436c-2.023 5.87-4.155 9.73 6.969 15.268 9.506 4.73 12.374-3.015 14.35-9.044z" id="Shape" opacity=".2"/><path d="M178.805 110.49c-.108 1.535-.532 3.519-1.272 5.952-.741 2.433-1.473 4.338-2.196 5.716-1.39 2.759-5.061 5.529-11.011 8.311-5.534 2.525-10.909 3.605-16.126 3.239-1.531-.107-3.013-.311-4.445-.612-1.432-.3-3.037-.77-4.816-1.409s-3.097-1.146-3.954-1.52c-.857-.374-2.39-1.067-4.598-2.079-2.208-1.012-3.562-1.621-4.06-1.827-5.418-2.379-10.214-5.087-14.389-8.122-6.944-5-14.013-11.651-21.21-19.954-7.196-8.303-12.779-16.249-16.749-23.84-2.415-4.568-4.419-9.707-6.013-15.418-.134-.524-.547-1.952-1.238-4.286-.691-2.334-1.162-3.952-1.412-4.855-.25-.903-.567-2.282-.949-4.137-.383-1.855-.623-3.514-.719-4.978-.097-1.464-.091-2.963.016-4.498.367-5.23 2.184-10.415 5.451-15.556 3.578-5.519 6.827-8.776 9.746-9.771 1.462-.526 3.446-.987 5.952-1.382 2.507-.395 4.525-.539 6.057-.432.794.056 1.383.183 1.768.381.997.413 2.348 2.678 4.054 6.797.548 1.124 1.291 2.718 2.229 4.784.938 2.065 1.804 3.94 2.597 5.624.794 1.684 1.566 3.266 2.317 4.747.154.239.601.985 1.339 2.236.739 1.251 1.277 2.303 1.616 3.155.339.852.481 1.676.425 2.472-.08 1.137-.988 2.501-2.723 4.094-1.736 1.592-3.603 3.032-5.603 4.32-1.999 1.288-3.863 2.671-5.591 4.149-1.728 1.478-2.628 2.729-2.699 3.752-.036.512.061 1.161.291 1.948.23.787.43 1.387.6 1.799.171.412.52 1.122 1.047 2.13.528 1.008.816 1.571.865 1.689 3.763 8.09 8.228 15.116 13.395 21.077 5.167 5.961 11.483 11.374 18.949 16.239.109.065.625.429 1.547 1.094.922.665 1.575 1.11 1.958 1.337.383.227.947.509 1.693.847.746.338 1.374.525 1.884.561 1.021.072 2.382-.647 4.083-2.156 1.701-1.509 3.328-3.166 4.879-4.971 1.551-1.805 3.234-3.458 5.049-4.959 1.815-1.501 3.289-2.211 4.423-2.132.794.056 1.588.311 2.382.767s1.758 1.137 2.891 2.045c1.133.908 1.807 1.455 2.022 1.641 1.358.952 2.813 1.94 4.365 2.963 1.552 1.023 3.283 2.144 5.192 3.363 1.909 1.219 3.38 2.179 4.414 2.88 3.83 2.268 5.879 3.926 6.148 4.973.142.41.185 1.013.13 1.809z" id="Shape"/><path d="M819.499 219.953c-12.795-18.784-29.997-31.621-36.599-27.318-11.209 7.322 12.837 27.306-42.222 63.229-4.756 3.112-4.431 11.758-1.29 16.364 3.133 4.596 11.168 8.222 15.926 5.121.824-.541 3.899-2.236 3.899-2.236 4.651 4.238 7.939.551 9.923 3.426 2.381 3.461 7.556 10.985 9.316 13.539 1.761 2.555 5.022 4.604 6.876 3.453 1.848-1.15 8.146-5.059 10.557-6.549 2.41-1.496 2.575-3.94 1.425-5.61-1.24-1.808-4.867-1.702-6.322-3.809-1.447-2.096-6.156-8.833-7.548-10.975-1.893-2.91.325-6.013 4.2-7.188 26.661-8.14 35.02 7.686 43.551 2.114 6.589-4.311 1.093-24.792-11.693-43.561zm3.4 33.828c-1.472.95-13.823-5.403-23.761-20.004-9.942-14.589-11.911-29.31-10.447-30.27 1.466-.949 13.896 7.206 23.833 21.797 9.942 14.589 11.839 27.517 10.375 28.477z" id="Shape" opacity=".3"/><path d="M700.77 430.557l-4.275-21.978-13.471 2.62c-3.899.758-6.469 4.569-5.711 8.469l4.137 21.269c.758 3.899 4.569 6.469 8.469 5.711l3.545-.689 2.068 10.635 8.566-12.703 17.724-3.447c3.899-.758 6.469-4.569 5.711-8.469l-1.255-6.452c-.217.094-.453.165-.694.212l-24.814 4.826-.001-.004zm35.525-48.115l-31.904 6.205c-3.899.758-6.469 4.569-5.711 8.469l5.516 28.359 24.814-4.826 12.703 8.566-2.068-10.635 3.545-.689c3.899-.758 6.47-4.566 5.711-8.469l-4.137-21.269c-.758-3.899-4.569-6.469-8.469-5.711z" id="Shape" fill-opacity=".2"/><path d="M786.145 29.927l10.841 55.736c.601 3.089.012 5.947-1.767 8.576-1.779 2.629-4.217 4.244-7.316 4.847l-103.658 20.162c-3.098.603-5.965.019-8.599-1.752-2.634-1.77-4.252-4.2-4.853-7.288l-10.841-55.736c2.512 1.891 5.278 3.466 8.3 4.724 19.234 8.207 32.47 14.01 39.709 17.411 3.058 1.445 5.528 2.555 7.408 3.331 1.88.776 4.317 1.467 7.31 2.075 2.993.608 5.686.679 8.081.213l.07-.014.07-.014c2.394-.466 4.865-1.541 7.412-3.226 2.547-1.685 4.547-3.24 5.999-4.664 1.453-1.424 3.326-3.379 5.62-5.865 6.861-7.308 16.981-17.655 30.359-31.039 2.321-2.346 4.272-4.838 5.854-7.477zm-4.014-20.638c.719 3.697.256 7.454-1.389 11.271-1.645 3.817-3.949 7.252-6.912 10.305-15.276 15.648-24.783 25.389-28.519 29.224-.406.419-1.265 1.327-2.576 2.723-1.312 1.397-2.406 2.532-3.284 3.407-.877.875-1.95 1.873-3.218 2.994-1.268 1.121-2.495 2.015-3.68 2.683-1.186.668-2.318 1.107-3.398 1.317l-.07.014-.07.014c-1.08.21-2.294.228-3.644.053-1.349-.175-2.822-.544-4.418-1.108-1.596-.564-2.964-1.087-4.106-1.569-1.141-.482-2.582-1.125-4.321-1.928-1.74-.803-2.876-1.323-3.409-1.559-4.855-2.164-11.835-5.238-20.942-9.222-9.106-3.984-14.567-6.383-16.382-7.195-3.293-1.399-6.565-3.568-9.816-6.505-3.251-2.937-5.163-5.88-5.737-8.829-.71-3.65-.327-6.882 1.147-9.694 1.475-2.812 4.02-4.57 7.635-5.273l103.658-20.162c3.052-.594 5.906-.007 8.564 1.758 2.658 1.766 4.287 4.193 4.888 7.282z"/></g></svg>
