<svg xmlns="http://www.w3.org/2000/svg" width="250" height="202" viewBox="0 0 250 202"><g fill="#0070D3" fill-rule="evenodd"><path d="M158.921 46.575H90.988c-12.96 0-23.505 10.544-23.505 23.505V94.1c0 12.962 10.544 23.506 23.505 23.506 12.96 0 23.503-10.544 23.503-23.505v-8.419h20.926v8.419c0 12.96 10.544 23.505 23.504 23.505s23.505-10.544 23.505-23.505V70.08c0-12.961-10.545-23.506-23.505-23.506zM99.129 76.493h-4.07v4.07a3.592 3.592 0 0 1-7.183 0v-4.07h-4.072a3.592 3.592 0 0 1 0-7.184h4.072v-4.07a3.592 3.592 0 0 1 7.184 0v4.07h4.069a3.592 3.592 0 0 1 0 7.184zm20.047-4.72h-5.478a3.592 3.592 0 1 1 0-7.183h5.478a3.592 3.592 0 0 1 0 7.184zm15.806 0h-5.48a3.592 3.592 0 1 1 0-7.183h5.48a3.592 3.592 0 1 1 0 7.184zm11.837-3.591a4.7 4.7 0 1 1 9.398-.23 4.7 4.7 0 0 1-9.398.23zm8.778 18.041a4.7 4.7 0 1 1-.001-9.399 4.7 4.7 0 0 1 .001 9.4zm9.398-10.244a4.7 4.7 0 1 1 .003-9.4 4.7 4.7 0 0 1-.003 9.4z"/><path d="M242.725.673H7.184A7.184 7.184 0 0 0 0 7.857v151.144a7.184 7.184 0 0 0 7.184 7.184h82.6c-3.166 15.429-10.49 23.4-10.542 23.457a7.183 7.183 0 0 0 5.161 12.18h81.103a7.182 7.182 0 0 0 5.16-12.18c-.083-.088-7.384-8.028-10.542-23.457h82.6a7.184 7.184 0 0 0 7.185-7.184V7.857a7.184 7.184 0 0 0-7.184-7.184zm-7.184 151.144h-11.718v-2.023a7.184 7.184 0 1 0-14.368 0v2.023h-7.499v-2.023a7.184 7.184 0 1 0-14.368 0v2.023H14.368V15.04H235.54v136.776z"/></g></svg>
