<svg xmlns="http://www.w3.org/2000/svg" viewBox="0 0 347.873 347.873" width="512" height="512"><g fill="#0070d3"><path d="M221.218 97.832h-94.563c-18.041 0-32.719 14.678-32.719 32.72v33.436c0 18.042 14.678 32.72 32.719 32.72 18.04 0 32.717-14.678 32.717-32.72V152.27h29.129v11.718c0 18.042 14.677 32.72 32.717 32.72 18.041 0 32.719-14.678 32.719-32.72v-33.436c-.001-18.041-14.678-32.72-32.719-32.72zm-83.231 41.646h-5.664v5.667a5 5 0 1 1-10 0v-5.667h-5.668a5 5 0 1 1 0-10h5.668v-5.665a5 5 0 1 1 10 0v5.665h5.664a5 5 0 1 1 0 10zm27.906-6.569h-7.625a5 5 0 1 1 0-10h7.625a5 5 0 1 1 0 10zm22.002 0h-7.627a5 5 0 1 1 0-10h7.627a5 5 0 1 1 0 10zm16.477-5a6.543 6.543 0 1 1 13.082.004 6.543 6.543 0 0 1-13.082-.004zm12.219 25.114a6.542 6.542 0 0 1-6.543-6.543 6.542 6.542 0 1 1 13.084 0 6.543 6.543 0 0 1-6.541 6.543zm13.082-14.26a6.543 6.543 0 1 1 .004-13.086 6.543 6.543 0 0 1-.004 13.086z"/><path d="M337.873 33.937H10c-5.523 0-10 4.477-10 10V254.33c0 5.523 4.477 10 10 10h114.979c-4.407 21.476-14.601 32.572-14.674 32.651a9.999 9.999 0 0 0 7.184 16.956h112.895a9.998 9.998 0 0 0 7.184-16.956c-.117-.122-10.279-11.174-14.676-32.651h114.981c5.523 0 10-4.477 10-10V43.937c0-5.523-4.477-10-10-10zm-10 210.392h-16.311v-2.816c0-5.523-4.477-10-10-10s-10 4.477-10 10v2.816h-10.439v-2.816c0-5.523-4.477-10-10-10-5.522 0-10 4.477-10 10v2.816H20V53.937h307.873v190.392z"/></g></svg>
