<svg xmlns="http://www.w3.org/2000/svg" width="250" height="216" viewBox="0 0 250 216"><g fill="#0070D3" fill-rule="evenodd"><path d="M225.867 134.566c-5-.918-9.49-3.265-13.06-6.53l-30.715 50.05c-1.429-.356-2.857-.51-4.388-.51-10.561 0-19.184 8.572-19.184 19.184 0 10.561 8.572 19.184 19.184 19.184 10.561 0 19.184-8.572 19.184-19.184 0-3.724-1.072-7.143-2.908-10.102l31.887-52.092zm-48.163 69.286a7.077 7.077 0 0 1-7.092-7.092 7.077 7.077 0 0 1 7.092-7.092 7.077 7.077 0 0 1 7.092 7.092c.05 3.878-3.163 7.092-7.092 7.092zM38.265 108.087c0-5.204-2.092-9.95-5.459-13.368l30.46-49.745c-4.746-1.581-8.878-4.49-12.042-8.214L19.286 89.005h-.153C8.57 88.955 0 97.577 0 108.138s8.571 19.132 19.184 19.132h.102l31.938 52.194a26.7 26.7 0 0 1 12.041-8.214l-30.459-49.745c3.367-3.47 5.46-8.163 5.46-13.418zm-19.081 7.092a7.077 7.077 0 0 1-7.092-7.092c-.051-3.878 3.112-7.092 7.092-7.092a7.077 7.077 0 0 1 7.092 7.092 7.077 7.077 0 0 1-7.092 7.092zm131.683 80.867c0-1.888.204-3.725.562-5.561H90.204a20.845 20.845 0 0 0-1.837-4.235L120 134.566c-5-.918-9.49-3.265-13.061-6.53l-30.255 49.438a18.441 18.441 0 0 0-4.796-.612c-10.561 0-19.184 8.572-19.184 19.184v.714c0 10.561 8.572 19.133 19.184 19.133 7.602 0 14.132-4.439 17.245-10.816h63.316a26.46 26.46 0 0 1-1.582-9.031zm-78.98 7.04c-3.826 0-6.887-3.01-7.091-6.734.204-3.775 3.265-6.735 7.092-6.735 3.826 0 6.888 3.01 7.092 6.735-.204 3.776-3.266 6.735-7.092 6.735zm158.93-114.08a19.133 19.133 0 0 0-16.888 10.101h-63.623a26.46 26.46 0 0 1 1.582 9.03c0 1.889-.204 3.725-.561 5.562H212.5c2.398 7.857 9.694 13.622 18.316 13.622 10.562 0 19.184-8.571 19.184-19.183 0-10.561-8.571-19.133-19.184-19.133zm0 26.275a7.077 7.077 0 0 1-7.093-7.092 7.077 7.077 0 0 1 7.092-7.092 7.077 7.077 0 0 1 7.092 7.092c.051 3.877-3.163 7.092-7.092 7.092zm-79.44-90.153a28.155 28.155 0 0 1-.56-5.562c0-3.163.56-6.224 1.581-9.03H88.776A19.133 19.133 0 0 0 71.888.434c-10.561 0-19.184 8.571-19.184 19.183 0 10.51 8.572 19.082 19.184 19.082 1.53 0 2.959-.204 4.388-.51l30.663 50.102c3.622-3.265 8.112-5.612 13.061-6.53L88.112 29.667a20.796 20.796 0 0 0 2.092-4.591v.05h61.174zm-79.49 1.48a7.077 7.077 0 0 1-7.091-7.093c-.051-3.877 3.163-7.092 7.092-7.092a7.077 7.077 0 0 1 7.092 7.092 7.077 7.077 0 0 1-7.092 7.092z"/><path d="M144.082 108.189c0-5.204-2.092-9.95-5.46-13.368l30.46-49.744c-4.694-1.633-8.827-4.541-11.99-8.266l-31.939 52.194H125c-8.673 0-15.97 5.765-18.316 13.623H45.459c.357 1.785.561 3.622.561 5.56a26.46 26.46 0 0 1-1.581 9.031h63.673A19.133 19.133 0 0 0 125 127.321h.102l31.939 52.194a26.7 26.7 0 0 1 12.04-8.214l-30.459-49.745c3.368-3.47 5.46-8.163 5.46-13.367zM125 115.229a7.077 7.077 0 0 1-7.092-7.091 7.077 7.077 0 0 1 7.092-7.092 7.077 7.077 0 0 1 7.092 7.092c.05 3.928-3.163 7.092-7.092 7.092zm68.929-85.56c1.836-2.96 2.908-6.378 2.908-10.103 0-10.56-8.572-19.183-19.184-19.183-10.561 0-19.184 8.571-19.184 19.183 0 10.562 8.572 19.184 19.184 19.184 1.582-.051 3.061-.204 4.439-.561l30.663 50.102c3.623-3.265 8.112-5.612 13.061-6.53L193.93 29.667zm-16.225-3.01a7.077 7.077 0 0 1-7.092-7.093 7.077 7.077 0 0 1 7.092-7.092 7.077 7.077 0 0 1 7.092 7.092 7.077 7.077 0 0 1-7.092 7.092z"/></g></svg>
