<svg xmlns="http://www.w3.org/2000/svg" width="301" height="302" viewBox="0 0 301 302"><path fill="#0070D3" fill-rule="evenodd" d="M.3 214.19v-17.211c0-3.623 2.718-6.341 6.34-6.341h14.192c1.812-9.662 5.737-19.023 11.474-27.477l-9.964-9.964a6.196 6.196 0 0 1 0-8.757l12.078-12.078a6.196 6.196 0 0 1 8.757 0l9.964 9.964c8.454-5.737 17.815-9.36 27.477-11.474v-14.191c0-3.623 2.718-6.341 6.34-6.341h17.212c3.623 0 6.34 2.718 6.34 6.34v14.192c9.663 1.812 19.023 5.737 27.478 11.474l9.964-9.964a6.196 6.196 0 0 1 8.757 0l12.078 12.078a6.196 6.196 0 0 1 0 8.757l-9.965 9.964c5.737 8.454 9.36 17.815 11.474 27.477h14.192c3.623 0 6.34 2.718 6.34 6.34v17.212c0 3.623-2.717 6.34-6.34 6.34h-14.192c-1.811 9.663-5.737 19.024-11.474 27.478l9.965 9.964a6.196 6.196 0 0 1 0 8.757l-12.078 12.078a6.196 6.196 0 0 1-8.757 0l-9.662-9.663c-8.455 5.737-17.815 9.36-27.477 11.474v14.192c0 3.623-2.718 6.34-6.341 6.34H87.26c-3.624 0-6.341-2.717-6.341-6.34v-14.192c-4.53-.905-9.36-2.415-13.588-4.227l22.646-22.646c14.192 1.812 28.987-2.717 40.16-13.89a48.295 48.295 0 0 0 0-68.542 48.295 48.295 0 0 0-68.543 0c-10.87 10.87-15.399 25.666-13.89 40.16L25.06 234.117c-1.812-4.529-3.02-9.058-3.926-13.587H6.943C3.319 220.53.3 217.813.3 214.19zm23.552 84.545l69.75-69.75 11.172 11.172c1.208 1.208 3.321.604 3.623-1.207l9.964-53.143c.302-1.51-.905-2.718-2.415-2.416l-53.143 9.663c-1.812.302-2.415 2.415-1.208 3.623l11.172 11.172-70.051 69.75c-2.416 2.415-2.416 6.643 0 9.058l12.077 12.078c2.416 2.416 6.341 2.416 9.059 0zM152.18 92.203l10.87-4.529c-1.51-7.85-1.51-16.305 0-24.458l-10.87-4.529c-2.718-1.208-3.926-4.227-2.718-6.643l5.435-12.984c1.208-2.717 4.227-3.925 6.643-2.717l10.87 4.53c4.53-6.946 10.568-12.985 17.513-17.212l-4.53-10.87c-1.207-2.718.303-5.737 2.718-6.643L201.095.713c2.718-1.208 5.737.302 6.643 2.718l4.53 10.87c7.85-1.51 16.304-1.51 24.457 0l4.529-10.87c1.208-2.718 4.227-3.926 6.643-2.718l12.984 5.435c2.717 1.208 3.925 4.227 2.717 6.643l-4.53 10.87c6.946 4.53 12.985 10.568 17.212 17.513l10.87-4.53c2.718-1.207 5.737.303 6.643 2.718l5.435 12.984c1.208 2.718-.302 5.737-2.718 6.643l-10.266 4.227c1.51 7.85 1.51 16.305 0 24.458l10.87 4.53c2.718 1.207 3.926 4.226 2.718 6.642l-5.435 12.984c-1.208 2.717-4.227 3.925-6.643 2.717l-10.87-4.529c-4.53 6.945-10.568 12.984-17.513 17.211l4.53 10.87c1.207 2.718-.303 5.737-2.718 6.643l-12.984 5.435c-2.718 1.208-5.737-.302-6.643-2.717l-4.53-10.87c-7.85 1.51-16.304 1.51-24.457 0l-4.831 11.473c-1.208 2.718-4.227 3.926-6.643 2.718l-12.984-5.435c-2.717-1.208-3.925-4.227-2.717-6.643l4.529-10.87c-6.945-4.53-12.984-10.568-17.211-17.513l-10.87 4.53c-2.718 1.207-5.737-.303-6.643-2.718l-5.435-12.984c-1.51-2.718-.302-5.737 2.416-6.945zm46.197 7.549c0 1.208.906 2.114 2.114 2.114l35.932-3.624c1.208 0 1.812-1.51.906-2.415l-8.455-8.455 22.042-22.042a2.37 2.37 0 0 0 0-3.322l-12.38-12.38a2.37 2.37 0 0 0-3.32 0l-22.043 22.043-8.455-8.757c-.905-.906-2.415-.302-2.415.906l-3.926 35.932z"/></svg>
