<svg xmlns="http://www.w3.org/2000/svg" height="109.25" viewBox="0 0 300 109.25072" width="300"><defs><clipPath id="a"><path d="M0 0h2467.7v3078.5H0V0z"/></clipPath></defs><g fill="#222c37" clip-path="url(#a)" transform="matrix(.24634 0 0 -.24634 -143.809 758.345)"><path d="M1263.9 2944.2h-42.52v-98.34c0-25.32-10.39-45.44-40.9-45.44-30.18-.33-38.94 20.44-38.94 46.73v97.05h-42.52v-107.76c0-31.15 11.03-75.62 69.46-75.95 32.13-.32 48.03 15.26 55.5 29.21v-23.69h39.92v178.19M1280.8 2766h42.52v98.35c0 24.99 10.38 45.11 40.57 45.44 29.86 0 38.62-20.45 38.62-47.06V2766h42.52v107.44c0 31.48-11.03 75.95-69.13 76.27-31.81.32-47.72-15.25-55.5-29.21.32 8.44.32 15.9.32 23.69h-39.92V2766M1461.3 2766h42.52v178.19h-42.52V2766zm0 202.21h42.52v37.98h-42.52v-37.98M1548.3 2766h42.52v145.41h30.51l-12.62 32.78h-17.89v62h-42.52v-62h-29.54v-32.78h29.54V2766M1662.4 2703.7h45.44l93.81 240.51h-45.44l-42.85-118.47-43.49 118.47h-45.44l67.18-171.37-29.21-69.14M865.9 2856.7l77.609 134.02 37.504-134.02-37.504-133.99L865.9 2856.7zm-37.829-21.76l77.622-134-135.18 34.63-97.668 99.37h155.23zm77.606 177.56l-77.606-134.02h-155.23l97.668 99.37 135.17 34.65zm110.8-110.19l-47.353 176.15-176.73-47.21-26.161-45.99-53.085.38-129.36-128.95 129.36-128.92h.003l53.063.39 26.199-45.99 176.71-47.21 47.353 176.13-26.892 45.61 26.892 45.61"/></g></svg>
