<svg width="300" height="260" viewBox="0 0 300 260" xmlns="http://www.w3.org/2000/svg"><path d="M224.868 0H75.132L0 129.63l75.132 129.63h149.736L300 129.63 224.868 0zm-73.016 224.339c-21.693 0-41.8-5.82-60.318-16.932l14.815-25.926c13.757 9.524 28.572 14.815 46.032 14.815 20.106 0 32.275-8.994 32.275-23.28 0-13.228-7.407-20.635-41.27-28.572-39.153-9.523-61.375-21.164-61.375-55.026 0-31.746 26.455-53.44 62.963-53.44 22.222 0 40.74 5.82 56.613 15.874l-15.344 25.926c-13.756-8.995-28.042-13.757-42.328-13.757-19.047 0-30.158 9.524-30.158 22.222 0 14.286 8.465 20.635 43.386 29.1 38.624 9.525 59.26 23.281 59.26 53.97 1.057 34.39-25.927 55.026-64.551 55.026z" fill="#3270B8" fill-rule="evenodd"/></svg>
