<svg width="18" height="24" viewBox="0 0 18 24" xmlns="http://www.w3.org/2000/svg"><title>file</title><desc>Created with Sketch.</desc><g fill="#642EE1"><path d="M17 24h-16c-.6 0-1-.4-1-1v-22c0-.6.4-1 1-1h16c.6 0 1 .4 1 1v22c0 .6-.4 1-1 1zm-15-2h14v-20h-14v20zM10 7h-5c-.6 0-1-.4-1-1s.4-1 1-1h5c.6 0 1 .4 1 1s-.4 1-1 1zM13 11h-8c-.6 0-1-.4-1-1s.4-1 1-1h8c.6 0 1 .4 1 1s-.4 1-1 1zM11 15h-6c-.6 0-1-.4-1-1s.4-1 1-1h6c.6 0 1 .4 1 1s-.4 1-1 1zM13 19h-8c-.6 0-1-.4-1-1s.4-1 1-1h8c.6 0 1 .4 1 1s-.4 1-1 1z"/></g></svg>
