<svg width="24" height="24" viewBox="0 0 24 24" xmlns="http://www.w3.org/2000/svg"><title>stack 2</title><desc>Created with Sketch.</desc><path d="M2 15v-10c-.998.492-2 1.825-2 3.394v12.004c0 1.99 1.612 3.601 3.601 3.601h12.004c1.57 0 2.902-1.002 3.394-2h-16c-.062-.401-.599.062-1-1v-6zm18.438-15h-11.875c-1.968 0-3.563 1.594-3.563 3.563v11.875c0 1.968 1.594 3.563 3.563 3.563h11.875c1.968 0 3.563-1.594 3.563-3.563v-11.875c0-1.968-1.594-3.563-3.563-3.563zm1.563 15.75c0 .691-.559 1.25-1.25 1.25h-12.5c-.691 0-1.25-.559-1.25-1.25v-12.5c0-.691.559-1.25 1.25-1.25h12.5c.691 0 1.25.559 1.25 1.25v12.5z" fill="#0070D3" opacity=".9"/></svg>
