<svg xmlns="http://www.w3.org/2000/svg" width="165.908" height="175.75" viewBox="0 0 165.908 175.75"><path fill="#B4B4B4" d="M82.689 0l-82.689 29.1 13.067 108.336 69.71 38.314 70.069-38.833 13.062-108.332z"/><path fill="#A51E22" d="M157.66 34.846l-75.164-25.632v157.382l62.991-34.862z"/><path fill="#DC2226" d="M9.279 35.308l11.197 96.889 62.019 34.399v-157.385z"/><path fill="#F3F3F3" d="M103.186 92.996l-20.69 9.675h-21.807l-10.251 25.64-19.067.354 51.125-113.736 20.69 78.067zm-2-4.871l-18.553-36.729-15.218 36.097h15.08l18.691.632z"/><path fill="#B4B4B4" d="M82.495 14.929l.137 36.467 17.268 36.125h-17.366l-.039 15.127 24.013.023 11.223 25.997 18.244.338z"/></svg>
