<svg xmlns="http://www.w3.org/2000/svg" viewBox="0 0 595.6 226.2" enable-background="new 0 0 595.6 226.2"><style type="text/css">.st0{fill-rule:evenodd;clip-rule:evenodd;fill:#E24B31;}</style><path class="st0" d="M411.5 169.4s-2.8-9.8 7.5-28.5l18.2-8.5s8.8 9.5-1.2 23.8l-24.5 13.2zm-78.7 13.5c-11.8 30.8-40.2 18.2-40.2 18.2s-3.2-11 6-41.8l31-18.8s14.9 11.6 3.2 42.4zm-21.3-128.8s17.8-46.2 22-23.8l-37.2 89.5c.5-14.9 15.2-65.7 15.2-65.7zm-253.7 115.3c.8-29.8 20.3-42.7 27-36.2 6.8 6.5 4.2 20.5-8.5 29.2l-18.5 7zm537.7-4.9c-1-10-10-6.3-10-6.3s-14.5 11.2-27.2 10l-8.8-29.8s2.8-26.1-4.8-28.3c-7.5-2.2-16.8 6.8-16.8 6.8s-11.5 12.7-17 29l-1.5.5s1.8-28.5-.2-35c-1.5-3.2-15.2-3-17.5 2.8s-13.2 45.7-14 62.5c0 0-21.5 18.2-40.2 21.2l-23.2-8.8s51-14.2 49.2-55-41.1-25.7-45.6-22.3c-4.3 3.2-27.3 17.1-34 55.6-.2 1.3-.6 7-.6 7s-19.8 13.2-30.8 16.8c0 0 30.8-51.8-6.8-75.2-17-10.2-30.5 11.2-30.5 11.2s50.8-56.6 39.6-104.3c-5.4-22.7-16.8-25.2-27.2-21.5-15.8 6.2-21.8 15.5-21.8 15.5s-20.5 29.8-25.2 74l-11.8 97.7s-9.8 9.5-18.8 10l-5-26.8s7-41.5 6.5-48.5-1-10.8-9.2-13.2l-17.2 8s-23.8 36-25.8 41.5l-1.2 2.2-1.2-1.5s16.8-49 .8-49.7l-26.7 17.5s-18.2 30.5-19 34l-1.2-1.5s7.5-35.5 6-44.2l-9.8-7s-10.5-1.2-13.2 5.5-12.7 51.5-14 65.7c0 0-26.2 18.8-43.5 19l-15.5-10.9s63.3-21.7 46-64.4c-7.8-11-16.8-14.5-29.5-14.2s-28.6 8-38.8 31c-4.9 11-6.7 21.4-7.7 29.3 0 0-11.1 2.3-17.1-2.7h-9.1s-10.3 13.1 0 17.1l26.2 5.9c1.5 7 5.7 18.9 18.2 28.4 18.7 14.2 54.7-1.3 54.7-1.3l14.8-8.3s.5 13.5 11.2 15.5c10.8 2 15.2 0 34-45.5 11-23.2 11.8-22 11.8-22l1.2-.2s-8.5 44.5-5.2 56.5l17.5 10.8s7.8 1.5 14-20.5l18.2-46.2h1.5s-5.2 45.5 2.8 60l28.8 4.9s14.5-7.3 16.8-9.6c0 0 17.2 14.6 41.5 12 54.3-10.7 73.6-25.1 73.6-25.1s9.3 23.6 38.2 25.8c33 2.5 51-18.3 51-18.3s-.2 13.5 11.2 18.2l19.2-21.9 19.2-53.1h1.8s1 34.5 20 40l43.8-12.9s5.9-3.4 4.9-13.4z" id="Logo"/></svg>
