<?xml version="1.0" encoding="utf-8"?>
<!-- Generator: Adobe Illustrator 19.2.1, SVG Export Plug-In . SVG Version: 6.00 Build 0)  -->
<svg version="1.1" xmlns="http://www.w3.org/2000/svg" xmlns:xlink="http://www.w3.org/1999/xlink" x="0px" y="0px"
	 viewBox="0 0 595.6 226.2" style="enable-background:new 0 0 595.6 226.2;" xml:space="preserve">
<style type="text/css">
	.st0{fill-rule:evenodd;clip-rule:evenodd;fill:#E24B31;}
</style>
<g id="Layer_2">
</g>
<g id="Logo">
	<path class="st0" d="M411.5,169.4c0,0-2.8-9.8,7.5-28.5s18.2-8.5,18.2-8.5s8.8,9.5-1.2,23.8S411.5,169.4,411.5,169.4z M332.8,182.9
		c-11.8,30.8-40.2,18.2-40.2,18.2s-3.2-11,6-41.8s31-18.8,31-18.8S344.5,152.1,332.8,182.9z M311.5,54.1c0,0,17.8-46.2,22-23.8
		s-37.2,89.5-37.2,89.5C296.8,104.9,311.5,54.1,311.5,54.1z M57.8,169.4c0.8-29.8,20.3-42.7,27-36.2c6.8,6.5,4.2,20.5-8.5,29.2
		S57.8,169.4,57.8,169.4z M595.5,164.5c-1-10-10-6.3-10-6.3s-14.5,11.2-27.2,10s-8.8-29.8-8.8-29.8s2.8-26.1-4.8-28.3
		c-7.5-2.2-16.8,6.8-16.8,6.8s-11.5,12.7-17,29l-1.5,0.5c0,0,1.8-28.5-0.2-35c-1.5-3.2-15.2-3-17.5,2.8s-13.2,45.7-14,62.5
		c0,0-21.5,18.2-40.2,21.2s-23.2-8.8-23.2-8.8s51-14.2,49.2-55s-41.1-25.7-45.6-22.3c-4.3,3.2-27.3,17.1-34,55.6
		c-0.2,1.3-0.6,7-0.6,7s-19.8,13.2-30.8,16.8c0,0,30.8-51.8-6.8-75.2c-17-10.2-30.5,11.2-30.5,11.2S366,70.6,354.8,22.9
		C349.4,0.2,338-2.3,327.6,1.4c-15.8,6.2-21.8,15.5-21.8,15.5s-20.5,29.8-25.2,74s-11.8,97.7-11.8,97.7s-9.8,9.5-18.8,10
		s-5-26.8-5-26.8s7-41.5,6.5-48.5c-0.5-7-1-10.8-9.2-13.2s-17.2,8-17.2,8s-23.8,36-25.8,41.5l-1.2,2.2l-1.2-1.5
		c0,0,16.8-49,0.8-49.7S171,128.1,171,128.1s-18.2,30.5-19,34l-1.2-1.5c0,0,7.5-35.5,6-44.2s-9.8-7-9.8-7s-10.5-1.2-13.2,5.5
		s-12.7,51.5-14,65.7c0,0-26.2,18.8-43.5,19s-15.5-10.9-15.5-10.9s63.3-21.7,46-64.4c-7.8-11-16.8-14.5-29.5-14.2s-28.6,8-38.8,31
		c-4.9,11-6.7,21.4-7.7,29.3c0,0-11.1,2.3-17.1-2.7s-9.1,0-9.1,0s-10.3,13.1,0,17.1s26.2,5.9,26.2,5.9h0c1.5,7,5.7,18.9,18.2,28.4
		c18.7,14.2,54.7-1.3,54.7-1.3l14.8-8.3c0,0,0.5,13.5,11.2,15.5c10.8,2,15.2,0,34-45.5c11-23.2,11.8-22,11.8-22l1.2-0.2
		c0,0-8.5,44.5-5.2,56.5s17.5,10.8,17.5,10.8s7.8,1.5,14-20.5s18.2-46.2,18.2-46.2h1.5c0,0-5.2,45.5,2.8,60s28.8,4.9,28.8,4.9
		s14.5-7.3,16.8-9.6c0,0,17.2,14.6,41.5,12c54.3-10.7,73.6-25.1,73.6-25.1s9.3,23.6,38.2,25.8c33,2.5,51-18.3,51-18.3
		s-0.2,13.5,11.2,18.2s19.2-21.9,19.2-21.9l19.2-53.1h1.8c0,0,1,34.5,20,40s43.8-12.9,43.8-12.9S596.5,174.5,595.5,164.5z"/>
</g>
</svg>
