<svg xmlns="http://www.w3.org/2000/svg" xmlns:xlink="http://www.w3.org/1999/xlink" width="198.13" height="197.58" viewBox="0 0 198.13 197.58" overflow="visible"><defs><linearGradient id="a" gradientUnits="userSpaceOnUse" x1="174.074" y1="215.549" x2="132.276" y2="141.753"><stop offset="0" stop-color="#FB7655"/><stop offset="0" stop-color="#FB7655"/><stop offset=".41" stop-color="#E42B1E"/><stop offset=".99" stop-color="#900"/><stop offset="1" stop-color="#900"/></linearGradient><linearGradient id="c" gradientUnits="userSpaceOnUse" x1="194.895" y1="153.558" x2="141.028" y2="117.409"><stop offset="0" stop-color="#871101"/><stop offset="0" stop-color="#871101"/><stop offset=".99" stop-color="#911209"/><stop offset="1" stop-color="#911209"/></linearGradient><linearGradient id="d" gradientUnits="userSpaceOnUse" x1="151.795" y1="217.785" x2="97.93" y2="181.638"><stop offset="0" stop-color="#871101"/><stop offset="0" stop-color="#871101"/><stop offset=".99" stop-color="#911209"/><stop offset="1" stop-color="#911209"/></linearGradient><linearGradient id="e" gradientUnits="userSpaceOnUse" x1="38.696" y1="127.391" x2="47.047" y2="181.661"><stop offset="0" stop-color="#fff"/><stop offset="0" stop-color="#fff"/><stop offset=".23" stop-color="#E57252"/><stop offset=".46" stop-color="#DE3B20"/><stop offset=".99" stop-color="#A60003"/><stop offset="1" stop-color="#A60003"/></linearGradient><linearGradient id="f" gradientUnits="userSpaceOnUse" x1="96.133" y1="76.715" x2="99.21" y2="132.102"><stop offset="0" stop-color="#fff"/><stop offset="0" stop-color="#fff"/><stop offset=".23" stop-color="#E4714E"/><stop offset=".56" stop-color="#BE1A0D"/><stop offset=".99" stop-color="#A80D00"/><stop offset="1" stop-color="#A80D00"/></linearGradient><linearGradient id="g" gradientUnits="userSpaceOnUse" x1="147.103" y1="25.521" x2="156.314" y2="65.216"><stop offset="0" stop-color="#fff"/><stop offset="0" stop-color="#fff"/><stop offset=".18" stop-color="#E46342"/><stop offset=".4" stop-color="#C82410"/><stop offset=".99" stop-color="#A80D00"/><stop offset="1" stop-color="#A80D00"/></linearGradient><linearGradient id="h" gradientUnits="userSpaceOnUse" x1="118.976" y1="11.541" x2="158.669" y2="-8.305"><stop offset="0" stop-color="#fff"/><stop offset="0" stop-color="#fff"/><stop offset=".54" stop-color="#C81F11"/><stop offset=".99" stop-color="#BF0905"/><stop offset="1" stop-color="#BF0905"/></linearGradient><linearGradient id="i" gradientUnits="userSpaceOnUse" x1="3.903" y1="113.555" x2="7.17" y2="146.263"><stop offset="0" stop-color="#fff"/><stop offset="0" stop-color="#fff"/><stop offset=".31" stop-color="#DE4024"/><stop offset=".99" stop-color="#BF190B"/><stop offset="1" stop-color="#BF190B"/></linearGradient><linearGradient id="j" gradientUnits="userSpaceOnUse" x1="-18.556" y1="155.105" x2="135.015" y2="-2.809"><stop offset="0" stop-color="#BD0012"/><stop offset="0" stop-color="#BD0012"/><stop offset=".07" stop-color="#fff"/><stop offset=".17" stop-color="#fff"/><stop offset=".27" stop-color="#C82F1C"/><stop offset=".33" stop-color="#820C01"/><stop offset=".46" stop-color="#A31601"/><stop offset=".72" stop-color="#B31301"/><stop offset=".99" stop-color="#E82609"/><stop offset="1" stop-color="#E82609"/></linearGradient><linearGradient id="k" gradientUnits="userSpaceOnUse" x1="99.075" y1="171.033" x2="52.818" y2="159.617"><stop offset="0" stop-color="#8C0C01"/><stop offset="0" stop-color="#8C0C01"/><stop offset=".54" stop-color="#990C00"/><stop offset=".99" stop-color="#A80D0E"/><stop offset="1" stop-color="#A80D0E"/></linearGradient><linearGradient id="l" gradientUnits="userSpaceOnUse" x1="178.526" y1="115.515" x2="137.433" y2="78.684"><stop offset="0" stop-color="#7E110B"/><stop offset="0" stop-color="#7E110B"/><stop offset=".99" stop-color="#9E0C00"/><stop offset="1" stop-color="#9E0C00"/></linearGradient><linearGradient id="m" gradientUnits="userSpaceOnUse" x1="193.624" y1="47.937" x2="173.154" y2="26.054"><stop offset="0" stop-color="#79130D"/><stop offset="0" stop-color="#79130D"/><stop offset=".99" stop-color="#9E120B"/><stop offset="1" stop-color="#9E120B"/></linearGradient><radialGradient id="n" cx="143.832" cy="79.388" r="50.358" gradientUnits="userSpaceOnUse"><stop offset="0" stop-color="#A80D00"/><stop offset="0" stop-color="#A80D00"/><stop offset=".99" stop-color="#7E0E08"/><stop offset="1" stop-color="#7E0E08"/></radialGradient><radialGradient id="o" cx="74.092" cy="145.751" r="66.944" gradientUnits="userSpaceOnUse"><stop offset="0" stop-color="#A30C00"/><stop offset="0" stop-color="#A30C00"/><stop offset=".99" stop-color="#800E08"/><stop offset="1" stop-color="#800E08"/></radialGradient><linearGradient id="p" gradientUnits="userSpaceOnUse" x1="26.67" y1="197.336" x2="9.989" y2="140.742"><stop offset="0" stop-color="#8B2114"/><stop offset="0" stop-color="#8B2114"/><stop offset=".43" stop-color="#9E100A"/><stop offset=".99" stop-color="#B3100C"/><stop offset="1" stop-color="#B3100C"/></linearGradient><linearGradient id="q" gradientUnits="userSpaceOnUse" x1="154.641" y1="9.798" x2="192.039" y2="26.306"><stop offset="0" stop-color="#B31000"/><stop offset="0" stop-color="#B31000"/><stop offset=".44" stop-color="#910F08"/><stop offset=".99" stop-color="#791C12"/><stop offset="1" stop-color="#791C12"/></linearGradient><linearGradient y2="141.753" x2="132.276" y1="215.549" x1="174.074" gradientUnits="userSpaceOnUse" id="b" xlink:href="#a"/></defs><linearGradient gradientUnits="userSpaceOnUse" x1="174.074" y1="215.549" x2="132.276" y2="141.753"><stop offset="0" stop-color="#FB7655"/><stop offset="0" stop-color="#FB7655"/><stop offset=".41" stop-color="#E42B1E"/><stop offset=".99" stop-color="#900"/><stop offset="1" stop-color="#900"/></linearGradient><linearGradient gradientUnits="userSpaceOnUse" x1="194.895" y1="153.558" x2="141.028" y2="117.409"><stop offset="0" stop-color="#871101"/><stop offset="0" stop-color="#871101"/><stop offset=".99" stop-color="#911209"/><stop offset="1" stop-color="#911209"/></linearGradient><linearGradient gradientUnits="userSpaceOnUse" x1="151.795" y1="217.785" x2="97.93" y2="181.638"><stop offset="0" stop-color="#871101"/><stop offset="0" stop-color="#871101"/><stop offset=".99" stop-color="#911209"/><stop offset="1" stop-color="#911209"/></linearGradient><linearGradient gradientUnits="userSpaceOnUse" x1="38.696" y1="127.391" x2="47.047" y2="181.661"><stop offset="0" stop-color="#fff"/><stop offset="0" stop-color="#fff"/><stop offset=".23" stop-color="#E57252"/><stop offset=".46" stop-color="#DE3B20"/><stop offset=".99" stop-color="#A60003"/><stop offset="1" stop-color="#A60003"/></linearGradient><linearGradient gradientUnits="userSpaceOnUse" x1="96.133" y1="76.715" x2="99.21" y2="132.102"><stop offset="0" stop-color="#fff"/><stop offset="0" stop-color="#fff"/><stop offset=".23" stop-color="#E4714E"/><stop offset=".56" stop-color="#BE1A0D"/><stop offset=".99" stop-color="#A80D00"/><stop offset="1" stop-color="#A80D00"/></linearGradient><linearGradient gradientUnits="userSpaceOnUse" x1="147.103" y1="25.521" x2="156.314" y2="65.216"><stop offset="0" stop-color="#fff"/><stop offset="0" stop-color="#fff"/><stop offset=".18" stop-color="#E46342"/><stop offset=".4" stop-color="#C82410"/><stop offset=".99" stop-color="#A80D00"/><stop offset="1" stop-color="#A80D00"/></linearGradient><linearGradient gradientUnits="userSpaceOnUse" x1="118.976" y1="11.541" x2="158.669" y2="-8.305"><stop offset="0" stop-color="#fff"/><stop offset="0" stop-color="#fff"/><stop offset=".54" stop-color="#C81F11"/><stop offset=".99" stop-color="#BF0905"/><stop offset="1" stop-color="#BF0905"/></linearGradient><linearGradient gradientUnits="userSpaceOnUse" x1="3.903" y1="113.555" x2="7.17" y2="146.263"><stop offset="0" stop-color="#fff"/><stop offset="0" stop-color="#fff"/><stop offset=".31" stop-color="#DE4024"/><stop offset=".99" stop-color="#BF190B"/><stop offset="1" stop-color="#BF190B"/></linearGradient><linearGradient gradientUnits="userSpaceOnUse" x1="-18.556" y1="155.105" x2="135.015" y2="-2.809"><stop offset="0" stop-color="#BD0012"/><stop offset="0" stop-color="#BD0012"/><stop offset=".07" stop-color="#fff"/><stop offset=".17" stop-color="#fff"/><stop offset=".27" stop-color="#C82F1C"/><stop offset=".33" stop-color="#820C01"/><stop offset=".46" stop-color="#A31601"/><stop offset=".72" stop-color="#B31301"/><stop offset=".99" stop-color="#E82609"/><stop offset="1" stop-color="#E82609"/></linearGradient><linearGradient gradientUnits="userSpaceOnUse" x1="99.075" y1="171.033" x2="52.818" y2="159.617"><stop offset="0" stop-color="#8C0C01"/><stop offset="0" stop-color="#8C0C01"/><stop offset=".54" stop-color="#990C00"/><stop offset=".99" stop-color="#A80D0E"/><stop offset="1" stop-color="#A80D0E"/></linearGradient><linearGradient gradientUnits="userSpaceOnUse" x1="178.526" y1="115.515" x2="137.433" y2="78.684"><stop offset="0" stop-color="#7E110B"/><stop offset="0" stop-color="#7E110B"/><stop offset=".99" stop-color="#9E0C00"/><stop offset="1" stop-color="#9E0C00"/></linearGradient><linearGradient gradientUnits="userSpaceOnUse" x1="193.624" y1="47.937" x2="173.154" y2="26.054"><stop offset="0" stop-color="#79130D"/><stop offset="0" stop-color="#79130D"/><stop offset=".99" stop-color="#9E120B"/><stop offset="1" stop-color="#9E120B"/></linearGradient><radialGradient cx="143.832" cy="79.388" r="50.358" gradientUnits="userSpaceOnUse"><stop offset="0" stop-color="#A80D00"/><stop offset="0" stop-color="#A80D00"/><stop offset=".99" stop-color="#7E0E08"/><stop offset="1" stop-color="#7E0E08"/></radialGradient><radialGradient cx="74.092" cy="145.751" r="66.944" gradientUnits="userSpaceOnUse"><stop offset="0" stop-color="#A30C00"/><stop offset="0" stop-color="#A30C00"/><stop offset=".99" stop-color="#800E08"/><stop offset="1" stop-color="#800E08"/></radialGradient><linearGradient gradientUnits="userSpaceOnUse" x1="26.67" y1="197.336" x2="9.989" y2="140.742"><stop offset="0" stop-color="#8B2114"/><stop offset="0" stop-color="#8B2114"/><stop offset=".43" stop-color="#9E100A"/><stop offset=".99" stop-color="#B3100C"/><stop offset="1" stop-color="#B3100C"/></linearGradient><linearGradient gradientUnits="userSpaceOnUse" x1="154.641" y1="9.798" x2="192.039" y2="26.306"><stop offset="0" stop-color="#B31000"/><stop offset="0" stop-color="#B31000"/><stop offset=".44" stop-color="#910F08"/><stop offset=".99" stop-color="#791C12"/><stop offset="1" stop-color="#791C12"/></linearGradient><path clip-rule="evenodd" fill="url(#b)" fill-rule="evenodd" d="M153.5 130.41l-113.12 67.17 146.469-9.939 11.281-147.691z"/><path clip-rule="evenodd" fill="url(#c)" fill-rule="evenodd" d="M187.089 187.54l-12.589-86.89-34.291 45.28z"/><path clip-rule="evenodd" fill="url(#d)" fill-rule="evenodd" d="M187.259 187.54l-92.229-7.24-54.16 17.091z"/><path clip-rule="evenodd" fill="url(#e)" fill-rule="evenodd" d="M41 197.41l23.04-75.48-50.7 10.841z"/><path clip-rule="evenodd" fill="url(#f)" fill-rule="evenodd" d="M140.2 146.18l-21.2-83.04-60.67 56.87z"/><path clip-rule="evenodd" fill="url(#g)" fill-rule="evenodd" d="M193.32 64.31l-57.35-46.84-15.97 51.63z"/><path clip-rule="evenodd" fill="url(#h)" fill-rule="evenodd" d="M166.5.77l-33.73 18.64-21.28-18.89z"/><path clip-rule="evenodd" fill="url(#i)" fill-rule="evenodd" d="M0 158.09l14.13-25.77-11.43-30.7z"/><path clip-rule="evenodd" d="M1.94 100.65l11.5 32.62 49.97-11.211 57.05-53.02 16.1-51.139-25.351-17.9-43.1 16.13c-13.579 12.63-39.929 37.62-40.879 38.09-.94.48-17.4 31.59-25.29 46.43z" fill="#fff" fill-rule="evenodd"/><path clip-rule="evenodd" d="M42.32 42.05c29.43-29.18 67.37-46.42 81.93-31.73 14.551 14.69-.88 50.39-30.31 79.56s-66.9 47.36-81.45 32.67c-14.56-14.68.4-51.33 29.83-80.5z" fill="url(#j)" fill-rule="evenodd"/><path clip-rule="evenodd" d="M41 197.38l22.86-75.72 75.92 24.39c-27.45 25.74-57.98 47.5-98.78 51.33z" fill="url(#k)" fill-rule="evenodd"/><path clip-rule="evenodd" d="M120.56 68.89l19.49 77.2c22.93-24.11 43.51-50.03 53.589-82.09l-73.079 4.89z" fill="url(#l)" fill-rule="evenodd"/><path clip-rule="evenodd" d="M193.44 64.39c7.8-23.54 9.6-57.31-27.181-63.58l-30.18 16.67 57.361 46.91z" fill="url(#m)" fill-rule="evenodd"/><path clip-rule="evenodd" d="M0 157.75c1.08 38.851 29.11 39.43 41.05 39.771l-27.58-64.411-13.47 24.64z" fill="#9e1209" fill-rule="evenodd"/><path clip-rule="evenodd" d="M120.669 69.01c17.62 10.83 53.131 32.58 53.851 32.98 1.119.63 15.31-23.93 18.53-37.81l-72.381 4.83z" fill="url(#n)" fill-rule="evenodd"/><path clip-rule="evenodd" d="M63.83 121.66l30.56 58.96c18.07-9.8 32.22-21.74 45.18-34.53l-75.74-24.43z" fill="url(#o)" fill-rule="evenodd"/><path clip-rule="evenodd" d="M13.35 133.19l-4.33 51.56c8.17 11.16 19.41 12.13 31.2 11.26-8.53-21.23-25.57-63.68-26.87-62.82z" fill="url(#p)" fill-rule="evenodd"/><path clip-rule="evenodd" d="M135.9 17.61l60.71 8.52c-3.24-13.73-13.19-22.59-30.15-25.36l-30.56 16.84z" fill="url(#q)" fill-rule="evenodd"/></svg>
