<svg width="256" height="256" viewBox="0 0 256 256" xmlns="http://www.w3.org/2000/svg" xmlns:xlink="http://www.w3.org/1999/xlink" xmlns:sketch="http://www.bohemiancoding.com/sketch/ns"><title>Swift</title><desc>Created with Sketch.</desc><defs><linearGradient x1="50%" y1="0%" x2="50%" y2="100%" id="a"><stop stop-color="#FBAE3D" offset="0%"/><stop stop-color="#FF291A" offset="100%"/></linearGradient><rect id="b" width="256" height="256" rx="60"/><radialGradient cx="33.884%" cy="32.273%" fx="33.884%" fy="32.273%" r="65.279%" id="c"><stop stop-color="#FBA73E" offset="0%"/><stop stop-color="#E97532" offset="44.405%"/><stop stop-color="#A23314" offset="100%"/></radialGradient></defs><g sketch:type="MSLayerGroup" fill="none"><rect fill="url(#a)" sketch:type="MSShapeGroup" width="256" height="256" rx="60"/><mask id="d" sketch:name="Shadow Mask"><use xlink:href="#b"/></mask><use sketch:type="MSShapeGroup" xlink:href="#b" fill="none"/><path d="M-74.83 49.759l105.474-125.223 114.958 112.58s76.191 44.461 57.64 120.682c0 0-3.532 20.335-13.288 34.046-16.729 1.759-29.356 16.157-58.269 16.157-28.912 0-70.228-8.787-104.782-60.707l-101.732-97.535z" opacity=".339" fill="url(#c)" sketch:type="MSShapeGroup" mask="url(#d)"/><path d="M145.405 37.5s76.191 44.461 57.64 120.682c0 0 23.112 29.687 13.53 51.241 0 0-9.128-18.622-26.818-17.195-16.729 1.759-29.356 16.157-58.269 16.157-28.912 0-70.228-8.787-104.782-60.707 0 0 56.22 43.813 108.588 12.603 0 0-36.97-25.246-89.989-97.079 0 0 63.365 52.609 77.406 57.761 0 0-40.298-41.572-54.134-67.657 0 0 54.088 52.062 93.896 75.488 0 0 17.604-41.303-17.069-91.294z" fill="#fff" sketch:type="MSShapeGroup"/></g></svg>
