<?xml version="1.0" encoding="UTF-8"?>
<svg width="1440px" height="914px" viewBox="0 0 1440 914" version="1.1" xmlns="http://www.w3.org/2000/svg" xmlns:xlink="http://www.w3.org/1999/xlink">
    <!-- Generator: Sketch 43 (38999) - http://www.bohemiancoding.com/sketch -->
    <title>Polygons background Copy</title>
    <desc>Created with Sketch.</desc>
    <defs></defs>
    <g id="Page-1" stroke="none" stroke-width="1" fill="none" fill-rule="evenodd">
        <g id="Landing-page" transform="translate(0.000000, -2.000000)">
            <g id="Header-Copy" transform="translate(0.000000, 2.000000)">
                <g id="Polygons-background-Copy" transform="translate(-58.000000, -10.000000)">
                    <polygon id="Polygon" fill="#3871D0" transform="translate(435.301270, 945.301270) rotate(-30.000000) translate(-435.301270, -945.301270) " points="435.30127 897.30127 476.87049 921.30127 476.87049 969.30127 435.30127 993.30127 393.732051 969.30127 393.732051 921.30127"></polygon>
                    <polygon id="Polygon-Copy" fill="#3859D0" transform="translate(435.568730, 858.698730) rotate(-30.000000) translate(-435.568730, -858.698730) " points="435.56873 810.69873 477.13795 834.69873 477.13795 882.69873 435.56873 906.69873 393.999511 882.69873 394.190698 834.368523"></polygon>
                    <polygon id="Polygon-Copy-137" fill="#284AC3" transform="translate(510.000000, 816.353829) rotate(-30.000000) translate(-510.000000, -816.353829) " points="510 768.353829 551.569219 792.353829 551.569219 840.353829 510 864.353829 468.430781 840.353829 468.621968 792.023622"></polygon>
                    <polygon id="Polygon-Copy-27" fill="#3859D0" transform="translate(510.767949, 987.951905) rotate(-30.000000) translate(-510.767949, -987.951905) " points="510.767949 939.951905 552.337169 963.951905 552.337169 1011.95191 510.767949 1035.95191 469.19873 1011.95191 469.389917 963.621698"></polygon>
                    <polygon id="Polygon-Copy-3" fill="#3838D0" transform="translate(360.767949, 815.951905) rotate(-30.000000) translate(-360.767949, -815.951905) " points="360.767949 767.951905 402.337169 791.951905 402.337169 839.951905 360.767949 863.951905 319.19873 839.951905 319.389917 791.621698"></polygon>
                    <polygon id="Polygon-Copy-4" fill="#3A35A7" transform="translate(435.767949, 772.951905) rotate(-30.000000) translate(-435.767949, -772.951905) " points="435.767949 724.951905 477.337169 748.951905 477.337169 796.951905 435.767949 820.951905 394.19873 796.951905 394.389917 748.621698"></polygon>
                    <polygon id="Polygon-Copy-136" fill="#4641B8" transform="translate(511.000000, 730.353829) rotate(-30.000000) translate(-511.000000, -730.353829) " points="511 682.353829 552.569219 706.353829 552.569219 754.353829 511 778.353829 469.430781 754.353829 469.621968 706.023622"></polygon>
                    <polygon id="Polygon-Copy-139" fill="#3833AC" transform="translate(585.738003, 773.353829) rotate(-30.000000) translate(-585.738003, -773.353829) " points="585.738003 725.353829 627.307222 749.353829 627.307222 797.353829 585.738003 821.353829 544.168784 797.353829 544.359971 749.023622"></polygon>
                    <polygon id="Polygon-Copy-5" fill="#39249C" transform="translate(360.767949, 729.951905) rotate(-30.000000) translate(-360.767949, -729.951905) " points="360.767949 681.951905 402.337169 705.951905 402.337169 753.951905 360.767949 777.951905 319.19873 753.951905 319.389917 705.621698"></polygon>
                    <polygon id="Polygon-Copy-2" fill="#3881D0" transform="translate(360.767949, 901.951905) rotate(-30.000000) translate(-360.767949, -901.951905) " points="360.767949 853.951905 402.337169 877.951905 402.337169 925.951905 360.767949 949.951905 319.19873 925.951905 319.389917 877.621698"></polygon>
                    <polygon id="Polygon-Copy-12" fill="#38AFD0" transform="translate(360.767949, 987.951905) rotate(-30.000000) translate(-360.767949, -987.951905) " points="360.767949 939.951905 402.337169 963.951905 402.337169 1011.95191 360.767949 1035.95191 319.19873 1011.95191 319.389917 963.621698"></polygon>
                    <polygon id="Polygon-Copy-6" fill="#388ED0" transform="translate(285.767949, 858.951905) rotate(-30.000000) translate(-285.767949, -858.951905) " points="285.767949 810.951905 327.337169 834.951905 327.337169 882.951905 285.767949 906.951905 244.19873 882.951905 244.389917 834.621698"></polygon>
                    <polygon id="Polygon-Copy-8" fill="#3860D0" transform="translate(285.767949, 772.951905) rotate(-30.000000) translate(-285.767949, -772.951905) " points="285.767949 724.951905 327.337169 748.951905 327.337169 796.951905 285.767949 820.951905 244.19873 796.951905 244.389917 748.621698"></polygon>
                    <polygon id="Polygon-Copy-15" fill="#005EC6" transform="translate(212.084392, 815.500000) rotate(-30.000000) translate(-212.084392, -815.500000) " points="212.084392 786.632487 237.084392 801.066243 237.084392 829.933757 212.084392 844.367513 187.084392 829.933757 187.199373 800.867655"></polygon>
                    <polygon id="Polygon-Copy-53" fill="#005EC6" transform="translate(1409.084392, 816.500000) rotate(-30.000000) translate(-1409.084392, -816.500000) " points="1409.08439 787.632487 1434.08439 802.066243 1434.08439 830.933757 1409.08439 845.367513 1384.08439 830.933757 1384.19937 801.867655"></polygon>
                    <polygon id="Polygon-Copy-54" fill="#723BD9" transform="translate(1259.084392, 554.500000) rotate(-30.000000) translate(-1259.084392, -554.500000) " points="1259.08439 525.632487 1284.08439 540.066243 1284.08439 568.933757 1259.08439 583.367513 1234.08439 568.933757 1234.19937 539.867655"></polygon>
                    <polygon id="Polygon-Copy-17" fill="#005EC6" transform="translate(212.084392, 643.500000) rotate(-30.000000) translate(-212.084392, -643.500000) " points="212.084392 614.632487 237.084392 629.066243 237.084392 657.933757 212.084392 672.367513 187.084392 657.933757 187.199373 628.867655"></polygon>
                    <polygon id="Polygon-Copy-80" fill="#2C3F53" transform="translate(845.084392, 37.500000) rotate(-30.000000) translate(-845.084392, -37.500000) " points="845.084392 8.63248654 870.084392 23.0662433 870.084392 51.9337567 845.084392 66.3675135 820.084392 51.9337567 820.199373 22.8676546"></polygon>
                    <polygon id="Polygon-Copy-24" fill="#5200AC" transform="translate(285.084392, 517.500000) rotate(-30.000000) translate(-285.084392, -517.500000) " points="285.084392 488.632487 310.084392 503.066243 310.084392 531.933757 285.084392 546.367513 260.084392 531.933757 260.199373 502.867655"></polygon>
                    <polygon id="Polygon-Copy-25" fill="#5200AC" transform="translate(510.084392, 554.500000) rotate(-30.000000) translate(-510.084392, -554.500000) " points="510.084392 525.632487 535.084392 540.066243 535.084392 568.933757 510.084392 583.367513 485.084392 568.933757 485.199373 539.867655"></polygon>
                    <polygon id="Polygon-Copy-16" fill="#0D64C3" transform="translate(166.042196, 839.750000) rotate(-30.000000) translate(-166.042196, -839.750000) " points="166.042196 825.316243 178.542196 832.533122 178.542196 846.966878 166.042196 854.183757 153.542196 846.966878 153.599687 832.433827"></polygon>
                    <polygon id="Polygon-Copy-60" fill="#652CD0" transform="translate(959.042196, 561.750000) rotate(-30.000000) translate(-959.042196, -561.750000) " points="959.042196 547.316243 971.542196 554.533122 971.542196 568.966878 959.042196 576.183757 946.542196 568.966878 946.599687 554.433827"></polygon>
                    <polygon id="Polygon-Copy-42" fill="#5196E2" transform="translate(405.042196, 324.750000) rotate(-30.000000) translate(-405.042196, -324.750000) " points="405.042196 310.316243 417.542196 317.533122 417.542196 331.966878 405.042196 339.183757 392.542196 331.966878 392.599687 317.433827"></polygon>
                    <polygon id="Polygon-Copy-61" fill="#5196E2" transform="translate(1391.042196, 438.750000) rotate(-30.000000) translate(-1391.042196, -438.750000) " points="1391.0422 424.316243 1403.5422 431.533122 1403.5422 445.966878 1391.0422 453.183757 1378.5422 445.966878 1378.59969 431.433827"></polygon>
                    <polygon id="Polygon-Copy-69" fill="#652CD0" transform="translate(1408.042196, 643.750000) rotate(-30.000000) translate(-1408.042196, -643.750000) " points="1408.0422 629.316243 1420.5422 636.533122 1420.5422 650.966878 1408.0422 658.183757 1395.5422 650.966878 1395.59969 636.433827"></polygon>
                    <polygon id="Polygon-Copy-65" fill="#212E3C" transform="translate(1092.042196, 55.750000) rotate(-30.000000) translate(-1092.042196, -55.750000) " points="1092.0422 41.3162433 1104.5422 48.5331216 1104.5422 62.9668784 1092.0422 70.1837567 1079.5422 62.9668784 1079.59969 48.4338273"></polygon>
                    <polygon id="Polygon-Copy-43" fill="#1D80EC" transform="translate(196.542196, 242.399147) rotate(-30.000000) translate(-196.542196, -242.399147) " points="196.542196 234.316243 203.542196 238.357695 203.542196 246.440599 196.542196 250.482051 189.542196 246.440599 189.574391 238.30209"></polygon>
                    <polygon id="Polygon-Copy-71" fill="#37217E" transform="translate(138.103630, 532.500000) rotate(-30.000000) translate(-138.103630, -532.500000) " points="138.10363 524.417096 145.10363 528.458548 145.10363 536.541452 138.10363 540.582904 131.10363 536.541452 131.135824 528.402943"></polygon>
                    <polygon id="Polygon-Copy-62" fill="#1D80EC" transform="translate(1097.103630, 393.500000) rotate(-30.000000) translate(-1097.103630, -393.500000) " points="1097.10363 385.417096 1104.10363 389.458548 1104.10363 397.541452 1097.10363 401.582904 1090.10363 397.541452 1090.13582 389.402943"></polygon>
                    <polygon id="Polygon-Copy-70" fill="#1D80EC" transform="translate(1455.103630, 306.500000) rotate(-30.000000) translate(-1455.103630, -306.500000) " points="1455.10363 298.417096 1462.10363 302.458548 1462.10363 310.541452 1455.10363 314.582904 1448.10363 310.541452 1448.13582 302.402943"></polygon>
                    <polygon id="Polygon-Copy-44" fill="#1D80EC" transform="translate(556.216878, 266.500000) rotate(-30.000000) translate(-556.216878, -266.500000) " points="556.216878 260.726497 561.216878 263.613249 561.216878 269.386751 556.216878 272.273503 551.216878 269.386751 551.239875 263.573531"></polygon>
                    <polygon id="Polygon-Copy-64" fill="#1D80EC" transform="translate(1288.216878, 245.500000) rotate(-30.000000) translate(-1288.216878, -245.500000) " points="1288.21688 239.726497 1293.21688 242.613249 1293.21688 248.386751 1288.21688 251.273503 1283.21688 248.386751 1283.23987 242.573531"></polygon>
                    <polygon id="Polygon-Copy-63" fill="#1D80EC" transform="translate(1055.216878, 524.500000) rotate(-30.000000) translate(-1055.216878, -524.500000) " points="1055.21688 518.726497 1060.21688 521.613249 1060.21688 527.386751 1055.21688 530.273503 1050.21688 527.386751 1050.23987 521.573531"></polygon>
                    <polygon id="Polygon-Copy-68" fill="#1D80EC" transform="translate(904.216878, 173.500000) rotate(-30.000000) translate(-904.216878, -173.500000) " points="904.216878 167.726497 909.216878 170.613249 909.216878 176.386751 904.216878 179.273503 899.216878 176.386751 899.239875 170.573531"></polygon>
                    <polygon id="Polygon-Copy-11" fill="#2E55C3" transform="translate(210.767949, 729.951905) rotate(-30.000000) translate(-210.767949, -729.951905) " points="210.767949 681.951905 252.337169 705.951905 252.337169 753.951905 210.767949 777.951905 169.19873 753.951905 169.389917 705.621698"></polygon>
                    <polygon id="Polygon-Copy-9" fill="#481FBA" transform="translate(285.767949, 686.951905) rotate(-30.000000) translate(-285.767949, -686.951905) " points="285.767949 638.951905 327.337169 662.951905 327.337169 710.951905 285.767949 734.951905 244.19873 710.951905 244.389917 662.621698"></polygon>
                    <polygon id="Polygon-Copy-13" fill="#5C2CB6" transform="translate(360.767949, 643.951905) rotate(-30.000000) translate(-360.767949, -643.951905) " points="360.767949 595.951905 402.337169 619.951905 402.337169 667.951905 360.767949 691.951905 319.19873 667.951905 319.389917 619.621698"></polygon>
                    <polygon id="Polygon-Copy-18" fill="#652CD0" opacity="0.5" transform="translate(435.767949, 600.951905) rotate(-30.000000) translate(-435.767949, -600.951905) " points="435.767949 552.951905 477.337169 576.951905 477.337169 624.951905 435.767949 648.951905 394.19873 624.951905 394.389917 576.621698"></polygon>
                    <polygon id="Polygon-Copy-22" fill="#5517CA" transform="translate(510.767949, 643.951905) rotate(-30.000000) translate(-510.767949, -643.951905) " points="510.767949 595.951905 552.337169 619.951905 552.337169 667.951905 510.767949 691.951905 469.19873 667.951905 469.389917 619.621698"></polygon>
                    <polygon id="Polygon-Copy-23" fill="#4810AF" transform="translate(585.767949, 686.951905) rotate(-30.000000) translate(-585.767949, -686.951905) " points="585.767949 638.951905 627.337169 662.951905 627.337169 710.951905 585.767949 734.951905 544.19873 710.951905 544.389917 662.621698"></polygon>
                    <polygon id="Polygon-Copy-141" fill="#4810AF" transform="translate(660.000000, 730.353829) rotate(-30.000000) translate(-660.000000, -730.353829) " points="660 682.353829 701.569219 706.353829 701.569219 754.353829 660 778.353829 618.430781 754.353829 618.621968 706.023622"></polygon>
                    <polygon id="Polygon-Copy-14" fill="#513090" transform="translate(285.767949, 600.951905) rotate(-30.000000) translate(-285.767949, -600.951905) " points="285.767949 552.951905 327.337169 576.951905 327.337169 624.951905 285.767949 648.951905 244.19873 624.951905 244.389917 576.621698"></polygon>
                    <polygon id="Polygon-Copy-10" fill="#4411A1" transform="translate(435.767949, 686.951905) rotate(-30.000000) translate(-435.767949, -686.951905) " points="435.767949 638.951905 477.337169 662.951905 477.337169 710.951905 435.767949 734.951905 394.19873 710.951905 394.389917 662.621698"></polygon>
                    <polygon id="Polygon-Copy-7" fill="#009CC8" transform="translate(285.767949, 944.951905) rotate(-30.000000) translate(-285.767949, -944.951905) " points="285.767949 896.951905 327.337169 920.951905 327.337169 968.951905 285.767949 992.951905 244.19873 968.951905 244.389917 920.621698"></polygon>
                    <polygon id="Polygon-Copy-19" fill="#05A5B5" transform="translate(210.767949, 901.951905) rotate(-30.000000) translate(-210.767949, -901.951905) " points="210.767949 853.951905 252.337169 877.951905 252.337169 925.951905 210.767949 949.951905 169.19873 925.951905 169.389917 877.621698"></polygon>
                    <polygon id="Polygon-Copy-20" fill="#05B5AD" transform="translate(210.767949, 987.951905) rotate(-30.000000) translate(-210.767949, -987.951905) " points="210.767949 939.951905 252.337169 963.951905 252.337169 1011.95191 210.767949 1035.95191 169.19873 1011.95191 169.389917 963.621698"></polygon>
                    <polygon id="Polygon-Copy-21" fill="#12AA90" transform="translate(135.767949, 944.951905) rotate(-30.000000) translate(-135.767949, -944.951905) " points="135.767949 896.951905 177.337169 920.951905 177.337169 968.951905 135.767949 992.951905 94.1987298 968.951905 94.3899169 920.621698"></polygon>
                    <polygon id="Polygon-Copy-59" fill="#30B69F" transform="translate(60.767949, 901.951905) rotate(-30.000000) translate(-60.767949, -901.951905) " points="60.7679492 853.951905 102.337169 877.951905 102.337169 925.951905 60.7679492 949.951905 19.1987298 925.951905 19.3899169 877.621698"></polygon>
                    <polygon id="Polygon-Copy-66" fill="#1A947E" transform="translate(61.767949, 987.951905) rotate(-30.000000) translate(-61.767949, -987.951905) " points="61.7679492 939.951905 103.337169 963.951905 103.337169 1011.95191 61.7679492 1035.95191 20.1987298 1011.95191 20.3899169 963.621698"></polygon>
                    <polygon id="Polygon" fill="#3871D0" transform="translate(884.539273, 945.301270) rotate(-30.000000) translate(-884.539273, -945.301270) " points="884.539273 897.30127 926.108493 921.30127 926.108493 969.30127 884.539273 993.30127 842.970054 969.30127 842.970054 921.30127"></polygon>
                    <polygon id="Polygon-Copy" fill="#3859D0" transform="translate(884.738003, 858.951905) rotate(-30.000000) translate(-884.738003, -858.951905) " points="884.738003 810.951905 926.307222 834.951905 926.307222 882.951905 884.738003 906.951905 843.168784 882.951905 843.359971 834.621698"></polygon>
                    <polygon id="Polygon-Copy-143" fill="#2F50C8" transform="translate(810.000000, 816.353829) rotate(-30.000000) translate(-810.000000, -816.353829) " points="810 768.353829 851.569219 792.353829 851.569219 840.353829 810 864.353829 768.430781 840.353829 768.621968 792.023622"></polygon>
                    <polygon id="Polygon-Copy-3" fill="#3838D0" transform="translate(1034.569219, 945.000000) rotate(-30.000000) translate(-1034.569219, -945.000000) " points="1034.56922 897 1076.13844 921 1076.13844 969 1034.56922 993 993 969 993.191187 920.669793"></polygon>
                    <polygon id="Polygon-Copy-5" fill="#39249C" transform="translate(1034.569219, 859.000000) rotate(-30.000000) translate(-1034.569219, -859.000000) " points="1034.56922 811 1076.13844 835 1076.13844 883 1034.56922 907 993 883 993.191187 834.669793"></polygon>
                    <polygon id="Polygon-Copy-2" fill="#3881D0" transform="translate(809.738003, 901.951905) rotate(-30.000000) translate(-809.738003, -901.951905) " points="809.738003 853.951905 851.307222 877.951905 851.307222 925.951905 809.738003 949.951905 768.168784 925.951905 768.359971 877.621698"></polygon>
                    <polygon id="Polygon-Copy-12" fill="#388ED0" transform="translate(809.738003, 987.951905) rotate(-30.000000) translate(-809.738003, -987.951905) " points="809.738003 939.951905 851.307222 963.951905 851.307222 1011.95191 809.738003 1035.95191 768.168784 1011.95191 768.359971 963.621698"></polygon>
                    <polygon id="Polygon-Copy-6" fill="#388ED0" transform="translate(734.738003, 858.951905) rotate(-30.000000) translate(-734.738003, -858.951905) " points="734.738003 810.951905 776.307222 834.951905 776.307222 882.951905 734.738003 906.951905 693.168784 882.951905 693.359971 834.621698"></polygon>
                    <polygon id="Polygon-Copy-142" fill="#433DBC" transform="translate(734.767949, 773.353829) rotate(-30.000000) translate(-734.767949, -773.353829) " points="734.767949 725.353829 776.337169 749.353829 776.337169 797.353829 734.767949 821.353829 693.19873 797.353829 693.389917 749.023622"></polygon>
                    <polygon id="Polygon-Copy-144" fill="#4943C8" transform="translate(810.000000, 730.353829) rotate(-30.000000) translate(-810.000000, -730.353829) " points="810 682.353829 851.569219 706.353829 851.569219 754.353829 810 778.353829 768.430781 754.353829 768.621968 706.023622"></polygon>
                    <polygon id="Polygon-Copy-8" fill="#3860D0" transform="translate(959.569219, 902.000000) rotate(-30.000000) translate(-959.569219, -902.000000) " points="959.569219 854 1001.13844 878 1001.13844 926 959.569219 950 918 926 918.191187 877.669793"></polygon>
                    <polygon id="Polygon-Copy-146" fill="#3466F5" transform="translate(960.000000, 988.353829) rotate(-30.000000) translate(-960.000000, -988.353829) " points="960 940.353829 1001.56922 964.353829 1001.56922 1012.35383 960 1036.35383 918.430781 1012.35383 918.621968 964.023622"></polygon>
                    <polygon id="Polygon-Copy-9" fill="#481FBA" transform="translate(959.569219, 816.000000) rotate(-30.000000) translate(-959.569219, -816.000000) " points="959.569219 768 1001.13844 792 1001.13844 840 959.569219 864 918 840 918.191187 791.669793"></polygon>
                    <polygon id="Polygon-Copy-145" fill="#3D1AA0" transform="translate(885.000000, 773.353829) rotate(-30.000000) translate(-885.000000, -773.353829) " points="885 725.353829 926.569219 749.353829 926.569219 797.353829 885 821.353829 843.430781 797.353829 843.621968 749.023622"></polygon>
                    <polygon id="Polygon-Copy-13" fill="#5517C9" transform="translate(1034.569219, 772.951905) rotate(-30.000000) translate(-1034.569219, -772.951905) " points="1034.56922 724.951905 1076.13844 748.951905 1076.13844 796.951905 1034.56922 820.951905 993 796.951905 993.191187 748.621698"></polygon>
                    <polygon id="Polygon-Copy-18" fill="#3A35A7" transform="translate(1109.569219, 731.000000) rotate(-30.000000) translate(-1109.569219, -731.000000) " points="1109.56922 683 1151.13844 707 1151.13844 755 1109.56922 779 1068 755 1068.19119 706.669793"></polygon>
                    <polygon id="Polygon-Copy-33" fill-opacity="0.5" fill="#4412A1" transform="translate(1184.767949, 687.951905) rotate(-30.000000) translate(-1184.767949, -687.951905) " points="1184.76795 639.951905 1226.33717 663.951905 1226.33717 711.951905 1184.76795 735.951905 1143.19873 711.951905 1143.38992 663.621698"></polygon>
                    <polygon id="Polygon-Copy-58" fill="#4412A1" transform="translate(734.767949, 687.951905) rotate(-30.000000) translate(-734.767949, -687.951905) " points="734.767949 639.951905 776.337169 663.951905 776.337169 711.951905 734.767949 735.951905 693.19873 711.951905 693.389917 663.621698"></polygon>
                    <polygon id="Polygon-Copy-38" fill="#5C2CB6" transform="translate(1259.767949, 644.951905) rotate(-30.000000) translate(-1259.767949, -644.951905) " points="1259.76795 596.951905 1301.33717 620.951905 1301.33717 668.951905 1259.76795 692.951905 1218.19873 668.951905 1218.38992 620.621698"></polygon>
                    <polygon id="Polygon-Copy-56" fill="#5326A7" transform="translate(884.767949, 687.951905) rotate(-30.000000) translate(-884.767949, -687.951905) " points="884.767949 639.951905 926.337169 663.951905 926.337169 711.951905 884.767949 735.951905 843.19873 711.951905 843.389917 663.621698"></polygon>
                    <polygon id="Polygon-Copy-35" fill="#39249C" transform="translate(1259.767949, 730.951905) rotate(-30.000000) translate(-1259.767949, -730.951905) " points="1259.76795 682.951905 1301.33717 706.951905 1301.33717 754.951905 1259.76795 778.951905 1218.19873 754.951905 1218.38992 706.621698"></polygon>
                    <polygon id="Polygon-Copy-47" fill="#4820BA" transform="translate(1334.767949, 687.951905) rotate(-30.000000) translate(-1334.767949, -687.951905) " points="1334.76795 639.951905 1376.33717 663.951905 1376.33717 711.951905 1334.76795 735.951905 1293.19873 711.951905 1293.38992 663.621698"></polygon>
                    <polygon id="Polygon-Copy-51" fill="#1F9E88" transform="translate(1409.767949, 902.951905) rotate(-30.000000) translate(-1409.767949, -902.951905) " points="1409.76795 854.951905 1451.33717 878.951905 1451.33717 926.951905 1409.76795 950.951905 1368.19873 926.951905 1368.38992 878.621698"></polygon>
                    <polygon id="Polygon-Copy-52" fill="#05B46F" transform="translate(1409.767949, 988.951905) rotate(-30.000000) translate(-1409.767949, -988.951905) " points="1409.76795 940.951905 1451.33717 964.951905 1451.33717 1012.95191 1409.76795 1036.95191 1368.19873 1012.95191 1368.38992 964.621698"></polygon>
                    <polygon id="Polygon-Copy-67" fill="#0C955F" transform="translate(1484.767949, 945.951905) rotate(-30.000000) translate(-1484.767949, -945.951905) " points="1484.76795 897.951905 1526.33717 921.951905 1526.33717 969.951905 1484.76795 993.951905 1443.19873 969.951905 1443.38992 921.621698"></polygon>
                    <polygon id="Polygon-Copy-48" fill="#513090" transform="translate(1334.767949, 601.951905) rotate(-30.000000) translate(-1334.767949, -601.951905) " points="1334.76795 553.951905 1376.33717 577.951905 1376.33717 625.951905 1334.76795 649.951905 1293.19873 625.951905 1293.38992 577.621698"></polygon>
                    <polygon id="Polygon-Copy-46" fill="#3860D0" transform="translate(1334.767949, 773.951905) rotate(-30.000000) translate(-1334.767949, -773.951905) " points="1334.76795 725.951905 1376.33717 749.951905 1376.33717 797.951905 1334.76795 821.951905 1293.19873 797.951905 1293.38992 749.621698"></polygon>
                    <polygon id="Polygon-Copy-50" fill="#2E55C2" transform="translate(1409.767949, 730.951905) rotate(-30.000000) translate(-1409.767949, -730.951905) " points="1409.76795 682.951905 1451.33717 706.951905 1451.33717 754.951905 1409.76795 778.951905 1368.19873 754.951905 1368.38992 706.621698"></polygon>
                    <polygon id="Polygon-Copy-49" fill="#05A5B4" transform="translate(1334.767949, 859.951905) rotate(-30.000000) translate(-1334.767949, -859.951905) " points="1334.76795 811.951905 1376.33717 835.951905 1376.33717 883.951905 1334.76795 907.951905 1293.19873 883.951905 1293.38992 835.621698"></polygon>
                    <polygon id="Polygon-Copy-29" fill="#5517C9" transform="translate(1109.767949, 644.951905) rotate(-30.000000) translate(-1109.767949, -644.951905) " points="1109.76795 596.951905 1151.33717 620.951905 1151.33717 668.951905 1109.76795 692.951905 1068.19873 668.951905 1068.38992 620.621698"></polygon>
                    <polygon id="Polygon-Copy-55" fill="#5D23CA" transform="translate(959.767949, 644.951905) rotate(-30.000000) translate(-959.767949, -644.951905) " points="959.767949 596.951905 1001.33717 620.951905 1001.33717 668.951905 959.767949 692.951905 918.19873 668.951905 918.389917 620.621698"></polygon>
                    <polygon id="Polygon-Copy-57" fill="#5D23CA" transform="translate(659.250000, 643.475953) rotate(-30.000000) translate(-659.250000, -643.475953) " points="659.25 618.475953 680.900635 630.975953 680.900635 655.975953 659.25 668.475953 637.599365 655.975953 637.698942 630.80397"></polygon>
                    <polygon id="Polygon-Copy-34" fill="#652CD0" opacity="0.5" transform="translate(1184.767949, 601.951905) rotate(-30.000000) translate(-1184.767949, -601.951905) " points="1184.76795 553.951905 1226.33717 577.951905 1226.33717 625.951905 1184.76795 649.951905 1143.19873 625.951905 1143.38992 577.621698"></polygon>
                    <polygon id="Polygon-Copy-14" fill="#4412A1" transform="translate(959.569219, 730.000000) rotate(-30.000000) translate(-959.569219, -730.000000) " points="959.569219 682 1001.13844 706 1001.13844 754 959.569219 778 918 754 918.191187 705.669793"></polygon>
                    <polygon id="Polygon-Copy-28" fill="#4811AF" transform="translate(1034.767949, 687.951905) rotate(-30.000000) translate(-1034.767949, -687.951905) " points="1034.76795 639.951905 1076.33717 663.951905 1076.33717 711.951905 1034.76795 735.951905 993.19873 711.951905 993.389917 663.621698"></polygon>
                    <polygon id="Polygon-Copy-10" fill="#3656CA" transform="translate(1109.569219, 816.000000) rotate(-30.000000) translate(-1109.569219, -816.000000) " points="1109.56922 768 1151.13844 792 1151.13844 840 1109.56922 864 1068 840 1068.19119 791.669793"></polygon>
                    <polygon id="Polygon-Copy-32" fill="#3838D0" transform="translate(1184.767949, 772.951905) rotate(-30.000000) translate(-1184.767949, -772.951905) " points="1184.76795 724.951905 1226.33717 748.951905 1226.33717 796.951905 1184.76795 820.951905 1143.19873 796.951905 1143.38992 748.621698"></polygon>
                    <polygon id="Polygon-Copy-39" fill="#388ED0" transform="translate(1259.767949, 816.951905) rotate(-30.000000) translate(-1259.767949, -816.951905) " points="1259.76795 768.951905 1301.33717 792.951905 1301.33717 840.951905 1259.76795 864.951905 1218.19873 840.951905 1218.38992 792.621698"></polygon>
                    <polygon id="Polygon-Copy-30" fill="#3881D0" transform="translate(1184.767949, 858.951905) rotate(-30.000000) translate(-1184.767949, -858.951905) " points="1184.76795 810.951905 1226.33717 834.951905 1226.33717 882.951905 1184.76795 906.951905 1143.19873 882.951905 1143.38992 834.621698"></polygon>
                    <polygon id="Polygon-Copy-40" fill="#009CC7" transform="translate(1259.767949, 902.951905) rotate(-30.000000) translate(-1259.767949, -902.951905) " points="1259.76795 854.951905 1301.33717 878.951905 1301.33717 926.951905 1259.76795 950.951905 1218.19873 926.951905 1218.38992 878.621698"></polygon>
                    <polygon id="Polygon-Copy-45" fill="#13AA90" transform="translate(1334.767949, 945.951905) rotate(-30.000000) translate(-1334.767949, -945.951905) " points="1334.76795 897.951905 1376.33717 921.951905 1376.33717 969.951905 1334.76795 993.951905 1293.19873 969.951905 1293.38992 921.621698"></polygon>
                    <polygon id="Polygon-Copy-31" fill="#376FCD" transform="translate(1109.767949, 901.951905) rotate(-30.000000) translate(-1109.767949, -901.951905) " points="1109.76795 853.951905 1151.33717 877.951905 1151.33717 925.951905 1109.76795 949.951905 1068.19873 925.951905 1068.38992 877.621698"></polygon>
                    <polygon id="Polygon-Copy-36" fill="#05B4AD" transform="translate(1184.767949, 944.951905) rotate(-30.000000) translate(-1184.767949, -944.951905) " points="1184.76795 896.951905 1226.33717 920.951905 1226.33717 968.951905 1184.76795 992.951905 1143.19873 968.951905 1143.38992 920.621698"></polygon>
                    <polygon id="Polygon-Copy-41" fill="#099E98" transform="translate(1259.767949, 988.951905) rotate(-30.000000) translate(-1259.767949, -988.951905) " points="1259.76795 940.951905 1301.33717 964.951905 1301.33717 1012.95191 1259.76795 1036.95191 1218.19873 1012.95191 1218.38992 964.621698"></polygon>
                    <polygon id="Polygon-Copy-37" fill="#38AFD0" transform="translate(1110.767949, 987.951905) rotate(-30.000000) translate(-1110.767949, -987.951905) " points="1110.76795 939.951905 1152.33717 963.951905 1152.33717 1011.95191 1110.76795 1035.95191 1069.19873 1011.95191 1069.38992 963.621698"></polygon>
                    <polygon id="Polygon-Copy-7" fill="#3871D0" transform="translate(734.738003, 944.951905) rotate(-30.000000) translate(-734.738003, -944.951905) " points="734.738003 896.951905 776.307222 920.951905 776.307222 968.951905 734.738003 992.951905 693.168784 968.951905 693.359971 920.621698"></polygon>
                    <polygon id="Polygon-Copy-19" fill="#3859D0" transform="translate(659.738003, 901.951905) rotate(-30.000000) translate(-659.738003, -901.951905) " points="659.738003 853.951905 701.307222 877.951905 701.307222 925.951905 659.738003 949.951905 618.168784 925.951905 618.359971 877.621698"></polygon>
                    <polygon id="Polygon-Copy-140" fill="#335BEC" transform="translate(660.250000, 816.353829) rotate(-30.000000) translate(-660.250000, -816.353829) " points="660.25 768.353829 701.819219 792.353829 701.819219 840.353829 660.25 864.353829 618.680781 840.353829 618.871968 792.023622"></polygon>
                    <polygon id="Polygon-Copy-20" fill="#3860D0" transform="translate(659.738003, 987.951905) rotate(-30.000000) translate(-659.738003, -987.951905) " points="659.738003 939.951905 701.307222 963.951905 701.307222 1011.95191 659.738003 1035.95191 618.168784 1011.95191 618.359971 963.621698"></polygon>
                    <polygon id="Polygon-Copy-21" fill="#3871D0" transform="translate(584.738003, 944.951905) rotate(-30.000000) translate(-584.738003, -944.951905) " points="584.738003 896.951905 626.307222 920.951905 626.307222 968.951905 584.738003 992.951905 543.168784 968.951905 543.359971 920.621698"></polygon>
                    <polygon id="Polygon-Copy-26" fill="#388ED0" transform="translate(509.767949, 901.951905) rotate(-30.000000) translate(-509.767949, -901.951905) " points="509.767949 853.951905 551.337169 877.951905 551.337169 925.951905 509.767949 949.951905 468.19873 925.951905 468.389917 877.621698"></polygon>
                    <polygon id="Polygon-Copy-138" fill="#2781C6" transform="translate(585.000000, 859.353829) rotate(-30.000000) translate(-585.000000, -859.353829) " points="585 811.353829 626.569219 835.353829 626.569219 883.353829 585 907.353829 543.430781 883.353829 543.621968 835.023622"></polygon>
                </g>
            </g>
        </g>
    </g>
</svg>
