<svg width="41" height="36" viewBox="0 0 41 36" version="1.1" xmlns="http://www.w3.org/2000/svg" xmlns:xlink="http://www.w3.org/1999/xlink" xmlns:figma="http://www.figma.com/figma/ns">
<g id="Canvas" transform="translate(-4520 -6246)" figma:type="canvas">
<g id="icn" opacity="0.5" figma:type="text">
<use xlink:href="#path-comment_fill" transform="translate(4520 6244)"/>
</g>
</g>
<defs>
<path id="path-comment_fill" d="M 20.5 32.3545C 19.806 32.3545 18.9652 32.3545 17.9775 32.3545C 17.0166 32.3545 16.5361 32.3545 16.5361 32.3545L 16.1357 32.3545C 15.4684 33.6357 14.6543 34.6367 13.6934 35.3574C 12.7591 36.0781 11.8382 36.6253 10.9307 36.999C 10.0498 37.3727 9.27572 37.613 8.6084 37.7197C 7.96777 37.7998 7.62077 37.8398 7.56738 37.8398C 7.54069 37.8398 7.52734 37.8398 7.52734 37.8398C 7.39388 37.8398 7.27376 37.8132 7.16699 37.7598C 7.06022 37.6797 6.98014 37.5863 6.92676 37.4795C 6.84668 37.346 6.80664 37.2259 6.80664 37.1191C 6.83333 36.9857 6.88672 36.8656 6.9668 36.7588C 6.9668 36.7321 7.38053 35.998 8.20801 34.5566C 9.03548 33.0885 9.48926 31.3535 9.56934 29.3516C 7.99447 28.5508 6.60645 27.6966 5.40527 26.7891C 4.23079 25.8815 3.24316 24.9206 2.44238 23.9062C 1.6416 22.8919 1.02767 21.8376 0.600586 20.7432C 0.200195 19.6221 0 18.4743 0 17.2998C 0 15.2445 0.533854 13.3092 1.60156 11.4941C 2.69596 9.65234 4.16406 8.05078 6.00586 6.68945C 7.87435 5.32812 10.0498 4.26042 12.5322 3.48633C 15.0146 2.68555 17.6706 2.28516 20.5 2.28516C 23.3294 2.28516 25.9854 2.68555 28.4678 3.48633C 30.9502 4.26042 33.1123 5.32812 34.9541 6.68945C 36.8226 8.05078 38.2907 9.65234 39.3584 11.4941C 40.4528 13.3092 41 15.2445 41 17.2998C 41 19.3818 40.4528 21.3438 39.3584 23.1855C 38.2907 25.0007 36.8226 26.5889 34.9541 27.9502C 33.1123 29.3115 30.9502 30.3926 28.4678 31.1934C 25.9854 31.9674 23.3294 32.3545 20.5 32.3545ZM 20.5 3.64648C 17.8574 3.64648 15.375 4.00684 13.0527 4.72754C 10.7305 5.44824 8.70182 6.43587 6.9668 7.69043C 5.23177 8.9183 3.8571 10.3597 2.84277 12.0146C 1.85514 13.6696 1.36133 15.4313 1.36133 17.2998C 1.36133 18.6611 1.6416 19.9023 2.20215 21.0234C 2.7627 22.1445 3.4834 23.1589 4.36426 24.0664C 5.27181 24.974 6.25944 25.7881 7.32715 26.5088C 8.42155 27.2028 9.5026 27.8167 10.5703 28.3506C 10.5703 28.3506 10.5703 28.3639 10.5703 28.3906C 10.597 28.3906 10.6104 28.3906 10.6104 28.3906C 10.637 28.4173 10.6637 28.444 10.6904 28.4707C 10.7171 28.4707 10.7305 28.4707 10.7305 28.4707C 10.7572 28.4974 10.7705 28.5241 10.7705 28.5508C 10.7972 28.5508 10.8105 28.5641 10.8105 28.5908C 10.8372 28.6175 10.8506 28.6442 10.8506 28.6709C 10.8773 28.6709 10.8906 28.6842 10.8906 28.7109C 10.8906 28.7376 10.8906 28.7643 10.8906 28.791C 10.8906 28.791 10.904 28.8044 10.9307 28.8311C 10.9307 28.8577 10.9307 28.8844 10.9307 28.9111C 10.9307 28.9111 10.9307 28.9245 10.9307 28.9512C 10.9307 28.9512 10.9307 28.9645 10.9307 28.9912C 10.9307 30.5127 10.6904 31.9141 10.21 33.1953C 9.75619 34.4766 9.31576 35.4909 8.88867 36.2383C 9.76953 36.0247 10.8372 35.571 12.0918 34.877C 13.3464 34.1829 14.3473 33.0218 15.0947 31.3936C 15.0947 31.3669 15.0947 31.3535 15.0947 31.3535C 15.1214 31.3535 15.1348 31.3402 15.1348 31.3135C 15.1615 31.2868 15.1748 31.2734 15.1748 31.2734C 15.2015 31.2467 15.2282 31.2201 15.2549 31.1934C 15.2549 31.1667 15.2682 31.1533 15.2949 31.1533C 15.3216 31.1533 15.335 31.14 15.335 31.1133C 15.3617 31.1133 15.375 31.1133 15.375 31.1133C 15.4017 31.0866 15.4284 31.0599 15.4551 31.0332C 15.4818 31.0332 15.5085 31.0332 15.5352 31.0332C 15.5618 31.0332 15.5885 31.0332 15.6152 31.0332C 15.6152 31.0332 15.6286 31.0332 15.6553 31.0332C 15.682 31.0065 15.7087 30.9932 15.7354 30.9932L 16.5361 30.9932C 16.5361 30.9932 17.0166 30.9932 17.9775 30.9932C 18.9652 30.9932 19.806 30.9932 20.5 30.9932C 23.1426 30.9932 25.625 30.6328 27.9473 29.9121C 30.2695 29.1914 32.2982 28.2171 34.0332 26.9893C 35.7682 25.7347 37.1296 24.2799 38.1172 22.625C 39.1315 20.9701 39.6387 19.195 39.6387 17.2998C 39.6387 15.4313 39.1315 13.6696 38.1172 12.0146C 37.1296 10.3597 35.7682 8.9183 34.0332 7.69043C 32.2982 6.43587 30.2695 5.44824 27.9473 4.72754C 25.625 4.00684 23.1426 3.64648 20.5 3.64648ZM 25.3047 24.1465C 25.3047 24.1465 25.2913 24.1465 25.2646 24.1465C 25.1045 24.1465 24.9577 24.0931 24.8242 23.9863C 24.6908 23.8529 24.6107 23.6927 24.584 23.5059C 24.584 23.319 24.6507 23.1589 24.7842 23.0254C 24.9176 22.8919 25.0778 22.8118 25.2646 22.7852C 25.3714 22.7852 25.7985 22.6517 26.5459 22.3848C 27.32 22.0911 27.8005 21.3171 27.9873 20.0625L 23.2227 20.0625C 23.0358 20.0625 22.8757 19.9958 22.7422 19.8623C 22.6087 19.7288 22.542 19.5687 22.542 19.3818L 22.542 12.5352C 22.542 12.3483 22.6087 12.1882 22.7422 12.0547C 22.8757 11.9212 23.0358 11.8545 23.2227 11.8545L 28.708 11.8545C 28.8949 11.8545 29.055 11.9212 29.1885 12.0547C 29.3219 12.1882 29.3887 12.3483 29.3887 12.5352L 29.3887 19.3818C 29.3887 21.1969 28.8815 22.4382 27.8672 23.1055C 26.8796 23.7728 26.0254 24.1198 25.3047 24.1465ZM 28.0273 13.2158L 23.9033 13.2158L 23.9033 18.7012L 28.0273 18.7012L 28.0273 13.2158ZM 15.0547 24.1465C 15.0547 24.1465 15.0413 24.1465 15.0146 24.1465C 14.8545 24.1465 14.7077 24.0931 14.5742 23.9863C 14.4408 23.8529 14.3607 23.6927 14.334 23.5059C 14.334 23.319 14.4007 23.1589 14.5342 23.0254C 14.6676 22.8919 14.8278 22.8118 15.0146 22.7852C 15.1214 22.7852 15.5485 22.6517 16.2959 22.3848C 17.07 22.0911 17.5505 21.3171 17.7373 20.0625L 12.9727 20.0625C 12.7858 20.0625 12.6257 19.9958 12.4922 19.8623C 12.3587 19.7288 12.292 19.5687 12.292 19.3818L 12.292 12.5352C 12.292 12.3483 12.3587 12.1882 12.4922 12.0547C 12.6257 11.9212 12.7858 11.8545 12.9727 11.8545L 18.458 11.8545C 18.6449 11.8545 18.805 11.9212 18.9385 12.0547C 19.0719 12.1882 19.1387 12.3483 19.1387 12.5352L 19.1387 19.3818C 19.1387 21.1969 18.6315 22.4382 17.6172 23.1055C 16.6296 23.7728 15.7754 24.1198 15.0547 24.1465ZM 17.7773 13.2158L 13.6533 13.2158L 13.6533 18.7012L 17.7773 18.7012L 17.7773 13.2158Z"/>
</defs>
</svg>
