<svg width="42" height="42" viewBox="0 0 42 42" version="1.1" xmlns="http://www.w3.org/2000/svg" xmlns:xlink="http://www.w3.org/1999/xlink">
<path d="M 34.0732 16.6191C 33.5394 16.6191 32.9922 16.5524 32.4316 16.4189C 31.8978 16.2855 31.3639 16.0986 30.8301 15.8584L 25.625 21.0635L 28.8281 22.1445C 28.8815 22.1445 28.9215 22.1579 28.9482 22.1846C 29.0016 22.2113 29.0417 22.2513 29.0684 22.3047L 40.6396 33.916C 40.7731 34.0495 40.8398 34.2096 40.8398 34.3965C 40.8398 34.5833 40.7731 34.7435 40.6396 34.877L 35.1943 40.3623C 35.141 40.4157 35.0742 40.4557 34.9941 40.4824C 34.9141 40.5358 34.8206 40.5625 34.7139 40.5625C 34.6338 40.5625 34.5537 40.5358 34.4736 40.4824C 34.3936 40.4557 34.3135 40.4157 34.2334 40.3623L 22.6621 28.7109C 22.6354 28.6842 22.6087 28.6576 22.582 28.6309C 22.5553 28.5775 22.5286 28.5241 22.502 28.4707L 21.4209 25.2275L 16.2158 30.4727C 16.9098 31.9141 17.1501 33.3288 16.9365 34.7168C 16.723 36.0781 16.0824 37.306 15.0146 38.4004C 14.2939 39.0944 13.4665 39.6283 12.5322 40.002C 11.598 40.3757 10.5837 40.5625 9.48926 40.5625C 8.9554 40.5625 8.42155 40.5091 7.8877 40.4023C 7.38053 40.3223 6.87337 40.2021 6.36621 40.042C 6.25944 40.0153 6.16602 39.9486 6.08594 39.8418C 6.00586 39.7617 5.95247 39.6683 5.92578 39.5615C 5.89909 39.4548 5.89909 39.3346 5.92578 39.2012C 5.95247 39.0944 6.00586 39.001 6.08594 38.9209L 9.88965 35.1172L 7.6875 32.9551C 7.66081 32.9284 7.63411 32.915 7.60742 32.915C 7.60742 32.8883 7.60742 32.8617 7.60742 32.835L 5.52539 30.7529L 1.76172 34.5566C 1.68164 34.6367 1.58822 34.6901 1.48145 34.7168C 1.37467 34.7435 1.2679 34.7435 1.16113 34.7168C 1.05436 34.7168 0.960938 34.6901 0.880859 34.6367C 0.800781 34.5566 0.73405 34.4766 0.680664 34.3965C -0.0133464 33.0885 -0.200195 31.6071 0.120117 29.9521C 0.467122 28.2972 1.24121 26.8825 2.44238 25.708C 3.53678 24.5869 4.7513 23.9062 6.08594 23.666C 7.44727 23.4258 8.79525 23.6527 10.1299 24.3467L 16.9365 17.5L 9.92969 10.4932L 6.12598 10.4932C 6.0459 10.4932 5.96582 10.4798 5.88574 10.4531C 5.80566 10.3997 5.72559 10.3464 5.64551 10.293L 0.200195 4.80762C 0.0667318 4.67415 0 4.514 0 4.32715C 0 4.1403 0.0667318 3.98014 0.200195 3.84668L 4.28418 -0.237305C 4.41764 -0.370767 4.5778 -0.4375 4.76465 -0.4375C 4.9515 -0.4375 5.11165 -0.370767 5.24512 -0.237305L 10.6904 5.20801C 10.7705 5.28809 10.8239 5.36816 10.8506 5.44824C 10.8773 5.52832 10.8906 5.6084 10.8906 5.68848L 10.8906 9.53223L 17.8975 16.5391L 24.6641 9.77246C 23.9967 8.41113 23.7965 7.0498 24.0635 5.68848C 24.3304 4.30045 25.0378 3.03255 26.1855 1.88477C 26.9329 1.13737 27.8138 0.563477 28.8281 0.163086C 29.8424 -0.237305 30.9102 -0.4375 32.0312 -0.4375C 32.5117 -0.4375 32.9788 -0.397461 33.4326 -0.317383C 33.9131 -0.263998 34.3802 -0.157227 34.834 0.00292969C 34.9408 0.0296232 35.0342 0.0963534 35.1143 0.203125C 35.1943 0.283203 35.2477 0.376627 35.2744 0.483398C 35.3011 0.59017 35.3011 0.710287 35.2744 0.84375C 35.2477 0.950522 35.1943 1.04395 35.1143 1.12402L 31.3105 4.8877L 33.4326 7.00977C 33.486 7.03646 33.526 7.0765 33.5527 7.12988C 33.5794 7.15658 33.6061 7.19662 33.6328 7.25L 35.6748 9.29199L 39.4385 5.48828C 39.5452 5.4082 39.652 5.35482 39.7588 5.32812C 39.8923 5.30143 40.0124 5.30143 40.1191 5.32812C 40.2526 5.35482 40.3594 5.42155 40.4395 5.52832C 40.5195 5.63509 40.5729 5.74186 40.5996 5.84863C 40.8398 7.12988 40.8265 8.62467 40.5596 10.333C 40.3193 12.0413 39.612 13.5094 38.4375 14.7373C 37.8503 15.3512 37.1829 15.8184 36.4355 16.1387C 35.6882 16.459 34.9007 16.6191 34.0732 16.6191ZM 23.7432 27.8701L 34.7139 38.8809L 39.1982 34.3965L 28.2275 23.3857L 24.7041 22.1846L 22.582 24.3467L 23.7432 27.8701ZM 9.5293 5.96875L 4.76465 1.2041L 1.6416 4.32715L 6.40625 9.13184L 9.5293 9.13184L 9.5293 5.96875ZM 39.3984 7.4502L 36.1553 10.7334C 36.0218 10.8669 35.8617 10.9336 35.6748 10.9336C 35.488 10.9336 35.3278 10.8669 35.1943 10.7334L 32.5117 8.05078C 32.5117 8.05078 32.4984 8.03744 32.4717 8.01074C 32.4717 7.98405 32.4583 7.9707 32.4316 7.9707L 29.8691 5.36816C 29.8158 5.31478 29.7624 5.24805 29.709 5.16797C 29.6823 5.08789 29.6689 4.99447 29.6689 4.8877C 29.6689 4.80762 29.6823 4.72754 29.709 4.64746C 29.7624 4.56738 29.8158 4.4873 29.8691 4.40723L 33.2725 1.00391C 33.0589 0.977213 32.8454 0.963867 32.6318 0.963867C 32.445 0.937174 32.2448 0.923828 32.0312 0.923828C 31.0703 0.923828 30.1628 1.09733 29.3086 1.44434C 28.4811 1.76465 27.7604 2.23177 27.1465 2.8457C 26.1589 3.86003 25.5716 4.94108 25.3848 6.08887C 25.1979 7.23665 25.4382 8.38444 26.1055 9.53223C 26.1855 9.66569 26.2122 9.8125 26.1855 9.97266C 26.1589 10.1328 26.0921 10.2663 25.9854 10.373L 10.7305 25.668C 10.6237 25.7747 10.4902 25.8415 10.3301 25.8682C 10.1699 25.8682 10.0231 25.8415 9.88965 25.7881C 8.74186 25.0941 7.60742 24.8271 6.48633 24.9873C 5.39193 25.1208 4.36426 25.6813 3.40332 26.6689C 2.54915 27.4964 1.94857 28.484 1.60156 29.6318C 1.28125 30.7796 1.25456 31.8473 1.52148 32.835L 5.04492 29.3115C 5.17839 29.1781 5.33854 29.1113 5.52539 29.1113C 5.71224 29.1113 5.8724 29.1781 6.00586 29.3115L 8.68848 31.9941C 8.68848 31.9941 8.68848 32.0075 8.68848 32.0342C 8.71517 32.0609 8.74186 32.0742 8.76855 32.0742L 11.3311 34.6367C 11.3844 34.7168 11.4245 34.7969 11.4512 34.877C 11.5046 34.957 11.5312 35.0371 11.5312 35.1172C 11.5312 35.224 11.5046 35.3174 11.4512 35.3975C 11.4245 35.4775 11.3844 35.5576 11.3311 35.6377L 7.92773 39.041C 8.16797 39.0944 8.42155 39.1344 8.68848 39.1611C 8.9554 39.1878 9.22233 39.2012 9.48926 39.2012C 10.1299 39.2012 10.8639 39.0811 11.6914 38.8408C 12.5456 38.6273 13.333 38.1602 14.0537 37.4395C 14.9613 36.5052 15.4818 35.4642 15.6152 34.3164C 15.7487 33.1419 15.4684 31.9274 14.7744 30.6729C 14.721 30.5394 14.6943 30.4059 14.6943 30.2725C 14.721 30.1123 14.7878 29.9788 14.8945 29.8721L 30.1895 14.5371C 30.2962 14.4303 30.4163 14.3636 30.5498 14.3369C 30.71 14.3102 30.8568 14.3369 30.9902 14.417C 31.4974 14.6839 32.0179 14.8975 32.5518 15.0576C 33.0856 15.1911 33.5928 15.2578 34.0732 15.2578C 34.7406 15.2578 35.3545 15.1377 35.915 14.8975C 36.4756 14.6305 36.9827 14.2568 37.4365 13.7764C 38.2373 12.9222 38.7712 11.9212 39.0381 10.7734C 39.3317 9.62565 39.4518 8.5179 39.3984 7.4502Z"/>
</svg>
