<svg width="41" height="42" viewBox="0 0 41 42" version="1.1" xmlns="http://www.w3.org/2000/svg" xmlns:xlink="http://www.w3.org/1999/xlink">
<path id="path-cloud-os_fill" d="M 32.2314 29.5117C 32.0446 29.5651 31.8711 29.5384 31.7109 29.4316C 31.5508 29.3249 31.4574 29.1781 31.4307 28.9912C 31.3773 28.8044 31.404 28.6309 31.5107 28.4707C 31.6175 28.3105 31.7643 28.2171 31.9512 28.1904C 33.0456 27.9235 34.0599 27.4964 34.9941 26.9092C 35.9284 26.2952 36.7292 25.5612 37.3965 24.707C 38.0905 23.8529 38.6243 22.9053 38.998 21.8643C 39.3717 20.7965 39.5586 19.6888 39.5586 18.541C 39.5586 17.2064 39.2917 15.9518 38.7578 14.7773C 38.2507 13.5762 37.5433 12.5352 36.6357 11.6543C 35.7549 10.7467 34.7139 10.0394 33.5127 9.53223C 32.3382 9.02506 31.0703 8.77148 29.709 8.77148C 29.6022 8.77148 29.4954 8.77148 29.3887 8.77148C 29.3086 8.77148 29.2152 8.78483 29.1084 8.81152C 28.9482 8.83822 28.8014 8.81152 28.668 8.73145C 28.5345 8.62467 28.4411 8.50456 28.3877 8.37109C 27.9873 7.25 27.4268 6.23568 26.7061 5.32812C 26.012 4.42057 25.1979 3.64648 24.2637 3.00586C 23.3561 2.33854 22.3551 1.83138 21.2607 1.48438C 20.1663 1.11068 19.0186 0.923828 17.8174 0.923828C 16.2959 0.923828 14.8545 1.21745 13.4932 1.80469C 12.1318 2.39193 10.944 3.19271 9.92969 4.20703C 8.91536 5.19466 8.11458 6.36914 7.52734 7.73047C 6.9401 9.0651 6.64648 10.4932 6.64648 12.0146C 6.64648 12.2816 6.65983 12.5485 6.68652 12.8154C 6.71322 13.0557 6.73991 13.3226 6.7666 13.6162C 6.79329 13.7764 6.7666 13.9365 6.68652 14.0967C 6.60645 14.2301 6.48633 14.3236 6.32617 14.377C 4.83138 14.8574 3.63021 15.7249 2.72266 16.9795C 1.8151 18.2074 1.36133 19.5954 1.36133 21.1436C 1.36133 23.1188 2.06868 24.8138 3.4834 26.2285C 4.89811 27.6165 6.60645 28.3105 8.6084 28.3105L 8.84863 28.3105C 9.06217 28.3105 9.23568 28.3773 9.36914 28.5107C 9.5026 28.6442 9.56934 28.8044 9.56934 28.9912C 9.56934 29.1781 9.5026 29.3382 9.36914 29.4717C 9.23568 29.6051 9.06217 29.6719 8.84863 29.6719L 8.6084 29.6719C 7.40723 29.6719 6.28613 29.4583 5.24512 29.0312C 4.2041 28.5775 3.29655 27.9635 2.52246 27.1895C 1.74837 26.4154 1.13444 25.5078 0.680664 24.4668C 0.226888 23.4258 0 22.318 0 21.1436C 0 19.4085 0.480469 17.8337 1.44141 16.4189C 2.42904 14.9775 3.73698 13.9232 5.36523 13.2559C 5.33854 13.0423 5.31185 12.8421 5.28516 12.6553C 5.28516 12.4417 5.28516 12.2282 5.28516 12.0146C 5.28516 10.3063 5.60547 8.69141 6.24609 7.16992C 6.91341 5.64844 7.80762 4.32715 8.92871 3.20605C 10.0765 2.08496 11.4111 1.2041 12.9326 0.563477C 14.4541 -0.103842 16.0824 -0.4375 17.8174 -0.4375C 19.0986 -0.4375 20.3398 -0.25065 21.541 0.123047C 22.7422 0.496744 23.8499 1.0306 24.8643 1.72461C 25.8786 2.41862 26.7861 3.24609 27.5869 4.20703C 28.3877 5.16797 29.015 6.23568 29.4688 7.41016C 29.5221 7.41016 29.5622 7.41016 29.5889 7.41016C 29.6156 7.41016 29.6556 7.41016 29.709 7.41016C 31.2572 7.41016 32.7119 7.70378 34.0732 8.29102C 35.4346 8.87826 36.6224 9.67904 37.6367 10.6934C 38.651 11.681 39.4518 12.8555 40.0391 14.2168C 40.6263 15.5514 40.9199 16.9928 40.9199 18.541C 40.9199 19.849 40.7064 21.1035 40.2793 22.3047C 39.8522 23.4792 39.2516 24.5602 38.4775 25.5479C 37.7035 26.5355 36.7826 27.3763 35.7148 28.0703C 34.6471 28.7376 33.486 29.2181 32.2314 29.5117ZM 14.334 14.6572L 26.5859 14.6572C 26.7995 14.6572 26.973 14.6973 27.1064 14.7773C 27.2399 14.8574 27.3066 14.9909 27.3066 15.1777L 27.3066 39.8018C 27.3066 39.9886 27.2399 40.1621 27.1064 40.3223C 26.973 40.4824 26.7995 40.5625 26.5859 40.5625L 14.334 40.5625C 14.1471 40.5625 13.987 40.4824 13.8535 40.3223C 13.7201 40.1621 13.6533 39.9886 13.6533 39.8018L 13.6533 15.1777C 13.6533 14.9909 13.7201 14.8574 13.8535 14.7773C 13.987 14.6973 14.1471 14.6572 14.334 14.6572ZM 15.0146 39.2012L 25.9053 39.2012L 25.9053 16.0186L 15.0146 16.0186L 15.0146 39.2012ZM 20.46 36.3984C 19.7126 36.3984 19.0719 36.1315 18.5381 35.5977C 18.0042 35.0638 17.7373 34.4098 17.7373 33.6357C 17.7373 32.8883 18.0042 32.2477 18.5381 31.7139C 19.0719 31.18 19.7126 30.9131 20.46 30.9131C 21.2074 30.9131 21.848 31.18 22.3818 31.7139C 22.9157 32.2477 23.1826 32.8883 23.1826 33.6357C 23.1826 34.4098 22.9157 35.0638 22.3818 35.5977C 21.848 36.1315 21.2074 36.3984 20.46 36.3984ZM 20.46 32.2744C 20.0863 32.2744 19.766 32.4079 19.499 32.6748C 19.2321 32.9417 19.0986 33.262 19.0986 33.6357C 19.0986 34.0361 19.2321 34.3698 19.499 34.6367C 19.766 34.9036 20.0863 35.0371 20.46 35.0371C 20.8337 35.0371 21.154 34.9036 21.4209 34.6367C 21.6878 34.3698 21.8213 34.0361 21.8213 33.6357C 21.8213 33.262 21.6878 32.9417 21.4209 32.6748C 21.154 32.4079 20.8337 32.2744 20.46 32.2744ZM 22.502 24.1865L 18.418 24.1865C 18.2311 24.1865 18.071 24.1064 17.9375 23.9463C 17.804 23.7594 17.7373 23.5726 17.7373 23.3857C 17.7373 23.1989 17.804 23.0654 17.9375 22.9854C 18.071 22.8786 18.2311 22.8252 18.418 22.8252L 22.502 22.8252C 22.6888 22.8252 22.849 22.8786 22.9824 22.9854C 23.1159 23.0654 23.1826 23.1989 23.1826 23.3857C 23.1826 23.5726 23.1159 23.7594 22.9824 23.9463C 22.849 24.1064 22.6888 24.1865 22.502 24.1865ZM 22.502 20.1025L 18.418 20.1025C 18.2311 20.1025 18.071 20.0225 17.9375 19.8623C 17.804 19.6755 17.7373 19.4886 17.7373 19.3018C 17.7373 19.1149 17.804 18.9814 17.9375 18.9014C 18.071 18.7946 18.2311 18.7412 18.418 18.7412L 22.502 18.7412C 22.6888 18.7412 22.849 18.7946 22.9824 18.9014C 23.1159 18.9814 23.1826 19.1149 23.1826 19.3018C 23.1826 19.4886 23.1159 19.6755 22.9824 19.8623C 22.849 20.0225 22.6888 20.1025 22.502 20.1025Z"/>
</svg>
