<svg width="48" height="36" viewBox="0 0 48 36" version="1.1" xmlns="http://www.w3.org/2000/svg" xmlns:xlink="http://www.w3.org/1999/xlink">
<g id="Canvas" transform="translate(-5120 -4587)">
<g id="Icon/Socket Registry" opacity="0.5">
<g id="socket">
<use xlink:href="#path-socket-registry_fill" transform="translate(5120 4587)"/>
</g>
<g id="socket">
<use xlink:href="#path-socket-registry_fill" transform="translate(5142.15 4600.85)"/>
</g>
</g>
</g>
<defs>
<path id="path-socket-registry_fill" fill-rule="evenodd" d="M 19.0356 21.9375L 25.1177 11.2935C 25.1602 11.2212 25.1816 11.1489 25.1816 11.0771C 25.1816 11.0049 25.1602 10.9326 25.1177 10.8604L 19.0356 0.216309C 18.9927 0.144043 18.9395 0.090332 18.8755 0.0541992C 18.8115 0.0180664 18.7437 0 18.6729 0L 6.50879 0C 6.4375 0 6.3667 0.0180664 6.29541 0.0541992C 6.22412 0.090332 6.17432 0.144043 6.146 0.216309L 0.0639648 10.8604C 0.0214844 10.9326 0 11.0049 0 11.0771C 0 11.1489 0.0214844 11.2212 0.0639648 11.2935L 6.146 21.9375C 6.17432 22.0098 6.22412 22.0635 6.29541 22.0996C 6.3667 22.1357 6.4375 22.1538 6.50879 22.1538L 18.6729 22.1538C 18.7437 22.1538 18.8115 22.1357 18.8755 22.0996C 18.9395 22.0635 18.9927 22.0098 19.0356 21.9375ZM 7.03809 1.47705L 18.1602 1.47705L 23.7012 11.0771L 18.1602 20.6772L 7.03809 20.6772L 1.47705 11.0771L 7.03809 1.47705Z"/>
</defs>
</svg>
