<svg width="41" height="42" viewBox="0 0 41 42" version="1.1" xmlns="http://www.w3.org/2000/svg" xmlns:xlink="http://www.w3.org/1999/xlink">
<path id="path-community_fill" d="M 40.5195 40.5225C 40.4928 40.5492 40.4528 40.5625 40.3994 40.5625C 40.3727 40.5625 40.346 40.5625 40.3193 40.5625C 40.2126 40.5625 40.1058 40.5358 39.999 40.4824C 39.8923 40.429 39.8122 40.3623 39.7588 40.2822L 35.3145 33.7559L 15.0547 33.7559C 14.0938 33.7559 13.2796 33.4222 12.6123 32.7549C 11.945 32.0876 11.6113 31.2868 11.6113 30.3525L 11.6113 24.1465C 11.6113 23.9596 11.6781 23.7995 11.8115 23.666C 11.945 23.5326 12.1051 23.4658 12.292 23.4658C 12.4788 23.4658 12.639 23.5326 12.7725 23.666C 12.9059 23.7995 12.9727 23.9596 12.9727 24.1465L 12.9727 30.3525C 12.9727 30.9131 13.1729 31.3936 13.5732 31.7939C 13.9736 32.1943 14.4674 32.3945 15.0547 32.3945L 35.6748 32.3945C 35.7015 32.3945 35.7148 32.3945 35.7148 32.3945C 35.7415 32.3945 35.7549 32.3945 35.7549 32.3945C 35.7816 32.3945 35.8083 32.4079 35.835 32.4346C 35.8617 32.4346 35.875 32.4346 35.875 32.4346C 35.9017 32.4346 35.9284 32.4479 35.9551 32.4746C 35.9818 32.4746 35.9951 32.4746 35.9951 32.4746C 36.0218 32.5013 36.0352 32.528 36.0352 32.5547C 36.0618 32.5547 36.0885 32.5547 36.1152 32.5547C 36.1419 32.5814 36.1553 32.6081 36.1553 32.6348C 36.182 32.6348 36.1953 32.6348 36.1953 32.6348C 36.222 32.6615 36.2354 32.6748 36.2354 32.6748C 36.2354 32.6748 36.2487 32.6882 36.2754 32.7148L 39.6387 37.6396L 39.6387 15.9785C 39.6387 15.418 39.4385 14.9375 39.0381 14.5371C 38.6377 14.11 38.1439 13.8965 37.5566 13.8965L 32.792 13.8965C 32.6051 13.8965 32.445 13.8298 32.3115 13.6963C 32.1781 13.5628 32.1113 13.4027 32.1113 13.2158C 32.1113 13.029 32.1781 12.8688 32.3115 12.7354C 32.445 12.6019 32.6051 12.5352 32.792 12.5352L 37.5566 12.5352C 38.5176 12.5352 39.3317 12.8688 39.999 13.5361C 40.6663 14.2035 41 15.0176 41 15.9785L 41 39.8818C 41 40.042 40.9466 40.1755 40.8398 40.2822C 40.7598 40.4157 40.653 40.4958 40.5195 40.5225ZM 25.9854 20.7432L 5.68555 20.7432L 1.24121 27.2695C 1.18783 27.3763 1.10775 27.4564 1.00098 27.5098C 0.894206 27.5632 0.787435 27.5898 0.680664 27.5898C 0.653971 27.5898 0.613932 27.5898 0.560547 27.5898C 0.533854 27.5632 0.507161 27.5498 0.480469 27.5498C 0.347005 27.4964 0.226888 27.4163 0.120117 27.3096C 0.0400391 27.1761 0 27.0426 0 26.9092L 0 3.00586C 0 2.04492 0.333659 1.2308 1.00098 0.563477C 1.66829 -0.103842 2.48242 -0.4375 3.44336 -0.4375L 25.9453 -0.4375C 26.9062 -0.4375 27.7204 -0.103842 28.3877 0.563477C 29.055 1.2308 29.3887 2.04492 29.3887 3.00586L 29.3887 17.3398C 29.3887 18.3008 29.055 19.1149 28.3877 19.7822C 27.7204 20.4229 26.9196 20.7432 25.9854 20.7432ZM 28.0273 3.00586C 28.0273 2.41862 27.8271 1.9248 27.4268 1.52441C 27.0264 1.12402 26.5326 0.923828 25.9453 0.923828L 3.44336 0.923828C 2.85612 0.923828 2.3623 1.12402 1.96191 1.52441C 1.56152 1.9248 1.36133 2.41862 1.36133 3.00586L 1.36133 24.667L 4.72461 19.7021C 4.80469 19.6221 4.88477 19.5553 4.96484 19.502C 5.04492 19.4486 5.13835 19.4219 5.24512 19.4219C 5.27181 19.4219 5.2985 19.4219 5.3252 19.4219C 5.37858 19.3952 5.43197 19.3818 5.48535 19.3818L 25.9854 19.3818C 26.5459 19.3818 27.0264 19.195 27.4268 18.8213C 27.8271 18.4209 28.0273 17.9271 28.0273 17.3398L 28.0273 3.00586ZM 22.542 8.45117L 7.52734 8.45117C 7.34049 8.45117 7.18034 8.38444 7.04688 8.25098C 6.91341 8.11751 6.84668 7.95736 6.84668 7.77051C 6.84668 7.58366 6.91341 7.4235 7.04688 7.29004C 7.18034 7.15658 7.34049 7.08984 7.52734 7.08984L 22.542 7.08984C 22.7288 7.08984 22.889 7.15658 23.0225 7.29004C 23.1559 7.4235 23.2227 7.58366 23.2227 7.77051C 23.2227 7.95736 23.1559 8.11751 23.0225 8.25098C 22.889 8.38444 22.7288 8.45117 22.542 8.45117ZM 7.52734 11.8545L 17.0967 11.8545C 17.2835 11.8545 17.4437 11.9212 17.5771 12.0547C 17.7106 12.1882 17.7773 12.3483 17.7773 12.5352C 17.7773 12.722 17.7106 12.8822 17.5771 13.0156C 17.4437 13.1491 17.2835 13.2158 17.0967 13.2158L 7.52734 13.2158C 7.34049 13.2158 7.18034 13.1491 7.04688 13.0156C 6.91341 12.8822 6.84668 12.722 6.84668 12.5352C 6.84668 12.3483 6.91341 12.1882 7.04688 12.0547C 7.18034 11.9212 7.34049 11.8545 7.52734 11.8545Z"/>
</svg>
