<?xml version="1.0" encoding="UTF-8"?><svg width="67px" height="56px" viewBox="0 0 67 56" version="1.1" xmlns="http://www.w3.org/2000/svg" xmlns:xlink="http://www.w3.org/1999/xlink"><g id="Page-1" stroke="none" stroke-width="1" fill="none" fill-rule="evenodd"><g id="scale-your-websites-on-demand" transform="translate(1.000000, 2.000000)"><path d="M35.308,0.717 L63.161,13.213 C64.91,13.998 64.939,15.269 63.228,16.053 L35.959,28.549 C34.247,29.334 31.443,29.334 29.695,28.549 L1.842,16.053 C0.095,15.269 0.064,13.998 1.776,13.213 L29.045,0.717 C30.756,-0.067 33.56,-0.067 35.308,0.717 L35.308,0.717 Z" id="Shape" stroke="#FFFFFF" stroke-width="3"></path><path d="M1.842,22.654 L29.695,35.15 C31.443,35.934 34.247,35.934 35.959,35.15 L63.228,22.654 C63.367,22.59 63.475,22.519 63.591,22.449 C64.885,23.235 64.779,24.342 63.228,25.053 L35.959,37.55 C34.247,38.334 31.443,38.334 29.695,37.55 L1.842,25.053 C0.236,24.333 0.099,23.205 1.412,22.418 C1.545,22.499 1.679,22.58 1.842,22.654 L1.842,22.654 Z" id="Shape" fill="#FFFFFF"></path><path d="M1.842,29.653 L29.695,42.149 C31.443,42.934 34.247,42.934 35.959,42.149 L63.228,29.653 C63.367,29.59 63.475,29.518 63.591,29.449 C64.885,30.235 64.779,31.342 63.228,32.053 L35.959,44.549 C34.247,45.334 31.443,45.334 29.695,44.549 L1.842,32.053 C0.236,31.333 0.099,30.205 1.412,29.418 C1.546,29.499 1.679,29.58 1.842,29.653 L1.842,29.653 Z" id="Shape" fill="#FFFFFF"></path><path d="M1.842,37.653 L29.695,50.149 C31.443,50.934 34.247,50.934 35.959,50.149 L63.228,37.653 C63.366,37.59 63.475,37.518 63.591,37.449 C64.885,38.234 64.779,39.342 63.228,40.053 L35.959,52.55 C34.247,53.334 31.443,53.334 29.695,52.55 L1.842,40.053 C0.236,39.333 0.099,38.205 1.413,37.418 C1.546,37.499 1.679,37.58 1.842,37.653 L1.842,37.653 Z" id="Shape" fill="#FFFFFF"></path></g></g></svg>
