<svg id="SvgjsSvg1000" xmlns="http://www.w3.org/2000/svg" version="1.1" xmlns:xlink="http://www.w3.org/1999/xlink" xmlns:svgjs="http://svgjs.com/svgjs" width="65.5" height="62" viewBox="0 0 65.5 62"><title>Clock</title><desc>Created with Avocode.</desc><defs id="SvgjsDefs1001"></defs><path id="SvgjsPath1007" d="M401.466 1987.5C401.466 1971.21 414.793 1958.01 431.232 1958.01C447.67100000000005 1958.01 460.99800000000005 1971.21 460.99800000000005 1987.5C460.99800000000005 2003.79 447.67100000000005 2016.99 431.232 2016.99C424.15500000000003 2016.99 417.65400000000005 2014.54 412.545 2010.46 " fill-opacity="0" fill="#ffffff" stroke-dasharray="0" stroke-linejoin="miter" stroke-linecap="butt" stroke-opacity="1" stroke="#ffffff" stroke-miterlimit="50" stroke-width="3" transform="matrix(1,0,0,1,-397,-1956.5)"></path><path id="SvgjsPath1008" d="M402.582 1994.87L397.01 1986.75L408.154 1986.75Z " fill="#ffffff" fill-opacity="1" transform="matrix(1,0,0,1,-397,-1956.5)"></path><path id="SvgjsPath1009" d="M431.234 1985.29C432.46799999999996 1985.29 433.46799999999996 1986.28 433.46799999999996 1987.5C433.46799999999996 1988.72 432.46799999999996 1989.7 431.234 1989.7C430 1989.7 429 1988.72 429 1987.5C429 1986.28 430 1985.29 431.234 1985.29Z " fill="#ffffff" fill-opacity="1" transform="matrix(1,0,0,1,-397,-1956.5)"></path><path id="SvgjsPath1010" d="M431.232 1988.24L431.232 1987.5L430.487 1987.5L430.487 1970.54L431.976 1970.54L431.976 1986.76L441.65 1986.76L441.65 1988.24Z " fill="#ffffff" fill-opacity="1" transform="matrix(1,0,0,1,-397,-1956.5)"></path></svg>
