<svg id="SvgjsSvg1011" xmlns="http://www.w3.org/2000/svg" version="1.1" xmlns:xlink="http://www.w3.org/1999/xlink" xmlns:svgjs="http://svgjs.com/svgjs" width="64" height="54" viewBox="0 0 64 54"><title>Icon</title><desc>Created with Avocode.</desc><defs id="SvgjsDefs1012"><clipPath id="SvgjsClipPath1015"><path id="SvgjsPath1014" d="M1021.81 1959.22L1049.6599999999999 1971.71C1051.4099999999999 1972.5 1051.4399999999998 1973.77 1049.7299999999998 1974.55L1022.4599999999998 1987.05C1020.7499999999998 1987.83 1017.9399999999998 1987.83 1016.1999999999998 1987.05L988.3419999999999 1974.55C986.5949999999999 1973.77 986.5639999999999 1972.5 988.2759999999998 1971.71L1015.5399999999998 1959.22C1017.2599999999999 1958.43 1020.0599999999998 1958.43 1021.8099999999998 1959.22Z " fill="#ffffff"></path></clipPath></defs><path id="SvgjsPath1013" d="M1021.81 1959.22L1049.6599999999999 1971.71C1051.4099999999999 1972.5 1051.4399999999998 1973.77 1049.7299999999998 1974.55L1022.4599999999998 1987.05C1020.7499999999998 1987.83 1017.9399999999998 1987.83 1016.1999999999998 1987.05L988.3419999999999 1974.55C986.5949999999999 1973.77 986.5639999999999 1972.5 988.2759999999998 1971.71L1015.5399999999998 1959.22C1017.2599999999999 1958.43 1020.0599999999998 1958.43 1021.8099999999998 1959.22Z " fill-opacity="0" fill="#ffffff" stroke-dasharray="0" stroke-linejoin="miter" stroke-linecap="butt" stroke-opacity="1" stroke="#ffffff" stroke-miterlimit="50" stroke-width="6" clip-path="url(&quot;#SvgjsClipPath1015&quot;)" transform="matrix(1,0,0,1,-987,-1958)"></path><path id="SvgjsPath1016" d="M1050.11505 1980.94908C1051.3998100000001 1981.73853 1051.2764000000002 1982.84462 1049.73 1983.5500000000002L1022.46 1996.0500000000002C1020.75 1996.8300000000002 1017.94 1996.8300000000002 1016.2 1996.0500000000002L988.3420000000001 1983.5500000000002C986.7387300000001 1982.83417 986.58072 1981.70566 987.8888300000001 1980.9141900000002C988.02425 1980.9966900000002 988.17532 1981.0755700000002 988.3420000000001 1981.15L1016.2 1993.65C1017.94 1994.43 1020.75 1994.43 1022.46 1993.65L1049.73 1981.15C1049.87001 1981.0861400000001 1049.99836 1981.01899 1050.11505 1980.94908Z " fill="#ffffff" fill-opacity="1" transform="matrix(1,0,0,1,-987,-1958)"></path><path id="SvgjsPath1017" d="M1050.11505 1987.94908C1051.3998100000001 1988.73853 1051.2764000000002 1989.84462 1049.73 1990.5500000000002L1022.46 2003.0500000000002C1020.75 2003.8300000000002 1017.94 2003.8300000000002 1016.2 2003.0500000000002L988.3420000000001 1990.5500000000002C986.7387300000001 1989.83417 986.58072 1988.70566 987.8888300000001 1987.9141900000002C988.02425 1987.9966900000002 988.17532 1988.0755700000002 988.3420000000001 1988.15L1016.2 2000.65C1017.94 2001.43 1020.75 2001.43 1022.46 2000.65L1049.73 1988.15C1049.87001 1988.0861400000001 1049.99836 1988.01899 1050.11505 1987.94908Z " fill="#ffffff" fill-opacity="1" transform="matrix(1,0,0,1,-987,-1958)"></path><path id="SvgjsPath1018" d="M1050.11505 1995.94908C1051.3998100000001 1996.73853 1051.2764000000002 1997.84462 1049.73 1998.5500000000002L1022.46 2011.0500000000002C1020.75 2011.8300000000002 1017.94 2011.8300000000002 1016.2 2011.0500000000002L988.3420000000001 1998.5500000000002C986.7387300000001 1997.83417 986.58072 1996.70566 987.8888300000001 1995.9141900000002C988.02425 1995.9966900000002 988.17532 1996.0755700000002 988.3420000000001 1996.15L1016.2 2008.65C1017.94 2009.43 1020.75 2009.43 1022.46 2008.65L1049.73 1996.15C1049.87001 1996.0861400000001 1049.99836 1996.01899 1050.11505 1995.94908Z " fill="#ffffff" fill-opacity="1" transform="matrix(1,0,0,1,-987,-1958)"></path></svg>
