<svg xmlns="http://www.w3.org/2000/svg" xmlns:xlink="http://www.w3.org/1999/xlink" width="59.84" height="67" viewBox="0 0 59.84 67"><metadata><?xpacket begin="﻿" id="W5M0MpCehiHzreSzNTczkc9d"?><x:xmpmeta xmlns:x="adobe:ns:meta/" x:xmptk="Adobe XMP Core 5.6-c138 79.159824, 2016/09/14-01:09:01"><rdf:RDF xmlns:rdf="http://www.w3.org/1999/02/22-rdf-syntax-ns#"><rdf:Description rdf:about=""/></rdf:RDF></x:xmpmeta>                     <?xpacket end="w"?></metadata><defs><style>.cls-1 {filter: url(#filter);}.cls-2, .cls-3 {fill-rule: evenodd;}.cls-3 {fill-opacity: 0;stroke: #fff;stroke-linejoin: round;stroke-width: 3px;}</style><filter id="filter" filterUnits="userSpaceOnUse"><feFlood result="flood" flood-color="#fff"/><feComposite result="composite" operator="in" in2="SourceGraphic"/><feBlend result="blend" in2="SourceGraphic"/></filter></defs><g id="_2" data-name="2" class="cls-1"><path class="cls-2" d="M1019.23,1751.07a7.685,7.685,0,1,1-7.67,7.68A7.682,7.682,0,0,1,1019.23,1751.07Zm0.01,5.99a1.685,1.685,0,0,1,0,3.37A1.685,1.685,0,1,1,1019.24,1757.06Zm0.01,1.14a0.928,0.928,0,0,1,.93.93v2.24a0.935,0.935,0,0,1-1.87,0v-2.24A0.93,0.93,0,0,1,1019.25,1758.2Z" transform="translate(-989.5 -1721.5)"/><path id="Rounded_Rectangle_6" data-name="Rounded Rectangle 6" class="cls-2" d="M1013.81,1753.69v-4.49a5.615,5.615,0,0,1,11.23,0v4.49m-9.36-1.87v-2.62a3.745,3.745,0,0,1,7.49,0v2.62" transform="translate(-989.5 -1721.5)"/><g id="Icon"><path id="Shield" class="cls-3" d="M1019.47,1786.97V1787a0.158,0.158,0,0,1-.04-0.01,0.1,0.1,0,0,1-.04.01v-0.03c-1.71-.57-30.257-10.75-28.3-51.75,12-.56,22.571-12.22,28.371-12.22,5.93,0,16.3,11.7,28.3,12.25C1049.71,1776.23,1021.18,1786.4,1019.47,1786.97Z" transform="translate(-989.5 -1721.5)"/></g></g></svg>
