<?xml version="1.0" encoding="UTF-8"?><svg width="60px" height="67px" viewBox="0 0 60 67" version="1.1" xmlns="http://www.w3.org/2000/svg" xmlns:xlink="http://www.w3.org/1999/xlink"><g id="Page-1" stroke="none" stroke-width="1" fill="none" fill-rule="evenodd"><g id="securely-delivered-content-worldwide" transform="translate(-1.000000, 0.000000)" fill="#ffffff"><path d="M30.73,29.57 C33.8401051,29.5639302 36.647252,31.4330083 37.8411788,34.3048246 C39.0351056,37.176641 38.3804004,40.4849469 36.182653,42.6855597 C33.9849056,44.8861725 30.6774555,45.5451876 27.804086,44.3550036 C24.9307164,43.1648196 23.0579824,40.3601103 23.06,37.25 C23.061098,33.0128112 26.4928163,29.5766187 30.73,29.57 Z M31.68,38.6436446 C32.1293919,38.3410221 32.425,37.8275325 32.425,37.245 C32.425,36.3144002 31.6705998,35.56 30.74,35.56 L30.74,35.56 C29.8094002,35.56 29.055,36.3144002 29.055,37.245 C29.055,37.8318425 29.3549985,38.3486167 29.81,38.650327 L29.81,39.87 C29.81,40.3863862 30.2286138,40.805 30.745,40.805 C31.2613862,40.805 31.68,40.3863862 31.68,39.87 L31.68,38.6436446 Z" id="Shape"></path><path d="M25.31,32.19 L25.31,27.7 C25.31,24.5989211 27.8239211,22.085 30.925,22.085 C34.0260789,22.085 36.54,24.5989211 36.54,27.7 L36.54,32.19 M27.18,30.32 L27.18,27.7 C27.18,25.6316936 28.8566936,23.955 30.925,23.955 C32.9933064,23.955 34.67,25.6316936 34.67,27.7 L34.67,30.32" id="Rounded_Rectangle_6"></path><path d="M29.7058972,63.3909563 C28.6272757,62.9172724 27.4573394,62.3274577 26.2244885,61.6119016 C22.821747,59.6369244 19.497078,57.0397477 16.4699142,53.7419086 C8.17621344,44.7066229 3.48727342,32.0619257 4.03532984,15.1131888 C8.85592809,14.5994619 13.499318,12.567144 19.5198428,8.90163714 C19.2211893,9.08346786 24.9938438,5.48068317 26.3521956,4.72235365 C28.4465312,3.55314508 29.9212161,3 30.961,3 C32.0322902,3 33.5180833,3.55468089 35.6082628,4.72578743 C36.9808226,5.49481881 42.9915986,9.27700463 42.3992606,8.91267902 C48.393472,12.5995007 52.9991714,14.6332656 57.8154647,15.1440937 C58.359988,32.083497 53.6721125,44.7203734 45.3826812,53.7493048 C42.3569576,57.044953 39.034028,59.6402511 35.633114,61.6136989 C34.400923,62.3287023 33.2316174,62.9180455 32.1535291,63.3913631 C31.6860609,63.5965976 31.2811149,63.7606003 30.9495496,63.8851634 C30.5287554,63.7401662 30.1448199,63.5837122 29.7058972,63.3909563 Z M31.4443416,66.8930249 C31.7992099,66.7720696 32.1120176,66.6560441 32.47,66.5125255 C32.7413755,66.4037285 33.0387116,66.2791319 33.3595217,66.1382853 C34.5377631,65.6209972 35.807001,64.9812869 37.1387922,64.2084886 C40.7907468,62.0893694 44.3517435,59.3081346 47.5925688,55.7781952 C56.6387686,45.9249842 61.6346303,32.0834478 60.7593064,13.6787409 L60.6944055,12.3141231 L59.3296779,12.251573 C54.6353099,12.0364145 50.1336615,10.1477931 43.970958,6.35733807 C43.4216223,6.01946164 42.8635159,5.67054745 42.1530408,5.22217298 C42.0308728,5.14507379 40.7614984,4.34213564 40.3969265,4.11273453 C38.9870224,3.22557471 38.0093892,2.63231759 37.0746505,2.10859291 C34.5695209,0.704994029 32.6810923,9.09494702e-13 30.961,9.09494702e-13 C29.2703421,9.09494702e-13 27.3999936,0.701556019 24.8898329,2.10290802 C23.4563678,2.9031712 17.5986328,6.5590557 17.9597412,6.3392002 C11.7657805,10.110301 7.2181576,12.0023869 2.5200761,12.2216307 L1.15677524,12.2852514 L1.09170582,13.6484839 C0.212798079,32.0619828 5.20957345,45.9110957 14.2598358,55.7705914 C17.5020745,59.3027362 21.0647846,62.0858667 24.7185428,64.2065359 C26.0509865,64.9798965 27.3208505,65.6200891 28.4996223,66.1377546 C28.8207225,66.2787679 29.1183707,66.4035256 29.39,66.512449 C29.7750431,66.6668513 30.1078041,66.7894364 30.3809723,66.8814046 C30.3926433,66.8853339 30.9459887,66.9989547 30.9459887,66.9989547 C31.1502082,66.9913268 31.4443416,66.8930249 31.4443416,66.8930249 Z" id="Shield"></path></g></g></svg>
