<svg id="SvgjsSvg1019" xmlns="http://www.w3.org/2000/svg" version="1.1" xmlns:xlink="http://www.w3.org/1999/xlink" xmlns:svgjs="http://svgjs.com/svgjs" width="58" height="64" viewBox="0 0 58 64"><title>Icon</title><desc>Created with Avocode.</desc><defs id="SvgjsDefs1020"><clipPath id="SvgjsClipPath1024"><path id="SvgjsPath1023" d="M1019.47 1786.97L1019.47 1787C1019.47 1787 1019.46 1787 1019.4300000000001 1786.99C1019.4100000000001 1787 1019.3900000000001 1787 1019.3900000000001 1787L1019.3900000000001 1786.97C1017.6800000000001 1786.4 989.1330000000002 1776.22 991.089 1735.22C1003.09 1734.66 1013.6600000000001 1723 1019.46 1723C1025.39 1723 1035.76 1734.7 1047.76 1735.25C1049.71 1776.23 1021.18 1786.4 1019.47 1786.97Z " fill="#ffffff"></path></clipPath></defs><path id="SvgjsPath1021" d="M1019.47 1786.97L1019.47 1787C1019.47 1787 1019.46 1787 1019.4300000000001 1786.99C1019.4100000000001 1787 1019.3900000000001 1787 1019.3900000000001 1787L1019.3900000000001 1786.97C1017.6800000000001 1786.4 989.1330000000002 1776.22 991.089 1735.22C1003.09 1734.66 1013.6600000000001 1723 1019.46 1723C1025.39 1723 1035.76 1734.7 1047.76 1735.25C1049.71 1776.23 1021.18 1786.4 1019.47 1786.97Z " fill="#000000" fill-opacity="0" transform="matrix(1,0,0,1,-990,-1723)"></path><path id="SvgjsPath1022" d="M1019.47 1786.97L1019.47 1787C1019.47 1787 1019.46 1787 1019.4300000000001 1786.99C1019.4100000000001 1787 1019.3900000000001 1787 1019.3900000000001 1787L1019.3900000000001 1786.97C1017.6800000000001 1786.4 989.1330000000002 1776.22 991.089 1735.22C1003.09 1734.66 1013.6600000000001 1723 1019.46 1723C1025.39 1723 1035.76 1734.7 1047.76 1735.25C1049.71 1776.23 1021.18 1786.4 1019.47 1786.97Z " fill-opacity="0" fill="#ffffff" stroke-dasharray="0" stroke-linejoin="round" stroke-linecap="round" stroke-opacity="1" stroke="#ffffff" stroke-miterlimit="50" stroke-width="6" clip-path="url(&quot;#SvgjsClipPath1024&quot;)" transform="matrix(1,0,0,1,-990,-1723)"></path><path id="SvgjsPath1025" d="M1019.23 1751.07C1023.47 1751.07 1026.91 1754.51 1026.91 1758.75C1026.91 1763 1023.47 1766.44 1019.2300000000001 1766.44C1015.0000000000001 1766.44 1011.5600000000002 1763 1011.5600000000002 1758.75C1011.5600000000002 1754.51 1015.0000000000002 1751.07 1019.2300000000001 1751.07ZM1017.55 1758.74C1017.55 1759.32701 1017.8527899999999 1759.84629 1018.31 1760.14948L1018.31 1761.3700000000001C1018.31 1761.89 1018.7299999999999 1762.3000000000002 1019.25 1762.3000000000002C1019.76 1762.3000000000002 1020.18 1761.89 1020.18 1761.3700000000001L1020.18 1760.14066C1020.6269199999999 1759.83629 1020.92 1759.32136 1020.92 1758.74C1020.92 1757.81 1020.17 1757.06 1019.24 1757.06C1018.3100000000001 1757.06 1017.55 1757.81 1017.55 1758.74Z " fill="#000000" fill-opacity="1" transform="matrix(1,0,0,1,-990,-1723)"></path><path id="SvgjsPath1026" d="M1013.81 1753.69L1013.81 1749.2C1013.81 1746.1000000000001 1016.3199999999999 1743.5900000000001 1019.42 1743.5900000000001C1022.52 1743.5900000000001 1025.04 1746.1000000000001 1025.04 1749.2L1025.04 1753.69C1025.04 1756.79 1013.81 1756.79 1013.81 1753.69ZM1023.17 1751.82L1023.17 1749.2C1023.17 1747.13 1021.49 1745.46 1019.42 1745.46C1017.36 1745.46 1015.68 1747.13 1015.68 1749.2L1015.68 1751.82C1015.68 1753.8899999999999 1023.17 1753.8899999999999 1023.17 1751.82Z " fill="#000000" fill-opacity="1" transform="matrix(1,0,0,1,-990,-1723)"></path></svg>
