<?xml version="1.0" encoding="UTF-8"?><svg width="59px" height="46px" viewBox="0 0 59 46" version="1.1" xmlns="http://www.w3.org/2000/svg" xmlns:xlink="http://www.w3.org/1999/xlink"><g id="Page-1" stroke="none" stroke-width="1" fill="none" fill-rule="evenodd"><path d="M53.4415438,0.83 L5.26409933,0.83 C2.45070596,0.83 0.17,3.11070596 0.17,5.92409933 L0.17,40.7359007 C0.17,43.549294 2.45070596,45.83 5.26409933,45.83 L53.4415438,45.83 C56.2549372,45.83 58.5356431,43.549294 58.5356431,40.7359007 L58.5356431,5.92409933 C58.5356431,3.11070596 56.2549372,0.83 53.4415438,0.83 L53.4415438,0.83 Z M55.9885935,40.7359007 C55.9885935,42.1425974 54.8482405,43.2829503 53.4415438,43.2829503 L5.26409933,43.2829503 C3.85740265,43.2829503 2.71704967,42.1425974 2.71704967,40.7359007 L2.71704967,5.92409933 C2.71704967,4.51740265 3.85740265,3.37704967 5.26409933,3.37704967 L53.4415438,3.37704967 C54.8482405,3.37704967 55.9885935,4.51740265 55.9885935,5.92409933 L55.9885935,40.7359007 L55.9885935,40.7359007 Z M17.7828485,15.0552724 C18.0219872,15.2941452 18.1563563,15.6182859 18.1563563,15.9562912 C18.1563563,16.2942965 18.0219872,16.6184372 17.7828485,16.85731 L12.1602363,22.4799222 C11.6626174,22.9775411 10.8558176,22.9775411 10.3581987,22.4799222 C9.86057974,21.9823032 9.86057973,21.1755035 10.3581987,20.6778845 L15.0829758,15.9531074 L10.3072577,11.1773893 C9.80963872,10.6797703 9.80963872,9.87297059 10.3072577,9.37535163 C10.8048766,8.87773268 11.6116764,8.87773268 12.1092953,9.37535163 L17.7828485,15.0552724 Z M31.2631088,21.5820872 C31.2631088,22.2854355 30.6929323,22.855612 29.989584,22.855612 L20.7565289,22.855612 C20.0531806,22.855612 19.4830041,22.2854355 19.4830041,21.5820872 C19.4830041,20.8787388 20.0531806,20.3085623 20.7565289,20.3085623 L29.989584,20.3085623 C30.6929323,20.3085623 31.2631088,20.8787388 31.2631088,21.5820872 L31.2631088,21.5820872 Z" id="Shape" fill="#FFFFFF"></path></g></svg>
