<?xml version="1.0" encoding="UTF-8" standalone="no"?>
<svg width="18px" height="18px" viewBox="0 0 18 18" version="1.1" xmlns="http://www.w3.org/2000/svg" xmlns:xlink="http://www.w3.org/1999/xlink">
    <!-- Generator: Sketch 3.7 (28169) - http://www.bohemiancoding.com/sketch -->
    <title>Shape</title>
    <desc>Created with Sketch.</desc>
    <defs></defs>
    <g id="Symbols" stroke="none" stroke-width="1" fill="none" fill-rule="evenodd">
        <g id="Footer" transform="translate(-1205.000000, -255.000000)">
            <rect id="Rectangle-1-Copy" x="0" y="0" width="1400" height="415"></rect>
            <path d="M1213.57394,261.477417 C1212.24539,259.115767 1210.8239,257.189467 1210.7202,257.047611 C1208.57672,258.061145 1206.97717,260.036361 1206.47725,262.41562 C1206.67879,262.419534 1209.88374,262.457688 1213.57394,261.477417 L1213.57394,261.477417 Z M1214.53074,264.060166 C1214.63052,264.027882 1214.73227,263.997554 1214.83303,263.968205 C1214.64031,263.530898 1214.42997,263.092614 1214.20985,262.661177 C1210.25159,263.846894 1206.45377,263.760802 1206.31975,263.756889 C1206.31681,263.839067 1206.3129,263.919289 1206.3129,264.001467 C1206.3129,265.976683 1207.05935,267.778738 1208.28518,269.139573 L1208.28029,269.133703 C1208.28029,269.133703 1210.38366,265.402413 1214.53074,264.060166 L1214.53074,264.060166 Z M1209.27523,270.060166 L1209.27523,270.056253 C1209.21849,270.012229 1209.15783,269.972118 1209.10109,269.924181 C1209.20479,270.007337 1209.27523,270.060166 1209.27523,270.060166 L1209.27523,270.060166 Z M1212.15832,256.53791 C1212.15148,256.539866 1212.14365,256.541823 1212.14365,256.541823 C1212.14952,256.539866 1212.15735,256.539866 1212.15735,256.539866 L1212.15832,256.53791 L1212.15832,256.53791 Z M1219.07598,258.23235 C1217.722,257.040763 1215.94636,256.313876 1213.99951,256.313876 C1213.37437,256.313876 1212.76879,256.390184 1212.18767,256.530083 C1212.30507,256.686613 1213.74808,258.603131 1215.06196,261.014675 C1217.95973,259.929724 1219.05446,258.263656 1219.07598,258.23235 L1219.07598,258.23235 Z M1213.99951,273.000978 C1209.02968,273.000978 1205,268.971303 1205,264.001467 C1204.99902,259.029675 1209.0287,255 1213.99951,255 C1218.9713,255 1223,259.029675 1223,264.001467 C1223,268.971303 1218.9713,273.000978 1213.99951,273.000978 L1213.99951,273.000978 Z M1215.30654,265.258601 C1210.79553,266.830752 1209.30556,269.991684 1209.27523,270.056253 C1210.5803,271.074678 1212.21604,271.686124 1213.99853,271.686124 C1215.06294,271.686124 1216.07745,271.469917 1216.99902,271.078591 C1216.88554,270.404533 1216.43845,268.049731 1215.35643,265.240991 C1215.34078,265.246861 1215.32415,265.252731 1215.30654,265.258601 L1215.30654,265.258601 Z M1215.65286,262.161259 C1215.83287,262.52617 1216.0031,262.898907 1216.16452,263.275558 C1216.22224,263.407631 1216.27605,263.54166 1216.33083,263.672754 C1218.985,263.33817 1221.59905,263.905593 1221.68515,263.923202 C1221.66656,262.100603 1221.01402,260.428665 1219.9369,259.117724 C1219.91929,259.140225 1218.68564,260.920757 1215.65286,262.161259 L1215.65286,262.161259 Z M1216.79847,264.885863 C1217.80711,267.660362 1218.21604,269.916354 1218.29431,270.375183 C1220.02006,269.210011 1221.24686,267.361976 1221.58829,265.219468 C1221.43568,265.170553 1219.28339,264.488668 1216.79847,264.885863 L1216.79847,264.885863 Z" id="Shape" fill="#B8C0C9"></path>
        </g>
    </g>
</svg>
