<?xml version="1.0" encoding="UTF-8" standalone="no"?>
<svg width="18px" height="18px" viewBox="0 0 18 18" version="1.1" xmlns="http://www.w3.org/2000/svg" xmlns:xlink="http://www.w3.org/1999/xlink">
    <!-- Generator: Sketch 3.7 (28169) - http://www.bohemiancoding.com/sketch -->
    <title>Shape</title>
    <desc>Created with Sketch.</desc>
    <defs></defs>
    <g id="Symbols" stroke="none" stroke-width="1" fill="none" fill-rule="evenodd">
        <g id="Footer" transform="translate(-1050.000000, -255.000000)">
            <rect id="Rectangle-1-Copy" x="0" y="0" width="1400" height="415"></rect>
            <path d="M1052,255 C1050.9,255 1050,255.9 1050,257 L1050,271 C1050,272.101 1050.9,273 1052,273 L1059,273 L1059,266 L1057,266 L1057,263.525 L1059,263.525 L1059,261.475 C1059,259.311 1060.212,257.791 1062.766,257.791 L1064.569,257.793 L1064.569,260.398 L1063.372,260.398 C1062.378,260.398 1062,261.144 1062,261.836 L1062,263.526 L1064.568,263.526 L1064,266 L1062,266 L1062,273 L1066,273 C1067.1,273 1068,272.101 1068,271 L1068,257 C1068,255.9 1067.1,255 1066,255 L1052,255 Z" id="Shape" fill="#B8C0C9"></path>
        </g>
    </g>
</svg>