<?xml version="1.0" encoding="UTF-8" standalone="no"?>
<svg width="18px" height="15px" viewBox="0 0 18 15" version="1.1" xmlns="http://www.w3.org/2000/svg" xmlns:xlink="http://www.w3.org/1999/xlink">
    <!-- Generator: Sketch 3.7 (28169) - http://www.bohemiancoding.com/sketch -->
    <title>Shape</title>
    <desc>Created with Sketch.</desc>
    <defs></defs>
    <g id="Symbols" stroke="none" stroke-width="1" fill="none" fill-rule="evenodd">
        <g id="Footer" transform="translate(-1088.000000, -257.000000)">
            <rect id="Rectangle-1-Copy" x="0" y="0" width="1400" height="415"></rect>
            <path d="M1100.11087,265.758654 C1099.40848,265.758654 1098.83913,266.534615 1098.83913,267.488462 C1098.83913,268.444231 1099.40848,269.220192 1100.11087,269.220192 C1100.81326,269.220192 1101.38261,268.444231 1101.38261,267.488462 C1101.38163,266.534615 1100.81326,265.758654 1100.11087,265.758654 L1100.11087,265.758654 Z M1104.53848,261.255769 C1104.68424,260.904808 1104.69011,258.910577 1103.91728,257 C1103.91728,257 1102.14565,257.191346 1099.46522,259 C1098.90272,258.846154 1097.95087,258.771154 1097.00098,258.771154 C1096.04913,258.771154 1095.09826,258.846154 1094.53576,259 C1091.85435,257.191346 1090.08272,257 1090.08272,257 C1089.31087,258.910577 1089.3187,260.904808 1089.4625,261.255769 C1088.55467,262.225 1088,263.389423 1088,264.977885 C1088,271.8875 1093.83337,271.998077 1095.30467,271.998077 C1095.63924,271.998077 1096.30054,272 1097.00098,272 C1097.70043,272 1098.36272,271.998077 1098.69533,271.998077 C1100.16859,271.998077 1106,271.8875 1106,264.977885 C1106,263.389423 1105.4463,262.225 1104.53848,261.255769 L1104.53848,261.255769 Z M1097.02739,271.149038 L1096.97261,271.149038 C1093.28359,271.149038 1090.40946,270.717308 1090.40946,267.192308 C1090.40946,266.347115 1090.71272,265.564423 1091.4337,264.914423 C1092.63402,263.830769 1094.66685,264.403846 1096.97261,264.403846 L1097.00098,264.403846 L1097.02739,264.403846 C1099.33315,264.403846 1101.36696,263.830769 1102.56826,264.914423 C1103.28728,265.564423 1103.59054,266.347115 1103.59054,267.192308 C1103.59054,270.717308 1100.71739,271.149038 1097.02739,271.149038 L1097.02739,271.149038 Z M1093.89011,265.758654 C1093.18772,265.758654 1092.61837,266.534615 1092.61837,267.488462 C1092.61837,268.444231 1093.18772,269.220192 1093.89011,269.220192 C1094.59348,269.220192 1095.16283,268.444231 1095.16283,267.488462 C1095.16283,266.534615 1094.59348,265.758654 1093.89011,265.758654 L1093.89011,265.758654 Z" id="Shape" fill="#B8C0C9"></path>
        </g>
    </g>
</svg>