<svg width="18" height="15" viewBox="0 0 18 15" xmlns="http://www.w3.org/2000/svg"><g fill="none"><path d="M-1088-257h1400v415h-1400z"/><path d="M12.111 8.759c-.702 0-1.272.776-1.272 1.73 0 .956.569 1.732 1.272 1.732.702 0 1.272-.776 1.272-1.732-.001-.954-.569-1.73-1.272-1.73zm4.428-4.503c.146-.351.152-2.345-.621-4.256 0 0-1.772.191-4.452 2-.563-.154-1.514-.229-2.464-.229-.952 0-1.903.075-2.465.229-2.681-1.809-4.453-2-4.453-2-.772 1.911-.764 3.905-.62 4.256-.908.969-1.463 2.134-1.463 3.722 0 6.91 5.833 7.02 7.305 7.02l1.696.002 1.694-.002c1.473 0 7.305-.111 7.305-7.02 0-1.588-.554-2.753-1.462-3.722zm-7.511 9.893h-.055c-3.689 0-6.563-.432-6.563-3.957 0-.845.303-1.628 1.024-2.278 1.2-1.084 3.233-.511 5.539-.511h.054c2.306 0 4.34-.573 5.541.511.719.65 1.022 1.433 1.022 2.278 0 3.525-2.873 3.957-6.563 3.957zm-3.137-5.39c-.702 0-1.272.776-1.272 1.73 0 .956.569 1.732 1.272 1.732.703 0 1.273-.776 1.273-1.732 0-.954-.569-1.73-1.273-1.73z" fill="#B8C0C9"/></g></svg>
