<?xml version="1.0" encoding="UTF-8" standalone="no"?>
<svg width="18px" height="18px" viewBox="0 0 18 18" version="1.1" xmlns="http://www.w3.org/2000/svg" xmlns:xlink="http://www.w3.org/1999/xlink">
    <!-- Generator: Sketch 3.7 (28169) - http://www.bohemiancoding.com/sketch -->
    <title>Shape</title>
    <desc>Created with Sketch.</desc>
    <defs></defs>
    <g id="Symbols" stroke="none" stroke-width="1" fill="none" fill-rule="evenodd">
        <g id="Footer" transform="translate(-1126.000000, -255.000000)">
            <rect id="Rectangle-1-Copy" x="0" y="0" width="1400" height="415"></rect>
            <path d="M1130,257 C1130,258.1 1129.3,259 1128,259 C1126.8,259 1126,258.1 1126,257.1 C1126,256 1126.8,255 1128,255 C1129.2,255 1130,255.9 1130,257 L1130,257 Z M1126,273 L1130,273 L1130,260 L1126,260 L1126,273 L1126,273 Z M1139.6,260.2 C1137.5,260.2 1136.3,261.4 1135.8,262.2 L1135.7,262.2 L1135.5,260.5 L1131.9,260.5 C1131.9,261.6 1132,262.9 1132,264.4 L1132,273 L1136,273 L1136,265.9 C1136,265.5 1136,265.2 1136.1,264.9 C1136.4,264.2 1136.9,263.3 1138,263.3 C1139.4,263.3 1140,264.5 1140,266.1 L1140,273 L1144,273 L1144,265.6 C1144,261.9 1142.1,260.2 1139.6,260.2 L1139.6,260.2 Z" id="Shape" fill="#B8C0C9"></path>
        </g>
    </g>
</svg>
