<?xml version="1.0" encoding="UTF-8" standalone="no"?>
<svg width="178px" height="28px" viewBox="0 0 178 28" version="1.1" xmlns="http://www.w3.org/2000/svg" xmlns:xlink="http://www.w3.org/1999/xlink">
    <!-- Generator: Sketch 3.6.1 (26313) - http://www.bohemiancoding.com/sketch -->
    <title>Page 1</title>
    <desc>Created with Sketch.</desc>
    <defs></defs>
    <g id="Mobile-design" stroke="none" stroke-width="1" fill="none" fill-rule="evenodd" opacity="0.7">
        <g id="Pricing-mobile" transform="translate(-71.000000, -6269.000000)" fill="#B8C0C9">
            <g id="Group-6" transform="translate(-9.000000, 5485.000000)">
                <g id="Group-11" transform="translate(9.000000, 704.000000)">
                    <path d="M186.125339,93.9077591 C186.125339,88.6923494 182.358654,84.4427564 177.046663,84.4427564 C171.734672,84.4427564 168.064569,88.6923494 168.064569,93.9077591 C168.064569,99.1231687 171.831253,103.372762 177.143245,103.372762 C182.455236,103.372762 186.125339,99.1231687 186.125339,93.9077591 L186.125339,93.9077591 Z M186.318502,107.139447 L186.318502,104.241997 C183.903961,106.366793 180.716766,107.622355 177.046663,107.622355 C172.024417,107.622355 167.967987,105.304395 165.553445,101.827455 C163.138904,105.304395 159.082474,107.622355 154.060228,107.622355 C145.850787,107.622355 140.152469,101.441129 140.152469,93.9077591 C140.152469,86.3743896 145.947368,80.0965817 154.060228,80.0965817 C157.440586,80.0965817 160.434617,81.1589799 162.752577,82.9940315 C161.786761,84.2495931 161.014107,85.6017363 160.338036,87.0504612 C158.696148,85.408573 156.571351,84.3461747 153.963646,84.3461747 C148.651655,84.3461747 144.981552,88.5957678 144.981552,93.8111774 C144.981552,99.0265871 148.748237,103.27618 154.060228,103.27618 C159.372219,103.27618 163.042322,99.0265871 163.042322,93.8111774 C163.042322,86.2778079 168.837222,80 176.950081,80 C185.159523,80 190.85784,86.1812263 190.85784,93.7145958 L190.85784,107.042865 L186.318502,107.042865 L186.318502,107.139447 Z M88.2881172,82.5111232 C85.9701574,80.9658166 83.2658709,80.1931633 80.0786761,80.1931633 C74.7666848,80.1931633 71,83.2837765 71,87.9196961 C71,92.8453608 74.1871948,94.4872491 79.8855128,95.935974 C84.8111774,97.0949539 85.8735757,98.0607705 85.8735757,99.9924037 C85.8735757,102.020619 84.0385241,103.372762 81.1410743,103.372762 C78.5333695,103.372762 76.5051546,102.600109 74.4769398,101.247965 L72.3521432,105.01465 C74.9598481,106.656538 77.9538795,107.525773 81.0444927,107.525773 C86.646229,107.525773 90.5094954,104.531742 90.5094954,99.5094954 C90.5094954,95.066739 87.6120456,93.0385241 82.0103093,91.6863809 C76.8914813,90.4308193 75.7325014,89.5615844 75.7325014,87.4367878 C75.7325014,85.698318 77.3743896,84.2495931 80.0786761,84.2495931 C82.1068909,84.2495931 84.1351058,84.9256647 86.1633207,86.1812263 L88.2881172,82.5111232 Z M206.697233,80.1931633 C199.453608,80.1931633 194.91427,84.3461747 194.91427,92.3624525 L194.91427,107.139447 L199.839935,107.139447 L199.839935,92.5556158 C199.839935,87.4367878 202.544221,84.6359197 206.890396,84.6359197 C211.236571,84.6359197 213.940857,87.4367878 213.940857,92.5556158 L213.940857,107.139447 L218.866522,107.139447 L218.866522,92.3624525 C218.866522,84.3461747 214.230602,80.1931633 207.083559,80.1931633 L206.697233,80.1931633 L206.697233,80.1931633 Z M244.074335,93.9077591 C244.074335,99.1231687 240.404232,103.372762 235.092241,103.372762 C229.78025,103.372762 226.013565,99.1231687 226.013565,93.9077591 C226.013565,88.6923494 229.683668,84.4427564 234.995659,84.4427564 C240.307651,84.3461747 244.074335,88.6923494 244.074335,93.9077591 L244.074335,93.9077591 Z M249,93.8111774 C249,86.2778079 243.301682,80.0965817 235.092241,80.0965817 C226.8828,80.0965817 221.184482,86.3743896 221.184482,93.9077591 C221.184482,101.441129 226.8828,107.622355 235.092241,107.622355 C243.301682,107.622355 249,101.344547 249,93.8111774 L249,93.8111774 Z M113.882257,107.139447 L118.71134,107.139447 L118.71134,92.3624525 C118.71134,87.2436245 121.415627,84.6359197 125.66522,84.6359197 C130.011394,84.6359197 132.715681,87.4367878 132.715681,92.5556158 L132.715681,107.139447 L137.544764,107.139447 L137.544764,92.3624525 C137.544764,84.3461747 132.908844,80.1931633 125.761801,80.1931633 C118.518177,80.1931633 113.785676,84.3461747 113.785676,92.6521975 L113.785676,107.139447 L113.882257,107.139447 Z M115.427564,80.57949 L104.803581,98.1573521 L104.803581,107.139447 L99.9744981,107.139447 L99.9744981,98.2539338 L89.3505155,80.4829083 L94.7590884,80.57949 L102.38904,93.8111774 L110.018991,80.57949 L115.427564,80.57949 Z" id="Page-1"></path>
                </g>
            </g>
        </g>
    </g>
</svg>