<svg width="178" height="28" viewBox="0 0 178 28" xmlns="http://www.w3.org/2000/svg"><path d="M115.125 13.908c0-5.215-3.767-9.465-9.079-9.465-5.312 0-8.982 4.25-8.982 9.465s3.767 9.465 9.079 9.465c5.312 0 8.982-4.25 8.982-9.465zm.193 13.232v-2.897c-2.415 2.125-5.602 3.38-9.272 3.38-5.022 0-9.079-2.318-11.493-5.795-2.415 3.477-6.471 5.795-11.493 5.795-8.209 0-13.908-6.181-13.908-13.715 0-7.533 5.795-13.811 13.908-13.811 3.38 0 6.374 1.062 8.692 2.897-.966 1.256-1.738 2.608-2.415 4.056-1.642-1.642-3.767-2.704-6.374-2.704-5.312 0-8.982 4.25-8.982 9.465s3.767 9.465 9.079 9.465c5.312 0 8.982-4.25 8.982-9.465 0-7.533 5.795-13.811 13.908-13.811 8.209 0 13.908 6.181 13.908 13.715v13.328h-4.539v.097zm-98.03-24.628c-2.318-1.545-5.022-2.318-8.209-2.318-5.312 0-9.079 3.091-9.079 7.727 0 4.926 3.187 6.568 8.886 8.016 4.926 1.159 5.988 2.125 5.988 4.056 0 2.028-1.835 3.38-4.733 3.38-2.608 0-4.636-.773-6.664-2.125l-2.125 3.767c2.608 1.642 5.602 2.511 8.692 2.511 5.602 0 9.465-2.994 9.465-8.016 0-4.443-2.897-6.471-8.499-7.823-5.119-1.256-6.278-2.125-6.278-4.25 0-1.738 1.642-3.187 4.346-3.187 2.028 0 4.056.676 6.085 1.932l2.125-3.67zm118.409-2.318c-7.244 0-11.783 4.153-11.783 12.169v14.777h4.926v-14.584c0-5.119 2.704-7.92 7.05-7.92s7.05 2.801 7.05 7.92v14.584h4.926v-14.777c0-8.016-4.636-12.169-11.783-12.169h-.386zm37.377 13.715c0 5.215-3.67 9.465-8.982 9.465-5.312 0-9.079-4.25-9.079-9.465s3.67-9.465 8.982-9.465c5.312-.097 9.079 4.25 9.079 9.465zm4.926-.097c0-7.533-5.698-13.715-13.908-13.715-8.209 0-13.908 6.278-13.908 13.811s5.698 13.715 13.908 13.715c8.209 0 13.908-6.278 13.908-13.811zm-135.118 13.328h4.829v-14.777c0-5.119 2.704-7.727 6.954-7.727 4.346 0 7.05 2.801 7.05 7.92v14.584h4.829v-14.777c0-8.016-4.636-12.169-11.783-12.169-7.244 0-11.976 4.153-11.976 12.459v14.487h.097zm1.545-26.56l-10.624 17.578v8.982h-4.829v-8.886l-10.624-17.771 5.409.097 7.63 13.232 7.63-13.232h5.409z" fill="#B8C0C9" opacity=".7"/></svg>
