<?xml version="1.0" encoding="UTF-8" standalone="no"?>
<svg width="18px" height="18px" viewBox="0 0 18 18" version="1.1" xmlns="http://www.w3.org/2000/svg" xmlns:xlink="http://www.w3.org/1999/xlink">
    <!-- Generator: Sketch 3.7 (28169) - http://www.bohemiancoding.com/sketch -->
    <title>Shape</title>
    <desc>Created with Sketch.</desc>
    <defs></defs>
    <g id="Symbols" stroke="none" stroke-width="1" fill="none" fill-rule="evenodd">
        <g id="Footer" transform="translate(-1165.000000, -255.000000)">
            <rect id="Rectangle-1-Copy" x="0" y="0" width="1400" height="415"></rect>
            <path d="M1181.43149,263.394231 C1181.87861,263.394231 1182.2518,263.540264 1182.55108,263.832332 C1182.85036,264.124399 1183,264.490385 1183,264.930289 C1183,265.629808 1182.66466,266.098558 1181.99399,266.336538 L1180.13341,266.97476 L1180.73918,268.78125 C1180.78966,268.932692 1180.8149,269.102164 1180.8149,269.289664 C1180.8149,269.715144 1180.66346,270.082933 1180.36058,270.393029 C1180.05769,270.703125 1179.69351,270.858173 1179.26803,270.858173 C1178.92909,270.858173 1178.62079,270.760817 1178.34315,270.566106 C1178.0655,270.371394 1177.8726,270.111779 1177.76442,269.78726 L1177.16947,268.002404 L1173.81611,269.149039 L1174.41106,270.923077 C1174.46875,271.096154 1174.4976,271.265625 1174.4976,271.431491 C1174.4976,271.856971 1174.34615,272.22476 1174.04327,272.534856 C1173.74038,272.844952 1173.3726,273 1172.9399,273 C1172.60096,273 1172.29447,272.902645 1172.02043,272.707933 C1171.74639,272.513221 1171.55529,272.253606 1171.44712,271.929087 L1170.85216,270.165866 L1169.19712,270.739183 C1168.98798,270.804087 1168.80769,270.836539 1168.65625,270.836539 C1168.21635,270.836539 1167.85036,270.692308 1167.55829,270.403846 C1167.26623,270.115385 1167.12019,269.751202 1167.12019,269.311298 C1167.12019,268.972356 1167.21935,268.665866 1167.41767,268.391827 C1167.61599,268.117789 1167.8738,267.926683 1168.19111,267.81851 L1169.87861,267.245192 L1168.74279,263.859375 L1167.05529,264.44351 C1166.86779,264.501202 1166.69471,264.530048 1166.53606,264.530048 C1166.10337,264.530048 1165.73918,264.384015 1165.44351,264.091947 C1165.14784,263.79988 1165,263.4375 1165,263.004808 C1165,262.665866 1165.09916,262.359375 1165.29748,262.085337 C1165.49579,261.811298 1165.75361,261.620192 1166.07091,261.512019 L1167.76923,260.938702 L1167.19591,259.21875 C1167.13822,259.045673 1167.10938,258.876202 1167.10938,258.710337 C1167.10938,258.277644 1167.26082,257.908053 1167.5637,257.601563 C1167.86659,257.295073 1168.23437,257.141827 1168.66707,257.141827 C1169.00601,257.141827 1169.3125,257.239183 1169.58654,257.433894 C1169.86058,257.628606 1170.05168,257.888222 1170.15986,258.212741 L1170.74399,259.94351 L1174.09736,258.807693 L1173.51322,257.076923 C1173.45553,256.903846 1173.42668,256.734375 1173.42668,256.56851 C1173.42668,256.143029 1173.57993,255.775241 1173.88642,255.465145 C1174.19291,255.155048 1174.55889,255 1174.98437,255 C1175.32332,255 1175.63161,255.099159 1175.90926,255.297476 C1176.1869,255.495794 1176.37981,255.753606 1176.48798,256.070914 L1177.0613,257.8125 L1178.8137,257.217548 C1178.96514,257.174279 1179.12019,257.152645 1179.27885,257.152645 C1179.71154,257.152645 1180.08113,257.295073 1180.38762,257.579928 C1180.69411,257.864784 1180.84736,258.219952 1180.84736,258.645433 C1180.84736,258.969952 1180.73918,259.263823 1180.52284,259.527044 C1180.30649,259.790265 1180.03966,259.975962 1179.72236,260.084135 L1178.02404,260.66827 L1179.15986,264.086538 L1180.93389,263.480769 C1181.10697,263.423077 1181.27284,263.394231 1181.43149,263.394231 L1181.43149,263.394231 Z M1172.84255,266.228366 L1176.19591,265.092548 L1175.0601,261.685097 L1171.70673,262.842548 L1172.84255,266.228366 Z" id="Shape" fill="#B8C0C9"></path>
        </g>
    </g>
</svg>