<?xml version="1.0" encoding="UTF-8" standalone="no"?>
<svg width="18px" height="15px" viewBox="0 0 18 15" version="1.1" xmlns="http://www.w3.org/2000/svg" xmlns:xlink="http://www.w3.org/1999/xlink">
    <!-- Generator: Sketch 3.7 (28169) - http://www.bohemiancoding.com/sketch -->
    <title>Shape</title>
    <desc>Created with Sketch.</desc>
    <defs></defs>
    <g id="Symbols" stroke="none" stroke-width="1" fill="none" fill-rule="evenodd">
        <g id="Footer" transform="translate(-1012.000000, -257.000000)">
            <rect id="Rectangle-1-Copy" x="0" y="0" width="1400" height="415"></rect>
            <path d="M1028.15696,260.733949 C1028.16478,260.896469 1028.16772,261.060995 1028.16772,261.223515 C1028.16772,266.229535 1024.45326,272 1017.6612,272 C1015.57457,272 1013.63467,271.372994 1012,270.297552 C1012.28957,270.332665 1012.58304,270.350722 1012.88043,270.350722 C1014.61196,270.350722 1016.20359,269.744783 1017.46652,268.730538 C1015.85141,268.699438 1014.48674,267.605939 1014.01717,266.101124 C1014.24217,266.144262 1014.47402,266.167335 1014.71174,266.167335 C1015.04924,266.167335 1015.37598,266.122191 1015.68511,266.035915 C1013.99565,265.686798 1012.72293,264.156902 1012.72293,262.321027 L1012.72293,262.273876 C1013.22087,262.557785 1013.7912,262.728331 1014.39576,262.748395 C1013.40478,262.068218 1012.75228,260.910514 1012.75228,259.595305 C1012.75228,258.902087 1012.93424,258.251003 1013.25315,257.691212 C1015.0737,259.983547 1017.7962,261.490369 1020.865,261.648876 C1020.80239,261.370987 1020.77011,261.083066 1020.77011,260.785112 C1020.77011,258.694422 1022.42239,257 1024.46207,257 C1025.52446,257 1026.48413,257.458467 1027.15815,258.194823 C1027.99848,258.024278 1028.78891,257.70927 1029.50304,257.275883 C1029.22717,258.159711 1028.6412,258.902087 1027.87913,259.370586 C1028.62652,259.278291 1029.33674,259.076645 1030,258.774679 C1029.505,259.535112 1028.87891,260.201244 1028.15696,260.733949 L1028.15696,260.733949 Z" id="Shape" fill="#B8C0C9"></path>
        </g>
    </g>
</svg>