<svg width="18" height="15" viewBox="0 0 18 15" xmlns="http://www.w3.org/2000/svg"><g fill="none"><path d="M-1012-257h1400v415h-1400z"/><path d="M16.157 3.734l.011.49c0 5.006-3.714 10.776-10.507 10.776-2.087 0-4.027-.627-5.661-1.702.29.035.583.053.88.053 1.732 0 3.323-.606 4.586-1.62-1.615-.031-2.98-1.125-3.449-2.629.225.043.457.066.695.066.338 0 .664-.045.973-.131-1.689-.349-2.962-1.879-2.962-3.715v-.047c.498.284 1.068.454 1.673.475-.991-.68-1.643-1.838-1.643-3.153 0-.693.182-1.344.501-1.904 1.821 2.292 4.543 3.799 7.612 3.958-.063-.278-.095-.566-.095-.864 0-2.091 1.652-3.785 3.692-3.785 1.062 0 2.022.458 2.696 1.195.84-.171 1.631-.486 2.345-.919-.276.884-.862 1.626-1.624 2.095.747-.092 1.458-.294 2.121-.596-.495.76-1.121 1.427-1.843 1.959z" fill="#B8C0C9"/></g></svg>
