<?xml version="1.0" encoding="UTF-8"?><svg width="78px" height="38px" viewBox="0 0 78 38" version="1.1" xmlns="http://www.w3.org/2000/svg" xmlns:xlink="http://www.w3.org/1999/xlink"><g id="Page-1" stroke="none" stroke-width="1" fill="none" fill-rule="evenodd"><g id="arrow" fill="#000000"><path d="M77.999835,18.99992 C77.999835,18.53712 77.719935,17.92262 77.435935,17.62442 L61.436235,0.62416 C60.689235,-0.14814 59.479035,-0.23764 58.608135,0.54616 C57.829535,1.24686 57.810135,2.61346 58.530135,3.37436 L71.373635,16.99952 L2.000165,16.99952 C0.895565,16.99952 0.000165,17.89492 0.000165,18.99952 C0.000165,20.10412 0.895565,20.99962 2.000165,20.99962 L71.373635,20.99962 L58.530135,34.62482 C57.810235,35.38562 57.861335,36.71862 58.608135,37.45292 C59.396635,38.22812 60.700635,38.15912 61.436235,37.37492 L77.435935,20.37472 C77.906035,19.91362 77.991935,19.46952 77.999835,18.99992 Z" id="Shape"></path></g></g></svg>
