<svg width="1440" height="2617" viewBox="0 0 1440 2617" fill="none" xmlns="http://www.w3.org/2000/svg">
<path d="M1218.73 500.806C1237.87 534.011 1280.31 545.407 1313.51 526.229L1440 453.181L1440 2547L0.000610352 2547L0.000654677 643.66L833.291 162.406L881.711 134.429C914.906 115.289 957.31 126.645 976.483 159.849C995.618 193.054 984.265 235.471 951.07 254.649L748.217 371.824C715.06 390.964 703.669 433.42 722.842 466.624C741.977 499.829 784.419 511.223 817.614 492.045L1262.79 234.945C1295.99 215.804 1338.39 227.161 1357.57 260.365C1376.7 293.57 1365.35 335.987 1332.15 355.165L1296.4 375.81L1283.28 383.406L1244.15 406.006C1210.95 425.146 1199.56 467.602 1218.73 500.806Z" fill="url(#paint0_linear)"/>
<path d="M154.294 292.097C173.467 325.301 215.872 336.657 249.067 317.517C282.261 298.376 293.614 255.921 274.48 222.717C255.307 189.513 212.902 178.156 179.745 197.297L179.707 197.297C146.512 216.475 135.159 258.892 154.294 292.097Z" fill="url(#paint1_linear)"/>
<defs>
<linearGradient id="paint0_linear" x1="720" y1="2547" x2="720" y2="-1816.38" gradientUnits="userSpaceOnUse">
<stop stop-color="#5162AA"/>
<stop offset="1" stop-color="#313A75"/>
</linearGradient>
<linearGradient id="paint1_linear" x1="214.387" y1="326.813" x2="214.387" y2="76.719" gradientUnits="userSpaceOnUse">
<stop stop-color="#5162AA"/>
<stop offset="1" stop-color="#313A75"/>
</linearGradient>
</defs>
</svg>
