<?xml version="1.0" encoding="iso-8859-1"?><svg xmlns="http://www.w3.org/2000/svg" xmlns:xlink="http://www.w3.org/1999/xlink" version="1.1" id="Layer_1" x="0px" y="0px" viewBox="0 0 512 512" style="enable-background:new 0 0 512 512;" xml:space="preserve" width="512px" height="512px"><g><g><g><path d="M268.18,162.303l-2.993,21.876c-0.55,4.023,1.157,8.023,4.441,10.41c1.918,1.393,4.191,2.105,6.479,2.105     c1.631,0,3.272-0.363,4.794-1.098l19.88-9.605l19.88,9.605c3.656,1.767,7.985,1.38,11.272-1.007     c3.284-2.387,4.991-6.386,4.441-10.408l-2.992-21.876l15.278-15.94c2.81-2.931,3.781-7.17,2.526-11.031     c-1.255-3.861-4.531-6.72-8.527-7.44l-21.729-3.914l-10.439-19.457c-1.919-3.578-5.65-5.81-9.711-5.81     c-4.061,0-7.791,2.233-9.711,5.81l-10.439,19.457l-21.729,3.914c-3.995,0.72-7.272,3.579-8.526,7.44     c-1.255,3.861-0.284,8.101,2.526,11.031L268.18,162.303z M289.779,144.725c3.31-0.597,6.168-2.672,7.757-5.636l3.244-6.047     l3.244,6.047c1.589,2.963,4.447,5.039,7.757,5.636l6.753,1.217l-4.749,4.954c-2.327,2.429-3.419,5.787-2.963,9.119l0.93,6.798     l-6.178-2.985c-1.514-0.732-3.154-1.098-4.795-1.098s-3.281,0.366-4.795,1.098l-6.178,2.984l0.931-6.797     c0.455-3.333-0.636-6.691-2.963-9.119l-4.749-4.955L289.779,144.725z" fill="#FFFFFF"/><path d="M171.294,136.681h51.244c6.085,0,11.02-4.934,11.02-11.02s-4.935-11.02-11.02-11.02h-51.244     c-6.085,0-11.02,4.934-11.02,11.02S165.209,136.681,171.294,136.681z" fill="#FFFFFF"/><path d="M171.294,180.762h51.244c6.085,0,11.02-4.934,11.02-11.02c0-6.086-4.935-11.02-11.02-11.02h-51.244     c-6.085,0-11.02,4.934-11.02,11.02C160.274,175.828,165.209,180.762,171.294,180.762z" fill="#FFFFFF"/><path d="M268.18,276.814l-2.993,21.876c-0.55,4.022,1.157,8.023,4.441,10.409c3.285,2.388,7.615,2.774,11.273,1.007l19.88-9.605     l19.88,9.605c1.523,0.735,3.161,1.098,4.794,1.098c2.288,0,4.562-0.712,6.479-2.105c3.284-2.387,4.991-6.386,4.441-10.409     l-2.992-21.876l15.278-15.94c2.81-2.931,3.781-7.17,2.526-11.031c-1.255-3.861-4.531-6.72-8.527-7.44l-21.729-3.914     l-10.439-19.457c-1.919-3.578-5.65-5.81-9.711-5.81c-4.061,0-7.791,2.233-9.711,5.81l-10.439,19.457l-21.729,3.914     c-3.995,0.72-7.272,3.579-8.526,7.44c-1.255,3.861-0.284,8.101,2.526,11.031L268.18,276.814z M289.779,259.237     c3.31-0.597,6.168-2.672,7.757-5.636l3.244-6.047l3.244,6.047c1.589,2.963,4.447,5.04,7.757,5.636l6.753,1.217l-4.749,4.954     c-2.327,2.429-3.419,5.787-2.963,9.119l0.93,6.799l-6.178-2.985c-1.514-0.732-3.154-1.098-4.795-1.098s-3.281,0.366-4.795,1.098     l-6.178,2.984l0.931-6.798c0.455-3.332-0.636-6.691-2.963-9.119l-4.749-4.955L289.779,259.237z" fill="#FFFFFF"/><path d="M171.294,251.194h51.244c6.085,0,11.02-4.934,11.02-11.02s-4.935-11.02-11.02-11.02h-51.244     c-6.085,0-11.02,4.934-11.02,11.02S165.209,251.194,171.294,251.194z" fill="#FFFFFF"/><path d="M171.294,295.274h51.244c6.085,0,11.02-4.934,11.02-11.02s-4.935-11.02-11.02-11.02h-51.244     c-6.085,0-11.02,4.934-11.02,11.02C160.274,290.34,165.209,295.274,171.294,295.274z" fill="#FFFFFF"/><path d="M268.18,391.328l-2.993,21.875c-0.55,4.022,1.157,8.023,4.441,10.409c1.918,1.394,4.191,2.105,6.479,2.105     c1.631,0,3.272-0.363,4.794-1.098l19.88-9.605l19.88,9.605c3.656,1.767,7.987,1.379,11.272-1.007s4.991-6.386,4.441-10.409     l-2.992-21.876l15.278-15.939c2.81-2.931,3.781-7.17,2.526-11.031c-1.255-3.861-4.53-6.721-8.526-7.44l-21.731-3.915     l-10.439-19.457c-1.919-3.578-5.65-5.81-9.711-5.81c-4.061,0-7.791,2.233-9.711,5.81l-10.439,19.457l-21.729,3.915     c-3.996,0.72-7.272,3.578-8.526,7.44c-1.255,3.861-0.284,8.1,2.526,11.031L268.18,391.328z M289.781,373.748     c3.31-0.596,6.167-2.671,7.756-5.636l3.244-6.047l3.244,6.047c1.589,2.963,4.445,5.039,7.756,5.636l6.754,1.217l-4.749,4.953     c-2.327,2.428-3.419,5.786-2.963,9.119l0.93,6.799l-6.178-2.985c-1.514-0.732-3.154-1.098-4.795-1.098s-3.281,0.366-4.795,1.098     l-6.178,2.985l0.931-6.798c0.455-3.332-0.636-6.691-2.963-9.119l-4.749-4.954L289.781,373.748z" fill="#FFFFFF"/><path d="M171.294,365.706h51.244c6.085,0,11.02-4.934,11.02-11.02s-4.935-11.02-11.02-11.02h-51.244     c-6.085,0-11.02,4.934-11.02,11.02S165.209,365.706,171.294,365.706z" fill="#FFFFFF"/><path d="M171.294,409.786h51.244c6.085,0,11.02-4.934,11.02-11.02s-4.935-11.02-11.02-11.02h-51.244     c-6.085,0-11.02,4.934-11.02,11.02S165.209,409.786,171.294,409.786z" fill="#FFFFFF"/><path d="M424.509,16.53h-77.593v-5.51c0-6.086-4.935-11.02-11.02-11.02H176.105c-6.085,0-11.02,4.934-11.02,11.02v5.51H87.491     c-6.085,0-11.02,4.934-11.02,11.02v473.43c0,6.086,4.935,11.02,11.02,11.02h337.018c6.085,0,11.02-4.934,11.02-11.02V27.55     C435.529,21.464,430.596,16.53,424.509,16.53z M187.125,22.04h137.751v38.57H187.125V22.04z M369.409,82.651v363.228H142.591     V82.651H369.409z M413.489,489.96H98.511V38.57h66.574v22.04h-33.513c-6.085,0-11.02,4.934-11.02,11.02v385.269     c0,6.086,4.935,11.02,11.02,11.02h248.857c6.085,0,11.02-4.934,11.02-11.02V71.631c0-6.086-4.935-11.02-11.02-11.02h-33.512     V38.57h66.573V489.96z" fill="#FFFFFF"/></g></g></g><g></g><g></g><g></g><g></g><g></g><g></g><g></g><g></g><g></g><g></g><g></g><g></g><g></g><g></g><g></g></svg>
