<?xml version="1.0" encoding="UTF-8"?>
<svg width="300px" height="427px" viewBox="0 0 300 427" version="1.1" xmlns="http://www.w3.org/2000/svg" xmlns:xlink="http://www.w3.org/1999/xlink">
    <!-- Generator: Sketch 41.2 (35397) - http://www.bohemiancoding.com/sketch -->
    <title>improve-your-skills-with-tutorials</title>
    <desc>Created with Sketch.</desc>
    <defs></defs>
    <g id="Page-1" stroke="none" stroke-width="1" fill="none" fill-rule="evenodd">
        <g id="improve-your-skills-with-tutorials" fill="#FFFFFF">
            <path d="M160.15,135.2525 L157.655833,153.4825 C157.1975,156.835 158.62,160.168333 161.356667,162.1575 C162.955,163.318333 164.849167,163.911667 166.755833,163.911667 C168.115,163.911667 169.4825,163.609167 170.750833,162.996667 L187.3175,154.9925 L203.884167,162.996667 C206.930833,164.469167 210.538333,164.146667 213.2775,162.1575 C216.014167,160.168333 217.436667,156.835833 216.978333,153.484167 L214.485,135.254167 L227.216667,121.970833 C229.558333,119.528333 230.3675,115.995833 229.321667,112.778333 C228.275833,109.560833 225.545833,107.178333 222.215833,106.578333 L204.108333,103.316667 L195.409167,87.1025 C193.81,84.1208333 190.700833,82.2608333 187.316667,82.2608333 C183.9325,82.2608333 180.824167,84.1216667 179.224167,87.1025 L170.525,103.316667 L152.4175,106.578333 C149.088333,107.178333 146.3575,109.560833 145.3125,112.778333 C144.266667,115.995833 145.075833,119.529167 147.4175,121.970833 L160.15,135.2525 Z M178.149167,120.604167 C180.9075,120.106667 183.289167,118.3775 184.613333,115.9075 L187.316667,110.868333 L190.02,115.9075 C191.344167,118.376667 193.725833,120.106667 196.484167,120.604167 L202.111667,121.618333 L198.154167,125.746667 C196.215,127.770833 195.305,130.569167 195.685,133.345833 L196.46,139.010833 L191.311667,136.523333 C190.05,135.913333 188.683333,135.608333 187.315833,135.608333 C185.948333,135.608333 184.581667,135.913333 183.32,136.523333 L178.171667,139.01 L178.9475,133.345833 C179.326667,130.568333 178.4175,127.77 176.478333,125.746667 L172.520833,121.6175 L178.149167,120.604167 Z" id="Shape"></path>
            <path d="M79.4116667,113.900833 L122.115,113.900833 C127.185833,113.900833 131.298333,109.789167 131.298333,104.7175 C131.298333,99.6458333 127.185833,95.5341667 122.115,95.5341667 L79.4116667,95.5341667 C74.3408333,95.5341667 70.2283333,99.6458333 70.2283333,104.7175 C70.2283333,109.789167 74.3408333,113.900833 79.4116667,113.900833 Z" id="Shape"></path>
            <path d="M79.4116667,150.635 L122.115,150.635 C127.185833,150.635 131.298333,146.523333 131.298333,141.451667 C131.298333,136.38 127.185833,132.268333 122.115,132.268333 L79.4116667,132.268333 C74.3408333,132.268333 70.2283333,136.38 70.2283333,141.451667 C70.2283333,146.523333 74.3408333,150.635 79.4116667,150.635 Z" id="Shape"></path>
            <path d="M160.15,230.678333 L157.655833,248.908333 C157.1975,252.26 158.62,255.594167 161.356667,257.5825 C164.094167,259.5725 167.7025,259.894167 170.750833,258.421667 L187.3175,250.4175 L203.884167,258.421667 C205.153333,259.034167 206.518333,259.336667 207.879167,259.336667 C209.785833,259.336667 211.680833,258.743333 213.278333,257.5825 C216.015,255.593333 217.4375,252.260833 216.979167,248.908333 L214.485833,230.678333 L227.2175,217.395 C229.559167,214.9525 230.368333,211.42 229.3225,208.2025 C228.276667,204.985 225.546667,202.6025 222.216667,202.0025 L204.109167,198.740833 L195.41,182.526667 C193.810833,179.545 190.701667,177.685 187.3175,177.685 C183.933333,177.685 180.825,179.545833 179.225,182.526667 L170.525833,198.740833 L152.418333,202.0025 C149.089167,202.6025 146.358333,204.985 145.313333,208.2025 C144.2675,211.42 145.076667,214.953333 147.418333,217.395 L160.15,230.678333 Z M178.149167,216.030833 C180.9075,215.533333 183.289167,213.804167 184.613333,211.334167 L187.316667,206.295 L190.02,211.334167 C191.344167,213.803333 193.725833,215.534167 196.484167,216.030833 L202.111667,217.045 L198.154167,221.173333 C196.215,223.1975 195.305,225.995833 195.685,228.7725 L196.46,234.438333 L191.311667,231.950833 C190.05,231.340833 188.683333,231.035833 187.315833,231.035833 C185.948333,231.035833 184.581667,231.340833 183.32,231.950833 L178.171667,234.4375 L178.9475,228.7725 C179.326667,225.995833 178.4175,223.196667 176.478333,221.173333 L172.520833,217.044167 L178.149167,216.030833 Z" id="Shape"></path>
            <path d="M79.4116667,209.328333 L122.115,209.328333 C127.185833,209.328333 131.298333,205.216667 131.298333,200.145 C131.298333,195.073333 127.185833,190.961667 122.115,190.961667 L79.4116667,190.961667 C74.3408333,190.961667 70.2283333,195.073333 70.2283333,200.145 C70.2283333,205.216667 74.3408333,209.328333 79.4116667,209.328333 Z" id="Shape"></path>
            <path d="M79.4116667,246.061667 L122.115,246.061667 C127.185833,246.061667 131.298333,241.95 131.298333,236.878333 C131.298333,231.806667 127.185833,227.695 122.115,227.695 L79.4116667,227.695 C74.3408333,227.695 70.2283333,231.806667 70.2283333,236.878333 C70.2283333,241.95 74.3408333,246.061667 79.4116667,246.061667 Z" id="Shape"></path>
            <path d="M160.15,326.106667 L157.655833,344.335833 C157.1975,347.6875 158.62,351.021667 161.356667,353.01 C162.955,354.171667 164.849167,354.764167 166.755833,354.764167 C168.115,354.764167 169.4825,354.461667 170.750833,353.849167 L187.3175,345.845 L203.884167,353.849167 C206.930833,355.321667 210.54,354.998333 213.2775,353.01 C216.015,351.021667 217.436667,347.688333 216.978333,344.335833 L214.485,326.105833 L227.216667,312.823333 C229.558333,310.380833 230.3675,306.848333 229.321667,303.630833 C228.275833,300.413333 225.546667,298.03 222.216667,297.430833 L204.1075,294.168333 L195.408333,277.954167 C193.809167,274.9725 190.7,273.1125 187.315833,273.1125 C183.931667,273.1125 180.823333,274.973333 179.223333,277.954167 L170.524167,294.168333 L152.416667,297.430833 C149.086667,298.030833 146.356667,300.4125 145.311667,303.630833 C144.265833,306.848333 145.075,310.380833 147.416667,312.823333 L160.15,326.106667 Z M178.150833,311.456667 C180.909167,310.96 183.29,309.230833 184.614167,306.76 L187.3175,301.720833 L190.020833,306.76 C191.345,309.229167 193.725,310.959167 196.484167,311.456667 L202.1125,312.470833 L198.155,316.598333 C196.215833,318.621667 195.305833,321.42 195.685833,324.1975 L196.460833,329.863333 L191.3125,327.375833 C190.050833,326.765833 188.684167,326.460833 187.316667,326.460833 C185.949167,326.460833 184.5825,326.765833 183.320833,327.375833 L178.1725,329.863333 L178.948333,324.198333 C179.3275,321.421667 178.418333,318.6225 176.479167,316.599167 L172.521667,312.470833 L178.150833,311.456667 Z" id="Shape"></path>
            <path d="M79.4116667,304.755 L122.115,304.755 C127.185833,304.755 131.298333,300.643333 131.298333,295.571667 C131.298333,290.5 127.185833,286.388333 122.115,286.388333 L79.4116667,286.388333 C74.3408333,286.388333 70.2283333,290.5 70.2283333,295.571667 C70.2283333,300.643333 74.3408333,304.755 79.4116667,304.755 Z" id="Shape"></path>
            <path d="M79.4116667,341.488333 L122.115,341.488333 C127.185833,341.488333 131.298333,337.376667 131.298333,332.305 C131.298333,327.233333 127.185833,323.121667 122.115,323.121667 L79.4116667,323.121667 C74.3408333,323.121667 70.2283333,327.233333 70.2283333,332.305 C70.2283333,337.376667 74.3408333,341.488333 79.4116667,341.488333 Z" id="Shape"></path>
            <path d="M290.424167,13.775 L225.763333,13.775 L225.763333,9.18333333 C225.763333,4.11166667 221.650833,2.27373675e-13 216.58,2.27373675e-13 L83.4208333,2.27373675e-13 C78.35,2.27373675e-13 74.2375,4.11166667 74.2375,9.18333333 L74.2375,13.775 L9.57583333,13.775 C4.505,13.775 0.3925,17.8866667 0.3925,22.9583333 L0.3925,417.483333 C0.3925,422.555 4.505,426.666667 9.57583333,426.666667 L290.424167,426.666667 C295.495,426.666667 299.6075,422.555 299.6075,417.483333 L299.6075,22.9583333 C299.6075,17.8866667 295.496667,13.775 290.424167,13.775 Z M92.6041667,18.3666667 L207.396667,18.3666667 L207.396667,50.5083333 L92.6041667,50.5083333 L92.6041667,18.3666667 Z M244.5075,68.8758333 L244.5075,371.565833 L55.4925,371.565833 L55.4925,68.8758333 L244.5075,68.8758333 Z M281.240833,408.3 L18.7591667,408.3 L18.7591667,32.1416667 L74.2375,32.1416667 L74.2375,50.5083333 L46.31,50.5083333 C41.2391667,50.5083333 37.1266667,54.62 37.1266667,59.6916667 L37.1266667,380.749167 C37.1266667,385.820833 41.2391667,389.9325 46.31,389.9325 L253.690833,389.9325 C258.761667,389.9325 262.874167,385.820833 262.874167,380.749167 L262.874167,59.6925 C262.874167,54.6208333 258.761667,50.5091667 253.690833,50.5091667 L225.764167,50.5091667 L225.764167,32.1416667 L281.241667,32.1416667 L281.241667,408.3 L281.240833,408.3 Z" id="Shape"></path>
        </g>
    </g>
</svg>
