<svg xmlns="http://www.w3.org/2000/svg" viewBox="0 0 432 432" width="512" height="512"><g fill="#0070d3"><path d="M308.77 0H123.23C99.251 0 79.742 19.509 79.742 43.488v345.023c0 23.979 19.509 43.488 43.488 43.488h185.54c23.979 0 43.488-19.509 43.488-43.488V43.488C352.258 19.509 332.749 0 308.77 0zM123.23 20h185.54c12.951 0 23.488 10.537 23.488 23.488v9.673H99.742v-9.673C99.742 30.537 110.279 20 123.23 20zm209.028 53.161v283.462H99.742V73.161h232.516zM308.77 412H123.23c-12.952 0-23.488-10.537-23.488-23.488v-11.888h232.516v11.888c0 12.951-10.537 23.488-23.488 23.488z"/><path d="M216.003 385.419c-2.63 0-5.21 1.07-7.07 2.93-1.87 1.86-2.93 4.44-2.93 7.07s1.06 5.21 2.93 7.07c1.86 1.86 4.44 2.93 7.07 2.93s5.21-1.07 7.069-2.93c1.86-1.86 2.931-4.44 2.931-7.07s-1.07-5.21-2.931-7.07a10.072 10.072 0 0 0-7.069-2.93zM139.373 215.663l31.113 31.112c1.953 1.953 4.512 2.929 7.071 2.929s5.119-.977 7.071-2.929c3.905-3.905 3.905-10.237 0-14.142l-24.042-24.041 24.042-24.042c3.905-3.905 3.905-10.237 0-14.143-3.905-3.904-10.237-3.904-14.143 0l-31.113 31.113a10.001 10.001 0 0 0 .001 14.143zM247.372 246.775a9.968 9.968 0 0 0 7.071 2.929 9.972 9.972 0 0 0 7.071-2.929l31.113-31.112a10.001 10.001 0 0 0 0-14.142l-31.113-31.113c-3.906-3.905-10.236-3.905-14.143 0-3.905 3.905-3.905 10.237 0 14.142l24.042 24.042-24.042 24.041c-3.904 3.905-3.904 10.237.001 14.142zM201.629 274.404c.651.128 1.299.189 1.938.189 4.683 0 8.865-3.306 9.802-8.074l22-112c1.064-5.419-2.466-10.676-7.885-11.74a9.994 9.994 0 0 0-11.74 7.885l-22 112c-1.065 5.419 2.466 10.676 7.885 11.74z"/></g></svg>
