<?xml version="1.0" encoding="iso-8859-1"?><!DOCTYPE svg PUBLIC "-//W3C//DTD SVG 1.1//EN" "http://www.w3.org/Graphics/SVG/1.1/DTD/svg11.dtd"><svg xmlns="http://www.w3.org/2000/svg" xmlns:xlink="http://www.w3.org/1999/xlink" version="1.1" viewBox="0 0 432 432" enable-background="new 0 0 432 432" width="512px" height="512px"><g><path d="M308.77,0H123.23C99.251,0,79.742,19.509,79.742,43.488v345.023c0,23.979,19.509,43.488,43.488,43.488h185.54   c23.979,0,43.488-19.509,43.488-43.488V43.488C352.258,19.509,332.749,0,308.77,0z M123.23,20h185.54   c12.951,0,23.488,10.537,23.488,23.488v9.673H99.742v-9.673C99.742,30.537,110.279,20,123.23,20z M332.258,73.161v283.462H99.742   V73.161H332.258z M308.77,412H123.23c-12.952,0-23.488-10.537-23.488-23.488v-11.888h232.516v11.888   C332.258,401.463,321.721,412,308.77,412z" fill="#0070d3"/><path d="m216.003,385.419c-2.63,0-5.21,1.07-7.07,2.93-1.87,1.86-2.93,4.44-2.93,7.07s1.06,5.21 2.93,7.07c1.86,1.86 4.44,2.93 7.07,2.93 2.63,0 5.21-1.07 7.069-2.93 1.86-1.86 2.931-4.44 2.931-7.07s-1.07-5.21-2.931-7.07c-1.859-1.86-4.439-2.93-7.069-2.93z" fill="#0070d3"/><path d="m139.373,215.663l31.113,31.112c1.953,1.953 4.512,2.929 7.071,2.929s5.119-0.977 7.071-2.929c3.905-3.905 3.905-10.237 0-14.142l-24.042-24.041 24.042-24.042c3.905-3.905 3.905-10.237 0-14.143-3.905-3.904-10.237-3.904-14.143,0l-31.113,31.113c-1.875,1.875-2.929,4.419-2.929,7.071s1.054,5.197 2.93,7.072z" fill="#0070d3"/><path d="m247.372,246.775c1.953,1.953 4.512,2.929 7.071,2.929 2.559,0 5.118-0.977 7.071-2.929l31.113-31.112c1.875-1.875 2.929-4.419 2.929-7.071s-1.054-5.196-2.929-7.071l-31.113-31.113c-3.906-3.905-10.236-3.905-14.143,0-3.905,3.905-3.905,10.237 0,14.142l24.042,24.042-24.042,24.041c-3.904,3.905-3.904,10.237 0.001,14.142z" fill="#0070d3"/><path d="m201.629,274.404c0.651,0.128 1.299,0.189 1.938,0.189 4.683,0 8.865-3.306 9.802-8.074l22-112c1.064-5.419-2.466-10.676-7.885-11.74-5.429-1.065-10.677,2.466-11.74,7.885l-22,112c-1.065,5.419 2.466,10.676 7.885,11.74z" fill="#0070d3"/></g></svg>
