<?xml version="1.0" encoding="UTF-8" standalone="no"?>
<svg
xmlns:dc="http://purl.org/dc/elements/1.1/"
xmlns:cc="http://creativecommons.org/ns#"
xmlns:rdf="http://www.w3.org/1999/02/22-rdf-syntax-ns#"
xmlns:svg="http://www.w3.org/2000/svg"
xmlns="http://www.w3.org/2000/svg"
xmlns:xlink="http://www.w3.org/1999/xlink"
xmlns:sodipodi="http://sodipodi.sourceforge.net/DTD/sodipodi-0.dtd"
xmlns:inkscape="http://www.inkscape.org/namespaces/inkscape"
width="371"
height="229"
viewBox="0 0 371 229"
id="svg2"
version="1.1"
inkscape:version="0.91 r13725"
sodipodi:docname="customize-individual-features-as-sockets-06f9bba429f2e64aa2e793dab40c1377.svg">
<metadata
id="metadata62">
<rdf:RDF>
<cc:Work
rdf:about="">
<dc:format>image/svg+xml</dc:format>
<dc:type
rdf:resource="http://purl.org/dc/dcmitype/StillImage" />
<dc:title />
</cc:Work>
</rdf:RDF>
</metadata>
<sodipodi:namedview
pagecolor="#ffffff"
bordercolor="#666666"
borderopacity="1"
objecttolerance="10"
gridtolerance="10"
guidetolerance="10"
inkscape:pageopacity="0"
inkscape:pageshadow="2"
inkscape:window-width="1920"
inkscape:window-height="1017"
id="namedview60"
showgrid="false"
inkscape:zoom="2.8284271"
inkscape:cx="157.64355"
inkscape:cy="109.03835"
inkscape:window-x="-8"
inkscape:window-y="-8"
inkscape:window-maximized="1"
inkscape:current-layer="g14"
inkscape:object-paths="true"
inkscape:snap-smooth-nodes="true"
showguides="true"
inkscape:guide-bbox="true" />
<defs
id="defs4">
<rect
id="a"
width="160"
height="138"
rx="2" />
<mask
id="b"
x="-4"
y="-4"
width="168"
height="146">
<path
fill="#fff"
d="M-4-4h168v146h-168z"
id="path8" />
<use
xlink:href="#a"
id="use10" />
</mask>
</defs>
<g
transform="translate(-616 -977) translate(618 978)"
fill="none"
id="g12">
<g
id="g14">
<path
d="m 120,40.017593 8.43324,0 c 5,0 6,5 6,10 l 0,68.214117"
id="path16"
inkscape:connector-curvature="0"
style="stroke:#ffcc01;stroke-width:2;stroke-linejoin:round;stroke-dasharray:4"
sodipodi:nodetypes="cssc" />
<path
d="m 42.370179,139.56497 -0.353554,10.42157 c -0.203434,5.99655 2.001087,6.11418 8,6 l 84.247045,-1.60355 c 5.99891,-0.11418 6,-10 6,-10 l 0.70711,-26.44329"
id="path18"
inkscape:connector-curvature="0"
style="stroke:#e54d26;stroke-width:2;stroke-linejoin:round;stroke-dasharray:4;stroke-opacity:1"
sodipodi:nodetypes="cssscc" />
<path
d="m 38.823629,39.89868 0,-34.0200003 c 0,-5 6.46967,-3.8786797 6.46967,-3.8786797 L 143.94365,1.5 c 4.99993,-0.025342 6,3 6,8 l 0,104.76956"
id="path20"
inkscape:connector-curvature="0"
style="stroke:#49b9e8;stroke-width:2;stroke-linejoin:round;stroke-dasharray:4"
sodipodi:nodetypes="cscssc" />
<g
stroke-width="4"
stroke="#373D44"
stroke-linejoin="round"
id="g22">
<text
xml:space="preserve"
style="font-style:normal;font-weight:normal;font-size:40px;line-height:125%;font-family:sans-serif;letter-spacing:0px;word-spacing:0px;fill:#000000;fill-opacity:1;stroke:none;stroke-width:1px;stroke-linecap:butt;stroke-linejoin:miter;stroke-opacity:1"
x="65.5"
y="79"
id="text4262"
sodipodi:linespacing="125%"><tspan
sodipodi:role="line"
id="tspan4264"
x="65.5"
y="79"
style="font-style:normal;font-variant:normal;font-weight:bold;font-stretch:normal;font-size:25px;font-family:ROBOTO;-inkscape-font-specification:'ROBOTO Bold'" /></text>
<g
id="g4312"
transform="translate(15.909903,-15.556349)">
<path
sodipodi:nodetypes="ccccccc"
style="fill:#ffcc01;fill-opacity:1"
inkscape:connector-curvature="0"
id="path27-0-9-2"
d="m 102.5,39.537329 0,67.925341 -56,0 0,-55.927131 6.164214,-5.98044 6.429378,-6.01777 z" />
<text
sodipodi:linespacing="125%"
id="text4266"
y="78.387695"
x="66.544067"
style="font-style:normal;font-weight:normal;font-size:40px;line-height:125%;font-family:sans-serif;letter-spacing:0px;word-spacing:0px;fill:#ffffff;fill-opacity:1;stroke:none;stroke-width:1px;stroke-linecap:butt;stroke-linejoin:miter;stroke-opacity:1"
xml:space="preserve"><tspan
style="font-style:normal;font-variant:normal;font-weight:bold;font-stretch:normal;font-size:13.75px;font-family:Roboto;-inkscape-font-specification:'Roboto Bold';fill:#ffffff;fill-opacity:1"
y="78.387695"
x="66.544067"
id="tspan4268"
sodipodi:role="line">JS</tspan></text>
</g>
<g
id="g4317"
transform="translate(5.4800775,-14.142136)">
<path
sodipodi:nodetypes="ccccccc"
style="fill:#49b9e8;fill-opacity:1"
inkscape:connector-curvature="0"
id="path27-0-9-0"
d="m 55.5,23.787329 0,67.925341 -56.00000011,0 0,-55.927131 6.16421401,-5.98044 6.4293781,-6.01777 z" />
<text
sodipodi:linespacing="125%"
id="text4266-2"
y="62.637695"
x="14.501953"
style="font-style:normal;font-weight:normal;font-size:40px;line-height:125%;font-family:sans-serif;letter-spacing:0px;word-spacing:0px;fill:#ffffff;fill-opacity:1;stroke:none;stroke-width:1px;stroke-linecap:butt;stroke-linejoin:miter;stroke-opacity:1"
xml:space="preserve"><tspan
style="font-style:normal;font-variant:normal;font-weight:bold;font-stretch:normal;font-size:13.75px;font-family:Roboto;-inkscape-font-specification:'Roboto Bold';fill:#ffffff;fill-opacity:1"
y="62.637695"
x="14.501953"
id="tspan4268-7"
sodipodi:role="line">CSS</tspan></text>
</g>
<g
id="g4322">
<path
sodipodi:nodetypes="ccccccc"
style="fill:#e54d26;fill-opacity:1"
inkscape:connector-curvature="0"
id="path27-0-9"
d="m 70.25,69.787327 0,67.925343 -56,0 0,-55.927133 6.164214,-5.98044 6.429378,-6.01777 z" />
<text
inkscape:transform-center-y="11.5"
inkscape:transform-center-x="-5.25"
sodipodi:linespacing="125%"
id="text4266-2-9"
y="108.6377"
x="23.17926"
style="font-style:normal;font-weight:normal;font-size:40px;line-height:125%;font-family:sans-serif;letter-spacing:0px;word-spacing:0px;fill:#ffffff;fill-opacity:1;stroke:none;stroke-width:1px;stroke-linecap:butt;stroke-linejoin:miter;stroke-opacity:1"
xml:space="preserve"><tspan
id="tspan4306"
style="font-style:normal;font-variant:normal;font-weight:bold;font-stretch:normal;font-size:13.75px;font-family:Roboto;-inkscape-font-specification:'Roboto Bold';fill:#ffffff;fill-opacity:1"
y="108.6377"
x="23.17926"
sodipodi:role="line">HTML</tspan></text>
</g>
</g>
<path
d="m 201.25,120.25 c -2.761,0 -5,2.239 -5,5 0,2.761 2.239,5 5,5 2.761,0 2.761,-10 0,-10 z"
id="Oval-50"
inkscape:connector-curvature="0"
style="fill:#903eb9;fill-opacity:1" />
<g
id="g34">
<g
transform="translate(205 23)"
id="g36">
<g
id="Rectangle-121">
<use
xlink:href="#a"
id="use39"
fill="#fff" />
<use
mask="url(#b)"
xlink:href="#a"
id="use41"
style="stroke-linecap:butt"
stroke-width="8"
stroke="#373D44" />
</g>
<rect
style="fill:none;fill-opacity:1;stroke:#ffffff;stroke-width:4.99625397;stroke-linecap:butt;stroke-linejoin:bevel;stroke-miterlimit:4;stroke-dasharray:none;stroke-dashoffset:0;stroke-opacity:1"
id="rect4180"
width="155.24911"
height="113.52982"
x="2.3724163"
y="22.281698"
rx="2.2061992" />
<path
d="M 0,16 48.795878,16 160,16 160,20 0,20 Z"
id="path43"
inkscape:connector-curvature="0"
style="fill:#373d44"
sodipodi:nodetypes="cccccc" />
<path
d="m 151,41 -141,0 0,50 141,0 z m 0,55 -68,0 0,35 68,0 z m -73,0 -68,0 0,35 68,0 z"
id="path45"
inkscape:connector-curvature="0"
style="fill:#e3e6ea"
sodipodi:nodetypes="ccccccccccccccc" />
<rect
width="160"
height="16"
rx="2"
id="rect47"
fill="#DEE2E5" />
<path
d="M0 12h160v4h-160z"
id="path49"
fill="#DEE2E5" />
<circle
id="Oval-66"
cx="8"
cy="8"
r="3"
fill="#373D44" />
<circle
id="circle52"
cx="16"
cy="8"
r="3"
fill="#373D44" />
<circle
cx="24"
cy="8"
r="3"
id="circle54"
fill="#373D44" />
<path
d="m -0.12175313,20 48.85904313,0 111.34806,0 0,4 -160.20710313,0 z"
id="path43-4"
inkscape:connector-curvature="0"
style="fill:#ffffff;fill-opacity:1"
sodipodi:nodetypes="cccccc" />
</g>
<path
d="M301 52h15v3h-15zM215 52h25v3h-25zM321 52h5v3h-5zM331 52h25v3h-25z"
id="path56"
fill="#B8C0C9" />
</g>
</g>
<ellipse
cx="195.5"
cy="198"
rx="164.5"
ry="10"
id="ellipse58"
style="opacity:0.3;fill:#e5e7ea" />
<rect
style="fill:#373d44;fill-opacity:1;stroke:none;stroke-opacity:1"
id="rect4329"
width="56.922096"
height="25.102291"
x="107.9551"
y="111.68093"
rx="2" />
<text
xml:space="preserve"
style="font-style:normal;font-weight:normal;font-size:40px;line-height:125%;font-family:sans-serif;letter-spacing:0px;word-spacing:0px;fill:#000000;fill-opacity:1;stroke:none;stroke-width:1px;stroke-linecap:butt;stroke-linejoin:miter;stroke-opacity:1"
x="123.37111"
y="129.23055"
id="text4331"
sodipodi:linespacing="125%"><tspan
sodipodi:role="line"
id="tspan4333"
x="123.37111"
y="129.23055"
style="font-style:normal;font-variant:normal;font-weight:bold;font-stretch:normal;font-size:13.75px;font-family:sans-serif;-inkscape-font-specification:'sans-serif Bold';fill:#ffffff;fill-opacity:1">CLI</tspan></text>
<path
style="fill:none;fill-rule:evenodd;stroke:#903eb9;stroke-width:2;stroke-linecap:butt;stroke-linejoin:round;stroke-miterlimit:4;stroke-dasharray:4;stroke-dashoffset:0;stroke-opacity:1"
d="m 164.8772,125 31.47286,0"
id="path4337"
inkscape:connector-curvature="0"
sodipodi:nodetypes="cc" />
</g>
</svg>
