<svg width="1290" height="709" viewBox="0 0 1290 709" version="1.1" xmlns="http://www.w3.org/2000/svg" xmlns:xlink="http://www.w3.org/1999/xlink" xmlns:figma="http://www.figma.com/figma/ns">
<title>Polygons_background</title>
<desc>Created using Figma</desc>
<g id="Canvas" transform="translate(-55 -3020)" figma:type="canvas">
<g id="Polygons_background" figma:type="frame">
<g id="Polygon Copy 48" opacity="0.05" figma:type="vector">
<use xlink:href="#path0_fill" transform="matrix(0.866025 -0.5 0.5 0.866025 447 3540.57)" fill="#FFFFFF"/>
</g>
<g id="Polygon Copy 84" opacity="0.05" figma:type="vector">
<use xlink:href="#path0_fill" transform="matrix(0.866025 -0.5 0.5 0.866025 874 3540.57)" fill="#FFFFFF"/>
</g>
<g id="Polygon Copy 91" opacity="0.05" figma:type="vector">
<use xlink:href="#path0_fill" transform="matrix(0.866025 -0.5 0.5 0.866025 43 3470.57)" fill="#FFFFFF"/>
</g>
<g id="Polygon Copy 85" opacity="0.1" figma:type="vector">
<use xlink:href="#path1_fill" transform="matrix(0.866025 -0.5 0.5 0.866025 774 3267.92)" fill="#FFFFFF"/>
</g>
<g id="Polygon Copy 86" opacity="0.05" figma:type="vector">
<use xlink:href="#path1_fill" transform="matrix(0.866025 -0.5 0.5 0.866025 376 3264.92)" fill="#FFFFFF"/>
</g>
<g id="Polygon Copy 97" opacity="0.05" figma:type="vector">
<use xlink:href="#path1_fill" transform="matrix(0.866025 -0.5 0.5 0.866025 135 3045.92)" fill="#FFFFFF"/>
</g>
<g id="Polygon Copy 98" opacity="0.05" figma:type="vector">
<use xlink:href="#path1_fill" transform="matrix(0.866025 -0.5 0.5 0.866025 1119 3203.92)" fill="#FFFFFF"/>
</g>
<g id="Polygon Copy 99" opacity="0.05" figma:type="vector">
<use xlink:href="#path2_fill" transform="matrix(0.866025 -0.5 0.5 0.866025 1230.34 3664.57)" fill="#FFFFFF"/>
</g>
<g id="Polygon Copy 87" opacity="0.05" figma:type="vector">
<use xlink:href="#path1_fill" transform="matrix(0.866025 -0.5 0.5 0.866025 584 3599.92)" fill="#FFFFFF"/>
</g>
<g id="Polygon Copy 88" opacity="0.05" figma:type="vector">
<use xlink:href="#path3_fill" transform="matrix(0.866025 -0.5 0.5 0.866025 981 3249.93)" fill="#FFFFFF"/>
</g>
<g id="Polygon Copy 100" opacity="0.05" figma:type="vector">
<use xlink:href="#path4_fill" transform="matrix(0.866025 -0.5 0.5 0.866025 258 3714.5)" fill="#FFFFFF"/>
</g>
<g id="Polygon Copy 101" opacity="0.1" figma:type="vector">
<use xlink:href="#path4_fill" transform="matrix(0.866025 -0.5 0.5 0.866025 1078 3513.5)" fill="#FFFFFF"/>
</g>
<g id="Polygon Copy 102" opacity="0.15" figma:type="vector">
<use xlink:href="#path4_fill" transform="matrix(0.866025 -0.5 0.5 0.866025 1162 3025.51)" fill="#FFFFFF"/>
</g>
<g id="Polygon Copy 93" opacity="0.05" figma:type="vector">
<use xlink:href="#path3_fill" transform="matrix(0.866025 -0.5 0.5 0.866025 625 3236.93)" fill="#FFFFFF"/>
</g>
<g id="Polygon Copy 94" opacity="0.05" figma:type="vector">
<use xlink:href="#path3_fill" transform="matrix(0.866025 -0.5 0.5 0.866025 780 3591.93)" fill="#FFFFFF"/>
</g>
<g id="Polygon Copy 95" opacity="0.05" figma:type="vector">
<use xlink:href="#path5_fill" transform="matrix(0.866025 -0.5 0.5 0.866025 1281.86 3296.42)" fill="#FFFFFF"/>
</g>
<g id="Polygon Copy 96" opacity="0.1" figma:type="vector">
<use xlink:href="#path5_fill" transform="matrix(0.866025 -0.5 0.5 0.866025 139 3520.96)" fill="#FFFFFF"/>
</g>
<g id="Polygon Copy 90" opacity="0.05" figma:type="vector">
<use xlink:href="#path3_fill" transform="matrix(0.866025 -0.5 0.5 0.866025 424 3051.93)" fill="#FFFFFF"/>
</g>
<g id="Polygon Copy 92" opacity="0.05" figma:type="vector">
<use xlink:href="#path3_fill" transform="matrix(0.866025 -0.5 0.5 0.866025 351 3507.93)" fill="#FFFFFF"/>
</g>
<g id="Polygon Copy 89" opacity="0.05" figma:type="vector">
<use xlink:href="#path6_fill" transform="matrix(0.866025 -0.5 0.5 0.866025 994 3385.13)" fill="#FFFFFF"/>
</g>
</g>
</g>
<defs>
<path id="path0_fill" fill-rule="evenodd" d="M 41.5692 0L 83.1384 24L 83.1384 72L 41.5692 96L 0 72L 0.191187 23.6698L 41.5692 0Z"/>
<path id="path1_fill" fill-rule="evenodd" d="M 29.9221 0L 59.8442 17.2755L 59.8442 51.8266L 29.9221 69.1021L 0 51.8266L 0.137619 17.0378L 29.9221 0Z"/>
<path id="path2_fill" fill-rule="evenodd" d="M 20.1001 0L 40.2001 11.6048L 40.2001 34.8143L 20.1001 46.4191L 0 34.8143L 0.0924452 11.4451L 20.1001 0Z"/>
<path id="path3_fill" fill-rule="evenodd" d="M 16.9336 0L 33.8672 9.77662L 33.8672 29.3299L 16.9336 39.1065L 0 29.3299L 0.0778818 9.64211L 16.9336 0Z"/>
<path id="path4_fill" fill-rule="evenodd" d="M 9.50502 0L 19.01 5.48773L 19.01 16.4632L 9.50502 21.9509L 0 16.4632L 0.0437159 5.41222L 9.50502 0Z"/>
<path id="path5_fill" fill-rule="evenodd" d="M 23.956 0L 47.912 13.831L 47.912 41.493L 23.956 55.324L 0 41.493L 0.110179 13.6407L 23.956 0Z"/>
<path id="path6_fill" fill-rule="evenodd" d="M 22.1292 0L 44.2585 12.7763L 44.2585 38.3289L 22.1292 51.1053L 0 38.3289L 0.101778 12.6005L 22.1292 0Z"/>
</defs>
</svg>
