<svg xmlns="http://www.w3.org/2000/svg" xmlns:xlink="http://www.w3.org/1999/xlink" width="42px" height="39px" viewBox="0 0 84 78">
  <defs>
    <path id="a" d="M78.802 32.94H0V.495h78.802z" />
  </defs>
  <g fill="none" fill-rule="evenodd">
    <g transform="translate(0 45)">
      <mask id="b" fill="#fff">
        <use xlink:href="#a" />
      </mask>
      <path d="M51.926 8.497H4c-2.21 0-4-1.79-4-4s1.79-4 4-4h47.926c2.21 0 4 1.79 4 4s-1.79 4-4 4" fill="#ffffff" mask="url(#b)" />
      <path d="M41.65 33c-3.904 0-7.76-.58-11.46-1.727a4 4 0 0 1-2.637-5.004c.654-2.12 2.9-3.3 5.005-2.64 2.932.91 5.99 1.37 9.092 1.37 13.573 0 25.358-8.71 29.327-21.68a3.995 3.995 0 0 1 4.995-2.65c2.112.64 3.3 2.88 2.654 4.99C73.622 22.01 58.762 33 41.65 33"
      fill="#fff" mask="url(#b)" />
    </g>
    <path d="M79.3 33.175H31.376c-2.21 0-4-1.79-4-4s1.79-4 4-4H79.3c2.21 0 4 1.79 4 4s-1.79 4-4 4" fill="#ffffff" />
    <path d="M8.5 33.176a4 4 0 0 1-3.825-5.172C9.68 11.654 24.54.672 41.65.672c3.907 0 7.763.58 11.46 1.728a4 4 0 0 1 2.637 5.005 3.995 3.995 0 0 1-5.005 2.636c-2.93-.9-5.99-1.36-9.092-1.36-13.57 0-25.357 8.71-29.326 21.68a4.003 4.003 0 0 1-3.823 2.83"
    fill="#fff" />
    <path d="M69.392 13.932a4 4 0 1 1-8 0 4 4 0 0 1 8 0M21.907 64.746a4 4 0 1 1-8 0 4 4 0 0 1 8 0" fill="#ffffff" />
  </g>
</svg>
