<svg width="45px" height="50px" viewBox="0 0 46 50" version="1.1" xmlns="http://www.w3.org/2000/svg" xmlns:xlink="http://www.w3.org/1999/xlink" xmlns:figma="http://www.figma.com/figma/ns">
<path fill="#FFFFFF" transform="translate(0, 6)" d="M 40.8984 20.6429C 40.4967 20.6429 40.0681 20.7232 39.6663 20.8571L 35.2734 22.3571L 32.4609 13.8929L 36.6663 12.4464C 38.1663 11.9375 39.452 10.5446 39.452 8.88393C 39.452 6.74107 37.6574 5.1875 35.5681 5.1875C 35.1663 5.1875 34.7913 5.24107 34.4163 5.34822L 30.077 6.82143L 28.6574 2.50893C 28.1217 0.928573 26.6217 -0.142858 24.9342 -0.142858C 22.8181 -0.142858 21.077 1.625 21.077 3.74107C 21.077 4.16964 21.1574 4.59822 21.2913 5L 22.7377 9.28572L 14.4342 12.0982L 12.9877 7.8125C 12.452 6.20536 10.9788 5.16072 9.29129 5.16072C 7.14844 5.16072 5.43415 6.92857 5.43415 9.04464C 5.43415 9.47322 5.51451 9.90178 5.64844 10.3036L 7.06808 14.5625L 2.86272 15.9821C 1.28237 16.5179 0.210938 18.0179 0.210938 19.6786C 0.210938 21.8214 1.87165 23.4554 4.01451 23.4554C 4.44308 23.4554 4.87165 23.375 5.30022 23.2411L 9.47879 21.7946L 12.2913 30.1786L 8.11272 31.5982C 6.53237 32.1339 5.46094 33.6339 5.46094 35.2946C 5.46094 37.4643 7.09487 39.0714 9.26451 39.0714C 9.71987 39.0714 10.1752 38.9643 10.6038 38.8304L 14.702 37.4107L 16.1752 41.7768C 16.7109 43.3839 18.1842 44.4286 19.8717 44.4286C 22.0145 44.4286 23.7288 42.6339 23.7288 40.5446C 23.7288 40.1161 23.6484 39.6875 23.5145 39.2857L 22.0413 34.8929L 30.3449 32.0536L 31.8181 36.4732C 32.3538 38.0804 33.8538 39.125 35.5413 39.125C 37.6574 39.125 39.3717 37.3571 39.3717 35.2411C 39.3717 34.8125 39.3181 34.3839 39.1842 33.9821L 37.6842 29.5089L 42.2913 27.9286C 43.8984 27.3661 44.7824 26.1607 44.7824 24.4464C 44.7824 22.25 43.0949 20.6429 40.8984 20.6429ZM 19.6306 27.6607L 16.8181 19.2768L 25.1217 16.4107L 27.9342 24.8482L 19.6306 27.6607Z"/>
</svg>
