<svg width="44" height="35" viewBox="0 0 44 35" version="1.1" xmlns="http://www.w3.org/2000/svg" xmlns:xlink="http://www.w3.org/1999/xlink">
<title>icn</title>
<desc>Created using Figma</desc>
<g id="Canvas" transform="translate(-699 -3303)">
<g id="icn">
<use xlink:href="#path-twitter_fill" transform="translate(698.5 3297)" fill="#FFFFFF"/>
</g>
</g>
<defs>
<path id="path-twitter_fill" d="M 43.6038 10.7857C 42.0502 11.4554 40.3627 11.9375 38.6217 12.125C 40.4163 11.0536 41.7824 9.36607 42.4252 7.35714C 40.7645 8.34822 38.8895 9.07143 36.9342 9.44643C 35.3538 7.75893 33.1038 6.71428 30.6127 6.71428C 25.8181 6.71428 21.9609 10.5982 21.9609 15.3661C 21.9609 16.0357 22.0413 16.7054 22.1752 17.3482C 14.9967 16.9732 8.59487 13.5446 4.33594 8.29464C 3.58594 9.58036 3.15737 11.0536 3.15737 12.6607C 3.15737 15.6607 4.68415 18.3125 7.01451 19.8661C 5.59487 19.8125 4.25558 19.4107 3.10379 18.7679C 3.10379 18.7946 3.10379 18.8482 3.10379 18.875C 3.10379 23.0804 6.07701 26.5625 10.0413 27.3661C 9.31808 27.5536 8.54129 27.6607 7.76451 27.6607C 7.20201 27.6607 6.66629 27.6071 6.13058 27.5268C 7.22879 30.9554 10.4163 33.4464 14.2199 33.5268C 11.2467 35.8571 7.52344 37.2232 3.47879 37.2232C 2.75558 37.2232 2.08594 37.1964 1.38951 37.1161C 5.21987 39.5804 9.77344 41 14.6752 41C 30.5859 41 39.2913 27.8214 39.2913 16.3839C 39.2913 16.0089 39.2913 15.6339 39.2645 15.2589C 40.952 14.0268 42.4252 12.5 43.6038 10.7857Z"/>
</defs>
</svg>
