<svg width="55" height="58" viewBox="0 0 55 58" version="1.1" xmlns="http://www.w3.org/2000/svg" xmlns:xlink="http://www.w3.org/1999/xlink">
<title>Icon/Firebase</title>

<g id="Canvas" transform="translate(-805 -3481)">
<g id="Icon/Firebase">
<g id="card-3" opacity="0.25">
<use xlink:href="#path-firebase-0_fill" transform="matrix(0.898119 -0.439752 0.436993 0.899465 797.011 3496.27)" fill="#FFFFFF"/>
</g>
<g id="card-2" opacity="0.5">
<use xlink:href="#path-firebase-1_fill" transform="matrix(0.955985 -0.293415 0.291332 0.956622 804.335 3501.12)" fill="#FFFFFF"/>
</g>
<g id="card-1">
<use xlink:href="#path-firebase-2_fill" transform="translate(812.749 3496.11)" fill="#FFFFFF"/>
</g>
</g>
</g>
<defs>
<path id="path-firebase-0_fill" fill-rule="evenodd" d="M 11.793 42.6583C 13.9979 42.6583 27.5361 31.5214 27.5361 31.5214C 27.5361 31.5214 26.5744 1.97397 26.5744 0.909797C 26.5744 -0.154381 25.0222 0.00901934 25.0222 0.00901934L 0 35.4546C 0 35.4546 9.58804 42.6583 11.793 42.6583Z"/>
<path id="path-firebase-1_fill" fill-rule="evenodd" d="M 15.0399 42.676C 17.2439 42.676 35.1204 32.357 35.1204 32.357C 35.1204 32.357 29.8152 1.97479 29.8152 0.910174C 29.8152 -0.154444 28.2636 0.00902308 28.2636 0.00902308L 0 28.6017C 0 28.6017 12.8359 42.676 15.0399 42.676Z"/>
<path id="path-firebase-2_fill" fill-rule="evenodd" d="M 19.095 42.6901C 21.2982 42.6901 39.1688 32.3678 39.1688 32.3678C 39.1688 32.3678 33.8653 1.97545 33.8653 0.910476C 33.8653 -0.154496 32.3142 0.00902608 32.3142 0.00902608L 0 32.1223C 0 32.1223 16.8917 42.6901 19.095 42.6901Z"/>
</defs>
</svg>
