<svg width="48" height="36" viewBox="0 0 48 36" version="1.1" xmlns="http://www.w3.org/2000/svg" xmlns:xlink="http://www.w3.org/1999/xlink">
<title>icn_registry</title>
<desc>Created using Figma</desc>
<g id="Canvas" transform="translate(-9793 -359)">
<g id="icn_registry">
<g id="socket" figma:type="vector-operation">
<use xlink:href="#path-sockets_fill" transform="translate(9793 359)" fill="#3637D1"/>
</g>
<g id="socket" figma:type="vector-operation">
<use xlink:href="#path-sockets_fill" transform="translate(9815.15 372.846)" fill="#3637D1"/>
</g>
</g>
</g>
<defs>
<path id="path-sockets_fill" fill-rule="evenodd" d="M 19.0352 21.9375L 25.1172 11.2933C 25.1602 11.2212 25.1816 11.149 25.1816 11.0769C 25.1816 11.0048 25.1602 10.9327 25.1172 10.8606L 19.0352 0.216339C 18.9932 0.144226 18.9395 0.0901489 18.875 0.0540771C 18.8115 0.0180359 18.7441 0 18.6729 0L 6.50879 0C 6.4375 0 6.36621 0.0180359 6.29492 0.0540771C 6.22461 0.0901489 6.1748 0.144226 6.14648 0.216339L 0.0644531 10.8606C 0.0214844 10.9327 0 11.0048 0 11.0769C 0 11.149 0.0214844 11.2212 0.0644531 11.2933L 6.14648 21.9375C 6.1748 22.0096 6.22461 22.0637 6.29492 22.0998C 6.36621 22.1358 6.4375 22.1538 6.50879 22.1538L 18.6729 22.1538C 18.7441 22.1538 18.8115 22.1358 18.875 22.0998C 18.9395 22.0637 18.9932 22.0096 19.0352 21.9375ZM 7.03809 1.47693L 18.1602 1.47693L 23.7002 11.0769L 18.1602 20.6769L 7.03809 20.6769L 1.47656 11.0769L 7.03809 1.47693Z"/>
</defs>
</svg>
