<svg width="36" height="33" viewBox="0 0 36 33" version="1.1" xmlns="http://www.w3.org/2000/svg" xmlns:xlink="http://www.w3.org/1999/xlink">
<g id="Canvas" transform="translate(-9509 -360)">
<g id="icn_sdk">
<use xlink:href="#path-robot_fill" transform="translate(9494 358)" fill="#009BAC"/>
</g>
</g>
<defs>
<path id="path-robot_fill" d="M 50.4023 25.1406C 50.2383 25.1406 50.0977 25.082 49.9805 24.9648C 49.8633 24.8477 49.8047 24.707 49.8047 24.543L 49.8047 16.7383C 49.8047 16.5742 49.8633 16.4336 49.9805 16.3164C 50.0977 16.1992 50.2383 16.1406 50.4023 16.1406C 50.5664 16.1406 50.707 16.1992 50.8242 16.3164C 50.9414 16.4336 51 16.5742 51 16.7383L 51 24.543C 51 24.707 50.9414 24.8477 50.8242 24.9648C 50.707 25.082 50.5664 25.1406 50.4023 25.1406ZM 46.1836 34.1406L 19.8164 34.1406C 19.3242 34.1406 18.8906 33.9648 18.5156 33.6133C 18.1641 33.2617 17.9883 32.8281 17.9883 32.3125L 17.9883 11.3594C 17.9883 10.8672 18.1641 10.4453 18.5156 10.0938C 18.8906 9.74219 19.3242 9.56641 19.8164 9.56641L 24 9.56641L 24 7.07031C 23.4844 6.92969 23.0508 6.64844 22.6992 6.22656C 22.3711 5.80469 22.207 5.3125 22.207 4.75C 22.207 4.09375 22.4414 3.53125 22.9102 3.0625C 23.3789 2.59375 23.9414 2.35938 24.5977 2.35938C 25.2539 2.35938 25.8164 2.59375 26.2852 3.0625C 26.7539 3.53125 26.9883 4.09375 26.9883 4.75C 26.9883 5.3125 26.8125 5.80469 26.4609 6.22656C 26.1328 6.64844 25.7109 6.92969 25.1953 7.07031L 25.1953 9.56641L 41.4023 9.56641L 41.4023 7.07031C 40.8867 6.92969 40.4531 6.64844 40.1016 6.22656C 39.7734 5.80469 39.6094 5.3125 39.6094 4.75C 39.6094 4.09375 39.8438 3.53125 40.3125 3.0625C 40.7812 2.59375 41.3437 2.35938 42 2.35938C 42.6563 2.35938 43.2188 2.59375 43.6875 3.0625C 44.1562 3.53125 44.3906 4.09375 44.3906 4.75C 44.3906 5.3125 44.2148 5.80469 43.8633 6.22656C 43.5352 6.64844 43.1133 6.92969 42.5977 7.07031L 42.5977 9.56641L 46.1836 9.56641C 46.6758 9.56641 47.0977 9.74219 47.4492 10.0938C 47.8242 10.4453 48.0117 10.8672 48.0117 11.3594L 48.0117 32.3125C 48.0117 32.8281 47.8242 33.2617 47.4492 33.6133C 47.0977 33.9648 46.6758 34.1406 46.1836 34.1406ZM 25.793 4.75C 25.793 4.42188 25.6758 4.14063 25.4414 3.90625C 25.207 3.67187 24.9258 3.55469 24.5977 3.55469C 24.2695 3.55469 23.9883 3.67187 23.7539 3.90625C 23.5195 4.14063 23.4023 4.42188 23.4023 4.75C 23.4023 5.07812 23.5195 5.35937 23.7539 5.59375C 23.9883 5.82813 24.2695 5.94531 24.5977 5.94531C 24.9258 5.94531 25.207 5.82813 25.4414 5.59375C 25.6758 5.35937 25.793 5.07812 25.793 4.75ZM 43.1953 4.75C 43.1953 4.42188 43.0781 4.14063 42.8438 3.90625C 42.6094 3.67187 42.3281 3.55469 42 3.55469C 41.6719 3.55469 41.3906 3.67187 41.1562 3.90625C 40.9219 4.14063 40.8047 4.42188 40.8047 4.75C 40.8047 5.07812 40.9219 5.35937 41.1562 5.59375C 41.3906 5.82813 41.6719 5.94531 42 5.94531C 42.3281 5.94531 42.6094 5.82813 42.8438 5.59375C 43.0781 5.35937 43.1953 5.07812 43.1953 4.75ZM 46.8164 11.3594C 46.8164 11.1953 46.7461 11.0547 46.6055 10.9375C 46.4883 10.8203 46.3477 10.7617 46.1836 10.7617L 19.8164 10.7617C 19.6523 10.7617 19.5 10.8203 19.3594 10.9375C 19.2422 11.0547 19.1836 11.1953 19.1836 11.3594L 19.1836 32.3125C 19.1836 32.5 19.2422 32.6523 19.3594 32.7695C 19.5 32.8867 19.6523 32.9453 19.8164 32.9453L 46.1836 32.9453C 46.3477 32.9453 46.4883 32.8867 46.6055 32.7695C 46.7461 32.6523 46.8164 32.5 46.8164 32.3125L 46.8164 11.3594ZM 39.293 21.5547C 38.543 21.5547 37.8984 21.2969 37.3594 20.7812C 36.8437 20.2422 36.5859 19.5977 36.5859 18.8477C 36.5859 18.0977 36.8437 17.4648 37.3594 16.9492C 37.8984 16.4102 38.543 16.1406 39.293 16.1406C 40.043 16.1406 40.6758 16.4102 41.1914 16.9492C 41.7305 17.4648 42 18.0977 42 18.8477C 42 19.5977 41.7305 20.2422 41.1914 20.7812C 40.6758 21.2969 40.043 21.5547 39.293 21.5547ZM 39.293 17.3359C 38.8945 17.3359 38.543 17.4883 38.2383 17.793C 37.957 18.0742 37.8164 18.4258 37.8164 18.8477C 37.8164 19.2695 37.957 19.6328 38.2383 19.9375C 38.543 20.2188 38.8945 20.3594 39.293 20.3594C 39.7148 20.3594 40.0664 20.2188 40.3477 19.9375C 40.6523 19.6328 40.8047 19.2695 40.8047 18.8477C 40.8047 18.4258 40.6523 18.0742 40.3477 17.793C 40.0664 17.4883 39.7148 17.3359 39.293 17.3359ZM 27.3047 21.5547C 26.5547 21.5547 25.9102 21.2969 25.3711 20.7812C 24.8555 20.2422 24.5977 19.5977 24.5977 18.8477C 24.5977 18.0977 24.8555 17.4648 25.3711 16.9492C 25.9102 16.4102 26.5547 16.1406 27.3047 16.1406C 28.0547 16.1406 28.6875 16.4102 29.2031 16.9492C 29.7422 17.4648 30.0117 18.0977 30.0117 18.8477C 30.0117 19.5977 29.7422 20.2422 29.2031 20.7812C 28.6875 21.2969 28.0547 21.5547 27.3047 21.5547ZM 27.3047 17.3359C 26.8828 17.3359 26.5195 17.4883 26.2148 17.793C 25.9336 18.0742 25.793 18.4258 25.793 18.8477C 25.793 19.2695 25.9336 19.6328 26.2148 19.9375C 26.5195 20.2188 26.8828 20.3594 27.3047 20.3594C 27.7266 20.3594 28.0781 20.2188 28.3594 19.9375C 28.6641 19.6328 28.8164 19.2695 28.8164 18.8477C 28.8164 18.4258 28.6641 18.0742 28.3594 17.793C 28.0781 17.4883 27.7266 17.3359 27.3047 17.3359ZM 25.793 24.543C 25.957 24.543 26.0977 24.6016 26.2148 24.7188C 26.332 24.8359 26.3906 24.9766 26.3906 25.1406L 26.3906 26.3359L 40.207 26.3359L 40.207 25.1406C 40.207 24.9766 40.2656 24.8359 40.3828 24.7188C 40.5 24.6016 40.6406 24.543 40.8047 24.543C 40.9688 24.543 41.1094 24.6016 41.2266 24.7188C 41.3437 24.8359 41.4023 24.9766 41.4023 25.1406L 41.4023 26.9336C 41.4023 27.1211 41.3437 27.2734 41.2266 27.3906C 41.1094 27.5078 40.9688 27.5664 40.8047 27.5664L 25.793 27.5664C 25.6289 27.5664 25.4883 27.5078 25.3711 27.3906C 25.2539 27.2734 25.1953 27.1211 25.1953 26.9336L 25.1953 25.1406C 25.1953 24.9766 25.2539 24.8359 25.3711 24.7188C 25.4883 24.6016 25.6289 24.543 25.793 24.543ZM 15.5977 25.1406C 15.4336 25.1406 15.293 25.082 15.1758 24.9648C 15.0586 24.8477 15 24.707 15 24.543L 15 16.7383C 15 16.5742 15.0586 16.4336 15.1758 16.3164C 15.293 16.1992 15.4336 16.1406 15.5977 16.1406C 15.7617 16.1406 15.9023 16.1992 16.0195 16.3164C 16.1367 16.4336 16.1953 16.5742 16.1953 16.7383L 16.1953 24.543C 16.1953 24.707 16.1367 24.8477 16.0195 24.9648C 15.9023 25.082 15.7617 25.1406 15.5977 25.1406Z"/>
</defs>
</svg>
