<svg width="36" height="37" viewBox="0 0 36 37" version="1.1" xmlns="http://www.w3.org/2000/svg" xmlns:xlink="http://www.w3.org/1999/xlink">
<title>icn_cloud</title>

<g id="Canvas" transform="translate(-10092 -358)">
<g id="icn_cloud">
<use xlink:href="#path-clout-os_fill" transform="translate(10077 358)" fill="#187EEF"/>
</g>
</g>
<defs>
<path id="path-clout-os_fill" d="M 43.3359 26.5469C 43.1719 26.5937 43.0195 26.5703 42.8789 26.4766C 42.7383 26.3828 42.6563 26.2539 42.6328 26.0898C 42.5859 25.9258 42.6094 25.7734 42.7031 25.6328C 42.7969 25.4922 42.9258 25.4102 43.0898 25.3867C 44.0508 25.1523 44.9414 24.7773 45.7617 24.2617C 46.582 23.7227 47.2852 23.0781 47.8711 22.3281C 48.4805 21.5781 48.9492 20.7461 49.2773 19.832C 49.6055 18.8945 49.7695 17.9219 49.7695 16.9141C 49.7695 15.7422 49.5352 14.6406 49.0664 13.6094C 48.6211 12.5547 48 11.6406 47.2031 10.8672C 46.4297 10.0703 45.5156 9.44922 44.4609 9.00391C 43.4297 8.55859 42.3164 8.33594 41.1211 8.33594C 41.0273 8.33594 40.9336 8.33594 40.8398 8.33594C 40.7695 8.33594 40.6875 8.34766 40.5938 8.37109C 40.4531 8.39453 40.3242 8.37109 40.207 8.30078C 40.0898 8.20703 40.0078 8.10156 39.9609 7.98438C 39.6094 7 39.1172 6.10938 38.4844 5.3125C 37.875 4.51562 37.1602 3.83594 36.3398 3.27344C 35.543 2.6875 34.6641 2.24219 33.7031 1.9375C 32.7422 1.60938 31.7344 1.44531 30.6797 1.44531C 29.3438 1.44531 28.0781 1.70312 26.8828 2.21875C 25.6875 2.73438 24.6445 3.4375 23.7539 4.32812C 22.8633 5.19531 22.1602 6.22656 21.6445 7.42188C 21.1289 8.59375 20.8711 9.84766 20.8711 11.1836C 20.8711 11.418 20.8828 11.6523 20.9062 11.8867C 20.9297 12.0977 20.9531 12.332 20.9766 12.5898C 21 12.7305 20.9766 12.8711 20.9062 13.0117C 20.8359 13.1289 20.7305 13.2109 20.5898 13.2578C 19.2773 13.6797 18.2227 14.4414 17.4258 15.543C 16.6289 16.6211 16.2305 17.8398 16.2305 19.1992C 16.2305 20.9336 16.8516 22.4219 18.0938 23.6641C 19.3359 24.8828 20.8359 25.4922 22.5938 25.4922L 22.8047 25.4922C 22.9922 25.4922 23.1445 25.5508 23.2617 25.668C 23.3789 25.7852 23.4375 25.9258 23.4375 26.0898C 23.4375 26.2539 23.3789 26.3945 23.2617 26.5117C 23.1445 26.6289 22.9922 26.6875 22.8047 26.6875L 22.5938 26.6875C 21.5391 26.6875 20.5547 26.5 19.6406 26.125C 18.7266 25.7266 17.9297 25.1875 17.25 24.5078C 16.5703 23.8281 16.0313 23.0312 15.6328 22.1172C 15.2344 21.2031 15.0352 20.2305 15.0352 19.1992C 15.0352 17.6758 15.457 16.293 16.3008 15.0508C 17.168 13.7852 18.3164 12.8594 19.7461 12.2734C 19.7227 12.0859 19.6992 11.9102 19.6758 11.7461C 19.6758 11.5586 19.6758 11.3711 19.6758 11.1836C 19.6758 9.68359 19.957 8.26562 20.5195 6.92969C 21.1055 5.59375 21.8906 4.43359 22.875 3.44922C 23.8828 2.46484 25.0547 1.69141 26.3906 1.12891C 27.7266 0.542968 29.1562 0.25 30.6797 0.25C 31.8047 0.25 32.8945 0.414063 33.9492 0.742188C 35.0039 1.07031 35.9766 1.53906 36.8672 2.14844C 37.7578 2.75781 38.5547 3.48438 39.2578 4.32812C 39.9609 5.17188 40.5117 6.10938 40.9102 7.14062C 40.957 7.14062 40.9922 7.14062 41.0156 7.14062C 41.0391 7.14062 41.0742 7.14062 41.1211 7.14062C 42.4805 7.14062 43.7578 7.39844 44.9531 7.91406C 46.1484 8.42969 47.1914 9.13281 48.082 10.0234C 48.9727 10.8906 49.6758 11.9219 50.1914 13.1172C 50.707 14.2891 50.9648 15.5547 50.9648 16.9141C 50.9648 18.0625 50.7773 19.1641 50.4023 20.2188C 50.0273 21.25 49.5 22.1992 48.8203 23.0664C 48.1406 23.9336 47.332 24.6719 46.3945 25.2812C 45.457 25.8672 44.4375 26.2891 43.3359 26.5469ZM 27.6211 13.5039L 38.3789 13.5039C 38.5664 13.5039 38.7188 13.5391 38.8359 13.6094C 38.9531 13.6797 39.0117 13.7969 39.0117 13.9609L 39.0117 35.582C 39.0117 35.7461 38.9531 35.8984 38.8359 36.0391C 38.7188 36.1797 38.5664 36.25 38.3789 36.25L 27.6211 36.25C 27.457 36.25 27.3164 36.1797 27.1992 36.0391C 27.082 35.8984 27.0234 35.7461 27.0234 35.582L 27.0234 13.9609C 27.0234 13.7969 27.082 13.6797 27.1992 13.6094C 27.3164 13.5391 27.457 13.5039 27.6211 13.5039ZM 28.2188 35.0547L 37.7812 35.0547L 37.7812 14.6992L 28.2188 14.6992L 28.2188 35.0547ZM 33 32.5938C 32.3438 32.5938 31.7813 32.3594 31.3125 31.8906C 30.8437 31.4219 30.6094 30.8477 30.6094 30.168C 30.6094 29.5117 30.8437 28.9492 31.3125 28.4805C 31.7813 28.0117 32.3438 27.7773 33 27.7773C 33.6563 27.7773 34.2188 28.0117 34.6875 28.4805C 35.1562 28.9492 35.3906 29.5117 35.3906 30.168C 35.3906 30.8477 35.1562 31.4219 34.6875 31.8906C 34.2188 32.3594 33.6563 32.5938 33 32.5938ZM 33 28.9727C 32.6719 28.9727 32.3906 29.0898 32.1562 29.3242C 31.9219 29.5586 31.8047 29.8398 31.8047 30.168C 31.8047 30.5195 31.9219 30.8125 32.1562 31.0469C 32.3906 31.2812 32.6719 31.3984 33 31.3984C 33.3281 31.3984 33.6094 31.2812 33.8438 31.0469C 34.0781 30.8125 34.1953 30.5195 34.1953 30.168C 34.1953 29.8398 34.0781 29.5586 33.8438 29.3242C 33.6094 29.0898 33.3281 28.9727 33 28.9727ZM 34.793 21.8711L 31.207 21.8711C 31.043 21.8711 30.9023 21.8008 30.7852 21.6602C 30.668 21.4961 30.6094 21.332 30.6094 21.168C 30.6094 21.0039 30.668 20.8867 30.7852 20.8164C 30.9023 20.7227 31.043 20.6758 31.207 20.6758L 34.793 20.6758C 34.957 20.6758 35.0977 20.7227 35.2148 20.8164C 35.332 20.8867 35.3906 21.0039 35.3906 21.168C 35.3906 21.332 35.332 21.4961 35.2148 21.6602C 35.0977 21.8008 34.957 21.8711 34.793 21.8711ZM 34.793 18.2852L 31.207 18.2852C 31.043 18.2852 30.9023 18.2148 30.7852 18.0742C 30.668 17.9102 30.6094 17.7461 30.6094 17.582C 30.6094 17.418 30.668 17.3008 30.7852 17.2305C 30.9023 17.1367 31.043 17.0898 31.207 17.0898L 34.793 17.0898C 34.957 17.0898 35.0977 17.1367 35.2148 17.2305C 35.332 17.3008 35.3906 17.418 35.3906 17.582C 35.3906 17.7461 35.332 17.9102 35.2148 18.0742C 35.0977 18.2148 34.957 18.2852 34.793 18.2852Z"/>
</defs>
</svg>
