<svg width="37" height="37" viewBox="0 0 37 37" version="1.1" xmlns="http://www.w3.org/2000/svg" xmlns:xlink="http://www.w3.org/1999/xlink" xmlns:figma="http://www.figma.com/figma/ns">
<title>icn_community</title>
<desc>Created using Figma</desc>
<g id="Canvas" transform="translate(-10383 -358)" figma:type="canvas">
<g id="icn_community" figma:type="text">
<use xlink:href="#path-community_fill" transform="translate(10368.5 358)" fill="#5100D0"/>
</g>
</g>
<defs>
<path id="path-community_fill" d="M 51 23.6641C 51 23.8281 50.9414 23.9687 50.8242 24.0859C 50.707 24.2031 50.5664 24.2617 50.4023 24.2617L 48.5039 24.2617L 46.7812 33.3672C 46.7578 33.5078 46.6875 33.625 46.5703 33.7188C 46.4766 33.8125 46.3477 33.8594 46.1836 33.8594L 42.5977 33.8594C 42.457 33.8594 42.3281 33.8125 42.2109 33.7188C 42.1172 33.625 42.0469 33.5078 42 33.3672L 40.8047 27.9883C 40.7812 27.8242 40.8047 27.6719 40.875 27.5312C 40.9688 27.3906 41.0977 27.2969 41.2617 27.25C 41.4258 27.2266 41.5781 27.2617 41.7188 27.3555C 41.8594 27.4258 41.9531 27.543 42 27.707L 43.0898 32.6641L 45.6914 32.6641L 47.4141 23.5234C 47.4141 23.5 47.4258 23.4883 47.4492 23.4883C 47.4492 23.4648 47.4492 23.4414 47.4492 23.418C 47.4492 23.3945 47.4609 23.3828 47.4844 23.3828C 47.4844 23.3594 47.4844 23.3477 47.4844 23.3477C 47.5078 23.3242 47.5312 23.3008 47.5547 23.2773C 47.5547 23.2539 47.5547 23.2422 47.5547 23.2422C 47.5781 23.2188 47.6016 23.207 47.625 23.207C 47.6484 23.1836 47.6602 23.1719 47.6602 23.1719C 47.6836 23.1484 47.707 23.1367 47.7305 23.1367C 47.7305 23.1133 47.7422 23.1016 47.7656 23.1016C 47.7891 23.1016 47.8125 23.1016 47.8359 23.1016C 47.8359 23.0781 47.8477 23.0664 47.8711 23.0664C 47.8945 23.0664 47.918 23.0664 47.9414 23.0664C 47.9648 23.0664 47.9883 23.0664 48.0117 23.0664L 49.8047 23.0664L 49.8047 18.918C 49.8047 18.8945 49.8047 18.8828 49.8047 18.8828C 49.8047 18.8594 49.8047 18.8477 49.8047 18.8477C 49.8047 17.2539 49.3945 15.7539 48.5742 14.3477C 47.7773 12.9414 46.3828 12.2383 44.3906 12.2383C 44.2266 12.2383 44.0859 12.1797 43.9688 12.0625C 43.8516 11.9453 43.793 11.8047 43.793 11.6406C 43.793 11.4766 43.8516 11.3359 43.9688 11.2188C 44.0859 11.1016 44.2266 11.043 44.3906 11.043C 46.4062 11.043 48.0117 11.7578 49.207 13.1875C 50.4023 14.5938 51 16.4805 51 18.8477C 51 18.8477 51 18.8594 51 18.8828C 51 18.8828 51 18.8945 51 18.918L 51 23.6641ZM 40.207 6.85938C 40.207 5.6875 40.6172 4.69141 41.4375 3.87109C 42.2578 3.05078 43.2422 2.64062 44.3906 2.64062C 45.5625 2.64062 46.5586 3.05078 47.3789 3.87109C 48.1992 4.69141 48.6094 5.6875 48.6094 6.85938C 48.6094 8.00781 48.1992 8.99219 47.3789 9.8125C 46.5586 10.6328 45.5625 11.043 44.3906 11.043C 43.2422 11.043 42.2578 10.6328 41.4375 9.8125C 40.6172 8.99219 40.207 8.00781 40.207 6.85938ZM 44.3906 9.84766C 45.2344 9.84766 45.9492 9.55469 46.5352 8.96875C 47.1211 8.38281 47.4141 7.67969 47.4141 6.85938C 47.4141 6.01562 47.1211 5.30078 46.5352 4.71484C 45.9492 4.12891 45.2344 3.83594 44.3906 3.83594C 43.5703 3.83594 42.8672 4.12891 42.2812 4.71484C 41.6953 5.30078 41.4023 6.01562 41.4023 6.85938C 41.4023 7.67969 41.6953 8.38281 42.2812 8.96875C 42.8672 9.55469 43.5703 9.84766 44.3906 9.84766ZM 40.8047 16.457C 40.8047 16.457 40.8047 16.4688 40.8047 16.4922C 40.8047 16.4922 40.8047 16.5039 40.8047 16.5273L 40.8047 23.6641C 40.8047 23.8281 40.7461 23.9687 40.6289 24.0859C 40.5117 24.2031 40.3711 24.2617 40.207 24.2617L 37.1484 24.2617L 35.9883 35.7227C 35.9883 35.8633 35.9297 35.9805 35.8125 36.0742C 35.6953 36.1914 35.5547 36.25 35.3906 36.25L 30.6094 36.25C 30.4453 36.25 30.3047 36.1914 30.1875 36.0742C 30.0703 35.9805 30.0117 35.8633 30.0117 35.7227L 28.8516 24.2617L 25.793 24.2617C 25.6289 24.2617 25.4883 24.2031 25.3711 24.0859C 25.2539 23.9687 25.1953 23.8281 25.1953 23.6641L 25.1953 16.5273C 25.1953 16.5039 25.1953 16.4922 25.1953 16.4922C 25.1953 16.4688 25.1953 16.457 25.1953 16.457C 25.1953 15.3789 25.3945 14.3711 25.793 13.4336C 26.2148 12.4727 26.7773 11.6406 27.4805 10.9375C 28.1836 10.2344 29.0039 9.68359 29.9414 9.28516C 30.9023 8.86328 31.9219 8.65234 33 8.65234C 34.0781 8.65234 35.0859 8.86328 36.0234 9.28516C 36.9844 9.68359 37.8164 10.2344 38.5195 10.9375C 39.2227 11.6406 39.7734 12.4727 40.1719 13.4336C 40.5938 14.3711 40.8047 15.3789 40.8047 16.457ZM 33 9.84766C 31.1719 9.84766 29.6133 10.4922 28.3242 11.7812C 27.0352 13.0703 26.3906 14.6289 26.3906 16.457C 26.3906 16.457 26.3906 16.4688 26.3906 16.4922C 26.3906 16.4922 26.3906 16.5039 26.3906 16.5273L 26.3906 23.0664L 29.4141 23.0664C 29.4141 23.0664 29.4258 23.0664 29.4492 23.0664C 29.4727 23.0664 29.4844 23.0664 29.4844 23.0664C 29.5078 23.0664 29.5313 23.0664 29.5547 23.0664C 29.5781 23.0664 29.5898 23.0781 29.5898 23.1016C 29.6133 23.1016 29.6367 23.1133 29.6602 23.1367C 29.6836 23.1367 29.707 23.1367 29.7305 23.1367C 29.7305 23.1602 29.7305 23.1836 29.7305 23.207C 29.7539 23.207 29.7773 23.207 29.8008 23.207C 29.8242 23.2305 29.8359 23.2539 29.8359 23.2773C 29.8594 23.2773 29.8711 23.2891 29.8711 23.3125C 29.8945 23.3125 29.9062 23.3242 29.9062 23.3477C 29.9062 23.3477 29.918 23.3594 29.9414 23.3828C 29.9414 23.4062 29.9414 23.4297 29.9414 23.4531C 29.9648 23.4766 29.9766 23.4883 29.9766 23.4883C 29.9766 23.5117 29.9766 23.5352 29.9766 23.5586C 30 23.5586 30.0117 23.5703 30.0117 23.5938L 31.1367 35.0547L 34.8633 35.0547L 35.9883 23.5938C 35.9883 23.5703 35.9883 23.5586 35.9883 23.5586C 36.0117 23.5352 36.0234 23.5117 36.0234 23.4883C 36.0234 23.4883 36.0234 23.4766 36.0234 23.4531C 36.0469 23.4297 36.0586 23.4062 36.0586 23.3828C 36.082 23.3594 36.0938 23.3477 36.0938 23.3477C 36.0938 23.3242 36.1055 23.3125 36.1289 23.3125C 36.1289 23.2891 36.1289 23.2773 36.1289 23.2773C 36.1523 23.2539 36.1758 23.2305 36.1992 23.207C 36.2227 23.207 36.2344 23.207 36.2344 23.207C 36.2578 23.1836 36.2695 23.1602 36.2695 23.1367C 36.293 23.1367 36.3164 23.1367 36.3398 23.1367C 36.3633 23.1133 36.3867 23.1016 36.4102 23.1016C 36.4102 23.0781 36.4219 23.0664 36.4453 23.0664C 36.4688 23.0664 36.4922 23.0664 36.5156 23.0664C 36.5156 23.0664 36.5273 23.0664 36.5508 23.0664C 36.5742 23.0664 36.5859 23.0664 36.5859 23.0664L 39.6094 23.0664L 39.6094 16.5273C 39.6094 16.5039 39.6094 16.4922 39.6094 16.4922C 39.6094 16.4688 39.6094 16.457 39.6094 16.457C 39.6094 14.6289 38.9648 13.0703 37.6758 11.7812C 36.3867 10.4922 34.8281 9.84766 33 9.84766ZM 28.8164 4.43359C 28.8164 3.28516 29.2266 2.30078 30.0469 1.48047C 30.8672 0.660157 31.8516 0.25 33 0.25C 34.1484 0.25 35.1328 0.660157 35.9531 1.48047C 36.7734 2.30078 37.1836 3.28516 37.1836 4.43359C 37.1836 5.60547 36.7734 6.60156 35.9531 7.42188C 35.1328 8.24219 34.1484 8.65234 33 8.65234C 31.8516 8.65234 30.8672 8.24219 30.0469 7.42188C 29.2266 6.60156 28.8164 5.60547 28.8164 4.43359ZM 33 7.45703C 33.8203 7.45703 34.5234 7.16406 35.1094 6.57812C 35.6953 5.99219 35.9883 5.27734 35.9883 4.43359C 35.9883 3.61328 35.6953 2.91016 35.1094 2.32422C 34.5234 1.73828 33.8203 1.44531 33 1.44531C 32.1797 1.44531 31.4766 1.73828 30.8906 2.32422C 30.3047 2.91016 30.0117 3.61328 30.0117 4.43359C 30.0117 5.27734 30.3047 5.99219 30.8906 6.57812C 31.4766 7.16406 32.1797 7.45703 33 7.45703ZM 21.6094 11.043C 20.4375 11.043 19.4414 10.6328 18.6211 9.8125C 17.8008 8.99219 17.3906 8.00781 17.3906 6.85938C 17.3906 5.6875 17.8008 4.69141 18.6211 3.87109C 19.4414 3.05078 20.4375 2.64062 21.6094 2.64062C 22.7578 2.64062 23.7422 3.05078 24.5625 3.87109C 25.3828 4.69141 25.793 5.6875 25.793 6.85938C 25.793 8.00781 25.3828 8.99219 24.5625 9.8125C 23.7422 10.6328 22.7578 11.043 21.6094 11.043ZM 21.6094 3.83594C 20.7656 3.83594 20.0508 4.12891 19.4648 4.71484C 18.8789 5.30078 18.5859 6.01562 18.5859 6.85938C 18.5859 7.67969 18.8789 8.38281 19.4648 8.96875C 20.0508 9.55469 20.7656 9.84766 21.6094 9.84766C 22.4297 9.84766 23.1328 9.55469 23.7188 8.96875C 24.3047 8.38281 24.5977 7.67969 24.5977 6.85938C 24.5977 6.01562 24.3047 5.30078 23.7188 4.71484C 23.1328 4.12891 22.4297 3.83594 21.6094 3.83594ZM 22.207 11.6406C 22.207 11.8047 22.1484 11.9453 22.0312 12.0625C 21.9141 12.1797 21.7734 12.2383 21.6094 12.2383C 19.6172 12.2383 18.2109 12.9414 17.3906 14.3477C 16.5937 15.7539 16.1953 17.2539 16.1953 18.8477C 16.1953 18.8477 16.1953 18.8594 16.1953 18.8828C 16.1953 18.8828 16.1953 18.8945 16.1953 18.918L 16.1953 23.0664L 17.9883 23.0664C 18.0117 23.0664 18.0234 23.0664 18.0234 23.0664C 18.0469 23.0664 18.0586 23.0664 18.0586 23.0664C 18.082 23.0664 18.1055 23.0664 18.1289 23.0664C 18.1523 23.0664 18.1641 23.0781 18.1641 23.1016C 18.1875 23.1016 18.2109 23.1016 18.2344 23.1016C 18.2578 23.1016 18.2695 23.1133 18.2695 23.1367C 18.293 23.1367 18.3047 23.1484 18.3047 23.1719C 18.3281 23.1719 18.3516 23.1836 18.375 23.207C 18.3984 23.207 18.4102 23.2188 18.4102 23.2422C 18.4336 23.2422 18.4453 23.2539 18.4453 23.2773C 18.4687 23.3008 18.4805 23.3242 18.4805 23.3477C 18.5039 23.3477 18.5156 23.3594 18.5156 23.3828C 18.5391 23.3828 18.5508 23.3945 18.5508 23.418C 18.5508 23.4414 18.5508 23.4648 18.5508 23.4883C 18.5742 23.4883 18.5859 23.5 18.5859 23.5234L 20.3086 32.6641L 22.9102 32.6641L 24 27.707C 24.0469 27.543 24.1406 27.4258 24.2812 27.3555C 24.4219 27.2617 24.5742 27.2266 24.7383 27.25C 24.9023 27.2969 25.0195 27.3906 25.0898 27.5312C 25.1836 27.6719 25.2187 27.8242 25.1953 27.9883L 24 33.3672C 23.9531 33.5078 23.8711 33.625 23.7539 33.7188C 23.6602 33.8125 23.543 33.8594 23.4023 33.8594L 19.8164 33.8594C 19.6523 33.8594 19.5117 33.8125 19.3945 33.7188C 19.3008 33.625 19.2422 33.5078 19.2188 33.3672L 17.4961 24.2617L 15.5977 24.2617C 15.4336 24.2617 15.293 24.2031 15.1758 24.0859C 15.0586 23.9687 15 23.8281 15 23.6641L 15 18.918C 15 18.8945 15 18.8828 15 18.8828C 15 18.8594 15 18.8477 15 18.8477C 15 16.4805 15.5977 14.5938 16.793 13.1875C 17.9883 11.7578 19.5938 11.043 21.6094 11.043C 21.7734 11.043 21.9141 11.1016 22.0312 11.2188C 22.1484 11.3359 22.207 11.4766 22.207 11.6406Z"/>
</defs>
</svg>
