<?xml version="1.0" encoding="UTF-8" standalone="no"?><svg width="24px" height="24px" viewBox="0 0 24 24" version="1.1" xmlns="http://www.w3.org/2000/svg" xmlns:xlink="http://www.w3.org/1999/xlink"><defs><rect id="path-1" x="0" y="0" width="24" height="24" rx="4"></rect><mask id="mask-2" maskContentUnits="userSpaceOnUse" maskUnits="objectBoundingBox" x="0" y="0" width="24" height="24" fill="white"><use xlink:href="#path-1"></use></mask></defs><g id="Desktop-design" stroke="none" stroke-width="1" fill="none" fill-rule="evenodd"><g id="Features" transform="translate(-910.000000, -4969.000000)"><g id="Group-4-Copy" transform="translate(0.000000, 4459.000000)"><g id="Group-14"><g id="Group-12"><g id="Group-6" transform="translate(310.000000, 510.000000)"><g id="Group-23" transform="translate(600.000000, 0.000000)"><use id="Rectangle-1003" stroke="#3CCD3F" mask="url(#mask-2)" stroke-width="4" xlink:href="#path-1"></use><rect id="Rectangle-1004" fill="#3CCD3F" x="1" y="5" width="22" height="2"></rect><path d="M6.09378669,14.4978723 C6.21761131,13.8425499 6.44743387,13.2042584 6.78326127,12.5829787 C7.11908866,11.961699 7.53089317,11.4319171 8.01868715,10.993617 C8.50648113,10.555317 9.05055087,10.2241146 9.65091269,10 L9.80287852,10.5276596 C9.21377348,10.8595761 8.70816385,11.2929051 8.28603444,11.8276596 C7.86390503,12.362414 7.53840124,12.9978687 7.3095133,13.7340426 C7.08062535,14.4702164 6.9699353,15.1957411 6.97743982,15.9106383 C6.97743982,16.4978753 7.07781131,17.0148914 7.2785573,17.4617021 C7.47930328,17.9085129 7.76916112,18.2609916 8.14813952,18.5191489 L7.89486315,18.9957447 C7.2682355,18.666665 6.78889129,18.1801451 6.45681616,17.5361702 C6.12474103,16.8921954 5.97371477,16.1546141 6.00373286,15.3234043 C6.01123739,15.0510625 6.03750282,14.7914906 6.08252996,14.5446809 L6.09378669,14.4978723 Z M12.0148255,14.0680851 L13.6695645,12.3914894 L14.9190613,12.3914894 L12.4763514,14.706383 L13.9622395,16.9957447 L12.8534518,16.9957447 L11.8459746,15.2765957 L10.1293236,16.9957447 L8.8854552,16.9957447 L11.4013339,14.6297872 L9.96047271,12.3914894 L11.0748888,12.3914894 L12.0148255,14.0680851 Z M17.9020942,14.506383 C17.7707651,15.198585 17.5325001,15.8531884 17.187292,16.4702128 C16.842084,17.0872371 16.4284033,17.6077993 15.9462378,18.0319149 C15.4640722,18.4560305 14.930321,18.7787223 14.3449682,19 L14.187374,18.5106383 C15.4743997,17.7787197 16.3336547,16.602845 16.7651647,14.9829787 C16.9377687,14.3304932 17.0203172,13.7021307 17.0128127,13.0978723 C16.9940514,11.880845 16.6038221,11.0085133 15.842113,10.4808511 L16.1066461,10.0042553 C16.5268994,10.225533 16.8824208,10.5198563 17.1732211,10.887234 C17.4640214,11.2546118 17.677897,11.6815579 17.8148546,12.1680851 C17.9518121,12.6546124 18.0127855,13.1588626 17.9977764,13.6808511 C17.9865196,13.9560297 17.9583781,14.2156016 17.913351,14.4595745 L17.9020942,14.506383 Z" id="(x)" stroke="#3CCD3F" stroke-width="0.5" fill="#3CCD3F"></path></g></g></g></g></g></g></g></svg>
