<svg width="105" height="105" viewBox="0 0 105 105" xmlns="http://www.w3.org/2000/svg"><g transform="translate(0 0)" fill="none"><circle fill="#903EB9" cx="52.5" cy="52.5" r="52.5"/><path d="M64.978 71.258c.022-4.258-4.372-6.778-8.634-8.614-4.246-1.828-5.602-3.368-5.602-6.668 0-1.978 1.296-1.334 1.864-4.962.24-1.504 1.384-.024 1.604-3.458 0-1.368-.626-1.708-.626-1.708s.318-2.026.442-3.586c.128-1.634-.796-5.12-4.602-6.19-.664-.682-1.114-1.764.934-2.848-4.48-.208-5.522 2.136-7.908 3.86-2.03 1.512-2.578 3.906-2.48 5.18.13 1.56.446 3.586.446 3.586s-.628.34-.628 1.708c.22 3.436 1.368 1.954 1.606 3.458.568 3.628 1.866 2.984 1.866 4.962 0 3.3-.424 4.42-4.672 6.248-4.262 1.834-5.588 4.774-5.566 9.032.006 1.274-.022 1.742-.022 1.742h32s-.028-.468-.022-1.742zm2.022-18.258v-6h-4v6h-6v4h6v6h4v-6h6v-4h-6z" fill="#fff"/></g></svg>
