<?xml version="1.0" encoding="UTF-8" standalone="no"?>
<svg width="24px" height="24px" viewBox="0 0 24 24" version="1.1" xmlns="http://www.w3.org/2000/svg" xmlns:xlink="http://www.w3.org/1999/xlink">
    <!-- Generator: Sketch 3.7.2 (28276) - http://www.bohemiancoding.com/sketch -->
    <title>Combined Shape</title>
    <desc>Created with Sketch.</desc>
    <defs></defs>
    <g id="Desktop-design" stroke="none" stroke-width="1" fill="none" fill-rule="evenodd">
        <g id="Features" transform="translate(-310.000000, -4850.000000)" fill="#0070D3">
            <g id="Group-4-Copy" transform="translate(0.000000, 4339.000000)">
                <g id="Group-14">
                    <g id="Group-12">
                        <g id="Group-6" transform="translate(310.000000, 510.000000)">
                            <path d="M7.6,10 L5.3,7.7 C4.9,7.3 4.9,6.7 5.3,6.3 C5.7,5.9 6.3,5.9 6.7,6.3 L9.7,9.3 C9.9,9.5 10,9.75 10,10 C10,10.25 9.9,10.5 9.7,10.7 L6.7,13.7 C6.5,13.9 6.3,14 6,14 C5.7,14 5.5,13.9 5.3,13.7 C4.9,13.3 4.9,12.7 5.3,12.3 L7.6,10 Z M19,25 L5,25 C2.2,25 0,22.8 0,20 L0,6 C0,3.2 2.2,1 5,1 L19,1 C21.8,1 24,3.2 24,6 L24,20 C24,22.8 21.8,25 19,25 Z M5,3 C3.3,3 2,4.3 2,6 L2,20 C2,21.7 3.3,23 5,23 L19,23 C20.7,23 22,21.7 22,20 L22,6 C22,4.3 20.7,3 19,3 L5,3 Z M15,14 L11,14 C10.4,14 10,13.6 10,13 C10,12.4 10.4,12 11,12 L15,12 C15.6,12 16,12.4 16,13 C16,13.6 15.6,14 15,14 Z" id="Combined-Shape"></path>
                        </g>
                    </g>
                </g>
            </g>
        </g>
    </g>
</svg>
