<?xml version="1.0" encoding="UTF-8" standalone="no"?>
<svg width="371px" height="229px" viewBox="0 0 371 229" version="1.1" xmlns="http://www.w3.org/2000/svg" xmlns:xlink="http://www.w3.org/1999/xlink">
    <!-- Generator: Sketch 3.8.1 (29687) - http://www.bohemiancoding.com/sketch -->
    <title>Group 30</title>
    <desc>Created with Sketch.</desc>
    <defs>
        <rect id="path-1" x="0" y="0" width="160" height="138" rx="2"></rect>
        <mask id="mask-2" maskContentUnits="userSpaceOnUse" maskUnits="objectBoundingBox" x="-4" y="-4" width="168" height="146">
            <rect x="-4" y="-4" width="168" height="146" fill="white"></rect>
            <use xlink:href="#path-1" fill="black"></use>
        </mask>
    </defs>
    <g id="Desktop-design" stroke="none" stroke-width="1" fill="none" fill-rule="evenodd">
        <g id="Features" transform="translate(-616.000000, -977.000000)">
            <g id="Group-30" transform="translate(618.000000, 978.000000)">
                <g id="Group-28">
                    <path d="M120,65 C120,65 145,65 150,65 C155,65 156,70 156,75 L156,178 C156,183 161,184 166,184 L322,184 C327,184 328.006073,182 328.003036,177 C328,172 328.00303,162 328.00303,162" id="Path-111" stroke="#FFCC01" stroke-width="2" stroke-linejoin="round" stroke-dasharray="4"></path>
                    <path d="M61,153 L61,169 C61,174.999999 63,174.999999 69,174.999999 C82,174.999999 234,174.999999 239,175 C245,174.999999 245,166.999999 245,165 L245,160.909278" id="Path-112" stroke="#903EB9" stroke-width="2" stroke-linejoin="round" stroke-dasharray="4"></path>
                    <path d="M28,42.019992 L28,6 C28,0.999999998 35,2.0824025e-09 35,2.0824025e-09 C35,2.0824025e-09 178,-1.55382918e-09 178,7.83749954e-10 C183,-1.55382918e-09 184,5 184,10 L184,78 C184,84 186,84 194,84 C197,84 201,84 201,84" id="Path-113" stroke="#49B9E8" stroke-width="2" stroke-linejoin="round" stroke-dasharray="4"></path>
                    <g id="Group-27" transform="translate(0.000000, 32.000000)" stroke-width="4" stroke="#373D44" stroke-linejoin="round">
                        <polygon id="Polygon-6-Copy" fill="#903EB9" points="61 57 89 73.25 89 105.75 61 122 33 105.75 33 73.25"></polygon>
                        <polygon id="Polygon-6-Copy" fill="#FFCC01" points="95 0 123 16.25 123 48.75 95 65 67 48.75 67 16.25"></polygon>
                        <polygon id="Polygon-6-Copy" fill="#49B9E8" points="28 0 56 16.25 56 48.75 28 65 1.85551107e-14 48.75 8.83576701e-16 16.25"></polygon>
                    </g>
                    <path d="M205.535534,85.4644661 C205.535534,82.7030423 203.296958,80.4644661 200.535534,80.4644661 C197.77411,80.4644661 195.535534,82.7030423 195.535534,85.4644661 C195.535534,88.2258898 205.535534,88.2258898 205.535534,85.4644661 Z" id="Oval-50" fill="#49B9E8" transform="translate(200.535534, 84.000000) rotate(-90.000000) translate(-200.535534, -84.000000) "></path>
                    <path d="M250,165 C250,162.238576 247.761424,160 245,160 C242.238576,160 240,162.238576 240,165 C240,167.761424 250,167.761424 250,165 Z" id="Oval-50" fill="#903EB9" transform="translate(245.000000, 163.535534) rotate(-180.000000) translate(-245.000000, -163.535534) "></path>
                    <path d="M333,165 C333,162.238576 330.761424,160 328,160 C325.238576,160 323,162.238576 323,165 C323,167.761424 333,167.761424 333,165 Z" id="Oval-50" fill="#FFCC01" transform="translate(328.000000, 163.535534) rotate(-180.000000) translate(-328.000000, -163.535534) "></path>
                    <g id="Group-29" transform="translate(205.000000, 23.000000)">
                        <g id="Group-7">
                            <g id="Rectangle-121">
                                <use fill="#FFFFFF" fill-rule="evenodd" xlink:href="#path-1"></use>
                                <use stroke="#373D44" mask="url(#mask-2)" stroke-width="8" xlink:href="#path-1"></use>
                            </g>
                            <rect id="Rectangle-1005" fill="#373D44" x="0" y="16" width="160" height="4"></rect>
                            <rect id="Rectangle-132" fill="#E3E6EA" x="10" y="41" width="141" height="50"></rect>
                            <rect id="Rectangle-132" fill="#E3E6EA" x="10" y="96" width="68" height="39"></rect>
                            <rect id="Rectangle-132" fill="#E3E6EA" x="83" y="96" width="68" height="39"></rect>
                            <rect id="Rectangle-121" fill="#DEE2E5" x="0" y="0" width="160" height="16" rx="2"></rect>
                            <rect id="Rectangle-1006" fill="#DEE2E5" x="0" y="12" width="160" height="4"></rect>
                            <circle id="Oval-66" fill="#373D44" cx="8" cy="8" r="3"></circle>
                            <circle id="Oval-66" fill="#373D44" cx="16" cy="8" r="3"></circle>
                            <circle id="Oval-66" fill="#373D44" cx="24" cy="8" r="3"></circle>
                        </g>
                        <rect id="Rectangle-135" fill="#B8C0C9" x="96" y="29" width="15" height="3"></rect>
                        <rect id="Rectangle-135" fill="#B8C0C9" x="10" y="29" width="25" height="3"></rect>
                        <rect id="Rectangle-135" fill="#B8C0C9" x="116" y="29" width="5" height="3"></rect>
                        <rect id="Rectangle-135" fill="#B8C0C9" x="126" y="29" width="25" height="3"></rect>
                    </g>
                </g>
                <ellipse id="Oval-51" fill="#E5E7EA" opacity="0.3" cx="195.5" cy="218" rx="164.5" ry="10"></ellipse>
            </g>
        </g>
    </g>
</svg>
