<svg width="371" height="229" viewBox="0 0 371 229" xmlns="http://www.w3.org/2000/svg" xmlns:xlink="http://www.w3.org/1999/xlink"><defs><rect id="a" width="160" height="138" rx="2"/><mask id="b" x="-4" y="-4" width="168" height="146"><path fill="#fff" d="M-4-4h168v146h-168z"/><use xlink:href="#a"/></mask></defs><g transform="translate(-616 -977) translate(618 978)" fill="none"><g><path d="M120 65h30c5 0 6 5 6 10v103c0 5 5 6 10 6h156c5 0 6.006-2 6.003-7-.003-5 0-15 0-15" stroke="#FFCC01" stroke-width="2" stroke-linejoin="round" stroke-dasharray="4"/><path d="M61 153v16c0 6 2 6 8 6h170c6 0 6-8 6-10v-4.091" stroke="#903EB9" stroke-width="2" stroke-linejoin="round" stroke-dasharray="4"/><path d="M28 42.02v-36.02c0-5 7-6 7-6h143c5 0 6 5 6 10v68c0 6 2 6 10 6h7" stroke="#49B9E8" stroke-width="2" stroke-linejoin="round" stroke-dasharray="4"/><g stroke-width="4" stroke="#373D44" stroke-linejoin="round"><path id="Polygon-6-Copy" fill="#903EB9" d="M61 89l28 16.25v32.5l-28 16.25-28-16.25v-32.5z"/><path id="Polygon-6-Copy" fill="#FFCC01" d="M95 32l28 16.25v32.5l-28 16.25-28-16.25v-32.5z"/><path fill="#49B9E8" d="M28 32l28 16.25v32.5l-28 16.25-28-16.25v-32.5z"/></g><path d="M202 79c-2.761 0-5 2.239-5 5s2.239 5 5 5 2.761-10 0-10z" id="Oval-50" fill="#49B9E8"/><path d="M240 162.072c0 2.761 2.239 5 5 5s5-2.239 5-5-10-2.761-10 0z" id="Oval-50" fill="#903EB9"/><path d="M323 162.072c0 2.761 2.239 5 5 5s5-2.239 5-5-10-2.761-10 0z" fill="#FFCC01"/><g><g transform="translate(205 23)"><g id="Rectangle-121"><use fill="#fff" xlink:href="#a"/><use stroke="#373D44" mask="url(#b)" stroke-width="8" xlink:href="#a"/></g><path fill="#373D44" d="M0 16h160v4h-160z"/><path fill="#E3E6EA" d="M10 41h141v50h-141zM10 96h68v39h-68zM83 96h68v39h-68z"/><rect fill="#DEE2E5" width="160" height="16" rx="2"/><path fill="#DEE2E5" d="M0 12h160v4h-160z"/><circle id="Oval-66" fill="#373D44" cx="8" cy="8" r="3"/><circle id="Oval-66" fill="#373D44" cx="16" cy="8" r="3"/><circle fill="#373D44" cx="24" cy="8" r="3"/></g><path fill="#B8C0C9" d="M301 52h15v3h-15zM215 52h25v3h-25zM321 52h5v3h-5zM331 52h25v3h-25z"/></g></g><ellipse fill="#E5E7EA" opacity=".3" cx="195.5" cy="218" rx="164.5" ry="10"/></g></svg>
