<?xml version="1.0" encoding="UTF-8" standalone="no"?>
<svg width="23px" height="23px" viewBox="0 0 23 23" version="1.1" xmlns="http://www.w3.org/2000/svg" xmlns:xlink="http://www.w3.org/1999/xlink">
    <!-- Generator: Sketch 3.7.2 (28276) - http://www.bohemiancoding.com/sketch -->
    <title>Page 1</title>
    <desc>Created with Sketch.</desc>
    <defs></defs>
    <g id="Desktop-design" stroke="none" stroke-width="1" fill="none" fill-rule="evenodd">
        <g id="Features" transform="translate(-910.000000, -4850.000000)" fill="#3CCD3F">
            <g id="Group-4-Copy" transform="translate(0.000000, 4339.000000)">
                <g id="Group-14">
                    <g id="Group-12">
                        <g id="Group-8" transform="translate(910.000000, 510.000000)">
                            <path d="M20.88,18.5088 L20.88,15.72 C20.88,13.4004 18.9996,11.52 16.68,11.52 L14.28,11.52 C13.2864,11.52 12.48,10.7136 12.48,9.72 L12.48,6.9312 C13.47,6.4752 14.16,5.4816 14.16,4.32 C14.16,2.7288 12.8712,1.44 11.28,1.44 C9.6888,1.44 8.4,2.7288 8.4,4.32 C8.4,5.4804 9.0912,6.4752 10.08,6.9312 L10.08,9.72 C10.08,10.7136 9.2736,11.52 8.28,11.52 L5.88,11.52 C3.5604,11.52 1.68,13.4004 1.68,15.72 L1.68,18.5088 C0.69,18.9648 0,19.9596012 0,21.12 C0,22.7112 1.2888,24 2.88,24 C4.4712,24 5.76,22.71 5.76,21.12 C5.76,19.9596 5.0688,18.9648 4.08,18.5088 L4.08,15.72 C4.08,14.7264 4.8864,13.92 5.88,13.92 L8.28,13.92 C8.9268,13.92 9.5328,13.7616 10.08,13.5 L10.08,18.5088 C9.09,18.9648 8.4,19.9596012 8.4,21.12 C8.4,22.7112 9.6888,24 11.28,24 C12.8712,24 14.16,22.71 14.16,21.12 C14.16,19.9596 13.4688,18.9648 12.48,18.5088 L12.48,13.5 C13.0272,13.7616 13.6332,13.92 14.28,13.92 L16.68,13.92 C17.6736,13.92 18.48,14.7264 18.48,15.72 L18.48,18.5087988 C17.49,18.9647988 16.8,19.9583988 16.8,21.12 C16.8,22.7112 18.0888,24 19.68,24 C21.2712,24 22.56,22.71 22.56,21.12 C22.56,19.9596012 21.87,18.9648 20.88,18.5088 L20.88,18.5088 Z M11.28,2.658 C12.1968,2.658 12.9408,3.4008 12.9408,4.32 C12.9408,5.2368 12.1968,5.982 11.28,5.982 C10.362,5.982 9.6192,5.2368 9.6192,4.32 C9.6192,3.4008 10.362,2.658 11.28,2.658 L11.28,2.658 Z M2.88,22.782 C1.9608,22.782 1.218,22.0368 1.218,21.12 C1.218,20.2008 1.9608,19.458 2.88,19.458 C3.7968,19.458 4.5408,20.2008 4.5408,21.12 C4.5408,22.0368 3.7968,22.782 2.88,22.782 L2.88,22.782 Z M11.28,22.782 C10.3608,22.782 9.618,22.0368 9.618,21.12 C9.618,20.2008 10.3608,19.458 11.28,19.458 C12.1968,19.458 12.9408,20.2008 12.9408,21.12 C12.9408,22.0368 12.1968,22.782 11.28,22.782 L11.28,22.782 Z M19.68,22.782 C18.7608,22.782 18.018,22.0368 18.018,21.12 C18.018,20.2008 18.7608,19.458 19.68,19.458 C20.5968,19.458 21.3408,20.2008 21.3408,21.12 C21.3408,22.0368 20.5968,22.782 19.68,22.782 L19.68,22.782 Z" id="Page-1"></path>
                        </g>
                    </g>
                </g>
            </g>
        </g>
    </g>
</svg>
