<?xml version="1.0" encoding="UTF-8" standalone="no"?>
<svg width="22px" height="24px" viewBox="0 0 22 24" version="1.1" xmlns="http://www.w3.org/2000/svg" xmlns:xlink="http://www.w3.org/1999/xlink">
    <!-- Generator: Sketch 3.7.2 (28276) - http://www.bohemiancoding.com/sketch -->
    <title>Shape</title>
    <desc>Created with Sketch.</desc>
    <defs></defs>
    <g id="Desktop-design" stroke="none" stroke-width="1" fill="none" fill-rule="evenodd">
        <g id="Features" transform="translate(-310.000000, -5091.000000)" fill="#642EE1">
            <g id="Group-4-Copy" transform="translate(0.000000, 4339.000000)">
                <g id="Group-14">
                    <g id="Group-12">
                        <path d="M318.056125,771.039419 L316.942375,772.246938 C315.9785,773.289456 314.40825,773.289456 313.443,772.246938 C312.981,771.74593 312.726625,771.078419 312.726625,770.368908 C312.726625,769.659396 312.982375,768.994885 313.443,768.490877 L317.5405,764.058304 C318.388875,763.138789 319.986625,761.785767 321.15125,763.045787 C321.686125,763.624797 322.54825,763.621797 323.080375,763.038287 C323.60975,762.454778 323.607,761.512762 323.072125,760.935253 C321.094875,758.793218 318.168875,759.189224 315.621,761.947769 L311.5235,766.381842 C310.540375,767.44536 310,768.862883 310,770.368908 C310,771.877932 310.54175,773.292456 311.5235,774.355973 C312.5355,775.450991 313.86375,776 315.193375,776 C316.523,776 317.852625,775.452491 318.86325,774.355973 L319.978375,773.148453 C320.51325,772.570944 320.516,771.630428 319.98525,771.048419 C319.453125,770.466409 318.591,770.463409 318.056125,771.039419 L318.056125,771.039419 Z M330.475125,753.813136 C328.348,751.512098 325.37525,751.387596 323.409,753.517631 L322.021625,755.020656 C321.48675,755.599665 321.482625,756.540181 322.013375,757.12219 C322.544125,757.7057 323.40625,757.7087 323.941125,757.12969 L325.329875,755.628166 C326.347375,754.524148 327.6825,754.981655 328.555625,755.923671 C329.017625,756.426179 329.273375,757.09219 329.273375,757.801701 C329.273375,758.511213 329.017625,759.177224 328.555625,759.678232 L324.183125,764.40931 C322.183875,766.570845 321.246125,765.558329 320.846,765.124822 C320.311125,764.545812 319.449,764.550312 318.919625,765.132322 C318.388875,765.715831 318.391625,766.657847 318.9265,767.233856 C319.845,768.226872 320.89275,768.718881 321.99,768.718881 C323.333375,768.718881 324.75375,767.980868 326.105375,766.518344 L330.477875,761.788767 C331.456875,760.723749 332,759.307726 332,757.801701 C332,756.294177 331.456875,754.878153 330.475125,753.813136 L330.475125,753.813136 Z" id="Shape"></path>
                    </g>
                </g>
            </g>
        </g>
    </g>
</svg>
