<svg width="22" height="24" viewBox="0 0 22 24" xmlns="http://www.w3.org/2000/svg"><path d="M8.056 19.039l-1.114 1.208c-.964 1.043-2.534 1.043-3.499 0-.462-.501-.716-1.169-.716-1.878 0-.71.256-1.374.716-1.878l4.098-4.433c.848-.92 2.446-2.273 3.611-1.013.535.579 1.397.576 1.929-.008.529-.584.527-1.526-.008-2.103-1.977-2.142-4.903-1.746-7.451 1.013l-4.097 4.434c-.983 1.064-1.524 2.481-1.524 3.987 0 1.509.542 2.924 1.524 3.987 1.012 1.095 2.34 1.644 3.67 1.644s2.659-.548 3.67-1.644l1.115-1.208c.535-.578.538-1.518.007-2.1-.532-.582-1.394-.585-1.929-.009zm12.419-17.226c-2.127-2.301-5.1-2.426-7.066-.296l-1.387 1.503c-.535.579-.539 1.52-.008 2.102.531.584 1.393.587 1.928.007l1.389-1.502c1.017-1.104 2.353-.647 3.226.296.462.503.718 1.169.718 1.878 0 .71-.256 1.376-.718 1.877l-4.373 4.731c-1.999 2.162-2.937 1.149-3.337.716-.535-.579-1.397-.575-1.926.008-.531.584-.528 1.526.007 2.102.919.993 1.966 1.485 3.064 1.485 1.343 0 2.764-.738 4.115-2.201l4.373-4.73c.979-1.065 1.522-2.481 1.522-3.987 0-1.508-.543-2.924-1.525-3.989z" fill="#642EE1"/></svg>
