<?xml version="1.0" encoding="UTF-8" standalone="no"?>
<svg width="78px" height="88px" viewBox="0 0 78 88" version="1.1" xmlns="http://www.w3.org/2000/svg" xmlns:xlink="http://www.w3.org/1999/xlink">
    <!-- Generator: Sketch 3.7.2 (28276) - http://www.bohemiancoding.com/sketch -->
    <title>Group 14 Copy 2</title>
    <desc>Created with Sketch.</desc>
    <defs></defs>
    <g id="Desktop-design" stroke="none" stroke-width="1" fill="none" fill-rule="evenodd">
        <g id="Features" transform="translate(-1052.000000, -6059.000000)">
            <g id="Group-13" transform="translate(0.000000, 5396.000000)">
                <g id="Group-14-Copy-2" transform="translate(1052.000000, 663.000000)">
                    <path d="M35.5238347,0.829552857 C37.4344704,-0.277494758 40.5369227,-0.275540049 42.4458143,0.829552857 L74.5375323,19.4080459 C76.4498004,20.5150935 78,23.2113212 78,25.421507 L78,62.578493 C78,64.7925883 76.4464239,67.4868612 74.5375323,68.5919541 L42.4458143,87.1704471 C40.5335462,88.2774948 37.4310968,88.27554 35.5238347,87.1704471 L3.45951196,68.5919541 C1.54887626,67.4849065 2.12051611e-14,64.7886788 1.99889639e-14,62.578493 L-4.57382396e-16,25.421507 C-1.67573088e-15,23.2074117 1.55224986,20.5131388 3.45951196,19.4080459 L35.5238347,0.829552857 Z" id="Polygon-16" fill="#903EB9"></path>
                    <path d="M48.2222222,39.66 L48.2222222,52.1111111 L30.8888889,52.1111111 L30.8888889,34.7777778 L43.34,34.7777778 C43.2345556,34.3126667 43.1666667,33.8316667 43.1666667,33.3333333 C43.1666667,32.835 43.2345556,32.354 43.34,31.8888889 L30.8888889,31.8888889 C29.2971111,31.8888889 28,33.1888889 28,34.7777778 L28,52.1111111 C28,53.7 29.3,55 30.8888889,55 L48.2222222,55 C49.8111111,55 51.1111111,53.7 51.1111111,52.1111111 L51.1111111,39.66 C50.646,39.7654444 50.165,39.8333333 49.6666667,39.8333333 C49.1683333,39.8333333 48.6873333,39.7654444 48.2222222,39.66 L48.2222222,39.66 Z M49.6666667,29 C47.2732222,29 45.3333333,30.9398889 45.3333333,33.3333333 C45.3333333,35.7267778 47.2732222,37.6666667 49.6666667,37.6666667 C52.0601111,37.6666667 54,35.7267778 54,33.3333333 C54,30.9398889 52.0601111,29 49.6666667,29 L49.6666667,29 Z" id="Shape" fill="#FFFFFF"></path>
                </g>
            </g>
        </g>
    </g>
</svg>
