<?xml version="1.0" encoding="UTF-8" standalone="no"?>
<svg width="78px" height="88px" viewBox="0 0 78 88" version="1.1" xmlns="http://www.w3.org/2000/svg" xmlns:xlink="http://www.w3.org/1999/xlink">
    <!-- Generator: Sketch 3.7.2 (28276) - http://www.bohemiancoding.com/sketch -->
    <title>Group 21</title>
    <desc>Created with Sketch.</desc>
    <defs></defs>
    <g id="Desktop-design" stroke="none" stroke-width="1" fill="none" fill-rule="evenodd">
        <g id="Features" transform="translate(-463.000000, -5653.000000)">
            <g id="Group-21" transform="translate(463.000000, 5653.000000)">
                <path d="M35.5238347,0.829552857 C37.4344704,-0.277494758 40.5369227,-0.275540049 42.4458143,0.829552857 L74.5375323,19.4080459 C76.4498004,20.5150935 78,23.2113212 78,25.421507 L78,62.578493 C78,64.7925883 76.4464239,67.4868612 74.5375323,68.5919541 L42.4458143,87.1704471 C40.5335462,88.2774948 37.4310968,88.27554 35.5238347,87.1704471 L3.45951196,68.5919541 C1.54887626,67.4849065 2.12051611e-14,64.7886788 1.99889639e-14,62.578493 L-4.57382396e-16,25.421507 C-1.67573088e-15,23.2074117 1.55224986,20.5131388 3.45951196,19.4080459 L35.5238347,0.829552857 Z" id="Polygon-16" fill="#0070D3"></path>
                <path d="M40.2765696,28 C31.7262089,28 24.7705049,34.8518301 24.5627571,43.3810313 L24.5627571,43.7753674 L20,43.7753674 L26.913385,51.2658295 L33.6344109,43.7753674 L28.4945765,43.7753674 L28.4945765,43.3810313 C28.7004007,37.0274112 33.8960192,31.9452845 40.2765696,31.9452845 C46.7898477,31.9452845 52.0701042,37.2428533 52.0701042,43.7753674 C52.0701042,50.3078814 46.7898477,55.6054502 40.2765696,55.6054502 C37.666257,55.6054502 35.2540743,54.7494523 33.2997061,53.3106065 L30.5951376,56.2036869 C33.2650815,58.2965536 36.6255944,59.5468875 40.2765696,59.5468875 C48.9615816,59.5468875 56,52.4873096 56,43.7753674 C56,35.0634251 48.9615816,28 40.2765696,28 L40.2765696,28 Z M38.3529789,34.1574138 L38.3529789,43.7753674 C38.3529789,44.0254341 38.4049158,44.2755009 38.5010954,44.510179 C38.5991985,44.7448571 38.7396206,44.9583756 38.916591,45.135346 L45.0720812,51.2908362 C45.6164574,50.9388191 46.1300561,50.5425594 46.5859471,50.0828213 L42.2001603,45.6989581 L42.2001603,34.1574138 L38.3529789,34.1574138 L38.3529789,34.1574138 Z" id="Shape" fill="#FFFFFF"></path>
            </g>
        </g>
    </g>
</svg>
