<?xml version="1.0" encoding="UTF-8" standalone="no"?>
<svg width="78px" height="88px" viewBox="0 0 78 88" version="1.1" xmlns="http://www.w3.org/2000/svg" xmlns:xlink="http://www.w3.org/1999/xlink">
    <!-- Generator: Sketch 3.8.1 (29687) - http://www.bohemiancoding.com/sketch -->
    <title>Set Schedules</title>
    <desc>Created with Sketch.</desc>
    <defs>
        <path d="M39,31 C31.85,31 26,36.85 26,44 C26,51.15 31.85,57 39,57 C46.15,57 52,51.15 52,44 C52,36.85 46.15,31 39,31 Z M40.1818181,36.9090909 L37.7,36.9090909 L37.7,45.3 L44.46,49.46 L46.090909,47.5454545 L40.1818181,44 L40.1818181,36.9090909 Z" id="path-1"></path>
        <mask id="mask-2" maskContentUnits="userSpaceOnUse" maskUnits="objectBoundingBox" x="-3" y="-3" width="32" height="32">
            <rect x="23" y="28" width="32" height="32" fill="white"></rect>
            <use xlink:href="#path-1" fill="black"></use>
        </mask>
    </defs>
    <g id="Desktop-design" stroke="none" stroke-width="1" fill="none" fill-rule="evenodd">
        <g id="Features" transform="translate(-1052.000000, -6653.000000)">
            <g id="Group-13" transform="translate(0.000000, 6396.000000)">
                <g id="Group-4" transform="translate(1052.000000, 257.000000)">
                    <g id="Group-14">
                        <g id="Set-Schedules">
                            <path d="M35.5238347,0.829552857 C37.4344704,-0.277494758 40.5369227,-0.275540049 42.4458143,0.829552857 L74.5375323,19.4080459 C76.4498004,20.5150935 78,23.2113212 78,25.421507 L78,62.578493 C78,64.7925883 76.4464239,67.4868612 74.5375323,68.5919541 L42.4458143,87.1704471 C40.5335462,88.2774948 37.4310968,88.27554 35.5238347,87.1704471 L3.45951196,68.5919541 C1.54887626,67.4849065 3.54160159e-14,64.7886788 3.41998186e-14,62.578493 L1.37534723e-14,25.421507 C1.25351238e-14,23.2074117 1.55224986,20.5131388 3.45951196,19.4080459 L35.5238347,0.829552857 Z" id="Polygon-16" fill="#D4E157"></path>
                            <use id="Shape" stroke="#FFFFFF" mask="url(#mask-2)" stroke-width="6" xlink:href="#path-1"></use>
                        </g>
                    </g>
                </g>
            </g>
        </g>
    </g>
</svg>
