<?xml version="1.0" encoding="UTF-8" standalone="no"?>
<svg width="78px" height="88px" viewBox="0 0 78 88" version="1.1" xmlns="http://www.w3.org/2000/svg" xmlns:xlink="http://www.w3.org/1999/xlink">
    <!-- Generator: Sketch 3.8.1 (29687) - http://www.bohemiancoding.com/sketch -->
    <title>Group 26</title>
    <desc>Created with Sketch.</desc>
    <defs></defs>
    <g id="Desktop-design" stroke="none" stroke-width="1" fill="none" fill-rule="evenodd">
        <g id="Features" transform="translate(-1052.000000, -6138.000000)">
            <g id="Group-13" transform="translate(0.000000, 5881.000000)">
                <g id="Group-4" transform="translate(1052.000000, 257.000000)">
                    <g id="Group-14">
                        <g id="Group-3">
                            <g id="Group-26">
                                <path d="M35.5238347,0.829552857 C37.4344704,-0.277494758 40.5369227,-0.275540049 42.4458143,0.829552857 L74.5375323,19.4080459 C76.4498004,20.5150935 78,23.2113212 78,25.421507 L78,62.578493 C78,64.7925883 76.4464239,67.4868612 74.5375323,68.5919541 L42.4458143,87.1704471 C40.5335462,88.2774948 37.4310968,88.27554 35.5238347,87.1704471 L3.45951196,68.5919541 C1.54887626,67.4849065 3.54160159e-14,64.7886788 3.41998186e-14,62.578493 L1.37534723e-14,25.421507 C1.25351238e-14,23.2074117 1.55224986,20.5131388 3.45951196,19.4080459 L35.5238347,0.829552857 Z" id="Polygon-16" fill="#D4E157"></path>
                                <g id="Group-25" transform="translate(23.000000, 28.000000)" fill-opacity="0.9" fill="#FFFFFF">
                                    <path d="M16,0 C7.2,0 0,7.2 0,16 C0,24.8 7.2,32 16,32 C24.8,32 32,24.8 32,16 C32,7.2 24.8,0 16,0 L16,0 Z M16,28.8 C8.96,28.8 3.2,23.04 3.2,16 C3.2,8.96 8.96,3.2 16,3.2 C23.04,3.2 28.8,8.96 28.8,16 C28.8,23.04 23.04,28.8 16,28.8 L16,28.8 Z" id="Shape"></path>
                                    <polygon id="Shape" points="16.8 8 14.4 8 14.4 17.6 22.72 22.72 24 20.64 16.8 16.32"></polygon>
                                </g>
                            </g>
                        </g>
                    </g>
                </g>
            </g>
        </g>
    </g>
</svg>