<svg width="105" height="105" viewBox="0 0 105 105" xmlns="http://www.w3.org/2000/svg"><g transform="translate(0 0)" fill="none"><circle fill="#49B9E8" cx="52.5" cy="52.5" r="52.5"/><path d="M68.054 46.516c0 9.98-7.594 21.484-21.48 21.484-4.266 0-8.232-1.25-11.574-3.394.592.07 1.192.106 1.8.106 3.54 0 6.794-1.208 9.376-3.23-3.302-.062-6.092-2.242-7.052-5.242.46.086.934.132 1.42.132.69 0 1.358-.09 1.99-.262-3.454-.696-6.056-3.746-6.056-7.406v-.094c1.018.566 2.184.906 3.42.946-2.026-1.356-3.36-3.664-3.36-6.286 0-1.382.372-2.68 1.024-3.796 3.722 4.57 9.288 7.574 15.562 7.89-.128-.554-.194-1.128-.194-1.722 0-4.168 3.378-7.546 7.548-7.546 2.172 0 4.134.914 5.512 2.382 1.718-.34 3.334-.968 4.794-1.832-.564 1.762-1.762 3.242-3.32 4.176 1.528-.184 2.98-.586 4.336-1.188-1.012 1.516-2.292 2.844-3.768 3.906.016.324.022.652.022.976z" fill="#fff"/></g></svg>
