<?xml version="1.0" encoding="UTF-8" standalone="no"?>
<svg width="301px" height="300px" viewBox="0 0 301 300" version="1.1" xmlns="http://www.w3.org/2000/svg" xmlns:xlink="http://www.w3.org/1999/xlink">
    <!-- Generator: Sketch 3.8.1 (29687) - http://www.bohemiancoding.com/sketch -->
    <title>Group 25</title>
    <desc>Created with Sketch.</desc>
    <defs>
        <path d="M80.6569003,72.6917296 C98.8313425,54.5172874 116.807097,31.8323028 116.807097,31.8323028 C140.88573,3.02874568 179.938179,3.03541764 204.221965,31.6916684 C204.221965,31.6916684 225.042203,57.5662514 244.727849,77.2518982 C263.809742,96.333791 288.443761,116.045576 288.443761,116.045576 C317.187904,140.190135 317.275227,179.460398 288.789546,203.934976 C288.789546,203.934976 268.807703,220.170308 252.210991,236.767021 C230.080921,258.89709 205.244054,288.389014 205.244054,288.389014 C180.584866,316.704181 141.130857,316.256896 116.917216,287.54675 C116.917216,287.54675 98.0505415,263.86354 79.4112856,245.224284 C59.2830019,225.096 32.4459411,203.415132 32.4459411,203.415132 C3.7626927,179.202256 3.82853125,139.994666 32.4341233,115.668468 C32.4341233,115.668468 60.10456,93.2440698 80.6569003,72.6917296 Z" id="path-1"></path>
        <mask id="mask-2" maskContentUnits="userSpaceOnUse" maskUnits="objectBoundingBox" x="0" y="0" width="319.733151" height="319.412447" fill="white">
            <use xlink:href="#path-1"></use>
        </mask>
        <ellipse id="path-3" cx="80.9132231" cy="76.8530021" rx="7.29545455" ry="7.28778468"></ellipse>
        <mask id="mask-4" maskContentUnits="userSpaceOnUse" maskUnits="objectBoundingBox" x="0" y="0" width="14.5909091" height="14.5755694" fill="white">
            <use xlink:href="#path-3"></use>
        </mask>
        <ellipse id="path-5" cx="80.9132231" cy="242.112713" rx="7.29545455" ry="7.28778468"></ellipse>
        <mask id="mask-6" maskContentUnits="userSpaceOnUse" maskUnits="objectBoundingBox" x="0" y="0" width="14.5909091" height="14.5755694" fill="white">
            <use xlink:href="#path-5"></use>
        </mask>
        <ellipse id="path-7" cx="239.423554" cy="76.8530021" rx="7.29545455" ry="7.28778468"></ellipse>
        <mask id="mask-8" maskContentUnits="userSpaceOnUse" maskUnits="objectBoundingBox" x="0" y="0" width="14.5909091" height="14.5755694" fill="white">
            <use xlink:href="#path-7"></use>
        </mask>
        <ellipse id="path-9" cx="239.423554" cy="242.112713" rx="7.29545455" ry="7.28778468"></ellipse>
        <mask id="mask-10" maskContentUnits="userSpaceOnUse" maskUnits="objectBoundingBox" x="0" y="0" width="14.5909091" height="14.5755694" fill="white">
            <use xlink:href="#path-9"></use>
        </mask>
    </defs>
    <g id="Desktop-design" stroke="none" stroke-width="1" fill="none" fill-rule="evenodd">
        <g id="Help-page" transform="translate(-321.000000, -1851.000000)">
            <g id="Group-25" transform="translate(311.000000, 1841.000000)">
                <use id="Rectangle-586" stroke="#373D44" mask="url(#mask-2)" stroke-width="8" opacity="0.2" xlink:href="#path-1"></use>
                <g id="Group-24" transform="translate(51.068182, 50.351967)">
                    <path d="M166.577594,88.2975018 C183.213254,85.9619568 200.207089,83.0279256 214.958742,80.2709955 C217.504149,89.5201395 218.863636,99.2598592 218.863636,109.31677 C218.863636,119.378375 217.50288,129.122492 214.955178,138.375494 C200.266546,135.632878 183.358928,132.713722 166.806035,130.382058 C169.162803,123.913387 170.448347,116.93068 170.448347,109.648033 C170.448347,102.133436 169.07961,94.9381882 166.577594,88.2975018 Z M53.2787921,87.4426915 C36.1253882,85.1126105 18.9193413,82.3305221 4.0496038,79.750248 C1.41104581,89.1543074 0,99.0709283 0,109.31677 C0,119.55843 1.40989426,129.471138 4.04637378,138.871778 C18.840612,136.302231 35.9509003,133.533602 53.0298168,131.211141 C50.4766419,124.511532 49.0785124,117.242886 49.0785124,109.648033 C49.0785124,101.809831 50.5676733,94.3190744 53.2787882,87.4426909 Z" id="Oval-149" fill="#49B9E8"></path>
                    <path d="M87.1211492,165.908813 C84.8059464,182.856328 82.0591312,199.820307 79.511149,214.497212 C89.0209458,217.191528 99.0578047,218.63354 109.431818,218.63354 C119.571971,218.63354 129.389998,217.25581 138.708549,214.677514 C136.174942,200.106118 133.443009,183.26228 131.133321,166.403635 C124.48651,168.902279 117.284763,170.269151 109.76343,170.269151 C101.759556,170.269151 94.1175913,168.721266 87.1211492,165.908813 Z M88.2362911,52.9517912 C85.9023723,36.1501653 82.9390168,18.9231457 80.1477508,3.95805671 C89.4684849,1.37845387 99.2890046,0 109.431818,0 C119.350725,0 128.961411,1.31826581 138.09788,3.78897744 C135.324211,18.6630919 132.376104,35.782982 130.041617,52.4940087 C123.700538,50.2488523 116.874834,49.0269151 109.76343,49.0269151 C102.182746,49.0269151 94.9267113,50.4154442 88.2362911,52.9517912 Z" id="Oval-149" fill="#49B9E8"></path>
                    <path d="M109.431818,214.63354 L109.431818,214.63354 C167.661145,214.63354 214.863636,167.480674 214.863636,109.31677 C214.863636,51.1528665 167.661145,4 109.431818,4 C51.2024915,4 4,51.1528665 4,109.31677 C4,167.480674 51.2024915,214.63354 109.431818,214.63354 L109.431818,214.63354 Z M109.431818,218.63354 L109.431818,218.63354 C48.9942939,218.63354 0,169.690755 0,109.31677 C0,48.9427851 48.9942939,0 109.431818,0 C169.869343,0 218.863636,48.9427851 218.863636,109.31677 C218.863636,169.690755 169.869343,218.63354 109.431818,218.63354 L109.431818,218.63354 Z M109.76343,166.269151 L109.76343,166.269151 C141.070586,166.269151 166.448347,140.918071 166.448347,109.648033 C166.448347,78.3779956 141.070586,53.0269151 109.76343,53.0269151 C78.456273,53.0269151 53.0785124,78.3779956 53.0785124,109.648033 C53.0785124,140.918071 78.456273,166.269151 109.76343,166.269151 L109.76343,166.269151 Z M109.76343,170.269151 L109.76343,170.269151 C76.2480754,170.269151 49.0785124,143.128152 49.0785124,109.648033 C49.0785124,76.1679141 76.2480754,49.0269151 109.76343,49.0269151 C143.278784,49.0269151 170.448347,76.1679141 170.448347,109.648033 C170.448347,143.128152 143.278784,170.269151 109.76343,170.269151 L109.76343,170.269151 Z" id="Oval-149" fill="#373D44"></path>
                </g>
                <use id="Oval-155" stroke="#373D44" mask="url(#mask-4)" stroke-width="8" fill="#FFFFFF" xlink:href="#path-3"></use>
                <use id="Oval-155-Copy-2" stroke="#373D44" mask="url(#mask-6)" stroke-width="8" fill="#FFFFFF" xlink:href="#path-5"></use>
                <use id="Oval-155-Copy" stroke="#373D44" mask="url(#mask-8)" stroke-width="8" fill="#FFFFFF" xlink:href="#path-7"></use>
                <use id="Oval-155-Copy-3" stroke="#373D44" mask="url(#mask-10)" stroke-width="8" fill="#FFFFFF" xlink:href="#path-9"></use>
            </g>
        </g>
    </g>
</svg>