<svg width="78" height="88" viewBox="0 0 78 88" xmlns="http://www.w3.org/2000/svg"><g fill="none"><path d="M35.524.83c1.911-1.107 5.013-1.105 6.922 0l32.092 18.578c1.912 1.107 3.462 3.803 3.462 6.013v37.157c0 2.214-1.554 4.908-3.462 6.013l-32.092 18.578c-1.912 1.107-5.015 1.105-6.922 0l-32.064-18.578c-1.911-1.107-3.46-3.803-3.46-6.013v-37.157c0-2.214 1.552-4.908 3.46-6.013l32.064-18.578z" fill="#49B9E8"/><path d="M46.922 45v8c0 1.105-.861 2-1.923 2-.327 0-.635 0-1.808-1-1.192-1-3.211-3-5.288-4-1.923-.92-3.904-1-5.865-1l2.327 6.64.058.36c0 .552-.43 1-.961 1h-3.846c-.423 0-.788-.28-.904-.68l-2.577-7.32h-.365c-1.062 0-1.923-.895-1.923-2-2.124 0-3.846-1.791-3.846-4s1.722-4 3.846-4c0-1.105.861-2 1.923-2h5.769c2.135 0 4.269 0 6.365-1 2.077-1 4.096-3 5.288-4 1.173-1 1.481-1 1.808-1 1.062 0 1.923.895 1.923 2v8c1.062 0 1.923.895 1.923 2s-.861 2-1.923 2zm11.078-2c0 2.76-1.077 5.26-2.808 7.08l-2.731-2.84c1.038-1.08 1.692-2.58 1.692-4.24 0-1.66-.654-3.16-1.692-4.24l2.731-2.84c1.731 1.82 2.808 4.32 2.808 7.08z" fill="#fff"/></g></svg>
