<?xml version="1.0" encoding="UTF-8" standalone="no"?><svg width="78px" height="88px" viewBox="0 0 78 88" version="1.1" xmlns="http://www.w3.org/2000/svg" xmlns:xlink="http://www.w3.org/1999/xlink"><g id="Desktop-design" stroke="none" stroke-width="1" fill="none" fill-rule="evenodd"><g id="Features" transform="translate(-541.000000, -6206.000000)"><g id="Group-13" transform="translate(192.000000, 5983.000000)"><g id="Group-14" transform="translate(349.000000, 223.000000)"><g id="Group-3"><path d="M35.5238347,0.829552857 C37.4344704,-0.277494758 40.5369227,-0.275540049 42.4458143,0.829552857 L74.5375323,19.4080459 C76.4498004,20.5150935 78,23.2113212 78,25.421507 L78,62.578493 C78,64.7925883 76.4464239,67.4868612 74.5375323,68.5919541 L42.4458143,87.1704471 C40.5335462,88.2774948 37.4310968,88.27554 35.5238347,87.1704471 L3.45951196,68.5919541 C1.54887626,67.4849065 2.12051611e-14,64.7886788 1.99889639e-14,62.578493 L-4.57382396e-16,25.421507 C-1.67573088e-15,23.2074117 1.55224986,20.5131388 3.45951196,19.4080459 L35.5238347,0.829552857 Z" id="Polygon-16" fill="#66BB6A"></path><path d="M26.028192,30.995186 L29.0563841,30.995186 L29.0563841,33.9908437 L26.028192,33.9908437 L26.028192,30.995186 L26.028192,30.995186 L26.028192,30.995186 Z M55,54.9562024 C55,53.3024824 53.2093718,51.9605447 51.0004122,51.9605447 L27.00053,51.9605447 C24.7915704,51.9605447 23.0004711,53.3024824 23.0004711,54.9562024 L23.0004711,57.9518601 C23.0004711,59.6065235 24.7915704,60.9479895 27.00053,60.9479895 L51.0004122,60.9479895 C53.2093718,60.9479895 55,59.6065235 55,57.9518601 L55,54.9562024 L55,54.9562024 L55,54.9562024 Z M55,42.97593 C55,41.3217383 53.2093718,39.980744 51.0004122,39.980744 L27.00053,39.980744 C24.7915704,39.980744 23.0004711,41.3217383 23.0004711,42.97593 L23.0004711,45.9711161 C23.0004711,47.6253078 24.7915704,48.9667737 27.00053,48.9667737 L51.0004122,48.9667737 C53.2093718,48.9667737 55,47.6253078 55,45.9711161 L55,42.97593 L55,42.97593 L55,42.97593 Z M55,30.995186 C55,29.341466 53.2093718,28 51.0004122,28 L27.0000589,28 C24.7910993,28 23,29.341466 23,30.995186 L23,33.9908437 C23,35.6450354 24.7910993,36.9865014 27.0000589,36.9865014 L51.0004122,36.9865014 C53.2089007,36.9865014 54.9995289,35.6450354 54.9995289,33.9908437 L55,30.995186 L55,30.995186 L55,30.995186 L55,30.995186 Z M26.028192,45.9711161 L29.0563841,45.9711161 L29.0563841,42.97593 L26.028192,42.97593 L26.028192,45.9711161 L26.028192,45.9711161 L26.028192,45.9711161 Z M26.028192,57.9518601 L29.0563841,57.9518601 L29.0563841,54.9562024 L26.028192,54.9562024 L26.028192,57.9518601 L26.028192,57.9518601 L26.028192,57.9518601 Z" id="Shape" fill="#FFFFFF"></path></g></g></g></g></g></svg>
