<svg width="78" height="88" viewBox="0 0 78 88" xmlns="http://www.w3.org/2000/svg"><g fill="none"><path d="M35.524.83c1.911-1.107 5.013-1.105 6.922 0l32.092 18.578c1.912 1.107 3.462 3.803 3.462 6.013v37.157c0 2.214-1.554 4.908-3.462 6.013l-32.092 18.578c-1.912 1.107-5.015 1.105-6.922 0l-32.064-18.578c-1.911-1.107-3.46-3.803-3.46-6.013v-37.157c0-2.214 1.552-4.908 3.46-6.013l32.064-18.578z" fill="#903EB9"/><path d="M48.222 39.66v12.451h-17.333v-17.333h12.451c-.105-.465-.173-.946-.173-1.444s.068-.979.173-1.444h-12.451c-1.592 0-2.889 1.3-2.889 2.889v17.333c0 1.589 1.3 2.889 2.889 2.889h17.333c1.589 0 2.889-1.3 2.889-2.889v-12.451c-.465.105-.946.173-1.444.173s-.979-.068-1.444-.173zm1.444-10.66c-2.393 0-4.333 1.94-4.333 4.333 0 2.393 1.94 4.333 4.333 4.333 2.393 0 4.333-1.94 4.333-4.333 0-2.393-1.94-4.333-4.333-4.333z" fill="#fff"/></g></svg>
