<?xml version="1.0" encoding="UTF-8" standalone="no"?><svg width="78px" height="88px" viewBox="0 0 78 88" version="1.1" xmlns="http://www.w3.org/2000/svg" xmlns:xlink="http://www.w3.org/1999/xlink"><g id="Desktop-design" stroke="none" stroke-width="1" fill="none" fill-rule="evenodd"><g id="Features" transform="translate(-428.000000, -6208.000000)"><g id="Group-13" transform="translate(192.000000, 5983.000000)"><g id="Group-14" transform="translate(236.000000, 225.000000)"><g id="Group-3" fill="#E57373"><path d="M35.5238347,0.829552857 C37.4344704,-0.277494758 40.5369227,-0.275540049 42.4458143,0.829552857 L74.5375323,19.4080459 C76.4498004,20.5150935 78,23.2113212 78,25.421507 L78,62.578493 C78,64.7925883 76.4464239,67.4868612 74.5375323,68.5919541 L42.4458143,87.1704471 C40.5335462,88.2774948 37.4310968,88.27554 35.5238347,87.1704471 L3.45951196,68.5919541 C1.54887626,67.4849065 2.12051611e-14,64.7886788 1.99889639e-14,62.578493 L-4.57382396e-16,25.421507 C-1.67573088e-15,23.2074117 1.55224986,20.5131388 3.45951196,19.4080459 L35.5238347,0.829552857 Z" id="Polygon-16"></path></g><path d="M34.8864199,51.0183628 L32.637612,53.1345153 L23,44.0670994 L32.637612,35 L34.8864199,37.1155193 L27.4976156,44.0670994 L34.8864199,51.0183628 L34.8864199,51.0183628 L34.8864199,51.0183628 Z M45.362388,53.1345153 L43.1132635,51.0183628 L50.5020678,44.0667828 L43.1135801,37.1155193 L45.3627046,35 L55,44.0670994 L45.362388,53.1345153 L45.362388,53.1345153 L45.362388,53.1345153 Z" id="Shape" fill="#FFFFFF"></path></g></g></g></g></svg>
