<svg xmlns="http://www.w3.org/2000/svg" xmlns:xlink="http://www.w3.org/1999/xlink" preserveAspectRatio="xMidYMid" width="71.91" height="71.865" viewBox="0 0 47.94 47.91">
  <path d="M46.942,21.946 C46.937,21.945 46.947,21.908 46.940,21.909 L42.930,21.909 L42.930,39.916 L46.922,39.916 C47.474,39.916 47.920,40.363 47.920,40.914 L47.920,46.905 C47.920,47.456 47.474,47.903 46.922,47.903 L1.016,47.903 C0.465,47.903 0.018,47.456 0.018,46.905 L0.018,40.914 C0.018,40.363 0.465,39.916 1.016,39.916 L5.008,39.916 L5.008,21.909 L0.940,21.909 C0.524,21.909 0.227,21.687 0.082,21.297 C-0.065,20.906 0.047,20.467 0.362,20.194 L23.348,0.227 C23.723,-0.100 24.284,-0.099 24.657,0.227 L47.467,20.098 C47.750,20.274 47.939,20.588 47.939,20.948 C47.939,21.499 47.493,21.946 46.942,21.946 ZM24.939,39.916 L31.953,39.916 L31.953,21.909 L24.940,21.909 L24.940,39.908 C24.940,39.911 24.939,39.913 24.939,39.916 ZM15.939,39.916 L22.971,39.916 L22.971,21.909 L15.940,21.909 L15.940,39.908 C15.940,39.911 15.939,39.913 15.939,39.916 ZM33.949,39.916 L40.934,39.916 L40.934,21.909 L33.949,21.909 L33.949,39.916 ZM2.014,45.906 L45.924,45.906 L45.924,41.912 L2.014,41.912 L2.014,45.906 ZM13.990,39.916 L13.990,21.909 L6.940,21.909 L6.940,39.908 C6.940,39.911 6.939,39.913 6.939,39.916 L13.990,39.916 ZM24.001,2.303 L3.687,19.949 L44.257,19.949 L24.001,2.303 Z" />
</svg>
