<svg xmlns="http://www.w3.org/2000/svg" xmlns:xlink="http://www.w3.org/1999/xlink" preserveAspectRatio="xMidYMid" width="28" height="28" viewBox="0 0 32 32">
  <path d="M16.000,32.000 C7.178,32.000 -0.000,24.823 -0.000,16.000 C-0.000,7.178 7.178,-0.000 16.000,-0.000 C24.822,-0.000 32.000,7.178 32.000,16.000 C32.000,24.823 24.822,32.000 16.000,32.000 ZM16.000,2.000 C8.280,2.000 2.000,8.280 2.000,16.000 C2.000,23.719 8.280,30.000 16.000,30.000 C23.720,30.000 30.000,23.719 30.000,16.000 C30.000,8.280 23.720,2.000 16.000,2.000 ZM14.796,21.704 C14.602,21.900 14.344,22.000 14.086,22.000 C13.856,22.000 13.625,21.922 13.438,21.762 L7.352,16.588 C6.932,16.231 6.880,15.599 7.238,15.179 C7.596,14.757 8.226,14.706 8.648,15.064 L14.028,19.638 L23.290,10.296 C23.678,9.903 24.312,9.900 24.704,10.290 C25.096,10.679 25.099,11.312 24.710,11.704 L14.796,21.704 Z" />
</svg>
