<svg xmlns="http://www.w3.org/2000/svg" xmlns:xlink="http://www.w3.org/1999/xlink" preserveAspectRatio="xMidYMid" width="71.718" height="59.85" viewBox="0 0 47.812 39.9">
  <path d="M44.529,15.705 C44.334,15.899 44.079,15.996 43.825,15.996 C43.570,15.996 43.315,15.899 43.120,15.705 C42.731,15.315 42.731,14.684 43.120,14.293 L45.404,12.006 L43.120,9.718 C42.731,9.328 42.731,8.697 43.120,8.307 C43.509,7.918 44.140,7.918 44.529,8.307 L47.517,11.300 C47.906,11.690 47.906,12.321 47.517,12.711 L44.529,15.705 ZM39.906,36.999 L7.906,36.999 C7.356,36.999 6.969,36.502 6.969,35.950 C6.969,35.398 7.356,34.999 7.906,34.999 L39.906,34.999 C40.456,34.999 40.836,35.398 40.836,35.950 C40.836,36.502 40.456,36.999 39.906,36.999 ZM39.840,28.966 L25.895,28.966 C25.345,28.966 24.899,28.520 24.899,27.968 C24.899,27.417 25.345,26.971 25.895,26.971 L39.840,26.971 C40.390,26.971 40.836,27.417 40.836,27.968 C40.836,28.520 40.390,28.966 39.840,28.966 ZM39.840,20.984 L20.914,20.984 C20.364,20.984 19.918,20.538 19.918,19.987 C19.918,19.436 20.364,18.989 20.914,18.989 L39.840,18.989 C40.390,18.989 40.836,19.436 40.836,19.987 C40.836,20.538 40.390,20.984 39.840,20.984 ZM39.840,13.003 L30.875,13.003 C30.325,13.003 29.879,12.557 29.879,12.006 C29.879,11.454 30.325,11.008 30.875,11.008 L39.840,11.008 C40.390,11.008 40.836,11.454 40.836,12.006 C40.836,12.557 40.390,13.003 39.840,13.003 ZM39.840,5.022 L7.965,5.022 C7.415,5.022 6.969,4.575 6.969,4.024 C6.969,3.473 7.415,3.027 7.965,3.027 L39.840,3.027 C40.390,3.027 40.836,3.473 40.836,4.024 C40.836,4.575 40.390,5.022 39.840,5.022 ZM4.685,23.686 C4.490,23.880 4.235,23.978 3.980,23.978 C3.725,23.978 3.471,23.880 3.276,23.686 L0.288,20.693 C-0.101,20.302 -0.101,19.671 0.288,19.281 L3.276,16.289 C3.665,15.899 4.295,15.899 4.685,16.289 C5.074,16.679 5.074,17.310 4.685,17.700 L2.401,19.987 L4.685,22.275 C5.074,22.664 5.074,23.296 4.685,23.686 ZM4.685,7.723 C4.490,7.918 4.235,8.014 3.980,8.014 C3.725,8.014 3.471,7.918 3.276,7.723 L0.288,4.730 C-0.101,4.340 -0.101,3.709 0.288,3.319 L3.276,0.325 C3.665,-0.064 4.295,-0.064 4.685,0.325 C5.074,0.716 5.074,1.347 4.685,1.737 L2.401,4.024 L4.685,6.311 C5.074,6.702 5.074,7.332 4.685,7.723 ZM7.965,11.008 L25.895,11.008 C26.445,11.008 26.891,11.454 26.891,12.006 C26.891,12.557 26.445,13.003 25.895,13.003 L7.965,13.003 C7.415,13.003 6.969,12.557 6.969,12.006 C6.969,11.454 7.415,11.008 7.965,11.008 ZM7.965,26.971 L20.914,26.971 C21.464,26.971 21.910,27.417 21.910,27.968 C21.910,28.520 21.464,28.966 20.914,28.966 L7.965,28.966 C7.415,28.966 6.969,28.520 6.969,27.968 C6.969,27.417 7.415,26.971 7.965,26.971 ZM7.965,18.989 L15.934,18.989 C16.484,18.989 16.930,19.436 16.930,19.987 C16.930,20.538 16.484,20.984 15.934,20.984 L7.965,20.984 C7.415,20.984 6.969,20.538 6.969,19.987 C6.969,19.436 7.415,18.989 7.965,18.989 ZM43.120,32.252 C43.509,31.862 44.140,31.862 44.529,32.252 L47.517,35.245 C47.906,35.634 47.906,36.266 47.517,36.655 L44.529,39.649 C44.334,39.843 44.079,39.941 43.825,39.941 C43.570,39.941 43.315,39.843 43.120,39.649 C42.731,39.259 42.731,38.628 43.120,38.238 L45.404,35.950 L43.120,33.662 C42.731,33.272 42.731,32.641 43.120,32.252 Z" />
</svg>
