<svg xmlns="http://www.w3.org/2000/svg" xmlns:xlink="http://www.w3.org/1999/xlink" preserveAspectRatio="xMidYMid" width="72" height="59.91" viewBox="0 0 48 39.94">
  <path d="M48.000,30.946 C48.000,32.598 46.654,33.942 45.000,33.942 C43.346,33.942 42.000,32.598 42.000,30.946 C42.000,29.645 42.839,28.547 44.000,28.133 L44.000,15.715 L36.959,19.871 C36.974,19.938 37.000,20.001 37.000,20.072 L37.000,36.055 C37.000,36.592 36.575,37.021 36.044,37.045 C34.595,37.775 29.741,39.936 23.000,39.936 C16.259,39.936 11.404,37.775 9.956,37.045 C9.425,37.021 9.000,36.592 9.000,36.055 L9.000,20.072 C9.000,20.001 9.026,19.938 9.041,19.871 L0.491,14.824 C0.186,14.645 -0.000,14.317 -0.000,13.964 C-0.000,13.612 0.186,13.284 0.491,13.105 L22.492,0.119 C22.807,-0.066 23.195,-0.066 23.510,0.119 L45.510,13.105 C45.510,13.105 45.510,13.105 45.510,13.105 C45.913,13.165 46.000,13.449 46.000,13.939 L46.000,13.961 C46.000,13.962 46.001,13.963 46.001,13.964 C46.001,13.966 46.000,13.967 46.000,13.968 L46.000,28.133 C47.162,28.547 48.000,29.645 48.000,30.946 ZM35.000,35.330 L35.000,21.028 L23.510,27.810 C23.352,27.902 23.177,27.949 23.001,27.949 C22.825,27.949 22.649,27.902 22.492,27.810 L11.000,21.027 L11.000,35.330 C12.452,36.032 16.951,37.938 23.000,37.938 C29.048,37.938 33.548,36.032 35.000,35.330 ZM23.001,2.139 L2.966,13.964 L23.001,25.790 L43.035,13.964 L23.001,2.139 ZM45.419,30.046 C45.397,30.048 45.386,30.062 45.362,30.062 C45.224,30.062 45.070,30.026 44.916,29.964 C44.405,30.009 44.000,30.425 44.000,30.946 C44.000,31.496 44.448,31.945 45.000,31.945 C45.552,31.945 46.000,31.496 46.000,30.946 C46.000,30.546 45.760,30.205 45.419,30.046 Z" />
</svg>
