<svg xmlns="http://www.w3.org/2000/svg" xmlns:xlink="http://www.w3.org/1999/xlink" preserveAspectRatio="xMidYMid" width="71.813" height="72" viewBox="0 0 47.875 48">
  <path d="M47.672,35.593 L38.856,47.592 C38.693,47.814 38.445,47.960 38.172,47.993 C38.132,47.998 38.092,48.000 38.053,48.000 C37.820,48.000 37.593,47.918 37.412,47.766 L30.271,41.766 C29.849,41.412 29.793,40.781 30.147,40.357 C30.500,39.934 31.129,39.876 31.552,40.234 L37.879,45.550 L46.066,34.407 C46.393,33.962 47.017,33.867 47.461,34.195 C47.904,34.522 47.999,35.148 47.672,35.593 ZM6.975,39.000 C6.424,39.000 5.978,38.552 5.978,38.000 C5.978,37.447 6.424,36.999 6.975,36.999 L10.965,36.999 C11.515,36.999 11.962,37.447 11.962,38.000 C11.962,38.552 11.515,39.000 10.965,39.000 L6.975,39.000 ZM40.885,33.000 L1.988,33.000 L1.988,43.000 C1.988,44.653 3.331,45.999 4.981,45.999 L26.922,45.999 C27.473,45.999 27.920,46.447 27.920,47.000 C27.920,47.553 27.473,48.000 26.922,48.000 L4.981,48.000 C2.231,48.000 -0.006,45.756 -0.006,43.000 L-0.006,5.000 C-0.006,2.243 2.231,-0.000 4.981,-0.000 L36.896,-0.000 C39.645,-0.000 42.000,2.243 42.000,5.000 L42.000,32.000 C42.000,32.552 41.436,33.000 40.885,33.000 ZM40.000,5.000 C40.000,3.346 38.546,2.000 36.896,2.000 L4.981,2.000 C3.331,2.000 1.988,3.346 1.988,5.000 L1.988,14.999 L40.000,14.999 L40.000,5.000 ZM40.000,16.999 L1.988,16.999 L1.988,31.000 L40.000,31.000 L40.000,16.999 ZM6.975,20.999 L10.965,20.999 C11.515,20.999 11.962,21.447 11.962,21.999 C11.962,22.553 11.515,23.000 10.965,23.000 L6.975,23.000 C6.424,23.000 5.978,22.553 5.978,21.999 C5.978,21.447 6.424,20.999 6.975,20.999 ZM6.975,6.000 L10.965,6.000 C11.515,6.000 11.962,6.447 11.962,7.000 C11.962,7.552 11.515,7.999 10.965,7.999 L6.975,7.999 C6.424,7.999 5.978,7.552 5.978,7.000 C5.978,6.447 6.424,6.000 6.975,6.000 Z" />
</svg>
