<?xml version="1.0" encoding="UTF-8"?>
<svg width="873px" height="426px" viewBox="0 0 873 426" version="1.1" xmlns="http://www.w3.org/2000/svg" xmlns:xlink="http://www.w3.org/1999/xlink">
    <!-- Generator: Sketch 46.2 (44496) - http://www.bohemiancoding.com/sketch -->
    <title>Group</title>
    <desc>Created with Sketch.</desc>
    <defs></defs>
    <g id="Page-1" stroke="none" stroke-width="1" fill="none" fill-rule="evenodd">
        <g id="Group" transform="translate(0.000000, -2.000000)">
            <path d="M120,401.999283 C278.576475,402.156203 421.696623,376.559832 549.360445,325.21017 C677.024266,273.860508 757.237452,205.790451 790,121" id="Line" stroke="#FFFFFF" stroke-width="3" stroke-linecap="square"></path>
            <path id="Line-decoration-1" d="M790,121 L783.309053,129.992843 L788.905784,132.155388 L790,121 Z" stroke="#FFFFFF" stroke-width="3" stroke-linecap="square"></path>
            <circle id="Oval" stroke="#020202" fill="#FFFFFF" cx="399.5" cy="371.5" r="7.5"></circle>
            <circle id="Oval" stroke="#020202" fill="#FFFFFF" cx="742.5" cy="198.5" r="7.5"></circle>
            <circle id="Oval" stroke="#020202" fill="#FFFFFF" cx="577.5" cy="313.5" r="7.5"></circle>
            <text id="Tech-Innovation-&amp;-Ac" opacity="0.497282609" font-family="Roboto-Regular, Roboto" font-size="14" font-weight="normal" fill="#FFFFFF">
                <tspan x="588" y="380">Tech Innovation &amp; </tspan>
                <tspan x="588" y="396">Accelleration platform</tspan>
            </text>
            <text id="Best-practice-innova" opacity="0.497282609" font-family="Roboto-Regular, Roboto" font-size="14" font-weight="normal" fill="#FFFFFF">
                <tspan x="274" y="327">Best practice innovation </tspan>
                <tspan x="274" y="343">methodology</tspan>
            </text>
            <text id="Your-Company" opacity="0.495074728" font-family="Roboto-Regular, Roboto" font-size="16" font-weight="normal" fill="#FFFFFF">
                <tspan x="0" y="337">Your Company</tspan>
            </text>
            <text id="Digital-Transformati" opacity="0.495074728" font-family="Roboto-Regular, Roboto" font-size="16" font-weight="normal" fill="#FFFFFF">
                <tspan x="712" y="15">Digital Transformation</tspan>
            </text>
            <text id="Crowdsourced-Develop" opacity="0.497282609" font-family="Roboto-Regular, Roboto" font-size="14" font-weight="normal" fill="#FFFFFF">
                <tspan x="757" y="262">Crowdsourced </tspan>
                <tspan x="757" y="278">Development</tspan>
            </text>
            <g id="bank" transform="translate(20.000000, 361.000000)" fill-rule="nonzero" fill="#FFFFFF">
                <path d="M65.5232083,30.8434286 C65.5162292,30.8420408 65.5301875,30.7906939 65.5204167,30.7920816 L59.923125,30.7920816 L59.923125,55.7813878 L65.4952917,55.7813878 C66.2657917,55.7813878 66.8883333,56.4017143 66.8883333,57.1663673 L66.8883333,65.4804082 C66.8883333,66.2450612 66.2657917,66.8653878 65.4952917,66.8653878 L1.41816667,66.8653878 C0.6490625,66.8653878 0.025125,66.2450612 0.025125,65.4804082 L0.025125,57.1663673 C0.025125,56.4017143 0.6490625,55.7813878 1.41816667,55.7813878 L6.99033333,55.7813878 L6.99033333,30.7920816 L1.31208333,30.7920816 C0.731416667,30.7920816 0.316854167,30.484 0.114458333,29.9427755 C-0.0907291667,29.4001633 0.0656041667,28.7909388 0.505291667,28.4120816 L32.5899167,0.70277551 C33.1133542,0.248979592 33.8964167,0.250367347 34.4170625,0.70277551 L66.2560208,28.2788571 C66.6510417,28.523102 66.9148542,28.9588571 66.9148542,29.458449 C66.9148542,30.223102 66.2923125,30.8434286 65.5232083,30.8434286 Z M34.8106875,55.7813878 L44.6010625,55.7813878 L44.6010625,30.7920816 L34.8120833,30.7920816 L34.8120833,55.7702857 C34.8120833,55.774449 34.8106875,55.7772245 34.8106875,55.7813878 Z M22.2481875,55.7813878 L32.0636875,55.7813878 L32.0636875,30.7920816 L22.2495833,30.7920816 L22.2495833,55.7702857 C22.2495833,55.774449 22.2481875,55.7772245 22.2481875,55.7813878 Z M47.3871458,55.7813878 L57.1370417,55.7813878 L57.1370417,30.7920816 L47.3871458,30.7920816 L47.3871458,55.7813878 Z M2.81120833,64.0940408 L64.10225,64.0940408 L64.10225,58.5513469 L2.81120833,58.5513469 L2.81120833,64.0940408 Z M19.5277083,55.7813878 L19.5277083,30.7920816 L9.68708333,30.7920816 L9.68708333,55.7702857 C9.68708333,55.774449 9.6856875,55.7772245 9.6856875,55.7813878 L19.5277083,55.7813878 Z M33.5013958,3.5837551 L5.1464375,28.0720816 L61.7753958,28.0720816 L33.5013958,3.5837551 Z" id="Shape"></path>
            </g>
            <g id="cursor-double-click" transform="translate(760.000000, 39.000000)" fill-rule="nonzero" fill="#FFFFFF">
                <path d="M66.4587755,60.1583673 L60.0376327,66.592 C59.7781224,66.852898 59.4256327,66.9986122 59.0578776,66.9986122 C58.6915102,66.9986122 58.3390204,66.852898 58.0795102,66.592 L41.9482449,50.4315918 L34.3641633,58.2515918 C34.0352653,58.5902041 33.5564898,58.7414694 33.0943673,58.6429388 C32.6322449,58.5499592 32.2492245,58.2252245 32.0799184,57.7853061 L17.0949388,18.9267755 C16.8978776,18.4160816 17.02,17.8346122 17.4085714,17.4460408 C17.7943673,17.0574694 18.374449,16.9353469 18.8865306,17.1324082 L26.4872653,20.074449 C26.6121633,19.4957551 26.6982041,18.9087347 26.6982041,18.312 C26.6982041,13.7199184 22.9693061,9.98546939 18.3869388,9.98546939 C13.8045714,9.98546939 10.0770612,13.7199184 10.0770612,18.312 C10.0770612,22.0755918 12.6069388,25.3826122 16.2289796,26.3568163 C16.9672653,26.5524898 17.4057959,27.3157551 17.2073469,28.0554286 C17.0422041,28.6757551 16.481551,29.0851429 15.8709388,29.0851429 C15.7529796,29.0851429 15.6308571,29.0684898 15.5115102,29.0365714 C10.6807347,27.7390204 7.30710204,23.3287347 7.30710204,18.312 C7.30710204,12.1892245 12.2780408,7.20995918 18.3869388,7.20995918 C24.4972245,7.20995918 29.4681633,12.1892245 29.4681633,18.312 C29.4681633,19.2515102 29.322449,20.1785306 29.0906939,21.0833469 L32.994449,22.5946122 C33.3774694,21.241551 33.623102,19.8537959 33.623102,18.4285714 C33.623102,10.0090612 26.7884082,3.16187755 18.3869388,3.16187755 C9.98685714,3.16187755 3.15216327,10.0090612 3.15216327,18.4285714 C3.15216327,26.8439184 9.98685714,33.6924898 18.3869388,33.6924898 C19.1515918,33.6924898 19.7719184,34.3142041 19.7719184,35.0802449 C19.7719184,35.8462857 19.1515918,36.4693878 18.3869388,36.4693878 C8.45893878,36.4693878 0.382204082,28.3746122 0.382204082,18.4285714 C0.382204082,8.4797551 8.45893878,0.386367347 18.3869388,0.386367347 C28.3163265,0.386367347 36.3930612,8.4797551 36.3930612,18.4285714 C36.3930612,20.1993469 36.1238367,21.9354286 35.6214694,23.6118367 L57.6673469,32.1479184 C58.1086531,32.3172245 58.4306122,32.7002449 58.5263673,33.1637551 C58.6207347,33.6286531 58.4722449,34.1074286 58.1336327,34.4363265 L50.3275102,42.0342857 L66.4587755,58.1960816 C67,58.7359184 67,59.6157551 66.4587755,60.1583673 Z M47.3757551,43.0001633 C47.1134694,42.7378776 46.9677551,42.3812245 46.9705306,42.0093061 C46.9733061,41.6373878 47.1245714,41.2835102 47.3896327,41.024 L54.6531429,33.9561633 L20.8071837,20.8515918 L33.884,54.7641633 L40.9407347,47.4867755 C41.1988571,47.2203265 41.5541224,47.0690612 41.9246531,47.0662857 C41.9274286,47.0662857 41.9315918,47.0662857 41.9343673,47.0662857 C42.3021224,47.0662857 42.6546122,47.2133878 42.9141224,47.472898 L59.0578776,63.6485714 L63.520898,59.1758367 L47.3757551,43.0001633 Z" id="Shape"></path>
            </g>
            <g id="logo" transform="translate(274.000000, 280.000000)" fill="#FFFFFF">
                <path d="M75.0277153,9.02598653 C75.0277153,5.62028075 72.573954,2.81122996 69.1286718,2.81122996 C65.6834984,2.81122996 63.2791664,5.57070478 63.2791664,8.97641055 C63.2791664,12.3818984 65.7329278,15.1909492 69.1783185,15.1909492 C72.623492,15.1909492 75.0277153,12.4316923 75.0277153,9.02598653 L75.0277153,9.02598653 Z M75.1799143,17.7112608 L75.1799143,15.7937058 C73.614035,17.1614579 71.5322434,18 69.1286718,18 C65.8815418,18 63.2348429,16.494198 61.6607073,14.2052046 C60.0695158,16.4901665 57.4141261,17.9990194 54.182531,17.9990194 C48.8536092,17.9990194 45.1357594,13.946211 45.1357594,9.02391632 C45.1357594,4.10183958 48.9032559,0 54.2321776,0 C56.4453102,0 58.3791396,0.700601086 59.8855951,1.87037609 C59.2570272,2.68309514 58.7352484,3.58308969 58.3401393,4.55303539 C57.3015792,3.47641963 55.8601967,2.80915975 54.182531,2.80915975 C50.7374661,2.80915975 48.3331342,5.56863457 48.3331342,8.97434035 C48.3331342,12.3798282 50.7868955,15.1821236 54.2321776,15.1821236 C57.6773511,15.1821236 60.081683,12.4161113 60.081683,9.01040551 L60.0822262,9.01040551 C60.0901566,4.09530209 63.8549372,0.00217916356 69.1783185,0.00217916356 C74.5072402,0.00217916356 78.2251987,4.0541159 78.2251987,8.97641055 L78.2285664,17.7112608 L75.1799143,17.7112608 L75.1799143,17.7112608 Z M11.2637064,1.55537799 C9.73302516,0.572684185 8.00093277,0.0461982676 5.91316612,0.0461982676 C2.47429354,0.0461982676 0,2.08088329 0,5.10839523 C0,8.33421105 2.07831532,9.42618991 5.76487798,10.3194291 C8.9811554,11.0638313 9.67392717,11.7335973 9.67392717,12.9991465 C9.67392717,14.33955 8.48620978,15.2081646 6.60593789,15.2081646 C4.93392122,15.2081646 3.5605449,14.7138213 2.25365382,13.818621 L0.840299461,16.2906641 C2.56935004,17.3758876 4.50719901,17.9127245 6.53184814,17.9127245 C10.1687642,17.9127245 12.7170388,15.9774093 12.7170388,12.7016907 C12.7170388,9.79828209 10.8119979,8.48315688 7.15020425,7.58991774 C3.83506808,6.79583053 3.04332891,6.20015617 3.04332891,4.83534603 C3.04332891,3.66905769 4.08232361,2.75086713 5.86384538,2.75086713 C7.19909045,2.75086713 8.5167365,3.19214775 9.83155801,4.02981822 L11.2637064,1.55537799 Z M88.4574063,0.0383532787 C83.7525984,0.0383532787 80.7541361,2.7605644 80.7541361,8.02400712 L80.7541361,17.6885975 L83.9336946,17.6885975 L83.9336946,8.15366735 C83.9336946,4.78261027 85.6729569,2.96834765 88.5163956,2.96834765 C91.3599429,2.96834765 93.0992053,4.78261027 93.0992053,8.15366735 L93.0992053,17.6885975 L96.2786551,17.6885975 L96.2786551,8.02400712 C96.2786551,2.7605644 93.2801928,0.0383532787 88.575385,0.0383532787 L88.4574063,0.0383532787 Z M112.802625,9.02391632 C112.802625,12.4296221 110.398293,15.188879 106.953228,15.188879 C103.507838,15.188879 101.054076,12.3798282 101.054076,8.97434035 C101.054076,5.56863457 103.458408,2.80915975 106.903582,2.80915975 C110.348864,2.80915975 112.802625,5.61821054 112.802625,9.02391632 L112.802625,9.02391632 Z M116,8.97434035 C116,4.05204569 112.28215,0.000108958178 106.953228,0.000108958178 C101.624198,0.000108958178 97.8567016,4.10194854 97.8567016,9.02391632 C97.8567016,13.946211 101.574551,17.9979298 106.903582,17.9979298 C112.232504,17.9979298 116,13.8963081 116,8.97434035 L116,8.97434035 Z M27.9772464,17.6819511 L31.1558271,17.6819511 L31.1558271,8.02019358 C31.1558271,4.67637605 32.8873763,2.96605953 35.7041992,2.96605953 C38.5468774,2.96605953 40.2782093,4.77977736 40.2782093,8.14974486 L40.2782093,17.6819511 L43.45679,17.6819511 L43.45679,8.02019358 C43.45679,2.75827628 40.4591969,0.0368278642 35.7558013,0.0368278642 C31.0266589,0.0368278642 27.9772464,2.75827628 27.9772464,8.17556794 L27.9772464,17.6819511 Z M28.9349814,0.296802077 L22.0465899,11.8355821 L22.0465899,17.6932827 L18.9060317,17.6932827 L18.9060317,11.8580275 L11.9336646,0.24700819 L15.4857359,0.296802077 L20.4820142,8.97085369 L25.4412476,0.296802077 L28.9349814,0.296802077 Z" id="Shape"></path>
            </g>
            <g id="logo" transform="translate(757.000000, 215.000000)" fill="#FFFFFF">
                <path d="M75.0277153,9.02598653 C75.0277153,5.62028075 72.573954,2.81122996 69.1286718,2.81122996 C65.6834984,2.81122996 63.2791664,5.57070478 63.2791664,8.97641055 C63.2791664,12.3818984 65.7329278,15.1909492 69.1783185,15.1909492 C72.623492,15.1909492 75.0277153,12.4316923 75.0277153,9.02598653 L75.0277153,9.02598653 Z M75.1799143,17.7112608 L75.1799143,15.7937058 C73.614035,17.1614579 71.5322434,18 69.1286718,18 C65.8815418,18 63.2348429,16.494198 61.6607073,14.2052046 C60.0695158,16.4901665 57.4141261,17.9990194 54.182531,17.9990194 C48.8536092,17.9990194 45.1357594,13.946211 45.1357594,9.02391632 C45.1357594,4.10183958 48.9032559,0 54.2321776,0 C56.4453102,0 58.3791396,0.700601086 59.8855951,1.87037609 C59.2570272,2.68309514 58.7352484,3.58308969 58.3401393,4.55303539 C57.3015792,3.47641963 55.8601967,2.80915975 54.182531,2.80915975 C50.7374661,2.80915975 48.3331342,5.56863457 48.3331342,8.97434035 C48.3331342,12.3798282 50.7868955,15.1821236 54.2321776,15.1821236 C57.6773511,15.1821236 60.081683,12.4161113 60.081683,9.01040551 L60.0822262,9.01040551 C60.0901566,4.09530209 63.8549372,0.00217916356 69.1783185,0.00217916356 C74.5072402,0.00217916356 78.2251987,4.0541159 78.2251987,8.97641055 L78.2285664,17.7112608 L75.1799143,17.7112608 L75.1799143,17.7112608 Z M11.2637064,1.55537799 C9.73302516,0.572684185 8.00093277,0.0461982676 5.91316612,0.0461982676 C2.47429354,0.0461982676 0,2.08088329 0,5.10839523 C0,8.33421105 2.07831532,9.42618991 5.76487798,10.3194291 C8.9811554,11.0638313 9.67392717,11.7335973 9.67392717,12.9991465 C9.67392717,14.33955 8.48620978,15.2081646 6.60593789,15.2081646 C4.93392122,15.2081646 3.5605449,14.7138213 2.25365382,13.818621 L0.840299461,16.2906641 C2.56935004,17.3758876 4.50719901,17.9127245 6.53184814,17.9127245 C10.1687642,17.9127245 12.7170388,15.9774093 12.7170388,12.7016907 C12.7170388,9.79828209 10.8119979,8.48315688 7.15020425,7.58991774 C3.83506808,6.79583053 3.04332891,6.20015617 3.04332891,4.83534603 C3.04332891,3.66905769 4.08232361,2.75086713 5.86384538,2.75086713 C7.19909045,2.75086713 8.5167365,3.19214775 9.83155801,4.02981822 L11.2637064,1.55537799 Z M88.4574063,0.0383532787 C83.7525984,0.0383532787 80.7541361,2.7605644 80.7541361,8.02400712 L80.7541361,17.6885975 L83.9336946,17.6885975 L83.9336946,8.15366735 C83.9336946,4.78261027 85.6729569,2.96834765 88.5163956,2.96834765 C91.3599429,2.96834765 93.0992053,4.78261027 93.0992053,8.15366735 L93.0992053,17.6885975 L96.2786551,17.6885975 L96.2786551,8.02400712 C96.2786551,2.7605644 93.2801928,0.0383532787 88.575385,0.0383532787 L88.4574063,0.0383532787 Z M112.802625,9.02391632 C112.802625,12.4296221 110.398293,15.188879 106.953228,15.188879 C103.507838,15.188879 101.054076,12.3798282 101.054076,8.97434035 C101.054076,5.56863457 103.458408,2.80915975 106.903582,2.80915975 C110.348864,2.80915975 112.802625,5.61821054 112.802625,9.02391632 L112.802625,9.02391632 Z M116,8.97434035 C116,4.05204569 112.28215,0.000108958178 106.953228,0.000108958178 C101.624198,0.000108958178 97.8567016,4.10194854 97.8567016,9.02391632 C97.8567016,13.946211 101.574551,17.9979298 106.903582,17.9979298 C112.232504,17.9979298 116,13.8963081 116,8.97434035 L116,8.97434035 Z M27.9772464,17.6819511 L31.1558271,17.6819511 L31.1558271,8.02019358 C31.1558271,4.67637605 32.8873763,2.96605953 35.7041992,2.96605953 C38.5468774,2.96605953 40.2782093,4.77977736 40.2782093,8.14974486 L40.2782093,17.6819511 L43.45679,17.6819511 L43.45679,8.02019358 C43.45679,2.75827628 40.4591969,0.0368278642 35.7558013,0.0368278642 C31.0266589,0.0368278642 27.9772464,2.75827628 27.9772464,8.17556794 L27.9772464,17.6819511 Z M28.9349814,0.296802077 L22.0465899,11.8355821 L22.0465899,17.6932827 L18.9060317,17.6932827 L18.9060317,11.8580275 L11.9336646,0.24700819 L15.4857359,0.296802077 L20.4820142,8.97085369 L25.4412476,0.296802077 L28.9349814,0.296802077 Z" id="Shape"></path>
            </g>
            <g id="logo" transform="translate(588.000000, 333.000000)" fill="#FFFFFF">
                <path d="M75.0277153,9.02598653 C75.0277153,5.62028075 72.573954,2.81122996 69.1286718,2.81122996 C65.6834984,2.81122996 63.2791664,5.57070478 63.2791664,8.97641055 C63.2791664,12.3818984 65.7329278,15.1909492 69.1783185,15.1909492 C72.623492,15.1909492 75.0277153,12.4316923 75.0277153,9.02598653 L75.0277153,9.02598653 Z M75.1799143,17.7112608 L75.1799143,15.7937058 C73.614035,17.1614579 71.5322434,18 69.1286718,18 C65.8815418,18 63.2348429,16.494198 61.6607073,14.2052046 C60.0695158,16.4901665 57.4141261,17.9990194 54.182531,17.9990194 C48.8536092,17.9990194 45.1357594,13.946211 45.1357594,9.02391632 C45.1357594,4.10183958 48.9032559,0 54.2321776,0 C56.4453102,0 58.3791396,0.700601086 59.8855951,1.87037609 C59.2570272,2.68309514 58.7352484,3.58308969 58.3401393,4.55303539 C57.3015792,3.47641963 55.8601967,2.80915975 54.182531,2.80915975 C50.7374661,2.80915975 48.3331342,5.56863457 48.3331342,8.97434035 C48.3331342,12.3798282 50.7868955,15.1821236 54.2321776,15.1821236 C57.6773511,15.1821236 60.081683,12.4161113 60.081683,9.01040551 L60.0822262,9.01040551 C60.0901566,4.09530209 63.8549372,0.00217916356 69.1783185,0.00217916356 C74.5072402,0.00217916356 78.2251987,4.0541159 78.2251987,8.97641055 L78.2285664,17.7112608 L75.1799143,17.7112608 L75.1799143,17.7112608 Z M11.2637064,1.55537799 C9.73302516,0.572684185 8.00093277,0.0461982676 5.91316612,0.0461982676 C2.47429354,0.0461982676 0,2.08088329 0,5.10839523 C0,8.33421105 2.07831532,9.42618991 5.76487798,10.3194291 C8.9811554,11.0638313 9.67392717,11.7335973 9.67392717,12.9991465 C9.67392717,14.33955 8.48620978,15.2081646 6.60593789,15.2081646 C4.93392122,15.2081646 3.5605449,14.7138213 2.25365382,13.818621 L0.840299461,16.2906641 C2.56935004,17.3758876 4.50719901,17.9127245 6.53184814,17.9127245 C10.1687642,17.9127245 12.7170388,15.9774093 12.7170388,12.7016907 C12.7170388,9.79828209 10.8119979,8.48315688 7.15020425,7.58991774 C3.83506808,6.79583053 3.04332891,6.20015617 3.04332891,4.83534603 C3.04332891,3.66905769 4.08232361,2.75086713 5.86384538,2.75086713 C7.19909045,2.75086713 8.5167365,3.19214775 9.83155801,4.02981822 L11.2637064,1.55537799 Z M88.4574063,0.0383532787 C83.7525984,0.0383532787 80.7541361,2.7605644 80.7541361,8.02400712 L80.7541361,17.6885975 L83.9336946,17.6885975 L83.9336946,8.15366735 C83.9336946,4.78261027 85.6729569,2.96834765 88.5163956,2.96834765 C91.3599429,2.96834765 93.0992053,4.78261027 93.0992053,8.15366735 L93.0992053,17.6885975 L96.2786551,17.6885975 L96.2786551,8.02400712 C96.2786551,2.7605644 93.2801928,0.0383532787 88.575385,0.0383532787 L88.4574063,0.0383532787 Z M112.802625,9.02391632 C112.802625,12.4296221 110.398293,15.188879 106.953228,15.188879 C103.507838,15.188879 101.054076,12.3798282 101.054076,8.97434035 C101.054076,5.56863457 103.458408,2.80915975 106.903582,2.80915975 C110.348864,2.80915975 112.802625,5.61821054 112.802625,9.02391632 L112.802625,9.02391632 Z M116,8.97434035 C116,4.05204569 112.28215,0.000108958178 106.953228,0.000108958178 C101.624198,0.000108958178 97.8567016,4.10194854 97.8567016,9.02391632 C97.8567016,13.946211 101.574551,17.9979298 106.903582,17.9979298 C112.232504,17.9979298 116,13.8963081 116,8.97434035 L116,8.97434035 Z M27.9772464,17.6819511 L31.1558271,17.6819511 L31.1558271,8.02019358 C31.1558271,4.67637605 32.8873763,2.96605953 35.7041992,2.96605953 C38.5468774,2.96605953 40.2782093,4.77977736 40.2782093,8.14974486 L40.2782093,17.6819511 L43.45679,17.6819511 L43.45679,8.02019358 C43.45679,2.75827628 40.4591969,0.0368278642 35.7558013,0.0368278642 C31.0266589,0.0368278642 27.9772464,2.75827628 27.9772464,8.17556794 L27.9772464,17.6819511 Z M28.9349814,0.296802077 L22.0465899,11.8355821 L22.0465899,17.6932827 L18.9060317,17.6932827 L18.9060317,11.8580275 L11.9336646,0.24700819 L15.4857359,0.296802077 L20.4820142,8.97085369 L25.4412476,0.296802077 L28.9349814,0.296802077 Z" id="Shape"></path>
            </g>
        </g>
    </g>
</svg>