<svg xmlns="http://www.w3.org/2000/svg" xmlns:xlink="http://www.w3.org/1999/xlink" preserveAspectRatio="xMidYMid" width="72" height="60" viewBox="0 0 48 40">
  <path d="M45.000,39.998 L3.000,39.998 C1.346,39.998 0.000,38.653 0.000,37.000 L0.000,2.999 C0.000,1.345 1.346,-0.001 3.000,-0.001 L45.000,-0.001 C46.654,-0.001 48.000,1.345 48.000,2.999 L48.000,37.000 C48.000,38.653 46.654,39.998 45.000,39.998 ZM46.000,2.999 C46.000,2.447 45.551,1.999 45.000,1.999 L3.000,1.999 C2.449,1.999 2.000,2.447 2.000,2.999 L2.000,7.999 L46.000,7.999 L46.000,2.999 ZM46.000,9.999 L2.000,9.999 L2.000,37.000 C2.000,37.551 2.449,37.999 3.000,37.999 L45.000,37.999 C45.551,37.999 46.000,37.551 46.000,37.000 L46.000,9.999 ZM28.707,30.706 C28.512,30.901 28.256,30.999 28.000,30.999 C27.744,30.999 27.488,30.901 27.293,30.706 C26.902,30.315 26.902,29.683 27.293,29.292 L32.586,23.999 L27.293,18.706 C26.902,18.315 26.902,17.682 27.293,17.292 C27.684,16.901 28.316,16.901 28.707,17.292 L34.707,23.292 C35.098,23.683 35.098,24.316 34.707,24.706 L28.707,30.706 ZM20.707,30.706 C20.512,30.901 20.256,30.999 20.000,30.999 C19.744,30.999 19.488,30.901 19.293,30.706 L13.293,24.706 C12.902,24.316 12.902,23.683 13.293,23.292 L19.293,17.292 C19.684,16.901 20.316,16.901 20.707,17.292 C21.098,17.682 21.098,18.315 20.707,18.706 L15.414,23.999 L20.707,29.292 C21.098,29.683 21.098,30.315 20.707,30.706 ZM5.020,3.999 L5.030,3.999 C5.582,3.999 6.030,4.446 6.030,4.999 C6.030,5.551 5.582,5.999 5.030,5.999 C4.478,5.999 4.025,5.551 4.025,4.999 C4.025,4.446 4.468,3.999 5.020,3.999 ZM8.020,3.999 L8.030,3.999 C8.583,3.999 9.030,4.446 9.030,4.999 C9.030,5.551 8.583,5.999 8.030,5.999 C7.477,5.999 7.025,5.551 7.025,4.999 C7.025,4.446 7.468,3.999 8.020,3.999 ZM11.020,3.999 L11.030,3.999 C11.582,3.999 12.030,4.446 12.030,4.999 C12.030,5.551 11.582,5.999 11.030,5.999 C10.478,5.999 10.025,5.551 10.025,4.999 C10.025,4.446 10.468,3.999 11.020,3.999 Z" />
</svg>
