<?xml version="1.0" encoding="utf-8"?>
<!-- Generator: Adobe Illustrator 21.1.0, SVG Export Plug-In . SVG Version: 6.00 Build 0)  -->
<svg version="1.1" id="Layer_1" xmlns="http://www.w3.org/2000/svg" xmlns:xlink="http://www.w3.org/1999/xlink" x="0px" y="0px"
	 width="150px" height="150px" viewBox="0 0 150 150" enable-background="new 0 0 150 150" xml:space="preserve">
<circle fill="#CDDBDE" stroke="#FFFFFF" stroke-width="0.5" stroke-linecap="round" stroke-linejoin="round" cx="75" cy="75" r="60"/>
<g id="_x30_17_11_" transform="translate(20046.000000, 2.000000)">
	<path id="Shape_7212_" fill="#F3F6F6" stroke="#362649" stroke-width="2.0691" stroke-linecap="round" stroke-linejoin="round" d="
		M-19949.5,63.4c0,0-5.4-5.5-11.7-4.9c-6.2,0.7-3.1,1.6-9.7,1.7c-6.6,0-3.5-1-9.7-1.7c-6.3-0.7-11.7,4.9-11.7,4.9
		c-12.8,15.1,4.8,34.9,10.4,38.7c4.9,3.4,10,0.8,11.1,0.1c1.1,0.6,6.2,3.2,11.1-0.1C-19954.4,98.3-19936.8,78.5-19949.5,63.4"/>
	<path id="Shape_7213_" fill="none" stroke="#362649" stroke-width="2.0691" stroke-linecap="round" stroke-linejoin="round" d="
		M-19976.7,42.2c0,0,7.3,6.8,5.7,17.2"/>
	<path id="Shape_7214_" fill="#00F78F" stroke="#362649" stroke-width="2.0691" stroke-linecap="round" stroke-linejoin="round" d="
		M-19970.8,53.3c0,0-0.8-12.7,20.2-9.3C-19950.5,44-19955.6,60.3-19970.8,53.3z"/>
</g>
</svg>
