<?xml version="1.0" encoding="utf-8"?>
<!-- Generator: Adobe Illustrator 21.1.0, SVG Export Plug-In . SVG Version: 6.00 Build 0)  -->
<svg version="1.1" id="Layer_1" xmlns="http://www.w3.org/2000/svg" xmlns:xlink="http://www.w3.org/1999/xlink" x="0px" y="0px"
	 width="150px" height="150px" viewBox="0 0 150 150" enable-background="new 0 0 150 150" xml:space="preserve">
<circle fill="#CDDBDE" stroke="#FFFFFF" stroke-width="0.5" stroke-linecap="round" stroke-linejoin="round" cx="75" cy="75" r="60"/>
<g>
	<g id="_x30_26_10_" transform="translate(1466.000000, 0.000000)">
		
			<rect id="Rectangle-path_813_" x="-1412" y="44" fill="#00F78F" stroke="#362649" stroke-width="2.0827" stroke-linecap="round" stroke-linejoin="round" width="42.1" height="18"/>
	</g>
	<polyline fill="#F3F6F6" stroke="#362649" stroke-width="2.0827" stroke-linecap="round" stroke-linejoin="round" points="
		101.3,77.6 101.2,93.2 48.9,93.2 48.7,77.6 	"/>
	<path id="Shape_6646_" fill="#F3F6F6" stroke="#362649" stroke-width="2.0827" stroke-linecap="round" stroke-linejoin="round" d="
		M48.9,77.6v-4.1c0-2.3,2.4-4.1,5.3-4.1h41.7c2.9,0,5.3,1.9,5.3,4.1v4.1"/>
	<g id="Group_863_" transform="translate(9.000000, 42.000000)">
		
			<path id="Shape_6648_" fill="#F3F6F6" stroke="#362649" stroke-width="2.0827" stroke-linecap="round" stroke-linejoin="round" d="
			M48.1,59.3V64"/>
		
			<path id="Shape_6649_" fill="#F3F6F6" stroke="#362649" stroke-width="2.0827" stroke-linecap="round" stroke-linejoin="round" d="
			M83.9,59.3V64"/>
	</g>
	<path id="Shape_6645_" fill="#F3F6F6" stroke="#362649" stroke-width="2.0827" d="M90.5,101.3H59.4c-8.7,0-15.4-5.2-15.4-11.9v-7.3
		c0-2.5,2.1-4.6,4.7-4.6c2.6,0,4.7,2,4.7,4.6v7.3c0,0.9,2.4,2.7,6,2.7h31.1c3.7,0,6-1.8,6-2.7v-7.3c0-2.5,2.1-4.6,4.7-4.6
		c2.6,0,4.7,2,4.7,4.6v7.3C106,96.1,99.2,101.3,90.5,101.3z"/>
	<path id="Shape_6647_" fill="#F3F6F6" stroke="#362649" stroke-width="2.0827" stroke-linecap="round" stroke-linejoin="round" d="
		M75,69.8v21.5"/>
</g>
</svg>
