<svg width="1440" height="355" viewBox="0 0 1440 355" fill="none" xmlns="http://www.w3.org/2000/svg">
  <path d="M525.289 146.804C528.322 146.273 531.319 145.212 534.125 143.582L538.828 140.872L581.094 116.48C594.064 108.994 598.502 92.4111 591.012 79.4667C583.522 66.5033 566.948 62.0685 553.978 69.5546L507.009 96.6564C494.039 104.143 489.602 120.726 497.092 133.67C502.951 143.81 514.385 148.718 525.289 146.804Z" fill="#1E2144"/>
  <path d="M1259.88 98.457C1262.92 97.9263 1265.91 96.865 1268.74 95.2351L1315.71 68.1333C1328.68 60.6472 1333.12 44.0829 1325.63 31.1195C1318.14 18.1562 1301.54 13.7213 1288.59 21.2075L1259.98 37.7149L1241.62 48.3092C1228.65 55.7954 1224.22 72.3597 1231.71 85.323C1237.55 95.4625 1248.96 100.39 1259.88 98.457Z" fill="#1E2144"/>
  <path d="M877.493 70.6158C890.463 63.1297 894.9 46.5654 887.41 33.621C879.92 20.6576 863.347 16.2228 850.396 23.7089C837.425 31.1951 832.988 47.7594 840.478 60.7038C847.95 73.6482 864.522 78.102 877.493 70.6158Z" fill="#1E2144"/>
  <path d="M209.398 78.7279C212.432 78.1972 215.428 77.1359 218.253 75.506L248.801 57.8804C261.771 50.3942 266.209 33.8299 258.719 20.8666C251.229 7.90323 234.637 3.4684 221.666 10.9545L191.118 28.5802C178.148 36.0663 173.711 52.6306 181.201 65.594C187.06 75.7145 198.495 80.6421 209.398 78.7279Z" fill="#1E2144"/>
  <path d="M2265.2 148.168L1950.66 329.674C1947.83 331.304 1944.84 332.366 1941.8 332.896C1930.9 334.81 1919.47 329.902 1913.61 319.743C1906.12 306.78 1910.55 290.197 1923.52 282.73L2012.31 231.502C2025.26 224.015 2029.71 207.451 2022.22 194.488C2014.73 181.524 1998.16 177.09 1985.19 184.557L1910.44 227.692C1907.62 229.322 1904.62 230.383 1901.59 230.914C1890.68 232.828 1879.25 227.92 1873.39 217.761C1865.9 204.798 1870.34 188.233 1883.31 180.747L1899.16 171.593C1912.13 164.107 1916.57 147.543 1909.08 134.58C1901.59 121.616 1885.01 117.181 1872.04 124.649L1553.57 308.41C1550.75 310.04 1547.75 311.101 1544.72 311.632C1533.81 313.546 1522.38 308.637 1516.52 298.479C1509.03 285.515 1513.47 268.932 1526.44 261.465L1543.77 251.458C1556.74 243.972 1561.18 227.408 1553.69 214.444C1546.2 201.481 1529.62 197.046 1516.65 204.513L1386.95 279.356C1384.13 280.986 1381.13 282.047 1378.1 282.578C1367.19 284.492 1355.76 279.583 1349.9 269.425C1342.41 256.462 1346.85 239.878 1359.82 232.392L1391.27 214.236C1404.24 206.75 1408.68 190.186 1401.19 177.222C1393.7 164.259 1377.11 159.824 1364.14 167.31L1180.64 273.197C1177.82 274.826 1174.82 275.888 1171.79 276.418C1160.88 278.333 1149.45 273.424 1143.59 263.266C1136.1 250.302 1140.54 233.719 1153.51 226.252L1176.6 212.928L1192.47 203.774C1205.44 196.288 1209.88 179.705 1202.39 166.761C1194.9 153.797 1178.33 149.362 1165.36 156.83L916.498 300.431C913.673 302.061 910.677 303.122 907.643 303.653C896.74 305.567 885.305 300.658 879.446 290.5C871.956 277.537 876.393 260.953 889.363 253.467L928.881 230.668C941.832 223.181 946.288 206.617 938.798 193.654C931.308 180.69 914.735 176.256 901.765 183.723L794.154 245.81C791.329 247.44 788.333 248.502 785.299 249.032C774.395 250.947 762.961 246.038 757.102 235.879C749.612 222.916 754.049 206.352 767.019 198.866L799.293 180.236C812.263 172.749 816.7 156.185 809.21 143.222C801.72 130.258 785.147 125.824 772.177 133.291L453.707 317.052C450.881 318.682 447.885 319.743 444.851 320.274C433.948 322.188 422.514 317.28 416.655 307.121C409.164 294.158 413.602 277.574 426.572 270.107L460.324 250.624C473.295 243.138 477.732 226.574 470.242 213.611C462.752 200.647 446.179 196.212 433.208 203.68L369.382 240.693C366.556 242.323 363.56 243.385 360.526 243.915C349.623 245.829 338.189 240.921 332.33 230.762C324.84 217.799 329.277 201.216 342.247 193.749L390.126 166.116C403.097 158.63 407.534 142.066 400.044 129.102C392.554 116.139 375.962 111.704 363.01 119.19L113.828 262.981C111.003 264.611 108.007 265.672 104.973 266.203C94.0695 268.117 82.6352 263.209 76.7759 253.05C69.2858 240.087 73.723 223.504 86.6931 216.036L109.808 202.694L125.679 193.54C138.65 186.054 143.087 169.471 135.597 156.526C128.107 143.563 111.534 139.128 98.5635 146.595L-150.297 290.197C-153.122 291.827 -156.118 292.888 -159.152 293.419C-170.055 295.333 -181.489 290.424 -187.349 280.266C-194.839 267.302 -190.402 250.719 -177.431 243.252L-154.335 229.928C-141.384 222.442 -136.928 205.878 -144.418 192.915C-151.908 179.951 -168.481 175.516 -181.451 182.984L-289.062 245.071C-291.887 246.701 -294.883 247.763 -297.917 248.293C-308.821 250.207 -320.255 245.299 -326.114 235.14C-333.604 222.177 -329.167 205.613 -316.197 198.127L-283.923 179.496C-270.953 172.01 -266.516 155.446 -274.006 142.483C-281.496 129.519 -298.069 125.084 -311.039 132.552L-629.509 316.313C-632.335 317.943 -635.331 319.004 -638.365 319.535C-649.268 321.449 -660.702 316.54 -666.562 306.382C-674.052 293.419 -669.615 276.835 -656.644 269.349L-622.892 249.866C-609.921 242.38 -605.484 225.816 -612.974 212.852C-620.464 199.889 -637.037 195.454 -650.008 202.921L-779.69 277.764C-782.516 279.394 -785.512 280.455 -788.546 280.986C-799.449 282.9 -810.883 277.991 -816.742 267.833C-824.232 254.87 -819.795 238.286 -806.825 230.819L-693.26 165.282C-680.29 157.796 -675.853 141.232 -683.343 128.268C-690.833 115.305 -707.425 110.87 -720.376 118.356L-990 274.011V354.608H2264.05V273.993C2261.22 275.622 2258.23 276.684 2255.19 277.214C2244.29 279.129 2232.85 274.22 2227 264.062C2219.51 251.098 2223.94 234.515 2236.91 227.029L2276.43 204.229L2292.3 195.075C2305.27 187.589 2309.71 171.006 2302.22 158.061C2294.75 145.136 2278.17 140.682 2265.2 148.168ZM1025.91 299.976L1072.9 272.855C1085.87 265.388 1102.44 269.823 1109.93 282.786C1117.42 295.75 1112.98 312.333 1100.01 319.819L1053.05 346.921C1050.22 348.551 1047.22 349.612 1044.19 350.143C1033.29 352.057 1021.85 347.148 1015.99 336.99C1008.52 324.027 1012.96 307.462 1025.91 299.976ZM676.683 251.117C689.654 243.631 706.226 248.085 713.698 261.029C721.188 273.992 716.731 290.557 703.78 298.024C690.81 305.51 674.237 301.056 666.766 288.112C659.276 275.168 663.713 258.603 676.683 251.117ZM-455.74 278.674L-408.751 251.553C-395.781 244.086 -379.208 248.521 -371.718 261.484C-364.228 274.447 -368.665 291.031 -381.635 298.517L-428.605 325.619C-431.43 327.248 -434.426 328.31 -437.46 328.84C-448.363 330.755 -459.798 325.846 -465.657 315.688C-473.128 302.743 -468.691 286.16 -455.74 278.674ZM-272.318 298.024C-259.348 290.538 -242.775 294.992 -235.304 307.936C-227.814 320.899 -232.27 337.464 -245.221 344.931C-258.192 352.417 -274.764 347.963 -282.236 335.019C-289.726 322.074 -285.27 305.491 -272.318 298.024ZM1834.27 271.661L1787.3 298.763C1784.47 300.393 1781.48 301.454 1778.44 301.985C1767.54 303.899 1756.11 298.991 1750.25 288.832C1742.76 275.869 1747.19 259.304 1760.16 251.818L1807.15 224.698C1820.12 217.23 1836.7 221.665 1844.19 234.629C1851.68 247.592 1847.24 264.175 1834.27 271.661Z" fill="#1E2144"/>
</svg>
