<svg width="320" height="149" viewBox="0 0 320 149" fill="none" xmlns="http://www.w3.org/2000/svg">
  <path d="M220.33 66.4699C222.13 66.1499 223.91 65.5199 225.59 64.5499L228.39 62.9299L253.52 48.4199C261.23 43.9699 263.87 34.0999 259.42 26.3899C254.97 18.6799 245.11 16.0399 237.39 20.4899L209.46 36.6099C201.75 41.0599 199.11 50.9299 203.56 58.6399C207.04 64.6799 213.84 67.6099 220.33 66.4699Z" fill="#1E2144"/>
  <path d="M157.94 140.84C157.96 140.83 157.99 140.82 158.02 140.8L320 47.41V148.5H0V83.08L121.34 13.01C129.06 8.54999 138.92 11.2 143.37 18.91C147.82 26.62 145.18 36.48 137.47 40.93L73.49 77.87C65.78 82.33 63.14 92.19 67.59 99.9C71.08 105.93 77.87 108.86 84.36 107.72C86.16 107.4 87.94 106.77 89.62 105.8L153.61 68.86C161.32 64.41 171.18 67.05 175.63 74.76C180.08 82.47 177.44 92.33 169.73 96.78L133.68 117.6C125.97 122.06 123.33 131.92 127.78 139.63C131.27 145.66 138.07 148.59 144.55 147.45C146.34 147.14 148.11 146.51 149.78 145.55L151.74 144.42L157.94 140.84Z" fill="#1E2144"/>
  <path d="M19.2399 32.24C28.1399 32.24 35.3599 25.02 35.3599 16.12C35.3599 7.22 28.1499 0 19.2399 0C10.3399 0 3.12988 7.22 3.12988 16.12C3.12988 25.02 10.3399 32.24 19.2399 32.24Z" fill="#1E2144"/>
</svg>
