<svg width="16" height="16" viewBox="0 0 16 16" fill="none" xmlns="http://www.w3.org/2000/svg">
<g clip-path="url(#clip0)">
<path fill-rule="evenodd" clip-rule="evenodd" d="M7.99945 0C3.58253 0 0 3.58144 0 8.00055C0 11.535 2.29212 14.5335 5.47112 15.591C5.87137 15.6643 6.01681 15.4171 6.01681 15.205C6.01681 15.0147 6.01025 14.5117 6.00588 13.8446C3.78047 14.3279 3.31133 12.7718 3.31133 12.7718C2.94717 11.8477 2.42335 11.6017 2.42335 11.6017C1.69722 11.1052 2.47803 11.115 2.47803 11.115C3.28071 11.1719 3.70282 11.9396 3.70282 11.9396C4.41692 13.1622 5.57501 12.809 6.03103 12.6045C6.10321 12.0872 6.30989 11.7351 6.53845 11.535C4.76249 11.3327 2.89468 10.647 2.89468 7.58171C2.89468 6.70795 3.20634 5.99385 3.71813 5.43504C3.63612 5.23273 3.36163 4.41911 3.79687 3.31789C3.79687 3.31789 4.46832 3.10245 5.99713 4.13806C6.63468 3.96091 7.31925 3.87233 7.99945 3.86905C8.67856 3.87233 9.36313 3.96091 10.0018 4.13806C11.5295 3.10245 12.1999 3.31789 12.1999 3.31789C12.6362 4.41911 12.3617 5.23273 12.2797 5.43504C12.7926 5.99385 13.102 6.70795 13.102 7.58171C13.102 10.6546 11.232 11.3316 9.44953 11.5295C9.73713 11.7766 9.99303 12.2644 9.99303 13.0113C9.99303 14.0808 9.98319 14.9436 9.98319 15.2061C9.98319 15.4204 10.1275 15.6687 10.5333 15.591C13.709 14.5313 15.9989 11.535 15.9989 8.00164C16 3.58144 12.4175 0 7.99945 0Z" fill="white"/>
</g>
<defs>
<clipPath id="clip0">
<rect width="16" height="15.6041" fill="white"/>
</clipPath>
</defs>
</svg>
