<svg width="3408" height="1783" viewBox="0 0 3408 1783" fill="none" xmlns="http://www.w3.org/2000/svg">
<path d="M1622.63 810.709C1641.61 843.559 1630.33 885.524 1597.51 904.498L1555.53 928.717C1522.67 947.691 1511.44 989.656 1530.38 1022.51C1549.36 1055.36 1591.33 1066.59 1624.19 1047.66L2403 598.16L3408 0H2424H-256.5V1783L1002 1089.61L1528.81 785.56C1561.67 766.586 1603.65 777.859 1622.63 810.709Z" fill="url(#paint0_linear)"/>
<g opacity="0.25">
<mask id="mask0" mask-type="alpha" maskUnits="userSpaceOnUse" x="304" y="-2426" width="3314" height="3220">
<g clip-path="url(#clip0)">
<path d="M1261.97 7.13271L1191.93 47.5686C1183.36 52.5174 1172.4 49.5789 1167.45 41.0043C1162.5 32.4298 1165.44 21.4696 1174.01 16.5208L1244.04 -23.9151C1252.62 -28.864 1263.58 -25.9255 1268.53 -17.351C1273.48 -8.77642 1270.54 2.18387 1261.97 7.13271Z" fill="#1E2144"/>
<path d="M1750.3 523.571L1624.21 596.368C1615.64 601.316 1604.68 598.378 1599.73 589.803C1594.78 581.229 1597.71 570.268 1606.28 565.32L1732.37 492.523C1740.94 487.574 1751.9 490.513 1756.85 499.088C1761.8 507.676 1758.87 518.622 1750.3 523.571Z" fill="#1E2144"/>
<path d="M1646.09 672.445L1576.05 712.881C1567.48 717.83 1556.52 714.891 1551.57 706.316C1546.62 697.742 1549.55 686.782 1558.13 681.833L1628.16 641.397C1636.73 636.448 1647.69 639.387 1652.64 647.961C1657.6 656.536 1654.66 667.496 1646.09 672.445Z" fill="#1E2144"/>
<path d="M1640.58 498.209L1525.04 564.913C1516.47 569.862 1505.51 566.923 1500.56 558.349C1495.61 549.774 1498.55 538.814 1507.12 533.865L1622.65 467.161C1631.23 462.212 1642.18 465.15 1647.13 473.725C1652.09 482.3 1649.15 493.26 1640.58 498.209Z" fill="#1E2144"/>
<path d="M1684.86 383.947L1557.83 457.29C1549.25 462.239 1538.29 459.3 1533.34 450.726C1528.39 442.151 1531.33 431.191 1539.9 426.242L1666.93 352.899C1675.51 347.95 1686.46 350.888 1691.42 359.463C1696.37 368.038 1693.43 378.998 1684.86 383.947Z" fill="#1E2144"/>
<path d="M1458.56 603.297L1374.57 651.789C1366 656.738 1355.04 653.799 1350.09 645.225C1345.14 636.65 1348.07 625.69 1356.64 620.741L1440.63 572.249C1449.21 567.3 1460.17 570.239 1465.12 578.813C1470.07 587.388 1467.13 598.348 1458.56 603.297Z" fill="#1E2144"/>
<path d="M1838.69 561.258L1712.6 634.055C1704.03 639.003 1693.07 636.065 1688.12 627.49C1683.17 618.916 1686.1 607.955 1694.68 603.007L1820.76 530.21C1829.33 525.261 1840.29 528.2 1845.24 536.775C1850.19 545.349 1847.26 556.309 1838.69 561.258Z" fill="#1E2144"/>
<path d="M1886.85 444.745L1816.82 485.176C1808.25 490.125 1797.29 487.186 1792.34 478.612C1787.39 470.037 1790.32 459.077 1798.89 454.128L1868.92 413.697C1877.49 408.748 1888.45 411.687 1893.4 420.261C1898.35 428.849 1895.42 439.796 1886.85 444.745Z" fill="#1E2144"/>
<path d="M1905.2 522.859C1896.63 527.808 1885.67 524.87 1880.72 516.295C1875.77 507.721 1878.7 496.76 1887.27 491.811L2067.47 387.76C2076.05 382.811 2087.01 385.75 2091.96 394.324C2096.91 402.899 2093.97 413.859 2085.4 418.808L1905.2 522.859Z" fill="#1E2144"/>
<path d="M2001.18 201.319L1754.48 343.75C1745.91 348.699 1734.95 345.761 1730 337.186C1725.05 328.611 1727.98 317.651 1736.56 312.702L1983.25 170.271C1991.83 165.322 2002.79 168.26 2007.74 176.835C2012.69 185.409 2009.75 196.37 2001.18 201.319Z" fill="#1E2144"/>
<path d="M1884.45 357.43L1707.1 459.827C1698.53 464.776 1687.57 461.837 1682.62 453.263C1677.67 444.688 1680.6 433.728 1689.17 428.779L1866.53 326.383C1875.1 321.434 1886.06 324.372 1891.01 332.947C1895.96 341.521 1893.03 352.482 1884.45 357.43Z" fill="#1E2144"/>
<path d="M1973.11 306.22L1950.94 319.02C1942.37 323.969 1931.41 321.03 1926.46 312.455C1921.51 303.881 1924.45 292.921 1933.02 287.972L1955.19 275.172C1963.76 270.223 1974.72 273.162 1979.67 281.737C1984.62 290.311 1981.68 301.271 1973.11 306.22Z" fill="#1E2144"/>
<path d="M1443.02 -8.65289L1316.93 64.1434C1308.36 69.0923 1297.4 66.1537 1292.45 57.5791C1287.5 49.0045 1290.43 38.0443 1299 33.0955L1425.09 -39.7008C1433.66 -44.6497 1444.62 -41.7112 1449.57 -33.1366C1454.52 -24.5571 1451.59 -13.6017 1443.02 -8.65289Z" fill="#1E2144"/>
<path d="M1415.62 273.258L1345.58 313.693C1337.01 318.642 1326.05 315.704 1321.1 307.129C1316.15 298.555 1319.08 287.594 1327.65 282.646L1397.69 242.21C1406.26 237.261 1417.22 240.199 1422.17 248.774C1427.12 257.349 1424.19 268.309 1415.62 273.258Z" fill="#1E2144"/>
<path d="M1250.41 102.525L1105.68 186.089C1097.1 191.037 1086.14 188.099 1081.19 179.524C1076.24 170.95 1079.18 159.989 1087.75 155.041L1232.49 71.477C1241.06 66.5281 1252.02 69.4666 1256.97 78.0412C1261.91 86.6292 1258.98 97.5762 1250.41 102.525Z" fill="#1E2144"/>
<path d="M1481.06 412.899L1462.77 423.461C1454.2 428.41 1443.24 425.471 1438.29 416.897C1433.34 408.322 1436.27 397.362 1444.84 392.413L1463.14 381.851C1471.71 376.902 1482.67 379.841 1487.62 388.415C1492.57 396.99 1489.64 407.95 1481.06 412.899Z" fill="#1E2144"/>
<path d="M1525.34 298.628L1347.99 401.02C1339.42 405.969 1328.46 403.03 1323.51 394.456C1318.56 385.881 1321.5 374.921 1330.07 369.972L1507.41 267.581C1515.99 262.632 1526.95 265.57 1531.9 274.145C1536.85 282.719 1533.91 293.679 1525.34 298.628Z" fill="#1E2144"/>
<path d="M1672.26 302.515L1547.57 374.5C1539 379.449 1528.04 376.511 1523.09 367.936C1518.14 359.361 1521.08 348.401 1529.65 343.452L1654.34 271.462C1662.91 266.513 1673.87 269.452 1678.82 278.026C1683.77 286.601 1680.83 297.566 1672.26 302.515Z" fill="#1E2144"/>
<path d="M1281.48 439.419L1259.32 452.213C1250.75 457.162 1239.79 454.224 1234.84 445.649C1229.89 437.075 1232.83 426.114 1241.4 421.166L1263.56 408.371C1272.13 403.422 1283.09 406.36 1288.04 414.935C1292.98 423.514 1290.06 434.47 1281.48 439.419Z" fill="#1E2144"/>
<path d="M1448.53 165.561L1404.18 191.165C1395.61 196.114 1384.65 193.175 1379.7 184.601C1374.75 176.026 1377.68 165.066 1386.25 160.117L1430.6 134.513C1439.17 129.564 1450.13 132.503 1455.08 141.078C1460.03 149.652 1457.1 160.612 1448.53 165.561Z" fill="#1E2144"/>
<path d="M1410.12 99.0384L1326.13 147.53C1317.56 152.479 1306.6 149.54 1301.65 140.966C1296.7 132.391 1299.63 121.431 1308.2 116.482L1392.19 67.9904C1400.76 63.0416 1411.72 65.9801 1416.67 74.5546C1421.62 83.1292 1418.69 94.0895 1410.12 99.0384Z" fill="#1E2144"/>
<path d="M1182.52 319.093C1180.41 320.314 1178.18 321.105 1175.91 321.433C1173.58 321.669 1171.2 321.58 1168.88 320.952C1164.29 319.799 1160.44 316.75 1158.05 312.611C1157.47 311.595 1156.98 310.534 1156.57 309.416C1156.17 308.293 1155.96 307.071 1155.79 305.938C1155.64 304.809 1155.56 303.622 1155.62 302.48C1155.7 301.328 1155.87 300.136 1156.18 298.974C1156.49 297.818 1156.96 296.699 1157.46 295.667C1157.97 294.638 1158.61 293.645 1159.32 292.74C1160.03 291.857 1160.83 290.898 1161.73 290.13C1163.44 288.644 1165.57 287.418 1167.71 286.676C1168.83 286.276 1170.06 286.067 1171.18 285.89C1172.31 285.735 1173.5 285.668 1174.65 285.74C1175.8 285.82 1176.99 285.981 1178.15 286.292C1179.31 286.603 1180.42 287.067 1181.46 287.565C1182.49 288.086 1183.48 288.731 1184.38 289.43C1185.27 290.148 1186.23 290.94 1187 291.848C1187.76 292.761 1188.45 293.71 1189.03 294.726C1191.42 298.865 1192 303.691 1190.75 308.328C1189.62 312.906 1186.58 316.753 1182.52 319.093Z" fill="#1E2144"/>
<path d="M1249 280.771C1240.42 285.719 1229.47 282.781 1224.51 274.206C1219.56 265.632 1222.5 254.671 1231.07 249.723L1319.74 198.516C1328.32 193.567 1339.27 196.506 1344.22 205.08C1349.18 213.655 1346.24 224.615 1337.67 229.564L1249 280.771Z" fill="#1E2144"/>
<path d="M1608.22 162.071L1482.13 234.867C1473.56 239.816 1462.6 236.877 1457.65 228.303C1452.7 219.728 1455.63 208.768 1464.21 203.819L1590.29 131.023C1598.86 126.074 1609.82 129.013 1614.77 137.587C1619.72 146.162 1616.79 157.122 1608.22 162.071Z" fill="#1E2144"/>
<path d="M1854.92 19.6391L1674.73 123.672C1666.15 128.621 1655.2 125.682 1650.24 117.108C1645.29 108.533 1648.23 97.5731 1656.8 92.6243L1836.99 -11.4088C1845.56 -16.3576 1856.52 -13.4191 1861.47 -4.84455C1866.42 3.73001 1863.49 14.6902 1854.92 19.6391Z" fill="#1E2144"/>
<path d="M1781.06 -26.4275L1682.51 30.467C1673.94 35.4159 1662.98 32.4774 1658.03 23.9029C1653.08 15.3283 1656.02 4.36804 1664.59 -0.580804L1763.13 -57.4753C1771.7 -62.4242 1782.66 -59.4856 1787.61 -50.9111C1792.57 -42.3365 1789.63 -31.3764 1781.06 -26.4275Z" fill="#1E2144"/>
<path d="M1616.01 68.8606L1597.72 79.4227C1589.15 84.3716 1578.19 81.4331 1573.24 72.8585C1568.29 64.2839 1571.22 53.3236 1579.8 48.3748L1598.09 37.8127C1606.66 32.8639 1617.62 35.8025 1622.57 44.377C1627.51 52.9565 1624.58 63.9167 1616.01 68.8606Z" fill="#1E2144"/>
<path d="M1653.98 -41.7653L1476.62 60.6312C1468.05 65.5801 1457.09 62.6416 1452.14 54.067C1447.19 45.4924 1450.12 34.5321 1458.7 29.5833L1636.05 -72.8133C1644.62 -77.7621 1655.58 -74.8235 1660.53 -66.249C1665.48 -57.6744 1662.55 -46.7142 1653.98 -41.7653Z" fill="#1E2144"/>
<path d="M1531.22 117.83L1531.21 117.835L1515.02 127.167C1506.45 132.116 1495.49 129.169 1490.55 120.59C1485.6 112.015 1488.54 101.063 1497.11 96.1145L1497.12 96.1096L1513.3 86.7773C1521.87 81.8285 1532.84 84.7756 1537.78 93.355C1542.73 101.938 1539.79 112.881 1531.22 117.83Z" fill="#1E2144"/>
<path d="M1857.88 106.635L1742.35 173.339C1733.78 178.288 1722.82 175.349 1717.87 166.775C1712.92 158.2 1715.85 147.24 1724.42 142.291L1839.97 75.5821C1848.54 70.6333 1859.5 73.5717 1864.45 82.1463C1869.39 90.7257 1866.45 101.686 1857.88 106.635Z" fill="#1E2144"/>
<path d="M1675.84 211.738L1591.86 260.225C1583.29 265.174 1572.33 262.235 1567.38 253.661C1562.43 245.086 1565.36 234.126 1573.93 229.177L1657.91 180.69C1666.49 175.741 1677.44 178.68 1682.39 187.254C1687.34 195.834 1684.41 206.789 1675.84 211.738Z" fill="#1E2144"/>
<path d="M1829.79 211.565L1741.11 262.763C1732.54 267.712 1721.58 264.773 1716.63 256.199C1711.68 247.624 1714.61 236.664 1723.18 231.715L1811.86 180.517C1820.43 175.568 1831.39 178.506 1836.34 187.081C1841.29 195.655 1838.36 206.616 1829.79 211.565Z" fill="#1E2144"/>
<path d="M2174.59 367.312L2151.87 380.429C2143.3 385.378 2132.34 382.439 2127.39 373.865C2122.44 365.29 2125.38 354.33 2133.95 349.381L2156.67 336.264C2165.24 331.315 2176.2 334.254 2181.15 342.828C2186.09 351.408 2183.16 362.368 2174.59 367.312Z" fill="#1E2144"/>
<path d="M2222.74 250.809L2019.79 367.979C2011.22 372.927 2000.26 369.989 1995.31 361.414C1990.36 352.84 1993.29 341.88 2001.87 336.931L2204.81 219.761C2213.38 214.812 2224.34 217.751 2229.29 226.325C2234.25 234.908 2231.31 245.86 2222.74 250.809Z" fill="#1E2144"/>
<path d="M2123.59 219.339L2039.6 267.831C2031.03 272.78 2020.07 269.841 2015.12 261.267C2010.17 252.692 2013.11 241.732 2021.68 236.783L2105.67 188.291C2114.24 183.343 2125.2 186.281 2130.15 194.856C2135.1 203.43 2132.17 214.391 2123.59 219.339Z" fill="#1E2144"/>
<path d="M2156.36 111.726L2067.68 162.925C2059.11 167.873 2048.15 164.935 2043.2 156.36C2038.25 147.786 2041.18 136.825 2049.76 131.877L2138.43 80.6783C2147.01 75.7294 2157.96 78.6679 2162.92 87.2425C2167.86 95.822 2164.93 106.777 2156.36 111.726Z" fill="#1E2144"/>
<path d="M1279.09 352.096L1256.37 365.213C1247.79 370.161 1236.84 367.223 1231.88 358.648C1226.93 350.074 1229.87 339.114 1238.44 334.165L1261.16 321.048C1269.73 316.099 1280.69 319.037 1285.64 327.612C1290.59 336.186 1287.66 347.147 1279.09 352.096Z" fill="#1E2144"/>
<path d="M2061.31 77.8926L1896.26 173.186C1887.69 178.135 1876.73 175.196 1871.78 166.621C1866.83 158.047 1869.76 147.087 1878.34 142.138L2043.39 46.8445C2051.96 41.8957 2062.92 44.8342 2067.87 53.4088C2072.82 61.9834 2069.88 72.9437 2061.31 77.8926Z" fill="#1E2144"/>
<path d="M1953.37 406.315C1951.26 407.536 1949.03 408.326 1946.76 408.655C1944.43 408.89 1942.05 408.801 1939.73 408.174C1935.14 407.021 1931.29 403.972 1928.9 399.833C1928.32 398.817 1927.83 397.756 1927.42 396.638C1927.02 395.515 1926.81 394.292 1926.64 393.16C1926.49 392.031 1926.41 390.844 1926.47 389.702C1926.55 388.55 1926.72 387.357 1927.03 386.196C1927.34 385.039 1927.81 383.921 1928.31 382.889C1928.82 381.86 1929.46 380.866 1930.17 379.961C1930.88 379.078 1931.68 378.12 1932.58 377.352C1934.29 375.866 1936.42 374.64 1938.56 373.898C1939.68 373.498 1940.9 373.289 1942.03 373.112C1943.16 372.957 1944.35 372.89 1945.5 372.962C1946.65 373.042 1947.84 373.202 1949 373.514C1950.16 373.825 1951.27 374.288 1952.31 374.787C1953.34 375.307 1954.33 375.953 1955.23 376.652C1956.12 377.37 1957.08 378.162 1957.85 379.07C1958.61 379.983 1959.3 380.932 1959.88 381.948C1962.27 386.087 1962.85 390.913 1961.6 395.55C1960.47 400.127 1957.42 403.974 1953.37 406.315Z" fill="#1E2144"/>
<path d="M2415.33 139.614L2289.24 212.41C2280.67 217.359 2269.71 214.42 2264.76 205.846C2259.81 197.271 2262.75 186.311 2271.32 181.362L2397.41 108.566C2405.98 103.617 2416.94 106.556 2421.89 115.13C2426.84 123.713 2423.9 134.665 2415.33 139.614Z" fill="#1E2144"/>
<path d="M2311.12 288.487L2241.09 328.923C2232.51 333.872 2221.55 330.933 2216.6 322.359C2211.65 313.784 2214.59 302.824 2223.16 297.875L2293.2 257.439C2301.77 252.49 2312.73 255.429 2317.68 264.003C2322.63 272.578 2319.69 283.538 2311.12 288.487Z" fill="#1E2144"/>
<path d="M2305.61 114.251L2190.09 180.951C2181.52 185.9 2170.56 182.961 2165.61 174.386C2160.65 165.812 2163.59 154.851 2172.16 149.903L2287.7 83.1983C2296.27 78.2495 2307.23 81.1881 2312.18 89.7627C2317.13 98.3373 2314.19 109.302 2305.61 114.251Z" fill="#1E2144"/>
<path d="M2349.89 -0.011196L2222.86 73.3323C2214.29 78.2811 2203.33 75.3425 2198.38 66.7679C2193.43 58.1933 2196.36 47.2331 2204.93 42.2842L2331.97 -31.0592C2340.54 -36.0081 2351.5 -33.0695 2356.45 -24.4949C2361.4 -15.9204 2358.47 -4.96004 2349.89 -0.011196Z" fill="#1E2144"/>
<path d="M2123.59 219.339L2039.6 267.831C2031.03 272.78 2020.07 269.841 2015.12 261.267C2010.17 252.692 2013.11 241.732 2021.68 236.783L2105.67 188.291C2114.24 183.343 2125.2 186.281 2130.15 194.856C2135.1 203.43 2132.17 214.391 2123.59 219.339Z" fill="#1E2144"/>
<path d="M2503.72 177.301L2377.64 250.097C2369.06 255.046 2358.1 252.107 2353.15 243.533C2348.2 234.958 2351.14 223.998 2359.71 219.049L2485.8 146.253C2494.37 141.304 2505.33 144.243 2510.28 152.817C2515.23 161.392 2512.29 172.352 2503.72 177.301Z" fill="#1E2144"/>
<path d="M2551.88 60.7873L2481.85 101.218C2473.28 106.167 2462.32 103.229 2457.37 94.654C2452.42 86.0794 2455.36 75.1192 2463.93 70.1704L2533.96 29.7394C2542.53 24.7906 2553.49 27.729 2558.44 36.3036C2563.39 44.8867 2560.45 55.8385 2551.88 60.7873Z" fill="#1E2144"/>
<path d="M2570.23 138.902C2561.66 143.851 2550.7 140.912 2545.75 132.338C2540.8 123.763 2543.73 112.803 2552.31 107.854L2732.51 3.80263C2741.08 -1.14621 2752.04 1.79232 2756.99 10.3669C2761.94 18.9414 2759.01 29.9017 2750.43 34.8506L2570.23 138.902Z" fill="#1E2144"/>
<path d="M2549.5 -26.5322L2372.14 75.8643C2363.57 80.8132 2352.61 77.8748 2347.66 69.3002C2342.71 60.7256 2345.64 49.7652 2354.22 44.8164L2531.57 -57.5801C2540.14 -62.529 2551.1 -59.5903 2556.05 -51.0157C2560.99 -42.4362 2558.06 -31.4761 2549.5 -26.5322Z" fill="#1E2144"/>
<path d="M2146.1 28.9415L2127.8 39.5036C2119.23 44.4525 2108.27 41.5139 2103.32 32.9393C2098.37 24.3647 2101.31 13.4044 2109.88 8.45555L2128.17 -2.10655C2136.74 -7.0554 2147.7 -4.11691 2152.65 4.45769C2157.61 13.0323 2154.67 23.9926 2146.1 28.9415Z" fill="#1E2144"/>
<path d="M2190.37 -85.3293L2013.03 17.0624C2004.46 22.0112 1993.5 19.0728 1988.55 10.4982C1983.6 1.92369 1986.53 -9.0365 1995.1 -13.9853L2172.45 -116.377C2181.02 -121.326 2191.98 -118.387 2196.93 -109.813C2201.88 -101.238 2198.95 -90.2781 2190.37 -85.3293Z" fill="#1E2144"/>
<path d="M1946.52 55.4612L1924.36 68.2559C1915.79 73.2047 1904.83 70.2662 1899.88 61.6916C1894.93 53.1171 1897.86 42.1569 1906.43 37.208L1928.59 24.4134C1937.16 19.4645 1948.12 22.403 1953.07 30.9776C1958.02 39.5522 1955.09 50.5124 1946.52 55.4612Z" fill="#1E2144"/>
<path d="M2839.63 -16.6455L2816.91 -3.52843C2808.34 1.42041 2797.38 -1.51819 2792.43 -10.0927C2787.48 -18.6673 2790.41 -29.6275 2798.98 -34.5764L2821.7 -47.6935C2830.27 -52.6423 2841.23 -49.7037 2846.18 -41.1292C2851.13 -32.5497 2848.2 -21.5944 2839.63 -16.6455Z" fill="#1E2144"/>
<path d="M2618.41 22.3572C2616.3 23.5737 2614.06 24.3687 2611.79 24.6973C2609.47 24.9328 2607.08 24.8439 2604.77 24.2162C2600.18 23.0638 2596.33 20.0146 2593.94 15.8755C2593.35 14.8597 2592.86 13.7988 2592.45 12.6805C2592.05 11.5573 2591.85 10.3351 2591.68 9.20237C2591.52 8.07325 2591.45 6.88669 2591.51 5.7445C2591.59 4.59255 2591.76 3.40013 2592.07 2.23869C2592.37 1.08214 2592.84 -0.0361376 2593.34 -1.06867C2593.85 -2.09763 2594.5 -3.09092 2595.2 -3.99587C2595.91 -4.87899 2596.71 -5.83773 2597.61 -6.6053C2599.33 -8.09161 2601.45 -9.31787 2603.59 -10.0593C2604.72 -10.4593 2605.94 -10.6682 2607.07 -10.8452C2608.2 -11.0003 2609.39 -11.0672 2610.53 -10.9958C2611.69 -10.9159 2612.87 -10.7551 2614.03 -10.4437C2615.2 -10.1323 2616.31 -9.66915 2617.34 -9.17053C2618.38 -8.6501 2619.37 -8.00451 2620.27 -7.3053C2621.16 -6.58786 2622.11 -5.79554 2622.88 -4.88728C2623.65 -3.97413 2624.33 -3.02565 2624.92 -2.00992C2627.31 2.12922 2627.88 6.9552 2626.63 11.5925C2625.51 16.1698 2622.46 20.0171 2618.41 22.3572Z" fill="#1E2144"/>
</g>
</mask>
<g mask="url(#mask0)">
<rect x="-252" y="-547" width="3018" height="2336" fill="#313A75"/>
</g>
</g>
<defs>
<linearGradient id="paint0_linear" x1="1707.63" y1="-1176.05" x2="1707.63" y2="2924.62" gradientUnits="userSpaceOnUse">
<stop stop-color="#313A75"/>
<stop offset="1" stop-color="#5162AA"/>
</linearGradient>
<clipPath id="clip0">
<rect width="2518.77" height="2263.73" fill="white" transform="translate(304 -1166.62) rotate(-30)"/>
</clipPath>
</defs>
</svg>
