<svg width="1440" height="1100" viewBox="0 0 1440 1100" fill="none" xmlns="http://www.w3.org/2000/svg">
<path d="M638.631 810.709C657.61 843.559 646.334 885.524 613.511 904.498L571.534 928.717C538.674 947.691 527.435 989.656 546.377 1022.51C565.356 1055.36 607.334 1066.59 640.194 1047.66L1440 586.04L1440 0H0.000323606L0 1100L544.814 785.56C577.674 766.586 619.652 777.859 638.631 810.709Z" fill="url(#paint0_linear)"/>
<g opacity="0.25">
<mask id="mask0" mask-type="alpha" maskUnits="userSpaceOnUse" x="-680" y="-2426" width="3314" height="3220">
<g clip-path="url(#clip0)">
<path d="M277.97 7.13276L207.933 47.5686C199.362 52.5175 188.402 49.5789 183.452 41.0044C178.501 32.4298 181.436 21.4697 190.008 16.5208L260.045 -23.9151C268.617 -28.8639 279.576 -25.9255 284.526 -17.3509C289.477 -8.77638 286.542 2.18391 277.97 7.13276Z" fill="#1E2144"/>
<path d="M766.297 523.571L640.21 596.368C631.638 601.317 620.679 598.378 615.728 589.804C610.778 581.229 613.713 570.269 622.284 565.32L748.371 492.523C756.943 487.575 767.902 490.513 772.853 499.088C777.8 507.676 774.868 518.623 766.297 523.571Z" fill="#1E2144"/>
<path d="M662.089 672.445L592.052 712.881C583.48 717.83 572.521 714.891 567.57 706.317C562.62 697.742 565.554 686.782 574.126 681.833L644.163 641.397C652.735 636.448 663.694 639.387 668.645 647.961C673.595 656.536 670.66 667.496 662.089 672.445Z" fill="#1E2144"/>
<path d="M656.579 498.209L541.044 564.913C532.472 569.862 521.513 566.924 516.562 558.349C511.612 549.774 514.547 538.814 523.118 533.865L638.653 467.161C647.225 462.212 658.184 465.151 663.135 473.725C668.086 482.3 665.151 493.26 656.579 498.209Z" fill="#1E2144"/>
<path d="M700.86 383.947L573.825 457.29C565.253 462.239 554.294 459.3 549.344 450.726C544.393 442.151 547.328 431.191 555.9 426.242L682.934 352.899C691.506 347.95 702.465 350.889 707.415 359.463C712.366 368.038 709.431 378.998 700.86 383.947Z" fill="#1E2144"/>
<path d="M474.561 603.297L390.57 651.789C381.999 656.738 371.039 653.799 366.089 645.225C361.138 636.65 364.073 625.69 372.645 620.741L456.635 572.249C465.207 567.3 476.166 570.239 481.116 578.813C486.067 587.388 483.132 598.348 474.561 603.297Z" fill="#1E2144"/>
<path d="M854.688 561.258L728.601 634.055C720.03 639.004 709.071 636.065 704.12 627.491C699.169 618.916 702.104 607.956 710.676 603.007L836.763 530.211C845.334 525.262 856.294 528.2 861.244 536.775C866.195 545.349 863.26 556.31 854.688 561.258Z" fill="#1E2144"/>
<path d="M902.848 444.745L832.819 485.176C824.248 490.125 813.288 487.186 808.338 478.612C803.387 470.037 806.322 459.077 814.894 454.128L884.922 413.697C893.494 408.748 904.453 411.687 909.404 420.261C914.351 428.849 911.419 439.796 902.848 444.745Z" fill="#1E2144"/>
<path d="M921.197 522.86C912.625 527.808 901.666 524.87 896.716 516.295C891.765 507.721 894.7 496.761 903.272 491.812L1083.47 387.76C1092.05 382.812 1103.01 385.75 1107.96 394.325C1112.91 402.899 1109.97 413.859 1101.4 418.808L921.197 522.86Z" fill="#1E2144"/>
<path d="M1017.18 201.319L770.481 343.75C761.91 348.699 750.95 345.761 746 337.186C741.049 328.611 743.984 317.651 752.556 312.702L999.255 170.271C1007.83 165.322 1018.79 168.26 1023.74 176.835C1028.69 185.409 1025.75 196.37 1017.18 201.319Z" fill="#1E2144"/>
<path d="M900.454 357.431L723.098 459.827C714.526 464.776 703.567 461.838 698.616 453.263C693.666 444.688 696.6 433.728 705.172 428.779L882.528 326.383C891.1 321.434 902.059 324.372 907.009 332.947C911.96 341.522 909.025 352.482 900.454 357.431Z" fill="#1E2144"/>
<path d="M989.113 306.22L966.943 319.02C958.372 323.969 947.412 321.03 942.462 312.456C937.511 303.881 940.446 292.921 949.018 287.972L971.187 275.172C979.759 270.223 990.718 273.162 995.669 281.737C1000.62 290.311 997.684 301.272 989.113 306.22Z" fill="#1E2144"/>
<path d="M459.017 -8.65285L332.931 64.1435C324.359 69.0923 313.4 66.1538 308.449 57.5792C303.499 49.0046 306.433 38.0444 315.005 33.0955L441.092 -39.7008C449.664 -44.6496 460.623 -41.7111 465.573 -33.1365C470.515 -24.557 467.589 -13.6017 459.017 -8.65285Z" fill="#1E2144"/>
<path d="M431.617 273.258L361.58 313.694C353.008 318.642 342.049 315.704 337.099 307.129C332.148 298.555 335.083 287.594 343.654 282.646L413.691 242.21C422.263 237.261 433.222 240.199 438.173 248.774C443.123 257.349 440.189 268.309 431.617 273.258Z" fill="#1E2144"/>
<path d="M266.412 102.525L121.676 186.089C113.104 191.038 102.145 188.099 97.1942 179.524C92.2437 170.95 95.1785 159.99 103.75 155.041L248.486 71.4772C257.058 66.5284 268.017 69.4669 272.968 78.0415C277.915 86.6294 274.984 97.5764 266.412 102.525Z" fill="#1E2144"/>
<path d="M497.064 412.899L478.77 423.461C470.199 428.41 459.239 425.472 454.289 416.897C449.338 408.322 452.273 397.362 460.845 392.413L479.139 381.851C487.711 376.902 498.67 379.841 503.62 388.416C508.571 396.99 505.636 407.95 497.064 412.899Z" fill="#1E2144"/>
<path d="M541.34 298.628L363.993 401.02C355.421 405.969 344.462 403.03 339.512 394.456C334.561 385.881 337.496 374.921 346.067 369.972L523.415 267.581C531.987 262.632 542.946 265.57 547.896 274.145C552.847 282.719 549.912 293.68 541.34 298.628Z" fill="#1E2144"/>
<path d="M688.255 302.515L563.573 374.5C555.001 379.449 544.042 376.511 539.092 367.936C534.141 359.362 537.076 348.401 545.648 343.453L670.338 271.462C678.91 266.513 689.869 269.452 694.82 278.027C699.77 286.601 696.827 297.566 688.255 302.515Z" fill="#1E2144"/>
<path d="M297.484 439.419L275.323 452.213C266.751 457.162 255.792 454.224 250.842 445.649C245.891 437.075 248.826 426.115 257.398 421.166L279.559 408.371C288.13 403.422 299.089 406.361 304.04 414.935C308.982 423.515 306.056 434.47 297.484 439.419Z" fill="#1E2144"/>
<path d="M464.525 165.561L420.178 191.165C411.606 196.114 400.647 193.176 395.696 184.601C390.746 176.027 393.68 165.066 402.252 160.117L446.6 134.513C455.171 129.565 466.13 132.503 471.081 141.078C476.031 149.652 473.097 160.612 464.525 165.561Z" fill="#1E2144"/>
<path d="M426.118 99.0385L342.128 147.53C333.556 152.479 322.597 149.541 317.646 140.966C312.696 132.391 315.631 121.431 324.202 116.482L408.192 67.9905C416.764 63.0417 427.723 65.9802 432.674 74.5548C437.624 83.1293 434.69 94.0896 426.118 99.0385Z" fill="#1E2144"/>
<path d="M198.522 319.093C196.407 320.314 194.178 321.105 191.908 321.433C189.585 321.669 187.198 321.58 184.884 320.952C180.292 319.799 176.444 316.75 174.055 312.611C173.468 311.595 172.98 310.534 172.571 309.416C172.171 308.293 171.961 307.071 171.793 305.938C171.637 304.809 171.561 303.622 171.624 302.48C171.703 301.328 171.873 300.136 172.184 298.974C172.486 297.818 172.957 296.699 173.455 295.667C173.967 294.638 174.612 293.645 175.319 292.74C176.028 291.857 176.828 290.898 177.728 290.13C179.442 288.644 181.566 287.418 183.71 286.676C184.833 286.276 186.055 286.067 187.183 285.89C188.311 285.735 189.503 285.668 190.65 285.74C191.801 285.82 192.989 285.981 194.15 286.292C195.311 286.603 196.425 287.067 197.457 287.565C198.491 288.086 199.484 288.731 200.384 289.43C201.272 290.148 202.226 290.94 202.999 291.848C203.763 292.762 204.446 293.71 205.033 294.726C207.422 298.865 207.997 303.691 206.748 308.328C205.623 312.906 202.575 316.753 198.522 319.093Z" fill="#1E2144"/>
<path d="M264.996 280.771C256.424 285.719 245.465 282.781 240.515 274.206C235.564 265.632 238.499 254.672 247.07 249.723L335.744 198.516C344.315 193.567 355.274 196.506 360.225 205.08C365.175 213.655 362.241 224.615 353.669 229.564L264.996 280.771Z" fill="#1E2144"/>
<path d="M624.217 162.071L498.131 234.867C489.559 239.816 478.6 236.878 473.649 228.303C468.699 219.729 471.634 208.768 480.205 203.82L606.292 131.023C614.864 126.074 625.823 129.013 630.773 137.587C635.724 146.162 632.789 157.122 624.217 162.071Z" fill="#1E2144"/>
<path d="M870.917 19.6392L690.726 123.672C682.155 128.621 671.195 125.683 666.245 117.108C661.294 108.533 664.229 97.5733 672.801 92.6245L852.991 -11.4086C861.563 -16.3575 872.522 -13.419 877.473 -4.8444C882.423 3.73016 879.489 14.6904 870.917 19.6392Z" fill="#1E2144"/>
<path d="M797.059 -26.4274L698.514 30.4671C689.943 35.416 678.984 32.4775 674.033 23.903C669.083 15.3284 672.017 4.36814 680.589 -0.580705L779.133 -57.4753C787.705 -62.4241 798.664 -59.4855 803.615 -50.911C808.565 -42.3365 805.63 -31.3763 797.059 -26.4274Z" fill="#1E2144"/>
<path d="M632.015 68.8608L613.721 79.4229C605.149 84.3717 594.19 81.4332 589.239 72.8587C584.289 64.2841 587.223 53.3238 595.795 48.375L614.089 37.8129C622.661 32.864 633.62 35.8026 638.571 44.3772C643.513 52.9566 640.578 63.9169 632.015 68.8608Z" fill="#1E2144"/>
<path d="M669.978 -41.7652L492.622 60.6314C484.05 65.5802 473.091 62.6417 468.141 54.0672C463.19 45.4926 466.125 34.5323 474.696 29.5834L652.052 -72.8131C660.624 -77.762 671.583 -74.8234 676.534 -66.2488C681.484 -57.6742 678.55 -46.714 669.978 -41.7652Z" fill="#1E2144"/>
<path d="M547.217 117.83L547.208 117.835L531.025 127.167C522.453 132.116 511.489 129.169 506.547 120.59C501.596 112.015 504.536 101.063 513.108 96.1146L513.116 96.1097L529.3 86.7774C537.871 81.8286 548.835 84.7756 553.777 93.3551C558.733 101.938 555.788 112.881 547.217 117.83Z" fill="#1E2144"/>
<path d="M873.883 106.635L758.347 173.339C749.776 178.288 738.817 175.35 733.866 166.775C728.916 158.201 731.85 147.24 740.422 142.292L855.966 75.5823C864.537 70.6335 875.496 73.572 880.447 82.1465C885.389 90.7259 882.454 101.686 873.883 106.635Z" fill="#1E2144"/>
<path d="M691.839 211.738L607.857 260.225C599.286 265.174 588.326 262.235 583.376 253.661C578.425 245.086 581.36 234.126 589.932 229.177L673.914 180.69C682.485 175.741 693.444 178.68 698.395 187.254C703.337 195.834 700.411 206.789 691.839 211.738Z" fill="#1E2144"/>
<path d="M845.786 211.565L757.108 262.763C748.537 267.712 737.577 264.773 732.627 256.199C727.676 247.624 730.611 236.664 739.183 231.715L827.861 180.517C836.432 175.568 847.392 178.506 852.342 187.081C857.293 195.656 854.358 206.616 845.786 211.565Z" fill="#1E2144"/>
<path d="M1190.59 367.312L1167.87 380.429C1159.3 385.378 1148.34 382.439 1143.39 373.865C1138.44 365.29 1141.38 354.33 1149.95 349.381L1172.67 336.264C1181.24 331.315 1192.2 334.254 1197.15 342.828C1202.09 351.408 1199.16 362.368 1190.59 367.312Z" fill="#1E2144"/>
<path d="M1238.74 250.809L1035.79 367.979C1027.22 372.927 1016.26 369.989 1011.31 361.414C1006.36 352.84 1009.29 341.88 1017.87 336.931L1220.81 219.761C1229.38 214.812 1240.34 217.751 1245.29 226.325C1250.25 234.908 1247.31 245.86 1238.74 250.809Z" fill="#1E2144"/>
<path d="M1139.59 219.339L1055.6 267.831C1047.03 272.78 1036.07 269.841 1031.12 261.267C1026.17 252.692 1029.11 241.732 1037.68 236.783L1121.67 188.291C1130.24 183.343 1141.2 186.281 1146.15 194.856C1151.1 203.43 1148.17 214.391 1139.59 219.339Z" fill="#1E2144"/>
<path d="M1172.36 111.726L1083.68 162.925C1075.11 167.874 1064.15 164.935 1059.2 156.36C1054.25 147.786 1057.18 136.825 1065.76 131.877L1154.43 80.6784C1163.01 75.7296 1173.96 78.6681 1178.92 87.2427C1183.86 95.8222 1180.93 106.778 1172.36 111.726Z" fill="#1E2144"/>
<path d="M295.085 352.096L272.366 365.213C263.794 370.162 252.835 367.223 247.885 358.649C242.934 350.074 245.869 339.114 254.441 334.165L277.16 321.048C285.732 316.099 296.691 319.037 301.641 327.612C306.592 336.187 303.657 347.147 295.085 352.096Z" fill="#1E2144"/>
<path d="M1077.31 77.8927L912.261 173.186C903.689 178.135 892.73 175.196 887.779 166.622C882.829 158.047 885.763 147.087 894.335 142.138L1059.39 46.8447C1067.96 41.8958 1078.92 44.8343 1083.87 53.4089C1088.82 61.9835 1085.88 72.9439 1077.31 77.8927Z" fill="#1E2144"/>
<path d="M969.372 406.315C967.256 407.536 965.027 408.326 962.758 408.655C960.434 408.89 958.047 408.801 955.733 408.174C951.142 407.021 947.294 403.972 944.904 399.833C944.318 398.817 943.829 397.756 943.421 396.638C943.02 395.515 942.811 394.293 942.642 393.16C942.487 392.031 942.411 390.844 942.474 389.702C942.553 388.55 942.722 387.358 943.033 386.196C943.336 385.04 943.807 383.921 944.305 382.889C944.817 381.86 945.462 380.867 946.169 379.962C946.878 379.079 947.678 378.12 948.577 377.352C950.292 375.866 952.416 374.64 954.56 373.898C955.683 373.498 956.905 373.289 958.032 373.112C959.161 372.957 960.352 372.89 961.499 372.962C962.651 373.042 963.838 373.203 965 373.514C966.161 373.825 967.274 374.288 968.307 374.787C969.341 375.308 970.334 375.953 971.234 376.652C972.122 377.37 973.076 378.162 973.849 379.07C974.613 379.983 975.296 380.932 975.882 381.948C978.272 386.087 978.847 390.913 977.598 395.55C976.472 400.127 973.425 403.975 969.372 406.315Z" fill="#1E2144"/>
<path d="M1431.33 139.614L1305.24 212.41C1296.67 217.359 1285.71 214.421 1280.76 205.846C1275.81 197.271 1278.75 186.311 1287.32 181.362L1413.41 108.566C1421.98 103.617 1432.94 106.556 1437.89 115.13C1442.84 123.713 1439.9 134.665 1431.33 139.614Z" fill="#1E2144"/>
<path d="M1327.12 288.487L1257.09 328.923C1248.51 333.872 1237.55 330.933 1232.6 322.359C1227.65 313.784 1230.59 302.824 1239.16 297.875L1309.2 257.439C1317.77 252.491 1328.73 255.429 1333.68 264.004C1338.63 272.578 1335.69 283.538 1327.12 288.487Z" fill="#1E2144"/>
<path d="M1321.61 114.251L1206.09 180.951C1197.52 185.9 1186.56 182.961 1181.61 174.387C1176.65 165.812 1179.59 154.852 1188.16 149.903L1303.7 83.1984C1312.27 78.2496 1323.23 81.1882 1328.18 89.7628C1333.13 98.3374 1330.19 109.303 1321.61 114.251Z" fill="#1E2144"/>
<path d="M1365.89 -0.0109529L1238.86 73.3325C1230.29 78.2813 1219.33 75.3427 1214.38 66.7681C1209.43 58.1935 1212.36 47.2333 1220.93 42.2845L1347.97 -31.059C1356.54 -36.0078 1367.5 -33.0693 1372.45 -24.4947C1377.4 -15.9201 1374.47 -4.95979 1365.89 -0.0109529Z" fill="#1E2144"/>
<path d="M1139.59 219.339L1055.6 267.831C1047.03 272.78 1036.07 269.841 1031.12 261.267C1026.17 252.692 1029.11 241.732 1037.68 236.783L1121.67 188.291C1130.24 183.343 1141.2 186.281 1146.15 194.856C1151.1 203.43 1148.17 214.391 1139.59 219.339Z" fill="#1E2144"/>
<path d="M1519.72 177.301L1393.64 250.097C1385.06 255.046 1374.1 252.107 1369.15 243.533C1364.2 234.958 1367.14 223.998 1375.71 219.049L1501.8 146.253C1510.37 141.304 1521.33 144.243 1526.28 152.817C1531.23 161.392 1528.29 172.352 1519.72 177.301Z" fill="#1E2144"/>
<path d="M1565.5 -26.532L1388.14 75.8645C1379.57 80.8133 1368.61 77.8749 1363.66 69.3003C1358.71 60.7257 1361.64 49.7654 1370.22 44.8165L1547.57 -57.58C1556.14 -62.5288 1567.1 -59.5902 1572.05 -51.0156C1576.99 -42.4361 1574.06 -31.476 1565.5 -26.532Z" fill="#1E2144"/>
<path d="M1162.1 28.9415L1143.8 39.5036C1135.23 44.4525 1124.27 41.5139 1119.32 32.9393C1114.37 24.3647 1117.31 13.4044 1125.88 8.45556L1144.17 -2.10654C1152.74 -7.05539 1163.7 -4.1169 1168.65 4.4577C1173.61 13.0323 1170.67 23.9927 1162.1 28.9415Z" fill="#1E2144"/>
<path d="M1206.37 -85.3292L1029.03 17.0625C1020.46 22.0113 1009.5 19.0729 1004.55 10.4983C999.595 1.9238 1002.53 -9.0364 1011.1 -13.9852L1188.45 -116.377C1197.02 -121.326 1207.98 -118.387 1212.93 -109.813C1217.88 -101.238 1214.95 -90.278 1206.37 -85.3292Z" fill="#1E2144"/>
<path d="M962.518 55.4613L940.357 68.2559C931.786 73.2048 920.826 70.2663 915.876 61.6917C910.925 53.1172 913.86 42.1569 922.432 37.2081L944.593 24.4135C953.164 19.4646 964.124 22.4031 969.074 30.9777C974.025 39.5522 971.09 50.5125 962.518 55.4613Z" fill="#1E2144"/>
</g>
</mask>
<g mask="url(#mask0)">
<rect y="-547.116" width="1440" height="2336" fill="#313A75"/>
</g>
</g>
<defs>
<linearGradient id="paint0_linear" x1="723.626" y1="-1176.05" x2="723.626" y2="2924.62" gradientUnits="userSpaceOnUse">
<stop stop-color="#313A75"/>
<stop offset="1" stop-color="#5162AA"/>
</linearGradient>
<clipPath id="clip0">
<rect width="2518.77" height="2263.73" fill="white" transform="translate(-680 -1166.62) rotate(-30)"/>
</clipPath>
</defs>
</svg>
