<svg width="10" height="16" viewBox="0 0 10 16" fill="none" xmlns="http://www.w3.org/2000/svg">
  <path d="M7.3152 10.9163L4.50729 13.7242L1.69939 10.9163C1.39052 10.6075 0.885098 10.6075 0.576229 10.9163C0.26736 11.2252 0.26736 11.7306 0.576229 12.0395L3.94571 15.409C4.25458 15.7178 4.76 15.7178 5.06887 15.409L8.43836 12.0395C8.74723 11.7306 8.74723 11.2252 8.43836 10.9163C8.12949 10.6075 7.62407 10.6075 7.3152 10.9163Z" fill="#A7B1DC"/>
  <path d="M1.69012 5.07081L4.50725 2.25368L7.32437 5.07081C7.63426 5.38069 8.14134 5.38069 8.45122 5.07081C8.76111 4.76093 8.76111 4.25384 8.45122 3.94396L5.07067 0.563407C4.76079 0.253523 4.2537 0.253523 3.94382 0.563407L0.563267 3.94396C0.253383 4.25384 0.253383 4.76093 0.563267 5.07081C0.873151 5.38069 1.38023 5.38069 1.69012 5.07081Z" fill="#A7B1DC"/>
</svg>
