<svg width="1440" height="1014" viewBox="0 0 1440 1014" fill="none" xmlns="http://www.w3.org/2000/svg">
<mask id="mask0" mask-type="alpha" maskUnits="userSpaceOnUse" x="-680" y="-2206" width="3314" height="3220">
<g clip-path="url(#clip0)">
<path d="M382.179 78.2592L256.092 151.056C247.521 156.004 236.562 153.066 231.611 144.491C226.661 135.917 229.595 124.957 238.167 120.008L364.254 47.2115C372.826 42.2627 383.785 45.2011 388.735 53.7757C393.677 62.3551 390.751 73.3104 382.179 78.2592Z" fill="#EAEDFC"/>
<path d="M277.971 227.133L207.934 267.569C199.363 272.517 188.403 269.579 183.453 261.004C178.502 252.43 181.437 241.47 190.009 236.521L260.046 196.085C268.618 191.136 279.577 194.075 284.527 202.649C289.478 211.224 286.543 222.184 277.971 227.133Z" fill="#EAEDFC"/>
<path d="M272.462 52.8965L156.926 119.601C148.355 124.55 137.396 121.611 132.445 113.037C127.495 104.462 130.429 93.5019 139.001 88.5531L254.536 21.8488C263.108 16.8999 274.067 19.8384 279.018 28.413C283.968 36.9875 281.033 47.9477 272.462 52.8965Z" fill="#EAEDFC"/>
<path d="M316.737 -61.3739L189.702 11.9696C181.13 16.9184 170.171 13.9799 165.221 5.4053C160.27 -3.1693 163.205 -14.1296 171.776 -19.0785L298.811 -92.4219C307.383 -97.3707 318.342 -94.4321 323.292 -85.8575C328.243 -77.2829 325.308 -66.3227 316.737 -61.3739Z" fill="#EAEDFC"/>
<path d="M90.4422 157.985L6.45194 206.477C-2.1197 211.426 -13.0789 208.487 -18.0294 199.913C-22.98 191.338 -20.0452 180.378 -11.4735 175.429L72.5167 126.937C81.0884 121.988 92.0476 124.927 96.9981 133.501C101.949 142.076 99.0138 153.036 90.4422 157.985Z" fill="#EAEDFC"/>
<path d="M470.57 115.946L344.483 188.742C335.912 193.691 324.952 190.752 320.002 182.178C315.051 173.603 317.986 162.643 326.558 157.694L452.645 84.898C461.216 79.9491 472.175 82.8876 477.126 91.4622C482.076 100.037 479.142 110.997 470.57 115.946Z" fill="#EAEDFC"/>
<path d="M518.731 -0.566822L448.702 39.8642C440.13 44.813 429.171 41.8745 424.221 33.2998C419.27 24.7252 422.205 13.765 430.776 8.81612L500.805 -31.6149C509.377 -36.5637 520.336 -33.6252 525.286 -25.0506C530.229 -16.471 527.302 -5.51566 518.731 -0.566822Z" fill="#EAEDFC"/>
<path d="M537.08 77.5473C528.508 82.4961 517.549 79.5577 512.598 70.9832C507.648 62.4086 510.583 51.4485 519.154 46.4997L699.357 -57.5517C707.929 -62.5005 718.888 -59.562 723.838 -50.9875C728.789 -42.413 725.854 -31.4528 717.282 -26.5039L537.08 77.5473Z" fill="#EAEDFC"/>
<path d="M516.331 -87.8901L338.975 14.5065C330.404 19.4553 319.445 16.5168 314.494 7.94224C309.544 -0.63233 312.478 -11.5926 321.05 -16.5415L498.406 -118.938C506.978 -123.887 517.937 -120.948 522.887 -112.374C527.838 -103.799 524.903 -92.8389 516.331 -87.8901Z" fill="#EAEDFC"/>
<path d="M766.297 743.571L640.21 816.368C631.638 821.317 620.679 818.378 615.728 809.804C610.778 801.229 613.713 790.269 622.284 785.32L748.371 712.523C756.943 707.575 767.902 710.513 772.853 719.088C777.8 727.676 774.868 738.623 766.297 743.571Z" fill="#EAEDFC"/>
<path d="M662.089 892.445L592.052 932.881C583.48 937.83 572.521 934.891 567.57 926.317C562.62 917.742 565.554 906.782 574.126 901.833L644.163 861.397C652.735 856.448 663.694 859.387 668.645 867.961C673.595 876.536 670.66 887.496 662.089 892.445Z" fill="#EAEDFC"/>
<path d="M656.579 718.209L541.044 784.913C532.472 789.862 521.513 786.924 516.562 778.349C511.612 769.774 514.547 758.814 523.118 753.865L638.653 687.161C647.225 682.212 658.184 685.151 663.135 693.725C668.086 702.3 665.151 713.26 656.579 718.209Z" fill="#EAEDFC"/>
<path d="M700.86 603.947L573.825 677.29C565.253 682.239 554.294 679.3 549.344 670.726C544.393 662.151 547.328 651.191 555.9 646.242L682.934 572.899C691.506 567.95 702.465 570.888 707.415 579.463C712.366 588.038 709.431 598.998 700.86 603.947Z" fill="#EAEDFC"/>
<path d="M474.562 823.297L390.571 871.789C382 876.738 371.04 873.799 366.09 865.225C361.139 856.65 364.074 845.69 372.646 840.741L456.636 792.249C465.207 787.3 476.167 790.239 481.117 798.813C486.068 807.388 483.133 818.348 474.562 823.297Z" fill="#EAEDFC"/>
<path d="M854.689 781.258L728.602 854.055C720.031 859.004 709.071 856.065 704.121 847.491C699.17 838.916 702.105 827.956 710.677 823.007L836.764 750.211C845.335 745.262 856.295 748.2 861.245 756.775C866.196 765.349 863.261 776.31 854.689 781.258Z" fill="#EAEDFC"/>
<path d="M902.848 664.745L832.819 705.176C824.248 710.125 813.288 707.186 808.338 698.612C803.387 690.037 806.322 679.077 814.894 674.128L884.922 633.697C893.494 628.748 904.453 631.687 909.404 640.261C914.351 648.849 911.419 659.796 902.848 664.745Z" fill="#EAEDFC"/>
<path d="M921.197 742.86C912.625 747.808 901.666 744.87 896.716 736.295C891.765 727.721 894.7 716.761 903.272 711.812L1083.47 607.76C1092.05 602.811 1103.01 605.75 1107.96 614.325C1112.91 622.899 1109.97 633.859 1101.4 638.808L921.197 742.86Z" fill="#EAEDFC"/>
<path d="M1017.18 421.319L770.481 563.75C761.91 568.699 750.95 565.761 746 557.186C741.049 548.611 743.984 537.651 752.556 532.702L999.255 390.271C1007.83 385.322 1018.79 388.26 1023.74 396.835C1028.69 405.409 1025.75 416.37 1017.18 421.319Z" fill="#EAEDFC"/>
<path d="M900.454 577.431L723.098 679.827C714.527 684.776 703.568 681.838 698.617 673.263C693.667 664.688 696.601 653.728 705.173 648.779L882.529 546.383C891.101 541.434 902.06 544.372 907.01 552.947C911.961 561.522 909.026 572.482 900.454 577.431Z" fill="#EAEDFC"/>
<path d="M989.112 526.22L966.942 539.02C958.371 543.969 947.411 541.03 942.461 532.456C937.51 523.881 940.445 512.921 949.017 507.972L971.186 495.172C979.758 490.223 990.717 493.162 995.668 501.737C1000.62 510.311 997.683 521.272 989.112 526.22Z" fill="#EAEDFC"/>
<path d="M459.017 211.347L332.931 284.143C324.359 289.092 313.4 286.154 308.449 277.579C303.499 269.005 306.433 258.044 315.005 253.096L441.092 180.299C449.664 175.35 460.623 178.289 465.573 186.863C470.515 195.443 467.589 206.398 459.017 211.347Z" fill="#EAEDFC"/>
<path d="M431.618 493.258L361.581 533.694C353.009 538.642 342.05 535.704 337.099 527.129C332.149 518.555 335.084 507.594 343.655 502.646L413.692 462.21C422.264 457.261 433.223 460.199 438.174 468.774C443.124 477.349 440.19 488.309 431.618 493.258Z" fill="#EAEDFC"/>
<path d="M266.413 322.525L121.677 406.089C113.105 411.038 102.146 408.099 97.1952 399.524C92.2446 390.95 95.1794 379.99 103.751 375.041L248.487 291.477C257.059 286.528 268.018 289.467 272.969 298.041C277.916 306.629 274.985 317.576 266.413 322.525Z" fill="#EAEDFC"/>
<path d="M497.064 632.899L478.77 643.461C470.199 648.41 459.239 645.472 454.289 636.897C449.338 628.322 452.273 617.362 460.845 612.413L479.139 601.851C487.711 596.902 498.67 599.841 503.62 608.416C508.571 616.99 505.636 627.95 497.064 632.899Z" fill="#EAEDFC"/>
<path d="M541.34 518.628L363.993 621.02C355.421 625.969 344.462 623.03 339.512 614.456C334.561 605.881 337.496 594.921 346.067 589.972L523.415 487.581C531.987 482.632 542.946 485.57 547.896 494.145C552.847 502.719 549.912 513.68 541.34 518.628Z" fill="#EAEDFC"/>
<path d="M688.255 522.515L563.573 594.5C555.001 599.449 544.042 596.511 539.092 587.936C534.141 579.362 537.076 568.401 545.648 563.453L670.338 491.462C678.91 486.513 689.869 489.452 694.82 498.027C699.77 506.601 696.827 517.566 688.255 522.515Z" fill="#EAEDFC"/>
<path d="M297.484 659.419L275.323 672.213C266.751 677.162 255.792 674.224 250.842 665.649C245.891 657.075 248.826 646.115 257.398 641.166L279.559 628.371C288.13 623.422 299.089 626.361 304.04 634.935C308.982 643.515 306.056 654.47 297.484 659.419Z" fill="#EAEDFC"/>
<path d="M464.526 385.561L420.179 411.165C411.607 416.114 400.648 413.176 395.697 404.601C390.747 396.027 393.681 385.066 402.253 380.117L446.6 354.513C455.172 349.564 466.131 352.503 471.082 361.078C476.032 369.652 473.098 380.612 464.526 385.561Z" fill="#EAEDFC"/>
<path d="M426.118 319.038L342.128 367.53C333.556 372.479 322.597 369.541 317.646 360.966C312.696 352.391 315.631 341.431 324.202 336.482L408.192 287.991C416.764 283.042 427.723 285.98 432.674 294.555C437.624 303.129 434.69 314.09 426.118 319.038Z" fill="#EAEDFC"/>
<path d="M198.523 539.093C196.408 540.314 194.179 541.105 191.909 541.433C189.586 541.669 187.199 541.58 184.884 540.952C180.293 539.799 176.445 536.75 174.056 532.611C173.469 531.595 172.981 530.534 172.572 529.416C172.172 528.293 171.962 527.071 171.794 525.938C171.638 524.809 171.562 523.622 171.625 522.48C171.704 521.328 171.873 520.136 172.184 518.974C172.487 517.818 172.958 516.699 173.456 515.667C173.968 514.638 174.613 513.645 175.32 512.74C176.029 511.857 176.829 510.898 177.729 510.13C179.443 508.644 181.567 507.418 183.711 506.676C184.834 506.276 186.056 506.067 187.184 505.89C188.312 505.735 189.504 505.668 190.65 505.74C191.802 505.82 192.99 505.981 194.151 506.292C195.312 506.603 196.426 507.067 197.458 507.565C198.492 508.086 199.485 508.731 200.385 509.43C201.273 510.148 202.227 510.94 203 511.848C203.764 512.761 204.447 513.71 205.034 514.726C207.423 518.865 207.998 523.691 206.749 528.328C205.624 532.906 202.576 536.753 198.523 539.093Z" fill="#EAEDFC"/>
<path d="M264.996 500.771C256.424 505.719 245.465 502.781 240.515 494.206C235.564 485.632 238.499 474.672 247.07 469.723L335.744 418.516C344.315 413.567 355.274 416.506 360.225 425.08C365.175 433.655 362.241 444.615 353.669 449.564L264.996 500.771Z" fill="#EAEDFC"/>
<path d="M720.236 60.5103L662.054 94.1018C653.482 99.0507 642.523 96.1121 637.572 87.5375C632.622 78.9629 635.556 68.0026 644.128 63.0538L702.31 29.4623C710.882 24.5135 721.841 27.452 726.792 36.0266C731.747 44.6096 728.807 55.5615 720.236 60.5103Z" fill="#EAEDFC"/>
<path d="M624.218 382.071L498.132 454.867C489.56 459.816 478.601 456.878 473.65 448.303C468.7 439.729 471.635 428.768 480.206 423.82L606.293 351.023C614.865 346.074 625.824 349.013 630.774 357.587C635.725 366.162 632.79 377.122 624.218 382.071Z" fill="#EAEDFC"/>
<path d="M595.553 132.496L525.524 172.927C516.953 177.875 505.993 174.937 501.043 166.362C496.092 157.788 499.027 146.827 507.599 141.879L577.627 101.448C586.199 96.4988 597.158 99.4373 602.109 108.012C607.056 116.6 604.124 127.547 595.553 132.496Z" fill="#EAEDFC"/>
<path d="M870.918 239.639L690.727 343.672C682.156 348.621 671.196 345.683 666.246 337.108C661.295 328.533 664.23 317.573 672.802 312.624L852.992 208.591C861.564 203.643 872.523 206.581 877.474 215.156C882.424 223.73 879.49 234.69 870.918 239.639Z" fill="#EAEDFC"/>
<path d="M797.059 193.573L698.514 250.467C689.943 255.416 678.984 252.478 674.033 243.903C669.083 235.328 672.017 224.368 680.589 219.419L779.133 162.525C787.705 157.576 798.664 160.514 803.615 169.089C808.565 177.664 805.63 188.624 797.059 193.573Z" fill="#EAEDFC"/>
<path d="M632.016 288.861L613.722 299.423C605.15 304.372 594.191 301.433 589.24 292.859C584.29 284.284 587.224 273.324 595.796 268.375L614.09 257.813C622.662 252.864 633.621 255.803 638.572 264.377C643.514 272.957 640.579 283.917 632.016 288.861Z" fill="#EAEDFC"/>
<path d="M669.978 178.235L492.622 280.631C484.05 285.58 473.091 282.642 468.141 274.067C463.19 265.493 466.125 254.532 474.696 249.583L652.052 147.187C660.624 142.238 671.583 145.177 676.534 153.751C681.484 162.326 678.55 173.286 669.978 178.235Z" fill="#EAEDFC"/>
<path d="M547.218 337.83L547.209 337.835L531.026 347.167C522.454 352.116 511.49 349.169 506.548 340.59C501.597 332.015 504.537 321.063 513.109 316.115L513.117 316.11L529.301 306.777C537.872 301.829 548.836 304.776 553.778 313.355C558.734 321.938 555.789 332.881 547.218 337.83Z" fill="#EAEDFC"/>
<path d="M873.882 326.635L758.346 393.339C749.775 398.288 738.816 395.35 733.865 386.775C728.915 378.201 731.849 367.24 740.421 362.292L855.965 295.582C864.536 290.634 875.496 293.572 880.446 302.147C885.388 310.726 882.453 321.686 873.882 326.635Z" fill="#EAEDFC"/>
<path d="M691.84 431.738L607.858 480.225C599.286 485.174 588.327 482.235 583.377 473.661C578.426 465.086 581.361 454.126 589.933 449.177L673.915 400.69C682.486 395.741 693.445 398.68 698.396 407.254C703.338 415.834 700.412 426.789 691.84 431.738Z" fill="#EAEDFC"/>
<path d="M845.786 431.565L757.108 482.763C748.537 487.712 737.577 484.773 732.627 476.199C727.676 467.624 730.611 456.664 739.183 451.715L827.861 400.517C836.432 395.568 847.392 398.506 852.342 407.081C857.293 415.656 854.358 426.616 845.786 431.565Z" fill="#EAEDFC"/>
<path d="M1190.59 587.312L1167.87 600.429C1159.3 605.378 1148.34 602.439 1143.39 593.865C1138.44 585.29 1141.38 574.33 1149.95 569.381L1172.67 556.264C1181.24 551.315 1192.2 554.254 1197.15 562.828C1202.09 571.408 1199.16 582.368 1190.59 587.312Z" fill="#EAEDFC"/>
<path d="M1238.74 470.809L1035.79 587.979C1027.22 592.927 1016.26 589.989 1011.31 581.414C1006.36 572.84 1009.29 561.88 1017.87 556.931L1220.81 439.761C1229.38 434.812 1240.34 437.751 1245.29 446.325C1250.25 454.908 1247.31 465.86 1238.74 470.809Z" fill="#EAEDFC"/>
<path d="M1139.59 439.339L1055.6 487.831C1047.03 492.78 1036.07 489.841 1031.12 481.267C1026.17 472.692 1029.11 461.732 1037.68 456.783L1121.67 408.292C1130.24 403.343 1141.2 406.281 1146.15 414.856C1151.1 423.43 1148.17 434.391 1139.59 439.339Z" fill="#EAEDFC"/>
<path d="M1172.36 331.726L1083.68 382.925C1075.11 387.874 1064.15 384.935 1059.2 376.36C1054.25 367.786 1057.19 356.825 1065.76 351.877L1154.43 300.678C1163.01 295.73 1173.97 298.668 1178.92 307.243C1183.86 315.822 1180.93 326.778 1172.36 331.726Z" fill="#EAEDFC"/>
<path d="M295.085 572.096L272.366 585.213C263.794 590.162 252.835 587.223 247.885 578.649C242.934 570.074 245.869 559.114 254.441 554.165L277.16 541.048C285.732 536.099 296.691 539.037 301.641 547.612C306.592 556.187 303.657 567.147 295.085 572.096Z" fill="#EAEDFC"/>
<path d="M1077.31 297.893L912.261 393.186C903.689 398.135 892.73 395.196 887.779 386.622C882.829 378.047 885.763 367.087 894.335 362.138L1059.39 266.845C1067.96 261.896 1078.92 264.834 1083.87 273.409C1088.82 281.984 1085.88 292.944 1077.31 297.893Z" fill="#EAEDFC"/>
<path d="M940.661 21.9664L736.456 139.864C727.884 144.813 716.925 141.874 711.974 133.3C707.024 124.725 709.959 113.765 718.53 108.816L922.735 -9.08153C931.307 -14.0304 942.266 -11.0919 947.216 -2.51729C952.167 6.05728 949.224 17.0225 940.661 21.9664Z" fill="#EAEDFC"/>
<path d="M969.373 626.315C967.257 627.536 965.028 628.326 962.759 628.655C960.435 628.89 958.048 628.801 955.734 628.174C951.143 627.021 947.295 623.972 944.905 619.833C944.319 618.817 943.83 617.756 943.422 616.638C943.021 615.515 942.812 614.293 942.643 613.16C942.488 612.031 942.412 610.844 942.475 609.702C942.554 608.55 942.723 607.358 943.034 606.196C943.337 605.04 943.808 603.921 944.306 602.889C944.818 601.86 945.463 600.867 946.17 599.962C946.879 599.079 947.679 598.12 948.578 597.352C950.293 595.866 952.417 594.64 954.561 593.898C955.684 593.498 956.906 593.289 958.033 593.112C959.162 592.957 960.353 592.89 961.5 592.962C962.652 593.042 963.839 593.203 965 593.514C966.162 593.825 967.275 594.288 968.308 594.787C969.342 595.308 970.335 595.953 971.235 596.652C972.123 597.37 973.077 598.162 973.85 599.07C974.614 599.983 975.297 600.932 975.883 601.948C978.273 606.087 978.848 610.913 977.599 615.55C976.473 620.127 973.426 623.975 969.373 626.315Z" fill="#EAEDFC"/>
<path d="M1431.33 359.614L1305.24 432.41C1296.67 437.359 1285.71 434.421 1280.76 425.846C1275.81 417.271 1278.75 406.311 1287.32 401.362L1413.4 328.566C1421.98 323.617 1432.94 326.556 1437.89 335.13C1442.84 343.713 1439.9 354.665 1431.33 359.614Z" fill="#EAEDFC"/>
<path d="M1327.12 508.487L1257.09 548.923C1248.52 553.872 1237.56 550.933 1232.61 542.359C1227.65 533.784 1230.59 522.824 1239.16 517.875L1309.2 477.439C1317.77 472.491 1328.73 475.429 1333.68 484.004C1338.63 492.578 1335.7 503.538 1327.12 508.487Z" fill="#EAEDFC"/>
<path d="M1321.61 334.251L1206.09 400.951C1197.52 405.9 1186.56 402.961 1181.61 394.387C1176.65 385.812 1179.59 374.852 1188.16 369.903L1303.7 303.198C1312.27 298.25 1323.23 301.188 1328.18 309.763C1333.13 318.337 1330.19 329.303 1321.61 334.251Z" fill="#EAEDFC"/>
<path d="M1365.89 219.989L1238.86 293.333C1230.29 298.281 1219.33 295.343 1214.38 286.768C1209.43 278.194 1212.36 267.233 1220.93 262.284L1347.97 188.941C1356.54 183.992 1367.5 186.931 1372.45 195.505C1377.4 204.08 1374.47 215.04 1365.89 219.989Z" fill="#EAEDFC"/>
<path d="M1139.59 439.339L1055.6 487.831C1047.03 492.78 1036.07 489.841 1031.12 481.267C1026.17 472.692 1029.11 461.732 1037.68 456.783L1121.67 408.292C1130.24 403.343 1141.2 406.281 1146.15 414.856C1151.1 423.43 1148.17 434.391 1139.59 439.339Z" fill="#EAEDFC"/>
<path d="M1519.72 397.301L1393.64 470.097C1385.06 475.046 1374.1 472.107 1369.15 463.533C1364.2 454.958 1367.14 443.998 1375.71 439.049L1501.8 366.253C1510.37 361.304 1521.33 364.243 1526.28 372.817C1531.23 381.392 1528.29 392.352 1519.72 397.301Z" fill="#EAEDFC"/>
<path d="M1682.22 37.356L1435.52 179.788C1426.95 184.737 1415.99 181.798 1411.04 173.223C1406.09 164.649 1409.03 153.689 1417.6 148.74L1664.3 6.30795C1672.87 1.3591 1683.83 4.29764 1688.78 12.8722C1693.72 21.4517 1690.8 32.4071 1682.22 37.356Z" fill="#EAEDFC"/>
<path d="M1565.5 193.468L1388.14 295.864C1379.57 300.813 1368.61 297.875 1363.66 289.3C1358.71 280.726 1361.64 269.765 1370.21 264.817L1547.57 162.42C1556.14 157.471 1567.1 160.41 1572.05 168.984C1576.99 177.564 1574.06 188.524 1565.5 193.468Z" fill="#EAEDFC"/>
<path d="M1096.65 109.3L1026.61 149.736C1018.04 154.685 1007.08 151.746 1002.13 143.172C997.182 134.597 1000.12 123.637 1008.69 118.688L1078.73 78.252C1087.3 73.3031 1098.26 76.2417 1103.21 84.8163C1108.16 93.3909 1105.22 104.351 1096.65 109.3Z" fill="#EAEDFC"/>
<path d="M931.446 -61.4325L786.71 22.1311C778.138 27.0799 767.179 24.1413 762.228 15.5667C757.278 6.99211 760.213 -3.96813 768.784 -8.91697L913.521 -92.4805C922.092 -97.4294 933.051 -94.4908 938.002 -85.9162C942.957 -77.3332 940.018 -66.3813 931.446 -61.4325Z" fill="#EAEDFC"/>
<path d="M1162.1 248.942L1143.81 259.504C1135.23 264.452 1124.27 261.514 1119.32 252.939C1114.37 244.365 1117.31 233.404 1125.88 228.456L1144.17 217.893C1152.75 212.945 1163.71 215.883 1168.66 224.458C1173.61 233.032 1170.67 243.993 1162.1 248.942Z" fill="#EAEDFC"/>
<path d="M1206.38 134.671L1029.03 237.062C1020.46 242.011 1009.5 239.073 1004.55 230.498C999.596 221.924 1002.53 210.964 1011.1 206.015L1188.45 103.623C1197.02 98.6742 1207.98 101.613 1212.93 110.187C1217.88 118.762 1214.95 129.722 1206.38 134.671Z" fill="#EAEDFC"/>
<path d="M1353.3 138.553L1228.61 210.543C1220.04 215.492 1209.08 212.553 1204.13 203.979C1199.18 195.404 1202.11 184.444 1210.68 179.495L1335.37 107.505C1343.95 102.556 1354.9 105.494 1359.85 114.069C1364.81 122.643 1361.87 133.604 1353.3 138.553Z" fill="#EAEDFC"/>
<path d="M962.519 275.461L940.358 288.256C931.787 293.205 920.827 290.266 915.877 281.692C910.926 273.117 913.861 262.157 922.433 257.208L944.594 244.413C953.165 239.465 964.125 242.403 969.075 250.978C974.026 259.552 971.091 270.512 962.519 275.461Z" fill="#EAEDFC"/>
<path d="M1129.56 1.6035L1085.21 27.2075C1076.64 32.1563 1065.68 29.2178 1060.73 20.6432C1055.78 12.0687 1058.71 1.10838 1067.29 -3.84046L1111.63 -29.4444C1120.21 -34.3933 1131.16 -31.4547 1136.11 -22.8801C1141.07 -14.3055 1138.13 -3.34533 1129.56 1.6035Z" fill="#EAEDFC"/>
<path d="M863.556 155.135C861.449 156.352 859.212 157.147 856.942 157.476C854.619 157.711 852.232 157.622 849.918 156.994C845.326 155.842 841.478 152.793 839.089 148.653C838.502 147.638 838.014 146.577 837.605 145.458C837.205 144.335 836.996 143.113 836.827 141.98C836.671 140.851 836.595 139.665 836.658 138.522C836.738 137.37 836.907 136.178 837.218 135.017C837.52 133.86 837.991 132.742 838.49 131.709C839.001 130.68 839.646 129.687 840.354 128.782C841.062 127.899 841.863 126.94 842.762 126.173C844.476 124.686 846.6 123.46 848.744 122.719C849.867 122.319 851.089 122.11 852.217 121.933C853.346 121.778 854.537 121.711 855.684 121.782C856.835 121.862 858.023 122.023 859.184 122.334C860.345 122.646 861.459 123.109 862.491 123.607C863.525 124.128 864.518 124.773 865.419 125.473C866.307 126.19 867.261 126.982 868.033 127.891C868.797 128.804 869.48 129.752 870.067 130.768C872.457 134.907 873.031 139.733 871.783 144.37C870.657 148.948 867.61 152.795 863.556 155.135Z" fill="#EAEDFC"/>
<path d="M930.039 116.808C921.467 121.757 910.508 118.818 905.558 110.244C900.607 101.669 903.542 90.709 912.113 85.7602L1000.79 34.5535C1009.36 29.6046 1020.32 32.5432 1025.27 41.1178C1030.22 49.6923 1027.28 60.6525 1018.71 65.6014L930.039 116.808Z" fill="#EAEDFC"/>
<path d="M1289.25 -1.88672L1163.16 70.9096C1154.59 75.8584 1143.63 72.9199 1138.68 64.3454C1133.73 55.7708 1136.67 44.8107 1145.24 39.8618L1271.33 -32.9344C1279.9 -37.8833 1290.86 -34.9448 1295.81 -26.3703C1300.76 -17.7957 1297.82 -6.83555 1289.25 -1.88672Z" fill="#EAEDFC"/>
<path d="M1538.93 -57.3275L1423.38 9.38172C1414.81 14.3306 1403.85 11.3921 1398.9 2.81754C1393.95 -5.757 1396.88 -16.7172 1405.46 -21.666L1521 -88.3752C1529.57 -93.324 1540.53 -90.3855 1545.48 -81.811C1550.42 -73.2316 1547.49 -62.2714 1538.93 -57.3275Z" fill="#EAEDFC"/>
<path d="M1356.87 47.7803L1272.89 96.2672C1264.32 101.216 1253.36 98.2775 1248.41 89.703C1243.46 81.1284 1246.39 70.1683 1254.97 65.2194L1338.95 16.7325C1347.52 11.7837 1358.48 14.7222 1363.43 23.2967C1368.38 31.8713 1365.44 42.8314 1356.87 47.7803Z" fill="#EAEDFC"/>
<path d="M1510.83 47.6025L1422.15 98.8007C1413.58 103.75 1402.62 100.811 1397.67 92.2364C1392.72 83.6618 1395.65 72.7016 1404.22 67.7528L1492.9 16.5546C1501.47 11.6057 1512.43 14.5442 1517.38 23.1187C1522.33 31.6933 1519.4 42.6537 1510.83 47.6025Z" fill="#EAEDFC"/>
<path d="M960.126 188.133L937.407 201.25C928.835 206.199 917.876 203.261 912.926 194.686C907.975 186.111 910.91 175.151 919.482 170.202L942.201 157.085C950.773 152.137 961.732 155.075 966.682 163.65C971.633 172.224 968.69 183.189 960.126 188.133Z" fill="#EAEDFC"/>
</g>
</mask>
<g mask="url(#mask0)">
<rect y="-327.116" width="1440" height="2336" fill="url(#paint0_linear)"/>
</g>
<defs>
<linearGradient id="paint0_linear" x1="1314" y1="229" x2="43.5" y2="1003" gradientUnits="userSpaceOnUse">
<stop stop-color="#FFEEF7"/>
<stop offset="1" stop-color="#FFEEF7" stop-opacity="0"/>
</linearGradient>
<clipPath id="clip0">
<rect width="2518.77" height="2263.73" fill="white" transform="translate(-680 -946.616) rotate(-30)"/>
</clipPath>
</defs>
</svg>
