<svg id="map" width="680" height="344" viewBox="0 0 680 344" fill="none" xmlns="http://www.w3.org/2000/svg">
<path class="c-map__point" d="M330 74C330 62.9688 321.025 54 310 54C298.975 54 290 62.9688 290 74C290 85.0312 298.969 94 310 94C321.031 94 330 85.0312 330 74Z"/>
<path d="M313.94 74C313.94 71.795 312.145 70 309.94 70C307.735 70 305.94 71.795 305.94 74C305.94 76.205 307.735 78 309.94 78C312.145 78 313.94 76.205 313.94 74Z" fill="#353F80"/>
<path class="c-map__point" d="M141 121C141 109.969 132.025 101 121 101C109.975 101 101 109.969 101 121C101 132.031 109.969 141 121 141C132.031 141 141 132.031 141 121Z"/>
<path d="M124.94 121C124.94 118.795 123.145 117 120.94 117C118.735 117 116.94 118.795 116.94 121C116.94 123.205 118.735 125 120.94 125C123.145 125 124.94 123.205 124.94 121Z" fill="#353F80"/>
</svg>
