<svg width="23" height="15" viewBox="0 0 23 15" fill="none" xmlns="http://www.w3.org/2000/svg">
<g clip-path="url(#clip0)">
<path d="M12.9518 4.01128L3.29897 9.46312C2.2472 10.058 0.899882 9.70533 0.295762 8.677C-0.308357 7.64868 0.0480297 6.3314 1.09981 5.7365L10.7527 0.288903C11.8045 -0.305997 13.1518 0.0466937 13.7559 1.07502C14.36 2.10335 14.0036 3.42063 12.9518 4.01128Z" fill="#EAEDFC"/>
<path d="M11.4999 15C12.7145 15 13.6991 14.0373 13.6991 12.8498C13.6991 11.6624 12.7145 10.6997 11.4999 10.6997C10.2854 10.6997 9.30078 11.6624 9.30078 12.8498C9.30078 14.0373 10.2854 15 11.4999 15Z" fill="#EAEDFC"/>
<path d="M21.8964 9.46319L18.3195 11.4816C17.2677 12.0765 15.9204 11.7238 15.3163 10.6955C14.7122 9.66715 15.0685 8.34987 16.1203 7.75922L19.6972 5.74081C20.749 5.14591 22.0963 5.4986 22.7004 6.52693C23.3089 7.55101 22.9482 8.86829 21.8964 9.46319Z" fill="#EAEDFC"/>
</g>
<defs>
<clipPath id="clip0">
<rect width="23" height="15" fill="white"/>
</clipPath>
</defs>
</svg>
