<svg width="3506" height="1412" viewBox="0 0 3506 1412" fill="none" xmlns="http://www.w3.org/2000/svg">
<g clip-path="url(#clip0)">
<path fill-rule="evenodd" clip-rule="evenodd" d="M1284.55 156.377C1291.19 155.215 1297.74 152.892 1303.92 149.323L1370.74 110.737C1399.11 94.3486 1408.82 58.0446 1392.44 29.6652C1376.05 1.28574 1339.76 -8.423 1311.43 7.96569L1244.61 46.5517C1216.24 62.9404 1206.53 99.203 1222.92 127.582C1235.69 149.821 1260.66 160.567 1284.55 156.377ZM2745.88 138.619C2774.25 122.23 2783.96 85.9675 2767.57 57.5881C2751.19 29.2087 2714.94 19.5 2686.61 35.8887C2658.24 52.2774 2648.53 88.5399 2664.92 116.878C2681.26 145.299 2717.51 155.007 2745.88 138.619ZM3090.6 213.633C3084.42 217.202 3077.87 219.525 3071.23 220.687C3047.38 224.919 3022.37 214.131 3009.55 191.934C2993.17 163.555 3002.88 127.25 3031.25 110.862L3098.07 72.2757C3126.44 55.9285 3162.73 65.6373 3179.11 94.0167C3195.5 122.396 3185.79 158.659 3157.42 175.047L3090.6 213.633ZM1994.81 298.357C1988.67 301.925 1982.12 304.249 1975.48 305.41C1951.63 309.642 1926.62 298.855 1913.81 276.699C1897.42 248.32 1907.13 212.015 1935.5 195.627L2038.24 136.296C2066.61 119.907 2102.86 129.616 2119.24 157.995C2135.63 186.374 2125.92 222.637 2097.55 239.026L2005.1 292.424L1994.81 298.357ZM721 211.932C714.82 215.5 708.267 217.824 701.63 218.986C677.781 223.176 652.77 212.389 639.995 190.233C623.612 161.853 633.317 125.549 661.688 109.161L728.508 70.5746C756.837 54.1859 793.129 63.8946 809.513 92.274C825.897 120.653 816.191 156.958 787.82 173.346L721 211.932ZM405.151 51.7795C421.534 80.1174 411.828 116.38 383.458 132.769C355.087 149.157 318.836 139.407 302.494 111.028C286.111 82.6898 295.816 46.4272 324.187 30.0385C352.516 13.6498 388.767 23.4416 405.151 51.7795ZM2328.95 1106.59C2322.32 1107.75 2315.76 1110.07 2309.62 1113.64L2299.34 1119.58L2206.88 1172.97C2178.51 1189.36 2168.81 1225.67 2185.19 1254.05C2201.57 1282.42 2237.83 1292.13 2266.2 1275.74L2368.94 1216.41C2397.31 1200.03 2407.01 1163.76 2390.63 1135.38C2377.81 1113.14 2352.84 1102.4 2328.95 1106.59ZM702.792 1219.48C708.972 1215.92 715.525 1213.59 722.162 1212.43C746.011 1208.2 771.022 1218.99 783.839 1241.22C800.222 1269.6 790.516 1305.87 762.146 1322.26L721.996 1345.45L659.407 1381.59C631.036 1397.98 594.743 1388.27 578.36 1359.89C561.976 1331.47 571.682 1295.2 600.053 1278.82L702.792 1219.48ZM3019.92 1255.62C3013.29 1256.78 3006.73 1259.11 3000.55 1262.68L2933.73 1301.26C2905.36 1317.65 2895.66 1353.95 2912.04 1382.33C2928.42 1410.71 2964.72 1420.42 2993.09 1404.03L3059.91 1365.45C3088.28 1349.06 3097.98 1312.8 3081.6 1284.42C3068.78 1262.22 3043.77 1251.43 3019.92 1255.62ZM3389.82 447.764C3396.45 446.602 3403.01 444.279 3409.19 440.711L3505.37 1255C3477 1271.39 3198.11 1255.46 3181.73 1227.08C3165.34 1198.7 3175.05 1162.39 3203.42 1146.01L3238.14 1125.97L3288.65 1096.8C3317.02 1080.45 3326.73 1044.15 3310.35 1015.77C3297.53 993.528 3272.52 982.782 3248.67 986.973C3242.03 988.134 3235.48 990.458 3229.3 994.026L2684.25 1308.81C2655.88 1325.2 2619.58 1315.49 2603.2 1287.11C2586.82 1258.73 2596.52 1222.47 2624.89 1206.08L2729.62 1145.59C2757.99 1129.2 2767.7 1092.9 2751.32 1064.52C2738.5 1042.28 2713.49 1031.53 2689.64 1035.72C2683 1036.89 2676.45 1039.21 2670.27 1042.78L2530.28 1123.64C2501.91 1139.99 2465.66 1130.24 2449.28 1101.9C2432.89 1073.56 2442.6 1037.26 2470.97 1020.87L2544.8 978.218C2573.17 961.829 2582.88 925.525 2566.49 897.146C2553.68 874.907 2528.67 864.161 2504.82 868.352C2498.18 869.513 2491.63 871.837 2485.45 875.405L1788.83 1277.7C1760.46 1294.04 1724.21 1284.33 1707.83 1255.95C1691.45 1227.58 1701.15 1191.31 1729.52 1174.92L1800.12 1134.14C1828.49 1117.75 1838.19 1081.49 1821.81 1053.11C1808.99 1030.87 1783.98 1020.12 1760.13 1024.31C1753.5 1025.48 1746.94 1027.8 1740.76 1031.37L1505.38 1167.29C1477.01 1183.64 1440.76 1173.93 1424.37 1145.55C1407.99 1117.17 1417.74 1080.91 1446.07 1064.52L1532.5 1014.61C1560.87 998.216 1570.58 961.912 1554.2 933.533C1541.38 911.294 1516.37 900.548 1492.52 904.739C1485.88 905.9 1479.33 908.224 1473.15 911.792L928.802 1226.16C900.431 1242.51 864.18 1232.8 847.797 1204.42C831.413 1176.04 841.119 1139.74 869.489 1123.35L904.206 1103.31L954.725 1074.14C983.096 1057.76 992.801 1021.49 976.418 993.113C963.601 970.874 938.59 960.128 914.741 964.319C908.105 965.481 901.551 967.804 895.371 971.372L493.995 1203.18C465.666 1219.57 429.373 1209.86 412.99 1181.48C396.606 1153.14 406.312 1116.84 434.682 1100.45L503.493 1060.7C531.864 1044.31 541.569 1008.01 525.186 979.629C512.369 957.39 487.359 946.644 463.509 950.834C456.873 951.996 450.319 954.32 444.139 957.888L160.434 1121.73C132.064 1138.08 72.7512 1035.35 101.122 1018.96L139.032 997.055C167.402 980.666 177.108 944.362 160.725 915.983C147.908 893.744 122.897 882.998 99.0479 887.188C92.4115 888.35 0 196.706 0 196.706C28.3705 180.317 210.829 126.172 227.171 154.51C243.555 182.848 233.849 219.152 205.479 235.541L134.884 276.326C106.514 292.714 96.8081 328.977 113.192 357.356C126.008 379.595 151.019 390.341 174.868 386.151C181.505 384.989 188.058 382.665 194.238 379.097L429.581 243.092C457.951 226.745 494.202 236.453 510.586 264.833C526.969 293.212 517.222 329.475 488.893 345.864L438.374 375.031C410.003 391.42 400.298 427.724 416.681 456.103C429.498 478.342 454.509 489.088 478.358 484.898C484.994 483.736 491.548 481.413 497.728 477.844L1041.87 163.264C1070.24 146.917 1106.49 156.626 1122.87 185.005C1139.26 213.385 1129.55 249.689 1101.18 266.078L1066.46 286.117L1015.95 315.285C987.575 331.674 977.87 367.978 994.253 396.357C1007.07 418.596 1032.08 429.342 1055.93 425.152C1062.57 423.99 1069.12 421.666 1075.3 418.098L1620.35 103.311C1648.68 86.9222 1684.97 96.631 1701.36 125.01C1717.74 153.348 1708.04 189.652 1679.67 206.041L1574.94 266.534C1546.57 282.881 1536.86 319.185 1553.24 347.565C1566.06 369.803 1591.07 380.549 1614.92 376.359C1621.56 375.197 1628.11 372.874 1634.29 369.306L1774.28 288.441C1802.65 272.094 1838.9 281.802 1855.28 310.182C1871.66 338.561 1861.96 374.824 1833.59 391.213L1759.76 433.865C1731.39 450.253 1721.68 486.516 1738.07 514.895C1750.88 537.134 1775.89 547.88 1799.74 543.69C1806.38 542.528 1812.93 540.204 1819.11 536.636L2515.72 134.346C2544.09 117.998 2580.35 127.707 2596.73 156.087C2613.11 184.466 2603.41 220.729 2575.04 237.117L2504.44 277.902C2476.07 294.291 2466.37 330.554 2482.75 358.933C2495.57 381.172 2520.58 391.918 2544.43 387.727C2551.06 386.566 2557.62 384.242 2563.8 380.674L2799.18 244.752C2827.55 228.404 2863.8 238.113 2880.19 266.492C2896.57 294.872 2886.82 331.134 2858.49 347.523L2772.05 397.436C2743.68 413.825 2733.98 450.129 2750.36 478.508C2763.18 500.747 2788.19 511.493 2812.04 507.303C2818.67 506.141 2825.23 503.817 2831.41 500.249L3375.76 185.877C3404.13 169.53 3440.38 179.238 3456.76 207.618C3473.15 235.997 3463.44 272.301 3435.07 288.69L3400.35 308.73L3349.83 337.897C3321.5 354.286 3311.76 390.59 3328.14 418.97C3340.96 441.208 3365.97 451.954 3389.82 447.764ZM3173.35 439.881L3070.57 499.253C3042.2 515.642 3032.49 551.946 3048.87 580.284C3061.69 602.523 3086.7 613.269 3110.55 609.078C3117.19 607.917 3123.74 605.593 3129.92 602.025L3232.66 542.694C3261.03 526.305 3270.74 490.001 3254.35 461.622C3237.97 433.242 3201.72 423.533 3173.35 439.881ZM2387.6 413.991C2371.26 385.653 2335.01 375.903 2306.64 392.291C2278.27 408.68 2268.56 444.943 2284.94 473.28C2301.29 501.618 2337.54 511.369 2365.91 494.98C2394.24 478.633 2403.98 442.37 2387.6 413.991ZM311.785 516.679C295.443 488.3 259.192 478.591 230.821 494.98C202.492 511.369 192.787 547.631 209.129 575.969C225.471 604.307 261.722 614.057 290.092 597.669C318.421 581.321 328.169 545.059 311.785 516.679Z" fill="url(#paint0_linear)"/>
</g>
<defs>
<linearGradient id="paint0_linear" x1="1752.69" y1="95.3452" x2="1752.69" y2="1316.78" gradientUnits="userSpaceOnUse">
<stop stop-color="#EAEDFC"/>
<stop offset="1" stop-color="#F9FAFE" stop-opacity="0"/>
</linearGradient>
<clipPath id="clip0">
<rect width="3505.37" height="1412" fill="white"/>
</clipPath>
</defs>
</svg>
