<svg width="16" height="15" viewBox="0 0 16 15" fill="none" xmlns="http://www.w3.org/2000/svg">
<path d="M8.49266 15.0005C6.48821 15.0005 4.60137 14.2205 3.18499 12.803C1.76861 11.3879 0.985352 9.50284 0.985352 7.50027C0.985352 7.22526 1.21057 7.00025 1.48584 7.00025C1.76111 7.00025 1.98633 7.22526 1.98633 7.50027C1.98633 9.23783 2.66198 10.8679 3.89318 12.0954C5.12438 13.323 6.75597 14.0005 8.49266 14.0005C10.2293 14.0005 11.8634 13.3255 13.0921 12.0954C14.3208 10.8654 14.999 9.23783 14.999 7.50027C14.999 5.76271 14.3233 4.13265 13.0921 2.9051C11.8609 1.67756 10.2318 1.00004 8.49266 1.00004C6.75346 1.00004 5.12188 1.67506 3.89318 2.9051C3.69799 3.10011 3.38018 3.10011 3.18499 2.9051C2.9898 2.7101 2.9898 2.39259 3.18499 2.19758C4.60387 0.780028 6.48821 0 8.49266 0C10.4971 0 12.3839 0.780028 13.8003 2.19758C15.2192 3.61513 16 5.4977 16 7.50027C16 9.50284 15.2192 11.3879 13.8003 12.803C12.3839 14.2205 10.4996 15.0005 8.49266 15.0005Z" fill="#A6B1DC"/>
<path d="M7.99267 8.00042C7.71741 8.00042 7.49219 7.77542 7.49219 7.50041V3.50026C7.49219 3.22525 7.71741 3.00024 7.99267 3.00024C8.26794 3.00024 8.49316 3.22525 8.49316 3.50026V7.50041C8.49316 7.77542 8.27044 8.00042 7.99267 8.00042Z" fill="#A6B1DC"/>
<path d="M10.2446 10.2504C10.117 10.2504 9.98934 10.2004 9.89175 10.1029L7.63956 7.8528C7.44437 7.6578 7.44437 7.34029 7.63956 7.14528C7.83475 6.95027 8.15256 6.95027 8.34775 7.14528L10.5999 9.39536C10.7951 9.59037 10.7951 9.90788 10.5999 10.1029C10.5023 10.2004 10.3747 10.2504 10.2446 10.2504Z" fill="#A6B1DC"/>
<path d="M0.24974 7.50031H2.72465C2.93235 7.50031 3.04997 7.2603 2.92234 7.09779L1.68614 5.50774C1.58604 5.38023 1.39085 5.38023 1.29075 5.50774L0.0545505 7.09779C-0.0755762 7.2603 0.0420383 7.50031 0.24974 7.50031Z" fill="#A6B1DC"/>
</svg>
