<?xml version="1.0" encoding="UTF-8" standalone="no"?>
<svg width="117px" height="72px" viewBox="0 0 117 72" version="1.1" xmlns="http://www.w3.org/2000/svg" xmlns:xlink="http://www.w3.org/1999/xlink">
    <!-- Generator: Sketch 3.7.2 (28276) - http://www.bohemiancoding.com/sketch -->
    <title>Group 7</title>
    <desc>Created with Sketch.</desc>
    <defs>
        <rect id="path-1" x="0" y="0" width="117" height="72"></rect>
        <mask id="mask-2" maskContentUnits="userSpaceOnUse" maskUnits="objectBoundingBox" x="0" y="0" width="117" height="72" fill="white">
            <use xlink:href="#path-1"></use>
        </mask>
    </defs>
    <g id="Page-1" stroke="none" stroke-width="1" fill="none" fill-rule="evenodd">
        <g id="Group-7">
            <use id="Rectangle-1955" stroke="#B8C0C9" mask="url(#mask-2)" stroke-width="4" fill="#FFFFFF" xlink:href="#path-1"></use>
            <polygon id="Combined-Shape" fill="#B8C0C9" points="0 72 117 72 117 66 0 66"></polygon>
            <polygon id="Combined-Shape" fill="#B8C0C9" points="0 61 117 61 117 55 0 55"></polygon>
            <polygon id="Combined-Shape" fill="#B8C0C9" points="0 50 117 50 117 44 0 44"></polygon>
            <path d="M0,0 L0,5.59541157 L0,11.191047 L0,16.7864585 L0,22.3820939 L0,27.9776174 L0,33.5731409 L0,38.9999771 L54.9960022,38.9999771 L117,38.9999771 L117,32.9999766 L54.9960022,32.9999771 L54.9960022,27.9776174 L117,27.9776174 L117,21.9999776 L54.9960022,21.9999776 L54.9960022,16.9999776 L117,16.9999776 L117,10.9999776 L54.9960022,10.9999776 L54.9960022,5.99997759 L117,5.99997759 L117,0 L0,0 Z M49.48282,4.13654669 L48.1727128,3.17971217 L49.7919777,3.17971217 L50.2923967,1.63165465 L50.7928158,3.17971217 L52.4120807,3.17971217 L51.1019735,4.13654669 L51.6023926,5.68460421 L50.2923967,4.72788161 L48.9822896,5.68460421 L49.48282,4.13654669 Z M40.3650617,4.13654669 L39.0549545,3.17971217 L40.6742194,3.17971217 L41.1746385,1.63165465 L41.6750576,3.17971217 L43.2943225,3.17971217 L41.9842153,4.13654669 L42.4846344,5.68460421 L41.1746385,4.72788161 L39.8645313,5.68460421 L40.3650617,4.13654669 Z M31.2473035,4.13654669 L29.9371963,3.17971217 L31.5564611,3.17971217 L32.0568802,1.63165465 L32.5572993,3.17971217 L34.1765642,3.17971217 L32.8665683,4.13654669 L33.3668761,5.68460421 L32.0568802,4.72788161 L30.746773,5.68460421 L31.2473035,4.13654669 Z M22.1295452,4.13654669 L20.819438,3.17971217 L22.4387029,3.17971217 L22.939122,1.63165465 L23.4395411,3.17971217 L25.0588059,3.17971217 L23.7486987,4.13654669 L24.2491178,5.68460421 L22.939122,4.72788161 L21.6290148,5.68460421 L22.1295452,4.13654669 Z M13.0117869,4.13654669 L11.7016797,3.17971217 L13.3209446,3.17971217 L13.8213637,1.63165465 L14.3217828,3.17971217 L15.9410477,3.17971217 L14.6310518,4.13654669 L15.1313596,5.68460421 L13.8213637,4.72788161 L12.5112565,5.68460421 L13.0117869,4.13654669 Z M3.89402867,4.13654669 L2.58392148,3.17971217 L4.20318636,3.17971217 L4.70360545,1.63165465 L5.20402454,3.17971217 L6.82328942,3.17971217 L5.51329356,4.13654669 L6.01360132,5.68460421 L4.70360545,4.72788161 L3.39349826,5.68460421 L3.89402867,4.13654669 Z M44.9239408,8.06460417 L43.6138336,7.10776965 L45.2330985,7.10776965 L45.7335176,5.55971213 L46.2339367,7.10776965 L47.8532016,7.10776965 L46.5432057,8.06460417 L47.0435135,9.6126617 L45.7335176,8.65593909 L44.4234104,9.6126617 L44.9239408,8.06460417 Z M35.8061826,8.06460417 L34.4960754,7.10776965 L36.1153403,7.10776965 L36.6157594,5.55971213 L37.1161784,7.10776965 L38.7354433,7.10776965 L37.4253361,8.06460417 L37.9257552,9.6126617 L36.6157594,8.65593909 L35.3057635,9.6126617 L35.8061826,8.06460417 Z M26.6884243,8.06460417 L25.3783171,7.10776965 L26.997582,7.10776965 L27.4980011,5.55971213 L27.9984202,7.10776965 L29.6176851,7.10776965 L28.3075779,8.06460417 L28.807997,9.6126617 L27.4980011,8.65593909 L26.1878939,9.6126617 L26.6884243,8.06460417 Z M17.5706661,8.06460417 L16.2605589,7.10776965 L17.8798238,7.10776965 L18.3802428,5.55971213 L18.8806619,7.10776965 L20.4999268,7.10776965 L19.1898196,8.06460417 L19.6902387,9.6126617 L18.3802428,8.65593909 L17.0701356,9.6126617 L17.5706661,8.06460417 Z M8.4529078,8.06460417 L7.14280061,7.10776965 L8.76206549,7.10776965 L9.26248458,5.55971213 L9.76290367,7.10776965 L11.3821686,7.10776965 L10.0721727,8.06460417 L10.5724804,9.6126617 L9.26248458,8.65593909 L7.95248871,9.6126617 L8.4529078,8.06460417 Z M49.48282,11.9926617 L48.1727128,11.0358271 L49.7919777,11.0358271 L50.2923967,9.48776961 L50.7928158,11.0358271 L52.4120807,11.0358271 L51.1019735,11.9926617 L51.6023926,13.5407192 L50.2923967,12.5839966 L48.9822896,13.5407192 L49.48282,11.9926617 Z M40.3650617,11.9926617 L39.0549545,11.0358271 L40.6742194,11.0358271 L41.1746385,9.48776961 L41.6750576,11.0358271 L43.2943225,11.0358271 L41.9842153,11.9926617 L42.4846344,13.5407192 L41.1746385,12.5839966 L39.8645313,13.5407192 L40.3650617,11.9926617 Z M31.2473035,11.9926617 L29.9371963,11.0358271 L31.5564611,11.0358271 L32.0568802,9.48776961 L32.5572993,11.0358271 L34.1765642,11.0358271 L32.8665683,11.9926617 L33.3668761,13.5407192 L32.0568802,12.5839966 L30.746773,13.5407192 L31.2473035,11.9926617 Z M22.1295452,11.9926617 L20.819438,11.0358271 L22.4387029,11.0358271 L22.939122,9.48776961 L23.4395411,11.0358271 L25.0588059,11.0358271 L23.7486987,11.9926617 L24.2491178,13.5407192 L22.939122,12.5839966 L21.6290148,13.5407192 L22.1295452,11.9926617 Z M13.0117869,11.9926617 L11.7016797,11.0358271 L13.3209446,11.0358271 L13.8213637,9.48776961 L14.3217828,11.0358271 L15.9410477,11.0358271 L14.6310518,11.9926617 L15.1313596,13.5407192 L13.8213637,12.5839966 L12.5112565,13.5407192 L13.0117869,11.9926617 Z M3.89402867,11.9926617 L2.58392148,11.0358271 L4.20318636,11.0358271 L4.70360545,9.48776961 L5.20402454,11.0358271 L6.82328942,11.0358271 L5.51329356,11.9926617 L6.01360132,13.5407192 L4.70360545,12.5839966 L3.39349826,13.5407192 L3.89402867,11.9926617 Z M44.9239408,15.898337 L43.6138336,14.9415025 L45.2330985,14.9415025 L45.7335176,13.393445 L46.2339367,14.9415025 L47.8532016,14.9415025 L46.5432057,15.898337 L47.0435135,17.4463946 L45.7335176,16.489672 L44.4234104,17.4463946 L44.9239408,15.898337 Z M35.8061826,15.898337 L34.4960754,14.9415025 L36.1153403,14.9415025 L36.6157594,13.393445 L37.1161784,14.9415025 L38.7354433,14.9415025 L37.4253361,15.898337 L37.9257552,17.4463946 L36.6157594,16.489672 L35.3057635,17.4463946 L35.8061826,15.898337 Z M26.6884243,15.898337 L25.3783171,14.9415025 L26.997582,14.9415025 L27.4980011,13.393445 L27.9984202,14.9415025 L29.6176851,14.9415025 L28.3075779,15.898337 L28.807997,17.4463946 L27.4980011,16.489672 L26.1878939,17.4463946 L26.6884243,15.898337 Z M17.5706661,15.898337 L16.2605589,14.9415025 L17.8798238,14.9415025 L18.3802428,13.393445 L18.8806619,14.9415025 L20.4999268,14.9415025 L19.1898196,15.898337 L19.6902387,17.4463946 L18.3802428,16.489672 L17.0701356,17.4463946 L17.5706661,15.898337 Z M8.4529078,15.898337 L7.14280061,14.9415025 L8.76206549,14.9415025 L9.26248458,13.393445 L9.76290367,14.9415025 L11.3821686,14.9415025 L10.0721727,15.898337 L10.5724804,17.4463946 L9.26248458,16.489672 L7.95248871,17.4463946 L8.4529078,15.898337 Z M49.48282,19.8263945 L48.1727128,18.86956 L49.7919777,18.86956 L50.2923967,17.3215025 L50.7928158,18.86956 L52.4120807,18.86956 L51.1019735,19.8263945 L51.6023926,21.374452 L50.2923967,20.4177294 L48.9822896,21.374452 L49.48282,19.8263945 Z M40.3650617,19.8263945 L39.0549545,18.86956 L40.6742194,18.86956 L41.1746385,17.3215025 L41.6750576,18.86956 L43.2943225,18.86956 L41.9842153,19.8263945 L42.4846344,21.374452 L41.1746385,20.4177294 L39.8645313,21.374452 L40.3650617,19.8263945 Z M31.2473035,19.8263945 L29.9371963,18.86956 L31.5564611,18.86956 L32.0568802,17.3215025 L32.5572993,18.86956 L34.1765642,18.86956 L32.8665683,19.8263945 L33.3668761,21.374452 L32.0568802,20.4177294 L30.746773,21.374452 L31.2473035,19.8263945 Z M22.1295452,19.8263945 L20.819438,18.86956 L22.4387029,18.86956 L22.939122,17.3215025 L23.4395411,18.86956 L25.0588059,18.86956 L23.7486987,19.8263945 L24.2491178,21.374452 L22.939122,20.4177294 L21.6290148,21.374452 L22.1295452,19.8263945 Z M13.0117869,19.8263945 L11.7016797,18.86956 L13.3209446,18.86956 L13.8213637,17.3215025 L14.3217828,18.86956 L15.9410477,18.86956 L14.6310518,19.8263945 L15.1313596,21.374452 L13.8213637,20.4177294 L12.5112565,21.374452 L13.0117869,19.8263945 Z M3.89402867,19.8263945 L2.58392148,18.86956 L4.20318636,18.86956 L4.70360545,17.3215025 L5.20402454,18.86956 L6.82328942,18.86956 L5.51329356,19.8263945 L6.01360132,21.374452 L4.70360545,20.4177294 L3.39349826,21.374452 L3.89402867,19.8263945 Z M44.9239408,23.731958 L43.6138336,22.7752354 L45.2330985,22.7752354 L45.7335176,21.227066 L46.2339367,22.7752354 L47.8532016,22.7752354 L46.5432057,23.731958 L47.0435135,25.2801274 L45.7335176,24.3232929 L44.4234104,25.2801274 L44.9239408,23.731958 Z M35.8061826,23.731958 L34.4960754,22.7752354 L36.1153403,22.7752354 L36.6157594,21.227066 L37.1161784,22.7752354 L38.7354433,22.7752354 L37.4253361,23.731958 L37.9257552,25.2801274 L36.6157594,24.3232929 L35.3057635,25.2801274 L35.8061826,23.731958 Z M26.6884243,23.731958 L25.3783171,22.7752354 L26.997582,22.7752354 L27.4980011,21.227066 L27.9984202,22.7752354 L29.6176851,22.7752354 L28.3075779,23.731958 L28.807997,25.2801274 L27.4980011,24.3232929 L26.1878939,25.2801274 L26.6884243,23.731958 Z M17.5706661,23.731958 L16.2605589,22.7752354 L17.8798238,22.7752354 L18.3802428,21.227066 L18.8806619,22.7752354 L20.4999268,22.7752354 L19.1898196,23.731958 L19.6902387,25.2801274 L18.3802428,24.3232929 L17.0701356,25.2801274 L17.5706661,23.731958 Z M8.4529078,23.731958 L7.14280061,22.7752354 L8.76206549,22.7752354 L9.26248458,21.227066 L9.76290367,22.7752354 L11.3821686,22.7752354 L10.0721727,23.731958 L10.5724804,25.2801274 L9.26248458,24.3232929 L7.95248871,25.2801274 L8.4529078,23.731958 Z M49.48282,27.6600155 L48.1727128,26.7032929 L49.7919777,26.7032929 L50.2923967,25.1551234 L50.7928158,26.7032929 L52.4120807,26.7032929 L51.1019735,27.6600155 L51.6023926,29.2081849 L50.2923967,28.2513504 L48.9822896,29.2081849 L49.48282,27.6600155 Z M40.3650617,27.6600155 L39.0549545,26.7032929 L40.6742194,26.7032929 L41.1746385,25.1551234 L41.6750576,26.7032929 L43.2943225,26.7032929 L41.9842153,27.6600155 L42.4846344,29.2081849 L41.1746385,28.2513504 L39.8645313,29.2081849 L40.3650617,27.6600155 Z M31.2473035,27.6600155 L29.9371963,26.7032929 L31.5564611,26.7032929 L32.0568802,25.1551234 L32.5572993,26.7032929 L34.1765642,26.7032929 L32.8665683,27.6600155 L33.3668761,29.2081849 L32.0568802,28.2513504 L30.746773,29.2081849 L31.2473035,27.6600155 Z M22.1295452,27.6600155 L20.819438,26.7032929 L22.4387029,26.7032929 L22.939122,25.1551234 L23.4395411,26.7032929 L25.0588059,26.7032929 L23.7486987,27.6600155 L24.2491178,29.2081849 L22.939122,28.2513504 L21.6290148,29.2081849 L22.1295452,27.6600155 Z M13.0117869,27.6600155 L11.7016797,26.7032929 L13.3209446,26.7032929 L13.8213637,25.1551234 L14.3217828,26.7032929 L15.9410477,26.7032929 L14.6310518,27.6600155 L15.1313596,29.2081849 L13.8213637,28.2513504 L12.5112565,29.2081849 L13.0117869,27.6600155 Z M3.89402867,27.6600155 L2.58392148,26.7032929 L4.20318636,26.7032929 L4.70360545,25.1551234 L5.20402454,26.7032929 L6.82328942,26.7032929 L5.51329356,27.6600155 L6.01360132,29.2081849 L4.70360545,28.2513504 L3.39349826,29.2081849 L3.89402867,27.6600155 Z M44.9239408,31.5658028 L43.6138336,30.6090802 L45.2330985,30.6090802 L45.7335176,29.0609107 L46.2339367,30.6090802 L47.8532016,30.6090802 L46.5432057,31.5658028 L47.0435135,33.1139722 L45.7335176,32.1571377 L44.4234104,33.1139722 L44.9239408,31.5658028 Z M35.8061826,31.5658028 L34.4960754,30.6090802 L36.1153403,30.6090802 L36.6157594,29.0609107 L37.1161784,30.6090802 L38.7354433,30.6090802 L37.4253361,31.5658028 L37.9257552,33.1139722 L36.6157594,32.1571377 L35.3057635,33.1139722 L35.8061826,31.5658028 Z M26.6884243,31.5658028 L25.3783171,30.6090802 L26.997582,30.6090802 L27.4980011,29.0609107 L27.9984202,30.6090802 L29.6176851,30.6090802 L28.3075779,31.5658028 L28.807997,33.1139722 L27.4980011,32.1571377 L26.1878939,33.1139722 L26.6884243,31.5658028 Z M17.5706661,31.5658028 L16.2605589,30.6090802 L17.8798238,30.6090802 L18.3802428,29.0609107 L18.8806619,30.6090802 L20.4999268,30.6090802 L19.1898196,31.5658028 L19.6902387,33.1139722 L18.3802428,32.1571377 L17.0701356,33.1139722 L17.5706661,31.5658028 Z M8.4529078,31.5658028 L7.14280061,30.6090802 L8.76206549,30.6090802 L9.26248458,29.0609107 L9.76290367,30.6090802 L11.3821686,30.6090802 L10.0721727,31.5658028 L10.5724804,33.1139722 L9.26248458,32.1571377 L7.95248871,33.1139722 L8.4529078,31.5658028 Z M49.48282,35.4938603 L48.1727128,34.5371377 L49.7919777,34.5371377 L50.2923967,32.9889682 L50.7928158,34.5371377 L52.4120807,34.5371377 L51.1019735,35.4938603 L51.6023926,37.0420297 L50.2923967,36.0851952 L48.9822896,37.0420297 L49.48282,35.4938603 Z M40.3650617,35.4938603 L39.0549545,34.5371377 L40.6742194,34.5371377 L41.1746385,32.9889682 L41.6750576,34.5371377 L43.2943225,34.5371377 L41.9842153,35.4938603 L42.4846344,37.0420297 L41.1746385,36.0851952 L39.8645313,37.0420297 L40.3650617,35.4938603 Z M31.2473035,35.4938603 L29.9371963,34.5371377 L31.5564611,34.5371377 L32.0568802,32.9889682 L32.5572993,34.5371377 L34.1765642,34.5371377 L32.8665683,35.4938603 L33.3668761,37.0420297 L32.0568802,36.0851952 L30.746773,37.0420297 L31.2473035,35.4938603 Z M22.1295452,35.4938603 L20.819438,34.5371377 L22.4387029,34.5371377 L22.939122,32.9889682 L23.4395411,34.5371377 L25.0588059,34.5371377 L23.7486987,35.4938603 L24.2491178,37.0420297 L22.939122,36.0851952 L21.6290148,37.0420297 L22.1295452,35.4938603 Z M13.0117869,35.4938603 L11.7016797,34.5371377 L13.3209446,34.5371377 L13.8213637,32.9889682 L14.3217828,34.5371377 L15.9410477,34.5371377 L14.6310518,35.4938603 L15.1313596,37.0420297 L13.8213637,36.0851952 L12.5112565,37.0420297 L13.0117869,35.4938603 Z M3.89402867,35.4938603 L2.58392148,34.5371377 L4.20318636,34.5371377 L4.70360545,32.9889682 L5.20402454,34.5371377 L6.82328942,34.5371377 L5.51329356,35.4938603 L6.01360132,37.0420297 L4.70360545,36.0851952 L3.39349826,37.0420297 L3.89402867,35.4938603 Z" id="Fill-4" fill="#B8C0C9"></path>
        </g>
    </g>
</svg>
