<svg width="15" height="20" viewBox="0 0 15 20" xmlns="http://www.w3.org/2000/svg"><title>firebase</title><g fill="none" fill-rule="evenodd"><path d="M9.668 7.23l-2.03 1.857-1.884-3.736.975-2.15c.246-.43.649-.43.896 0L9.668 7.23z" fill="#FFA000"/><path fill="#F57F17" d="M7.638 9.087l-7.586 6.94L5.754 5.351z"/><path d="M11.888 4.39c.363-.343.738-.226.833.26l1.975 11.284-6.546 3.858c-.229.125-.836.179-.836.179s-.553-.065-.764-.18L.05 16.026 11.888 4.39z" fill="#FFCA28"/><path d="M5.754 5.35L.052 16.028 2.592.423c.093-.486.374-.533.625-.104l2.537 5.032z" fill="#FFA000"/></g></svg>
