<svg xmlns="http://www.w3.org/2000/svg" width="250" height="250" viewBox="0 0 250 250"><g fill="#0070D3" fill-rule="evenodd"><path d="M43.75 25.52C33.413 25.52 25 33.934 25 44.27c0 10.338 8.413 18.75 18.75 18.75S62.5 54.609 62.5 44.27c0-10.337-8.413-18.75-18.75-18.75zm0 29.168c-5.742 0-10.417-4.671-10.417-10.417 0-5.746 4.675-10.417 10.417-10.417s10.417 4.671 10.417 10.417c0 5.746-4.675 10.416-10.417 10.416z"/><ellipse cx="208.333" cy="38.021" rx="4.167" ry="4.167"/><ellipse cx="191.667" cy="38.021" rx="4.167" ry="4.167"/><ellipse cx="216.667" cy="50.521" rx="4.167" ry="4.167"/><ellipse cx="200" cy="50.521" rx="4.167" ry="4.167"/><ellipse cx="175" cy="38.021" rx="4.167" ry="4.167"/><ellipse cx="183.333" cy="50.521" rx="4.167" ry="4.167"/><ellipse cx="158.333" cy="38.021" rx="4.167" ry="4.167"/><ellipse cx="166.667" cy="50.521" rx="4.167" ry="4.167"/><ellipse cx="141.667" cy="38.021" rx="4.167" ry="4.167"/><ellipse cx="150" cy="50.521" rx="4.167" ry="4.167"/><path d="M43.75 104.688c-10.337 0-18.75 8.412-18.75 18.75 0 10.337 8.413 18.75 18.75 18.75s18.75-8.413 18.75-18.75c0-10.338-8.413-18.75-18.75-18.75zm0 29.166c-5.742 0-10.417-4.67-10.417-10.417 0-5.745 4.675-10.416 10.417-10.416s10.417 4.67 10.417 10.416-4.675 10.417-10.417 10.417zm0 50c-10.337 0-18.75 8.413-18.75 18.75 0 10.338 8.413 18.75 18.75 18.75s18.75-8.412 18.75-18.75c0-10.337-8.413-18.75-18.75-18.75zm0 29.167c-5.742 0-10.417-4.671-10.417-10.417 0-5.746 4.675-10.417 10.417-10.417s10.417 4.671 10.417 10.417c0 5.746-4.675 10.417-10.417 10.417z"/><path d="M250 68.82v-49.1C249.989 9.123 241.4.533 230.8.52H19.2C8.6.533.011 9.123 0 19.72v49.097c0 6.12 2.93 11.516 7.404 15.033C2.93 87.37 0 92.77 0 98.888v49.095c0 6.121 2.93 11.517 7.404 15.034C2.93 166.537 0 171.937 0 178.054v49.096c.011 10.6 8.6 19.189 19.2 19.2h116.146c11.175 2.058 23.425 3.125 35.487 3.125 36.134 0 74.234-9.37 78.73-27.304.289-.577.438-1.213.437-1.858V104.688a4.088 4.088 0 0 0-.4-1.734c-1.446-6.1-6.867-11.237-14.842-15.354A19.225 19.225 0 0 0 250 68.82zM8.333 147.989v-49.1c.007-6 4.868-10.86 10.867-10.867h86.917c-7.538 4.046-12.654 9.037-14.05 14.933a4.104 4.104 0 0 0-.4 1.734v54.166H19.2c-5.999-.007-10.86-4.868-10.867-10.867zm94.275-25.571l.58.362a51.17 51.17 0 0 0 2.291 1.35c.23.125.45.254.68.375.97.521 1.978 1.03 3.028 1.517.167.079.346.154.513.229.92.42 1.867.825 2.842 1.22l.858.347a89.35 89.35 0 0 0 7.296 2.516l.983.292c1.2.35 2.417.692 3.663 1.017l.296.079c1.341.346 2.712.666 4.104.979l1.054.23c1.192.257 2.396.503 3.612.737l.725.141c1.43.267 2.875.513 4.338.746l1.046.163c1.212.187 2.433.362 3.666.525l1.013.133c1.492.188 2.992.363 4.504.52.304.034.613.06.917.088 1.27.125 2.55.238 3.829.342l1.158.092c1.53.112 3.067.212 4.604.291l.659.03c1.354.066 2.712.116 4.07.154l1.23.033a217.4 217.4 0 0 0 4.658.058c1.55 0 3.104-.025 4.658-.058l1.23-.033c1.358-.038 2.712-.088 4.07-.154l.659-.03c3.202-.168 6.4-.41 9.591-.725l.917-.087a193.01 193.01 0 0 0 4.504-.521l1.013-.133c1.229-.163 2.454-.338 3.666-.525.35-.055.7-.105 1.046-.163 1.45-.23 2.895-.478 4.338-.746l.725-.141c1.22-.234 2.425-.48 3.612-.738l1.054-.229c1.388-.313 2.763-.633 4.105-.98l.295-.078c1.246-.321 2.463-.663 3.663-1.017l.983-.292a105.29 105.29 0 0 0 3.563-1.141l.2-.067a93.7 93.7 0 0 0 4.391-1.654c.975-.396 1.921-.8 2.842-1.221.17-.08.346-.15.513-.23a60.357 60.357 0 0 0 3.029-1.516l.679-.375a48.096 48.096 0 0 0 2.292-1.35c.191-.12.391-.237.579-.362a38.667 38.667 0 0 0 2.454-1.725l.158-.109v20.784c-.118.48-.148.979-.087 1.47.058.305.1.605.1.913 0 .458-.13.925-.242 1.387a7.225 7.225 0 0 1-.833 2.021 10.754 10.754 0 0 1-1.696 2.242c-.154.167-.308.333-.475.5-8.821 8.533-34.85 16.242-67.583 16.242-32.713 0-58.73-7.7-67.567-16.23-.177-.177-.349-.36-.517-.545a10.404 10.404 0 0 1-1.687-2.242 7.12 7.12 0 0 1-.825-2.02c-.113-.45-.242-.905-.242-1.355 0-.296.037-.592.088-.883a4.154 4.154 0 0 0-.088-1.605V120.58l.158.109c.771.591 1.588 1.166 2.45 1.729zm138.463 61.3a10.754 10.754 0 0 1-2.18 3.183c-.153.167-.308.333-.474.5-8.821 8.533-34.85 16.242-67.584 16.242-32.712 0-58.729-7.7-67.566-16.23-.177-.177-.35-.36-.517-.545a10.404 10.404 0 0 1-1.688-2.242 7.12 7.12 0 0 1-.825-2.02c-.095-.392-.195-.788-.208-1.18v-.5c.017-.188.025-.375.054-.563.059-.358-.02-.708-.058-1.062L100 158.854v-.775c.167.13.362.25.537.375.988.73 2.007 1.417 3.055 2.058.76.475 1.533.929 2.316 1.363 8.692 4.738 20.642 8.158 33.854 10.23l.3.045a190.82 190.82 0 0 0 13.088 1.558c.946.08 1.887.163 2.842.23 2.187.15 4.376.27 6.566.358.734.029 1.467.062 2.204.083 2.03.059 4.055.1 6.076.1 2.016 0 4.041-.037 6.062-.096.742-.02 1.48-.054 2.22-.083 2.189-.087 4.375-.207 6.56-.358.937-.067 1.862-.146 2.795-.225 4.42-.37 8.825-.895 13.208-1.571l.192-.03c14.438-2.258 27.35-6.137 36.17-11.579a35.367 35.367 0 0 0 3.043-2.045c.187-.138.4-.267.583-.409v20.784c-.119.48-.148.979-.088 1.47.042.305.084.605.084.913 0 .458-.13.925-.242 1.387a7.25 7.25 0 0 1-.354 1.08zM19.2 238.02c-5.999-.007-10.86-4.868-10.867-10.867v-49.1c.007-5.998 4.868-10.86 10.867-10.867h72.467v57.292H92.9c.067.154.162.304.237.458.46.965 1.007 1.885 1.634 2.75a25.408 25.408 0 0 0 2.208 2.634 33.125 33.125 0 0 0 5.959 4.779c1.6 1.03 3.329 2.004 5.2 2.925H19.2v-.004zm222.467-18.775c-.034.129-.062.26-.084.391-1.704 10.388-30.541 21.509-70.75 21.509-12.829 0-24.479-1.138-34.483-3.017l.004-.033c-20.72-3.921-32.187-10.542-35.396-16.125l-.008-.017c-.146-.258-.25-.512-.362-.762a7.108 7.108 0 0 1-.505-1.555l-.033-24.02c.15.116.33.225.483.341.988.73 2.007 1.417 3.055 2.059.76.474 1.532.928 2.316 1.362 8.692 4.738 20.642 8.159 33.854 10.23l.3.045a190.82 190.82 0 0 0 13.088 1.559c.946.079 1.887.162 2.842.229 2.187.15 4.376.27 6.566.358.733.03 1.467.063 2.204.083 2.03.059 4.054.1 6.075.1 2.017 0 4.042-.037 6.063-.096.742-.02 1.479-.054 2.22-.083a222.64 222.64 0 0 0 6.559-.358c.938-.067 1.862-.146 2.796-.225 4.42-.37 8.825-.895 13.208-1.571l.192-.03c14.437-2.257 27.35-6.137 36.17-11.578a35.367 35.367 0 0 0 3.042-2.046c.188-.138.4-.267.584-.409v23.659zm0-112.996c0 10.57-30.296 22.396-70.834 22.396-40.541 0-70.833-11.825-70.833-22.396 0-.533.13-1.075.283-1.617a7.73 7.73 0 0 1 .725-1.654l.038-.075c1.387-2.316 4.183-4.808 8.487-7.212a67.9 67.9 0 0 1 2.896-1.488 65.654 65.654 0 0 1 3.613-1.575c4.841-1.929 10.675-3.642 17.241-5.041 2.09-.445 4.19-.846 6.296-1.2.571-.096 1.13-.196 1.708-.288 18.655-2.875 40.417-2.875 59.071 0 .588.092 1.154.196 1.734.292 2.093.35 4.178.747 6.254 1.191 20.312 4.325 33.32 11.755 33.32 18.667zm0-37.43c-.007 6-4.868 10.86-10.867 10.868h-19.292c-.241-.055-.508-.088-.75-.142-2.792-.604-5.6-1.13-8.42-1.58l-.838-.128a202.133 202.133 0 0 0-30.667-2.317c-10.329 0-20.82.787-30.658 2.317l-.858.129c-2.813.45-5.612.975-8.396 1.575-.246.054-.521.087-.767.141H19.2C13.202 79.68 8.34 74.82 8.333 68.821v-49.1C8.34 13.722 13.201 8.86 19.2 8.854h211.596c6 .005 10.864 4.867 10.87 10.867v49.1z"/></g></svg>
