<svg width="249" height="80" viewBox="0 0 249 80" xmlns="http://www.w3.org/2000/svg"><g fill="none" fill-rule="evenodd"><path d="M228.67 28.918l-8.12 7.43-7.534-14.945 3.899-8.596c.987-1.723 2.597-1.726 3.584 0l8.172 16.111z" fill="#FFA000"/><path fill="#F57F17" d="M220.55 36.349l-30.344 27.76 22.81-42.707z"/><path d="M237.552 17.56c1.45-1.37 2.95-.903 3.333 1.04l7.898 45.137L222.6 79.17c-.916.498-3.342.714-3.342.714s-2.215-.26-3.06-.721l-25.992-15.054 47.346-46.547z" fill="#FFCA28"/><path d="M213.016 21.402l-22.81 42.707 10.16-62.417c.374-1.944 1.5-2.132 2.504-.415l10.146 20.125z" fill="#FFA000"/><path d="M69.3 0H23.156L0 40l23.155 40H69.3l23.154-40L69.301 0zM46.799 69.224c-6.685 0-12.881-1.795-18.589-5.224l4.566-8c4.24 2.939 8.805 4.571 14.186 4.571 6.197 0 9.947-2.775 9.947-7.183 0-4.082-2.283-6.368-12.719-8.817-12.066-2.938-18.915-6.53-18.915-16.98 0-9.795 8.153-16.489 19.404-16.489 6.849 0 12.556 1.796 17.448 4.898l-4.729 8c-4.24-2.776-8.642-4.245-13.045-4.245-5.87 0-9.294 2.939-9.294 6.857 0 4.408 2.609 6.368 13.37 8.98 11.904 2.939 18.264 7.184 18.264 16.653.326 10.612-7.99 16.98-19.894 16.98z" fill="#3270B8"/></g></svg>
