<svg width="24" height="20" viewBox="0 0 24 20" xmlns="http://www.w3.org/2000/svg"><title>syncano</title><path d="M17.325 0H5.79L0 10l5.789 10h11.536l5.789-10-5.789-10zM11.7 17.306c-1.672 0-3.22-.449-4.648-1.306l1.142-2c1.06.735 2.201 1.143 3.546 1.143 1.55 0 2.487-.694 2.487-1.796 0-1.02-.57-1.592-3.18-2.204C8.031 10.408 6.32 9.51 6.32 6.898c0-2.449 2.038-4.122 4.85-4.122 1.713 0 3.14.448 4.362 1.224L14.35 6c-1.06-.694-2.16-1.061-3.26-1.061-1.468 0-2.325.734-2.325 1.714 0 1.102.653 1.592 3.343 2.245 2.976.735 4.566 1.796 4.566 4.163.081 2.653-1.998 4.245-4.973 4.245z" fill="#3270B8" fill-rule="evenodd"/></svg>
