<svg width="251" height="184" viewBox="0 0 251 184" fill="none" xmlns="http://www.w3.org/2000/svg">
<path d="M20.2997 41.6201C13.9497 45.2901 11.7697 53.4101 15.4397 59.7601C18.3097 64.7301 23.9097 67.1401 29.2497 66.2001C30.7297 65.94 32.1897 65.4201 33.5697 64.6201H33.5797L35.8897 63.2901L102.58 24.7901C108.93 21.1201 111.11 13.0001 107.44 6.65006C103.77 0.300057 95.6497 -1.87994 89.2997 1.79006L45.5997 27.0101L20.2997 41.6201Z" fill="url(#paint0_linear)"/>
<path d="M76.6396 118.48L7.63956 158.32C1.28956 161.99 -0.890441 170.11 2.77956 176.46C5.64956 181.43 11.2496 183.84 16.5896 182.9C18.0696 182.64 19.5396 182.12 20.9196 181.32L89.9096 141.49C96.2596 137.82 98.4396 129.7 94.7696 123.35C91.1096 116.99 82.9796 114.82 76.6396 118.48Z" fill="url(#paint1_linear)"/>
<path d="M150.4 68.05L136.39 76.14L127.4 81.33C121.05 85 118.88 93.12 122.54 99.47C125.41 104.44 131.01 106.85 136.35 105.91C137.83 105.65 139.3 105.13 140.68 104.33L163.68 91.05C170.03 87.38 172.21 79.26 168.54 72.91C164.88 66.56 156.75 64.39 150.4 68.05Z" fill="url(#paint2_linear)"/>
<path d="M159.969 39.1001C167.298 39.1001 173.239 33.1589 173.239 25.8301C173.239 18.5012 167.298 12.5601 159.969 12.5601C152.64 12.5601 146.699 18.5012 146.699 25.8301C146.699 33.1589 152.64 39.1001 159.969 39.1001Z" fill="url(#paint3_linear)"/>
<path d="M122.5 160.55H34.5C32.29 160.55 30.5 158.76 30.5 156.55V56.55L54.5 32.55H122.5C124.71 32.55 126.5 34.34 126.5 36.55V156.55C126.5 158.76 124.71 160.55 122.5 160.55Z" fill="white" stroke="url(#paint4_linear)" stroke-width="2" stroke-miterlimit="10" stroke-linecap="round" stroke-linejoin="round"/>
<path d="M51.59 56.55H30.5L54.5 32.55V53.64C54.5 55.25 53.2 56.55 51.59 56.55Z" fill="white" stroke="url(#paint5_linear)" stroke-width="2" stroke-miterlimit="10" stroke-linecap="round" stroke-linejoin="round"/>
<path d="M46.5 72.55H110.5" stroke="#353F80" stroke-width="2" stroke-miterlimit="10" stroke-linecap="round" stroke-linejoin="round"/>
<path d="M46.5 80.55H110.5" stroke="#353F80" stroke-width="2" stroke-miterlimit="10" stroke-linecap="round" stroke-linejoin="round"/>
<path d="M46.5 88.55H78.5" stroke="#353F80" stroke-width="2" stroke-miterlimit="10" stroke-linecap="round" stroke-linejoin="round"/>
<path d="M46.5 136.55H110.5" stroke="#353F80" stroke-width="2" stroke-miterlimit="10" stroke-linecap="round" stroke-linejoin="round"/>
<path d="M46.5 144.55H78.5" stroke="#353F80" stroke-width="2" stroke-miterlimit="10" stroke-linecap="round" stroke-linejoin="round"/>
<path d="M58.5 102.55H72.5" stroke="#353F80" stroke-width="2" stroke-miterlimit="10" stroke-linecap="round" stroke-linejoin="round"/>
<path d="M58.5 106.55H72.5" stroke="#353F80" stroke-width="2" stroke-miterlimit="10" stroke-linecap="round" stroke-linejoin="round"/>
<path d="M74.8193 52.6899L77.3693 60.5499" stroke="#353F80" stroke-width="2" stroke-miterlimit="10" stroke-linecap="round" stroke-linejoin="round"/>
<path d="M74.8193 52.6899L77.3693 60.5499" stroke="#353F80" stroke-width="2" stroke-miterlimit="10" stroke-linecap="round" stroke-linejoin="round"/>
<path d="M79.2998 51.23L81.8598 59.09" stroke="#353F80" stroke-width="2" stroke-miterlimit="10" stroke-linecap="round" stroke-linejoin="round"/>
<path d="M81.5297 52.3699L73.6797 54.9199" stroke="#353F80" stroke-width="2" stroke-miterlimit="10" stroke-linecap="round" stroke-linejoin="round"/>
<path d="M81.5297 52.3699L73.6797 54.9199" stroke="#353F80" stroke-width="2" stroke-miterlimit="10" stroke-linecap="round" stroke-linejoin="round"/>
<path d="M82.9896 56.8599L75.1396 59.4099" stroke="#353F80" stroke-width="2" stroke-miterlimit="10" stroke-linecap="round" stroke-linejoin="round"/>
<path d="M50.5 108.55C52.7091 108.55 54.5 106.759 54.5 104.55C54.5 102.341 52.7091 100.55 50.5 100.55C48.2909 100.55 46.5 102.341 46.5 104.55C46.5 106.759 48.2909 108.55 50.5 108.55Z" stroke="#353F80" stroke-width="2" stroke-miterlimit="10" stroke-linecap="round" stroke-linejoin="round"/>
<path d="M95.5 102.55H109.5" stroke="#353F80" stroke-width="2" stroke-miterlimit="10" stroke-linecap="round" stroke-linejoin="round"/>
<path d="M95.5 106.55H109.5" stroke="#353F80" stroke-width="2" stroke-miterlimit="10" stroke-linecap="round" stroke-linejoin="round"/>
<path d="M87.5 108.55C89.7091 108.55 91.5 106.759 91.5 104.55C91.5 102.341 89.7091 100.55 87.5 100.55C85.2909 100.55 83.5 102.341 83.5 104.55C83.5 106.759 85.2909 108.55 87.5 108.55Z" stroke="#353F80" stroke-width="2" stroke-miterlimit="10" stroke-linecap="round" stroke-linejoin="round"/>
<path d="M58.5 120.55H72.5" stroke="#353F80" stroke-width="2" stroke-miterlimit="10" stroke-linecap="round" stroke-linejoin="round"/>
<path d="M58.5 124.55H72.5" stroke="#353F80" stroke-width="2" stroke-miterlimit="10" stroke-linecap="round" stroke-linejoin="round"/>
<path d="M50.5 126.55C52.7091 126.55 54.5 124.759 54.5 122.55C54.5 120.341 52.7091 118.55 50.5 118.55C48.2909 118.55 46.5 120.341 46.5 122.55C46.5 124.759 48.2909 126.55 50.5 126.55Z" stroke="#353F80" stroke-width="2" stroke-miterlimit="10" stroke-linecap="round" stroke-linejoin="round"/>
<path d="M95.5 120.55H109.5" stroke="#353F80" stroke-width="2" stroke-miterlimit="10" stroke-linecap="round" stroke-linejoin="round"/>
<path d="M95.5 124.55H109.5" stroke="#353F80" stroke-width="2" stroke-miterlimit="10" stroke-linecap="round" stroke-linejoin="round"/>
<path d="M87.5 126.55C89.7091 126.55 91.5 124.759 91.5 122.55C91.5 120.341 89.7091 118.55 87.5 118.55C85.2909 118.55 83.5 120.341 83.5 122.55C83.5 124.759 85.2909 126.55 87.5 126.55Z" stroke="#353F80" stroke-width="2" stroke-miterlimit="10" stroke-linecap="round" stroke-linejoin="round"/>
<path d="M126.5 151.51H238.52C242.93 151.51 246.5 147.94 246.5 143.53C246.5 139.12 242.93 135.55 238.52 135.55H190.48C186.07 135.55 182.5 131.98 182.5 127.57V127.53C182.5 123.12 186.07 119.55 190.48 119.55H206.52C210.93 119.55 214.5 115.98 214.5 111.57V92.55" stroke="url(#paint6_linear)" stroke-width="2" stroke-miterlimit="10" stroke-linecap="round" stroke-linejoin="round"/>
<path d="M228.219 37.5C227.219 34.51 224.019 32.88 221.019 33.82C218.029 34.82 216.399 38.02 217.339 41.02L232.099 86.4C233.099 89.18 236.139 90.76 239.029 89.92C242.079 89.03 243.909 85.82 242.919 82.88C242.929 82.77 228.219 37.5 228.219 37.5Z" fill="#ECB32D"/>
<path d="M205.369 44.8999C204.369 41.9099 201.169 40.2799 198.169 41.2199C195.179 42.2199 193.549 45.4199 194.489 48.4199L209.249 93.7999C210.249 96.5799 213.289 98.1599 216.179 97.3199C219.229 96.4299 221.059 93.2199 220.069 90.2799C220.079 90.1799 205.369 44.8999 205.369 44.8999Z" fill="#63C1A0"/>
<path d="M246.82 75.0501C249.81 74.0501 251.44 70.8501 250.5 67.8501C249.5 64.8601 246.3 63.2301 243.3 64.1701L197.87 78.9801C195.09 79.9801 193.51 83.0201 194.35 85.9101C195.24 88.9601 198.45 90.7901 201.39 89.8001C201.49 89.8101 246.82 75.0501 246.82 75.0501Z" fill="#E01A59"/>
<path d="M207.32 87.92C210.26 86.97 214.1 85.71 218.19 84.4C217.24 81.46 215.98 77.62 214.67 73.53L203.8 77.05L207.32 87.92Z" fill="#331433"/>
<path d="M230.219 80.4601C234.319 79.1501 238.149 77.8901 241.089 76.9401C240.139 74.0001 238.879 70.1601 237.569 66.0701L226.699 69.5901L230.219 80.4601Z" fill="#D62027"/>
<path d="M239.359 52.2C242.349 51.2 243.979 48 243.039 45C242.039 42.01 238.839 40.38 235.839 41.32L190.459 56.08C187.679 57.08 186.099 60.12 186.939 63.01C187.829 66.06 191.039 67.89 193.979 66.9C194.079 66.91 239.359 52.2 239.359 52.2Z" fill="#89D3DF"/>
<path d="M199.91 65.0199C202.85 64.0699 206.69 62.8099 210.78 61.4999C209.47 57.3999 208.21 53.5699 207.26 50.6299L196.39 54.1499L199.91 65.0199Z" fill="#258B74"/>
<path d="M222.759 57.61C226.859 56.3 230.689 55.04 233.629 54.09C232.319 49.99 231.059 46.16 230.109 43.22L219.239 46.74L222.759 57.61Z" fill="#819C3C"/>
<path d="M141.5 154.55C144.814 154.55 147.5 153.207 147.5 151.55C147.5 149.893 144.814 148.55 141.5 148.55C138.186 148.55 135.5 149.893 135.5 151.55C135.5 153.207 138.186 154.55 141.5 154.55Z" fill="#A91572" stroke="#A91572" stroke-width="2" stroke-miterlimit="10" stroke-linecap="square" stroke-linejoin="round"/>
<path d="M179.5 154.55C182.814 154.55 185.5 153.207 185.5 151.55C185.5 149.893 182.814 148.55 179.5 148.55C176.186 148.55 173.5 149.893 173.5 151.55C173.5 153.207 176.186 154.55 179.5 154.55Z" fill="#A91572" stroke="#A91572" stroke-width="2" stroke-miterlimit="10" stroke-linecap="square" stroke-linejoin="round"/>
<path d="M218.5 138.55C221.814 138.55 224.5 137.207 224.5 135.55C224.5 133.893 221.814 132.55 218.5 132.55C215.186 132.55 212.5 133.893 212.5 135.55C212.5 137.207 215.186 138.55 218.5 138.55Z" fill="#B73A87" stroke="#B73A87" stroke-width="2" stroke-miterlimit="10" stroke-linecap="round" stroke-linejoin="round"/>
<defs>
<linearGradient id="paint0_linear" x1="61.8583" y1="2.07166" x2="61.1254" y2="55.5735" gradientUnits="userSpaceOnUse">
<stop stop-color="#EAEDFC"/>
<stop offset="1" stop-color="white"/>
</linearGradient>
<linearGradient id="paint1_linear" x1="48.605" y1="120.209" x2="48.9308" y2="176.561" gradientUnits="userSpaceOnUse">
<stop stop-color="#EAEDFC"/>
<stop offset="1" stop-color="white"/>
</linearGradient>
<linearGradient id="paint2_linear" x1="145.891" y1="65.3615" x2="145.239" y2="104.45" gradientUnits="userSpaceOnUse">
<stop stop-color="#EAEDFC"/>
<stop offset="1" stop-color="white"/>
</linearGradient>
<linearGradient id="paint3_linear" x1="160.324" y1="11.4827" x2="159.673" y2="37.5414" gradientUnits="userSpaceOnUse">
<stop stop-color="#EAEDFC"/>
<stop offset="1" stop-color="white"/>
</linearGradient>
<linearGradient id="paint4_linear" x1="78.4992" y1="31.5494" x2="78.4992" y2="161.549" gradientUnits="userSpaceOnUse">
<stop stop-color="#1E2144"/>
<stop offset="1" stop-color="#5162AA"/>
</linearGradient>
<linearGradient id="paint5_linear" x1="41.7921" y1="43.8422" x2="54.3542" y2="56.4044" gradientUnits="userSpaceOnUse">
<stop stop-color="#1E2144"/>
<stop offset="1" stop-color="#5162AA"/>
</linearGradient>
<linearGradient id="paint6_linear" x1="186.499" y1="152.51" x2="186.499" y2="91.5494" gradientUnits="userSpaceOnUse">
<stop stop-color="#A91572"/>
<stop offset="1" stop-color="#D995BD"/>
</linearGradient>
</defs>
</svg>
