<svg width="336" height="166" viewBox="0 0 336 166" fill="none" xmlns="http://www.w3.org/2000/svg">
<path d="M61.6196 80.49H20.0596C19.5096 80.49 19.0596 80.04 19.0596 79.49C19.0596 78.94 19.5096 78.49 20.0596 78.49H61.6196C62.1696 78.49 62.6196 78.94 62.6196 79.49C62.6196 80.04 62.1696 80.49 61.6196 80.49Z" fill="url(#paint0_linear)"/>
<path d="M82.4804 41.6201C76.1304 45.2901 73.9504 53.4101 77.6204 59.7601C80.4904 64.7301 86.0904 67.1401 91.4304 66.2001C92.9104 65.94 94.3704 65.4201 95.7504 64.6201H95.7604L98.0704 63.2901L164.76 24.7901C171.11 21.1201 173.29 13.0001 169.62 6.65006C165.95 0.300057 157.83 -1.87994 151.48 1.79006L107.79 27.0201L82.4804 41.6201Z" fill="url(#paint1_linear)"/>
<path d="M209.28 101.38L140.29 141.21C133.94 144.88 131.76 153 135.43 159.35C138.3 164.32 143.9 166.73 149.24 165.79C150.72 165.53 152.19 165.01 153.57 164.21L222.56 124.38C228.91 120.71 231.09 112.59 227.42 106.24C223.75 99.8901 215.63 97.7101 209.28 101.38Z" fill="url(#paint2_linear)"/>
<path d="M241.32 12.6201L227.31 20.7101L218.32 25.9001C211.97 29.5701 209.8 37.6901 213.46 44.0401C216.33 49.0101 221.93 51.4201 227.27 50.4801C228.75 50.2201 230.22 49.7001 231.6 48.9001L254.6 35.6201C260.95 31.9501 263.13 23.8301 259.46 17.4801C255.8 11.1301 247.67 8.95013 241.32 12.6201Z" fill="url(#paint3_linear)"/>
<path d="M321.89 46.6701C329.219 46.6701 335.16 40.7289 335.16 33.4001C335.16 26.0713 329.219 20.1301 321.89 20.1301C314.561 20.1301 308.62 26.0713 308.62 33.4001C308.62 40.7289 314.561 46.6701 321.89 46.6701Z" fill="url(#paint4_linear)"/>
<path d="M177.62 132.49H65.6201C63.4101 132.49 61.6201 130.7 61.6201 128.49V58.49C61.6201 56.28 63.4101 54.49 65.6201 54.49H177.62C179.83 54.49 181.62 56.28 181.62 58.49V128.49C181.62 130.7 179.83 132.49 177.62 132.49Z" fill="white" stroke="url(#paint5_linear)" stroke-width="2" stroke-miterlimit="10" stroke-linecap="round" stroke-linejoin="round"/>
<path d="M180.18 55.4199L123.95 91.9099C122.63 92.7699 120.93 92.7699 119.6 91.9199L63.0498 55.4199" stroke="url(#paint6_linear)" stroke-width="2" stroke-miterlimit="10" stroke-linecap="round" stroke-linejoin="round"/>
<path d="M84.5004 133.49H22.9404C22.3904 133.49 21.9404 133.04 21.9404 132.49C21.9404 131.94 22.3904 131.49 22.9404 131.49H84.5004C85.0504 131.49 85.5004 131.94 85.5004 132.49C85.5004 133.04 85.0504 133.49 84.5004 133.49Z" fill="url(#paint7_linear)"/>
<path d="M159.64 69.6602H118.08C117.53 69.6602 117.08 69.2102 117.08 68.6602C117.08 68.1102 117.53 67.6602 118.08 67.6602H159.64C160.19 67.6602 160.64 68.1102 160.64 68.6602C160.64 69.2102 160.19 69.6602 159.64 69.6602Z" fill="url(#paint8_linear)"/>
<path d="M42.56 111.49H1C0.45 111.49 0 111.04 0 110.49C0 109.94 0.45 109.49 1 109.49H42.56C43.11 109.49 43.56 109.94 43.56 110.49C43.56 111.04 43.12 111.49 42.56 111.49Z" fill="url(#paint9_linear)"/>
<path d="M128.23 116.65H103.41C102.86 116.65 102.41 116.2 102.41 115.65C102.41 115.1 102.86 114.65 103.41 114.65H128.23C128.78 114.65 129.23 115.1 129.23 115.65C129.23 116.2 128.79 116.65 128.23 116.65Z" fill="url(#paint10_linear)"/>
<path d="M93.7604 39.49H32.9404C32.3904 39.49 31.9404 39.04 31.9404 38.49C31.9404 37.94 32.3904 37.49 32.9404 37.49H93.7604C94.3104 37.49 94.7604 37.94 94.7604 38.49C94.7604 39.04 94.3104 39.49 93.7604 39.49Z" fill="url(#paint11_linear)"/>
<path d="M155.691 103.39C156.411 103.58 156.841 104.32 156.641 105.04C156.451 105.76 155.711 106.19 154.991 105.99C154.271 105.8 153.851 105.06 154.041 104.34C154.231 103.62 154.971 103.2 155.691 103.39ZM150.901 103.5C151.561 101.05 154.071 99.5999 156.521 100.25C158.971 100.91 160.421 103.42 159.771 105.87C159.731 106.03 159.671 106.19 159.621 106.34C159.471 106.76 159.701 107.18 160.131 107.29C160.861 107.49 161.191 106.57 161.271 106.26C162.151 102.99 160.201 99.6199 156.931 98.7399C153.661 97.8599 150.291 99.8099 149.411 103.08C148.531 106.35 150.481 109.72 153.751 110.6C155.491 111.07 157.251 110.74 158.661 109.83L159.601 111.18C157.811 112.35 155.551 112.78 153.321 112.19C149.171 111.08 146.701 106.81 147.821 102.66C148.941 98.5099 153.201 96.0399 157.351 97.1599C161.501 98.2699 163.971 102.54 162.851 106.69C162.401 108.36 161.241 109.5 159.651 109.07C158.951 108.88 158.611 108.45 158.471 108.02C157.351 109.07 155.731 109.53 154.141 109.1C151.701 108.47 150.251 105.95 150.901 103.5ZM156.101 101.85C154.531 101.43 152.921 102.36 152.491 103.93C152.061 105.5 153.001 107.11 154.571 107.54C156.141 107.96 157.751 107.03 158.181 105.46C158.601 103.88 157.671 102.27 156.101 101.85Z" fill="#D34E92"/>
<path d="M164.73 120.96C163.87 121.46 163.67 119.97 162.7 119.71C161.74 119.45 161.53 120.22 160.56 119.97C159.59 119.71 159.8 118.94 158.84 118.68C157.87 118.42 157.67 119.19 156.7 118.94C155.73 118.68 155.94 117.91 154.98 117.65C154.01 117.39 153.81 118.16 152.84 117.91C151.88 117.65 152.08 116.88 151.12 116.62C150.15 116.36 149.95 117.13 148.98 116.88C148.01 116.62 148.22 115.85 147.25 115.59C146.28 115.33 146.08 116.1 145.11 115.84C144.14 115.58 144.35 114.81 143.38 114.55C142.41 114.29 142.2 115.06 141.24 114.8C140.27 114.54 140.26 114.56 139.75 113.69C139.25 112.83 139.28 112.82 139.53 111.86C139.79 110.9 140.56 111.1 140.82 110.14C141.08 109.17 140.31 108.97 140.56 108C140.82 107.03 141.59 107.24 141.85 106.28C142.11 105.31 141.34 105.11 141.59 104.14C141.85 103.17 142.62 103.38 142.88 102.42C143.14 101.46 142.37 101.25 142.62 100.29C142.88 99.32 143.65 99.53 143.91 98.57C144.17 97.6 143.4 97.4 143.66 96.43C143.92 95.46 144.69 95.67 144.95 94.7C145.21 93.73 144.44 93.53 144.7 92.56C144.96 91.59 145.73 91.8 145.99 90.83C146.25 89.86 145.05 88.95 145.92 88.44C146.78 87.94 146.98 89.43 147.95 89.69C148.91 89.95 149.12 89.18 150.09 89.43C151.06 89.69 150.85 90.46 151.81 90.72C152.78 90.98 152.98 90.21 153.95 90.46C154.92 90.72 154.71 91.49 155.67 91.75C156.64 92.01 156.84 91.24 157.81 91.49C158.77 91.75 158.57 92.52 159.53 92.78C160.5 93.04 160.7 92.27 161.67 92.52C162.64 92.78 162.43 93.55 163.4 93.81C164.37 94.07 164.57 93.3 165.54 93.56C166.51 93.82 166.3 94.59 167.27 94.85C168.24 95.11 168.45 94.34 169.41 94.6C170.38 94.86 170.39 94.84 170.9 95.71C171.4 96.57 171.37 96.58 171.12 97.54C170.86 98.5 170.09 98.3 169.83 99.26C169.57 100.23 170.34 100.43 170.09 101.4C169.83 102.37 169.06 102.16 168.8 103.12C168.54 104.09 169.31 104.29 169.06 105.26C168.8 106.23 168.03 106.02 167.77 106.98C167.51 107.94 168.28 108.15 168.03 109.11C167.77 110.08 167 109.87 166.74 110.83C166.48 111.8 167.25 112 166.99 112.97C166.73 113.94 165.96 113.73 165.7 114.7C165.44 115.67 166.21 115.87 165.95 116.84C165.69 117.81 164.64 117.67 164.64 118.68C164.66 119.91 165.6 120.46 164.73 120.96Z" stroke="url(#paint12_linear)" stroke-width="2" stroke-miterlimit="10" stroke-linecap="round" stroke-linejoin="round"/>
<path d="M332.03 126.54C322.52 118.09 307.5 113.96 300.15 112.27C300.01 112.23 299.92 112.1 299.92 111.96V104.49" stroke="url(#paint13_linear)" stroke-width="2" stroke-miterlimit="10" stroke-linecap="round" stroke-linejoin="round"/>
<path d="M263 104.45V111.85C263.01 112 262.91 112.13 262.77 112.16C255.42 113.92 240.4 118.08 230.89 126.54" stroke="url(#paint14_linear)" stroke-width="2" stroke-miterlimit="10" stroke-linecap="round" stroke-linejoin="round"/>
<path d="M310.67 72.7301C312.1 65.0301 313.869 46.8101 301.549 37.5801C302.999 35.9301 303.779 33.6801 303.719 31.3701C303.709 31.1501 303.619 30.9401 303.459 30.7901C303.309 30.6501 303.109 30.5801 302.909 30.6001C302.749 30.6001 287.34 32.5701 279.92 30.8401C272.3 29.0601 263.929 35.5501 262.209 42.1801C259.339 42.6101 256.719 44.2601 254.909 46.8101C251.539 51.4601 250.519 58.8801 251.839 68.8301C251.929 70.0901 252.059 71.4101 252.269 72.6701" fill="white"/>
<path d="M310.67 72.7301C312.1 65.0301 313.869 46.8101 301.549 37.5801C302.999 35.9301 303.779 33.6801 303.719 31.3701C303.709 31.1501 303.619 30.9401 303.459 30.7901C303.309 30.6501 303.109 30.5801 302.909 30.6001C302.749 30.6001 287.34 32.5701 279.92 30.8401C272.3 29.0601 263.929 35.5501 262.209 42.1801C259.339 42.6101 256.719 44.2601 254.909 46.8101C251.539 51.4601 250.519 58.8801 251.839 68.8301C251.929 70.0901 252.059 71.4101 252.269 72.6701" stroke="url(#paint15_linear)" stroke-width="2" stroke-miterlimit="10" stroke-linecap="round" stroke-linejoin="round"/>
<path d="M256.04 72.3802C256.04 72.3802 253.52 71.6902 252.11 72.7902C250.7 73.8902 249.31 75.3202 251.54 81.7502C253.77 88.1702 257.55 89.8202 257.61 90.2802C258.83 99.1702 264.82 111.38 275.15 115.45C279.25 117.08 283.72 117.08 287.82 115.45C297.7 111.45 304.02 99.3602 305.27 90.2802C305.33 89.8102 309.11 88.1702 311.34 81.7502C313.57 75.3302 312.19 73.9002 310.77 72.7902C309.36 71.6902 306.84 72.3802 306.84 72.3802C306.84 72.3802 307.69 70.2102 308.03 68.6502C308.37 67.0902 310.21 58.9702 304.09 53.8902C298.72 55.2302 289.9 55.6302 278.05 49.9002C272.27 47.1302 267.41 47.0202 263.64 49.6002C256.06 54.7602 255.37 67.9302 256.04 72.3802Z" fill="white" stroke="url(#paint16_linear)" stroke-width="2" stroke-miterlimit="10" stroke-linecap="round" stroke-linejoin="round"/>
<path d="M276.92 71.79C278.3 71.3 279.85 71.02 281.47 71.02C283.1 71.02 284.64 71.3 286.02 71.79" fill="white"/>
<path d="M276.92 71.79C278.3 71.3 279.85 71.02 281.47 71.02C283.1 71.02 284.64 71.3 286.02 71.79" stroke="url(#paint17_linear)" stroke-width="2" stroke-miterlimit="10" stroke-linecap="round" stroke-linejoin="round"/>
<path d="M269.449 83.6801C274.033 83.6801 277.749 79.964 277.749 75.3801C277.749 70.7961 274.033 67.0801 269.449 67.0801C264.865 67.0801 261.149 70.7961 261.149 75.3801C261.149 79.964 264.865 83.6801 269.449 83.6801Z" fill="white" stroke="url(#paint18_linear)" stroke-width="2" stroke-miterlimit="10" stroke-linecap="round" stroke-linejoin="round"/>
<path d="M279.029 90.9501H285.659C285.659 90.9501 289.429 91.0401 289.429 87.2601C289.429 83.4801 285.199 82.8401 285.199 75.3801" fill="white"/>
<path d="M279.029 90.9501H285.659C285.659 90.9501 289.429 91.0401 289.429 87.2601C289.429 83.4801 285.199 82.8401 285.199 75.3801" stroke="url(#paint19_linear)" stroke-width="2" stroke-miterlimit="10" stroke-linecap="round" stroke-linejoin="round"/>
<path d="M293.51 83.6801C298.094 83.6801 301.81 79.964 301.81 75.3801C301.81 70.7961 298.094 67.0801 293.51 67.0801C288.926 67.0801 285.21 70.7961 285.21 75.3801C285.21 79.964 288.926 83.6801 293.51 83.6801Z" fill="white" stroke="url(#paint20_linear)" stroke-width="2" stroke-miterlimit="10" stroke-linecap="round" stroke-linejoin="round"/>
<path d="M290.42 99.5601C288.33 100.56 285.45 101.18 282.26 101.18C279.07 101.18 276.19 100.56 274.1 99.5601" fill="white"/>
<path d="M290.42 99.5601C288.33 100.56 285.45 101.18 282.26 101.18C279.07 101.18 276.19 100.56 274.1 99.5601" stroke="url(#paint21_linear)" stroke-width="2" stroke-miterlimit="10" stroke-linecap="round" stroke-linejoin="round"/>
<path d="M237.71 92.53L224.38 82.53C223.72 82.04 222.78 82.51 222.78 83.33V89.33H202.78C200.57 89.33 198.78 91.12 198.78 93.33C198.78 95.54 200.57 97.33 202.78 97.33H222.78V103.33C222.78 104.15 223.72 104.62 224.38 104.13L237.71 94.13C238.25 93.73 238.25 92.93 237.71 92.53Z" fill="#5162AA"/>
<defs>
<linearGradient id="paint0_linear" x1="19.0553" y1="79.4919" x2="62.6187" y2="79.4919" gradientUnits="userSpaceOnUse">
<stop stop-color="#D995BD" stop-opacity="0"/>
<stop offset="0.5085" stop-color="#D34E92"/>
<stop offset="1" stop-color="#353F80"/>
</linearGradient>
<linearGradient id="paint1_linear" x1="124.046" y1="2.07166" x2="123.313" y2="55.5735" gradientUnits="userSpaceOnUse">
<stop stop-color="#EAEDFC"/>
<stop offset="1" stop-color="white"/>
</linearGradient>
<linearGradient id="paint2_linear" x1="181.249" y1="103.105" x2="181.574" y2="159.457" gradientUnits="userSpaceOnUse">
<stop stop-color="#EAEDFC"/>
<stop offset="1" stop-color="white"/>
</linearGradient>
<linearGradient id="paint3_linear" x1="236.811" y1="9.92843" x2="236.159" y2="49.0165" gradientUnits="userSpaceOnUse">
<stop stop-color="#EAEDFC"/>
<stop offset="1" stop-color="white"/>
</linearGradient>
<linearGradient id="paint4_linear" x1="322.245" y1="19.0495" x2="321.594" y2="45.1083" gradientUnits="userSpaceOnUse">
<stop stop-color="#EAEDFC"/>
<stop offset="1" stop-color="white"/>
</linearGradient>
<linearGradient id="paint5_linear" x1="121.62" y1="53.4924" x2="121.62" y2="133.492" gradientUnits="userSpaceOnUse">
<stop stop-color="#1E2144"/>
<stop offset="1" stop-color="#5162AA"/>
</linearGradient>
<linearGradient id="paint6_linear" x1="121.619" y1="54.4245" x2="121.619" y2="93.5612" gradientUnits="userSpaceOnUse">
<stop stop-color="#1E2144"/>
<stop offset="1" stop-color="#5162AA"/>
</linearGradient>
<linearGradient id="paint7_linear" x1="21.9389" y1="132.492" x2="85.5024" y2="132.492" gradientUnits="userSpaceOnUse">
<stop stop-color="#D995BD" stop-opacity="0"/>
<stop offset="0.5085" stop-color="#D34E92"/>
<stop offset="1" stop-color="#5162AA"/>
</linearGradient>
<linearGradient id="paint8_linear" x1="117.078" y1="68.6601" x2="160.642" y2="68.6601" gradientUnits="userSpaceOnUse">
<stop stop-color="#D995BD" stop-opacity="0"/>
<stop offset="0.5085" stop-color="#D34E92"/>
<stop offset="1" stop-color="#262C55"/>
</linearGradient>
<linearGradient id="paint9_linear" x1="0" y1="110.492" x2="43.5645" y2="110.492" gradientUnits="userSpaceOnUse">
<stop stop-color="#D995BD" stop-opacity="0"/>
<stop offset="1" stop-color="#D34E92"/>
</linearGradient>
<linearGradient id="paint10_linear" x1="102.41" y1="115.647" x2="129.233" y2="115.647" gradientUnits="userSpaceOnUse">
<stop stop-color="#D995BD" stop-opacity="0"/>
<stop offset="1" stop-color="#D34E92"/>
</linearGradient>
<linearGradient id="paint11_linear" x1="31.9389" y1="38.4919" x2="94.7621" y2="38.4919" gradientUnits="userSpaceOnUse">
<stop stop-color="#D995BD" stop-opacity="0"/>
<stop offset="1" stop-color="#D34E92"/>
</linearGradient>
<linearGradient id="paint12_linear" x1="159.103" y1="90.701" x2="151.607" y2="118.68" gradientUnits="userSpaceOnUse">
<stop stop-color="#1E2144"/>
<stop offset="1" stop-color="#5162AA"/>
</linearGradient>
<linearGradient id="paint13_linear" x1="315.979" y1="103.487" x2="315.979" y2="127.54" gradientUnits="userSpaceOnUse">
<stop stop-color="#A91572"/>
<stop offset="1" stop-color="#D995BD"/>
</linearGradient>
<linearGradient id="paint14_linear" x1="246.945" y1="103.451" x2="246.945" y2="127.54" gradientUnits="userSpaceOnUse">
<stop stop-color="#A91572"/>
<stop offset="1" stop-color="#D995BD"/>
</linearGradient>
<linearGradient id="paint15_linear" x1="281.476" y1="29.5397" x2="281.476" y2="73.7309" gradientUnits="userSpaceOnUse">
<stop stop-color="#A91572"/>
<stop offset="1" stop-color="#D995BD"/>
</linearGradient>
<linearGradient id="paint16_linear" x1="281.428" y1="46.7481" x2="281.428" y2="117.671" gradientUnits="userSpaceOnUse">
<stop stop-color="#A91572"/>
<stop offset="1" stop-color="#D995BD"/>
</linearGradient>
<linearGradient id="paint17_linear" x1="281.477" y1="70.0209" x2="281.477" y2="72.7886" gradientUnits="userSpaceOnUse">
<stop stop-color="#A91572"/>
<stop offset="1" stop-color="#D995BD"/>
</linearGradient>
<linearGradient id="paint18_linear" x1="269.447" y1="66.0792" x2="269.447" y2="84.6876" gradientUnits="userSpaceOnUse">
<stop stop-color="#A91572"/>
<stop offset="1" stop-color="#D995BD"/>
</linearGradient>
<linearGradient id="paint19_linear" x1="284.231" y1="74.3834" x2="284.231" y2="91.9517" gradientUnits="userSpaceOnUse">
<stop stop-color="#A91572"/>
<stop offset="1" stop-color="#D995BD"/>
</linearGradient>
<linearGradient id="paint20_linear" x1="293.506" y1="66.0792" x2="293.506" y2="84.6876" gradientUnits="userSpaceOnUse">
<stop stop-color="#A91572"/>
<stop offset="1" stop-color="#D995BD"/>
</linearGradient>
<linearGradient id="paint21_linear" x1="282.265" y1="98.5618" x2="282.265" y2="102.177" gradientUnits="userSpaceOnUse">
<stop stop-color="#A91572"/>
<stop offset="1" stop-color="#D995BD"/>
</linearGradient>
</defs>
</svg>
