<svg width="274" height="151" viewBox="0 0 274 151" fill="none" xmlns="http://www.w3.org/2000/svg">
<path d="M253.679 80.3601L184.689 120.19C178.339 123.86 176.159 131.98 179.829 138.33C182.699 143.3 188.299 145.71 193.639 144.77C195.119 144.51 196.589 143.99 197.969 143.19L266.959 103.36C273.309 99.6901 275.489 91.5701 271.819 85.2201C268.149 78.8701 260.029 76.7001 253.679 80.3601Z" fill="url(#paint0_linear)"/>
<path d="M81.5302 46.05C75.1802 49.72 73.0002 57.84 76.6702 64.19C79.5402 69.16 85.1402 71.57 90.4802 70.63C91.9602 70.37 93.4202 69.85 94.8002 69.05H94.8102L97.1202 67.72L163.81 29.22C170.16 25.55 172.34 17.43 168.67 11.08C165 4.72999 156.88 2.54999 150.53 6.21999L106.84 31.45L81.5302 46.05Z" fill="url(#paint1_linear)"/>
<path d="M242.749 1.78L228.739 9.87L219.749 15.06C213.399 18.73 211.229 26.85 214.889 33.2C217.759 38.17 223.359 40.58 228.699 39.64C230.179 39.38 231.649 38.86 233.029 38.06L256.029 24.78C262.379 21.11 264.559 12.99 260.889 6.64C257.219 0.289998 249.099 -1.88 242.749 1.78Z" fill="url(#paint2_linear)"/>
<path d="M115.439 48.6501C122.219 41.9501 131.559 37.8301 141.839 37.8901C152.129 37.9501 161.409 42.1701 168.119 48.9501" fill="white"/>
<path d="M115.439 48.6501C122.219 41.9501 131.559 37.8301 141.839 37.8901C149.549 37.9301 156.689 40.3201 162.609 44.3601" stroke="url(#paint3_linear)" stroke-width="2" stroke-linecap="round" stroke-linejoin="round"/>
<path d="M158.27 47.4402L168.12 48.9602L164.51 39.6602L158.27 47.4402Z" fill="url(#paint4_linear)"/>
<path d="M167.85 99.9499C161.07 106.65 151.73 110.77 141.45 110.71C131.16 110.65 121.88 106.43 115.17 99.6499" fill="white"/>
<path d="M167.85 99.9492C161.07 106.649 151.73 110.769 141.45 110.709C133.74 110.669 126.6 108.279 120.68 104.239" stroke="url(#paint5_linear)" stroke-width="2" stroke-linecap="round" stroke-linejoin="round"/>
<path d="M125.03 101.16L115.17 99.6499L118.79 108.94L125.03 101.16Z" fill="url(#paint6_linear)"/>
<path d="M135.859 149.23C123.179 137.97 103.149 132.46 93.3494 130.21C93.1694 130.16 93.0394 129.99 93.0494 129.79V119.83" fill="white"/>
<path d="M135.859 149.23C123.179 137.97 103.149 132.46 93.3494 130.21C93.1694 130.16 93.0394 129.99 93.0494 129.79V119.83" stroke="url(#paint7_linear)" stroke-width="2" stroke-miterlimit="10" stroke-linecap="round" stroke-linejoin="round"/>
<path d="M43.8098 119.78V129.65C43.8198 129.84 43.6998 130.02 43.5098 130.07C33.7098 132.42 13.6798 137.96 1.00977 149.24" fill="white"/>
<path d="M43.8098 119.78V129.65C43.8198 129.84 43.6998 130.02 43.5098 130.07C33.7098 132.42 13.6798 137.96 1.00977 149.24" stroke="url(#paint8_linear)" stroke-width="2" stroke-miterlimit="10" stroke-linecap="round" stroke-linejoin="round"/>
<path d="M107.369 77.49C109.269 67.22 111.639 42.92 95.2094 30.62C97.1394 28.41 98.1794 25.42 98.0994 22.33C98.0794 22.03 97.9594 21.75 97.7594 21.56C97.5494 21.37 97.2894 21.28 97.0294 21.31C96.8194 21.31 76.2694 23.93 66.3694 21.63C56.2194 19.26 45.0394 27.92 42.7494 36.75C38.9194 37.32 35.4294 39.53 33.0194 42.92C28.5294 49.12 27.1594 59.02 28.9294 72.28C29.0494 73.96 29.2294 75.72 29.4994 77.4" fill="white"/>
<path d="M107.369 77.49C109.269 67.22 111.639 42.92 95.2094 30.62C97.1394 28.41 98.1794 25.42 98.0994 22.33C98.0794 22.03 97.9594 21.75 97.7594 21.56C97.5494 21.37 97.2894 21.28 97.0294 21.31C96.8194 21.31 76.2694 23.93 66.3694 21.63C56.2194 19.26 45.0394 27.92 42.7494 36.75C38.9194 37.32 35.4294 39.53 33.0194 42.92C28.5294 49.12 27.1594 59.02 28.9294 72.28C29.0494 73.96 29.2294 75.72 29.4994 77.4" stroke="url(#paint9_linear)" stroke-width="2" stroke-miterlimit="10" stroke-linecap="round" stroke-linejoin="round"/>
<path d="M34.5196 77.0199C34.5196 77.0199 31.1596 76.0999 29.2696 77.5699C27.3796 79.0399 25.5396 80.9499 28.5096 89.5099C31.4796 98.0699 36.5296 100.26 36.5996 100.89C38.2296 112.74 46.2196 129.03 59.9796 134.44C65.4396 136.62 71.4096 136.62 76.8696 134.44C90.0396 129.11 98.4696 112.99 100.14 100.89C100.22 100.27 105.26 98.0799 108.23 89.5099C111.2 80.9399 109.36 79.0399 107.47 77.5699C105.58 76.0999 102.22 77.0199 102.22 77.0199C102.22 77.0199 103.35 74.1299 103.81 72.0499C104.28 69.9699 106.71 59.1399 98.5596 52.3699C91.3996 54.1599 79.6396 54.6899 63.8396 47.0599C56.1296 43.3699 49.6496 43.2199 44.6196 46.6699C34.5596 53.5299 33.6296 71.0799 34.5196 77.0199Z" fill="white" stroke="url(#paint10_linear)" stroke-width="2" stroke-miterlimit="10" stroke-linecap="round" stroke-linejoin="round"/>
<path d="M62.3701 76.23C64.2201 75.57 66.2701 75.21 68.4401 75.21C70.6101 75.21 72.6701 75.58 74.5101 76.23" fill="white"/>
<path d="M62.3701 76.23C64.2201 75.57 66.2701 75.21 68.4401 75.21C70.6101 75.21 72.6701 75.58 74.5101 76.23" stroke="url(#paint11_linear)" stroke-width="2" stroke-miterlimit="10" stroke-linecap="round" stroke-linejoin="round"/>
<path d="M52.4098 92.09C58.5236 92.09 63.4798 87.1337 63.4798 81.02C63.4798 74.9062 58.5236 69.95 52.4098 69.95C46.2961 69.95 41.3398 74.9062 41.3398 81.02C41.3398 87.1337 46.2961 92.09 52.4098 92.09Z" fill="white" stroke="url(#paint12_linear)" stroke-width="2" stroke-miterlimit="10" stroke-linecap="round" stroke-linejoin="round"/>
<path d="M65.1895 101.78H74.0294C74.0294 101.78 79.0495 101.9 79.0495 96.86C79.0495 91.82 73.4095 90.97 73.4095 81.02" fill="white"/>
<path d="M65.1895 101.78H74.0294C74.0294 101.78 79.0495 101.9 79.0495 96.86C79.0495 91.82 73.4095 90.97 73.4095 81.02" stroke="url(#paint13_linear)" stroke-width="2" stroke-miterlimit="10" stroke-linecap="round" stroke-linejoin="round"/>
<path d="M84.4802 92.09C90.5939 92.09 95.5502 87.1337 95.5502 81.02C95.5502 74.9062 90.5939 69.95 84.4802 69.95C78.3664 69.95 73.4102 74.9062 73.4102 81.02C73.4102 87.1337 78.3664 92.09 84.4802 92.09Z" fill="white" stroke="url(#paint14_linear)" stroke-width="2" stroke-miterlimit="10" stroke-linecap="round" stroke-linejoin="round"/>
<path d="M80.3694 113.26C77.5894 114.59 73.7394 115.41 69.4894 115.41C65.2394 115.41 61.3994 114.59 58.6094 113.26" fill="white"/>
<path d="M80.3694 113.26C77.5894 114.59 73.7394 115.41 69.4894 115.41C65.2394 115.41 61.3994 114.59 58.6094 113.26" stroke="url(#paint15_linear)" stroke-width="2" stroke-miterlimit="10" stroke-linecap="round" stroke-linejoin="round"/>
<path d="M181.74 54.2899C182.14 38.2599 195.26 25.3899 211.39 25.3899C219.58 25.3899 226.99 28.7099 232.36 34.0799C232.47 34.1899 232.57 34.2899 232.68 34.3999" fill="white"/>
<path d="M181.74 54.2899C182.14 38.2599 195.26 25.3899 211.39 25.3899C219.58 25.3899 226.99 28.7099 232.36 34.0799C232.47 34.1899 232.57 34.2899 232.68 34.3999" stroke="#A91572" stroke-width="2" stroke-miterlimit="10" stroke-linecap="round" stroke-linejoin="round"/>
<path d="M193.89 59.6699C190.55 56.3299 185.94 54.2599 180.84 54.2599C175.74 54.2599 171.13 56.3299 167.79 59.6699C164.45 63.0099 162.38 67.6199 162.38 72.7199C162.38 77.8199 164.45 82.4299 167.79 85.7699C171.13 89.1099 175.74 91.1799 180.84 91.1799H210.56H240.28C248.26 91.1799 255.48 87.9499 260.71 82.7199C265.94 77.4899 269.17 70.2699 269.17 62.2899C269.17 54.3099 265.94 47.0899 260.71 41.8599C255.48 36.6299 248.26 33.3999 240.28 33.3999C232.3 33.3999 225.08 36.6299 219.85 41.8599" fill="white"/>
<path d="M193.89 59.6699C190.55 56.3299 185.94 54.2599 180.84 54.2599C175.74 54.2599 171.13 56.3299 167.79 59.6699C164.45 63.0099 162.38 67.6199 162.38 72.7199C162.38 77.8199 164.45 82.4299 167.79 85.7699C171.13 89.1099 175.74 91.1799 180.84 91.1799H210.56H240.28C248.26 91.1799 255.48 87.9499 260.71 82.7199C265.94 77.4899 269.17 70.2699 269.17 62.2899C269.17 54.3099 265.94 47.0899 260.71 41.8599C255.48 36.6299 248.26 33.3999 240.28 33.3999C232.3 33.3999 225.08 36.6299 219.85 41.8599" stroke="url(#paint16_linear)" stroke-width="2" stroke-miterlimit="10" stroke-linecap="round" stroke-linejoin="round"/>
<path d="M271.89 59.02H249.89C249.34 59.02 248.89 58.57 248.89 58.02V37.68L259.56 27.01H271.89C272.44 27.01 272.89 27.46 272.89 28.01V58.01C272.89 58.57 272.44 59.02 271.89 59.02Z" fill="white" stroke="url(#paint17_linear)" stroke-width="2" stroke-miterlimit="10" stroke-linecap="round" stroke-linejoin="round"/>
<path d="M258.26 37.68H248.89L259.56 27.01V36.38C259.55 37.11 258.98 37.68 258.26 37.68Z" fill="white" stroke="url(#paint18_linear)" stroke-width="2" stroke-miterlimit="10" stroke-linecap="round" stroke-linejoin="round"/>
<path d="M204.89 103.02H182.89C182.34 103.02 181.89 102.57 181.89 102.02V81.68L192.56 71.01H204.89C205.44 71.01 205.89 71.46 205.89 72.01V102.01C205.89 102.57 205.44 103.02 204.89 103.02Z" fill="white" stroke="url(#paint19_linear)" stroke-width="2" stroke-miterlimit="10" stroke-linecap="round" stroke-linejoin="round"/>
<path d="M191.26 81.68H181.89L192.56 71.01V80.38C192.55 81.11 191.98 81.68 191.26 81.68Z" fill="white" stroke="url(#paint20_linear)" stroke-width="2" stroke-miterlimit="10" stroke-linecap="round" stroke-linejoin="round"/>
<path d="M186.89 94.02H200.89" stroke="#D34E92" stroke-width="2" stroke-miterlimit="10" stroke-linecap="round" stroke-linejoin="round"/>
<path d="M186.89 98.02H200.89" stroke="#D34E92" stroke-width="2" stroke-miterlimit="10" stroke-linecap="round" stroke-linejoin="round"/>
<path d="M193.89 90.02C195.547 90.02 196.89 88.6769 196.89 87.02C196.89 85.3632 195.547 84.02 193.89 84.02C192.233 84.02 190.89 85.3632 190.89 87.02C190.89 88.6769 192.233 90.02 193.89 90.02Z" stroke="#D34E92" stroke-width="2" stroke-miterlimit="10" stroke-linecap="round" stroke-linejoin="round"/>
<path d="M253.89 50.02H267.89" stroke="#D34E92" stroke-width="2" stroke-miterlimit="10" stroke-linecap="round" stroke-linejoin="round"/>
<path d="M253.89 46.02H267.89" stroke="#D34E92" stroke-width="2" stroke-miterlimit="10" stroke-linecap="round" stroke-linejoin="round"/>
<path d="M253.89 54.02H257.89" stroke="#D34E92" stroke-width="2" stroke-miterlimit="10" stroke-linecap="round" stroke-linejoin="round"/>
<defs>
<linearGradient id="paint0_linear" x1="225.649" y1="82.0908" x2="225.974" y2="138.443" gradientUnits="userSpaceOnUse">
<stop stop-color="#EAEDFC"/>
<stop offset="1" stop-color="white"/>
</linearGradient>
<linearGradient id="paint1_linear" x1="123.091" y1="6.50599" x2="122.358" y2="60.0078" gradientUnits="userSpaceOnUse">
<stop stop-color="#EAEDFC"/>
<stop offset="1" stop-color="white"/>
</linearGradient>
<linearGradient id="paint2_linear" x1="238.234" y1="-0.908603" x2="237.583" y2="38.1795" gradientUnits="userSpaceOnUse">
<stop stop-color="#EAEDFC"/>
<stop offset="1" stop-color="white"/>
</linearGradient>
<linearGradient id="paint3_linear" x1="114.444" y1="43.2725" x2="169.121" y2="43.2725" gradientUnits="userSpaceOnUse">
<stop stop-color="#1E2144"/>
<stop offset="1" stop-color="#5162AA"/>
</linearGradient>
<linearGradient id="paint4_linear" x1="114.444" y1="44.3099" x2="169.121" y2="44.3099" gradientUnits="userSpaceOnUse">
<stop stop-color="#1E2144"/>
<stop offset="1" stop-color="#5162AA"/>
</linearGradient>
<linearGradient id="paint5_linear" x1="114.174" y1="105.332" x2="168.851" y2="105.332" gradientUnits="userSpaceOnUse">
<stop stop-color="#A91572"/>
<stop offset="1" stop-color="#D995BD"/>
</linearGradient>
<linearGradient id="paint6_linear" x1="114.174" y1="104.295" x2="168.851" y2="104.295" gradientUnits="userSpaceOnUse">
<stop stop-color="#A91572"/>
<stop offset="1" stop-color="#D995BD"/>
</linearGradient>
<linearGradient id="paint7_linear" x1="114.448" y1="118.827" x2="114.448" y2="150.231" gradientUnits="userSpaceOnUse">
<stop stop-color="#1E2144"/>
<stop offset="1" stop-color="#5162AA"/>
</linearGradient>
<linearGradient id="paint8_linear" x1="22.403" y1="118.779" x2="22.403" y2="150.231" gradientUnits="userSpaceOnUse">
<stop stop-color="#1E2144"/>
<stop offset="1" stop-color="#5162AA"/>
</linearGradient>
<linearGradient id="paint9_linear" x1="68.4453" y1="20.2314" x2="68.4453" y2="78.4864" gradientUnits="userSpaceOnUse">
<stop stop-color="#1E2144"/>
<stop offset="1" stop-color="#5162AA"/>
</linearGradient>
<linearGradient id="paint10_linear" x1="68.3803" y1="43.1758" x2="68.3803" y2="137.073" gradientUnits="userSpaceOnUse">
<stop stop-color="#1E2144"/>
<stop offset="1" stop-color="#5162AA"/>
</linearGradient>
<linearGradient id="paint11_linear" x1="68.4459" y1="74.2065" x2="68.4459" y2="77.2301" gradientUnits="userSpaceOnUse">
<stop stop-color="#1E2144"/>
<stop offset="1" stop-color="#5162AA"/>
</linearGradient>
<linearGradient id="paint12_linear" x1="52.4069" y1="68.9508" x2="52.4069" y2="93.0952" gradientUnits="userSpaceOnUse">
<stop stop-color="#1E2144"/>
<stop offset="1" stop-color="#5162AA"/>
</linearGradient>
<linearGradient id="paint13_linear" x1="72.1189" y1="80.023" x2="72.1189" y2="102.781" gradientUnits="userSpaceOnUse">
<stop stop-color="#1E2144"/>
<stop offset="1" stop-color="#5162AA"/>
</linearGradient>
<linearGradient id="paint14_linear" x1="84.4849" y1="68.9508" x2="84.4849" y2="93.0952" gradientUnits="userSpaceOnUse">
<stop stop-color="#1E2144"/>
<stop offset="1" stop-color="#5162AA"/>
</linearGradient>
<linearGradient id="paint15_linear" x1="69.4969" y1="112.261" x2="69.4969" y2="116.415" gradientUnits="userSpaceOnUse">
<stop stop-color="#1E2144"/>
<stop offset="1" stop-color="#5162AA"/>
</linearGradient>
<linearGradient id="paint16_linear" x1="215.785" y1="32.3841" x2="215.785" y2="92.1816" gradientUnits="userSpaceOnUse">
<stop stop-color="#A91572"/>
<stop offset="1" stop-color="#D995BD"/>
</linearGradient>
<linearGradient id="paint17_linear" x1="260.887" y1="26.0177" x2="260.887" y2="60.0177" gradientUnits="userSpaceOnUse">
<stop stop-color="#A91572"/>
<stop offset="1" stop-color="#D995BD"/>
</linearGradient>
<linearGradient id="paint18_linear" x1="253.514" y1="31.644" x2="259.883" y2="38.0128" gradientUnits="userSpaceOnUse">
<stop stop-color="#A91572"/>
<stop offset="1" stop-color="#D677AB"/>
</linearGradient>
<linearGradient id="paint19_linear" x1="193.887" y1="70.0177" x2="193.887" y2="104.018" gradientUnits="userSpaceOnUse">
<stop stop-color="#A91572"/>
<stop offset="1" stop-color="#D995BD"/>
</linearGradient>
<linearGradient id="paint20_linear" x1="186.514" y1="75.644" x2="192.883" y2="82.0128" gradientUnits="userSpaceOnUse">
<stop stop-color="#A91572"/>
<stop offset="1" stop-color="#D677AB"/>
</linearGradient>
</defs>
</svg>
