<?xml version="1.0" encoding="UTF-8" standalone="no"?>
<svg width="104px" height="16px" viewBox="0 0 104 16" version="1.1" xmlns="http://www.w3.org/2000/svg" xmlns:xlink="http://www.w3.org/1999/xlink">
    <!-- Generator: Sketch 3.6.1 (26313) - http://www.bohemiancoding.com/sketch -->
    <title>Page 1</title>
    <desc>Created with Sketch.</desc>
    <defs></defs>
    <g id="Mobile-design" stroke="none" stroke-width="1" fill="none" fill-rule="evenodd">
        <g id="Home-page-mobile" transform="translate(-10.000000, -32.000000)" fill="#0070D3">
            <path d="M76.6853147,40.0559441 C76.6853147,37.034965 74.5034965,34.5734266 71.4265734,34.5734266 C68.3496503,34.5734266 66.2237762,37.034965 66.2237762,40.0559441 C66.2237762,43.0769231 68.4055944,45.5384615 71.4825175,45.5384615 C74.5594406,45.5384615 76.6853147,43.0769231 76.6853147,40.0559441 L76.6853147,40.0559441 Z M76.7972028,47.7202797 L76.7972028,46.041958 C75.3986014,47.2727273 73.5524476,48 71.4265734,48 C68.5174825,48 66.1678322,46.6573427 64.7692308,44.6433566 C63.3706294,46.6573427 61.020979,48 58.1118881,48 C53.3566434,48 50.0559441,44.4195804 50.0559441,40.0559441 C50.0559441,35.6923077 53.4125874,32.0559441 58.1118881,32.0559441 C60.0699301,32.0559441 61.8041958,32.6713287 63.1468531,33.7342657 C62.5874126,34.4615385 62.1398601,35.2447552 61.7482517,36.0839161 C60.7972028,35.1328671 59.5664336,34.5174825 58.0559441,34.5174825 C54.979021,34.5174825 52.8531469,36.979021 52.8531469,40 C52.8531469,43.020979 55.034965,45.4825175 58.1118881,45.4825175 C61.1888112,45.4825175 63.3146853,43.020979 63.3146853,40 C63.3146853,35.6363636 66.6713287,32 71.3706294,32 C76.1258741,32 79.4265734,35.5804196 79.4265734,39.9440559 L79.4265734,47.6643357 L76.7972028,47.6643357 L76.7972028,47.7202797 Z M20.013986,33.4545455 C18.6713287,32.5594406 17.1048951,32.1118881 15.2587413,32.1118881 C12.1818182,32.1118881 10,33.9020979 10,36.5874126 C10,39.4405594 11.8461538,40.3916084 15.1468531,41.2307692 C18,41.9020979 18.6153846,42.4615385 18.6153846,43.5804196 C18.6153846,44.7552448 17.5524476,45.5384615 15.8741259,45.5384615 C14.3636364,45.5384615 13.1888112,45.0909091 12.013986,44.3076923 L10.7832168,46.4895105 C12.2937063,47.4405594 14.027972,47.9440559 15.8181818,47.9440559 C19.0629371,47.9440559 21.3006993,46.2097902 21.3006993,43.3006993 C21.3006993,40.7272727 19.6223776,39.5524476 16.3776224,38.7692308 C13.4125874,38.041958 12.7412587,37.5384615 12.7412587,36.3076923 C12.7412587,35.3006993 13.6923077,34.4615385 15.2587413,34.4615385 C16.4335664,34.4615385 17.6083916,34.8531469 18.7832168,35.5804196 L20.013986,33.4545455 Z M88.6013986,32.1118881 C84.4055944,32.1118881 81.7762238,34.5174825 81.7762238,39.1608392 L81.7762238,47.7202797 L84.6293706,47.7202797 L84.6293706,39.2727273 C84.6293706,36.3076923 86.1958042,34.6853147 88.7132867,34.6853147 C91.2307692,34.6853147 92.7972028,36.3076923 92.7972028,39.2727273 L92.7972028,47.7202797 L95.6503497,47.7202797 L95.6503497,39.1608392 C95.6503497,34.5174825 92.965035,32.1118881 88.8251748,32.1118881 L88.6013986,32.1118881 L88.6013986,32.1118881 Z M110.251748,40.0559441 C110.251748,43.0769231 108.125874,45.5384615 105.048951,45.5384615 C101.972028,45.5384615 99.7902098,43.0769231 99.7902098,40.0559441 C99.7902098,37.034965 101.916084,34.5734266 104.993007,34.5734266 C108.06993,34.5174825 110.251748,37.034965 110.251748,40.0559441 L110.251748,40.0559441 Z M113.104895,40 C113.104895,35.6363636 109.804196,32.0559441 105.048951,32.0559441 C100.293706,32.0559441 96.993007,35.6923077 96.993007,40.0559441 C96.993007,44.4195804 100.293706,48 105.048951,48 C109.804196,48 113.104895,44.3636364 113.104895,40 L113.104895,40 Z M34.8391608,47.7202797 L37.6363636,47.7202797 L37.6363636,39.1608392 C37.6363636,36.1958042 39.2027972,34.6853147 41.6643357,34.6853147 C44.1818182,34.6853147 45.7482517,36.3076923 45.7482517,39.2727273 L45.7482517,47.7202797 L48.5454545,47.7202797 L48.5454545,39.1608392 C48.5454545,34.5174825 45.8601399,32.1118881 41.7202797,32.1118881 C37.5244755,32.1118881 34.7832168,34.5174825 34.7832168,39.3286713 L34.7832168,47.7202797 L34.8391608,47.7202797 Z M35.7342657,32.3356643 L29.5804196,42.5174825 L29.5804196,47.7202797 L26.7832168,47.7202797 L26.7832168,42.5734266 L20.6293706,32.2797203 L23.7622378,32.3356643 L28.1818182,40 L32.6013986,32.3356643 L35.7342657,32.3356643 Z" id="Page-1"></path>
        </g>
    </g>
</svg>
