<svg width="250" height="210" viewBox="0 0 250 210" xmlns="http://www.w3.org/2000/svg"><title>Page 1</title><desc>Created with Sketch.</desc><g fill="none"><path d="M4 110v16.452l.97 6.324 2.332 3.528 5.117 3.762h11.971l6.415-1.885 4.128-4.401 1.457-5.714v-13.568l-32.39-4.498z" fill="#49B9E8"/><path d="M36.391 114.776l-32.391-3.79.233-1.986 32.39 3.79-.232 1.986z" fill="#373D44"/><g><path d="M81 161.82h10.971l8.85-3.617 8.401-7.703 4.997-10.685.74-9.447-1.563-7.399-20.709 10.599-11.687 28.252z" fill="#AFBAC4"/><path d="M234.071 161.969l-17.071 32.191 19.618 34.848 11.306-31.868-7.167-23.261-6.686-11.91z" fill="#AFBAC4"/><path d="M136.49 115.972l-35.108 14.542c-3.654 1.514-6.499 4.358-8.012 8.011l-21.234 51.262c-1.512 3.653-1.512 7.676 0 11.329l21.234 51.262c1.513 3.653 4.357 6.497 8.012 8.011l51.261 21.233c3.653 1.513 7.676 1.513 11.328 0l51.263-21.233c3.653-1.514 6.498-4.359 8.011-8.011l21.233-51.262c1.513-3.653 1.513-7.676 0-11.329l-21.233-51.262c-1.513-3.653-4.358-6.497-8.011-8.011l-35.048-14.517-15.79.928-.425-.176c-4.678-1.938-8.382-2.286-11.328-1.067l-.359.149-15.794.141zm21.817 170.787c-2.437 0-4.875-.48-7.195-1.441l-51.262-21.234c-4.64-1.922-8.255-5.536-10.175-10.175l-21.234-51.263c-1.922-4.639-1.922-9.75 0-14.389l21.234-51.263c1.921-4.64 5.535-8.253 10.175-10.175l35.828-14.84 15.81-.141c3.794-1.435 8.246-1.095 13.584 1.041l15.796-.929 35.897 14.869c4.64 1.922 8.253 5.536 10.175 10.175l21.234 51.263c1.921 4.639 1.921 9.75 0 14.389l-21.234 51.263c-1.921 4.639-5.535 8.252-10.175 10.175l-51.262 21.234c-2.321.961-4.758 1.441-7.196 1.441z" fill="#373D44"/><path d="M198.886 161.979l-55.886-11.048.388-1.962 55.886 11.048-.388 1.962z" fill="#373D44"/><path d="M123.814 224.444l-15.814-35.665 1.828-.81 15.814 35.664-1.828.811z" fill="#373D44"/><path d="M26 178.969h49.355v-4h-49.355v4z" fill="#373D44"/><path d="M3.041 176.097h34v-8.128h-34v8.128z" fill="#AFBAC4"/><path d="M6.135 175.042h27.731v-4.084h-27.731v4.084zm-6.135 3.958h40v-12h-40v12z" fill="#373D44"/><path d="M241.46 213.129c-9.41-5.008-15.818-14.91-15.818-26.313 0-9.145 3.504-16.78 9.99-22.245l.669-.425s-7.829-18.966-9.688-23.388c-1.859-4.423-3.242-6.789-3.242-6.789l-1.361.923c-18.249 10.898-29.01 29.125-29.01 51.924 0 25.007 14.708 46.57 35.941 56.537l12.519-30.224z" fill="#49B9E8"/><path d="M222.632 137.507c-17.824 10.819-27.632 28.544-27.632 49.964 0 22.624 12.85 43.515 32.908 53.803l11.03-26.625c-9.481-5.756-15.297-16.008-15.297-27.178 0-9.427 3.528-17.487 10.213-23.354-1.867-4.519-7.55-18.278-9.085-21.929-.843-2.005-1.586-3.578-2.137-4.681zm5.459 108.312c-22.532-10.577-37.091-33.48-37.091-58.348 0-23.025 10.63-42.062 29.935-53.611l1.312-.891 2.85.645c.059.102 1.472 2.532 3.359 7.024 1.841 4.377 9.614 23.21 9.693 23.4l-.776 2.451-.553.352c-6.005 5.109-9.179 12.24-9.179 20.63 0 10.297 5.655 19.703 14.759 24.547l.908 2.531-12.52 30.224-2.697 1.046z" fill="#373D44"/><path d="M115.392 132.289c0 16.454-13.338 29.792-29.792 29.792-1.516 0-3.005-.115-4.46-.333 0 0-7.822 19.207-9.716 23.455-1.894 4.249-2.424 7.333-2.424 7.333l.701.122c5.444 1.55 9.957 2.065 15.899 2.065 34.481 0 62.433-27.953 62.433-62.434 0-7.867-1.469-15.387-4.125-22.32l-30.18 12.501c1.073 3.076 1.664 6.377 1.664 9.819" fill="#49B9E8"/><path d="M71.414 191.054c4.542 1.195 8.633 1.668 14.186 1.668 33.323 0 60.433-27.11 60.433-60.433 0-6.731-1.105-13.339-3.29-19.673l-26.557 11c.8 2.82 1.206 5.73 1.206 8.673 0 17.53-14.262 31.792-31.792 31.792-1.059 0-2.125-.053-3.187-.159-1.856 4.55-7.558 18.495-9.162 22.096-.912 2.044-1.49 3.809-1.837 5.036m14.186 5.668c-6.386 0-10.98-.592-16.346-2.112l-.599-.104c-1.086-.191-1.813-1.223-1.626-2.309.024-.137.595-3.382 2.568-7.808 1.859-4.17 9.612-23.204 9.69-23.396.349-.854 1.237-1.357 2.149-1.223 1.377.206 2.779.311 4.164.311 15.324 0 27.792-12.467 27.792-27.792 0-3.126-.523-6.208-1.553-9.16-.349-1.001.143-2.101 1.123-2.507l30.181-12.501c.5-.206 1.061-.202 1.555.011.496.213.885.618 1.078 1.122 2.825 7.375 4.257 15.126 4.257 23.035 0 35.529-28.905 64.433-64.433 64.433" fill="#373D44"/><path d="M164 32.525c-.486 0-.974-.176-1.358-.533-.811-.75-.86-2.015-.11-2.826l12.552-13.556c.751-.811 2.017-.858 2.826-.108.811.75.86 2.016.11 2.826l-12.552 13.556c-.395.426-.931.641-1.468.641" fill="#373D44"/><path d="M152.68 33.152c-.794 0-1.545-.476-1.857-1.257l-11.679-29.182c-.411-1.026.088-2.19 1.113-2.601 1.029-.409 2.191.09 2.6 1.114l11.678 29.182c.412 1.026-.087 2.19-1.113 2.6-.244.098-.495.144-.742.144" fill="#373D44"/><path d="M181 87.234c0 2.355 1.909 4.265 4.265 4.265 2.355 0 4.265-1.91 4.265-4.265 0-2.355-1.91-4.265-4.265-4.265-2.356 0-4.265 1.91-4.265 4.265" fill="#373D44"/><path d="M113.914 51.969h26.497l-3.914 5.747h-26.497l3.914-5.747z" fill="#49B9E8"/><path d="M202.904 51.969h-26.904l4.31 5.747h25.923l-3.329-5.747z" fill="#49B9E8"/><path d="M141 72.568c0 9.72 7.879 17.599 17.599 17.599 9.719 0 17.599-7.879 17.599-17.599s-7.88-17.599-17.599-17.599c-9.72 0-17.599 7.879-17.599 17.599" fill="#AFBAC4"/><path d="M158.599 56.969c-8.602 0-15.599 6.998-15.599 15.599 0 8.601 6.997 15.599 15.599 15.599s15.599-6.998 15.599-15.599c0-8.601-6.997-15.599-15.599-15.599m0 35.198c-10.807 0-19.599-8.792-19.599-19.599s8.792-19.599 19.599-19.599 19.599 8.792 19.599 19.599-8.792 19.599-19.599 19.599" fill="#373D44"/><path d="M109 107.969h97.866l-7.129 12.572h-81.796l-8.941-12.572z" fill="#AFBAC4"/><path d="M110 108.969h97.179v-2h-97.179v2z" fill="#373D44"/><path d="M100.159 78.27c-1.547 2.672-1.547 5.992.001 8.664l17.616 30.418 80.654-.028 17.661-30.493c1.547-2.672 1.546-5.992-.001-8.664l-16.352-28.233c-.965-1.667-2.48-2.978-4.268-3.694l-34.111-13.648c-2.071-.829-4.353-.828-6.427.002l-34.112 13.674c-1.785.715-3.3 2.026-4.265 3.691l-16.396 28.311zm15.313 43.083l-18.773-32.414c-2.264-3.908-2.265-8.764-.001-12.673l16.397-28.312c1.41-2.434 3.626-4.352 6.237-5.399l34.112-13.674c3.031-1.215 6.368-1.215 9.402-.003l34.11 13.648c2.615 1.047 4.833 2.966 6.243 5.403l16.352 28.234c2.263 3.907 2.264 8.763.001 12.672l-18.815 32.488-85.265.03z" fill="#373D44"/><path d="M18 162.423h4v-22.454h-4v22.454z" fill="#373D44"/><path d="M5.957 101.943v25.259c0 5.436 4.438 9.856 9.893 9.856h8.301c5.454 0 9.893-4.421 9.893-9.856v-25.259h-28.086zm18.193 39.057h-8.301c-7.637 0-13.85-6.19-13.85-13.799v-29.201h36v29.201c0 7.609-6.214 13.799-13.85 13.799z" fill="#373D44"/><path d="M9 165h22v-4h-22v4z" fill="#373D44"/></g></g></svg>
