<svg height="241" width="402" xmlns="http://www.w3.org/2000/svg" viewBox="0 0 402 241"><path fill="#b8c0c9" opacity=".3" fill-rule="evenodd" d="M201 241c111.01 0 201-3.81 201-8.5 0-4.69-89.99-8.5-201-8.5s-201 3.81-201 8.5c0 4.69 89.99 8.5 201 8.5zm0 0"/><path stroke-width="4" stroke="#373d44" fill="#fff" fill-rule="evenodd" d="M25 31h242v158.01c0 1.1-.9 1.99-2 1.99h-238c-1.1 0-2-.9-2-1.99v-158.01zm0 0"/><path stroke-width="4" stroke="#373d44" fill-opacity=".4" fill="#b8c0c9" fill-rule="evenodd" d="M25 6c0-1.1.9-2 2-2h238c1.1 0 2 .9 2 2v21h-242v-21zm0 0"/><path fill="#373d44" fill-rule="evenodd" d="M36.5 19c1.93 0 3.5-1.57 3.5-3.5s-1.57-3.5-3.5-3.5-3.5 1.57-3.5 3.5 1.57 3.5 3.5 3.5zm0 0M47.5 19c1.93 0 3.5-1.57 3.5-3.5s-1.57-3.5-3.5-3.5-3.5 1.57-3.5 3.5 1.57 3.5 3.5 3.5zm0 0M58.5 19c1.93 0 3.5-1.57 3.5-3.5s-1.57-3.5-3.5-3.5-3.5 1.57-3.5 3.5 1.57 3.5 3.5 3.5zm0 0"/><path fill="#b8c0c9" opacity=".4" fill-rule="evenodd" d="M35 42h10v140h-10v-140zm0 0"/><path fill="#b8c0c9" fill-rule="evenodd" d="M49 42h19v6h-19v-6zm0 0M49 94h18v6h-18v-6zm0 0M49 146h18v6h-18v-6zm0 0M49 172h4v6h-4v-6zm0 0M101 172h33v6h-33v-6zm0 0M61 172h33v6h-33v-6zm0 0M49 159h33v6h-33v-6zm0 0M90 159h47v6h-47v-6zm0 0M145 159h18v6h-18v-6zm0 0M75 146h33v6h-33v-6zm0 0M49 120h4v6h-4v-6zm0 0M90 133h4v6h-4v-6zm0 0M101 120h62v6h-62v-6zm0 0M61 120h33v6h-33v-6zm0 0M49 107h33v6h-33v-6zm0 0M49 133h33v6h-33v-6zm0 0M90 107h47v6h-47v-6zm0 0M101 81h47v6h-47v-6zm0 0M145 107h18v6h-18v-6zm0 0M75 94h33v6h-33v-6zm0 0M49 68h4v6h-4v-6zm0 0M90 81h4v6h-4v-6zm0 0M101 68h33v6h-33v-6zm0 0M61 68h33v6h-33v-6zm0 0M49 55h33v6h-33v-6zm0 0M49 81h33v6h-33v-6zm0 0M90 55h47v6h-47v-6zm0 0M145 55h18v6h-18v-6zm0 0M156 81h18v6h-18v-6zm0 0M75 42h33v6h-33v-6zm0 0"/><path stroke-linejoin="round" stroke-width="4" stroke="#373d44" fill="#0070d3" fill-rule="evenodd" d="M145.26 143.12c17.82 0 32.26-14.38 32.26-32.13s-14.44-32.14-32.26-32.14-32.26 14.39-32.26 32.14 14.44 32.13 32.26 32.13zm0 0"/><path fill="#3ccd3f" fill-rule="evenodd" d="M174.23 96.85c8.56 0 15.49-6.91 15.49-15.43 0-8.51-6.93-15.42-15.49-15.42-8.55 0-15.48 6.91-15.48 15.42 0 8.52 6.93 15.43 15.48 15.43zm0 0"/><path fill="#fff" fill-rule="evenodd" d="M172.94 86.57c-.38 0-.64-.13-.9-.39l-3.87-3.86c-.52-.51-.52-1.28 0-1.8.52-.51 1.29-.51 1.81 0l3.87 3.86c.51.52.51 1.29 0 1.8-.26.26-.52.39-.91.39zm0 0M172.94 86.57c-.38 0-.64-.13-.9-.39-.52-.51-.52-1.28 0-1.8l7.74-7.71c.52-.52 1.29-.52 1.81 0 .52.51.52 1.28 0 1.8l-7.74 7.71c-.26.26-.52.39-.91.39zm0 0M139.23 117.97c-.33 0-.66-.13-.93-.37l-7.12-6.61 7.51-6.98c.58-.53 1.47-.48 1.99.13.52.6.46 1.53-.12 2.07l-5.15 4.78 4.76 4.41c.58.54.63 1.47.11 2.07-.27.33-.66.5-1.05.5zm12.59-.01l7.52-6.97-7.12-6.61c-.58-.54-1.47-.48-1.99.12-.51.61-.46 1.54.12 2.08l4.76 4.41-5.15 4.78c-.59.54-.64 1.46-.12 2.07.28.33.66.49 1.05.49.33 0 .67-.12.93-.37zm-6.58 2.09l2.82-17.63c.12-.8-.39-1.56-1.16-1.69-.77-.14-1.5.4-1.62 1.2l-2.82 17.63c-.12.8.39 1.56 1.16 1.69l.23.02c.68 0 1.28-.51 1.39-1.22zm0 0"/><path stroke-width="4" stroke="#373d44" fill="#d8d8d8" fill-rule="evenodd" d="M341 86c16.02 0 29-12.98 29-29s-12.98-29-29-29-29 12.98-29 29 12.98 29 29 29zm0 0"/><path fill="#3e454d" fill-rule="evenodd" d="M331 70c-1.7 0-3-1.3-3-3s1.3-3 3-3 3 1.3 3 3-1.3 3-3 3zm0-4c-.6 0-1 .4-1 1s.4 1 1 1 1-.4 1-1-.4-1-1-1zm0 0M352 70c-1.7 0-3-1.3-3-3s1.3-3 3-3 3 1.3 3 3-1.3 3-3 3zm0-4c-.6 0-1 .4-1 1s.4 1 1 1 1-.4 1-1-.4-1-1-1zm0 0M342 70c-1.7 0-3-1.3-3-3s1.3-3 3-3 3 1.3 3 3-1.3 3-3 3zm0-4c-.6 0-1 .4-1 1s.4 1 1 1 1-.4 1-1-.4-1-1-1zm0 0M342 50c-1.7 0-3-1.3-3-3s1.3-3 3-3 3 1.3 3 3-1.3 3-3 3zm0-4c-.6 0-1 .4-1 1s.4 1 1 1 1-.4 1-1-.4-1-1-1zm0 0M351.48 66c-.32 0-.48-.33-.48-1v-6c0-.67-.31-1-1-1h-17c-.69 0-1 .33-1 1v6c0 .67-.16 1-.85 1s-1.15-.45-1.15-1.11v-5.56c0-1.89 1.5-3.33 3.45-3.33h16.1c1.96 0 3.45 1.44 3.45 3.33v5.56c0 .66-.46 1.11-1.15 1.11h-.37zm0 0M342 66c-.6 0-1-.45-1-1.11v-7.78c0-.67.4-1.11 1-1.11s1 .44 1 1.11v7.78c0 .66-.4 1.11-1 1.11zm0 0M342 58.97c-.6 0-1-.45-1-1.11v-7.78c0-.67.4-1.11 1-1.11s1 .44 1 1.11v7.78c0 .66-.4 1.11-1 1.11zm0 0"/><path fill="#f0423a" fill-rule="evenodd" d="M361 51c7.73 0 14-6.27 14-14s-6.27-14-14-14-14 6.27-14 14 6.27 14 14 14zm0 0"/><path fill="#fff" fill-rule="evenodd" d="M356.2 43c-.36 0-.6-.12-.84-.36-.48-.48-.48-1.2 0-1.68l9.6-9.6c.48-.48 1.2-.48 1.68 0s.48 1.2 0 1.68l-9.6 9.6c-.24.24-.48.36-.84.36zm0 0M365.8 43c-.36 0-.6-.12-.84-.36l-9.6-9.6c-.48-.48-.48-1.2 0-1.68s1.2-.48 1.68 0l9.6 9.6c.48.48.48 1.2 0 1.68-.24.24-.48.36-.84.36zm0 0"/><path stroke-width="4" stroke="#373d44" fill="#d8d8d8" fill-rule="evenodd" d="M341 170c16.02 0 29-12.98 29-29s-12.98-29-29-29-29 12.98-29 29 12.98 29 29 29zm0 0"/><path fill="#373d44" fill-rule="evenodd" d="M340.9 143.76c-.12 0-.35 0-.47-.11l-12.74-5.74c-.46-.23-.69-.57-.69-1.03 0-.46.23-.8.69-1.03l12.74-5.74c.35-.11.7-.11.93 0l12.74 5.74c.46.23.69.57.69 1.03 0 .46-.23.8-.69 1.03l-12.74 5.74c-.12.11-.35.11-.46.11zm-9.96-6.88l9.96 4.48 9.96-4.48-9.96-4.47-9.96 4.47zm0 0M340.9 152.94c-.12 0-.35 0-.47-.11l-12.74-5.74c-.46-.23-.69-.57-.69-1.03 0-.46.23-.81.69-1.03l5.1-2.3c.58-.23 1.27 0 1.51.58.23.57 0 1.26-.58 1.49l-2.78 1.26 9.96 4.47 9.96-4.47-2.78-1.26c-.58-.23-.81-.92-.58-1.49.23-.58.92-.81 1.5-.58l5.1 2.3c.46.22.69.57.69 1.03 0 .46-.23.8-.69 1.03l-12.74 5.74c-.12.11-.35.11-.46.11zm0 0M340.9 148.35c-.12 0-.35 0-.47-.11l-12.74-5.74c-.46-.23-.69-.57-.69-1.03 0-.46.23-.8.69-1.03l5.1-2.3c.58-.23 1.27 0 1.51.58.23.57 0 1.26-.58 1.49l-2.78 1.26 9.96 4.47 9.96-4.47-2.78-1.26c-.58-.23-.81-.92-.58-1.49.23-.58.92-.81 1.5-.58l5.1 2.3c.46.23.69.57.69 1.03 0 .46-.23.8-.69 1.03l-12.74 5.74c-.12.11-.35.11-.46.11zm0 0"/><path fill="#f0423a" fill-rule="evenodd" d="M361 135c7.73 0 14-6.27 14-14s-6.27-14-14-14-14 6.27-14 14 6.27 14 14 14zm0 0"/><path fill="#fff" fill-rule="evenodd" d="M356.2 127c-.36 0-.6-.12-.84-.36-.48-.48-.48-1.2 0-1.68l9.6-9.6c.48-.48 1.2-.48 1.68 0s.48 1.2 0 1.68l-9.6 9.6c-.24.24-.48.36-.84.36zm0 0M365.8 127c-.36 0-.6-.12-.84-.36l-9.6-9.6c-.48-.48-.48-1.2 0-1.68s1.2-.48 1.68 0l9.6 9.6c.48.48.48 1.2 0 1.68-.24.24-.48.36-.84.36zm0 0"/><path stroke-dasharray="8" stroke-width="2" stroke="#373d44" opacity=".2" d="M297 5.01c0-1.11.9-2.01 2-2.01h84c1.1 0 2 .89 2 2.01v185.98c0 1.11-.9 2.01-2 2.01h-84c-1.1 0-2-.89-2-2.01v-185.98zm0 0" fill="none"/></svg>
