<svg width="40" height="40" viewBox="0 0 40 40" fill="none" xmlns="http://www.w3.org/2000/svg">
<g clip-path="url(#clip0)">
<path d="M2.7125 21.5438C3.375 16.9375 7.3375 13.3969 12.1281 13.3969C12.7156 13.3969 13.2937 13.4531 13.85 13.5563C14.65 8.68125 18.8781 4.95937 23.9781 4.95937C29.325 4.95937 33.7156 9.04688 34.2 14.2656C35.3 13.35 36.7156 12.7969 38.2594 12.7969C38.3969 12.7969 38.5312 12.8094 38.6656 12.8188C35.7812 5.32188 28.5156 0 20 0C8.95312 0 0 8.95312 0 20C0 20.6531 0.034375 21.3 0.09375 21.9375C0.740625 21.6687 1.44688 21.5187 2.19063 21.5187C2.36875 21.5187 2.54063 21.5281 2.7125 21.5438Z" fill="#6BBBE8"/>
<path d="M31.9502 25.4938C31.4877 29.4 28.1658 32.4312 24.1346 32.4312H4.34082C8.00332 37.0406 13.6533 40 20.0002 40C29.1721 40 36.8939 33.825 39.2533 25.4094C38.9283 25.4594 38.6002 25.4938 38.2596 25.4938H31.9502Z" fill="#6BBBE8"/>
<path d="M34.2035 14.2688C33.7191 9.05 29.3285 4.9625 23.9816 4.9625C18.8816 4.9625 14.6504 8.68437 13.8535 13.5594C16.4879 14.0406 18.741 15.6063 20.1379 17.775C21.3098 17.0844 22.6754 16.6844 24.1316 16.6844C28.4816 16.6844 32.0066 20.2094 32.0066 24.5594C32.0066 24.875 31.9848 25.1875 31.9504 25.4938H38.2629C38.6004 25.4938 38.9316 25.4594 39.2566 25.4094C39.7379 23.6875 40.0004 21.875 40.0004 20C40.0004 17.4688 39.5254 15.05 38.666 12.8219C38.5316 12.8125 38.3973 12.8 38.2598 12.8C36.7191 12.8 35.3035 13.3531 34.2035 14.2688Z" fill="#6BBBE8"/>
<path opacity="0.75" d="M34.2035 14.2688C33.7191 9.05 29.3285 4.9625 23.9816 4.9625C18.8816 4.9625 14.6504 8.68437 13.8535 13.5594C16.4879 14.0406 18.741 15.6063 20.1379 17.775C21.3098 17.0844 22.6754 16.6844 24.1316 16.6844C28.4816 16.6844 32.0066 20.2094 32.0066 24.5594C32.0066 24.875 31.9848 25.1875 31.9504 25.4938H38.2629C38.6004 25.4938 38.9316 25.4594 39.2566 25.4094C39.7379 23.6875 40.0004 21.875 40.0004 20C40.0004 17.4688 39.5254 15.05 38.666 12.8219C38.5316 12.8125 38.3973 12.8 38.2598 12.8C36.7191 12.8 35.3035 13.3531 34.2035 14.2688Z" fill="#207FC3"/>
<path d="M24.132 32.4313C28.1633 32.4313 31.4852 29.4 31.9477 25.4938H23.982C18.3133 25.4938 13.7164 20.8969 13.7164 15.2281C13.7164 14.6594 13.7664 14.1 13.8539 13.5563C13.2945 13.4531 12.7195 13.3969 12.132 13.3969C7.34141 13.3969 3.37891 16.9375 2.71328 21.5438C2.54141 21.5281 2.36953 21.5188 2.19453 21.5188C1.45078 21.5188 0.744531 21.6688 0.0976562 21.9375C0.475781 25.8844 2.00703 29.4938 4.34141 32.4313H24.132Z" fill="#6BBBE8"/>
<path d="M24.132 32.4313C28.1633 32.4313 31.4852 29.4 31.9477 25.4938H23.982C18.3133 25.4938 13.7164 20.8969 13.7164 15.2281C13.7164 14.6594 13.7664 14.1 13.8539 13.5563C13.2945 13.4531 12.7195 13.3969 12.132 13.3969C7.34141 13.3969 3.37891 16.9375 2.71328 21.5438C2.54141 21.5281 2.36953 21.5188 2.19453 21.5188C1.45078 21.5188 0.744531 21.6688 0.0976562 21.9375C0.475781 25.8844 2.00703 29.4938 4.34141 32.4313H24.132Z" fill="#DEF7FF"/>
<path d="M24.132 32.4313C28.1633 32.4313 31.4852 29.4 31.9477 25.4938H23.982C18.3133 25.4938 13.7164 20.8969 13.7164 15.2281C13.7164 14.6594 13.7664 14.1 13.8539 13.5563C13.2945 13.4531 12.7195 13.3969 12.132 13.3969C7.34141 13.3969 3.37891 16.9375 2.71328 21.5438C2.54141 21.5281 2.36953 21.5188 2.19453 21.5188C1.45078 21.5188 0.744531 21.6688 0.0976562 21.9375C0.475781 25.8844 2.00703 29.4938 4.34141 32.4313H24.132Z" fill="#DEF7FF"/>
<path d="M24.1314 16.6844C22.6721 16.6844 21.3064 17.0813 20.1377 17.775C18.7408 15.6031 16.4877 14.0406 13.8533 13.5594C13.7658 14.1031 13.7158 14.6625 13.7158 15.2313C13.7158 20.9 18.3127 25.4969 23.9814 25.4969H31.9471C31.9846 25.1906 32.0033 24.8781 32.0033 24.5625C32.0064 20.2094 28.4814 16.6844 24.1314 16.6844Z" fill="#6BBBE8"/>
<path opacity="0.75" d="M24.1314 16.6844C22.6721 16.6844 21.3064 17.0813 20.1377 17.775C18.7408 15.6031 16.4877 14.0406 13.8533 13.5594C13.7658 14.1031 13.7158 14.6625 13.7158 15.2313C13.7158 20.9 18.3127 25.4969 23.9814 25.4969H31.9471C31.9846 25.1906 32.0033 24.8781 32.0033 24.5625C32.0064 20.2094 28.4814 16.6844 24.1314 16.6844Z" fill="#207FC3"/>
<path d="M24.1314 16.6844C22.6721 16.6844 21.3064 17.0813 20.1377 17.775C18.7408 15.6031 16.4877 14.0406 13.8533 13.5594C13.7658 14.1031 13.7158 14.6625 13.7158 15.2313C13.7158 20.9 18.3127 25.4969 23.9814 25.4969H31.9471C31.9846 25.1906 32.0033 24.8781 32.0033 24.5625C32.0064 20.2094 28.4814 16.6844 24.1314 16.6844Z" fill="#DEF7FF"/>
<path d="M24.1314 16.6844C22.6721 16.6844 21.3064 17.0813 20.1377 17.775C18.7408 15.6031 16.4877 14.0406 13.8533 13.5594C13.7658 14.1031 13.7158 14.6625 13.7158 15.2313C13.7158 20.9 18.3127 25.4969 23.9814 25.4969H31.9471C31.9846 25.1906 32.0033 24.8781 32.0033 24.5625C32.0064 20.2094 28.4814 16.6844 24.1314 16.6844Z" fill="#DEF7FF"/>
</g>
<defs>
<clipPath id="clip0">
<rect width="40" height="40" fill="white"/>
</clipPath>
</defs>
</svg>
