<svg width="40" height="40" viewBox="0 0 40 40" fill="none" xmlns="http://www.w3.org/2000/svg">
<g clip-path="url(#clip0)">
<path d="M0 20C0 28.7 5.55625 36.0969 13.3094 38.85C12.9 38.4219 12.675 37.9688 12.675 37.5V33.2813C12.6688 33.2813 12.6625 33.2813 12.6594 33.2813C8.525 33.2813 5.15938 29.9156 5.15938 25.7813C5.15938 21.6469 8.525 18.2813 12.6594 18.2813C12.6656 18.2813 12.6719 18.2813 12.675 18.2813V14.0625C12.675 13.2094 13.4094 12.4094 14.6875 11.7188C13.4094 11.0281 12.675 10.2281 12.675 9.375V1.39062C5.25313 4.3125 0 11.5406 0 20Z" fill="#E39CC6"/>
<path d="M14.6873 25.7812C13.4092 25.0906 12.6748 24.2906 12.6748 23.4375V20.7812C12.6686 20.7812 12.6623 20.7812 12.6592 20.7812C9.90293 20.7812 7.65918 23.025 7.65918 25.7812C7.65918 28.5375 9.90293 30.7812 12.6592 30.7812C12.6654 30.7812 12.6717 30.7812 12.6748 30.7812V28.125C12.6748 27.2719 13.4092 26.4719 14.6873 25.7812Z" fill="#E39CC6"/>
<path d="M12.6748 28.125V30.7781C13.3436 30.775 13.9811 30.6406 14.5623 30.4C13.3623 29.7281 12.6748 28.95 12.6748 28.125Z" fill="#D34E92"/>
<path d="M18.8277 33.7156L17.0027 31.8906C15.7809 32.7625 14.2871 33.2781 12.6777 33.2812V37.5C12.6746 35.9469 15.0996 34.5687 18.8277 33.7156Z" fill="#D34E92"/>
<path d="M34.859 33.3844C35.2496 32.95 35.6246 32.4969 35.9777 32.0281C33.5996 32.5219 30.7465 32.8125 27.6777 32.8125C30.2777 32.8125 32.7246 33.0188 34.859 33.3844Z" fill="#D34E92"/>
<path d="M27.6754 32.8125C25.2629 32.8125 22.9816 32.6344 20.9629 32.3156L21.8285 33.1813C23.6254 32.9438 25.6004 32.8125 27.6754 32.8125Z" fill="#D34E92"/>
<path d="M12.6748 28.125C12.6748 28.95 13.3623 29.7281 14.5623 30.4C16.0436 29.7875 17.1654 28.4813 17.5279 26.8875C16.4092 26.5656 15.4498 26.1938 14.6842 25.7781C13.4092 26.4719 12.6748 27.2719 12.6748 28.125Z" fill="#E675AF"/>
<path d="M19.9686 27.4594C19.7436 28.4344 19.3311 29.3344 18.7686 30.1219L20.9623 32.3156C22.9811 32.6313 25.2623 32.8125 27.6748 32.8125C30.7467 32.8125 33.5998 32.525 35.9748 32.0281C37.2186 30.3812 38.2061 28.5344 38.8967 26.5469C36.1498 27.5156 32.1404 28.125 27.6748 28.125C24.8561 28.125 22.2217 27.8813 19.9686 27.4594Z" fill="#E675AF"/>
<path d="M21.8279 33.1813L22.8936 34.2469L21.1248 36.0156L18.8248 33.7156C15.0967 34.5687 12.6748 35.9469 12.6748 37.5C12.6748 37.9688 12.8998 38.4219 13.3092 38.85C15.4029 39.5938 17.6529 40 19.9998 40C25.8967 40 31.1998 37.4469 34.8592 33.3844C32.7248 33.0188 30.2779 32.8125 27.6748 32.8125C25.5998 32.8125 23.6248 32.9438 21.8279 33.1813Z" fill="#B52F73"/>
<path d="M27.6748 18.75C19.3904 18.75 12.6748 16.65 12.6748 14.0625V18.2813C14.4873 18.2844 16.1498 18.9344 17.4436 20.0125C20.1248 19.2281 23.7217 18.75 27.6748 18.75Z" fill="#D34E92"/>
<path d="M14.5654 21.1594C13.9811 20.9187 13.3436 20.7844 12.6748 20.7812V23.4375C12.6748 22.6094 13.3623 21.8344 14.5654 21.1594Z" fill="#D34E92"/>
<path d="M39.9811 20.7594C39.9904 20.5062 39.9998 20.2562 39.9998 20C39.9998 18.925 39.9123 17.8719 39.7498 16.8438C37.0186 18 32.6279 18.75 27.6748 18.75C32.7717 18.75 37.2686 19.5437 39.9811 20.7594Z" fill="#D34E92"/>
<path d="M14.6873 11.7188C13.4092 12.4094 12.6748 13.2094 12.6748 14.0625C12.6748 16.65 19.3904 18.75 27.6748 18.75C32.6279 18.75 37.0186 18 39.7498 16.8438C39.5154 15.3656 39.1154 13.9437 38.5779 12.5937C35.8436 13.4969 31.9717 14.0625 27.6779 14.0625C22.1248 14.0625 17.2811 13.1187 14.6873 11.7188Z" fill="#E675AF"/>
<path d="M17.4434 20.0125C19.0996 21.3906 20.1559 23.4656 20.1559 25.7812C20.1559 26.3594 20.0871 26.9188 19.9652 27.4594C22.2215 27.8813 24.8559 28.125 27.6746 28.125C32.1402 28.125 36.1496 27.5156 38.8965 26.5469C39.5277 24.7219 39.9027 22.7781 39.9777 20.7594C37.2684 19.5438 32.7715 18.75 27.6746 18.75C23.7215 18.75 20.1246 19.2281 17.4434 20.0125Z" fill="#B52F73"/>
<path d="M12.6748 23.4375C12.6748 24.2906 13.4092 25.0906 14.6873 25.7813C15.4529 26.1938 16.4123 26.5688 17.5311 26.8906C17.6123 26.5344 17.6592 26.1625 17.6592 25.7813C17.6592 23.7 16.3779 21.9125 14.5654 21.1594C13.3623 21.8344 12.6748 22.6094 12.6748 23.4375Z" fill="#B52F73"/>
<path d="M27.6748 4.6875C20.7154 4.6875 14.8654 3.20625 13.1717 1.19687C13.0061 1.25625 12.8404 1.325 12.6748 1.39062V9.375C12.6748 6.7875 19.3904 4.6875 27.6748 4.6875Z" fill="#D34E92"/>
<path d="M33.2467 5.02188C33.0186 4.81875 32.7873 4.62188 32.5498 4.43125C31.0217 4.59688 29.3842 4.6875 27.6748 4.6875C29.6467 4.6875 31.5248 4.80625 33.2467 5.02188Z" fill="#D34E92"/>
<path d="M27.675 4.6875C29.3813 4.6875 31.0219 4.59687 32.55 4.43437C29.1188 1.6625 24.7531 0 20 0C17.6031 0 15.3031 0.421875 13.1719 1.19687C14.8656 3.20625 20.7156 4.6875 27.675 4.6875Z" fill="#E675AF"/>
<path d="M12.6748 9.375C12.6748 10.2281 13.4092 11.0281 14.6873 11.7188C17.2811 13.1187 22.1248 14.0625 27.6748 14.0625C31.9717 14.0625 35.8404 13.4969 38.5748 12.5938C37.4061 9.66562 35.5686 7.07812 33.2467 5.025C31.5248 4.80625 29.6467 4.6875 27.6748 4.6875C19.3904 4.6875 12.6748 6.7875 12.6748 9.375Z" fill="#B52F73"/>
<path d="M18.8275 33.7156L21.1275 36.0156L22.8963 34.2469L21.8307 33.1812L20.965 32.3156L18.7713 30.1219C19.3338 29.3344 19.7463 28.4313 19.9713 27.4594C20.0963 26.9188 20.1619 26.3594 20.1619 25.7812C20.1619 23.4625 19.1057 21.3875 17.4494 20.0125C16.1525 18.9344 14.49 18.2875 12.6807 18.2812C12.6744 18.2812 12.6682 18.2812 12.665 18.2812C8.53066 18.2812 5.16504 21.6469 5.16504 25.7812C5.16504 29.9156 8.53066 33.2812 12.665 33.2812C12.6713 33.2812 12.6775 33.2812 12.6807 33.2812C14.2932 33.2781 15.7838 32.7625 17.0057 31.8906L18.8275 33.7156ZM12.6588 30.7812C9.90254 30.7812 7.65879 28.5375 7.65879 25.7812C7.65879 23.025 9.90254 20.7812 12.6588 20.7812C12.665 20.7812 12.6713 20.7812 12.6744 20.7812C13.3432 20.7844 13.9807 20.9187 14.565 21.1594C16.3775 21.9094 17.6588 23.6969 17.6588 25.7812C17.6588 26.1625 17.6119 26.5344 17.5307 26.8906C17.1682 28.4844 16.0463 29.7906 14.565 30.4031C13.9838 30.6438 13.3463 30.7781 12.6775 30.7812C12.6682 30.7781 12.665 30.7812 12.6588 30.7812Z" fill="#FFBFE3"/>
</g>
<defs>
<clipPath id="clip0">
<rect width="40" height="40" fill="white"/>
</clipPath>
</defs>
</svg>
