<svg width="40" height="40" viewBox="0 0 40 40" fill="none" xmlns="http://www.w3.org/2000/svg">
<path d="M20 0C8.95312 0 0 8.95312 0 20C0 30.4219 7.975 38.9812 18.1531 39.9125C17.7094 39.5219 17.4281 38.95 17.4281 38.3094V35.1H14.175C12.9938 35.1 12.0344 34.1406 12.0344 32.9594V29.75H8.82812C7.64687 29.75 6.6875 28.7906 6.6875 27.6094V12.6344L15.2469 4.075H23.8062C24.9875 4.075 25.9469 5.03437 25.9469 6.21562V9.425H29.1562C30.3375 9.425 31.2969 10.3844 31.2969 11.5656V14.775H34.55C35.7313 14.775 36.6906 15.7344 36.6906 16.9156V31.0281C38.7781 27.8625 40 24.075 40 20C40 8.95312 31.0469 0 20 0Z" fill="#E39CC6"/>
<path d="M20.5938 9.425H25.9437V6.21562C25.9437 5.03437 24.9844 4.075 23.8031 4.075H15.2469V8.35312C15.2469 10.7156 13.3312 12.6312 10.9687 12.6312H6.6875V27.6094C6.6875 28.7906 7.64688 29.75 8.82812 29.75H12.0375V17.9812L20.5938 9.425Z" fill="#B52F73"/>
<path d="M15.2469 8.35312V4.075L6.6875 12.6344H10.9656C13.3313 12.6344 15.2469 10.7156 15.2469 8.35312Z" fill="#FFBFE3"/>
<path d="M17.4287 23.3312L25.9881 14.7719H31.2943V11.5625C31.2943 10.3812 30.335 9.42187 29.1537 9.42187H25.9443H20.5943V13.7C20.5943 16.0625 18.6787 17.9781 16.3162 17.9781H12.0381V29.75V32.9594C12.0381 34.1406 12.9975 35.1 14.1787 35.1H17.4318V23.3312H17.4287Z" fill="#D34E92"/>
<path d="M16.3162 17.9812C18.6787 17.9812 20.5943 16.0656 20.5943 13.7031V9.425L12.0381 17.9812H16.3162Z" fill="#FFBFE3"/>
<path d="M34.5475 14.7719H31.2943H25.9881V19.05C25.9881 21.4125 24.0725 23.3281 21.71 23.3281H17.4287V35.0969V38.3062C17.4287 38.9469 17.71 39.5187 18.1537 39.9094C18.7631 39.9687 19.3787 40 20.0006 40C26.9725 40 33.1068 36.4312 36.685 31.025V16.9125C36.685 15.7312 35.7287 14.7719 34.5475 14.7719Z" fill="#E675AF"/>
<path d="M17.4287 23.3313H21.7068C24.0693 23.3313 25.985 21.4156 25.985 19.0531V14.7719L17.4287 23.3313Z" fill="#FFBFE3"/>
</svg>
