<svg width="40" height="40" viewBox="0 0 40 40" fill="none" xmlns="http://www.w3.org/2000/svg">
<path d="M4.62832 23.7375L34.6596 6.4L33.4408 7.10312L26.2377 11.2625C24.2502 12.4094 21.7064 11.7281 20.5564 9.74062C19.4096 7.75312 20.0908 5.20937 22.0783 4.05937L14.8752 8.21875C12.8877 9.36875 12.2064 11.9094 13.3533 13.9C14.5002 15.8875 17.0439 16.5719 19.0346 15.4219L4.62832 23.7375C3.24707 24.5344 1.60332 24.45 0.34082 23.6594C0.481445 24.4219 0.662695 25.1687 0.887695 25.9L4.62832 23.7375Z" fill="#5162AA"/>
<path d="M12.9434 38.1438L20.1465 33.9844C18.159 35.1313 15.6152 34.45 14.4684 32.4625C13.3215 30.475 14.0027 27.9312 15.9902 26.7812L23.1902 22.625L4.94336 33.1594C6.97148 35.4781 9.52461 37.3219 12.4184 38.5094C12.584 38.3781 12.7559 38.2531 12.9434 38.1438Z" fill="#5162AA"/>
<path d="M4.62813 23.7375L19.0344 15.4219C17.0469 16.5688 14.5031 15.8875 13.3531 13.9C12.2063 11.9125 12.8875 9.36875 14.875 8.21875L7.675 12.375L0.46875 16.5344C0.403125 16.5719 0.34375 16.6156 0.284375 16.6531C0.1 17.7438 0 18.8594 0 20C0 21.25 0.121875 22.4719 0.340625 23.6594C1.60312 24.45 3.24688 24.5344 4.62813 23.7375Z" fill="#445096"/>
<path d="M34.5533 25.6687L20.1471 33.9844L12.9439 38.1437C12.7564 38.2531 12.5814 38.3781 12.4189 38.5094C14.7564 39.4688 17.3158 40 20.0002 40C23.4533 40 26.7002 39.125 29.5346 37.5844C28.0627 37.6219 26.6158 36.8719 25.8283 35.5063C24.6814 33.5188 25.3627 30.975 27.3502 29.825L34.5533 25.6687L39.8252 22.625L34.5533 25.6687Z" fill="#6B79B3"/>
<path d="M7.67168 12.3781C5.7498 13.4875 3.31543 12.8844 2.11543 11.05C1.24355 12.7906 0.61543 14.675 0.28418 16.6594C0.34668 16.6188 0.406055 16.5781 0.468555 16.5406L7.67168 12.3781Z" fill="#5162AA"/>
<path d="M23.191 22.625L30.3941 18.4656L15.991 26.7812L8.78789 30.9406C6.80039 32.0875 4.25664 31.4062 3.10664 29.4187C1.95977 27.4312 2.64102 24.8875 4.62852 23.7375L0.884766 25.9C1.72227 28.6125 3.12227 31.075 4.94414 33.1594L23.191 22.625Z" fill="#353F80"/>
<path d="M7.67246 12.3781L14.8756 8.21874L22.0787 4.05937C20.0912 5.20624 19.41 7.74999 20.5568 9.74062C21.7037 11.7281 24.2475 12.4125 26.2381 11.2625L33.4381 7.10312C31.4506 8.24999 28.9068 7.56874 27.7568 5.58124C27.01 4.28749 27.0412 2.76249 27.6975 1.53749C27.4506 1.43437 27.2037 1.33749 26.9537 1.24374L14.8756 8.21874C12.8881 9.36562 10.3443 8.68437 9.19434 6.69687C8.59746 5.66249 8.49746 4.47812 8.81934 3.41562C5.97871 5.33437 3.66309 7.96562 2.11621 11.0469C3.31621 12.8844 5.75059 13.4875 7.67246 12.3781Z" fill="#7E8ABF"/>
<path d="M34.5528 25.6687L27.3497 29.825C25.3622 30.9719 22.8185 30.2906 21.6685 28.3031C20.5216 26.3156 21.2028 23.7719 23.1903 22.6219L15.9903 26.7812C14.0028 27.9281 13.3185 30.4719 14.4685 32.4625C15.6153 34.45 18.1591 35.1312 20.1466 33.9844L34.5528 25.6687Z" fill="#445096"/>
<path d="M4.62762 23.7375C2.64012 24.8844 1.95887 27.4281 3.10574 29.4188C4.25262 31.4063 6.79637 32.0906 8.78699 30.9406L15.9901 26.7813C14.0026 27.9281 11.4589 27.2469 10.3089 25.2594C9.16199 23.2719 9.84324 20.7281 11.8307 19.5781L34.6589 6.39688L4.62762 23.7375Z" fill="#A6B1DC"/>
<path d="M30.3942 18.4656L23.1911 22.625C21.2036 23.775 20.5223 26.3156 21.6692 28.3062C22.8161 30.2937 25.3598 30.9781 27.3505 29.8281L34.5505 25.6719C32.563 26.8187 30.0192 26.1375 28.8723 24.15C27.7255 22.1562 28.4067 19.6125 30.3942 18.4656L38.9255 13.5406L30.3942 18.4656Z" fill="#A6B1DC"/>
<path d="M9.19349 6.69688C10.3404 8.68437 12.8841 9.36875 14.8747 8.21875L26.9529 1.24375C24.7872 0.440625 22.4466 0 19.9997 0C15.8591 0 12.0122 1.25938 8.81849 3.41563C8.49974 4.475 8.59662 5.65938 9.19349 6.69688Z" fill="#445096"/>
<path d="M10.309 25.2594C11.4559 27.2469 13.9996 27.9313 15.9902 26.7813L30.3965 18.4656C28.409 19.6125 25.8652 18.9313 24.7152 16.9438C23.5684 14.9563 24.2496 12.4125 26.2371 11.2625L34.659 6.40001L11.8309 19.5781C9.84024 20.7281 9.15899 23.2719 10.309 25.2594Z" fill="#6B79B3"/>
<path d="M33.031 31.3469C31.8841 29.3594 32.5653 26.8156 34.5528 25.6656L27.3497 29.825C25.3622 30.9719 24.6778 33.5156 25.8278 35.5062C26.6153 36.8719 28.0622 37.6219 29.5341 37.5844C31.6435 36.4375 33.5185 34.9219 35.0841 33.125C34.2497 32.7906 33.5153 32.1875 33.031 31.3469Z" fill="#5162AA"/>
<path d="M34.5534 25.6688C32.5659 26.8156 31.8847 29.3594 33.0315 31.35C33.5159 32.1906 34.2503 32.7906 35.0846 33.1281C37.6003 30.2375 39.3003 26.6188 39.8253 22.6281L34.5534 25.6688Z" fill="#445096"/>
<path d="M28.8723 24.1469C30.0192 26.1344 32.563 26.8156 34.5505 25.6688L39.8192 22.625C39.8442 22.4375 39.8723 22.2469 39.8911 22.0563C38.3786 22.1344 36.8786 21.3875 36.0723 19.9844C34.9255 17.9969 35.6067 15.4531 37.5942 14.3031L38.9255 13.5344L30.3942 18.4594C28.4067 19.6125 27.7255 22.1563 28.8723 24.1469Z" fill="#5162AA"/>
<path d="M24.7131 16.9438C25.8599 18.9313 28.4037 19.6156 30.3943 18.4656L38.9256 13.5406C38.0099 10.8594 36.5443 8.43438 34.6568 6.40001L26.2381 11.2625C24.2474 12.4094 23.5662 14.9531 24.7131 16.9438Z" fill="#445096"/>
<path d="M27.76 5.58126C28.9069 7.56876 31.4506 8.25001 33.4413 7.10313L34.66 6.40001C32.7288 4.31876 30.36 2.65001 27.7006 1.53751C27.0444 2.76251 27.0131 4.28751 27.76 5.58126Z" fill="#A6B1DC"/>
<path d="M36.0745 19.9875C36.8839 21.3875 38.3839 22.1375 39.8932 22.0594C39.962 21.3812 39.9995 20.6969 39.9995 20.0031C39.9995 17.7406 39.6182 15.5687 38.9276 13.5406L37.5964 14.3094C35.6089 15.4562 34.9276 17.9969 36.0745 19.9875Z" fill="#6B79B3"/>
</svg>
