<svg width="40" height="40" viewBox="0 0 40 40" fill="none" xmlns="http://www.w3.org/2000/svg">
<path d="M30.4775 12.5C32.5494 12.5 34.2275 14.1781 34.2275 16.25V23.75C34.2275 25.8219 32.5494 27.5 30.4775 27.5C32.5494 27.5 34.2275 29.1781 34.2275 31.25V34.0531C37.7963 30.4406 39.9994 25.4781 39.9994 20C39.9994 14.5219 37.7963 9.55937 34.2275 5.94687V8.75C34.2275 10.8219 32.5494 12.5 30.4775 12.5Z" fill="#A6B1DC"/>
<path d="M34.2277 34.0531V31.25C34.2277 29.1781 32.5496 27.5 30.4777 27.5H1.45898C2.16211 29.2406 3.10586 30.8563 4.24648 32.3125C4.33711 31.7125 4.85273 31.25 5.47774 31.25C6.16836 31.25 6.72774 31.8094 6.72774 32.5V34.9563C7.50899 35.65 8.34336 36.2813 9.22774 36.8469V32.5C9.22774 31.8094 9.78711 31.25 10.4777 31.25C11.1684 31.25 11.7277 31.8094 11.7277 32.5V37.5C11.7277 37.7312 11.6621 37.9438 11.5527 38.1281C14.1184 39.3281 16.9809 40 19.9996 40C25.5684 40 30.5996 37.7219 34.2277 34.0531ZM22.9777 38.75C20.9059 38.75 19.2277 37.0719 19.2277 35C19.2277 32.9281 20.9059 31.25 22.9777 31.25C25.0496 31.25 26.7277 32.9281 26.7277 35C26.7277 37.0719 25.0496 38.75 22.9777 38.75Z" fill="#353F80"/>
<path d="M34.2285 23.75V16.25C34.2285 14.1781 32.5504 12.5 30.4785 12.5H1.45977C0.972266 13.7 0.600391 14.9594 0.353516 16.2625C0.394141 16.2594 0.434766 16.25 0.478516 16.25C1.16914 16.25 1.72852 16.8094 1.72852 17.5V22.5C1.72852 23.1906 1.16914 23.75 0.478516 23.75C0.434766 23.75 0.397266 23.7406 0.353516 23.7375C0.600391 25.0406 0.972266 26.3 1.45977 27.5H30.4785C32.5504 27.5 34.2285 25.8219 34.2285 23.75ZM6.72852 22.5C6.72852 23.1906 6.16914 23.75 5.47852 23.75C4.78789 23.75 4.22852 23.1906 4.22852 22.5V17.5C4.22852 16.8094 4.78789 16.25 5.47852 16.25C6.16914 16.25 6.72852 16.8094 6.72852 17.5V22.5ZM11.7285 22.5C11.7285 23.1906 11.1691 23.75 10.4785 23.75C9.78789 23.75 9.22852 23.1906 9.22852 22.5V17.5C9.22852 16.8094 9.78789 16.25 10.4785 16.25C11.1691 16.25 11.7285 16.8094 11.7285 17.5V22.5ZM22.9785 23.75C20.9066 23.75 19.2285 22.0719 19.2285 20C19.2285 17.9281 20.9066 16.25 22.9785 16.25C25.0504 16.25 26.7285 17.9281 26.7285 20C26.7285 22.0719 25.0504 23.75 22.9785 23.75Z" fill="#445096"/>
<path d="M34.2277 8.75V5.94688C30.5996 2.275 25.5684 0 19.9996 0C16.9809 0 14.1184 0.671875 11.5527 1.87187C11.6621 2.05625 11.7277 2.26875 11.7277 2.5V7.5C11.7277 8.19063 11.1684 8.75 10.4777 8.75C9.78711 8.75 9.22774 8.19063 9.22774 7.5V3.15313C8.34336 3.71875 7.50899 4.35 6.72774 5.04375V7.5C6.72774 8.19063 6.16836 8.75 5.47774 8.75C4.85273 8.75 4.33711 8.2875 4.24648 7.6875C3.10586 9.14375 2.16211 10.7594 1.45898 12.5H30.4777C32.5496 12.5 34.2277 10.8219 34.2277 8.75ZM22.9777 8.75C20.9059 8.75 19.2277 7.07188 19.2277 5C19.2277 2.92812 20.9059 1.25 22.9777 1.25C25.0496 1.25 26.7277 2.92812 26.7277 5C26.7277 7.07188 25.0496 8.75 22.9777 8.75Z" fill="#5162AA"/>
<path d="M5.47832 31.25C4.85332 31.25 4.3377 31.7125 4.24707 32.3125C4.99395 33.2656 5.82207 34.15 6.72832 34.9562V32.5C6.72832 31.8094 6.16895 31.25 5.47832 31.25Z" fill="#5162AA"/>
<path d="M11.7275 32.5C11.7275 31.8094 11.1682 31.25 10.4775 31.25C9.78691 31.25 9.22754 31.8094 9.22754 32.5V36.8469C9.97129 37.3219 10.7463 37.7531 11.5525 38.1281C11.6619 37.9437 11.7275 37.7312 11.7275 37.5V32.5Z" fill="#5162AA"/>
<path d="M22.9775 38.75C25.0486 38.75 26.7275 37.0711 26.7275 35C26.7275 32.9289 25.0486 31.25 22.9775 31.25C20.9065 31.25 19.2275 32.9289 19.2275 35C19.2275 37.0711 20.9065 38.75 22.9775 38.75Z" fill="#5162AA"/>
<path d="M1.72813 22.5V17.5C1.72813 16.8094 1.16875 16.25 0.478125 16.25C0.434375 16.25 0.396875 16.2594 0.353125 16.2625C0.125 17.475 0 18.7219 0 20C0 21.2781 0.125 22.525 0.353125 23.7375C0.39375 23.7406 0.434375 23.75 0.478125 23.75C1.16875 23.75 1.72813 23.1906 1.72813 22.5Z" fill="#6B79B3"/>
<path d="M5.47754 16.25C4.78691 16.25 4.22754 16.8094 4.22754 17.5V22.5C4.22754 23.1906 4.78691 23.75 5.47754 23.75C6.16816 23.75 6.72754 23.1906 6.72754 22.5V17.5C6.72754 16.8094 6.16816 16.25 5.47754 16.25Z" fill="#6B79B3"/>
<path d="M10.4775 16.25C9.78691 16.25 9.22754 16.8094 9.22754 17.5V22.5C9.22754 23.1906 9.78691 23.75 10.4775 23.75C11.1682 23.75 11.7275 23.1906 11.7275 22.5V17.5C11.7275 16.8094 11.1682 16.25 10.4775 16.25Z" fill="#6B79B3"/>
<path d="M22.9775 23.75C25.0486 23.75 26.7275 22.0711 26.7275 20C26.7275 17.9289 25.0486 16.25 22.9775 16.25C20.9065 16.25 19.2275 17.9289 19.2275 20C19.2275 22.0711 20.9065 23.75 22.9775 23.75Z" fill="#6B79B3"/>
<path d="M5.47832 8.75C6.16895 8.75 6.72832 8.19062 6.72832 7.5V5.04375C5.82207 5.84687 4.99395 6.73125 4.24707 7.6875C4.3377 8.2875 4.8502 8.75 5.47832 8.75Z" fill="#7E8ABF"/>
<path d="M10.4775 8.75C11.1682 8.75 11.7275 8.19063 11.7275 7.5V2.5C11.7275 2.26875 11.6619 2.05625 11.5525 1.87188C10.7463 2.24688 9.97129 2.67813 9.22754 3.15313V7.5C9.22754 8.19063 9.78691 8.75 10.4775 8.75Z" fill="#7E8ABF"/>
<path d="M22.9775 8.75C25.0486 8.75 26.7275 7.07107 26.7275 5C26.7275 2.92893 25.0486 1.25 22.9775 1.25C20.9065 1.25 19.2275 2.92893 19.2275 5C19.2275 7.07107 20.9065 8.75 22.9775 8.75Z" fill="#7E8ABF"/>
</svg>
