<svg width="40" height="40" viewBox="0 0 40 40" fill="none" xmlns="http://www.w3.org/2000/svg">
<path d="M20 0C8.95312 0 0 8.95312 0 20C0 31.0469 8.95312 40 20 40C20.7094 40 21.4125 39.9625 22.1031 39.8906L12.5687 34.3875V26.3969L5.65312 22.4031L12.5719 18.4094L16.7219 20.8063L19.4875 22.4031L26.4062 26.3969L12.5719 18.4094L5.65312 14.4156L12.5719 10.4219L19.4906 6.42812L26.4062 10.4219L33.325 6.42812L35.9656 7.95312C32.3125 3.12188 26.5219 0 20 0Z" fill="#6DD6C8"/>
<path d="M36.332 20.6656L39.9445 18.5813L34.3164 21.8313L36.332 20.6656Z" fill="#6DD6C8"/>
<path d="M26.4064 10.4219L19.4877 6.42813L12.5721 10.4219L5.65332 14.4156L12.5721 18.4094L19.4908 14.4156L26.4064 10.4219L39.9189 18.2219C39.5814 14.3844 38.1627 10.8594 35.9658 7.95L33.3252 6.425L26.4064 10.4219Z" fill="#89E6DB"/>
<path d="M19.4873 22.4031L26.4061 26.3969L19.4873 22.4031L16.7217 20.8063L19.4873 22.4031Z" fill="#68C0B5"/>
<path d="M12.5713 26.3969V34.3844L19.4869 30.3906L12.5713 26.3969Z" fill="#68C0B5"/>
<path d="M36.0348 31.9563C37.0848 30.55 37.9473 29 38.6035 27.3438L33.3223 30.3906L36.0348 31.9563Z" fill="#059B9B"/>
<path d="M26.4062 26.3969L33.3219 22.4031L36.3312 20.6656L34.3156 21.8313L26.4062 26.3969Z" fill="#059B9B"/>
<path d="M12.5713 34.3844L22.1025 39.8906L12.5713 34.3844Z" fill="#6DD6C8"/>
<path opacity="0.5" d="M12.5713 34.3844L22.1025 39.8906L12.5713 34.3844Z" fill="#059B9B"/>
<path d="M26.4068 26.3969L19.4881 30.3906L12.5693 34.3844L22.1037 39.8875C23.5943 39.7312 25.0318 39.4094 26.4037 38.9438V26.3969H26.4068Z" fill="#43B0A2"/>
<path d="M33.3219 30.3906L26.4062 26.3969V38.9469C30.2844 37.6344 33.6344 35.1719 36.0344 31.9562L33.3219 30.3906Z" fill="#008A8A"/>
<path d="M26.4062 26.3969L34.3156 21.8313L39.9437 18.5813C39.9344 18.4625 39.9281 18.3438 39.9156 18.2219L26.4062 10.4219V26.3969Z" fill="#43B0A2"/>
<path d="M26.4057 26.3969V10.4219L19.4869 14.4156L12.5713 18.4094L26.4057 26.3969Z" fill="#008A8A"/>
<path d="M33.3219 22.4031L26.4062 26.3969L33.325 30.3906L38.6063 27.3438C39.5 25.0688 40 22.5938 40 20C40 19.5219 39.9781 19.05 39.9438 18.5813L36.3313 20.6656L33.3219 22.4031Z" fill="#89E6DB"/>
<path d="M12.5721 26.3969L19.4877 30.3906L26.4064 26.3969L19.4877 22.4031L16.7221 20.8062L12.5721 18.4094L5.65332 22.4031L12.5721 26.3969Z" fill="#89E6DB"/>
</svg>
