<svg width="40" height="40" viewBox="0 0 40 40" fill="none" xmlns="http://www.w3.org/2000/svg">
<g clip-path="url(#clip0)">
<path d="M20 0C8.95312 0 0 8.95312 0 20C0 23.8531 1.09375 27.45 2.98125 30.5063V26.8312L9.39062 23.1312L12.5969 24.9813V15.8063L17.375 13.0469V5.64375L23.7844 1.94375L30.1938 5.64375V13.0469L34.9719 15.8063V28.725L23.7844 35.1875L15.8031 30.5781V34.2344L10.2313 37.4531L15.8031 34.2344L22.2125 37.9344L18.7125 39.9562C19.1406 39.9844 19.5688 40.0031 20.0031 40.0031C23.1188 40.0031 26.0656 39.2906 28.6938 38.0219L23.7906 35.1906L34.9813 28.7313L37.2906 30.0625C39.0094 27.1031 40 23.6688 40 20C40 8.95312 31.0469 0 20 0Z" fill="#6DD6C8"/>
<path d="M29.1133 19.1906L28.5664 19.5062L23.7883 16.7469L30.1977 13.0469L34.9758 15.8063L30.1977 13.0469L23.7852 16.7469L17.3758 13.0469L12.5977 15.8063L23.7852 22.2656L29.1133 19.1906Z" fill="#89E6DB"/>
<path d="M15.8039 26.875L23.7852 22.2656L12.5977 15.8062V24.9781L15.8039 26.8312V26.875Z" fill="#68C0B5"/>
<path d="M23.7842 22.2656L34.9748 28.725V15.8062L29.1123 19.1906L23.7842 22.2656Z" fill="#059B9B"/>
<path d="M15.8027 30.5781L23.784 35.1875L15.8027 30.575V30.5781Z" fill="#6DD6C8"/>
<path opacity="0.5" d="M15.8027 30.5781L23.784 35.1875L15.8027 30.575V30.5781Z" fill="#059B9B"/>
<path d="M15.8027 26.875V30.575L23.784 35.1875V22.2656L15.8027 26.875Z" fill="#43B0A2"/>
<path d="M23.7842 35.1875L34.9748 28.725L23.7842 22.2656V35.1875Z" fill="#008A8A"/>
<path d="M30.1969 5.64376L23.7844 1.94376L17.375 5.64376L23.7844 9.34688L30.1969 5.64376Z" fill="#89E6DB"/>
<path d="M23.7844 9.34688L17.375 5.64375V13.0469L23.7844 9.34688Z" fill="#68C0B5"/>
<path d="M30.1967 13.0469V5.64375L23.7842 9.34688L30.1967 13.0469Z" fill="#059B9B"/>
<path d="M17.375 13.0469L23.7844 16.7469L17.375 13.0469Z" fill="#89E6DB"/>
<path opacity="0.5" d="M17.375 13.0469L23.7844 16.7469L17.375 13.0469Z" fill="#059B9B"/>
<path d="M23.7844 9.34688L17.375 13.0469L23.7844 16.7469V9.34688Z" fill="#43B0A2"/>
<path d="M23.7842 16.7469L30.1967 13.0469L23.7842 9.34688V16.7469Z" fill="#008A8A"/>
<path d="M15.8033 26.8312L12.5971 24.9781L9.39082 23.1281L2.98145 26.8312L9.39082 30.5312L15.8033 26.8312Z" fill="#89E6DB"/>
<path d="M2.98145 26.8313V30.5063C3.55332 31.4313 4.2002 32.3031 4.90957 33.1188L9.39082 30.5313L2.98145 26.8313Z" fill="#68C0B5"/>
<path d="M15.8031 26.875V26.8313L9.39062 30.5313L15.8031 34.2313V30.5781V30.575V26.875Z" fill="#059B9B"/>
<path d="M4.90918 33.1188C6.20293 34.6063 7.7123 35.9 9.39043 36.9531V30.5312L4.90918 33.1188Z" fill="#43B0A2"/>
<path d="M9.39062 30.5312V36.9531C9.66563 37.125 9.94375 37.2906 10.2281 37.45L15.8 34.2312L9.39062 30.5312Z" fill="#008A8A"/>
<path d="M15.8033 34.2312L10.2314 37.45C12.7689 38.875 15.6471 39.7594 18.7127 39.9562L22.2127 37.9344L15.8033 34.2312Z" fill="#6DD6C8"/>
<path d="M15.8033 34.2312L10.2314 37.45C12.7689 38.875 15.6471 39.7594 18.7127 39.9562L22.2127 37.9344L15.8033 34.2312Z" fill="url(#paint0_linear)"/>
<path d="M23.7871 35.1875L28.6902 38.0188C32.2871 36.2813 35.2809 33.4938 37.284 30.0594L34.9746 28.7281L23.7871 35.1875Z" fill="#6DD6C8"/>
<path d="M23.7871 35.1875L28.6902 38.0188C32.2871 36.2813 35.2809 33.4938 37.284 30.0594L34.9746 28.7281L23.7871 35.1875Z" fill="url(#paint1_linear)"/>
<path d="M30.1965 13.0469L23.7871 16.7469L28.5652 19.5062L29.1121 19.1906L34.9746 15.8063L30.1965 13.0469Z" fill="#89E6DB"/>
<path d="M30.1965 13.0469L23.7871 16.7469L28.5652 19.5062L29.1121 19.1906L34.9746 15.8063L30.1965 13.0469Z" fill="url(#paint2_linear)"/>
<path d="M29.1123 19.1906L34.9748 15.8062L29.1123 19.1906Z" fill="#059B9B"/>
<path d="M29.1123 19.1906L34.9748 15.8062L29.1123 19.1906Z" fill="url(#paint3_linear)"/>
</g>
<defs>
<linearGradient id="paint0_linear" x1="14.7446" y1="34.9325" x2="17.4968" y2="40.0759" gradientUnits="userSpaceOnUse">
<stop stop-color="#059B9B"/>
<stop offset="1" stop-color="#059B9B" stop-opacity="0"/>
</linearGradient>
<linearGradient id="paint1_linear" x1="30.0001" y1="31.6235" x2="34.8043" y2="40.6018" gradientUnits="userSpaceOnUse">
<stop stop-color="#059B9B"/>
<stop offset="1" stop-color="#059B9B" stop-opacity="0"/>
</linearGradient>
<linearGradient id="paint2_linear" x1="28.2604" y1="14.1843" x2="30.3378" y2="18.0666" gradientUnits="userSpaceOnUse">
<stop stop-color="#059B9B"/>
<stop offset="1" stop-color="#059B9B" stop-opacity="0"/>
</linearGradient>
<linearGradient id="paint3_linear" x1="29.8237" y1="13.3479" x2="31.9011" y2="17.2302" gradientUnits="userSpaceOnUse">
<stop stop-color="#059B9B"/>
<stop offset="1" stop-color="#059B9B" stop-opacity="0"/>
</linearGradient>
<clipPath id="clip0">
<rect width="40" height="40" fill="white"/>
</clipPath>
</defs>
</svg>
