<svg width="40" height="40" viewBox="0 0 40 40" fill="none" xmlns="http://www.w3.org/2000/svg">
<path d="M20 0C8.95312 0 0 8.95312 0 20C0 31.0469 8.95312 40 20 40C31.0469 40 40 31.0469 40 20C40 8.95312 31.0469 0 20 0ZM27.5 26.5C27.5 27.0531 27.0531 27.5 26.5 27.5H21C20.4469 27.5 20 27.0531 20 26.5V25.625C20 22.5187 17.4813 20 14.375 20H13.5C12.9469 20 12.5 19.5531 12.5 19V13.5C12.5 12.9469 12.9469 12.5 13.5 12.5H14.375C21.625 12.5 27.5 18.375 27.5 25.625V26.5Z" fill="url(#paint0_radial)"/>
<path d="M14.375 12.5H13.5C12.9469 12.5 12.5 12.9469 12.5 13.5V19C12.5 19.5531 12.9469 20 13.5 20H14.375C17.4812 20 20 22.5188 20 25.625V26.5C20 27.0531 20.4469 27.5 21 27.5H26.5C27.0531 27.5 27.5 27.0531 27.5 26.5V25.625C27.5 18.375 21.625 12.5 14.375 12.5Z" fill="white"/>
<defs>
<radialGradient id="paint0_radial" cx="0" cy="0" r="1" gradientUnits="userSpaceOnUse" gradientTransform="translate(20 20) scale(64.262)">
<stop stop-color="#7B16FF"/>
<stop offset="1" stop-color="#0F015E"/>
</radialGradient>
</defs>
</svg>
