<svg width="40" height="40" viewBox="0 0 40 40" fill="none" xmlns="http://www.w3.org/2000/svg">
<path d="M36.3123 8.43438C35.8373 7.76563 35.3279 7.12501 34.7748 6.52188C34.5654 7.00313 34.3279 7.46563 34.0654 7.91563C34.8311 8.04376 35.5811 8.21563 36.3123 8.43438Z" fill="#6BBBE8"/>
<path d="M12.8189 32.6531C12.1971 30.775 11.8564 28.7656 11.8564 26.6812C11.8564 26.5844 11.8627 26.4906 11.8627 26.3937C11.0627 26.75 10.1814 26.9531 9.24707 26.9531C5.69394 26.9531 2.8127 24.0719 2.8127 20.5187C2.8127 20.1906 2.84395 19.8719 2.89082 19.5562C1.9002 19.8656 0.937695 20.2469 0.0126953 20.6875C0.24707 27.6125 3.99707 33.6469 9.54082 37.0531C9.90332 35.1312 11.1377 33.5219 12.8189 32.6531Z" fill="#6BBBE8"/>
<path d="M17.9492 12.7281C21.3461 9.57812 25.893 7.64687 30.8898 7.64687C31.6242 7.64687 32.3461 7.69375 33.0555 7.77188C33.4492 7.14375 33.7867 6.47813 34.0617 5.78438C30.4492 2.20938 25.4836 0 19.9992 0C16.443 0 13.1086 0.93125 10.2148 2.55937C10.718 7.1875 13.7773 11.0562 17.9492 12.7281Z" fill="#6BBBE8"/>
<path d="M0.00878906 19.6594C1.01504 19.2031 2.06191 18.8156 3.14004 18.5062C3.98066 15.9375 6.39629 14.0812 9.24941 14.0812C11.4588 14.0812 13.4057 15.1969 14.565 16.8906C15.3182 15.6375 16.2119 14.4812 17.2213 13.4406C13.0557 11.6219 9.99316 7.73437 9.33691 3.08437C3.81816 6.56874 0.124414 12.6781 0.00878906 19.6594Z" fill="#6BBBE8"/>
<path d="M9.54395 37.05C11.8033 38.4375 14.3596 39.3906 17.0971 39.7875C15.1846 37.775 13.7096 35.35 12.8189 32.6531C11.1377 33.5219 9.90332 35.1313 9.54395 37.05Z" fill="#6BBBE8"/>
<path opacity="0.75" d="M9.54395 37.05C11.8033 38.4375 14.3596 39.3906 17.0971 39.7875C15.1846 37.775 13.7096 35.35 12.8189 32.6531C11.1377 33.5219 9.90332 35.1313 9.54395 37.05Z" fill="#207FC3"/>
<path d="M3.1375 18.5063C2.05938 18.8156 1.01562 19.2031 0.00625 19.6594C0.00625 19.775 0 19.8875 0 20C0 20.2313 0.009375 20.4563 0.01875 20.6844C0.94375 20.2438 1.90313 19.8625 2.89688 19.5531C2.95 19.1938 3.02813 18.8438 3.1375 18.5063Z" fill="#6BBBE8"/>
<path opacity="0.75" d="M3.1375 18.5063C2.05938 18.8156 1.01562 19.2031 0.00625 19.6594C0.00625 19.775 0 19.8875 0 20C0 20.2313 0.009375 20.4563 0.01875 20.6844C0.94375 20.2438 1.90313 19.8625 2.89688 19.5531C2.95 19.1938 3.02813 18.8438 3.1375 18.5063Z" fill="#207FC3"/>
<path d="M30.8094 32.375C32.0875 31.5781 32.9437 30.1625 32.9437 28.5469C32.9437 26.0594 30.9188 24.0344 28.4313 24.0344C27.5375 24.0344 26.7031 24.3 26 24.75C28.0719 26.9281 29.7219 29.5125 30.8094 32.375Z" fill="#6BBBE8"/>
<path opacity="0.75" d="M30.8094 32.375C32.0875 31.5781 32.9437 30.1625 32.9437 28.5469C32.9437 26.0594 30.9188 24.0344 28.4313 24.0344C27.5375 24.0344 26.7031 24.3 26 24.75C28.0719 26.9281 29.7219 29.5125 30.8094 32.375Z" fill="#207FC3"/>
<path d="M17.9492 12.7281C19.3711 13.2969 20.918 13.6125 22.5398 13.6125C26.968 13.6125 30.8617 11.275 33.0555 7.77188C32.343 7.69063 31.6211 7.64688 30.8898 7.64688C25.8898 7.64688 21.3461 9.57501 17.9492 12.7281Z" fill="#6BBBE8"/>
<path opacity="0.75" d="M17.9492 12.7281C19.3711 13.2969 20.918 13.6125 22.5398 13.6125C26.968 13.6125 30.8617 11.275 33.0555 7.77188C32.343 7.69063 31.6211 7.64688 30.8898 7.64688C25.8898 7.64688 21.3461 9.57501 17.9492 12.7281Z" fill="#207FC3"/>
<path d="M23.915 28.5469C23.915 31.0344 25.94 33.0594 28.4275 33.0594C28.9682 33.0594 29.4807 32.9594 29.9619 32.7844C28.9088 29.9844 27.2963 27.4562 25.2619 25.3344C24.4338 26.1531 23.915 27.2906 23.915 28.5469Z" fill="#6BBBE8"/>
<path opacity="0.75" d="M23.915 28.5469C23.915 31.0344 25.94 33.0594 28.4275 33.0594C28.9682 33.0594 29.4807 32.9594 29.9619 32.7844C28.9088 29.9844 27.2963 27.4562 25.2619 25.3344C24.4338 26.1531 23.915 27.2906 23.915 28.5469Z" fill="#207FC3"/>
<path d="M28.4313 33.6844C25.5969 33.6844 23.2938 31.3781 23.2938 28.5469C23.2938 27.1156 23.8844 25.8219 24.8313 24.8875C22.2813 22.3719 19.1188 20.475 15.5906 19.4438C15.65 19.7938 15.6875 20.15 15.6875 20.5188C15.6875 23.1406 14.1156 25.3938 11.8656 26.3938C11.8656 26.4906 11.8594 26.5844 11.8594 26.6813C11.8594 28.7688 12.2 30.775 12.8219 32.6531C13.6812 32.2094 14.6531 31.9531 15.6875 31.9531C19.1406 31.9531 21.9375 34.75 21.9375 38.2031C21.9375 38.8 21.85 39.3781 21.6906 39.925C25.1219 39.6375 28.3094 38.4875 31.0281 36.6844C30.8281 35.55 30.5406 34.4438 30.175 33.375C29.6281 33.5719 29.0438 33.6844 28.4313 33.6844Z" fill="#6BBBE8"/>
<path opacity="0.75" d="M28.4313 33.6844C25.5969 33.6844 23.2938 31.3781 23.2938 28.5469C23.2938 27.1156 23.8844 25.8219 24.8313 24.8875C22.2813 22.3719 19.1188 20.475 15.5906 19.4438C15.65 19.7938 15.6875 20.15 15.6875 20.5188C15.6875 23.1406 14.1156 25.3938 11.8656 26.3938C11.8656 26.4906 11.8594 26.5844 11.8594 26.6813C11.8594 28.7688 12.2 30.775 12.8219 32.6531C13.6812 32.2094 14.6531 31.9531 15.6875 31.9531C19.1406 31.9531 21.9375 34.75 21.9375 38.2031C21.9375 38.8 21.85 39.3781 21.6906 39.925C25.1219 39.6375 28.3094 38.4875 31.0281 36.6844C30.8281 35.55 30.5406 34.4438 30.175 33.375C29.6281 33.5719 29.0438 33.6844 28.4313 33.6844Z" fill="#207FC3"/>
<path d="M22.5404 14.55C20.6498 14.55 18.8529 14.1531 17.2217 13.4406C16.2123 14.4844 15.3186 15.6406 14.5654 16.8906C14.8779 17.35 15.1311 17.8562 15.3186 18.3906C19.2436 19.4375 22.7592 21.5031 25.5592 24.2875C26.3811 23.7312 27.3686 23.4062 28.4311 23.4062C31.2654 23.4062 33.5686 25.7125 33.5686 28.5437C33.5686 30.4281 32.5436 32.075 31.0279 32.9719C31.3811 33.9812 31.6654 35.0219 31.8748 36.0906C36.8029 32.4469 39.9998 26.5969 39.9998 19.9969C39.9998 15.6844 38.6311 11.6969 36.3123 8.43124C35.5811 8.21562 34.8311 8.04062 34.0654 7.91249C31.7498 11.8781 27.4529 14.55 22.5404 14.55Z" fill="#6BBBE8"/>
<path opacity="0.75" d="M22.5404 14.55C20.6498 14.55 18.8529 14.1531 17.2217 13.4406C16.2123 14.4844 15.3186 15.6406 14.5654 16.8906C14.8779 17.35 15.1311 17.8562 15.3186 18.3906C19.2436 19.4375 22.7592 21.5031 25.5592 24.2875C26.3811 23.7312 27.3686 23.4062 28.4311 23.4062C31.2654 23.4062 33.5686 25.7125 33.5686 28.5437C33.5686 30.4281 32.5436 32.075 31.0279 32.9719C31.3811 33.9812 31.6654 35.0219 31.8748 36.0906C36.8029 32.4469 39.9998 26.5969 39.9998 19.9969C39.9998 15.6844 38.6311 11.6969 36.3123 8.43124C35.5811 8.21562 34.8311 8.04062 34.0654 7.91249C31.7498 11.8781 27.4529 14.55 22.5404 14.55Z" fill="#207FC3"/>
<path d="M15.685 31.9531C14.6506 31.9531 13.6787 32.2094 12.8193 32.6531C13.71 35.35 15.185 37.775 17.0975 39.7875C18.0443 39.925 19.0131 40 20.0006 40C20.5693 40 21.1318 39.9719 21.6881 39.925C21.8443 39.3781 21.935 38.8031 21.935 38.2031C21.935 34.75 19.1381 31.9531 15.685 31.9531Z" fill="#6BBBE8"/>
<path opacity="0.75" d="M15.685 31.9531C14.6506 31.9531 13.6787 32.2094 12.8193 32.6531C13.71 35.35 15.185 37.775 17.0975 39.7875C18.0443 39.925 19.0131 40 20.0006 40C20.5693 40 21.1318 39.9719 21.6881 39.925C21.8443 39.3781 21.935 38.8031 21.935 38.2031C21.935 34.75 19.1381 31.9531 15.685 31.9531Z" fill="#207FC3"/>
<path opacity="0.75" d="M15.685 31.9531C14.6506 31.9531 13.6787 32.2094 12.8193 32.6531C13.71 35.35 15.185 37.775 17.0975 39.7875C18.0443 39.925 19.0131 40 20.0006 40C20.5693 40 21.1318 39.9719 21.6881 39.925C21.8443 39.3781 21.935 38.8031 21.935 38.2031C21.935 34.75 19.1381 31.9531 15.685 31.9531Z" fill="#207FC3"/>
<path d="M24.8279 24.8875C25.0529 24.6656 25.2967 24.4656 25.5561 24.2875C22.7561 21.5031 19.2436 19.4375 15.3154 18.3906C15.4342 18.7281 15.5248 19.0813 15.5842 19.4406C19.1154 20.475 22.2779 22.3688 24.8279 24.8875Z" fill="#6BBBE8"/>
<path opacity="0.75" d="M24.8279 24.8875C25.0529 24.6656 25.2967 24.4656 25.5561 24.2875C22.7561 21.5031 19.2436 19.4375 15.3154 18.3906C15.4342 18.7281 15.5248 19.0813 15.5842 19.4406C19.1154 20.475 22.2779 22.3688 24.8279 24.8875Z" fill="#207FC3"/>
<path opacity="0.75" d="M24.8279 24.8875C25.0529 24.6656 25.2967 24.4656 25.5561 24.2875C22.7561 21.5031 19.2436 19.4375 15.3154 18.3906C15.4342 18.7281 15.5248 19.0813 15.5842 19.4406C19.1154 20.475 22.2779 22.3688 24.8279 24.8875Z" fill="#207FC3"/>
<path d="M30.1758 33.3719C30.5445 34.4406 30.8289 35.5469 31.0289 36.6812C31.3164 36.4906 31.5977 36.2937 31.8758 36.0906C31.6664 35.0219 31.382 33.9812 31.0289 32.9719C30.757 33.1312 30.4727 33.2656 30.1758 33.3719Z" fill="#6BBBE8"/>
<path opacity="0.75" d="M30.1758 33.3719C30.5445 34.4406 30.8289 35.5469 31.0289 36.6812C31.3164 36.4906 31.5977 36.2937 31.8758 36.0906C31.6664 35.0219 31.382 33.9812 31.0289 32.9719C30.757 33.1312 30.4727 33.2656 30.1758 33.3719Z" fill="#207FC3"/>
<path opacity="0.75" d="M30.1758 33.3719C30.5445 34.4406 30.8289 35.5469 31.0289 36.6812C31.3164 36.4906 31.5977 36.2937 31.8758 36.0906C31.6664 35.0219 31.382 33.9812 31.0289 32.9719C30.757 33.1312 30.4727 33.2656 30.1758 33.3719Z" fill="#207FC3"/>
<path d="M25.2656 25.3344C27.3 27.4562 28.9125 29.9844 29.9656 32.7844C30.2625 32.675 30.5469 32.5375 30.8125 32.3719C29.7219 29.5125 28.075 26.925 26.0031 24.7469C25.7344 24.9187 25.4875 25.1125 25.2656 25.3344Z" fill="#6BBBE8"/>
<path opacity="0.75" d="M25.2656 25.3344C27.3 27.4562 28.9125 29.9844 29.9656 32.7844C30.2625 32.675 30.5469 32.5375 30.8125 32.3719C29.7219 29.5125 28.075 26.925 26.0031 24.7469C25.7344 24.9187 25.4875 25.1125 25.2656 25.3344Z" fill="#207FC3"/>
<path opacity="0.75" d="M25.2656 25.3344C27.3 27.4562 28.9125 29.9844 29.9656 32.7844C30.2625 32.675 30.5469 32.5375 30.8125 32.3719C29.7219 29.5125 28.075 26.925 26.0031 24.7469C25.7344 24.9187 25.4875 25.1125 25.2656 25.3344Z" fill="#207FC3"/>
<path d="M17.2223 13.4406C18.8535 14.1531 20.6504 14.55 22.541 14.55C27.4535 14.55 31.7504 11.8781 34.066 7.91562C34.3285 7.46562 34.566 7.00312 34.7754 6.52187C34.5441 6.26875 34.3098 6.025 34.066 5.78437C33.7879 6.48125 33.4504 7.14375 33.0598 7.77187C30.866 11.275 26.9723 13.6125 22.5441 13.6125C20.9223 13.6125 19.3723 13.2969 17.9535 12.7281C13.7785 11.0562 10.7191 7.1875 10.216 2.55937C9.91914 2.72812 9.62539 2.90312 9.33789 3.08437C9.99414 7.73437 13.0566 11.6219 17.2223 13.4406Z" fill="#DEF7FF"/>
<path d="M23.29 28.5469C23.29 31.3813 25.5963 33.6844 28.4275 33.6844C29.04 33.6844 29.6244 33.5719 30.1713 33.375C30.4713 33.2656 30.7557 33.1344 31.0244 32.975C32.5432 32.0813 33.565 30.4344 33.565 28.5469C33.565 25.7125 31.2588 23.4094 28.4275 23.4094C27.365 23.4094 26.3744 23.7344 25.5557 24.2906C25.2932 24.4688 25.0494 24.6688 24.8275 24.8906C23.8807 25.8188 23.29 27.1156 23.29 28.5469ZM32.9432 28.5469C32.9432 30.1625 32.0869 31.5781 30.8088 32.375C30.5432 32.5406 30.2619 32.6781 29.9619 32.7875C29.4807 32.9625 28.9682 33.0625 28.4275 33.0625C25.94 33.0625 23.915 31.0375 23.915 28.55C23.915 27.2938 24.4307 26.1563 25.2619 25.3375C25.4869 25.1156 25.7338 24.9219 25.9994 24.7531C26.7025 24.3031 27.5338 24.0375 28.4307 24.0375C30.9182 24.0313 32.9432 26.0563 32.9432 28.5469Z" fill="#DEF7FF"/>
<path d="M2.81543 20.5156C2.81543 24.0688 5.69668 26.95 9.2498 26.95C10.1811 26.95 11.0654 26.7469 11.8654 26.3906C14.1154 25.3875 15.6873 23.1375 15.6873 20.5156C15.6873 20.15 15.6498 19.7906 15.5904 19.4406C15.5311 19.0781 15.4404 18.7281 15.3217 18.3906C15.1342 17.8563 14.8842 17.35 14.5686 16.8906C13.4092 15.1938 11.4623 14.0813 9.25293 14.0813C6.3998 14.0813 3.9873 15.9375 3.14043 18.5094C3.03105 18.8469 2.9498 19.1969 2.89668 19.5563C2.84668 19.8688 2.81543 20.1875 2.81543 20.5156Z" fill="#DEF7FF"/>
</svg>
