<svg width="24" height="24" viewBox="0 0 24 24" fill="none" xmlns="http://www.w3.org/2000/svg">
<circle cx="12" cy="12" r="12" fill="#353F80"/>
<g clip-path="url(#clip0)">
<path d="M12.2087 7C10.5458 7 9.46874 7.63873 8.62314 8.77785C8.46974 8.98449 8.51703 9.26781 8.73101 9.41992L9.62972 10.0588C9.84582 10.2124 10.1533 10.1765 10.3225 9.97775C10.8443 9.36484 11.2314 9.01195 12.0466 9.01195C12.6875 9.01195 13.4803 9.39865 13.4803 9.98131C13.4803 10.4218 13.0924 10.648 12.4596 10.9806C11.7216 11.3685 10.745 11.8512 10.745 13.0588V13.25C10.745 13.5089 10.9689 13.7188 11.245 13.7188H12.7548C13.031 13.7188 13.2548 13.5089 13.2548 13.25V13.1372C13.2548 12.3001 15.8646 12.2653 15.8646 10C15.8646 8.29406 13.9771 7 12.2087 7ZM11.9999 14.2941C11.2042 14.2941 10.5568 14.9011 10.5568 15.6471C10.5568 16.3931 11.2042 17 11.9999 17C12.7957 17 13.4431 16.3931 13.4431 15.6471C13.4431 14.901 12.7957 14.2941 11.9999 14.2941Z" fill="#6B79B3"/>
</g>
<defs>
<clipPath id="clip0">
<rect width="7.33137" height="10" fill="white" transform="translate(8.5332 7)"/>
</clipPath>
</defs>
</svg>
