<svg width="60" height="60" viewBox="0 0 60 60" xmlns="http://www.w3.org/2000/svg"><title>Group 3</title><desc>Created with Sketch.</desc><g fill="none"><path d="M30 0c-16.57 0-30 13.43-30 29.999s13.43 30.001 30 30.001 30-13.432 30-30.001c0-16.569-13.43-29.999-30-29.999" fill="#FFCC01"/><path d="M27 17.994c0-1.654 1.347-2.994 3-2.994 1.657 0 3 1.343 3 2.994v14.012c0 1.654-1.347 2.994-3 2.994-1.657 0-3-1.343-3-2.994v-14.012zm0 24.006c0-1.657 1.347-3 3-3 1.657 0 3 1.347 3 3 0 1.657-1.347 3-3 3-1.657 0-3-1.347-3-3z" fill="#fff"/></g></svg>