<svg width="60" height="60" viewBox="0 0 60 60" xmlns="http://www.w3.org/2000/svg"><title>Group 3</title><desc>Created with Sketch.</desc><g fill="none"><path d="M30 0c-16.57 0-30 13.43-30 29.999s13.43 30.001 30 30.001 30-13.432 30-30.001c0-16.569-13.43-29.999-30-29.999" fill="#F0423A"/><path d="M34.242 30l6.363-6.363c1.168-1.168 1.171-3.071 0-4.242-1.169-1.169-3.071-1.171-4.242 0l-6.363 6.363-6.363-6.363c-1.168-1.168-3.071-1.171-4.242 0-1.169 1.169-1.171 3.071 0 4.242l6.363 6.363-6.363 6.363c-1.168 1.168-1.171 3.071 0 4.242 1.169 1.169 3.071 1.171 4.242 0l6.363-6.363 6.363 6.363c1.168 1.168 3.071 1.171 4.242 0 1.169-1.169 1.171-3.071 0-4.242l-6.363-6.363z" fill="#fff"/></g></svg>