<?xml version="1.0" encoding="UTF-8"?>
<svg width="122px" height="122px" viewBox="0 0 122 122" version="1.1" xmlns="http://www.w3.org/2000/svg" xmlns:xlink="http://www.w3.org/1999/xlink">
    <!-- Generator: Sketch 41.2 (35397) - http://www.bohemiancoding.com/sketch -->
    <title>slack</title>
    <desc>Created with Sketch.</desc>
    <defs>
        <polygon id="path-1" points="0.363935603 121.94 93.668222 121.94 93.668222 0.0379356028 0.363935603 0.0379356028"></polygon>
        <polygon id="path-3" points="0.363935603 121.94 93.668222 121.94 93.668222 0.0379356028 0.363935603 0.0379356028"></polygon>
    </defs>
    <g id="Page-1" stroke="none" stroke-width="1" fill="none" fill-rule="evenodd">
        <g id="slack">
            <g id="Group-4" transform="translate(14.000000, 0.000000)">
                <g id="Fill-1-Clipped">
                    <mask id="mask-2" fill="white">
                        <use xlink:href="#path-1"></use>
                    </mask>
                    <g id="path-1"></g>
                    <path d="M65.092,7.548 C63.238,1.841 57.109,-1.282 51.403,0.573 C45.696,2.427 42.573,8.556 44.428,14.262 L72.52,100.694 C74.449,106.025 80.208,109.021 85.736,107.43 C91.502,105.77 95.017,99.646 93.177,93.983 C93.107,93.767 65.092,7.548 65.092,7.548" id="Fill-1" fill="#DFA22F" mask="url(#mask-2)"></path>
                </g>
                <g id="Fill-3-Clipped">
                    <mask id="mask-4" fill="white">
                        <use xlink:href="#path-3"></use>
                    </mask>
                    <g id="path-1"></g>
                    <path d="M21.564,21.691 C19.709,15.985 13.58,12.862 7.874,14.716 C2.167,16.57 -0.956,22.699 0.899,28.406 L28.991,114.838 C30.92,120.169 36.679,123.165 42.207,121.573 C47.973,119.914 51.488,113.79 49.648,108.126 C49.578,107.911 21.564,21.691 21.564,21.691" id="Fill-3" fill="#3CB187" mask="url(#mask-4)"></path>
                </g>
            </g>
            <path d="M114.452,79.131 C120.159,77.277 123.281,71.148 121.427,65.441 C119.573,59.735 113.444,56.612 107.738,58.466 L21.306,86.559 C15.975,88.487 12.979,94.246 14.57,99.774 C16.23,105.54 22.354,109.055 28.017,107.215 C28.233,107.145 114.452,79.131 114.452,79.131" id="Fill-5" fill="#CE1E5B"></path>
            <path d="M39.32,103.543 C44.946,101.715 52.197,99.359 59.978,96.831 C58.15,91.205 55.794,83.953 53.265,76.171 L32.606,82.886 L39.32,103.543" id="Fill-6" fill="#392538"></path>
            <g id="Group-10" transform="translate(0.000000, 14.000000)">
                <path d="M82.849,75.399 C90.659,72.862 97.918,70.503 103.507,68.687 C101.679,63.061 99.322,55.807 96.793,48.023 L76.134,54.738 L82.849,75.399" id="Fill-7" fill="#BB242A"></path>
                <path d="M100.309,21.602 C106.015,19.748 109.138,13.619 107.284,7.912 C105.43,2.206 99.301,-0.917 93.594,0.937 L7.162,29.03 C1.831,30.958 -1.165,36.717 0.427,42.245 C2.086,48.011 8.21,51.526 13.874,49.686 C14.089,49.616 100.309,21.602 100.309,21.602" id="Fill-9" fill="#72C5CD"></path>
            </g>
            <path d="M25.173,60.015 C30.799,58.187 38.052,55.83 45.834,53.302 C43.297,45.491 40.938,38.232 39.122,32.642 L18.458,39.358 L25.173,60.015" id="Fill-11" fill="#238C73"></path>
            <path d="M68.701,45.872 C76.513,43.334 83.773,40.975 89.363,39.158 C86.825,31.346 84.466,24.085 82.649,18.494 L61.986,25.21 L68.701,45.872" id="Fill-12" fill="#62803A"></path>
        </g>
    </g>
</svg>