<svg width="104" height="16" viewBox="0 0 104 16" xmlns="http://www.w3.org/2000/svg"><path d="M66.685 8.056c0-3.021-2.182-5.483-5.259-5.483-3.077 0-5.203 2.462-5.203 5.483 0 3.021 2.182 5.483 5.259 5.483 3.077 0 5.203-2.462 5.203-5.483zm.112 7.664v-1.678c-1.399 1.231-3.245 1.958-5.371 1.958-2.909 0-5.259-1.343-6.657-3.357-1.399 2.014-3.748 3.357-6.657 3.357-4.755 0-8.056-3.58-8.056-7.944s3.357-8 8.056-8c1.958 0 3.692.615 5.035 1.678-.559.727-1.007 1.51-1.399 2.35-.951-.951-2.182-1.566-3.692-1.566-3.077 0-5.203 2.462-5.203 5.483 0 3.021 2.182 5.483 5.259 5.483 3.077 0 5.203-2.462 5.203-5.483 0-4.364 3.357-8 8.056-8 4.755 0 8.056 3.58 8.056 7.944v7.72h-2.629v.056zm-56.783-14.266c-1.343-.895-2.909-1.343-4.755-1.343-3.077 0-5.259 1.79-5.259 4.476 0 2.853 1.846 3.804 5.147 4.643 2.853.671 3.469 1.231 3.469 2.35 0 1.175-1.063 1.958-2.741 1.958-1.51 0-2.685-.448-3.86-1.231l-1.231 2.182c1.51.951 3.245 1.455 5.035 1.455 3.245 0 5.483-1.734 5.483-4.643 0-2.573-1.678-3.748-4.923-4.531-2.965-.727-3.636-1.231-3.636-2.462 0-1.007.951-1.846 2.517-1.846 1.175 0 2.35.392 3.524 1.119l1.231-2.126zm68.587-1.343c-4.196 0-6.825 2.406-6.825 7.049v8.559h2.853v-8.448c0-2.965 1.566-4.587 4.084-4.587 2.517 0 4.084 1.622 4.084 4.587v8.448h2.853v-8.559c0-4.643-2.685-7.049-6.825-7.049h-.224zm21.65 7.944c0 3.021-2.126 5.483-5.203 5.483-3.077 0-5.259-2.462-5.259-5.483 0-3.021 2.126-5.483 5.203-5.483 3.077-.056 5.259 2.462 5.259 5.483zm2.853-.056c0-4.364-3.301-7.944-8.056-7.944-4.755 0-8.056 3.636-8.056 8s3.301 7.944 8.056 7.944c4.755 0 8.056-3.636 8.056-8zm-78.266 7.72h2.797v-8.559c0-2.965 1.566-4.476 4.028-4.476 2.517 0 4.084 1.622 4.084 4.587v8.448h2.797v-8.559c0-4.643-2.685-7.049-6.825-7.049-4.196 0-6.937 2.406-6.937 7.217v8.392h.056zm.895-15.385l-6.154 10.182v5.203h-2.797v-5.147l-6.154-10.294 3.133.056 4.42 7.664 4.42-7.664h3.133z" fill="#fff"/></svg>
