<?xml version="1.0" encoding="UTF-8" standalone="no"?>
<svg width="580px" height="357px" viewBox="0 0 580 357" version="1.1" xmlns="http://www.w3.org/2000/svg" xmlns:xlink="http://www.w3.org/1999/xlink">
    <!-- Generator: Sketch 3.8.1 (29687) - http://www.bohemiancoding.com/sketch -->
    <title>Group 49</title>
    <desc>Created with Sketch.</desc>
    <defs>
        <rect id="path-1" x="0" y="0" width="98" height="165" rx="15"></rect>
        <mask id="mask-2" maskContentUnits="userSpaceOnUse" maskUnits="objectBoundingBox" x="0" y="0" width="98" height="165" fill="white">
            <use xlink:href="#path-1"></use>
        </mask>
        <circle id="path-3" cx="49" cy="148" r="8"></circle>
        <mask id="mask-4" maskContentUnits="userSpaceOnUse" maskUnits="objectBoundingBox" x="0" y="0" width="16" height="16" fill="white">
            <use xlink:href="#path-3"></use>
        </mask>
        <rect id="path-5" x="32" y="14" width="35" height="6" rx="3"></rect>
        <mask id="mask-6" maskContentUnits="userSpaceOnUse" maskUnits="objectBoundingBox" x="0" y="0" width="35" height="6" fill="white">
            <use xlink:href="#path-5"></use>
        </mask>
        <rect id="path-7" x="10" y="30" width="78" height="105" rx="2"></rect>
        <mask id="mask-8" maskContentUnits="userSpaceOnUse" maskUnits="objectBoundingBox" x="0" y="0" width="78" height="105" fill="white">
            <use xlink:href="#path-7"></use>
        </mask>
        <radialGradient cx="100%" cy="0%" fx="100%" fy="0%" r="93.8141444%" id="radialGradient-9">
            <stop stop-color="#6414E5" offset="0%"></stop>
            <stop stop-color="#AFBAC4" offset="100%"></stop>
        </radialGradient>
        <polygon id="path-10" points="0 155 258 155 258 166.076923 242.171779 173 15.8282209 173 0 166.076923"></polygon>
        <mask id="mask-11" maskContentUnits="userSpaceOnUse" maskUnits="objectBoundingBox" x="0" y="0" width="258" height="18" fill="white">
            <use xlink:href="#path-10"></use>
        </mask>
        <rect id="path-12" x="21" y="0" width="218" height="159" rx="10"></rect>
        <mask id="mask-13" maskContentUnits="userSpaceOnUse" maskUnits="objectBoundingBox" x="0" y="0" width="218" height="159" fill="white">
            <use xlink:href="#path-12"></use>
        </mask>
        <rect id="path-14" x="39" y="18" width="182" height="123"></rect>
        <mask id="mask-15" maskContentUnits="userSpaceOnUse" maskUnits="objectBoundingBox" x="0" y="0" width="182" height="123" fill="white">
            <use xlink:href="#path-14"></use>
        </mask>
        <path d="M190,39.6806723 L190,7.99968161 C190,3.58518252 186.418952,0 182.001505,0 L30.9984954,0 C26.5847307,0 23,3.58157945 23,7.99968161 L23,128.000318 C23,132.414817 26.5810484,136 30.9984954,136 L182.001505,136 C186.415269,136 190,132.418421 190,128.000318 L190,127.092437 L195,120.957983 L195,45.8151261 L190,39.6806723 Z" id="path-16"></path>
        <mask id="mask-17" maskContentUnits="userSpaceOnUse" maskUnits="objectBoundingBox" x="0" y="0" width="172" height="136" fill="white">
            <use xlink:href="#path-16"></use>
        </mask>
        <path d="M7,31 L52,31 L52,67 L7,67 L7,69 L0,69 L0,29 L7,29 L7,31 Z" id="path-18"></path>
        <mask id="mask-19" maskContentUnits="userSpaceOnUse" maskUnits="objectBoundingBox" x="0" y="0" width="52" height="40" fill="white">
            <use xlink:href="#path-18"></use>
        </mask>
        <path d="M21,100 L59,100 L59,128 L21,128 L21,131 L12,131 L12,97 L21,97 L21,100 Z" id="path-20"></path>
        <mask id="mask-21" maskContentUnits="userSpaceOnUse" maskUnits="objectBoundingBox" x="0" y="0" width="47" height="34" fill="white">
            <use xlink:href="#path-20"></use>
        </mask>
        <rect id="path-22" x="0" y="3" width="6" height="12"></rect>
        <mask id="mask-23" maskContentUnits="userSpaceOnUse" maskUnits="objectBoundingBox" x="0" y="0" width="6" height="12" fill="white">
            <use xlink:href="#path-22"></use>
        </mask>
        <rect id="path-24" x="14" y="2" width="8" height="3"></rect>
        <mask id="mask-25" maskContentUnits="userSpaceOnUse" maskUnits="objectBoundingBox" x="-1" y="-1" width="10" height="5">
            <rect x="13" y="1" width="10" height="5" fill="white"></rect>
            <use xlink:href="#path-24" fill="black"></use>
        </mask>
        <rect id="path-26" x="14" y="8" width="8" height="3"></rect>
        <mask id="mask-27" maskContentUnits="userSpaceOnUse" maskUnits="objectBoundingBox" x="-1" y="-1" width="10" height="5">
            <rect x="13" y="7" width="10" height="5" fill="white"></rect>
            <use xlink:href="#path-26" fill="black"></use>
        </mask>
        <rect id="path-28" x="14" y="14" width="8" height="3"></rect>
        <mask id="mask-29" maskContentUnits="userSpaceOnUse" maskUnits="objectBoundingBox" x="-1" y="-1" width="10" height="5">
            <rect x="13" y="13" width="10" height="5" fill="white"></rect>
            <use xlink:href="#path-28" fill="black"></use>
        </mask>
        <rect id="path-30" x="5" y="0" width="12" height="19"></rect>
        <mask id="mask-31" maskContentUnits="userSpaceOnUse" maskUnits="objectBoundingBox" x="0" y="0" width="12" height="19" fill="white">
            <use xlink:href="#path-30"></use>
        </mask>
        <rect id="path-32" x="30" y="8" width="28" height="20"></rect>
        <mask id="mask-33" maskContentUnits="userSpaceOnUse" maskUnits="objectBoundingBox" x="0" y="0" width="28" height="20" fill="white">
            <use xlink:href="#path-32"></use>
        </mask>
        <path d="M-1.77635684e-15,22.9968742 C-1.77635684e-15,18.5803226 3.5841763,15 8.00584469,15 L125.994155,15 C130.415661,15 134,18.5907941 134,22.9968742 L134,251.003126 C134,255.419677 130.415824,259 125.994155,259 L8.00584469,259 C3.58433876,259 -1.77635684e-15,255.409206 -1.77635684e-15,251.003126 L-1.77635684e-15,22.9968742 Z" id="path-34"></path>
        <mask id="mask-35" maskContentUnits="userSpaceOnUse" maskUnits="objectBoundingBox" x="0" y="0" width="134" height="244" fill="white">
            <use xlink:href="#path-34"></use>
        </mask>
        <rect id="path-36" x="15.0016664" y="37" width="104" height="21" rx="4"></rect>
        <mask id="mask-37" maskContentUnits="userSpaceOnUse" maskUnits="objectBoundingBox" x="0" y="0" width="104" height="21" fill="white">
            <use xlink:href="#path-36"></use>
        </mask>
        <path d="M19.1828851,26.3660613 C16.8613104,26.3660613 14.709607,25.747883 12.7277749,24.5677243 L14.3132405,21.8140208 C15.7854587,22.8255853 17.3709243,23.3875657 19.2395088,23.3875657 C21.3912122,23.3875657 22.693559,22.4321991 22.693559,20.9148523 C22.693559,19.5099015 21.9008262,18.7231291 18.2769047,17.8801586 C14.0867455,16.8685941 11.708547,15.6322374 11.708547,12.0355634 C11.708547,8.66368156 14.5397356,6.35956229 18.446776,6.35956229 C20.8249745,6.35956229 22.8068066,6.97774063 24.5055198,8.04550322 L22.8634304,10.7992067 C21.3912122,9.8438402 19.8623704,9.33805793 18.3335285,9.33805793 C16.2950726,9.33805793 15.1059734,10.3496225 15.1059734,11.6983752 C15.1059734,13.2157221 16.0119538,13.8900984 19.7491228,14.7892669 C23.8826583,15.8008315 26.0909855,17.2619803 26.0909855,20.5214661 C26.204233,24.1743381 23.3164205,26.3660613 19.1828851,26.3660613 L19.1828851,26.3660613 Z M28.4832451,6.03961325e-14 L9.51675485,6.03961325e-14 L0,16.2962963 L9.51675485,32.5925926 L28.4832451,32.5925926 L38,16.2962963 L28.4832451,6.03961325e-14 Z" id="path-38"></path>
        <mask id="mask-39" maskContentUnits="userSpaceOnUse" maskUnits="objectBoundingBox" x="-4" y="-4" width="46" height="40.5925926">
            <rect x="-4" y="-4" width="46" height="40.5925926" fill="white"></rect>
            <use xlink:href="#path-38" fill="black"></use>
        </mask>
        <rect id="path-40" x="15.0016664" y="67" width="104" height="21" rx="4"></rect>
        <mask id="mask-41" maskContentUnits="userSpaceOnUse" maskUnits="objectBoundingBox" x="0" y="0" width="104" height="21" fill="white">
            <use xlink:href="#path-40"></use>
        </mask>
        <rect id="path-42" x="15.0016664" y="97" width="104" height="21" rx="4"></rect>
        <mask id="mask-43" maskContentUnits="userSpaceOnUse" maskUnits="objectBoundingBox" x="0" y="0" width="104" height="21" fill="white">
            <use xlink:href="#path-42"></use>
        </mask>
        <rect id="path-44" x="15.0016664" y="127" width="104" height="21" rx="4"></rect>
        <mask id="mask-45" maskContentUnits="userSpaceOnUse" maskUnits="objectBoundingBox" x="0" y="0" width="104" height="21" fill="white">
            <use xlink:href="#path-44"></use>
        </mask>
        <rect id="path-46" x="15.0016664" y="157" width="104" height="21" rx="4"></rect>
        <mask id="mask-47" maskContentUnits="userSpaceOnUse" maskUnits="objectBoundingBox" x="0" y="0" width="104" height="21" fill="white">
            <use xlink:href="#path-46"></use>
        </mask>
        <rect id="path-48" x="15.0016664" y="187" width="104" height="21" rx="4"></rect>
        <mask id="mask-49" maskContentUnits="userSpaceOnUse" maskUnits="objectBoundingBox" x="0" y="0" width="104" height="21" fill="white">
            <use xlink:href="#path-48"></use>
        </mask>
        <rect id="path-50" x="15.0016664" y="217" width="104" height="21" rx="4"></rect>
        <mask id="mask-51" maskContentUnits="userSpaceOnUse" maskUnits="objectBoundingBox" x="0" y="0" width="104" height="21" fill="white">
            <use xlink:href="#path-50"></use>
        </mask>
        <rect id="path-52" x="0" y="2" width="90" height="16"></rect>
        <mask id="mask-53" maskContentUnits="userSpaceOnUse" maskUnits="objectBoundingBox" x="0" y="0" width="90" height="16" fill="white">
            <use xlink:href="#path-52"></use>
        </mask>
        <rect id="path-54" x="0" y="0" width="38" height="8"></rect>
        <mask id="mask-55" maskContentUnits="userSpaceOnUse" maskUnits="objectBoundingBox" x="0" y="0" width="38" height="8" fill="white">
            <use xlink:href="#path-54"></use>
        </mask>
        <rect id="path-56" x="0" y="0" width="50" height="8"></rect>
        <mask id="mask-57" maskContentUnits="userSpaceOnUse" maskUnits="objectBoundingBox" x="0" y="0" width="50" height="8" fill="white">
            <use xlink:href="#path-56"></use>
        </mask>
        <rect id="path-58" x="0" y="0" width="38" height="8"></rect>
        <mask id="mask-59" maskContentUnits="userSpaceOnUse" maskUnits="objectBoundingBox" x="0" y="0" width="38" height="8" fill="white">
            <use xlink:href="#path-58"></use>
        </mask>
        <rect id="path-60" x="0" y="0" width="50" height="8"></rect>
        <mask id="mask-61" maskContentUnits="userSpaceOnUse" maskUnits="objectBoundingBox" x="0" y="0" width="50" height="8" fill="white">
            <use xlink:href="#path-60"></use>
        </mask>
        <rect id="path-62" x="90" y="272" width="13" height="13"></rect>
        <mask id="mask-63" maskContentUnits="userSpaceOnUse" maskUnits="objectBoundingBox" x="0" y="0" width="13" height="13" fill="white">
            <use xlink:href="#path-62"></use>
        </mask>
        <rect id="path-64" x="93" y="253" width="7" height="14"></rect>
        <mask id="mask-65" maskContentUnits="userSpaceOnUse" maskUnits="objectBoundingBox" x="0" y="0" width="7" height="14" fill="white">
            <use xlink:href="#path-64"></use>
        </mask>
        <rect id="path-66" x="102" y="253" width="7" height="14"></rect>
        <mask id="mask-67" maskContentUnits="userSpaceOnUse" maskUnits="objectBoundingBox" x="0" y="0" width="7" height="14" fill="white">
            <use xlink:href="#path-66"></use>
        </mask>
        <rect id="path-68" x="84" y="253" width="7" height="14"></rect>
        <mask id="mask-69" maskContentUnits="userSpaceOnUse" maskUnits="objectBoundingBox" x="0" y="0" width="7" height="14" fill="white">
            <use xlink:href="#path-68"></use>
        </mask>
    </defs>
    <g id="Page-1" stroke="none" stroke-width="1" fill="none" fill-rule="evenodd">
        <g id="Group-49">
            <g id="Group-38">
                <g id="Group-11">
                    <g id="Group-8">
                        <g id="Group-3" transform="translate(214.000000, 68.000000)">
                            <path d="M214.535534,87.4644661 C214.535534,84.7030423 212.296958,82.4644661 209.535534,82.4644661 C206.77411,82.4644661 204.535534,84.7030423 204.535534,87.4644661 C204.535534,90.2258898 214.535534,90.2258898 214.535534,87.4644661 Z" id="Oval-50" fill="#3CCD3F" transform="translate(209.535534, 86.000000) rotate(-90.000000) translate(-209.535534, -86.000000) "></path>
                            <path d="M214.535534,143.464466 C214.535534,140.703042 212.296958,138.464466 209.535534,138.464466 C206.77411,138.464466 204.535534,140.703042 204.535534,143.464466 C204.535534,146.22589 214.535534,146.22589 214.535534,143.464466 Z" id="Oval-50" fill="#49B9E8" transform="translate(209.535534, 142.000000) rotate(-90.000000) translate(-209.535534, -142.000000) "></path>
                            <path d="M214.535534,198.464466 C214.535534,195.703042 212.296958,193.464466 209.535534,193.464466 C206.77411,193.464466 204.535534,195.703042 204.535534,198.464466 C204.535534,201.22589 214.535534,201.22589 214.535534,198.464466 Z" id="Oval-50" fill="#FFCC01" transform="translate(209.535534, 197.000000) rotate(-90.000000) translate(-209.535534, -197.000000) "></path>
                            <path d="M167,143 C167,140.238576 164.761424,138 162,138 C159.238576,138 157,140.238576 157,143 C157,145.761424 167,145.761424 167,143 Z" id="Oval-50" fill="#49B9E8" transform="translate(162.000000, 141.535534) rotate(-270.000000) translate(-162.000000, -141.535534) "></path>
                            <path d="M9,251 C9,248.238576 6.76142375,246 4,246 C1.23857625,246 -1,248.238576 -1,251 C-1,253.761424 9,253.761424 9,251 Z" id="Oval-50" fill="#FFCC01" transform="translate(4.000000, 249.535534) rotate(-270.000000) translate(-4.000000, -249.535534) "></path>
                            <path d="M30,7 C30,4.23857625 27.7614237,2 25,2 C22.2385763,2 20,4.23857625 20,7 C20,9.76142375 30,9.76142375 30,7 Z" id="Oval-50" fill="#3CCD3F" transform="translate(25.000000, 5.535534) rotate(-270.000000) translate(-25.000000, -5.535534) "></path>
                        </g>
                        <g id="Group-10">
                            <g id="Group-41" transform="translate(277.000000, 125.000000)">
                                <g id="Group-40">
                                    <use id="Rectangle-2213" stroke="#373D44" mask="url(#mask-2)" stroke-width="8" fill="#AFBAC4" xlink:href="#path-1"></use>
                                    <use id="Oval-576" stroke="#373D44" mask="url(#mask-4)" stroke-width="4" fill="#FFFFFF" xlink:href="#path-3"></use>
                                    <use id="Rectangle-2215" stroke="#373D44" mask="url(#mask-6)" stroke-width="4" fill="#FFFFFF" xlink:href="#path-5"></use>
                                    <use id="Rectangle-2213" stroke="#373D44" mask="url(#mask-8)" stroke-width="4" fill="#FFFFFF" xlink:href="#path-7"></use>
                                    <rect id="Rectangle-132" fill="#B8C0C9" opacity="0.4" x="17" y="56" width="64" height="50"></rect>
                                    <rect id="Rectangle-132" fill="#B8C0C9" opacity="0.4" x="17" y="111" width="64" height="20"></rect>
                                    <rect id="Rectangle-135" fill="#B8C0C9" x="17" y="43" width="15" height="3"></rect>
                                </g>
                            </g>
                            <g id="Group-6">
                                <path d="M1,165.666667 C1,164.787879 1,163 1,163 L257,163 C257,163 256.21049,165.698693 254.7687,166.514706 C251.498833,168.365359 242.865031,171 242.865031,171 L16.7055215,171 C16.7055215,171 1,167.454546 1,165.666667 Z" id="Rectangle-89" fill="#B8C0C9"></path>
                                <rect id="Rectangle-89" fill="#F7F8F9" x="2" y="156" width="254" height="8"></rect>
                                <use id="Rectangle-85" stroke="#373D44" mask="url(#mask-11)" stroke-width="8" xlink:href="#path-10"></use>
                                <rect id="Rectangle-86" fill="#B8C0C9" opacity="0.6" x="96" y="159" width="67" height="3"></rect>
                                <use id="Rectangle-87" stroke="#373D44" mask="url(#mask-13)" stroke-width="8" fill="#AFBAC4" xlink:href="#path-12"></use>
                                <use id="Rectangle-87" stroke="#373D44" mask="url(#mask-15)" stroke-width="4" fill="#FFFFFF" xlink:href="#path-14"></use>
                                <rect id="Rectangle-132" fill="#B8C0C9" opacity="0.4" x="57" y="45" width="145" height="60"></rect>
                                <rect id="Rectangle-132" fill="#B8C0C9" opacity="0.4" x="57" y="115" width="145" height="20"></rect>
                                <rect id="Rectangle-135" fill="#B8C0C9" x="57" y="32" width="15" height="3"></rect>
                            </g>
                            <g id="Group-39" transform="translate(22.000000, 221.000000)">
                                <g id="Group-4">
                                    <use id="Combined-Shape" stroke="#373D44" mask="url(#mask-17)" stroke-width="8" fill="#AFBAC4" xlink:href="#path-16"></use>
                                    <use id="Combined-Shape" stroke="#373D44" mask="url(#mask-19)" stroke-width="4" fill="#E8EBED" xlink:href="#path-18"></use>
                                    <use id="Combined-Shape" stroke="#373D44" mask="url(#mask-21)" stroke-width="4" fill="#728699" xlink:href="#path-20"></use>
                                    <g id="Group-9" transform="translate(35.000000, 73.000000)">
                                        <use id="Rectangle-1481" stroke="#373D44" mask="url(#mask-23)" stroke-width="2" fill="#E8EAED" xlink:href="#path-22"></use>
                                        <g id="Rectangle-1483">
                                            <use fill="#E8EAED" fill-rule="evenodd" xlink:href="#path-24"></use>
                                            <use stroke="#373D44" mask="url(#mask-25)" stroke-width="2" xlink:href="#path-24"></use>
                                        </g>
                                        <g id="Rectangle-1484">
                                            <use fill="#E8EAED" fill-rule="evenodd" xlink:href="#path-26"></use>
                                            <use stroke="#373D44" mask="url(#mask-27)" stroke-width="2" xlink:href="#path-26"></use>
                                        </g>
                                        <g id="Rectangle-1485">
                                            <use fill="#E8EAED" fill-rule="evenodd" xlink:href="#path-28"></use>
                                            <use stroke="#373D44" mask="url(#mask-29)" stroke-width="2" xlink:href="#path-28"></use>
                                        </g>
                                        <use id="Rectangle-1482" stroke="#373D44" mask="url(#mask-31)" stroke-width="2" fill="#728699" xlink:href="#path-30"></use>
                                    </g>
                                    <use id="Rectangle-1506" stroke="#373D44" mask="url(#mask-33)" stroke-width="4" fill="#E8EBED" xlink:href="#path-32"></use>
                                    <circle id="Oval-348" fill="#373D44" cx="44" cy="17" r="4"></circle>
                                </g>
                                <g id="Page-1" transform="translate(114.000000, 37.000000)" fill="#373D44">
                                    <g id="Group-30">
                                        <path d="M30.3409463,17.5056915 C28.8310737,16.0409173 27.5913175,13.999017 26.3142648,11.805234 C27.4281706,9.93281173 28.5561706,8.20882346 29.9223756,6.86334545 C31.7516277,5.06186745 33.768226,4.22285279 36.2688798,4.22285279 C40.5045806,4.22285279 43.9505418,7.69588504 43.9505418,11.9647883 C43.9505418,16.2336915 40.5045806,19.7066534 36.2688798,19.7066534 L36.1640377,19.709539 C33.8416222,19.8394628 32.0454781,19.1592985 30.3409463,17.5056915 M17.5984753,17.5056915 C15.8939435,19.1592282 14.0981319,19.8395331 11.7753839,19.709539 L11.6705418,19.7066534 C7.43490748,19.7066534 3.98894626,16.2336915 3.98894626,11.9647883 C3.98894626,7.69588504 7.43490748,4.22285279 11.6705418,4.22285279 C14.1711956,4.22285279 16.1877939,5.06186745 18.017046,6.86334545 C19.3831845,8.20882346 20.5111845,9.93281173 21.6251568,11.805234 C20.3481042,13.999017 19.1083479,16.0409173 17.5984753,17.5056915 M36.3217994,23.9294569 C42.7327247,23.9001079 47.9394615,18.5440962 47.9394615,11.9647883 C47.9394615,5.36739238 42.7040709,-2.11143695e-05 36.2688798,-2.11143695e-05 C32.7469961,-2.11143695e-05 29.782431,1.23362111 27.205456,3.77149795 C25.9677607,4.9904305 24.9229296,6.40445982 23.9697108,7.8839437 C23.016492,6.40445982 21.9717274,4.9904305 20.7339657,3.77149795 C18.1570571,1.23362111 15.192359,-2.11143695e-05 11.6705418,-2.11143695e-05 C5.23541717,-2.11143695e-05 2.65927974e-05,5.36739238 2.65927974e-05,11.9647883 C2.65927974e-05,18.5440962 5.20676343,23.9001079 11.6176222,23.9294569 C14.9793507,24.1042135 17.8176665,23.0209056 20.293456,20.6190053 C21.7165695,19.2383367 22.8901762,17.5468645 23.9697108,15.7881783 C25.0492454,17.5468645 26.2228521,19.2383367 27.6459657,20.6190053 C29.9502316,22.8545243 32.5682925,23.9476152 35.6303202,23.9476152 C35.8580875,23.9476152 36.088913,23.9414921 36.3217994,23.9294569" id="Fill-1"></path>
                                        <polygon id="Fill-4" points="36.796195 12.8019026 38.9591867 12.8019026 38.9591867 10.4301255 36.796195 10.4301255 36.796195 8.14020176 34.5449152 8.14020176 34.5449152 10.4301255 32.3819235 10.4301255 32.3819235 12.8019026 34.5449152 12.8019026 34.5449152 15.1089994 36.796195 15.1089994"></polygon>
                                        <polygon id="Fill-6" points="8.43191136 12.8478123 15.5413629 12.8478123 15.5413629 10.4014311 8.43191136 10.4014311"></polygon>
                                    </g>
                                </g>
                            </g>
                        </g>
                    </g>
                    <path d="M245,73 C245,73 392,73 397,73 C402,73 403,74.9999998 403,78 L403,150.140549 C403,153 406,154 408,154 L423,154" id="Path-1244" stroke="#3CCD3F" stroke-width="2" stroke-dasharray="6,6"></path>
                    <path d="M383,210 L417,210" id="Path-1245" stroke="#49B9E8" stroke-width="2" stroke-dasharray="6,6"></path>
                    <path d="M218,317 C218,317 392,316.999998 394,316.999998 C396,316.999998 398,314.999998 398,312.999998 C397.918307,311.00002 398.092941,271 398,269 C397.907059,267 400,265 402,265 L418,265" id="Path-1246" stroke="#FFCC01" stroke-width="2" stroke-dasharray="6,6"></path>
                    <g id="Group-5" transform="translate(424.000000, 71.000000)">
                        <g id="Group-7">
                            <use id="Rectangle-23" stroke="#373D44" mask="url(#mask-35)" stroke-width="8" fill="#F7F8F9" xlink:href="#path-34"></use>
                            <use id="Rectangle-24" stroke="#373D44" mask="url(#mask-37)" stroke-width="4" fill="#FFFFFF" xlink:href="#path-36"></use>
                            <rect id="Rectangle-25" fill="#848E9B" x="22.0016664" y="44" width="3" height="7" rx="1.5"></rect>
                            <g id="Group-29" transform="translate(113.000000, 0.000000)">
                                <g id="Page-1">
                                    <use fill="#0070D3" fill-rule="evenodd" xlink:href="#path-38"></use>
                                    <use stroke="#373D44" mask="url(#mask-39)" stroke-width="8" xlink:href="#path-38"></use>
                                </g>
                                <path d="M19.1828851,26.3660613 C16.8613104,26.3660613 14.709607,25.747883 12.7277749,24.5677243 L14.3132405,21.8140208 C15.7854587,22.8255853 17.3709243,23.3875657 19.2395088,23.3875657 C21.3912122,23.3875657 22.693559,22.4321991 22.693559,20.9148523 C22.693559,19.5099015 21.9008262,18.7231291 18.2769047,17.8801586 C14.0867455,16.8685941 11.708547,15.6322374 11.708547,12.0355634 C11.708547,8.66368156 14.5397356,6.35956229 18.446776,6.35956229 C20.8249745,6.35956229 22.8068066,6.97774063 24.5055198,8.04550322 L22.8634304,10.7992067 C21.3912122,9.8438402 19.8623704,9.33805793 18.3335285,9.33805793 C16.2950726,9.33805793 15.1059734,10.3496225 15.1059734,11.6983752 C15.1059734,13.2157221 16.0119538,13.8900984 19.7491228,14.7892669 C23.8826583,15.8008315 26.0909855,17.2619803 26.0909855,20.5214661 C26.204233,24.1743381 23.3164205,26.3660613 19.1828851,26.3660613 L19.1828851,26.3660613 Z" id="Path" fill="#FFFFFF"></path>
                            </g>
                            <rect id="Rectangle-25" fill="#848E9B" x="29.0016664" y="44" width="3" height="7" rx="1.5"></rect>
                            <rect id="Rectangle-25" fill="#848E9B" x="36.0016664" y="44" width="3" height="7" rx="1.5"></rect>
                            <circle id="Oval-1" fill="#3CCD3F" cx="77.5" cy="47.5" r="3.5"></circle>
                            <circle id="Oval-1" fill="#B8C0C9" cx="92.5" cy="47.5" r="3.5"></circle>
                            <circle id="Oval-1" fill="#49B9E8" cx="107.5" cy="47.5" r="3.5"></circle>
                            <use id="Rectangle-24" stroke="#373D44" mask="url(#mask-41)" stroke-width="4" fill="#FFFFFF" xlink:href="#path-40"></use>
                            <rect id="Rectangle-25" fill="#848E9B" x="22.0016664" y="74" width="3" height="7" rx="1.5"></rect>
                            <rect id="Rectangle-25" fill="#848E9B" x="29.0016664" y="74" width="3" height="7" rx="1.5"></rect>
                            <rect id="Rectangle-25" fill="#848E9B" x="36.0016664" y="74" width="3" height="7" rx="1.5"></rect>
                            <circle id="Oval-1" fill="#FFCC01" cx="77.5" cy="77.5" r="3.5"></circle>
                            <circle id="Oval-1" fill="#49B9E8" cx="92.5" cy="77.5" r="3.5"></circle>
                            <circle id="Oval-1" fill="#3CCD3F" cx="107.5" cy="77.5" r="3.5"></circle>
                            <use id="Rectangle-24" stroke="#373D44" mask="url(#mask-43)" stroke-width="4" fill="#FFFFFF" xlink:href="#path-42"></use>
                            <rect id="Rectangle-25" fill="#848E9B" x="22.0016664" y="104" width="3" height="7" rx="1.5"></rect>
                            <rect id="Rectangle-25" fill="#848E9B" x="29.0016664" y="104" width="3" height="7" rx="1.5"></rect>
                            <rect id="Rectangle-25" fill="#848E9B" x="36.0016664" y="104" width="3" height="7" rx="1.5"></rect>
                            <circle id="Oval-1" fill="#3CCD3F" cx="77.5" cy="107.5" r="3.5"></circle>
                            <circle id="Oval-1" fill="#B8C0C9" cx="92.5" cy="107.5" r="3.5"></circle>
                            <circle id="Oval-1" fill="#49B9E8" cx="107.5" cy="107.5" r="3.5"></circle>
                            <use id="Rectangle-24" stroke="#373D44" mask="url(#mask-45)" stroke-width="4" fill="#FFFFFF" xlink:href="#path-44"></use>
                            <rect id="Rectangle-25" fill="#848E9B" x="22.0016664" y="134" width="3" height="7" rx="1.5"></rect>
                            <rect id="Rectangle-25" fill="#848E9B" x="29.0016664" y="134" width="3" height="7" rx="1.5"></rect>
                            <rect id="Rectangle-25" fill="#848E9B" x="36.0016664" y="134" width="3" height="7" rx="1.5"></rect>
                            <circle id="Oval-1" fill="#FFCC01" cx="77.5" cy="137.5" r="3.5"></circle>
                            <circle id="Oval-1" fill="#49B9E8" cx="92.5" cy="137.5" r="3.5"></circle>
                            <circle id="Oval-1" fill="#3CCD3F" cx="107.5" cy="137.5" r="3.5"></circle>
                            <use id="Rectangle-24" stroke="#373D44" mask="url(#mask-47)" stroke-width="4" fill="#FFFFFF" xlink:href="#path-46"></use>
                            <rect id="Rectangle-25" fill="#848E9B" x="22.0016664" y="164" width="3" height="7" rx="1.5"></rect>
                            <rect id="Rectangle-25" fill="#848E9B" x="29.0016664" y="164" width="3" height="7" rx="1.5"></rect>
                            <rect id="Rectangle-25" fill="#848E9B" x="36.0016664" y="164" width="3" height="7" rx="1.5"></rect>
                            <circle id="Oval-1" fill="#49B9E8" cx="77.5" cy="167.5" r="3.5"></circle>
                            <circle id="Oval-1" fill="#B8C0C9" cx="92.5" cy="167.5" r="3.5"></circle>
                            <circle id="Oval-1" fill="#3CCD3F" cx="107.5" cy="167.5" r="3.5"></circle>
                            <use id="Rectangle-24" stroke="#373D44" mask="url(#mask-49)" stroke-width="4" fill="#FFFFFF" xlink:href="#path-48"></use>
                            <rect id="Rectangle-25" fill="#848E9B" x="22.0016664" y="194" width="3" height="7" rx="1.5"></rect>
                            <rect id="Rectangle-25" fill="#848E9B" x="29.0016664" y="194" width="3" height="7" rx="1.5"></rect>
                            <rect id="Rectangle-25" fill="#848E9B" x="36.0016664" y="194" width="3" height="7" rx="1.5"></rect>
                            <circle id="Oval-1" fill="#FFCC01" cx="77.5" cy="197.5" r="3.5"></circle>
                            <circle id="Oval-1" fill="#B8C0C9" cx="92.5" cy="197.5" r="3.5"></circle>
                            <circle id="Oval-1" fill="#B8C0C9" cx="107.5" cy="197.5" r="3.5"></circle>
                            <use id="Rectangle-24" stroke="#373D44" mask="url(#mask-51)" stroke-width="4" fill="#FFFFFF" xlink:href="#path-50"></use>
                            <rect id="Rectangle-25" fill="#848E9B" x="22.0016664" y="224" width="3" height="7" rx="1.5"></rect>
                            <rect id="Rectangle-25" fill="#848E9B" x="29.0016664" y="224" width="3" height="7" rx="1.5"></rect>
                            <rect id="Rectangle-25" fill="#848E9B" x="36.0016664" y="224" width="3" height="7" rx="1.5"></rect>
                            <circle id="Oval-1" fill="#B8C0C9" cx="77.5" cy="227.5" r="3.5"></circle>
                            <circle id="Oval-1" fill="#B8C0C9" cx="92.5" cy="227.5" r="3.5"></circle>
                            <circle id="Oval-1" fill="#49B9E8" cx="107.5" cy="227.5" r="3.5"></circle>
                        </g>
                    </g>
                </g>
            </g>
            <g id="Group-43" transform="translate(115.000000, 305.000000)">
                <use id="Rectangle-921" stroke="#373D44" mask="url(#mask-53)" stroke-width="4" fill="#E8EBED" xlink:href="#path-52"></use>
                <rect id="Rectangle-922" fill="#373D44" x="22" y="0" width="2" height="4"></rect>
                <rect id="Rectangle-922" fill="#373D44" x="26" y="0" width="2" height="4"></rect>
                <rect id="Rectangle-922" fill="#373D44" x="30" y="0" width="2" height="4"></rect>
                <rect id="Rectangle-922" fill="#373D44" x="34" y="0" width="2" height="4"></rect>
                <rect id="Rectangle-922" fill="#373D44" x="38" y="0" width="2" height="4"></rect>
                <rect id="Rectangle-922" fill="#373D44" x="42" y="0" width="2" height="4"></rect>
                <rect id="Rectangle-922" fill="#373D44" x="46" y="0" width="2" height="4"></rect>
                <rect id="Rectangle-922" fill="#373D44" x="50" y="0" width="2" height="4"></rect>
                <rect id="Rectangle-922" fill="#373D44" x="54" y="0" width="2" height="4"></rect>
                <rect id="Rectangle-922" fill="#373D44" x="58" y="0" width="2" height="4"></rect>
                <rect id="Rectangle-922" fill="#373D44" x="62" y="0" width="2" height="4"></rect>
                <rect id="Rectangle-922" fill="#373D44" x="66" y="0" width="2" height="4"></rect>
                <rect id="Rectangle-922" fill="#373D44" x="70" y="0" width="2" height="4"></rect>
                <rect id="Rectangle-922" fill="#373D44" x="74" y="0" width="2" height="4"></rect>
                <rect id="Rectangle-922" fill="#373D44" x="22" y="16" width="2" height="4"></rect>
                <rect id="Rectangle-922" fill="#373D44" x="26" y="16" width="2" height="4"></rect>
                <rect id="Rectangle-922" fill="#373D44" x="30" y="16" width="2" height="4"></rect>
                <rect id="Rectangle-922" fill="#373D44" x="34" y="16" width="2" height="4"></rect>
                <rect id="Rectangle-922" fill="#373D44" x="6" y="0" width="2" height="4"></rect>
                <rect id="Rectangle-922" fill="#373D44" x="10" y="0" width="2" height="4"></rect>
                <rect id="Rectangle-922" fill="#373D44" x="14" y="0" width="2" height="4"></rect>
                <rect id="Rectangle-922" fill="#373D44" x="18" y="0" width="2" height="4"></rect>
                <rect id="Rectangle-922" fill="#373D44" x="6" y="16" width="2" height="4"></rect>
                <rect id="Rectangle-922" fill="#373D44" x="2" y="0" width="2" height="4"></rect>
                <rect id="Rectangle-922" fill="#373D44" x="2" y="16" width="2" height="4"></rect>
                <rect id="Rectangle-922" fill="#373D44" x="10" y="16" width="2" height="4"></rect>
                <rect id="Rectangle-922" fill="#373D44" x="14" y="16" width="2" height="4"></rect>
                <rect id="Rectangle-922" fill="#373D44" x="18" y="16" width="2" height="4"></rect>
                <rect id="Rectangle-922" fill="#373D44" x="38" y="16" width="2" height="4"></rect>
                <rect id="Rectangle-922" fill="#373D44" x="42" y="16" width="2" height="4"></rect>
                <rect id="Rectangle-922" fill="#373D44" x="46" y="16" width="2" height="4"></rect>
                <rect id="Rectangle-922" fill="#373D44" x="50" y="16" width="2" height="4"></rect>
                <rect id="Rectangle-922" fill="#373D44" x="54" y="16" width="2" height="4"></rect>
                <rect id="Rectangle-922" fill="#373D44" x="58" y="16" width="2" height="4"></rect>
                <rect id="Rectangle-922" fill="#373D44" x="62" y="16" width="2" height="4"></rect>
                <rect id="Rectangle-922" fill="#373D44" x="66" y="16" width="2" height="4"></rect>
                <rect id="Rectangle-922" fill="#373D44" x="70" y="16" width="2" height="4"></rect>
                <rect id="Rectangle-922" fill="#373D44" x="74" y="16" width="2" height="4"></rect>
                <rect id="Rectangle-922" fill="#373D44" x="78" y="0" width="2" height="4"></rect>
                <rect id="Rectangle-922" fill="#373D44" x="78" y="16" width="2" height="4"></rect>
                <rect id="Rectangle-922" fill="#373D44" x="82" y="0" width="2" height="4"></rect>
                <rect id="Rectangle-922" fill="#373D44" x="82" y="16" width="2" height="4"></rect>
                <rect id="Rectangle-922" fill="#373D44" x="86" y="0" width="2" height="4"></rect>
                <rect id="Rectangle-922" fill="#373D44" x="86" y="16" width="2" height="4"></rect>
            </g>
            <g id="Group-47" transform="translate(112.000000, 341.000000)">
                <g id="Group-45">
                    <use id="Rectangle-954" stroke="#373D44" mask="url(#mask-55)" stroke-width="4" fill="#728699" xlink:href="#path-54"></use>
                    <rect id="Rectangle-951" fill="#373D44" x="6" y="3" width="2" height="2"></rect>
                    <rect id="Rectangle-951" fill="#373D44" x="12" y="3" width="2" height="2"></rect>
                    <rect id="Rectangle-951" fill="#373D44" x="18" y="3" width="2" height="2"></rect>
                    <rect id="Rectangle-951" fill="#373D44" x="24" y="3" width="2" height="2"></rect>
                    <rect id="Rectangle-951" fill="#373D44" x="30" y="3" width="2" height="2"></rect>
                </g>
                <g id="Group-44" transform="translate(40.000000, 0.000000)">
                    <use id="Rectangle-954" stroke="#373D44" mask="url(#mask-57)" stroke-width="4" fill="#728699" xlink:href="#path-56"></use>
                    <rect id="Rectangle-951" fill="#373D44" x="6" y="3" width="2" height="2"></rect>
                    <rect id="Rectangle-951" fill="#373D44" x="12" y="3" width="2" height="2"></rect>
                    <rect id="Rectangle-951" fill="#373D44" x="18" y="3" width="2" height="2"></rect>
                    <rect id="Rectangle-951" fill="#373D44" x="24" y="3" width="2" height="2"></rect>
                    <rect id="Rectangle-951" fill="#373D44" x="30" y="3" width="2" height="2"></rect>
                    <rect id="Rectangle-951" fill="#373D44" x="36" y="3" width="2" height="2"></rect>
                    <rect id="Rectangle-951" fill="#373D44" x="42" y="3" width="2" height="2"></rect>
                </g>
            </g>
            <g id="Group-46" transform="translate(157.000000, 233.000000) scale(-1, 1) translate(-157.000000, -233.000000) translate(112.000000, 229.000000)">
                <g id="Group-45">
                    <use id="Rectangle-954" stroke="#373D44" mask="url(#mask-59)" stroke-width="4" fill="#728699" xlink:href="#path-58"></use>
                    <rect id="Rectangle-951" fill="#373D44" x="6" y="3" width="2" height="2"></rect>
                    <rect id="Rectangle-951" fill="#373D44" x="12" y="3" width="2" height="2"></rect>
                    <rect id="Rectangle-951" fill="#373D44" x="18" y="3" width="2" height="2"></rect>
                    <rect id="Rectangle-951" fill="#373D44" x="24" y="3" width="2" height="2"></rect>
                    <rect id="Rectangle-951" fill="#373D44" x="30" y="3" width="2" height="2"></rect>
                </g>
                <g id="Group-44" transform="translate(40.000000, 0.000000)">
                    <use id="Rectangle-954" stroke="#373D44" mask="url(#mask-61)" stroke-width="4" fill="#728699" xlink:href="#path-60"></use>
                    <rect id="Rectangle-951" fill="#373D44" x="6" y="3" width="2" height="2"></rect>
                    <rect id="Rectangle-951" fill="#373D44" x="12" y="3" width="2" height="2"></rect>
                    <rect id="Rectangle-951" fill="#373D44" x="18" y="3" width="2" height="2"></rect>
                    <rect id="Rectangle-951" fill="#373D44" x="24" y="3" width="2" height="2"></rect>
                    <rect id="Rectangle-951" fill="#373D44" x="30" y="3" width="2" height="2"></rect>
                    <rect id="Rectangle-951" fill="#373D44" x="36" y="3" width="2" height="2"></rect>
                    <rect id="Rectangle-951" fill="#373D44" x="42" y="3" width="2" height="2"></rect>
                </g>
            </g>
            <use id="Rectangle-964" stroke="#373D44" mask="url(#mask-63)" stroke-width="4" fill="#728699" xlink:href="#path-62"></use>
            <use id="Rectangle-964" stroke="#373D44" mask="url(#mask-65)" stroke-width="4" fill="#728699" xlink:href="#path-64"></use>
            <use id="Rectangle-964" stroke="#373D44" mask="url(#mask-67)" stroke-width="4" fill="#728699" xlink:href="#path-66"></use>
            <use id="Rectangle-964" stroke="#373D44" mask="url(#mask-69)" stroke-width="4" fill="#728699" xlink:href="#path-68"></use>
        </g>
    </g>
</svg>
