<svg width="78" height="88" viewBox="0 0 78 88" xmlns="http://www.w3.org/2000/svg"><g fill="none"><path d="M35.524.83c1.911-1.107 5.013-1.105 6.922 0l32.092 18.578c1.912 1.107 3.462 3.803 3.462 6.013v37.157c0 2.214-1.554 4.908-3.462 6.013l-32.092 18.578c-1.912 1.107-5.015 1.105-6.922 0l-32.064-18.578c-1.911-1.107-3.46-3.803-3.46-6.013v-37.157c0-2.214 1.552-4.908 3.46-6.013l32.064-18.578z" fill="#0070D3"/><path d="M47.509 57h-17.018c-2.482 0-4.491-2.009-4.491-4.491v-17.018c0-2.482 2.009-4.491 4.491-4.491h8.509c.709 0 1.182.473 1.182 1.182s-.473 1.182-1.182 1.182h-8.509c-1.182 0-2.127.945-2.127 2.127v16.9c0 1.182.945 2.127 2.127 2.127h16.9c1.182 0 2.127-.945 2.127-2.127v-8.391c0-.709.473-1.182 1.182-1.182s1.182.473 1.182 1.182v8.509c.118 2.482-1.891 4.491-4.373 4.491zm-12.303-8.273c-.28 0-.467-.093-.653-.28-.187-.187-.28-.56-.28-.84l.933-4.665c0-.187.093-.373.28-.467l11.196-11.196c.373-.373.933-.373 1.306 0l3.732 3.732c.373.373.373.933 0 1.306l-11.196 11.196c-.093.093-.28.187-.467.28l-4.665.933h-.187z" fill="#fff"/></g></svg>
