<?xml version="1.0" encoding="UTF-8" standalone="no"?>
<svg width="70px" height="80px" viewBox="0 0 70 80" version="1.1" xmlns="http://www.w3.org/2000/svg" xmlns:xlink="http://www.w3.org/1999/xlink">
    <!-- Generator: Sketch 3.7.2 (28276) - http://www.bohemiancoding.com/sketch -->
    <title>Polygon 27</title>
    <desc>Created with Sketch.</desc>
    <defs></defs>
    <g id="Desktop-design" stroke="none" stroke-width="1" fill="none" fill-rule="evenodd">
        <g id="Index---New-page" transform="translate(-517.000000, -3654.000000)">
            <g id="Group-13" transform="translate(210.000000, 671.000000)">
                <g id="Group-37"></g>
                <polygon id="Polygon-27" fill="#642EE1" points="342 2983 376.641016 3003 376.641016 3043 342 3063 307.358984 3043 307.358984 3003"></polygon>
                <path d="M349.111111,3020.02 L349.111111,3030.55556 L334.444444,3030.55556 L334.444444,3015.88889 L344.98,3015.88889 C344.890778,3015.49533 344.833333,3015.08833 344.833333,3014.66667 C344.833333,3014.245 344.890778,3013.838 344.98,3013.44444 L334.444444,3013.44444 C333.097556,3013.44444 332,3014.54444 332,3015.88889 L332,3030.55556 C332,3031.9 333.1,3033 334.444444,3033 L349.111111,3033 C350.455556,3033 351.555556,3031.9 351.555556,3030.55556 L351.555556,3020.02 C351.162,3020.10922 350.755,3020.16667 350.333333,3020.16667 C349.911667,3020.16667 349.504667,3020.10922 349.111111,3020.02 L349.111111,3020.02 Z M350.333333,3011 C348.308111,3011 346.666667,3012.64144 346.666667,3014.66667 C346.666667,3016.69189 348.308111,3018.33333 350.333333,3018.33333 C352.358556,3018.33333 354,3016.69189 354,3014.66667 C354,3012.64144 352.358556,3011 350.333333,3011 L350.333333,3011 Z" id="Shape" fill="#FFFFFF"></path>
            </g>
        </g>
    </g>
</svg>
