<?xml version="1.0" encoding="UTF-8" standalone="no"?>
<svg width="70px" height="80px" viewBox="0 0 70 80" version="1.1" xmlns="http://www.w3.org/2000/svg" xmlns:xlink="http://www.w3.org/1999/xlink">
    <!-- Generator: Sketch 3.7.2 (28276) - http://www.bohemiancoding.com/sketch -->
    <title>Polygon 27 Copy</title>
    <desc>Created with Sketch.</desc>
    <defs></defs>
    <g id="Desktop-design" stroke="none" stroke-width="1" fill="none" fill-rule="evenodd">
        <g id="Index---New-page" transform="translate(-1017.000000, -3654.000000)">
            <g id="Group-13" transform="translate(210.000000, 671.000000)">
                <g id="Group-37"></g>
                <polygon id="Polygon-27-Copy" fill="#903EB9" points="842 2983 876.641016 3003 876.641016 3043 842 3063 807.358984 3043 807.358984 3003"></polygon>
                <path d="M834.679167,3022.69063 C834.883333,3022.49375 835,3022.2125 835,3021.875 C835,3018.725 837.566667,3016.25 840.833333,3016.25 C843.4,3016.25 845.616667,3017.825 846.433333,3020.3 C846.666667,3020.8625 847.366667,3021.2 847.95,3020.975 C848.074492,3020.92698 848.188357,3020.85847 848.288193,3020.77492 C848.533715,3020.75 848.788216,3020.75 849,3020.75 C851.566667,3020.75 853.666667,3022.775 853.666667,3025.25 C853.666667,3027.725 851.566667,3029.75 849,3029.75 L846.666667,3029.75 L833.833333,3029.75 C831.85,3029.75 830.333333,3028.2875 830.333333,3026.375 C830.333333,3024.4625 831.85,3023 833.833333,3023 C834.183333,3023 834.475,3022.8875 834.679167,3022.69063 Z M832.734021,3020.84598 C833.24818,3016.95454 836.645406,3014 840.833333,3014 C843.979311,3014 846.842513,3015.81785 848.236793,3018.55486 C848.491195,3018.5214 848.745598,3018.5 849,3018.5 C852.85,3018.5 856,3021.5375 856,3025.25 C856,3028.9625 852.85,3032 849,3032 L846.666667,3032 L833.833334,3032 C830.566667,3032 828,3029.525 828,3026.375 C828,3023.58825 830.008841,3021.32979 832.734021,3020.84598 Z" id="Combined-Shape" fill="#FFFFFF"></path>
            </g>
        </g>
    </g>
</svg>
