<?xml version="1.0" encoding="UTF-8" standalone="no"?>
<svg width="70px" height="80px" viewBox="0 0 70 80" version="1.1" xmlns="http://www.w3.org/2000/svg" xmlns:xlink="http://www.w3.org/1999/xlink">
    <!-- Generator: Sketch 3.7.2 (28276) - http://www.bohemiancoding.com/sketch -->
    <title>Polygon 27</title>
    <desc>Created with Sketch.</desc>
    <defs>
        <path d="M338,2664 C333,2664 329,2660 329,2655 C329,2650 333,2646 338,2646 C343,2646 347,2650 347,2655 C347,2660 343,2664 338,2664 L338,2664 Z M338,2648 C334.1,2648 331,2651.1 331,2655 C331,2658.9 334.1,2662 338,2662 C341.9,2662 345,2658.9 345,2655 C345,2651.1 341.9,2648 338,2648 L338,2648 Z" id="path-1"></path>
        <mask id="mask-2" maskContentUnits="userSpaceOnUse" maskUnits="objectBoundingBox" x="-0.5" y="-0.5" width="19" height="19">
            <rect x="328.5" y="2645.5" width="19" height="19" fill="white"></rect>
            <use xlink:href="#path-1" fill="black"></use>
        </mask>
        <path d="M352,2670 C351.7,2670 351.5,2669.9 351.3,2669.7 L343.3,2661.7 C342.9,2661.3 342.9,2660.7 343.3,2660.3 C343.7,2659.9 344.3,2659.9 344.7,2660.3 L352.7,2668.3 C353.1,2668.7 353.1,2669.3 352.7,2669.7 C352.5,2669.9 352.3,2670 352,2670 L352,2670 Z" id="path-3"></path>
        <mask id="mask-4" maskContentUnits="userSpaceOnUse" maskUnits="objectBoundingBox" x="-0.5" y="-0.5" width="11" height="11">
            <rect x="342.5" y="2659.5" width="11" height="11" fill="white"></rect>
            <use xlink:href="#path-3" fill="black"></use>
        </mask>
    </defs>
    <g id="Desktop-design" stroke="none" stroke-width="1" fill="none" fill-rule="evenodd">
        <g id="Index---New-page" transform="translate(-516.000000, -3289.000000)">
            <g id="Group-13" transform="translate(210.000000, 671.000000)">
                <g id="Group-37" fill="#0070D3">
                    <polygon id="Polygon-27" points="340.641016 2618 375.282032 2638 375.282032 2678 340.641016 2698 306 2678 306 2638"></polygon>
                </g>
                <g id="Shape">
                    <use fill="#FFFFFF" fill-rule="evenodd" xlink:href="#path-1"></use>
                    <use stroke="#FFFFFF" mask="url(#mask-2)" stroke-width="1" xlink:href="#path-1"></use>
                </g>
                <g id="Shape">
                    <use fill="#FFFFFF" fill-rule="evenodd" xlink:href="#path-3"></use>
                    <use stroke="#FFFFFF" mask="url(#mask-4)" stroke-width="1" xlink:href="#path-3"></use>
                </g>
            </g>
        </g>
    </g>
</svg>
