<?xml version="1.0" encoding="UTF-8" standalone="no"?>
<svg width="70px" height="80px" viewBox="0 0 70 80" version="1.1" xmlns="http://www.w3.org/2000/svg" xmlns:xlink="http://www.w3.org/1999/xlink">
    <!-- Generator: Sketch 3.7.2 (28276) - http://www.bohemiancoding.com/sketch -->
    <title>Polygon 27 Copy</title>
    <desc>Created with Sketch.</desc>
    <defs></defs>
    <g id="Desktop-design" stroke="none" stroke-width="1" fill="none" fill-rule="evenodd">
        <g id="Index---New-page" transform="translate(-1016.000000, -3289.000000)">
            <g id="Group-13" transform="translate(210.000000, 671.000000)">
                <g id="Group-37" fill="#49B9E8">
                    <polygon id="Polygon-27-Copy" points="841 2618 875.641016 2638 875.641016 2678 841 2698 806.358984 2678 806.358984 2638"></polygon>
                </g>
                <path d="M848.2,2669 L833.8,2669 C831.7,2669 830,2667.3 830,2665.2 L830,2650.8 C830,2648.7 831.7,2647 833.8,2647 L841,2647 C841.6,2647 842,2647.4 842,2648 C842,2648.6 841.6,2649 841,2649 L833.8,2649 C832.8,2649 832,2649.8 832,2650.8 L832,2665.1 C832,2666.1 832.8,2666.9 833.8,2666.9 L848.1,2666.9 C849.1,2666.9 849.9,2666.1 849.9,2665.1 L849.9,2658 C849.9,2657.4 850.3,2657 850.9,2657 C851.5,2657 851.9,2657.4 851.9,2658 L851.9,2665.2 C852,2667.3 850.3,2669 848.2,2669 Z M837.789474,2662 C837.552632,2662 837.394737,2661.92105 837.236842,2661.76316 C837.078947,2661.60526 837,2661.28947 837,2661.05263 L837.789474,2657.10526 C837.789474,2656.94737 837.868421,2656.78947 838.026316,2656.71053 L847.5,2647.23684 C847.815789,2646.92105 848.289474,2646.92105 848.605263,2647.23684 L851.763158,2650.39474 C852.078947,2650.71053 852.078947,2651.18421 851.763158,2651.5 L842.289474,2660.97368 C842.210526,2661.05263 842.052632,2661.13158 841.894737,2661.21053 L837.947368,2662 C837.868421,2662 837.868421,2662 837.789474,2662 Z" id="Combined-Shape" fill="#FFFFFF"></path>
            </g>
        </g>
    </g>
</svg>
