<svg id="Layer_2" data-name="Layer 2" xmlns="http://www.w3.org/2000/svg" xmlns:xlink="http://www.w3.org/1999/xlink" viewBox="0 0 551.39 490.77"><defs><style>.cls-1,.cls-12,.cls-29,.cls-3,.cls-30,.cls-31{fill:#dedede;}.cls-1,.cls-14,.cls-2,.cls-27,.cls-29,.cls-3,.cls-30,.cls-31,.cls-33,.cls-34,.cls-35,.cls-37,.cls-39,.cls-4,.cls-45,.cls-5,.cls-7,.cls-8{stroke:#33404c;}.cls-1,.cls-10,.cls-11,.cls-14,.cls-2,.cls-27,.cls-30,.cls-31,.cls-33,.cls-4,.cls-46,.cls-47,.cls-50,.cls-7,.cls-8{stroke-miterlimit:10;}.cls-1,.cls-10,.cls-11,.cls-14,.cls-2,.cls-27,.cls-29,.cls-3,.cls-30,.cls-33,.cls-34,.cls-35,.cls-4,.cls-45,.cls-46,.cls-5,.cls-7,.cls-8{stroke-width:2px;}.cls-2,.cls-22,.cls-33,.cls-34{fill:#49b9e8;}.cls-3,.cls-30,.cls-33,.cls-34,.cls-35,.cls-37,.cls-39,.cls-45{stroke-linecap:round;}.cls-29,.cls-3,.cls-34,.cls-35,.cls-37,.cls-39,.cls-45,.cls-5{stroke-linejoin:round;}.cls-18,.cls-4{fill:#ffcc03;}.cls-5{fill:#b2b2b2;}.cls-6{fill:#e4f5fc;}.cls-15,.cls-7{fill:#d1edf9;}.cls-17,.cls-8{fill:#6527e1;}.cls-9{fill:#b0b2b4;}.cls-10,.cls-11,.cls-14,.cls-35,.cls-37,.cls-39,.cls-46,.cls-47,.cls-50{fill:none;}.cls-10{stroke:#c8eaf8;}.cls-11,.cls-47{stroke:#49b9e8;}.cls-13{clip-path:url(#clip-path);}.cls-16{fill:#8d9093;}.cls-19,.cls-27{fill:#903eb9;}.cls-20{fill:#1c2228;}.cls-21{fill:#0070d3;}.cls-23{clip-path:url(#clip-path-2);}.cls-24{clip-path:url(#clip-path-3);}.cls-25{fill:#338ddc;}.cls-26{clip-path:url(#clip-path-4);}.cls-28{fill:#33404c;}.cls-31{stroke-width:1.74px;}.cls-32{clip-path:url(#clip-path-5);}.cls-36{clip-path:url(#clip-path-6);}.cls-37,.cls-47{stroke-width:3px;}.cls-38{clip-path:url(#clip-path-7);}.cls-39{stroke-width:2.66px;}.cls-40{clip-path:url(#clip-path-8);}.cls-41{clip-path:url(#clip-path-9);}.cls-42{clip-path:url(#clip-path-10);}.cls-43{fill:#ffa300;}.cls-44{clip-path:url(#clip-path-11);}.cls-45,.cls-48,.cls-49{fill:#fff;}.cls-46,.cls-50{stroke:#ffcc03;}.cls-48{font-size:24.61px;font-family:MyriadPro-Regular, Myriad Pro;}.cls-50{stroke-width:1.5px;}</style><clipPath id="clip-path"><polygon id="_ścieżka_przycinająca_" data-name="&lt;ścieżka przycinająca&gt;" class="cls-1" points="103.58 134.63 74.8 84.78 46.02 134.63 103.58 134.63"/></clipPath><clipPath id="clip-path-2"><rect id="_Prostokąt_" data-name="&lt;Prostokąt&gt;" class="cls-1" x="244.39" y="41.67" width="15" height="24" transform="translate(503.78 107.33) rotate(-180)"/></clipPath><clipPath id="clip-path-3"><rect id="_Prostokąt_2" data-name="&lt;Prostokąt&gt;" class="cls-2" x="35.08" y="123.13" width="74.92" height="20.39" transform="translate(145.09 266.66) rotate(-180)"/></clipPath><clipPath id="clip-path-4"><path id="_Prostokąt_3" data-name="&lt;Prostokąt&gt;" class="cls-2" d="M37.09,143.53H108a6.65,6.65,0,0,1,6.65,6.65v0a0,0,0,0,1,0,0H30.44a0,0,0,0,1,0,0v0a6.65,6.65,0,0,1,6.65-6.65Z" transform="translate(145.09 293.7) rotate(-180)"/></clipPath><clipPath id="clip-path-5"><path id="_Prostokąt_4" data-name="&lt;Prostokąt&gt;" class="cls-1" d="M470,170.51h33.29a0,0,0,0,1,0,0v17.8A16.65,16.65,0,0,1,486.6,205h0A16.65,16.65,0,0,1,470,188.32v-17.8A0,0,0,0,1,470,170.51Z" transform="translate(973.2 375.48) rotate(-180)"/></clipPath><clipPath id="clip-path-6"><circle id="_ścieżka_przycinająca_2" data-name="&lt;ścieżka przycinająca&gt;" class="cls-3" cx="444.56" cy="466.4" r="13.54"/></clipPath><clipPath id="clip-path-7"><path id="_Prostokąt_5" data-name="&lt;Prostokąt&gt;" class="cls-3" d="M418.28,413.12h14.9a9.45,9.45,0,0,1,9.45,9.45V437.8a0,0,0,0,1,0,0H408.84a0,0,0,0,1,0,0V422.57A9.45,9.45,0,0,1,418.28,413.12Z" transform="translate(851.47 850.93) rotate(-180)"/></clipPath><clipPath id="clip-path-8"><path id="_Prostokąt_6" data-name="&lt;Prostokąt&gt;" class="cls-1" d="M450.24,10h15.21a9.7,9.7,0,0,1,9.7,9.7v1.67a0,0,0,0,1,0,0h-34.6a0,0,0,0,1,0,0V19.67a9.7,9.7,0,0,1,9.7-9.7Z" transform="translate(915.69 31.31) rotate(-180)"/></clipPath><clipPath id="clip-path-9"><path id="_Prostokąt_7" data-name="&lt;Prostokąt&gt;" class="cls-1" d="M452.09,37.26H463.6a0,0,0,0,1,0,0v3a5.76,5.76,0,0,1-5.76,5.76h0a5.76,5.76,0,0,1-5.76-5.76v-3A0,0,0,0,1,452.09,37.26Z" transform="translate(915.69 83.31) rotate(-180)"/></clipPath><clipPath id="clip-path-10"><circle id="_ścieżka_przycinająca_3" data-name="&lt;ścieżka przycinająca&gt;" class="cls-4" cx="457.84" cy="63.31" r="18.4"/></clipPath><clipPath id="clip-path-11"><rect id="_Prostokąt_8" data-name="&lt;Prostokąt&gt;" class="cls-1" x="435.59" y="9.97" width="44.08" height="5.68" transform="translate(915.27 25.63) rotate(-180)"/></clipPath></defs><title>Artboard 1</title><path id="_ścieżka_" data-name="&lt;ścieżka&gt;" class="cls-5" d="M440.27,57.81s-9.35-4.48-15.41,2.69l1.65,2.75s7.08-4.75,13.76-.1C440.35,61.46,440.27,57.81,440.27,57.81Z"/><rect id="_Prostokąt_9" data-name="&lt;Prostokąt&gt;" class="cls-6" x="367.39" y="476.21" width="183" height="13.46" transform="translate(917.78 965.87) rotate(-180)"/><rect id="_ścieżka_2" data-name="&lt;ścieżka&gt;" class="cls-7" x="533.73" y="157.78" width="10" height="331.99"/><polygon id="_ścieżka_3" data-name="&lt;ścieżka&gt;" class="cls-8" points="269.39 99.29 250.89 88.79 232.39 99.29 232.39 120.28 250.89 130.78 269.39 120.28 269.39 99.29"/><g id="_grupa_" data-name="&lt;grupa&gt;"><polygon id="_ścieżka_4" data-name="&lt;ścieżka&gt;" class="cls-3" points="213.55 89.27 235.16 106.57 232.92 110.29 208.94 95.18 213.55 89.27"/><g id="_grupa_2" data-name="&lt;grupa&gt;"><circle id="_ścieżka_5" data-name="&lt;ścieżka&gt;" class="cls-1" cx="233.92" cy="108.43" r="4.3" transform="translate(-23.07 129.27) rotate(-29.51)"/><circle id="_ścieżka_6" data-name="&lt;ścieżka&gt;" class="cls-9" cx="233.92" cy="108.43" r="2.19" transform="translate(-23.07 129.27) rotate(-29.51)"/></g><polygon id="_ścieżka_7" data-name="&lt;ścieżka&gt;" class="cls-3" points="247.64 83.32 215.56 96.17 212.89 91.43 244.06 74.67 247.64 83.32"/><g id="_grupa_3" data-name="&lt;grupa&gt;"><circle id="_ścieżka_8" data-name="&lt;ścieżka&gt;" class="cls-1" cx="214.3" cy="93.67" r="5.36"/><circle id="_ścieżka_9" data-name="&lt;ścieżka&gt;" class="cls-9" cx="214.3" cy="93.67" r="2.74"/></g></g><g id="_grupa_4" data-name="&lt;grupa&gt;"><polygon id="_ścieżka_10" data-name="&lt;ścieżka&gt;" class="cls-3" points="289.53 89.27 267.91 106.57 270.16 110.29 294.14 95.18 289.53 89.27"/><g id="_grupa_5" data-name="&lt;grupa&gt;"><circle id="_ścieżka_11" data-name="&lt;ścieżka&gt;" class="cls-1" cx="269.16" cy="108.43" r="4.3" transform="translate(42.23 289.28) rotate(-60.49)"/><circle id="_ścieżka_12" data-name="&lt;ścieżka&gt;" class="cls-9" cx="269.16" cy="108.43" r="2.19" transform="translate(42.23 289.28) rotate(-60.49)"/></g><polygon id="_ścieżka_13" data-name="&lt;ścieżka&gt;" class="cls-3" points="255.43 83.32 287.52 96.17 290.19 91.43 259.02 74.67 255.43 83.32"/><g id="_grupa_6" data-name="&lt;grupa&gt;"><circle id="_ścieżka_14" data-name="&lt;ścieżka&gt;" class="cls-1" cx="288.78" cy="93.67" r="5.36"/><circle id="_ścieżka_15" data-name="&lt;ścieżka&gt;" class="cls-9" cx="288.78" cy="93.67" r="2.74"/></g></g><path id="_ścieżka_16" data-name="&lt;ścieżka&gt;" class="cls-10" d="M121.56,26.48H9.81c-12,0-11.53-16.5,0-16.5s8.42,9.64,8.42,23.94V113.6"/><path id="_ścieżka_17" data-name="&lt;ścieżka&gt;" class="cls-10" d="M50.5,137H33.31a15.07,15.07,0,0,1-15.07-15.07V91.43"/><path id="_ścieżka_18" data-name="&lt;ścieżka&gt;" class="cls-11" d="M112.92,18.62H58.34A16.44,16.44,0,0,0,41.9,35.06h0A16.44,16.44,0,0,0,58.34,51.5H98.2"/><path id="_ścieżka_19" data-name="&lt;ścieżka&gt;" class="cls-11" d="M63.68,132.77h54.57a14.25,14.25,0,0,0,14.25-14.25V65.75A14.25,14.25,0,0,0,118.25,51.5H63.68"/><path id="_Prostokąt_10" data-name="&lt;Prostokąt&gt;" class="cls-1" d="M87.22,100.41h1.61a2.28,2.28,0,0,1,2.28,2.28v6.07A2.28,2.28,0,0,1,88.83,111H87.22a0,0,0,0,1,0,0V100.41A0,0,0,0,1,87.22,100.41Z" transform="translate(-41.29 59.78) rotate(-30.46)"/><g id="_Grupa_przycinania_" data-name="&lt;Grupa przycinania&gt;"><polygon id="_ścieżka_przycinająca_4" data-name="&lt;ścieżka przycinająca&gt;" class="cls-12" points="103.58 134.63 74.8 84.78 46.02 134.63 103.58 134.63"/><g class="cls-13"><polyline id="_ścieżka_20" data-name="&lt;ścieżka&gt;" class="cls-9" points="73.49 95.5 56.86 130.33 46.02 120.3 65.07 79.67 73.49 95.5"/></g><polygon id="_ścieżka_przycinająca_5" data-name="&lt;ścieżka przycinająca&gt;" class="cls-14" points="103.58 134.63 74.8 84.78 46.02 134.63 103.58 134.63"/></g><polygon id="_ścieżka_21" data-name="&lt;ścieżka&gt;" class="cls-15" points="358.39 147.39 340.39 137.01 322.39 147.39 322.39 168.16 340.39 178.55 358.39 168.16 358.39 147.39"/><polygon id="_ścieżka_22" data-name="&lt;ścieżka&gt;" class="cls-15" points="314.39 147.39 296.39 137.01 278.39 147.39 278.39 168.16 296.39 178.55 314.39 168.16 314.39 147.39"/><polygon id="_ścieżka_23" data-name="&lt;ścieżka&gt;" class="cls-15" points="380.39 185.3 362.39 174.91 344.39 185.3 344.39 206.07 362.39 216.45 380.39 206.07 380.39 185.3"/><polygon id="_ścieżka_24" data-name="&lt;ścieżka&gt;" class="cls-16" points="336.39 185.3 318.39 174.91 300.39 185.3 300.39 206.07 318.39 216.45 336.39 206.07 336.39 185.3"/><polygon id="_ścieżka_25" data-name="&lt;ścieżka&gt;" class="cls-17" points="291.39 185.3 273.39 174.91 255.39 185.3 255.39 206.07 273.39 216.45 291.39 206.07 291.39 185.3"/><polygon id="_ścieżka_26" data-name="&lt;ścieżka&gt;" class="cls-15" points="247.39 185.3 229.39 174.91 211.39 185.3 211.39 206.07 229.39 216.45 247.39 206.07 247.39 185.3"/><polygon id="_ścieżka_27" data-name="&lt;ścieżka&gt;" class="cls-15" points="380.39 268.38 362.39 258 344.39 268.38 344.39 289.15 362.39 299.54 380.39 289.15 380.39 268.38"/><polygon id="_ścieżka_28" data-name="&lt;ścieżka&gt;" class="cls-18" points="336.39 268.38 318.39 258 300.39 268.38 300.39 289.15 318.39 299.54 336.39 289.15 336.39 268.38"/><polygon id="_ścieżka_29" data-name="&lt;ścieżka&gt;" class="cls-19" points="291.39 268.38 273.39 258 255.39 268.38 255.39 289.15 273.39 299.54 291.39 289.15 291.39 268.38"/><polygon id="_ścieżka_30" data-name="&lt;ścieżka&gt;" class="cls-15" points="247.39 268.38 229.39 258 211.39 268.38 211.39 289.15 229.39 299.54 247.39 289.15 247.39 268.38"/><polygon id="_ścieżka_31" data-name="&lt;ścieżka&gt;" class="cls-15" points="403.39 226.84 385.39 216.45 367.39 226.84 367.39 247.61 385.39 258 403.39 247.61 403.39 226.84"/><polygon id="_ścieżka_32" data-name="&lt;ścieżka&gt;" class="cls-20" points="358.39 226.84 340.39 216.45 322.39 226.84 322.39 247.61 340.39 258 358.39 247.61 358.39 226.84"/><polygon id="_ścieżka_33" data-name="&lt;ścieżka&gt;" class="cls-21" points="314.39 226.84 296.39 216.45 278.39 226.84 278.39 247.61 296.39 258 314.39 247.61 314.39 226.84"/><polygon id="_ścieżka_34" data-name="&lt;ścieżka&gt;" class="cls-22" points="268.39 226.84 250.89 216.45 233.39 226.84 233.39 247.61 250.89 258 268.39 247.61 268.39 226.84"/><polygon id="_ścieżka_35" data-name="&lt;ścieżka&gt;" class="cls-15" points="225.39 226.84 207.39 216.45 189.39 226.84 189.39 247.61 207.39 258 225.39 247.61 225.39 226.84"/><polygon id="_ścieżka_36" data-name="&lt;ścieżka&gt;" class="cls-15" points="268.39 147.39 250.89 137.01 233.39 147.39 233.39 168.16 250.89 178.55 268.39 168.16 268.39 147.39"/><polygon id="_ścieżka_37" data-name="&lt;ścieżka&gt;" class="cls-15" points="358.39 309.92 340.39 299.54 322.39 309.92 322.39 330.69 340.39 341.08 358.39 330.69 358.39 309.92"/><polygon id="_ścieżka_38" data-name="&lt;ścieżka&gt;" class="cls-15" points="314.39 309.92 296.39 299.54 278.39 309.92 278.39 330.69 296.39 341.08 314.39 330.69 314.39 309.92"/><polygon id="_ścieżka_39" data-name="&lt;ścieżka&gt;" class="cls-15" points="268.39 309.92 250.89 299.54 233.39 309.92 233.39 330.69 250.89 341.08 268.39 330.69 268.39 309.92"/><rect id="_Prostokąt_11" data-name="&lt;Prostokąt&gt;" class="cls-1" x="247.39" y="65.67" width="9" height="6" transform="translate(503.78 137.33) rotate(-180)"/><g id="_Grupa_przycinania_2" data-name="&lt;Grupa przycinania&gt;"><rect id="_Prostokąt_12" data-name="&lt;Prostokąt&gt;" class="cls-12" x="244.39" y="41.67" width="15" height="24" transform="translate(503.78 107.33) rotate(-180)"/><g class="cls-23"><rect id="_Prostokąt_13" data-name="&lt;Prostokąt&gt;" class="cls-9" x="240.06" y="37.33" width="9.05" height="31.98" transform="translate(489.16 106.64) rotate(-180)"/></g><rect id="_Prostokąt_14" data-name="&lt;Prostokąt&gt;" class="cls-14" x="244.39" y="41.67" width="15" height="24" transform="translate(503.78 107.33) rotate(-180)"/></g><rect id="_Prostokąt_15" data-name="&lt;Prostokąt&gt;" class="cls-5" x="112.92" y="9.97" width="147.46" height="17.29" rx="8.64" ry="8.64" transform="translate(373.3 37.23) rotate(-180)"/><line id="_ścieżka_40" data-name="&lt;ścieżka&gt;" class="cls-1" x1="251.9" y1="41.56" x2="251.9" y2="26.26"/><rect id="_Prostokąt_16" data-name="&lt;Prostokąt&gt;" class="cls-1" x="112.92" y="14.44" width="147.46" height="8.36" rx="4.18" ry="4.18" transform="translate(373.3 37.23) rotate(-180)"/><circle id="_ścieżka_41" data-name="&lt;ścieżka&gt;" class="cls-1" cx="251.74" cy="18.62" r="8.64"/><circle id="_ścieżka_42" data-name="&lt;ścieżka&gt;" class="cls-1" cx="121.56" cy="18.62" r="8.64"/><g id="_Grupa_przycinania_3" data-name="&lt;Grupa przycinania&gt;"><rect id="_Prostokąt_17" data-name="&lt;Prostokąt&gt;" class="cls-22" x="35.08" y="123.13" width="74.92" height="20.39" transform="translate(145.09 266.66) rotate(-180)"/><g class="cls-24"><rect id="_Prostokąt_18" data-name="&lt;Prostokąt&gt;" class="cls-25" x="26.69" y="123.13" width="22.1" height="20.39" transform="translate(75.48 266.66) rotate(-180)"/></g><rect id="_Prostokąt_19" data-name="&lt;Prostokąt&gt;" class="cls-14" x="35.08" y="123.13" width="74.92" height="20.39" transform="translate(145.09 266.66) rotate(-180)"/></g><g id="_Grupa_przycinania_4" data-name="&lt;Grupa przycinania&gt;"><path id="_Prostokąt_20" data-name="&lt;Prostokąt&gt;" class="cls-22" d="M37.09,143.53H108a6.65,6.65,0,0,1,6.65,6.65v0a0,0,0,0,1,0,0H30.44a0,0,0,0,1,0,0v0a6.65,6.65,0,0,1,6.65-6.65Z" transform="translate(145.09 293.7) rotate(-180)"/><g class="cls-26"><rect id="_Prostokąt_21" data-name="&lt;Prostokąt&gt;" class="cls-25" x="28.4" y="136.65" width="22.1" height="20.39" transform="translate(78.9 293.7) rotate(-180)"/></g><path id="_Prostokąt_22" data-name="&lt;Prostokąt&gt;" class="cls-14" d="M37.09,143.53H108a6.65,6.65,0,0,1,6.65,6.65v0a0,0,0,0,1,0,0H30.44a0,0,0,0,1,0,0v0a6.65,6.65,0,0,1,6.65-6.65Z" transform="translate(145.09 293.7) rotate(-180)"/></g><line id="_ścieżka_43" data-name="&lt;ścieżka&gt;" class="cls-1" x1="43.06" y1="111.78" x2="43.06" y2="123.13"/><circle id="_ścieżka_44" data-name="&lt;ścieżka&gt;" class="cls-1" cx="42.73" cy="108.39" r="4.16"/><path id="_Prostokąt_23" data-name="&lt;Prostokąt&gt;" class="cls-27" d="M101.25,117.46H110a0,0,0,0,1,0,0v3.74a1.93,1.93,0,0,1-1.93,1.93h-4.89a1.93,1.93,0,0,1-1.93-1.93v-3.74A0,0,0,0,1,101.25,117.46Z" transform="translate(211.25 240.59) rotate(-180)"/><circle id="_ścieżka_45" data-name="&lt;ścieżka&gt;" class="cls-1" cx="77.86" cy="109.63" r="5.32"/><circle id="_ścieżka_46" data-name="&lt;ścieżka&gt;" class="cls-28" cx="77.86" cy="109.63" r="3.24"/><path id="_Prostokąt_24" data-name="&lt;Prostokąt&gt;" class="cls-4" d="M65.07,83.32H83.24a0,0,0,0,1,0,0v5.63a5.16,5.16,0,0,1-5.16,5.16H70.23a5.16,5.16,0,0,1-5.16-5.16V83.32a0,0,0,0,1,0,0Z" transform="translate(148.31 177.42) rotate(-180)"/><path id="_Prostokąt_25" data-name="&lt;Prostokąt&gt;" class="cls-4" d="M68.78,93.67h14a3.71,3.71,0,0,1,3.71,3.71v1.29a0,0,0,0,1,0,0H65.07a0,0,0,0,1,0,0V97.38a3.71,3.71,0,0,1,3.71-3.71Z" transform="translate(151.54 192.33) rotate(-180)"/><path id="_ścieżka_47" data-name="&lt;ścieżka&gt;" class="cls-5" d="M89.29,102.12c1.18-1,14.73-17.66,17.11-17.66,4.92,0,3.36,3.48,3.6,24.85-4.77,0-4.93.35-4.93.35v-18L92.37,107Z"/><path id="_ścieżka_48" data-name="&lt;ścieżka&gt;" class="cls-29" d="M105.93,105.68h2.44a2.35,2.35,0,0,1,2.35,2.35V109a2.32,2.32,0,0,1,0,.25,1.25,1.25,0,0,1,0,.13v4.06a1.33,1.33,0,1,1-2.65,0v-2.09h-2.14a2.35,2.35,0,0,1-2.35-2.35V108A2.35,2.35,0,0,1,105.93,105.68Z"/><line id="_ścieżka_49" data-name="&lt;ścieżka&gt;" class="cls-4" x1="80.17" y1="87.94" x2="80.17" y2="91.43"/><line id="_ścieżka_50" data-name="&lt;ścieżka&gt;" class="cls-4" x1="75.77" y1="87.94" x2="75.77" y2="91.43"/><line id="_ścieżka_51" data-name="&lt;ścieżka&gt;" class="cls-4" x1="70.55" y1="87.94" x2="70.55" y2="91.43"/><line id="_ścieżka_52" data-name="&lt;ścieżka&gt;" class="cls-1" x1="60.12" y1="110.21" x2="55.57" y2="107.33"/><line id="_ścieżka_53" data-name="&lt;ścieżka&gt;" class="cls-30" x1="56.86" y1="105.32" x2="54.28" y2="110"/><g id="_grupa_7" data-name="&lt;grupa&gt;"><circle id="_ścieżka_54" data-name="&lt;ścieżka&gt;" class="cls-31" cx="251.57" cy="76.87" r="7.56"/><circle id="_ścieżka_55" data-name="&lt;ścieżka&gt;" class="cls-9" cx="251.57" cy="76.87" r="3.86"/></g><circle id="_ścieżka_56" data-name="&lt;ścieżka&gt;" class="cls-9" cx="251.57" cy="18.62" r="3.86"/><circle id="_ścieżka_57" data-name="&lt;ścieżka&gt;" class="cls-9" cx="121.56" cy="18.62" r="3.86"/><rect id="_Prostokąt_26" data-name="&lt;Prostokąt&gt;" class="cls-2" x="543.73" y="157.78" width="6.67" height="331.99" transform="translate(1094.12 647.55) rotate(-180)"/><polygon id="_ścieżka_58" data-name="&lt;ścieżka&gt;" class="cls-2" points="533.73 237.22 533.73 215.56 543.73 215.56 543.73 258.89 533.73 258.89 533.73 250.22 472.39 250.22 472.39 237.22 533.73 237.22"/><path id="_Prostokąt_27" data-name="&lt;Prostokąt&gt;" class="cls-2" d="M478.55,250.22h47a8.22,8.22,0,0,1,8.22,8.22v.45a0,0,0,0,1,0,0H478.55a0,0,0,0,1,0,0v-8.67A0,0,0,0,1,478.55,250.22Z" transform="translate(1012.27 509.12) rotate(-180)"/><rect id="_Prostokąt_28" data-name="&lt;Prostokąt&gt;" class="cls-2" x="472.39" y="476.17" width="78" height="13.6" transform="translate(1022.78 965.94) rotate(-180)"/><polygon id="_ścieżka_59" data-name="&lt;ścieżka&gt;" class="cls-2" points="533.73 373.53 533.73 412.67 543.73 412.67 543.73 476.17 516.39 476.17 516.39 412.92 516.39 412.67 516.39 389.17 533.73 373.53"/><path id="_Prostokąt_29" data-name="&lt;Prostokąt&gt;" class="cls-27" d="M505.56,399.33h2.8a5.53,5.53,0,0,1,5.53,5.53v3.6a5.53,5.53,0,0,1-5.53,5.53h-2.8a0,0,0,0,1,0,0V399.33A0,0,0,0,1,505.56,399.33Z" transform="translate(1019.45 813.33) rotate(-180)"/><rect id="_Prostokąt_30" data-name="&lt;Prostokąt&gt;" class="cls-2" x="511.39" y="395.67" width="5" height="22" transform="translate(1027.78 813.33) rotate(-180)"/><g id="_Grupa_przycinania_5" data-name="&lt;Grupa przycinania&gt;"><path id="_Prostokąt_31" data-name="&lt;Prostokąt&gt;" class="cls-12" d="M470,170.51h33.29a0,0,0,0,1,0,0v17.8A16.65,16.65,0,0,1,486.6,205h0A16.65,16.65,0,0,1,470,188.32v-17.8A0,0,0,0,1,470,170.51Z" transform="translate(973.2 375.48) rotate(-180)"/><g class="cls-32"><path id="_ścieżka_60" data-name="&lt;ścieżka&gt;" class="cls-9" d="M482.17,171.13a16.62,16.62,0,0,1,4.43-.61h0a16.65,16.65,0,0,1,16.65,16.65V205h-8.86v-17.8A16.64,16.64,0,0,0,482.17,171.13Z"/></g><path id="_Prostokąt_32" data-name="&lt;Prostokąt&gt;" class="cls-14" d="M470,170.51h33.29a0,0,0,0,1,0,0v17.8A16.65,16.65,0,0,1,486.6,205h0A16.65,16.65,0,0,1,470,188.32v-17.8A0,0,0,0,1,470,170.51Z" transform="translate(973.2 375.48) rotate(-180)"/></g><rect id="_Prostokąt_33" data-name="&lt;Prostokąt&gt;" class="cls-5" x="467.29" y="195.95" width="38.61" height="4.62" transform="translate(973.2 396.52) rotate(-180)"/><circle id="_ścieżka_61" data-name="&lt;ścieżka&gt;" class="cls-1" cx="480.9" cy="185.81" r="5.7"/><circle id="_ścieżka_62" data-name="&lt;ścieżka&gt;" class="cls-28" cx="480.9" cy="185.81" r="3.16"/><line id="_ścieżka_63" data-name="&lt;ścieżka&gt;" class="cls-2" x1="498.69" y1="175.72" x2="502.01" y2="173.29"/><line id="_ścieżka_64" data-name="&lt;ścieżka&gt;" class="cls-33" x1="504.02" y1="175.72" x2="500.35" y2="170.51"/><g id="_grupa_8" data-name="&lt;grupa&gt;"><line id="_ścieżka_65" data-name="&lt;ścieżka&gt;" class="cls-34" x1="503.95" y1="190.48" x2="506.87" y2="190.48"/><line id="_ścieżka_66" data-name="&lt;ścieżka&gt;" class="cls-34" x1="506.87" y1="188.15" x2="506.87" y2="192.82"/></g><polyline id="_ścieżka_67" data-name="&lt;ścieżka&gt;" class="cls-35" points="498.69 209.88 491.6 221.34 499.65 230.2"/><polygon id="_ścieżka_68" data-name="&lt;ścieżka&gt;" class="cls-34" points="499.65 230.2 493.1 236.63 505.41 236.63 499.65 230.2"/><circle id="_ścieżka_69" data-name="&lt;ścieżka&gt;" class="cls-2" cx="493.1" cy="221.42" r="2.5"/><polyline id="_ścieżka_70" data-name="&lt;ścieżka&gt;" class="cls-35" points="478.42 209.88 471.33 221.34 479.38 230.2"/><polygon id="_ścieżka_71" data-name="&lt;ścieżka&gt;" class="cls-34" points="479.38 230.2 472.83 236.63 485.14 236.63 479.38 230.2"/><rect id="_Prostokąt_34" data-name="&lt;Prostokąt&gt;" class="cls-34" x="467.29" y="204.99" width="38.61" height="5.92" transform="translate(973.2 415.9) rotate(-180)"/><circle id="_ścieżka_72" data-name="&lt;ścieżka&gt;" class="cls-2" cx="472.83" cy="221.42" r="2.5"/><polyline id="_ścieżka_73" data-name="&lt;ścieżka&gt;" class="cls-35" points="469.95 190.48 455.59 200.57 439.19 196.48"/><rect id="_Prostokąt_35" data-name="&lt;Prostokąt&gt;" class="cls-34" x="459.29" y="192.28" width="3.5" height="7.52" transform="translate(952 96.29) rotate(145.48)"/><polygon id="_ścieżka_74" data-name="&lt;ścieżka&gt;" class="cls-4" points="449.61 172.93 429.39 168.18 415.16 183.31 421.14 203.19 441.36 207.95 455.59 192.82 449.61 172.93"/><g id="_Grupa_przycinania_6" data-name="&lt;Grupa przycinania&gt;"><circle id="_ścieżka_przycinająca_6" data-name="&lt;ścieżka przycinająca&gt;" class="cls-12" cx="444.56" cy="466.4" r="13.54"/><g class="cls-36"><path id="_ścieżka_75" data-name="&lt;ścieżka&gt;" class="cls-9" d="M444.56,452.86v27.08a13.54,13.54,0,0,1,0-27.08Z"/></g><circle id="_ścieżka_przycinająca_7" data-name="&lt;ścieżka przycinająca&gt;" class="cls-35" cx="444.56" cy="466.4" r="13.54"/></g><circle id="_ścieżka_76" data-name="&lt;ścieżka&gt;" class="cls-3" cx="444.56" cy="466.4" r="4.54"/><path id="_ścieżka_77" data-name="&lt;ścieżka&gt;" class="cls-37" d="M427.15,439.47s-2.83,27.43,17.41,26.93"/><g id="_Grupa_przycinania_7" data-name="&lt;Grupa przycinania&gt;"><path id="_Prostokąt_36" data-name="&lt;Prostokąt&gt;" class="cls-12" d="M418.28,413.12h14.9a9.45,9.45,0,0,1,9.45,9.45V437.8a0,0,0,0,1,0,0H408.84a0,0,0,0,1,0,0V422.57A9.45,9.45,0,0,1,418.28,413.12Z" transform="translate(851.47 850.93) rotate(-180)"/><g class="cls-38"><circle id="_ścieżka_78" data-name="&lt;ścieżka&gt;" class="cls-1" cx="440.56" cy="423.29" r="5.59"/><circle id="_ścieżka_79" data-name="&lt;ścieżka&gt;" class="cls-28" cx="440.56" cy="423.29" r="3.5"/><path id="_ścieżka_80" data-name="&lt;ścieżka&gt;" class="cls-9" d="M418.48,413.12v15.24a9.45,9.45,0,0,0,9.45,9.45h-9.64a9.45,9.45,0,0,1-9.45-9.45V413.12Z"/></g><path id="_Prostokąt_37" data-name="&lt;Prostokąt&gt;" class="cls-35" d="M418.28,413.12h14.9a9.45,9.45,0,0,1,9.45,9.45V437.8a0,0,0,0,1,0,0H408.84a0,0,0,0,1,0,0V422.57A9.45,9.45,0,0,1,418.28,413.12Z" transform="translate(851.47 850.93) rotate(-180)"/></g><polygon id="_ścieżka_81" data-name="&lt;ścieżka&gt;" class="cls-3" points="415.64 413.12 436.56 413.12 433.7 409.23 418.49 409.23 415.64 413.12"/><line id="_ścieżka_82" data-name="&lt;ścieżka&gt;" class="cls-3" x1="425.73" y1="409.23" x2="423.19" y2="403.43"/><circle id="_ścieżka_83" data-name="&lt;ścieżka&gt;" class="cls-4" cx="422.41" cy="400.86" r="3.26"/><rect id="_ścieżka_84" data-name="&lt;ścieżka&gt;" class="cls-3" x="422.41" y="437.72" width="8.08" height="6.7"/><g id="_grupa_9" data-name="&lt;grupa&gt;"><path id="_ścieżka_85" data-name="&lt;ścieżka&gt;" class="cls-39" d="M415.68,429.47c-3.28,0-3.28-8-6.57-8s-3.29,8-6.57,8-3.29-8-6.58-8-3.29,8-6.58,8"/></g><polygon id="_ścieżka_86" data-name="&lt;ścieżka&gt;" class="cls-27" points="386.76 415.96 369.52 404.37 350.85 413.49 349.43 434.21 366.67 445.81 385.34 436.68 386.76 415.96"/><path id="_ścieżka_87" data-name="&lt;ścieżka&gt;" class="cls-3" d="M378.61,418.2s11,.2,11.15,7.95-7.73,8.53-11.82,7.06l-.15-2.75s7.39.26,7.69-3.91c.32-4.46-4.7-4.83-7.3-5.07Z"/><rect id="_Prostokąt_38" data-name="&lt;Prostokąt&gt;" class="cls-3" x="415.58" y="417.71" width="5.78" height="11.83" transform="translate(838.8 845.41) rotate(179.75)"/><g id="_Grupa_przycinania_8" data-name="&lt;Grupa przycinania&gt;"><path id="_Prostokąt_39" data-name="&lt;Prostokąt&gt;" class="cls-12" d="M450.24,10h15.21a9.7,9.7,0,0,1,9.7,9.7v1.67a0,0,0,0,1,0,0h-34.6a0,0,0,0,1,0,0V19.67a9.7,9.7,0,0,1,9.7-9.7Z" transform="translate(915.69 31.31) rotate(-180)"/><g class="cls-40"><rect id="_Prostokąt_40" data-name="&lt;Prostokąt&gt;" class="cls-9" x="431.06" y="7.67" width="53" height="10.95" transform="translate(915.11 26.28) rotate(-180)"/></g><path id="_Prostokąt_41" data-name="&lt;Prostokąt&gt;" class="cls-14" d="M450.24,10h15.21a9.7,9.7,0,0,1,9.7,9.7v1.67a0,0,0,0,1,0,0h-34.6a0,0,0,0,1,0,0V19.67a9.7,9.7,0,0,1,9.7-9.7Z" transform="translate(915.69 31.31) rotate(-180)"/></g><line id="_ścieżka_88" data-name="&lt;ścieżka&gt;" class="cls-1" x1="457.84" y1="20.97" x2="457.84" y2="38.26"/><g id="_Grupa_przycinania_9" data-name="&lt;Grupa przycinania&gt;"><path id="_Prostokąt_42" data-name="&lt;Prostokąt&gt;" class="cls-12" d="M452.09,37.26H463.6a0,0,0,0,1,0,0v3a5.76,5.76,0,0,1-5.76,5.76h0a5.76,5.76,0,0,1-5.76-5.76v-3A0,0,0,0,1,452.09,37.26Z" transform="translate(915.69 83.31) rotate(-180)"/><g class="cls-41"><path id="_ścieżka_89" data-name="&lt;ścieżka&gt;" class="cls-9" d="M457.84,37.26a5.75,5.75,0,0,1,1.6.23A5.75,5.75,0,0,0,455.29,43v3h-3.2V43A5.76,5.76,0,0,1,457.84,37.26Z"/></g><path id="_Prostokąt_43" data-name="&lt;Prostokąt&gt;" class="cls-14" d="M452.09,37.26H463.6a0,0,0,0,1,0,0v3a5.76,5.76,0,0,1-5.76,5.76h0a5.76,5.76,0,0,1-5.76-5.76v-3A0,0,0,0,1,452.09,37.26Z" transform="translate(915.69 83.31) rotate(-180)"/></g><g id="_Grupa_przycinania_10" data-name="&lt;Grupa przycinania&gt;"><circle id="_ścieżka_przycinająca_8" data-name="&lt;ścieżka przycinająca&gt;" class="cls-18" cx="457.84" cy="63.31" r="18.4"/><g class="cls-42"><path id="_ścieżka_90" data-name="&lt;ścieżka&gt;" class="cls-43" d="M457.84,44.91a18.47,18.47,0,0,1,3.6.36,18.4,18.4,0,0,0,0,36.09,18.4,18.4,0,1,1-3.6-36.45Z"/></g><circle id="_ścieżka_przycinająca_9" data-name="&lt;ścieżka przycinająca&gt;" class="cls-14" cx="457.84" cy="63.31" r="18.4"/></g><line id="_ścieżka_91" data-name="&lt;ścieżka&gt;" class="cls-1" x1="476.25" y1="63.31" x2="480.09" y2="63.31"/><line id="_ścieżka_92" data-name="&lt;ścieżka&gt;" class="cls-30" x1="480.09" y1="59.91" x2="480.09" y2="66.58"/><line id="_ścieżka_93" data-name="&lt;ścieżka&gt;" class="cls-30" x1="459.26" y1="74.67" x2="456.26" y2="74.67"/><path id="_ścieżka_94" data-name="&lt;ścieżka&gt;" class="cls-3" d="M427,60.66c-3.39-5.49-9.45-3-11.88-.48,1.51,1.89,2.2,2.63,2.2,2.63s3.24-3.65,6,.39c1.74,2.53-2,4.56-2,4.56l2,2.47S430.46,66.3,427,60.66Z"/><g id="_Grupa_przycinania_11" data-name="&lt;Grupa przycinania&gt;"><rect id="_Prostokąt_44" data-name="&lt;Prostokąt&gt;" class="cls-12" x="435.59" y="9.97" width="44.08" height="5.68" transform="translate(915.27 25.63) rotate(-180)"/><g class="cls-44"><rect id="_Prostokąt_45" data-name="&lt;Prostokąt&gt;" class="cls-9" x="429.73" width="20.51" height="21.34" transform="translate(879.96 21.34) rotate(-180)"/></g><rect id="_Prostokąt_46" data-name="&lt;Prostokąt&gt;" class="cls-14" x="435.59" y="9.97" width="44.08" height="5.68" transform="translate(915.27 25.63) rotate(-180)"/></g><circle id="_ścieżka_95" data-name="&lt;ścieżka&gt;" class="cls-45" cx="457.84" cy="65.59" r="5.76"/><line id="_ścieżka_96" data-name="&lt;ścieżka&gt;" class="cls-46" x1="457.76" y1="90.12" x2="457.76" y2="99.88"/><line id="_ścieżka_97" data-name="&lt;ścieżka&gt;" class="cls-46" x1="449.98" y1="89.27" x2="446.64" y2="98.44"/><line id="_ścieżka_98" data-name="&lt;ścieżka&gt;" class="cls-46" x1="441.99" y1="86.38" x2="435.72" y2="93.86"/><line id="_ścieżka_99" data-name="&lt;ścieżka&gt;" class="cls-46" x1="465.54" y1="89.27" x2="468.88" y2="98.44"/><line id="_ścieżka_100" data-name="&lt;ścieżka&gt;" class="cls-46" x1="473.53" y1="86.38" x2="479.8" y2="93.86"/><line id="_ścieżka_101" data-name="&lt;ścieżka&gt;" class="cls-47" x1="415.09" y1="452.94" x2="389.76" y2="452.94"/><line id="_ścieżka_102" data-name="&lt;ścieżka&gt;" class="cls-47" x1="410.73" y1="461.86" x2="376.06" y2="461.86"/><text class="cls-48" transform="translate(290.19 246.26)">S</text><rect id="_Prostokąt_47" data-name="&lt;Prostokąt&gt;" class="cls-49" x="287.14" y="224.83" width="17.58" height="24.83"/><path id="_ścieżka_złożona_" data-name="&lt;ścieżka złożona&gt;" class="cls-21" d="M305.07,222.19H287.71l-8.68,15,8.68,15h17.36l8.68-15Zm-8.47,25.93a13,13,0,0,1-7-2l1.73-3a9.1,9.1,0,0,0,5.34,1.7c2.31,0,3.76-1.06,3.76-2.7s-.85-2.37-4.8-3.28c-4.52-1.09-7.07-2.43-7.07-6.38,0-3.7,3-6.19,7.26-6.19a11.79,11.79,0,0,1,6.57,1.85l-1.76,3a9,9,0,0,0-4.87-1.56c-2.19,0-3.46,1.12-3.46,2.55,0,1.67,1,2.4,5,3.37,4.49,1.09,6.83,2.7,6.83,6.25C304.19,245.76,301.07,248.13,296.6,248.13Z"/><rect id="_Prostokąt_48" data-name="&lt;Prostokąt&gt;" class="cls-49" x="266.39" y="189.67" width="15" height="11" rx="1.63" ry="1.63"/><rect id="_Prostokąt_49" data-name="&lt;Prostokąt&gt;" class="cls-49" x="310.74" y="189.69" width="15.31" height="10.6" rx="1.63" ry="1.63"/><path id="_ścieżka_103" data-name="&lt;ścieżka&gt;" class="cls-17" d="M274.39,196.43a.75.75,0,0,1-.44-.14l-7.32-6.3.88-1.21,6.87,6,6.6-6,.9,1.2-7,6.3A.75.75,0,0,1,274.39,196.43Z"/><rect id="_Prostokąt_50" data-name="&lt;Prostokąt&gt;" class="cls-49" x="241.67" y="230.79" width="14.68" height="9.47" rx="1.5" ry="1.5" transform="translate(-50.77 69.35) rotate(-14.41)"/><g id="_grupa_10" data-name="&lt;grupa&gt;"><circle id="_ścieżka_104" data-name="&lt;ścieżka&gt;" class="cls-49" cx="340.39" cy="232.53" r="3.03"/><path id="_Prostokąt_51" data-name="&lt;Prostokąt&gt;" class="cls-49" d="M337.23,237.12h6.32a3.22,3.22,0,0,1,3.22,3.22v1.73a0,0,0,0,1,0,0H334a0,0,0,0,1,0,0v-1.73A3.22,3.22,0,0,1,337.23,237.12Z"/></g><g id="_Prostokąt_52" data-name="&lt;Prostokąt&gt;"><rect id="_ścieżka_105" data-name="&lt;ścieżka&gt;" class="cls-49" x="243.84" y="233.84" width="15.77" height="10.56" rx="1.73" ry="1.73"/><path id="_ścieżka_złożona_2" data-name="&lt;ścieżka złożona&gt;" class="cls-22" d="M257.88,234.38a1.18,1.18,0,0,1,1.18,1.18v7.1a1.18,1.18,0,0,1-1.18,1.18H245.57a1.18,1.18,0,0,1-1.18-1.18v-7.1a1.18,1.18,0,0,1,1.18-1.18h12.31m0-1.09H245.57a2.28,2.28,0,0,0-2.27,2.27v7.1a2.28,2.28,0,0,0,2.27,2.27h12.31a2.28,2.28,0,0,0,2.27-2.27v-7.1a2.28,2.28,0,0,0-2.27-2.27Z"/></g><rect id="_Prostokąt_53" data-name="&lt;Prostokąt&gt;" class="cls-49" x="309.52" y="272.5" width="17.75" height="13" rx="1.36" ry="1.36"/><circle id="_ścieżka_106" data-name="&lt;ścieżka&gt;" class="cls-50" cx="318.39" cy="279" r="3"/><path id="_Prostokąt_54" data-name="&lt;Prostokąt&gt;" class="cls-49" d="M316.17,271h3.88a.78.78,0,0,1,.78.78v1.08a0,0,0,0,1,0,0h-5.44a0,0,0,0,1,0,0v-1.08A.78.78,0,0,1,316.17,271Z"/><path id="_Prostokąt_55" data-name="&lt;Prostokąt&gt;" class="cls-49" d="M323.91,271h0a.92.92,0,0,1,.92.92v.94a0,0,0,0,1,0,0H323a0,0,0,0,1,0,0v-.94A.92.92,0,0,1,323.91,271Z"/><g id="_grupa_11" data-name="&lt;grupa&gt;"><rect id="_Prostokąt_56" data-name="&lt;Prostokąt&gt;" class="cls-49" x="265.74" y="272.83" width="15.3" height="10.9" rx="1.88" ry="1.88"/><path id="_ścieżka_107" data-name="&lt;ścieżka&gt;" class="cls-19" d="M272.29,275.93l3.71,2.14a.2.2,0,0,1,0,.35l-3.71,2.14a.2.2,0,0,1-.3-.17v-4.28A.2.2,0,0,1,272.29,275.93Z"/></g><path id="_ścieżka_108" data-name="&lt;ścieżka&gt;" class="cls-49" d="M318.89,200.24l4.07,3.07a.28.28,0,0,0,.48-.2v-3.84Z"/><rect id="_Prostokąt_57" data-name="&lt;Prostokąt&gt;" class="cls-22" x="244.06" y="236.44" width="15.57" height="1.59"/></svg>