<svg width="78" height="88" viewBox="0 0 78 88" xmlns="http://www.w3.org/2000/svg"><g fill="none"><path d="M35.524.83c1.911-1.107 5.013-1.105 6.922 0l32.092 18.578c1.912 1.107 3.462 3.803 3.462 6.013v37.157c0 2.214-1.554 4.908-3.462 6.013l-32.092 18.578c-1.912 1.107-5.015 1.105-6.922 0l-32.064-18.578c-1.911-1.107-3.46-3.803-3.46-6.013v-37.157c0-2.214 1.552-4.908 3.46-6.013l32.064-18.578z" fill="#903EB9"/><path d="M30.633 43.656c.233-.219.367-.531.367-.906 0-3.5 2.933-6.25 6.667-6.25 2.933 0 5.467 1.75 6.4 4.5.267.625 1.067 1 1.733.75.142-.053.272-.129.387-.222.281-.028.571-.028.813-.028 2.933 0 5.333 2.25 5.333 5s-2.4 5-5.333 5h-17.334c-2.267 0-4-1.625-4-3.75s1.733-3.75 4-3.75c.4 0 .733-.125.967-.344zm-2.223-2.05c.588-4.324 4.47-7.607 9.256-7.607 3.595 0 6.868 2.02 8.461 5.061.291-.037.581-.061.872-.061 4.4 0 8 3.375 8 7.5s-3.6 7.5-8 7.5h-17.334c-3.733 0-6.667-2.75-6.667-6.25 0-3.096 2.296-5.606 5.41-6.143z" stroke="#fff" fill="#fff"/></g></svg>
