<svg width="300" height="232" viewBox="0 0 300 232" xmlns="http://www.w3.org/2000/svg"><title>backend-services-for-full-stack-developers</title><path d="M180.213 186.752c-5.35 0-9.701-4.354-9.701-9.701v-12.704c0-5.348 4.352-9.701 9.701-9.701h1.22a59.283 59.283 0 0 1 5.219-12.289l-1.074-1.072a9.643 9.643 0 0 1-2.842-6.862 9.755 9.755 0 0 1 2.852-6.866l8.969-8.976a9.663 9.663 0 0 1 6.862-2.842 9.62 9.62 0 0 1 6.87 2.86l1.226 1.22a57.16 57.16 0 0 1 4.761-2.314c-7.572-2.154-13.134-9.113-13.134-17.374 0-9.975 8.098-18.07 18.078-18.07 9.979 0 18.071 8.095 18.071 18.07 0 1.045-.106 2.054-.275 3.05h7.032c5.347 0 9.696 4.346 9.696 9.7v1.943a59.949 59.949 0 0 1 9.989 3.895V.397H0V199.87h185.584l.583-.585a59.222 59.222 0 0 1-5.072-12.538h-.882v.004zm-128.67-68.551c-9.98 0-18.075-8.09-18.075-18.073 0-9.975 8.096-18.07 18.074-18.07 9.979 0 18.072 8.095 18.072 18.07-.001 9.986-8.089 18.073-18.072 18.073zm17.544-57.565a2.966 2.966 0 0 0-.686-1.124L51.998 43.116a3.006 3.006 0 0 0-4.259 0 3.005 3.005 0 0 0 0 4.25l13.27 13.269h-33.56c0-21.811 17.68-39.493 39.492-39.493 21.809 0 39.493 17.681 39.493 39.493H69.087zm66.296 57.565c-9.98 0-18.07-8.09-18.07-18.073 0-9.975 8.09-18.07 18.07-18.07 9.979 0 18.07 8.095 18.07 18.07 0 9.986-8.087 18.073-18.07 18.073zm65.431-97.055c21.812 0 39.49 17.68 39.49 39.493h-36.493l10.13-15.163a3.01 3.01 0 1 0-5.006-3.345L196.56 60.638h-35.24c0-21.815 17.682-39.493 39.493-39.493zm96.046 140.861h-7.414a51.553 51.553 0 0 0-8.747-20.454l5.148-5.146c.501-.501.783-1.18.783-1.895 0-.709-.282-1.389-.783-1.89l-8.979-8.977a2.671 2.671 0 0 0-3.783 0l-5.296 5.302a51.562 51.562 0 0 0-20.06-8.212v-7.529c0-1.474-1.2-2.67-2.673-2.67H232.35a2.67 2.67 0 0 0-2.669 2.67v7.53a51.469 51.469 0 0 0-20.21 8.3l-5.154-5.153a2.669 2.669 0 0 0-3.785 0l-8.977 8.982a2.665 2.665 0 0 0-.784 1.89c0 .707.283 1.383.784 1.89l5.053 5.05a51.542 51.542 0 0 0-8.645 20.308h-6.749a2.675 2.675 0 0 0-2.671 2.675v12.698a2.672 2.672 0 0 0 2.671 2.675h6.52a51.495 51.495 0 0 0 8.318 20.62l-4.737 4.737a2.672 2.672 0 0 0 0 3.78l8.979 8.99c.5.497 1.185.78 1.891.78s1.392-.283 1.895-.78l4.583-4.59a51.617 51.617 0 0 0 21.017 8.855v6.404a2.67 2.67 0 0 0 2.67 2.67h12.704a2.675 2.675 0 0 0 2.672-2.67v-6.404a51.599 51.599 0 0 0 20.877-8.76l4.722 4.73c1.002 1.002 2.782 1.002 3.78 0l8.983-8.989a2.667 2.667 0 0 0 0-3.773l-4.83-4.84c4.297-6.242 7.179-13.34 8.41-20.76h7.19a2.673 2.673 0 0 0 2.676-2.675v-12.699a2.676 2.676 0 0 0-2.675-2.67zm-57.818 37.218c-15.572 0-28.192-12.627-28.192-28.19 0-15.572 12.62-28.19 28.192-28.19 15.563 0 28.185 12.618 28.185 28.19 0 15.563-12.622 28.19-28.185 28.19zm10.693-28.19c0 5.901-4.794 10.692-10.693 10.692-5.908 0-10.695-4.79-10.695-10.692 0-5.907 4.794-10.697 10.695-10.697 5.9 0 10.693 4.79 10.693 10.697z" fill="#0070D3" fill-rule="evenodd"/></svg>
