<?xml version="1.0" encoding="iso-8859-1"?><!DOCTYPE svg PUBLIC "-//W3C//DTD SVG 1.1//EN" "http://www.w3.org/Graphics/SVG/1.1/DTD/svg11.dtd"><svg xmlns="http://www.w3.org/2000/svg" xmlns:xlink="http://www.w3.org/1999/xlink" version="1.1" id="Capa_1" x="0px" y="0px" width="512px" height="512px" viewBox="0 0 487.244 487.244" style="enable-background:new 0 0 487.244 487.244;" xml:space="preserve"><g><path d="M293.147,358.784c-8.702,0-15.781-7.083-15.781-15.781v-20.665c0-8.7,7.079-15.781,15.781-15.781h1.984   c2.063-6.943,4.921-13.686,8.489-19.989l-1.747-1.745c-2.983-2.985-4.622-6.949-4.622-11.162c0-4.164,1.694-8.241,4.638-11.169   l14.59-14.6c2.975-2.971,6.948-4.623,11.163-4.623c4.223,0,8.195,1.652,11.174,4.651l1.995,1.985   c2.512-1.378,5.106-2.62,7.745-3.764c-12.317-3.503-21.365-14.824-21.365-28.261c0-16.227,13.172-29.393,29.407-29.393   c16.232,0,29.396,13.166,29.396,29.393c0,1.699-0.173,3.341-0.448,4.96h11.438c8.698,0,15.773,7.07,15.773,15.779v3.161   c5.587,1.607,11.028,3.754,16.248,6.336V55.645H0v324.479h301.884l0.947-0.952c-3.519-6.458-6.298-13.33-8.25-20.395h-1.434   V358.784z M83.842,247.273c-16.232,0-29.401-13.16-29.401-29.398c0-16.226,13.169-29.393,29.401-29.393   c16.232,0,29.396,13.167,29.396,29.393C113.237,234.119,100.081,247.273,83.842,247.273z M112.382,153.634   c-0.236-0.667-0.583-1.289-1.117-1.828l-26.681-26.671c-1.914-1.918-5.016-1.918-6.928,0c-1.91,1.915-1.91,5.004,0,6.914   l21.585,21.584H44.649c0-35.48,28.76-64.242,64.241-64.242c35.476,0,64.242,28.761,64.242,64.242H112.382z M220.223,247.273   c-16.235,0-29.395-13.16-29.395-29.398c0-16.226,13.16-29.393,29.395-29.393c16.232,0,29.393,13.167,29.393,29.393   C249.616,234.119,236.462,247.273,220.223,247.273z M326.658,89.398c35.48,0,64.238,28.76,64.238,64.241h-59.364l16.478-24.665   c1.509-2.241,0.896-5.286-1.349-6.796c-2.254-1.501-5.295-0.897-6.794,1.354l-20.128,30.107h-57.324   C262.415,118.154,291.178,89.398,326.658,89.398z M482.893,318.532h-12.061c-2.265-11.986-7.125-23.368-14.228-33.272l8.373-8.372   c0.816-0.815,1.274-1.92,1.274-3.081c0-1.154-0.458-2.26-1.274-3.074l-14.605-14.604c-1.699-1.703-4.454-1.703-6.154,0   l-8.614,8.624c-9.828-6.72-20.979-11.289-32.633-13.357v-12.247c0-2.399-1.951-4.345-4.347-4.345h-20.666   c-2.404,0-4.342,1.951-4.342,4.345v12.247c-11.757,2.078-22.991,6.696-32.875,13.504l-8.383-8.383   c-1.694-1.707-4.454-1.707-6.157,0l-14.604,14.61c-0.814,0.81-1.275,1.915-1.275,3.076c0,1.148,0.461,2.248,1.275,3.074   l8.221,8.213c-7.017,9.861-11.821,21.15-14.064,33.035h-10.977c-2.397,0-4.346,1.948-4.346,4.351v20.656   c0,2.408,1.948,4.351,4.346,4.351h10.604c1.994,11.989,6.621,23.447,13.532,33.543l-7.705,7.705c-1.699,1.707-1.699,4.454,0,6.149   l14.605,14.622c0.815,0.81,1.928,1.27,3.077,1.27c1.147,0,2.264-0.46,3.081-1.27l7.456-7.464   c10.179,7.288,21.866,12.214,34.188,14.402v10.418c0,2.399,1.948,4.342,4.342,4.342h20.666c2.396,0,4.347-1.95,4.347-4.342V416.84   c12.211-2.167,23.817-7.037,33.959-14.249l7.681,7.693c1.63,1.631,4.525,1.631,6.15,0l14.612-14.621   c1.696-1.696,1.696-4.443,0-6.138l-7.857-7.871c6.99-10.155,11.677-21.702,13.68-33.772h11.697c2.409,0,4.352-1.948,4.352-4.351   v-20.656C487.244,320.479,485.289,318.532,482.893,318.532z M388.842,379.072c-25.33,0-45.86-20.54-45.86-45.855   c0-25.33,20.53-45.855,45.86-45.855c25.316,0,45.848,20.525,45.848,45.855C434.689,358.532,414.158,379.072,388.842,379.072z    M406.235,333.217c0,9.599-7.798,17.392-17.394,17.392c-9.609,0-17.397-7.793-17.397-17.392c0-9.609,7.798-17.401,17.397-17.401   C398.438,315.815,406.235,323.607,406.235,333.217z" fill="#0070d3"/></g><g></g><g></g><g></g><g></g><g></g><g></g><g></g><g></g><g></g><g></g><g></g><g></g><g></g><g></g><g></g></svg>
