<svg width="105" height="105" viewBox="0 0 105 105" xmlns="http://www.w3.org/2000/svg"><g transform="translate(0 0)" fill="none"><circle fill="#0070D3" cx="52.5" cy="52.5" r="52.5"/><path d="M64.978 71.258c0-4.492-4.374-6.778-8.634-8.614-4.246-1.828-5.602-3.368-5.602-6.668 0-1.978 1.296-1.334 1.864-4.962.24-1.504 1.384-.024 1.604-3.458 0-1.368-.626-1.708-.626-1.708s.318-2.026.442-3.586c.128-1.634-.796-5.12-4.602-6.19-.664-.682-1.114-1.764.934-2.848-4.48-.208-5.522 2.136-7.908 3.86-2.03 1.512-2.578 3.906-2.48 5.18.13 1.56.446 3.586.446 3.586s-.628.34-.628 1.708c.22 3.436 1.368 1.954 1.606 3.458.568 3.628 1.866 2.984 1.866 4.962 0 3.3-.424 4.42-4.672 6.248-4.262 1.834-5.588 4.774-5.566 9.032.006 1.274-.022 1.742-.022 1.742h32s-.022-.468-.022-1.742zm5.078-11.528c-2.27-.914-3.21-2.004-3.21-4.132 0-1.282.836-.864 1.204-3.206.154-.968.894-.016 1.036-2.23 0-.882-.404-1.102-.404-1.102s.206-1.312.286-2.318c.1-1.254-.728-4.494-4.536-4.494-3.806 0-4.636 3.24-4.538 4.494.084 1.004.288 2.318.288 2.318s-.404.218-.404 1.102c.142 2.214.882 1.262 1.036 2.23.368 2.344 1.204 1.926 1.204 3.206 0 2.128-.876 3.124-3.618 4.304l-.366.204c3.28 1.424 8.452 3.882 9.676 8.894h5.29v-4.636c0-2-.546-3.668-2.944-4.634z" fill="#fff"/></g></svg>
