<svg width="250" height="356" viewBox="0 0 250 356" xmlns="http://www.w3.org/2000/svg"><title>improve-your-skills-with-tutorials</title><g fill="#FFF" fill-rule="evenodd"><path d="M133.458 112.71l-2.078 15.192a7.656 7.656 0 0 0 7.583 8.691 7.654 7.654 0 0 0 3.33-.762l13.805-6.67 13.805 6.67a7.652 7.652 0 0 0 10.912-7.928l-2.077-15.191 10.61-11.07a7.652 7.652 0 0 0-4.168-12.827l-15.09-2.718-7.249-13.512a7.651 7.651 0 0 0-13.488 0l-7.249 13.512-15.09 2.718a7.653 7.653 0 0 0-4.166 12.827l10.61 11.068zm15-12.207a7.653 7.653 0 0 0 5.386-3.913l2.253-4.2 2.253 4.2a7.655 7.655 0 0 0 5.387 3.913l4.69.846-3.299 3.44a7.655 7.655 0 0 0-2.057 6.333l.646 4.72-4.29-2.073a7.646 7.646 0 0 0-6.66 0l-4.29 2.073.646-4.72a7.655 7.655 0 0 0-2.058-6.333l-3.298-3.441 4.69-.845zM66.176 94.917h35.587a7.653 7.653 0 0 0 0-15.305H66.175a7.653 7.653 0 0 0 0 15.305zM66.176 125.53h35.587a7.653 7.653 0 0 0 0-15.306H66.175a7.653 7.653 0 0 0 0 15.305zM133.458 192.232l-2.078 15.192a7.655 7.655 0 0 0 10.912 7.927l13.806-6.67 13.805 6.67a7.652 7.652 0 0 0 10.913-7.927l-2.078-15.192 10.61-11.07a7.652 7.652 0 0 0-4.167-12.827l-15.09-2.718-7.25-13.511a7.651 7.651 0 0 0-13.487 0l-7.25 13.511-15.089 2.718a7.653 7.653 0 0 0-4.166 12.827l10.61 11.07zm15-12.206a7.653 7.653 0 0 0 5.386-3.914l2.253-4.2 2.253 4.2a7.653 7.653 0 0 0 5.387 3.914l4.69.845-3.299 3.44a7.655 7.655 0 0 0-2.057 6.333l.646 4.721-4.29-2.073a7.646 7.646 0 0 0-6.66 0l-4.29 2.073.646-4.721a7.656 7.656 0 0 0-2.058-6.333l-3.298-3.44 4.69-.845zM66.176 174.44h35.587a7.653 7.653 0 0 0 0-15.305H66.175a7.653 7.653 0 0 0 0 15.305zM66.176 205.051h35.587a7.653 7.653 0 0 0 0-15.305H66.175a7.653 7.653 0 0 0 0 15.305zM133.458 271.756l-2.078 15.19a7.655 7.655 0 0 0 10.912 7.928l13.806-6.67 13.805 6.67a7.653 7.653 0 0 0 10.912-7.927l-2.077-15.192 10.61-11.069a7.652 7.652 0 0 0-4.167-12.827l-15.091-2.719-7.25-13.512a7.651 7.651 0 0 0-13.487 0l-7.25 13.512-15.09 2.719a7.65 7.65 0 0 0-4.166 12.827l10.611 11.07zm15.001-12.209a7.648 7.648 0 0 0 5.386-3.914l2.253-4.199 2.253 4.2a7.652 7.652 0 0 0 5.386 3.913l4.69.845-3.298 3.44a7.653 7.653 0 0 0-2.057 6.333l.645 4.721-4.29-2.073a7.646 7.646 0 0 0-6.66 0l-4.29 2.073.647-4.72a7.656 7.656 0 0 0-2.058-6.333l-3.298-3.44 4.691-.846zM66.176 253.963h35.587a7.653 7.653 0 0 0 0-15.306H66.175a7.653 7.653 0 0 0 0 15.305zM66.176 284.574h35.587a7.653 7.653 0 0 0 0-15.306H66.175a7.653 7.653 0 0 0 0 15.306z"/><path d="M242.02 11.48h-53.884V7.652A7.653 7.653 0 0 0 180.483 0H69.517a7.653 7.653 0 0 0-7.652 7.653v3.826H7.98a7.653 7.653 0 0 0-7.653 7.653v328.77a7.653 7.653 0 0 0 7.653 7.654h234.04a7.653 7.653 0 0 0 7.653-7.653V19.132a7.652 7.652 0 0 0-7.653-7.653zM77.17 15.305h95.66V42.09H77.17V15.306zm126.586 42.09v252.242H46.244V57.397h157.512zm30.611 282.854H15.633V26.785h46.232V42.09H38.592a7.653 7.653 0 0 0-7.653 7.653v267.548a7.653 7.653 0 0 0 7.653 7.653h172.817a7.653 7.653 0 0 0 7.653-7.653V49.744a7.653 7.653 0 0 0-7.653-7.653h-23.272V26.785h46.231V340.25z"/></g></svg>
