<svg width="292" height="359" viewBox="0 0 292 359" xmlns="http://www.w3.org/2000/svg"><title>learn-as-you-go-with-our-documentation</title><g fill="#0070D3" fill-rule="evenodd"><path d="M49.044 119.889l23.845 4.1a85.741 85.741 0 0 1-3.511-18.478l22.166 3.189v13.544H149.7v-9.577h10.267v9.577h58.144v-13.2l18.511-2.866c-.2 4.489-.766 9.244-1.644 14.044l18.422-3.466C249.467 67.166 230.478 0 151.611 0c-11.2 0-24.255 1.378-29.922 3.933-5.689 2.545-6.711 8.356-10.378 9.59-3.822 1.288-9.244.766-12.611 2.4C46.167 41.222 48 102.9 48 102.9l1.044 16.989zm94.2-4.111H98V92.744h45.244v23.034zm68.4 0h-45.222V92.744h45.222v23.034zM69.678 90.733c23.378-1.589 49.778-20 51.833-45.644 29.589 24.5 71.522 25.7 106.456 28.822 4.366 2.045 7.544 10.833 8.444 22.478l-18.3 2.833V86.29h-58.155v13.455h-10.267V86.29H91.533V98.9l-22.466-3.233c.21-1.634.422-3.267.61-4.934z"/><path d="M291.289 237.2c0-12.1-4.867-22.656-12.111-28.689v-86.378l-131.8 21-131.845-21v84.1C6.523 211.578.233 223.4.233 237.2c0 13.789 6.29 25.611 15.3 30.956v69.022l131.845 21.01 131.8-20.988v-71.311c7.255-6.056 12.11-16.6 12.11-28.689zm-149.9 107.922L27.5 326.978v-55.922c13.722-.89 24.678-15.645 24.678-33.856 0-18.222-10.945-32.978-24.678-33.878v-67.178L141.389 154.3v190.822zm125.833-18.144l-113.878 18.144V154.3l113.878-18.156v67.267c-.655-.067-1.244-.233-1.91-.233-14.345 0-25.979 15.244-25.979 34.022 0 18.789 11.634 34.033 25.978 34.033.667 0 1.256-.189 1.911-.244v55.989z"/></g></svg>
