<svg width="300" height="249" viewBox="0 0 300 249" xmlns="http://www.w3.org/2000/svg"><title>library-quick-starts</title><g fill="#0070D3" fill-rule="evenodd"><path d="M0 0v248.276h300V0H0zm289.655 237.931H10.345V51.724h279.31v186.207zm0-196.552H10.345V10.345h279.31v31.034z"/><circle cx="25.862" cy="25.862" r="10.345"/><ellipse cx="51.724" cy="25.862" rx="10.345" ry="10.345"/><ellipse cx="77.586" cy="25.862" rx="10.345" ry="10.345"/><path d="M124.686 203.891a5.145 5.145 0 0 0 2.036.422 5.172 5.172 0 0 0 4.756-3.137l46.551-108.62a5.17 5.17 0 0 0-2.715-6.792 5.164 5.164 0 0 0-6.792 2.715L121.971 197.1a5.17 5.17 0 0 0 2.715 6.791zM59.935 146.648l50.556 31.055a5.174 5.174 0 0 0 5.416-8.814l-43.382-26.648 43.38-26.65a5.17 5.17 0 0 0 1.699-7.114c-1.498-2.432-4.685-3.2-7.115-1.699l-50.554 31.056a5.174 5.174 0 0 0 0 8.814zM184.668 115.59l43.381 26.651-43.38 26.649a5.17 5.17 0 1 0 5.415 8.812l50.555-31.055a5.172 5.172 0 0 0 0-8.814l-50.555-31.058a5.168 5.168 0 0 0-7.115 1.7 5.173 5.173 0 0 0 1.7 7.114z"/></g></svg>
