<?xml version="1.0" encoding="utf-8"?>
<!-- Generator: Avocode 2.6.0 - http://avocode.com -->
<svg height="241" width="402" xmlns:xlink="http://www.w3.org/1999/xlink" xmlns="http://www.w3.org/2000/svg" viewBox="0 0 402 241">
    <path fill="#b8c0c9" opacity="0.3" fill-rule="evenodd" d="M 201 241 C 312.01 241 402 237.19 402 232.5 C 402 227.81 312.01 224 201 224 C 89.99 224 0 227.81 0 232.5 C 0 237.19 89.99 241 201 241 Z M 201 241" />
    <path stroke-linejoin="miter" stroke-linecap="butt" stroke-width="4" stroke="#373d44" fill="#ffffff" fill-rule="evenodd" d="M 25 31 L 267 31 L 267 189.01 C 267 190.11 266.1 191 265 191 L 27 191 C 25.9 191 25 190.1 25 189.01 L 25 31 Z M 25 31" />
    <path stroke-linejoin="miter" stroke-linecap="butt" stroke-width="4" stroke="#373d44" fill-opacity="0.4" fill="#b8c0c9" fill-rule="evenodd" d="M 25 6 C 25 4.9 25.9 4 27 4 L 265 4 C 266.1 4 267 4.9 267 6 L 267 27 L 25 27 L 25 6 Z M 25 6" />
    <path fill="#373d44" fill-rule="evenodd" d="M 36.5 19 C 38.43 19 40 17.43 40 15.5 C 40 13.57 38.43 12 36.5 12 C 34.57 12 33 13.57 33 15.5 C 33 17.43 34.57 19 36.5 19 Z M 36.5 19" />
    <path fill="#373d44" fill-rule="evenodd" d="M 47.5 19 C 49.43 19 51 17.43 51 15.5 C 51 13.57 49.43 12 47.5 12 C 45.57 12 44 13.57 44 15.5 C 44 17.43 45.57 19 47.5 19 Z M 47.5 19" />
    <path fill="#373d44" fill-rule="evenodd" d="M 58.5 19 C 60.43 19 62 17.43 62 15.5 C 62 13.57 60.43 12 58.5 12 C 56.57 12 55 13.57 55 15.5 C 55 17.43 56.57 19 58.5 19 Z M 58.5 19" />
    <path fill="#b8c0c9" opacity="0.4" fill-rule="evenodd" d="M 35 42 L 45 42 L 45 182 L 35 182 L 35 42 Z M 35 42" />
    <path fill="#b8c0c9" fill-rule="evenodd" d="M 49 42 L 68 42 L 68 48 L 49 48 L 49 42 Z M 49 42" />
    <path fill="#b8c0c9" fill-rule="evenodd" d="M 49 94 L 67 94 L 67 100 L 49 100 L 49 94 Z M 49 94" />
    <path fill="#b8c0c9" fill-rule="evenodd" d="M 49 146 L 67 146 L 67 152 L 49 152 L 49 146 Z M 49 146" />
    <path fill="#b8c0c9" fill-rule="evenodd" d="M 49 172 L 53 172 L 53 178 L 49 178 L 49 172 Z M 49 172" />
    <path fill="#b8c0c9" fill-rule="evenodd" d="M 101 172 L 134 172 L 134 178 L 101 178 L 101 172 Z M 101 172" />
    <path fill="#b8c0c9" fill-rule="evenodd" d="M 61 172 L 94 172 L 94 178 L 61 178 L 61 172 Z M 61 172" />
    <path fill="#b8c0c9" fill-rule="evenodd" d="M 49 159 L 82 159 L 82 165 L 49 165 L 49 159 Z M 49 159" />
    <path fill="#b8c0c9" fill-rule="evenodd" d="M 90 159 L 137 159 L 137 165 L 90 165 L 90 159 Z M 90 159" />
    <path fill="#b8c0c9" fill-rule="evenodd" d="M 145 159 L 163 159 L 163 165 L 145 165 L 145 159 Z M 145 159" />
    <path fill="#b8c0c9" fill-rule="evenodd" d="M 75 146 L 108 146 L 108 152 L 75 152 L 75 146 Z M 75 146" />
    <path fill="#b8c0c9" fill-rule="evenodd" d="M 49 120 L 53 120 L 53 126 L 49 126 L 49 120 Z M 49 120" />
    <path fill="#b8c0c9" fill-rule="evenodd" d="M 90 133 L 94 133 L 94 139 L 90 139 L 90 133 Z M 90 133" />
    <path fill="#b8c0c9" fill-rule="evenodd" d="M 101 120 L 163 120 L 163 126 L 101 126 L 101 120 Z M 101 120" />
    <path fill="#b8c0c9" fill-rule="evenodd" d="M 61 120 L 94 120 L 94 126 L 61 126 L 61 120 Z M 61 120" />
    <path fill="#b8c0c9" fill-rule="evenodd" d="M 49 107 L 82 107 L 82 113 L 49 113 L 49 107 Z M 49 107" />
    <path fill="#b8c0c9" fill-rule="evenodd" d="M 49 133 L 82 133 L 82 139 L 49 139 L 49 133 Z M 49 133" />
    <path fill="#b8c0c9" fill-rule="evenodd" d="M 90 107 L 137 107 L 137 113 L 90 113 L 90 107 Z M 90 107" />
    <path fill="#b8c0c9" fill-rule="evenodd" d="M 101 81 L 148 81 L 148 87 L 101 87 L 101 81 Z M 101 81" />
    <path fill="#b8c0c9" fill-rule="evenodd" d="M 145 107 L 163 107 L 163 113 L 145 113 L 145 107 Z M 145 107" />
    <path fill="#b8c0c9" fill-rule="evenodd" d="M 75 94 L 108 94 L 108 100 L 75 100 L 75 94 Z M 75 94" />
    <path fill="#b8c0c9" fill-rule="evenodd" d="M 49 68 L 53 68 L 53 74 L 49 74 L 49 68 Z M 49 68" />
    <path fill="#b8c0c9" fill-rule="evenodd" d="M 90 81 L 94 81 L 94 87 L 90 87 L 90 81 Z M 90 81" />
    <path fill="#b8c0c9" fill-rule="evenodd" d="M 101 68 L 134 68 L 134 74 L 101 74 L 101 68 Z M 101 68" />
    <path fill="#b8c0c9" fill-rule="evenodd" d="M 61 68 L 94 68 L 94 74 L 61 74 L 61 68 Z M 61 68" />
    <path fill="#b8c0c9" fill-rule="evenodd" d="M 49 55 L 82 55 L 82 61 L 49 61 L 49 55 Z M 49 55" />
    <path fill="#b8c0c9" fill-rule="evenodd" d="M 49 81 L 82 81 L 82 87 L 49 87 L 49 81 Z M 49 81" />
    <path fill="#b8c0c9" fill-rule="evenodd" d="M 90 55 L 137 55 L 137 61 L 90 61 L 90 55 Z M 90 55" />
    <path fill="#b8c0c9" fill-rule="evenodd" d="M 145 55 L 163 55 L 163 61 L 145 61 L 145 55 Z M 145 55" />
    <path fill="#b8c0c9" fill-rule="evenodd" d="M 156 81 L 174 81 L 174 87 L 156 87 L 156 81 Z M 156 81" />
    <path fill="#b8c0c9" fill-rule="evenodd" d="M 75 42 L 108 42 L 108 48 L 75 48 L 75 42 Z M 75 42" />
    <path stroke-linejoin="round" stroke-linecap="butt" stroke-width="4" stroke="#373d44" fill="#0070d3" fill-rule="evenodd" d="M 145.26 143.12 C 163.08 143.12 177.52 128.74 177.52 110.99 C 177.52 93.24 163.08 78.85 145.26 78.85 C 127.44 78.85 113 93.24 113 110.99 C 113 128.74 127.44 143.12 145.26 143.12 Z M 145.26 143.12" />
    <path fill="#3ccd3f" fill-rule="evenodd" d="M 174.23 96.85 C 182.79 96.85 189.72 89.94 189.72 81.42 C 189.72 72.91 182.79 66 174.23 66 C 165.68 66 158.75 72.91 158.75 81.42 C 158.75 89.94 165.68 96.85 174.23 96.85 Z M 174.23 96.85" />
    <path fill="#ffffff" fill-rule="evenodd" d="M 172.94 86.57 C 172.56 86.57 172.3 86.44 172.04 86.18 L 168.17 82.32 C 167.65 81.81 167.65 81.04 168.17 80.52 C 168.69 80.01 169.46 80.01 169.98 80.52 L 173.85 84.38 C 174.36 84.9 174.36 85.67 173.85 86.18 C 173.59 86.44 173.33 86.57 172.94 86.57 L 172.94 86.57 Z M 172.94 86.57" />
    <path fill="#ffffff" fill-rule="evenodd" d="M 172.94 86.57 C 172.56 86.57 172.3 86.44 172.04 86.18 C 171.52 85.67 171.52 84.9 172.04 84.38 L 179.78 76.67 C 180.3 76.15 181.07 76.15 181.59 76.67 C 182.11 77.18 182.11 77.95 181.59 78.47 L 173.85 86.18 C 173.59 86.44 173.33 86.57 172.94 86.57 L 172.94 86.57 Z M 172.94 86.57" />
    <path fill="#ffffff" fill-rule="evenodd" d="M 139.23 117.97 C 138.9 117.97 138.57 117.84 138.3 117.6 L 131.18 110.99 L 138.69 104.01 C 139.27 103.48 140.16 103.53 140.68 104.14 C 141.2 104.74 141.14 105.67 140.56 106.21 L 135.41 110.99 L 140.17 115.4 C 140.75 115.94 140.8 116.87 140.28 117.47 C 140.01 117.8 139.62 117.97 139.23 117.97 L 139.23 117.97 Z M 151.82 117.96 L 159.34 110.99 L 152.22 104.38 C 151.64 103.84 150.75 103.9 150.23 104.5 C 149.72 105.11 149.77 106.04 150.35 106.58 L 155.11 110.99 L 149.96 115.77 C 149.37 116.31 149.32 117.23 149.84 117.84 C 150.12 118.17 150.5 118.33 150.89 118.33 C 151.22 118.33 151.56 118.21 151.82 117.96 L 151.82 117.96 Z M 145.24 120.05 L 148.06 102.42 C 148.18 101.62 147.67 100.86 146.9 100.73 C 146.13 100.59 145.4 101.13 145.28 101.93 L 142.46 119.56 C 142.34 120.36 142.85 121.12 143.62 121.25 C 143.7 121.27 143.78 121.27 143.85 121.27 C 144.53 121.27 145.13 120.76 145.24 120.05 L 145.24 120.05 Z M 145.24 120.05" />
    <path stroke-linejoin="miter" stroke-linecap="butt" stroke-width="4" stroke="#373d44" fill="#d8d8d8" fill-rule="evenodd" d="M 341 86 C 357.02 86 370 73.02 370 57 C 370 40.98 357.02 28 341 28 C 324.98 28 312 40.98 312 57 C 312 73.02 324.98 86 341 86 Z M 341 86" />
    <path fill="#3e454d" fill-rule="evenodd" d="M 331 70 C 329.3 70 328 68.7 328 67 C 328 65.3 329.3 64 331 64 C 332.7 64 334 65.3 334 67 C 334 68.7 332.7 70 331 70 L 331 70 Z M 331 66 C 330.4 66 330 66.4 330 67 C 330 67.6 330.4 68 331 68 C 331.6 68 332 67.6 332 67 C 332 66.4 331.6 66 331 66 L 331 66 Z M 331 66" />
    <path fill="#3e454d" fill-rule="evenodd" d="M 352 70 C 350.3 70 349 68.7 349 67 C 349 65.3 350.3 64 352 64 C 353.7 64 355 65.3 355 67 C 355 68.7 353.7 70 352 70 L 352 70 Z M 352 66 C 351.4 66 351 66.4 351 67 C 351 67.6 351.4 68 352 68 C 352.6 68 353 67.6 353 67 C 353 66.4 352.6 66 352 66 L 352 66 Z M 352 66" />
    <path fill="#3e454d" fill-rule="evenodd" d="M 342 70 C 340.3 70 339 68.7 339 67 C 339 65.3 340.3 64 342 64 C 343.7 64 345 65.3 345 67 C 345 68.7 343.7 70 342 70 L 342 70 Z M 342 66 C 341.4 66 341 66.4 341 67 C 341 67.6 341.4 68 342 68 C 342.6 68 343 67.6 343 67 C 343 66.4 342.6 66 342 66 L 342 66 Z M 342 66" />
    <path fill="#3e454d" fill-rule="evenodd" d="M 342 50 C 340.3 50 339 48.7 339 47 C 339 45.3 340.3 44 342 44 C 343.7 44 345 45.3 345 47 C 345 48.7 343.7 50 342 50 L 342 50 Z M 342 46 C 341.4 46 341 46.4 341 47 C 341 47.6 341.4 48 342 48 C 342.6 48 343 47.6 343 47 C 343 46.4 342.6 46 342 46 L 342 46 Z M 342 46" />
    <path fill="#3e454d" fill-rule="evenodd" d="M 351.48 66 C 351.16 66 351 65.67 351 65 L 351 59 C 351 58.33 350.69 58 350 58 L 333 58 C 332.31 58 332 58.33 332 59 L 332 65 C 332 65.67 331.84 66 331.15 66 C 330.46 66 330 65.55 330 64.89 L 330 59.33 C 330 57.44 331.5 56 333.45 56 L 349.55 56 C 351.51 56 353 57.44 353 59.33 L 353 64.89 C 353 65.55 352.54 66 351.85 66 L 351.48 66 Z M 351.48 66" />
    <path fill="#3e454d" fill-rule="evenodd" d="M 342 66 C 341.4 66 341 65.55 341 64.89 L 341 57.11 C 341 56.44 341.4 56 342 56 C 342.6 56 343 56.44 343 57.11 L 343 64.89 C 343 65.55 342.6 66 342 66 L 342 66 Z M 342 66" />
    <path fill="#3e454d" fill-rule="evenodd" d="M 342 58.97 C 341.4 58.97 341 58.52 341 57.86 L 341 50.08 C 341 49.41 341.4 48.97 342 48.97 C 342.6 48.97 343 49.41 343 50.08 L 343 57.86 C 343 58.52 342.6 58.97 342 58.97 L 342 58.97 Z M 342 58.97" />
    <path fill="#f0423a" fill-rule="evenodd" d="M 361 51 C 368.73 51 375 44.73 375 37 C 375 29.27 368.73 23 361 23 C 353.27 23 347 29.27 347 37 C 347 44.73 353.27 51 361 51 Z M 361 51" />
    <path fill="#ffffff" fill-rule="evenodd" d="M 356.2 43 C 355.84 43 355.6 42.88 355.36 42.64 C 354.88 42.16 354.88 41.44 355.36 40.96 L 364.96 31.36 C 365.44 30.88 366.16 30.88 366.64 31.36 C 367.12 31.84 367.12 32.56 366.64 33.04 L 357.04 42.64 C 356.8 42.88 356.56 43 356.2 43 L 356.2 43 Z M 356.2 43" />
    <path fill="#ffffff" fill-rule="evenodd" d="M 365.8 43 C 365.44 43 365.2 42.88 364.96 42.64 L 355.36 33.04 C 354.88 32.56 354.88 31.84 355.36 31.36 C 355.84 30.88 356.56 30.88 357.04 31.36 L 366.64 40.96 C 367.12 41.44 367.12 42.16 366.64 42.64 C 366.4 42.88 366.16 43 365.8 43 L 365.8 43 Z M 365.8 43" />
    <path stroke-linejoin="miter" stroke-linecap="butt" stroke-width="4" stroke="#373d44" fill="#d8d8d8" fill-rule="evenodd" d="M 341 170 C 357.02 170 370 157.02 370 141 C 370 124.98 357.02 112 341 112 C 324.98 112 312 124.98 312 141 C 312 157.02 324.98 170 341 170 Z M 341 170" />
    <path fill="#373d44" fill-rule="evenodd" d="M 340.9 143.76 C 340.78 143.76 340.55 143.76 340.43 143.65 L 327.69 137.91 C 327.23 137.68 327 137.34 327 136.88 C 327 136.42 327.23 136.08 327.69 135.85 L 340.43 130.11 C 340.78 130 341.13 130 341.36 130.11 L 354.1 135.85 C 354.56 136.08 354.79 136.42 354.79 136.88 C 354.79 137.34 354.56 137.68 354.1 137.91 L 341.36 143.65 C 341.24 143.76 341.01 143.76 340.9 143.76 L 340.9 143.76 Z M 330.94 136.88 L 340.9 141.36 L 350.86 136.88 L 340.9 132.41 L 330.94 136.88 L 330.94 136.88 Z M 330.94 136.88" />
    <path fill="#373d44" fill-rule="evenodd" d="M 340.9 152.94 C 340.78 152.94 340.55 152.94 340.43 152.83 L 327.69 147.09 C 327.23 146.86 327 146.52 327 146.06 C 327 145.6 327.23 145.25 327.69 145.03 L 332.79 142.73 C 333.37 142.5 334.06 142.73 334.3 143.31 C 334.53 143.88 334.3 144.57 333.72 144.8 L 330.94 146.06 L 340.9 150.53 L 350.86 146.06 L 348.08 144.8 C 347.5 144.57 347.27 143.88 347.5 143.31 C 347.73 142.73 348.42 142.5 349 142.73 L 354.1 145.03 C 354.56 145.25 354.79 145.6 354.79 146.06 C 354.79 146.52 354.56 146.86 354.1 147.09 L 341.36 152.83 C 341.24 152.94 341.01 152.94 340.9 152.94 L 340.9 152.94 Z M 340.9 152.94" />
    <path fill="#373d44" fill-rule="evenodd" d="M 340.9 148.35 C 340.78 148.35 340.55 148.35 340.43 148.24 L 327.69 142.5 C 327.23 142.27 327 141.93 327 141.47 C 327 141.01 327.23 140.67 327.69 140.44 L 332.79 138.14 C 333.37 137.91 334.06 138.14 334.3 138.72 C 334.53 139.29 334.3 139.98 333.72 140.21 L 330.94 141.47 L 340.9 145.94 L 350.86 141.47 L 348.08 140.21 C 347.5 139.98 347.27 139.29 347.5 138.72 C 347.73 138.14 348.42 137.91 349 138.14 L 354.1 140.44 C 354.56 140.67 354.79 141.01 354.79 141.47 C 354.79 141.93 354.56 142.27 354.1 142.5 L 341.36 148.24 C 341.24 148.35 341.01 148.35 340.9 148.35 L 340.9 148.35 Z M 340.9 148.35" />
    <path fill="#f0423a" fill-rule="evenodd" d="M 361 135 C 368.73 135 375 128.73 375 121 C 375 113.27 368.73 107 361 107 C 353.27 107 347 113.27 347 121 C 347 128.73 353.27 135 361 135 Z M 361 135" />
    <path fill="#ffffff" fill-rule="evenodd" d="M 356.2 127 C 355.84 127 355.6 126.88 355.36 126.64 C 354.88 126.16 354.88 125.44 355.36 124.96 L 364.96 115.36 C 365.44 114.88 366.16 114.88 366.64 115.36 C 367.12 115.84 367.12 116.56 366.64 117.04 L 357.04 126.64 C 356.8 126.88 356.56 127 356.2 127 L 356.2 127 Z M 356.2 127" />
    <path fill="#ffffff" fill-rule="evenodd" d="M 365.8 127 C 365.44 127 365.2 126.88 364.96 126.64 L 355.36 117.04 C 354.88 116.56 354.88 115.84 355.36 115.36 C 355.84 114.88 356.56 114.88 357.04 115.36 L 366.64 124.96 C 367.12 125.44 367.12 126.16 366.64 126.64 C 366.4 126.88 366.16 127 365.8 127 L 365.8 127 Z M 365.8 127" />
    <path stroke-linejoin="miter" stroke-linecap="butt" stroke-dasharray="8" stroke-width="2" stroke="#373d44" fill="none" opacity="0.2" fill-rule="evenodd" d="M 297 5.01 C 297 3.9 297.9 3 299 3 L 383 3 C 384.1 3 385 3.89 385 5.01 L 385 190.99 C 385 192.1 384.1 193 383 193 L 299 193 C 297.9 193 297 192.11 297 190.99 L 297 5.01 Z M 297 5.01" />
</svg>