<?xml version="1.0" encoding="UTF-8" standalone="no"?>
<svg width="223px" height="218px" viewBox="0 0 223 218" version="1.1" xmlns="http://www.w3.org/2000/svg" xmlns:xlink="http://www.w3.org/1999/xlink">
    <!-- Generator: Sketch 3.8.1 (29687) - http://www.bohemiancoding.com/sketch -->
    <title>Group 17</title>
    <desc>Created with Sketch.</desc>
    <defs>
        <rect id="path-1" x="0" y="57" width="60" height="60"></rect>
        <mask id="mask-2" maskContentUnits="userSpaceOnUse" maskUnits="objectBoundingBox" x="0" y="0" width="60" height="60" fill="white">
            <use xlink:href="#path-1"></use>
        </mask>
        <circle id="path-3" cx="17" cy="17" r="17"></circle>
        <mask id="mask-4" maskContentUnits="userSpaceOnUse" maskUnits="objectBoundingBox" x="-4" y="-4" width="42" height="42">
            <rect x="-4" y="-4" width="42" height="42" fill="white"></rect>
            <use xlink:href="#path-3" fill="black"></use>
        </mask>
        <rect id="path-5" x="0" y="58" width="60" height="107"></rect>
        <mask id="mask-6" maskContentUnits="userSpaceOnUse" maskUnits="objectBoundingBox" x="0" y="0" width="60" height="107" fill="white">
            <use xlink:href="#path-5"></use>
        </mask>
        <path d="M17,34 C26.3888407,34 34,26.3888407 34,17 C34,7.61115925 26.3888407,0 17,0 C7.61115925,0 0,7.61115925 0,17 C0,26.3888407 7.61115925,34 17,34 Z" id="path-7"></path>
        <mask id="mask-8" maskContentUnits="userSpaceOnUse" maskUnits="objectBoundingBox" x="-4" y="-4" width="42" height="42">
            <rect x="-4" y="-4" width="42" height="42" fill="white"></rect>
            <use xlink:href="#path-7" fill="black"></use>
        </mask>
        <circle id="path-9" cx="17" cy="17" r="17"></circle>
        <mask id="mask-10" maskContentUnits="userSpaceOnUse" maskUnits="objectBoundingBox" x="-7" y="-7" width="48" height="48">
            <rect x="-7" y="-7" width="48" height="48" fill="white"></rect>
            <use xlink:href="#path-9" fill="black"></use>
        </mask>
        <circle id="path-11" cx="17" cy="17" r="17"></circle>
        <mask id="mask-12" maskContentUnits="userSpaceOnUse" maskUnits="objectBoundingBox" x="-4" y="-4" width="42" height="42">
            <rect x="-4" y="-4" width="42" height="42" fill="white"></rect>
            <use xlink:href="#path-11" fill="black"></use>
        </mask>
        <rect id="path-13" x="0" y="57" width="60" height="154"></rect>
        <mask id="mask-14" maskContentUnits="userSpaceOnUse" maskUnits="objectBoundingBox" x="0" y="0" width="60" height="154" fill="white">
            <use xlink:href="#path-13"></use>
        </mask>
        <circle id="path-15" cx="17" cy="17" r="17"></circle>
        <mask id="mask-16" maskContentUnits="userSpaceOnUse" maskUnits="objectBoundingBox" x="-4" y="-4" width="42" height="42">
            <rect x="-4" y="-4" width="42" height="42" fill="white"></rect>
            <use xlink:href="#path-15" fill="black"></use>
        </mask>
        <circle id="path-17" cx="17" cy="17" r="17"></circle>
        <mask id="mask-18" maskContentUnits="userSpaceOnUse" maskUnits="objectBoundingBox" x="-4" y="-4" width="42" height="42">
            <rect x="-4" y="-4" width="42" height="42" fill="white"></rect>
            <use xlink:href="#path-17" fill="black"></use>
        </mask>
        <circle id="path-19" cx="17" cy="17" r="17"></circle>
        <mask id="mask-20" maskContentUnits="userSpaceOnUse" maskUnits="objectBoundingBox" x="-7" y="-7" width="48" height="48">
            <rect x="-7" y="-7" width="48" height="48" fill="white"></rect>
            <use xlink:href="#path-19" fill="black"></use>
        </mask>
        <circle id="path-21" cx="17" cy="17" r="17"></circle>
        <mask id="mask-22" maskContentUnits="userSpaceOnUse" maskUnits="objectBoundingBox" x="-4" y="-4" width="42" height="42">
            <rect x="-4" y="-4" width="42" height="42" fill="white"></rect>
            <use xlink:href="#path-21" fill="black"></use>
        </mask>
    </defs>
    <g id="Page-1" stroke="none" stroke-width="1" fill="none" fill-rule="evenodd">
        <g id="Group-17" transform="translate(0.000000, 7.000000)">
            <g id="user.1" transform="translate(91.000000, 89.000000)">
                <g id="User"></g>
            </g>
            <g id="Group-13" transform="translate(0.000000, 94.000000)">
                <use id="Rectangle-992" stroke="#373D44" mask="url(#mask-2)" stroke-width="8" fill="#E8EAED" xlink:href="#path-1"></use>
                <g id="Group-3" transform="translate(13.000000, 0.000000)">
                    <g id="Oval-263">
                        <use fill="#FFFFFF" fill-rule="evenodd" xlink:href="#path-3"></use>
                        <use stroke="#373D44" mask="url(#mask-4)" stroke-width="8" xlink:href="#path-3"></use>
                    </g>
                    <path d="M14.725,8.93558987 C13.709,9.69158987 13.436,10.8885899 13.486,11.5255899 C13.55,12.3045899 13.708,13.3185899 13.708,13.3185899 C13.708,13.3185899 13.395,13.4885899 13.395,14.1725899 C13.504,15.8895899 14.078,15.1485899 14.196,15.9015899 C14.48,17.7155899 15.129,17.3925899 15.129,18.3825899 C15.129,20.0315899 14.449,20.8025899 12.326,21.7165899 C10.196,22.6345899 8,23.7895899 8,25.7895899 L8,26.7895899 L26,26.7895899 L26,25.7895899 C26,23.7895899 23.803,22.6345899 21.672,21.7175899 C19.549,20.8035899 18.871,20.0335899 18.871,18.3835899 C18.871,17.3935899 19.518,17.7165899 19.803,15.9025899 C19.922,15.1495899 20.495,15.8905899 20.606,14.1735899 C20.606,13.4895899 20.292,13.3195899 20.292,13.3195899 C20.292,13.3195899 20.45,12.3055899 20.513,11.5265899 C20.578,10.7095899 20.115,8.96558987 18.213,8.43058987 C17.88,8.09058987 17.655,7.54958987 18.679,7.00658987 C16.439,6.90158987 15.918,8.07358987 14.725,8.93558987 L14.725,8.93558987 Z" id="Shape" fill="#373D44"></path>
                </g>
            </g>
            <g id="Group-10" transform="translate(80.000000, 46.000000)">
                <use id="Rectangle-992" stroke="#373D44" mask="url(#mask-6)" stroke-width="8" fill="#AFBAC4" xlink:href="#path-5"></use>
                <g id="Group-3" transform="translate(5.000000, 0.000000)">
                    <g id="Oval-263">
                        <use fill="#FFFFFF" fill-rule="evenodd" xlink:href="#path-7"></use>
                        <use stroke="#373D44" mask="url(#mask-8)" stroke-width="8" xlink:href="#path-7"></use>
                    </g>
                    <path d="M14.725,8.93558987 C13.709,9.69158987 13.436,10.8885899 13.486,11.5255899 C13.55,12.3045899 13.708,13.3185899 13.708,13.3185899 C13.708,13.3185899 13.395,13.4885899 13.395,14.1725899 C13.504,15.8895899 14.078,15.1485899 14.196,15.9015899 C14.48,17.7155899 15.129,17.3925899 15.129,18.3825899 C15.129,20.0315899 14.449,20.8025899 12.326,21.7165899 C10.196,22.6345899 8,23.7895899 8,25.7895899 L8,26.7895899 L26,26.7895899 L26,25.7895899 C26,23.7895899 23.803,22.6345899 21.672,21.7175899 C19.549,20.8035899 18.871,20.0335899 18.871,18.3835899 C18.871,17.3935899 19.518,17.7165899 19.803,15.9025899 C19.922,15.1495899 20.495,15.8905899 20.606,14.1735899 C20.606,13.4895899 20.292,13.3195899 20.292,13.3195899 C20.292,13.3195899 20.45,12.3055899 20.513,11.5265899 C20.578,10.7095899 20.115,8.96558987 18.213,8.43058987 C17.88,8.09058987 17.655,7.54958987 18.679,7.00658987 C16.439,6.90158987 15.918,8.07358987 14.725,8.93558987 L14.725,8.93558987 Z" id="Shape" fill="#373D44"></path>
                </g>
                <g id="Group-3" transform="translate(20.000000, 0.000000)">
                    <g id="Oval-263">
                        <use fill="#FFFFFF" fill-rule="evenodd" xlink:href="#path-9"></use>
                        <use stroke="#F8F9F9" mask="url(#mask-10)" stroke-width="14" xlink:href="#path-9"></use>
                    </g>
                    <g id="Oval-263">
                        <use fill="#FFFFFF" fill-rule="evenodd" xlink:href="#path-11"></use>
                        <use stroke="#373D44" mask="url(#mask-12)" stroke-width="8" xlink:href="#path-11"></use>
                    </g>
                    <path d="M14.725,8.93558987 C13.709,9.69158987 13.436,10.8885899 13.486,11.5255899 C13.55,12.3045899 13.708,13.3185899 13.708,13.3185899 C13.708,13.3185899 13.395,13.4885899 13.395,14.1725899 C13.504,15.8895899 14.078,15.1485899 14.196,15.9015899 C14.48,17.7155899 15.129,17.3925899 15.129,18.3825899 C15.129,20.0315899 14.449,20.8025899 12.326,21.7165899 C10.196,22.6345899 8,23.7895899 8,25.7895899 L8,26.7895899 L26,26.7895899 L26,25.7895899 C26,23.7895899 23.803,22.6345899 21.672,21.7175899 C19.549,20.8035899 18.871,20.0335899 18.871,18.3835899 C18.871,17.3935899 19.518,17.7165899 19.803,15.9025899 C19.922,15.1495899 20.495,15.8905899 20.606,14.1735899 C20.606,13.4895899 20.292,13.3195899 20.292,13.3195899 C20.292,13.3195899 20.45,12.3055899 20.513,11.5265899 C20.578,10.7095899 20.115,8.96558987 18.213,8.43058987 C17.88,8.09058987 17.655,7.54958987 18.679,7.00658987 C16.439,6.90158987 15.918,8.07358987 14.725,8.93558987 L14.725,8.93558987 Z" id="Shape" fill="#373D44"></path>
                </g>
            </g>
            <g id="Group-7" transform="translate(160.000000, 0.000000)">
                <use id="Rectangle-992" stroke="#373D44" mask="url(#mask-14)" stroke-width="8" fill="#0070D3" xlink:href="#path-13"></use>
                <g id="Group-3" transform="translate(1.000000, 0.000000)">
                    <g id="Oval-263">
                        <use fill="#FFFFFF" fill-rule="evenodd" xlink:href="#path-15"></use>
                        <use stroke="#373D44" mask="url(#mask-16)" stroke-width="8" xlink:href="#path-15"></use>
                    </g>
                    <path d="M14.725,8.93558987 C13.709,9.69158987 13.436,10.8885899 13.486,11.5255899 C13.55,12.3045899 13.708,13.3185899 13.708,13.3185899 C13.708,13.3185899 13.395,13.4885899 13.395,14.1725899 C13.504,15.8895899 14.078,15.1485899 14.196,15.9015899 C14.48,17.7155899 15.129,17.3925899 15.129,18.3825899 C15.129,20.0315899 14.449,20.8025899 12.326,21.7165899 C10.196,22.6345899 8,23.7895899 8,25.7895899 L8,26.7895899 L26,26.7895899 L26,25.7895899 C26,23.7895899 23.803,22.6345899 21.672,21.7175899 C19.549,20.8035899 18.871,20.0335899 18.871,18.3835899 C18.871,17.3935899 19.518,17.7165899 19.803,15.9025899 C19.922,15.1495899 20.495,15.8905899 20.606,14.1735899 C20.606,13.4895899 20.292,13.3195899 20.292,13.3195899 C20.292,13.3195899 20.45,12.3055899 20.513,11.5265899 C20.578,10.7095899 20.115,8.96558987 18.213,8.43058987 C17.88,8.09058987 17.655,7.54958987 18.679,7.00658987 C16.439,6.90158987 15.918,8.07358987 14.725,8.93558987 L14.725,8.93558987 Z" id="Shape" fill="#373D44"></path>
                </g>
                <g id="Group-3" transform="translate(25.000000, 0.000000)">
                    <g id="Oval-263">
                        <use fill="#FFFFFF" fill-rule="evenodd" xlink:href="#path-17"></use>
                        <use stroke="#373D44" mask="url(#mask-18)" stroke-width="8" xlink:href="#path-17"></use>
                    </g>
                    <path d="M14.725,8.93558987 C13.709,9.69158987 13.436,10.8885899 13.486,11.5255899 C13.55,12.3045899 13.708,13.3185899 13.708,13.3185899 C13.708,13.3185899 13.395,13.4885899 13.395,14.1725899 C13.504,15.8895899 14.078,15.1485899 14.196,15.9015899 C14.48,17.7155899 15.129,17.3925899 15.129,18.3825899 C15.129,20.0315899 14.449,20.8025899 12.326,21.7165899 C10.196,22.6345899 8,23.7895899 8,25.7895899 L8,26.7895899 L26,26.7895899 L26,25.7895899 C26,23.7895899 23.803,22.6345899 21.672,21.7175899 C19.549,20.8035899 18.871,20.0335899 18.871,18.3835899 C18.871,17.3935899 19.518,17.7165899 19.803,15.9025899 C19.922,15.1495899 20.495,15.8905899 20.606,14.1735899 C20.606,13.4895899 20.292,13.3195899 20.292,13.3195899 C20.292,13.3195899 20.45,12.3055899 20.513,11.5265899 C20.578,10.7095899 20.115,8.96558987 18.213,8.43058987 C17.88,8.09058987 17.655,7.54958987 18.679,7.00658987 C16.439,6.90158987 15.918,8.07358987 14.725,8.93558987 L14.725,8.93558987 Z" id="Shape" fill="#373D44"></path>
                </g>
                <g id="Group-3" transform="translate(13.000000, 0.000000)">
                    <g id="Oval-263">
                        <use fill="#FFFFFF" fill-rule="evenodd" xlink:href="#path-19"></use>
                        <use stroke="#F8F9F9" mask="url(#mask-20)" stroke-width="14" xlink:href="#path-19"></use>
                    </g>
                    <g id="Oval-263">
                        <use fill="#FFFFFF" fill-rule="evenodd" xlink:href="#path-21"></use>
                        <use stroke="#373D44" mask="url(#mask-22)" stroke-width="8" xlink:href="#path-21"></use>
                    </g>
                    <path d="M14.725,8.93558987 C13.709,9.69158987 13.436,10.8885899 13.486,11.5255899 C13.55,12.3045899 13.708,13.3185899 13.708,13.3185899 C13.708,13.3185899 13.395,13.4885899 13.395,14.1725899 C13.504,15.8895899 14.078,15.1485899 14.196,15.9015899 C14.48,17.7155899 15.129,17.3925899 15.129,18.3825899 C15.129,20.0315899 14.449,20.8025899 12.326,21.7165899 C10.196,22.6345899 8,23.7895899 8,25.7895899 L8,26.7895899 L26,26.7895899 L26,25.7895899 C26,23.7895899 23.803,22.6345899 21.672,21.7175899 C19.549,20.8035899 18.871,20.0335899 18.871,18.3835899 C18.871,17.3935899 19.518,17.7165899 19.803,15.9025899 C19.922,15.1495899 20.495,15.8905899 20.606,14.1735899 C20.606,13.4895899 20.292,13.3195899 20.292,13.3195899 C20.292,13.3195899 20.45,12.3055899 20.513,11.5265899 C20.578,10.7095899 20.115,8.96558987 18.213,8.43058987 C17.88,8.09058987 17.655,7.54958987 18.679,7.00658987 C16.439,6.90158987 15.918,8.07358987 14.725,8.93558987 L14.725,8.93558987 Z" id="Shape" fill="#373D44"></path>
                </g>
            </g>
        </g>
    </g>
</svg>
