<?xml version="1.0" encoding="UTF-8" standalone="no"?>
<svg width="344px" height="285px" viewBox="0 0 344 285" version="1.1" xmlns="http://www.w3.org/2000/svg" xmlns:xlink="http://www.w3.org/1999/xlink">
    <!-- Generator: Sketch 3.7.2 (28276) - http://www.bohemiancoding.com/sketch -->
    <title>Group 10</title>
    <desc>Created with Sketch.</desc>
    <defs>
        <rect id="path-1" x="0" y="0" width="108" height="185" rx="15"></rect>
        <mask id="mask-2" maskContentUnits="userSpaceOnUse" maskUnits="objectBoundingBox" x="0" y="0" width="108" height="185" fill="white">
            <use xlink:href="#path-1"></use>
        </mask>
        <circle id="path-3" cx="54" cy="168" r="8"></circle>
        <mask id="mask-4" maskContentUnits="userSpaceOnUse" maskUnits="objectBoundingBox" x="0" y="0" width="16" height="16" fill="white">
            <use xlink:href="#path-3"></use>
        </mask>
        <rect id="path-5" x="37" y="14" width="35" height="6" rx="100"></rect>
        <mask id="mask-6" maskContentUnits="userSpaceOnUse" maskUnits="objectBoundingBox" x="0" y="0" width="35" height="6" fill="white">
            <use xlink:href="#path-5"></use>
        </mask>
        <rect id="path-7" x="10" y="30" width="88" height="125" rx="2"></rect>
        <mask id="mask-8" maskContentUnits="userSpaceOnUse" maskUnits="objectBoundingBox" x="0" y="0" width="88" height="125" fill="white">
            <use xlink:href="#path-7"></use>
        </mask>
    </defs>
    <g id="Page-1" stroke="none" stroke-width="1" fill="none" fill-rule="evenodd">
        <g id="Group-10" transform="translate(2.000000, 0.000000)">
            <g id="Group-7" transform="translate(0.000000, 45.000000)">
                <path d="M41,74 L119.136245,94" id="Path-589" stroke="#C8D0D5" stroke-width="2" stroke-dasharray="4"></path>
                <path d="M215,94 L293.136245,74" id="Path-589-Copy" stroke="#C8D0D5" stroke-width="2" stroke-dasharray="4"></path>
                <path d="M166,0 L166,59.3238025" id="Path-591" stroke="#C8D0D5" stroke-width="2" stroke-dasharray="4"></path>
                <g id="Group-25" transform="translate(0.000000, 29.000000)">
                    <g id="Group-3">
                        <circle id="Oval-251" stroke="#EBEEF0" stroke-width="3" fill="#FFFFFF" cx="25" cy="35" r="25"></circle>
                        <path d="M22.725,26.9355899 C21.709,27.6915899 21.436,28.8885899 21.486,29.5255899 C21.55,30.3045899 21.708,31.3185899 21.708,31.3185899 C21.708,31.3185899 21.395,31.4885899 21.395,32.1725899 C21.504,33.8895899 22.078,33.1485899 22.196,33.9015899 C22.48,35.7155899 23.129,35.3925909 23.129,36.3825899 C23.129,38.0315899 22.449,38.8025899 20.326,39.7165909 C18.196,40.6345899 16,41.7895899 16,43.7895899 L16,44.7895899 L34,44.7895899 L34,43.7895899 C34,41.7895899 31.803,40.6345899 29.672,39.7175899 C27.549,38.8035899 26.871,38.0335899 26.871,36.3835899 C26.871,35.3935899 27.518,35.7165899 27.803,33.9025899 C27.922,33.1495899 28.495,33.8905899 28.606,32.1735899 C28.606,31.4895899 28.292,31.3195899 28.292,31.3195899 C28.292,31.3195899 28.45,30.3055899 28.513,29.5265899 C28.578,28.7095899 28.115,26.9655899 26.213,26.4305899 C25.88,26.0905899 25.655,25.5495899 26.679,25.0065899 C24.439,24.9015899 23.918,26.0735899 22.725,26.9355899 L22.725,26.9355899 Z" id="Page-1" fill="#373D44"></path>
                        <g id="Group-24" transform="translate(30.000000, 0.000000)">
                            <circle id="Oval-251" fill="#3CCD3F" cx="15" cy="15" r="15"></circle>
                            <path d="M16.2994129,17.5564898 C16.2994129,17.1690294 16.1976527,16.8649512 15.9941292,16.6442459 C15.7906056,16.4235407 15.4331402,16.2150999 14.9217221,16.0189175 C14.410304,15.822735 13.9380322,15.6241033 13.5048924,15.4230163 C13.0717526,15.2219293 12.6986317,14.9889661 12.3855186,14.7241198 C12.0724055,14.4592735 11.8323557,14.152743 11.665362,13.8045192 C11.4983684,13.4562953 11.4148728,13.0345094 11.4148728,12.5391487 C11.4148728,11.7102779 11.7123258,11.027328 12.3072407,10.4902785 C12.9021556,9.95322905 13.6953636,9.64056797 14.6868885,9.55228586 L14.6868885,8 L15.9315068,8 L15.9315068,9.58171308 C16.8865018,9.71413624 17.6366574,10.0831989 18.1819961,10.6889122 C18.7273348,11.2946256 19,12.063404 19,12.9952706 L16.3542074,12.9952706 C16.3542074,12.4851963 16.249838,12.0928372 16.0410959,11.8181818 C15.8323538,11.5435264 15.5349008,11.4062007 15.148728,11.4062007 C14.8043036,11.4062007 14.5368568,11.5079689 14.3463796,11.7115081 C14.1559025,11.9150474 14.0606654,12.1958294 14.0606654,12.5538623 C14.0606654,12.9167999 14.1702533,13.2049385 14.3894325,13.4182869 C14.6086117,13.6316353 14.9608586,13.8351716 15.446184,14.0289017 C15.9315093,14.2226319 16.3894303,14.4237159 16.8199609,14.6321597 C17.2504914,14.8406036 17.6223076,15.0772451 17.9354207,15.3420914 C18.2485339,15.6069377 18.4938021,15.9159205 18.6712329,16.2690489 C18.8486636,16.6221773 18.9373777,17.0464155 18.9373777,17.5417761 C18.9373777,18.3804561 18.6542755,19.0646321 18.0880626,19.5943248 C17.5218497,20.1240174 16.7508203,20.4330001 15.7749511,20.5212822 L15.7749511,22 L14.5303327,22 L14.5303327,20.5139254 C13.3926884,20.4011205 12.5198987,20.03451 11.9119374,19.414083 C11.3039761,18.793656 11,17.9758327 11,16.9605885 L13.6379648,16.9605885 C13.6379648,17.5197085 13.7697312,17.9451728 14.0332681,18.2369942 C14.296805,18.5288156 14.6712305,18.6747241 15.1565558,18.6747241 C15.5114173,18.6747241 15.7906056,18.5754082 15.9941292,18.3767735 C16.1976527,18.1781388 16.2994129,17.9047136 16.2994129,17.5564898 L16.2994129,17.5564898 Z" id="$" fill="#FFFFFF"></path>
                        </g>
                    </g>
                    <g id="Group-3" transform="translate(282.000000, 0.000000)">
                        <circle id="Oval-251" stroke="#EBEEF0" stroke-width="3" fill="#FFFFFF" cx="25" cy="35" r="25"></circle>
                        <path d="M22.725,26.9355899 C21.709,27.6915899 21.436,28.8885899 21.486,29.5255899 C21.55,30.3045899 21.708,31.3185899 21.708,31.3185899 C21.708,31.3185899 21.395,31.4885899 21.395,32.1725899 C21.504,33.8895899 22.078,33.1485899 22.196,33.9015899 C22.48,35.7155899 23.129,35.3925909 23.129,36.3825899 C23.129,38.0315899 22.449,38.8025899 20.326,39.7165909 C18.196,40.6345899 16,41.7895899 16,43.7895899 L16,44.7895899 L34,44.7895899 L34,43.7895899 C34,41.7895899 31.803,40.6345899 29.672,39.7175899 C27.549,38.8035899 26.871,38.0335899 26.871,36.3835899 C26.871,35.3935899 27.518,35.7165899 27.803,33.9025899 C27.922,33.1495899 28.495,33.8905899 28.606,32.1735899 C28.606,31.4895899 28.292,31.3195899 28.292,31.3195899 C28.292,31.3195899 28.45,30.3055899 28.513,29.5265899 C28.578,28.7095899 28.115,26.9655899 26.213,26.4305899 C25.88,26.0905899 25.655,25.5495899 26.679,25.0065899 C24.439,24.9015899 23.918,26.0735899 22.725,26.9355899 L22.725,26.9355899 Z" id="Page-1" fill="#373D44"></path>
                        <g id="Group-24" transform="translate(30.000000, 0.000000)">
                            <circle id="Oval-251" fill="#3CCD3F" cx="15" cy="15" r="15"></circle>
                            <path d="M16.2994129,17.5564898 C16.2994129,17.1690294 16.1976527,16.8649512 15.9941292,16.6442459 C15.7906056,16.4235407 15.4331402,16.2150999 14.9217221,16.0189175 C14.410304,15.822735 13.9380322,15.6241033 13.5048924,15.4230163 C13.0717526,15.2219293 12.6986317,14.9889661 12.3855186,14.7241198 C12.0724055,14.4592735 11.8323557,14.152743 11.665362,13.8045192 C11.4983684,13.4562953 11.4148728,13.0345094 11.4148728,12.5391487 C11.4148728,11.7102779 11.7123258,11.027328 12.3072407,10.4902785 C12.9021556,9.95322905 13.6953636,9.64056797 14.6868885,9.55228586 L14.6868885,8 L15.9315068,8 L15.9315068,9.58171308 C16.8865018,9.71413624 17.6366574,10.0831989 18.1819961,10.6889122 C18.7273348,11.2946256 19,12.063404 19,12.9952706 L16.3542074,12.9952706 C16.3542074,12.4851963 16.249838,12.0928372 16.0410959,11.8181818 C15.8323538,11.5435264 15.5349008,11.4062007 15.148728,11.4062007 C14.8043036,11.4062007 14.5368568,11.5079689 14.3463796,11.7115081 C14.1559025,11.9150474 14.0606654,12.1958294 14.0606654,12.5538623 C14.0606654,12.9167999 14.1702533,13.2049385 14.3894325,13.4182869 C14.6086117,13.6316353 14.9608586,13.8351716 15.446184,14.0289017 C15.9315093,14.2226319 16.3894303,14.4237159 16.8199609,14.6321597 C17.2504914,14.8406036 17.6223076,15.0772451 17.9354207,15.3420914 C18.2485339,15.6069377 18.4938021,15.9159205 18.6712329,16.2690489 C18.8486636,16.6221773 18.9373777,17.0464155 18.9373777,17.5417761 C18.9373777,18.3804561 18.6542755,19.0646321 18.0880626,19.5943248 C17.5218497,20.1240174 16.7508203,20.4330001 15.7749511,20.5212822 L15.7749511,22 L14.5303327,22 L14.5303327,20.5139254 C13.3926884,20.4011205 12.5198987,20.03451 11.9119374,19.414083 C11.3039761,18.793656 11,17.9758327 11,16.9605885 L13.6379648,16.9605885 C13.6379648,17.5197085 13.7697312,17.9451728 14.0332681,18.2369942 C14.296805,18.5288156 14.6712305,18.6747241 15.1565558,18.6747241 C15.5114173,18.6747241 15.7906056,18.5754082 15.9941292,18.3767735 C16.1976527,18.1781388 16.2994129,17.9047136 16.2994129,17.5564898 L16.2994129,17.5564898 Z" id="$" fill="#FFFFFF"></path>
                        </g>
                    </g>
                </g>
                <g id="Group-41" transform="translate(117.000000, 55.000000)">
                    <g id="Group-40">
                        <use id="Rectangle-2213" stroke="#373D44" mask="url(#mask-2)" stroke-width="8" fill="#AFBAC4" xlink:href="#path-1"></use>
                        <use id="Oval-576" stroke="#373D44" mask="url(#mask-4)" stroke-width="4" fill="#FFFFFF" xlink:href="#path-3"></use>
                        <use id="Rectangle-2215" stroke="#373D44" mask="url(#mask-6)" stroke-width="4" fill="#FFFFFF" xlink:href="#path-5"></use>
                        <use id="Rectangle-2213" stroke="#373D44" mask="url(#mask-8)" stroke-width="4" fill="#FFFFFF" xlink:href="#path-7"></use>
                        <rect id="Rectangle-132" fill="#B8C0C9" opacity="0.4" x="17" y="56" width="74" height="50"></rect>
                        <rect id="Rectangle-132" fill="#B8C0C9" opacity="0.4" x="17" y="111" width="74" height="40"></rect>
                        <rect id="Rectangle-135" fill="#B8C0C9" x="17" y="43" width="15" height="3"></rect>
                    </g>
                </g>
            </g>
            <g id="Group-3" transform="translate(141.000000, 0.000000)">
                <circle id="Oval-251" stroke="#EBEEF0" stroke-width="3" fill="#FFFFFF" cx="25" cy="35" r="25"></circle>
                <path d="M22.725,26.9355899 C21.709,27.6915899 21.436,28.8885899 21.486,29.5255899 C21.55,30.3045899 21.708,31.3185899 21.708,31.3185899 C21.708,31.3185899 21.395,31.4885899 21.395,32.1725899 C21.504,33.8895899 22.078,33.1485899 22.196,33.9015899 C22.48,35.7155899 23.129,35.3925909 23.129,36.3825899 C23.129,38.0315899 22.449,38.8025899 20.326,39.7165909 C18.196,40.6345899 16,41.7895899 16,43.7895899 L16,44.7895899 L34,44.7895899 L34,43.7895899 C34,41.7895899 31.803,40.6345899 29.672,39.7175899 C27.549,38.8035899 26.871,38.0335899 26.871,36.3835899 C26.871,35.3935899 27.518,35.7165899 27.803,33.9025899 C27.922,33.1495899 28.495,33.8905899 28.606,32.1735899 C28.606,31.4895899 28.292,31.3195899 28.292,31.3195899 C28.292,31.3195899 28.45,30.3055899 28.513,29.5265899 C28.578,28.7095899 28.115,26.9655899 26.213,26.4305899 C25.88,26.0905899 25.655,25.5495899 26.679,25.0065899 C24.439,24.9015899 23.918,26.0735899 22.725,26.9355899 L22.725,26.9355899 Z" id="Page-1" fill="#373D44"></path>
                <g id="Group-24" transform="translate(30.000000, 0.000000)">
                    <circle id="Oval-251" fill="#3CCD3F" cx="15" cy="15" r="15"></circle>
                    <path d="M16.2994129,17.5564898 C16.2994129,17.1690294 16.1976527,16.8649512 15.9941292,16.6442459 C15.7906056,16.4235407 15.4331402,16.2150999 14.9217221,16.0189175 C14.410304,15.822735 13.9380322,15.6241033 13.5048924,15.4230163 C13.0717526,15.2219293 12.6986317,14.9889661 12.3855186,14.7241198 C12.0724055,14.4592735 11.8323557,14.152743 11.665362,13.8045192 C11.4983684,13.4562953 11.4148728,13.0345094 11.4148728,12.5391487 C11.4148728,11.7102779 11.7123258,11.027328 12.3072407,10.4902785 C12.9021556,9.95322905 13.6953636,9.64056797 14.6868885,9.55228586 L14.6868885,8 L15.9315068,8 L15.9315068,9.58171308 C16.8865018,9.71413624 17.6366574,10.0831989 18.1819961,10.6889122 C18.7273348,11.2946256 19,12.063404 19,12.9952706 L16.3542074,12.9952706 C16.3542074,12.4851963 16.249838,12.0928372 16.0410959,11.8181818 C15.8323538,11.5435264 15.5349008,11.4062007 15.148728,11.4062007 C14.8043036,11.4062007 14.5368568,11.5079689 14.3463796,11.7115081 C14.1559025,11.9150474 14.0606654,12.1958294 14.0606654,12.5538623 C14.0606654,12.9167999 14.1702533,13.2049385 14.3894325,13.4182869 C14.6086117,13.6316353 14.9608586,13.8351716 15.446184,14.0289017 C15.9315093,14.2226319 16.3894303,14.4237159 16.8199609,14.6321597 C17.2504914,14.8406036 17.6223076,15.0772451 17.9354207,15.3420914 C18.2485339,15.6069377 18.4938021,15.9159205 18.6712329,16.2690489 C18.8486636,16.6221773 18.9373777,17.0464155 18.9373777,17.5417761 C18.9373777,18.3804561 18.6542755,19.0646321 18.0880626,19.5943248 C17.5218497,20.1240174 16.7508203,20.4330001 15.7749511,20.5212822 L15.7749511,22 L14.5303327,22 L14.5303327,20.5139254 C13.3926884,20.4011205 12.5198987,20.03451 11.9119374,19.414083 C11.3039761,18.793656 11,17.9758327 11,16.9605885 L13.6379648,16.9605885 C13.6379648,17.5197085 13.7697312,17.9451728 14.0332681,18.2369942 C14.296805,18.5288156 14.6712305,18.6747241 15.1565558,18.6747241 C15.5114173,18.6747241 15.7906056,18.5754082 15.9941292,18.3767735 C16.1976527,18.1781388 16.2994129,17.9047136 16.2994129,17.5564898 L16.2994129,17.5564898 Z" id="$" fill="#FFFFFF"></path>
                </g>
            </g>
        </g>
    </g>
</svg>
