<?xml version="1.0" encoding="UTF-8" standalone="no"?>
<svg width="9px" height="10px" viewBox="0 0 9 10" version="1.1" xmlns="http://www.w3.org/2000/svg" xmlns:xlink="http://www.w3.org/1999/xlink">
    <!-- Generator: Sketch 3.7.2 (28276) - http://www.bohemiancoding.com/sketch -->
    <title>Shape</title>
    <desc>Created with Sketch.</desc>
    <defs></defs>
    <g id="Desktop-design" stroke="none" stroke-width="1" fill="none" fill-rule="evenodd">
        <g id="Log-in" transform="translate(-1031.000000, -176.000000)" fill="#B8C0C9">
            <g id="Group-57" transform="translate(0.000000, 1.000000)">
                <g id="Group-39" transform="translate(540.000000, 155.000000)">
                    <path d="M499.663236,29.6617951 C499.214217,30.112735 498.486596,30.112735 498.038535,29.6617951 L495.500479,26.7484736 L492.962422,29.6608336 C492.513404,30.1117735 491.785783,30.1117735 491.337721,29.6608336 C490.888703,29.2098938 490.888703,28.4791597 491.337721,28.0291813 L493.978219,25.0004807 L491.336764,21.9698572 C490.887745,21.5189174 490.887745,20.7891448 491.336764,20.3382049 C491.785783,19.887265 492.512446,19.887265 492.961465,20.3382049 L495.500479,23.2524879 L498.038535,20.3382049 C498.487554,19.887265 499.214217,19.887265 499.663236,20.3382049 C500.112255,20.7891448 500.112255,21.5198789 499.663236,21.9698572 L497.022738,25.0004807 L499.663236,28.0291813 C500.112255,28.4801211 500.112255,29.2108552 499.663236,29.6617951 L499.663236,29.6617951 Z" id="Shape"></path>
                </g>
            </g>
        </g>
    </g>
</svg>
