<?xml version="1.0" encoding="UTF-8" standalone="no"?>
<svg width="16px" height="16px" viewBox="0 0 16 16" version="1.1" xmlns="http://www.w3.org/2000/svg" xmlns:xlink="http://www.w3.org/1999/xlink">
    <!-- Generator: Sketch 3.7.2 (28276) - http://www.bohemiancoding.com/sketch -->
    <title>Shape</title>
    <desc>Created with Sketch.</desc>
    <defs></defs>
    <g id="Desktop-design" stroke="none" stroke-width="1" fill="none" fill-rule="evenodd">
        <g id="Log-in" transform="translate(-635.000000, -666.000000)" fill="#0070D3">
            <g id="Group-57" transform="translate(0.000000, 1.000000)">
                <g id="Group-39" transform="translate(540.000000, 155.000000)">
                    <g id="Group-37" transform="translate(70.000000, 496.000000)">
                        <g id="Group">
                            <g id="Group-38-Copy" transform="translate(25.000000, 14.000000)">
                                <g id="Group-41">
                                    <path d="M8.17518248,6.85714286 L8.17518248,9.6 L12.8467153,9.6 C12.6131387,10.7428571 11.4452555,13.0285714 8.17518248,13.0285714 C5.37226277,13.0285714 3.15328467,10.7428571 3.15328467,8 C3.15328467,5.25714286 5.37226277,2.97142857 8.17518248,2.97142857 C9.81021898,2.97142857 10.8613139,3.65714286 11.4452555,4.22857143 L13.6642336,2.17142857 C12.2627737,0.8 10.3941606,0 8.17518248,0 C3.62043796,0 0,3.54285714 0,8 C0,12.4571429 3.62043796,16 8.17518248,16 C12.8467153,16 16,12.8 16,8.22857143 C16,7.65714286 16,7.31428571 15.8832117,6.85714286 L8.17518248,6.85714286 L8.17518248,6.85714286 Z" id="Shape"></path>
                                </g>
                            </g>
                        </g>
                    </g>
                </g>
            </g>
        </g>
    </g>
</svg>
