<svg width="16" height="16" viewBox="0 0 16 16" xmlns="http://www.w3.org/2000/svg"><path d="M14.474 12.455c-1.017 1.365-2.332 2.31-3.943 2.834-.187.034-.325.01-.411-.071-.087-.082-.13-.184-.13-.306v-2.155c0-.66-.181-1.144-.542-1.45.396-.041.752-.102 1.068-.184.316-.082.642-.214.979-.398.337-.184.618-.41.844-.679.226-.269.41-.626.552-1.072.142-.446.214-.958.214-1.537 0-.824-.274-1.525-.823-2.104.257-.62.229-1.314-.083-2.084-.194-.061-.476-.024-.844.112s-.688.286-.958.449l-.396.245c-.646-.177-1.313-.266-2-.266-.688 0-1.354.089-2 .266l-.443-.276c-.184-.109-.474-.24-.87-.393-.396-.153-.694-.199-.896-.138-.306.769-.33 1.464-.073 2.084-.549.579-.823 1.28-.823 2.104 0 .579.071 1.089.214 1.532.142.443.325.8.547 1.072.222.272.502.5.839.684.337.184.663.317.979.398.316.082.672.143 1.068.184-.278.245-.448.596-.51 1.052-.146.068-.302.119-.469.153-.167.034-.365.051-.594.051-.229 0-.457-.073-.682-.22-.226-.146-.418-.359-.578-.638-.132-.218-.3-.395-.505-.531-.205-.136-.377-.218-.516-.245l-.208-.031c-.146 0-.247.015-.302.046-.056.031-.073.07-.052.117l.094.143.135.123.073.051c.153.068.304.197.453.388.149.191.259.364.328.521l.104.235c.09.259.243.468.458.628.215.16.448.262.698.306.25.044.491.068.724.071.233.003.425-.009.578-.036l.24-.041.005.909.005.552c0 .123-.045.225-.135.306-.09.082-.229.106-.417.071-1.611-.524-2.925-1.469-3.943-2.834-1.017-1.365-1.526-2.902-1.526-4.611 0-1.423.358-2.735 1.073-3.937s1.686-2.153 2.911-2.855c1.226-.701 2.564-1.052 4.016-1.052 1.451 0 2.79.351 4.016 1.052 1.226.701 2.196 1.653 2.911 2.855.715 1.202 1.073 2.514 1.073 3.937 0 1.709-.509 3.246-1.526 4.611z" fill="#0070D3"/></svg>
