<?xml version="1.0" encoding="UTF-8"?>
<svg width="20px" height="26px" viewBox="0 0 20 26" version="1.1" xmlns="http://www.w3.org/2000/svg" xmlns:xlink="http://www.w3.org/1999/xlink">
<g id="Page-1" stroke="none" stroke-width="1" fill="none" fill-rule="evenodd">
<g id="Group" fill="#0070D3">
<path d="M4.47147059,23.4272059 L2.28617647,23.4272059 L2.28617647,2.19632353 L18.8470588,2.19632353 C19.4536765,2.19632353 19.9451471,1.70441176 19.9451471,1.09823529 C19.9451471,0.492058824 19.4536765,0 18.8470588,0 L1.18808824,0 C0.581470588,0 0.09,0.491911765 0.09,1.09808824 L0.09,24.5252941 C0.09,25.1316176 0.581470588,25.6233824 1.18808824,25.6233824 L4.47147059,25.6233824 C5.07808824,25.6233824 5.56955882,25.1314706 5.56955882,24.5252941 C5.56955882,23.9189706 5.07808824,23.4272059 4.47147059,23.4272059 Z" id="Shape"></path>
<path d="M18.8452941,15.0079412 C18.2389706,15.0079412 17.7475,15.4998529 17.7475,16.1060294 L17.7485294,23.4270588 L13.6558824,23.4270588 C13.0492647,23.4270588 12.5577941,23.9189706 12.5577941,24.5251471 C12.5577941,25.1314706 13.0492647,25.6232353 13.6558824,25.6232353 L18.8470588,25.6232353 C19.1383824,25.6232353 19.4176471,25.5073529 19.6235294,25.3014706 C19.8298529,25.0955882 19.9452941,24.8160294 19.9452941,24.525 L19.9438235,16.1058824 C19.9438235,15.4991176 19.4519118,15.0079412 18.8452941,15.0079412 Z" id="Shape"></path>
<path d="M17.9530882,5.68308824 C17.5595588,5.45573529 17.1119118,5.33558824 16.6591176,5.33558824 C15.7354412,5.33558824 14.875,5.8325 14.4130882,6.63176471 L7.30514706,18.9430882 C7.20220588,19.1211765 7.15147059,19.3241176 7.15852941,19.5292647 L7.25426471,22.3504412 C7.26720588,22.7294118 7.47441176,23.0747059 7.80264706,23.2641176 C7.9725,23.3620588 8.16191176,23.4113235 8.35176471,23.4113235 C8.52911765,23.4113235 8.70676471,23.3683824 8.86823529,23.2819118 L11.3591176,21.9542647 C11.5402941,21.8577941 11.6908824,21.7126471 11.7933824,21.5345588 L18.9013235,9.22323529 C19.6163235,7.98588235 19.1910294,6.39794118 17.9530882,5.68308824 Z M16.9997059,8.12529412 L10.0486765,20.1641176 L9.38955882,20.5158824 L9.36411765,19.7688235 L16.3147059,7.73 C16.4208824,7.54691176 16.6660294,7.47617647 16.8548529,7.58485294 C17.0436765,7.69411765 17.1086765,7.93647059 16.9997059,8.12529412 Z" id="Shape"></path>
<path d="M11.4817647,8.39617647 C11.4817647,7.78985294 10.9902941,7.29808824 10.3836765,7.29808824 L4.8375,7.29808824 C4.23088235,7.29808824 3.73941176,7.79 3.73941176,8.39617647 C3.73941176,9.00235294 4.23088235,9.49426471 4.8375,9.49426471 L10.3836765,9.49426471 C10.9902941,9.49441176 11.4817647,9.0025 11.4817647,8.39617647 Z" id="Shape"></path>
<path d="M4.8375,11.5998529 C4.23088235,11.5998529 3.73941176,12.0917647 3.73941176,12.6979412 C3.73941176,13.3041176 4.23088235,13.7960294 4.8375,13.7960294 L7.61044118,13.7960294 C8.21705882,13.7960294 8.70852941,13.3041176 8.70852941,12.6979412 C8.70852941,12.0917647 8.21705882,11.5998529 7.61044118,11.5998529 L4.8375,11.5998529 Z" id="Shape"></path>
</g>
</g>
</svg>
