<svg width="30" height="30" viewBox="0 0 30 30" xmlns="http://www.w3.org/2000/svg" xmlns:xlink="http://www.w3.org/1999/xlink"><title>Shape</title><desc>Created with Sketch.</desc><defs><circle id="a" cx="35" cy="35" r="35"/><mask id="b" x="0" y="0" width="70" height="70"><use xlink:href="#a"/></mask></defs><g transform="translate(-20 -20)" fill="none"><use stroke="#B8C0C9" mask="url(#b)" stroke-width="4" opacity=".5" xlink:href="#a"/><path d="M47.139 44.415c-1.908 2.676-4.372 4.528-7.393 5.556-.352.067-.609.02-.771-.14-.163-.16-.244-.36-.244-.601v-4.224c0-1.295-.339-2.242-1.016-2.843.742-.08 1.41-.2 2.002-.36.592-.16 1.204-.42 1.836-.781.632-.36 1.159-.804 1.582-1.331.423-.527.768-1.228 1.035-2.102.267-.874.4-1.879.4-3.013 0-1.615-.514-2.99-1.543-4.124.482-1.215.43-2.576-.156-4.084-.365-.12-.892-.047-1.582.22-.69.267-1.289.561-1.797.881l-.742.48c-1.211-.347-2.461-.521-3.75-.521-1.289 0-2.539.174-3.75.521-.208-.147-.485-.327-.83-.541-.345-.214-.889-.47-1.631-.771-.742-.3-1.302-.39-1.68-.27-.573 1.508-.618 2.87-.137 4.084-1.029 1.134-1.543 2.509-1.543 4.124 0 1.134.133 2.136.4 3.003.267.868.609 1.568 1.025 2.102.417.534.941.981 1.572 1.341.632.36 1.243.621 1.836.781.592.16 1.26.28 2.002.36-.521.48-.84 1.168-.957 2.062-.273.133-.566.234-.879.3-.312.067-.684.1-1.113.1-.43 0-.856-.143-1.279-.43-.423-.287-.785-.704-1.084-1.251-.247-.427-.563-.774-.947-1.041-.384-.267-.706-.427-.967-.48l-.391-.06c-.273 0-.462.03-.566.09-.104.06-.137.137-.098.23.039.093.098.187.176.28.078.093.163.174.254.24l.137.1c.286.133.57.387.85.761s.485.714.615 1.021l.195.46c.169.507.456.918.859 1.231.404.314.84.514 1.309.601.469.087.921.133 1.357.14.436.007.798-.017 1.084-.07l.449-.08c0 .507.003 1.101.01 1.782l.01 1.081c0 .24-.085.44-.254.601-.169.16-.43.207-.781.14-3.021-1.028-5.485-2.88-7.393-5.556-1.908-2.676-2.861-5.689-2.861-9.039 0-2.79.671-5.362 2.012-7.718s3.161-4.221 5.459-5.596c2.298-1.375 4.808-2.062 7.529-2.062s5.231.687 7.529 2.062c2.298 1.375 4.118 3.24 5.459 5.596 1.341 2.356 2.012 4.928 2.012 7.718 0 3.35-.954 6.363-2.861 9.039z" fill="#000"/></g></svg>
