<?xml version="1.0" encoding="UTF-8" standalone="no"?>
<svg width="78px" height="78px" viewBox="0 0 78 78" version="1.1" xmlns="http://www.w3.org/2000/svg" xmlns:xlink="http://www.w3.org/1999/xlink">
    <!-- Generator: Sketch 3.7 (28169) - http://www.bohemiancoding.com/sketch -->
    <title>Shape</title>
    <desc>Created with Sketch.</desc>
    <defs>
        <filter x="-50%" y="-50%" width="200%" height="200%" filterUnits="objectBoundingBox" id="filter-1">
            <feOffset dx="0" dy="0" in="SourceAlpha" result="shadowOffsetOuter1"></feOffset>
            <feGaussianBlur stdDeviation="20" in="shadowOffsetOuter1" result="shadowBlurOuter1"></feGaussianBlur>
            <feColorMatrix values="0 0 0 0 0   0 0 0 0 0   0 0 0 0 0  0 0 0 0.147956295 0" type="matrix" in="shadowBlurOuter1" result="shadowMatrixOuter1"></feColorMatrix>
            <feMerge>
                <feMergeNode in="shadowMatrixOuter1"></feMergeNode>
                <feMergeNode in="SourceGraphic"></feMergeNode>
            </feMerge>
        </filter>
    </defs>
    <g id="Desktop-design" stroke="none" stroke-width="1" fill="none" fill-rule="evenodd">
        <g id="Help-page" transform="translate(-883.000000, -2409.000000)" fill="#FFFFFF">
            <g id="Group-22" filter="url(#filter-1)" transform="translate(99.000000, 30.000000)">
                <g id="Group-20" transform="translate(206.000000, 2351.000000)">
                    <g id="Group-23" transform="translate(359.000000, 0.000000)">
                        <g id="Group-17" transform="translate(0.000000, 53.000000)">
                            <g id="Group-18" transform="translate(243.000000, 0.000000)">
                                <path d="M16.7492593,18.7157859 C15.6687053,18.0849591 14.3274647,18.0873643 13.2488097,18.7211115 C12.9211389,18.9143795 12.8116851,19.3354461 13.0057325,19.6625415 C13.1996073,19.9889497 13.6230933,20.0973516 13.9514547,19.9044271 C14.598337,19.5239039 15.4026669,19.5228731 16.0507577,19.9009913 C16.3276723,20.0623056 16.6713987,20.0104239 16.8882346,19.7946509 C16.9289776,19.7541076 16.965232,19.7077232 16.9957893,19.6556697 C17.1886282,19.328918 17.0783112,18.9078514 16.7492593,18.7157859 L16.7492593,18.7157859 Z M10.1918724,15.8289632 C9.8957947,16.0691309 9.85367052,16.5027384 10.0953666,16.796334 C10.3370627,17.089586 10.7721156,17.1325344 11.0671574,16.8923667 C13.3460061,15.0335579 16.6543073,15.0335579 18.9333286,16.8918513 C19.2102432,17.1172448 19.6107681,17.0935372 19.8585066,16.8464977 C19.8747347,16.8303491 19.890445,16.8136851 19.9051194,16.795475 C20.1468155,16.5018794 20.1033102,16.0689591 19.8086136,15.8284478 C17.0223759,13.5568185 12.9781101,13.5568185 10.1918724,15.8289632 L10.1918724,15.8289632 Z M22.7666282,12.9206662 C18.3391015,9.02644462 11.6610392,9.02644462 7.23316724,12.9206662 C6.94779324,13.1683928 6.92034347,13.6061234 7.1730885,13.8906139 C7.42548825,14.1749326 7.86174965,14.2019042 8.14781421,13.9505699 C12.0541406,10.5150378 17.9456548,10.5150378 21.8519812,13.9505699 C22.1269968,14.192112 22.5411603,14.1764787 22.7973581,13.9220521 C22.8077165,13.9117445 22.8172117,13.9016087 22.8268796,13.8904421 C23.079452,13.6061234 23.0525201,13.1720005 22.7666282,12.9206662 L22.7666282,12.9206662 Z" id="Shape"></path>
                            </g>
                        </g>
                    </g>
                </g>
            </g>
        </g>
    </g>
</svg>