<?xml version="1.0" encoding="UTF-8" standalone="no"?>
<svg width="30px" height="30px" viewBox="0 0 30 30" version="1.1" xmlns="http://www.w3.org/2000/svg" xmlns:xlink="http://www.w3.org/1999/xlink">
    <!-- Generator: Sketch 3.7 (28169) - http://www.bohemiancoding.com/sketch -->
    <title>Page 1</title>
    <desc>Created with Sketch.</desc>
    <defs>
        <circle id="path-1" cx="35" cy="35" r="35"></circle>
        <mask id="mask-2" maskContentUnits="userSpaceOnUse" maskUnits="objectBoundingBox" x="0" y="0" width="70" height="70" fill="white">
            <use xlink:href="#path-1"></use>
        </mask>
    </defs>
    <g id="Mobile-design" stroke="none" stroke-width="1" fill="none" fill-rule="evenodd">
        <g id="Help-page-mobile" transform="translate(-145.000000, -3867.000000)">
            <g id="Group-10" transform="translate(125.000000, 3847.000000)">
                <use id="Oval-872" stroke="#B8C0C9" mask="url(#mask-2)" stroke-width="4" opacity="0.5" xlink:href="#path-1"></use>
                <g id="Page-1" transform="translate(20.000000, 20.000000)">
                    <path d="M19.4489754,1.84669672 C18.9930738,0.443581967 17.4859426,-0.324368852 16.082582,0.131532787 C14.6794672,0.587434426 13.9115164,2.09456557 14.367418,3.49768033 L21.2755328,24.7514508 C21.7496311,26.0625984 23.1657787,26.7990738 24.525123,26.4078443 C25.9429918,25.9996475 26.807582,24.4937459 26.354877,23.1012049 C26.3376639,23.0483361 19.4489754,1.84669672 19.4489754,1.84669672" id="Fill-1" fill="#E9A823"></path>
                    <path d="M8.74512295,5.32458197 C8.28922131,3.92146721 6.78209016,3.15351639 5.37872951,3.60941803 C3.97561475,4.06531967 3.20766393,5.57245082 3.66356557,6.97556557 L10.5716803,28.2293361 C11.0457787,29.5404836 12.4619262,30.276959 13.8212705,29.8857295 C15.2391393,29.4775328 16.1037295,27.9716311 15.6510246,26.5790902 C15.6338115,26.5262213 8.74512295,5.32458197 8.74512295,5.32458197" id="Fill-3" fill="#3FB991"></path>
                    <path d="M28.143959,19.4490492 C29.5470738,18.9931475 30.3150246,17.4860164 29.859123,16.0826557 C29.4032213,14.679541 27.8960902,13.9115902 26.4929754,14.3674918 L5.23920492,21.2756066 C3.92805738,21.7497049 3.19158197,23.1658525 3.58281148,24.5251967 C3.9910082,25.9430656 5.49690984,26.8076557 6.88945082,26.3549508 C6.94231967,26.3377377 28.143959,19.4490492 28.143959,19.4490492" id="Fill-5" fill="#E01664"></path>
                    <path d="M9.66887705,25.4519754 C11.0523197,25.0024672 12.8353525,24.423123 14.7487131,23.8014836 C14.2992049,22.418041 13.7196148,20.6347623 13.0979754,18.7211557 L8.01789344,20.3723852 L9.66887705,25.4519754 Z" id="Fill-7" fill="#462948"></path>
                    <path d="M20.3727295,21.9740902 C22.2932213,21.3499918 24.0782213,20.7701557 25.4525656,20.3235984 C25.0028115,18.9399098 24.4234672,17.1563852 23.801582,15.2422869 L18.7215,16.8935164 L20.3727295,21.9740902 Z" id="Fill-9" fill="#CD2026"></path>
                    <path d="M24.6660738,8.74522131 C26.0691885,8.28931967 26.8371393,6.78218852 26.3812377,5.37882787 C25.9253361,3.97571311 24.4182049,3.2077623 23.0150902,3.66366393 L1.76131967,10.5717787 C0.450172131,11.045877 -0.286303279,12.4620246 0.10492623,13.8213689 C0.513122951,15.2392377 2.01902459,16.1038279 3.41156557,15.651123 C3.46443443,15.6339098 24.6660738,8.74522131 24.6660738,8.74522131" id="Fill-11" fill="#70CBDB"></path>
                    <path d="M6.18995902,14.7484672 C7.57340164,14.298959 9.35692623,13.7193689 11.2707787,13.0977295 C10.6466803,11.1769918 10.0665984,9.3919918 9.62004098,8.01740164 L4.53897541,9.66887705 L6.18995902,14.7484672 Z" id="Fill-13" fill="#1B947D"></path>
                    <path d="M16.8937869,11.270582 C18.8147705,10.6464836 20.6000164,10.0664016 21.9746066,9.61984426 C21.3505082,7.69861475 20.7701803,5.91312295 20.323623,4.53853279 L15.2425574,6.1900082 L16.8937869,11.270582 Z" id="Fill-15" fill="#65863A"></path>
                </g>
            </g>
        </g>
    </g>
</svg>
