<svg width="30" height="30" viewBox="0 0 30 30" xmlns="http://www.w3.org/2000/svg" xmlns:xlink="http://www.w3.org/1999/xlink"><title>Page 1</title><desc>Created with Sketch.</desc><defs><circle id="a" cx="35" cy="35" r="35"/><mask id="b" x="0" y="0" width="70" height="70"><use xlink:href="#a"/></mask></defs><g transform="translate(-20 -20)" fill="none"><use stroke="#B8C0C9" mask="url(#b)" stroke-width="4" opacity=".5" xlink:href="#a"/><g><path d="M39.449 21.847c-.456-1.403-1.963-2.171-3.366-1.715-1.403.456-2.171 1.963-1.715 3.366l6.908 21.254c.474 1.311 1.89 2.048 3.25 1.656 1.418-.408 2.282-1.914 1.83-3.307l-6.906-21.255" fill="#E9A823"/><path d="M28.745 25.325c-.456-1.403-1.963-2.171-3.366-1.715-1.403.456-2.171 1.963-1.715 3.366l6.908 21.254c.474 1.311 1.89 2.048 3.25 1.656 1.418-.408 2.282-1.914 1.83-3.307l-6.906-21.255" fill="#3FB991"/><path d="M48.144 39.449c1.403-.456 2.171-1.963 1.715-3.366-.456-1.403-1.963-2.171-3.366-1.715l-21.254 6.908c-1.311.474-2.048 1.89-1.656 3.25.408 1.418 1.914 2.282 3.307 1.83l21.255-6.906" fill="#E01664"/><path d="M29.669 45.452c1.383-.45 3.166-1.029 5.08-1.65l-1.651-5.08-5.08 1.651 1.651 5.08z" fill="#462948"/><path d="M40.373 41.974l5.08-1.65-1.651-5.081-5.08 1.651 1.651 5.081z" fill="#CD2026"/><path d="M44.666 28.745c1.403-.456 2.171-1.963 1.715-3.366-.456-1.403-1.963-2.171-3.366-1.715l-21.254 6.908c-1.311.474-2.048 1.89-1.656 3.25.408 1.418 1.914 2.282 3.307 1.83l21.255-6.906" fill="#70CBDB"/><path d="M26.19 34.748l5.081-1.651-1.651-5.08-5.081 1.651 1.651 5.08z" fill="#1B947D"/><path d="M36.894 31.271l5.081-1.651-1.651-5.081-5.081 1.651 1.651 5.081z" fill="#65863A"/></g></g></svg>
