<svg width="16" height="10" viewBox="0 0 16 10" xmlns="http://www.w3.org/2000/svg"><title>Shape</title><desc>Created with Sketch.</desc><path d="M9.749 8.716c-1.081-.631-2.422-.628-3.5.005-.328.193-.437.614-.243.941.194.326.617.435.946.242.647-.381 1.451-.382 2.099-.003.277.161.621.109.837-.106l.108-.139c.193-.327.083-.748-.247-.94zm-6.557-2.887c-.296.24-.338.674-.097.967.242.293.677.336.972.096 2.279-1.859 5.587-1.859 7.866-.001.277.225.677.202.925-.045l.047-.051c.242-.294.198-.727-.097-.967-2.786-2.272-6.831-2.272-9.617.001zm12.575-2.908c-4.428-3.894-11.106-3.894-15.533 0-.285.248-.313.685-.06.97.252.284.689.311.975.06 3.906-3.436 9.798-3.436 13.704 0 .275.242.689.226.945-.029l.03-.032c.253-.284.226-.718-.06-.97z" fill="#fff"/></svg>
