<svg width="30" height="25" viewBox="0 0 30 25" xmlns="http://www.w3.org/2000/svg" xmlns:xlink="http://www.w3.org/1999/xlink"><defs><circle id="a" cx="133" cy="40" r="35"/><mask id="b" x="0" y="0" width="70" height="70"><use xlink:href="#a"/></mask></defs><g transform="translate(-119 -28)" fill="none"><use stroke="#B8C0C9" mask="url(#b)" stroke-width="4" opacity=".5" xlink:href="#a"/><path d="M145.928 34.223c.013.271.018.545.018.816 0 8.343-6.191 17.961-17.511 17.961-3.478 0-6.711-1.045-9.435-2.837.483.059.972.089 1.467.089 2.886 0 5.539-1.01 7.643-2.7-2.692-.052-4.966-1.874-5.749-4.382.375.072.761.11 1.158.11.563 0 1.107-.075 1.622-.219-2.816-.582-4.937-3.132-4.937-6.191v-.079c.83.473 1.78.757 2.788.791-1.652-1.134-2.739-3.063-2.739-5.255 0-1.155.303-2.241.835-3.173 3.034 3.821 7.572 6.332 12.686 6.596-.104-.463-.158-.943-.158-1.44 0-3.484 2.754-6.309 6.153-6.309 1.771 0 3.37.764 4.493 1.991 1.401-.284 2.718-.809 3.908-1.532-.46 1.473-1.436 2.71-2.707 3.491 1.246-.154 2.429-.49 3.535-.993-.825 1.267-1.868 2.378-3.072 3.265z" fill="#1DA1F2"/></g></svg>
