<?xml version="1.0" encoding="iso-8859-1"?>
<!-- Generator: Adobe Illustrator 18.1.1, SVG Export Plug-In . SVG Version: 6.00 Build 0)  -->
<svg xmlns="http://www.w3.org/2000/svg" xmlns:xlink="http://www.w3.org/1999/xlink" version="1.1" id="Capa_1" x="0px" y="0px" viewBox="0 0 174.239 174.239" style="enable-background:new 0 0 174.239 174.239;" xml:space="preserve" width="512px" height="512px">
<g>
	<path d="M49.406,159.305H34.546V14.935H147.16c4.125,0,7.467-3.345,7.467-7.467S151.285,0,147.16,0H27.079   c-4.125,0-7.467,3.345-7.467,7.467v159.305c0,4.123,3.342,7.467,7.467,7.467h22.327c4.125,0,7.467-3.345,7.467-7.467   C56.873,162.649,53.531,159.305,49.406,159.305z" fill="#0070d3"/>
	<path d="M147.148,102.054c-4.123,0-7.465,3.345-7.465,7.467l0.007,49.783h-27.83c-4.125,0-7.467,3.345-7.467,7.467   c0,4.123,3.342,7.467,7.467,7.467h35.3c1.981,0,3.88-0.788,5.28-2.188c1.403-1.4,2.188-3.301,2.188-5.28l-0.01-57.25   C154.618,105.394,151.273,102.054,147.148,102.054z" fill="#0070d3"/>
	<path d="M141.081,38.645c-2.676-1.546-5.72-2.363-8.799-2.363c-6.281,0-12.132,3.379-15.273,8.814l-48.334,83.717   c-0.7,1.211-1.045,2.591-0.997,3.986l0.651,19.184c0.088,2.577,1.497,4.925,3.729,6.213c1.155,0.666,2.443,1.001,3.734,1.001   c1.206,0,2.414-0.292,3.512-0.88l16.938-9.028c1.232-0.656,2.256-1.643,2.953-2.854l48.334-83.717   C152.391,54.304,149.499,43.506,141.081,38.645z M134.598,55.252l-47.267,81.864l-4.482,2.392l-0.173-5.08l47.264-81.864   c0.722-1.245,2.389-1.726,3.673-0.987C134.897,52.32,135.339,53.968,134.598,55.252z" fill="#0070d3"/>
	<path d="M97.076,57.094c0-4.123-3.342-7.467-7.467-7.467H51.895c-4.125,0-7.467,3.345-7.467,7.467s3.342,7.467,7.467,7.467h37.714   C93.734,64.562,97.076,61.217,97.076,57.094z" fill="#0070d3"/>
	<path d="M51.895,78.879c-4.125,0-7.467,3.345-7.467,7.467s3.342,7.467,7.467,7.467h18.856c4.125,0,7.467-3.345,7.467-7.467   s-3.342-7.467-7.467-7.467H51.895z" fill="#0070d3"/>
</g>
<g>
</g>
<g>
</g>
<g>
</g>
<g>
</g>
<g>
</g>
<g>
</g>
<g>
</g>
<g>
</g>
<g>
</g>
<g>
</g>
<g>
</g>
<g>
</g>
<g>
</g>
<g>
</g>
<g>
</g>
</svg>
