<svg width="57" height="60" viewBox="0 0 57 60" fill="none" xmlns="http://www.w3.org/2000/svg">
<path fill-rule="evenodd" clip-rule="evenodd" d="M0 54.0324V12.558C0 10.1475 1.97279 8.19043 4.40516 8.19043H46.2358L0 54.0324Z" fill="#0EAC69"/>
<path fill-rule="evenodd" clip-rule="evenodd" d="M0 54.9027V54.0324L46.2358 8.19043H47.1136C49.546 8.19043 51.5199 10.1475 51.5199 12.558V13.4294L5.28298 59.2702H4.40516C1.97279 59.2702 0 57.3132 0 54.9027Z" fill="#FFE23F"/>
<path fill-rule="evenodd" clip-rule="evenodd" d="M5.2832 59.2702L25.7602 38.9692L46.236 59.2702H5.2832Z" fill="#5C85C4"/>
<path fill-rule="evenodd" clip-rule="evenodd" d="M46.2358 59.2699L25.4463 38.658L30.7304 33.4202L51.5199 54.0321V54.9024C51.5199 57.3128 49.546 59.2699 47.1136 59.2699H46.2358Z" fill="white"/>
<path fill-rule="evenodd" clip-rule="evenodd" d="M51.52 54.0322L31.043 33.7301L51.52 13.4292V54.0322Z" fill="#D3D3D3"/>
<path d="M19.759 19.222H17.0497H12.8571V21.5938H16.9405C16.3637 23.282 14.754 24.4963 12.8571 24.4963C10.4753 24.4963 8.54498 22.5826 8.54498 20.2211C8.54498 17.8596 10.4753 15.9458 12.8571 15.9458C13.9348 15.9458 14.9206 16.3388 15.6767 16.9882L17.5851 15.1382C16.3419 14.0013 14.6816 13.3064 12.8582 13.3064C9.00572 13.3064 5.88281 16.4026 5.88281 20.2222C5.88281 24.0418 9.00572 27.1381 12.8582 27.1381C16.2362 27.1381 19.0535 24.7572 19.6958 21.5949C19.7854 21.1518 19.8336 20.6927 19.8336 20.2222C19.8325 19.8828 19.8061 19.549 19.759 19.222Z" fill="#F0F0F0"/>
<path fill-rule="evenodd" clip-rule="evenodd" d="M42.2869 44.599H42.265C41.8054 44.599 41.5653 44.2539 41.5125 43.8814C40.3922 35.8264 38.2609 32.7996 36.4374 29.8014C33.4076 24.8255 28.4199 19.3166 28.4199 13.8475C28.4188 6.959 34.1039 0.891846 42.2547 0.891846H42.2972C50.448 0.891846 56.1331 6.959 56.1331 13.8475C56.1331 19.3166 51.1431 24.8255 48.1145 29.8014C46.291 32.7996 44.1597 35.8264 43.0394 43.8814C42.9866 44.2539 42.7465 44.599 42.2869 44.599Z" fill="#E24E3C"/>
<path d="M42.2754 18.7423C44.9101 18.7423 47.0459 16.6247 47.0459 14.0125C47.0459 11.4003 44.9101 9.28271 42.2754 9.28271C39.6407 9.28271 37.5049 11.4003 37.5049 14.0125C37.5049 16.6247 39.6407 18.7423 42.2754 18.7423Z" fill="#893129"/>
</svg>
