<svg width="52" height="59" viewBox="0 0 52 59" fill="none" xmlns="http://www.w3.org/2000/svg">
<path d="M49.791 53.0209C49.6059 53.206 49.3744 53.2986 49.0967 53.2986C48.819 53.2986 48.5878 53.206 48.4025 53.0209C48.2174 52.8359 48.1248 52.6044 48.1248 52.3266C48.1248 52.0489 48.2174 51.7945 48.4257 51.6094C48.6107 51.4243 48.8422 51.3549 49.0967 51.3549C49.3744 51.3549 49.6057 51.4476 49.791 51.6326C49.9761 51.8177 50.0687 52.0492 50.0687 52.3269C50.0919 52.6044 49.9993 52.8356 49.791 53.0209ZM48.5416 51.748C48.3795 51.9101 48.3101 52.0951 48.3101 52.3034C48.3101 52.5349 48.3795 52.72 48.5416 52.8818C48.7036 53.0439 48.8887 53.1133 49.12 53.1133C49.3515 53.1133 49.5365 53.0439 49.6984 52.8818C49.8602 52.7198 49.9299 52.5347 49.9299 52.3034C49.9299 52.0951 49.8604 51.8869 49.6984 51.748C49.5363 51.5859 49.3512 51.4935 49.12 51.4935C48.8887 51.5167 48.7034 51.5862 48.5416 51.748ZM49.4209 52.8126C49.3282 52.8821 49.2358 52.9053 49.1432 52.9053C49.0043 52.9053 48.8655 52.8591 48.7498 52.7432C48.6342 52.6276 48.5878 52.4887 48.5878 52.3266C48.5878 52.1646 48.634 52.0257 48.7266 51.9101C48.8193 51.7945 48.9581 51.748 49.12 51.748C49.2126 51.748 49.305 51.7712 49.3977 51.8174C49.5133 51.8869 49.6059 52.0025 49.6292 52.1878H49.3747C49.3515 52.1184 49.3285 52.0489 49.282 52.0257C49.2358 52.0025 49.1894 51.9795 49.1432 51.9795C49.0737 51.9795 49.0043 52.0027 48.9581 52.0722C48.9119 52.1416 48.8887 52.2342 48.8887 52.3499C48.8887 52.4655 48.9119 52.5582 48.9581 52.6044C49.0043 52.6506 49.0737 52.697 49.1432 52.697C49.2126 52.697 49.2588 52.6738 49.3053 52.6508L49.3747 52.5119H49.6062C49.5827 52.6506 49.5133 52.7432 49.4209 52.8126ZM51.8736 42.5382C51.8736 42.4455 51.8503 42.3531 51.8503 42.2605C51.8503 42.191 51.8271 42.1448 51.8271 42.0984C51.8039 41.9595 51.7809 41.8439 51.7345 41.7051C51.6418 41.4506 51.503 41.1961 51.3179 40.9878C51.1329 40.7795 50.9246 40.6174 50.7163 40.5018C50.4848 40.3862 50.2535 40.3168 50.0685 40.2703C49.999 40.2703 49.9528 40.2471 49.9064 40.2471C50.1609 39.1363 49.837 38.2802 49.6287 37.8868L49.6749 37.8406C49.9526 37.5629 50.1839 37.3084 50.3922 37.0539L50.4384 37.0077C50.6004 36.7762 50.6928 36.545 50.7623 36.3367C50.8085 36.1516 50.8549 35.9895 50.8549 35.8277V35.6889V35.5962V35.3879C50.8317 35.0408 50.7855 34.6012 50.554 34.1153C50.4384 33.8838 50.2763 33.6293 50.068 33.398C49.8597 33.1665 49.6052 32.9585 49.3043 32.7964C49.2811 32.7732 49.2581 32.7732 49.2349 32.7502C48.61 31.8476 47.9158 31.1304 47.2912 30.5982C46.9673 30.3205 46.6663 30.0892 46.4118 29.9039C46.1574 29.7188 45.9491 29.58 45.8334 29.4873C45.5557 29.2791 45.3475 29.1634 45.255 29.117C45.0235 28.9781 44.8617 28.8625 44.769 28.7931C44.6996 28.7237 44.6534 28.7004 44.6302 28.6775C44.6302 28.6775 44.6302 28.6542 44.607 28.608C44.5838 28.5386 44.5838 28.4459 44.5838 28.2841C44.5838 28.0526 44.5838 27.7057 44.607 27.2427C44.6532 26.5022 44.7226 25.5073 44.8153 24.142C44.8385 23.7022 44.8385 23.2859 44.8385 22.9155C44.8153 22.2907 44.7228 21.7352 44.607 21.2263C44.5838 21.1106 44.5375 20.9948 44.5143 20.8791C44.4911 20.7865 44.4681 20.7403 44.4449 20.6941C44.4217 20.6246 44.3987 20.5552 44.3523 20.4626C44.329 20.4164 44.329 20.3699 44.2828 20.3237C44.2366 20.2081 44.1902 20.0922 44.1208 19.9766L44.0975 19.9534L44.0743 19.8839L44.0511 19.8377C43.9355 19.6294 43.7966 19.4444 43.6577 19.2823C43.5883 18.9584 43.4727 18.4956 43.2644 17.9632C43.0793 17.5004 42.8478 16.9912 42.5007 16.4823C42.3851 16.2972 42.2462 16.1351 42.1074 15.9733L42.1536 15.9271C42.223 15.8577 43.8428 14.1452 45.1387 11.9238C47.5222 7.78163 46.7353 5.25928 45.6477 3.87098L45.6245 3.82477L45.6012 3.77857C44.5598 2.62153 43.1253 1.92726 41.3896 1.696C37.7567 1.23323 33.6375 3.03809 32.5502 3.5473L30.56 1.37208C30.3749 1.18702 30.1896 1.00173 29.9816 0.86311C29.7733 0.724257 29.542 0.585403 29.3105 0.46977C28.8478 0.26149 28.3386 0.122636 27.7834 0.0532092C26.6958 -0.0856444 25.4463 0.0532092 24.104 0.400343C22.0909 0.909316 19.8462 1.9275 17.4859 3.33925C15.1257 4.75101 12.6739 6.57815 10.2906 8.75337C7.37494 11.3914 4.96822 14.1914 3.20956 16.8756C2.33024 18.1947 1.61298 19.4906 1.08079 20.74C0.548592 21.9665 0.201458 23.1465 0.0626038 24.2111C-0.0300436 24.9978 -0.0300436 25.7383 0.132031 26.4096C0.201458 26.7105 0.294105 26.988 0.432959 27.2657C0.595033 27.6128 0.803313 27.9367 1.0578 28.2144L3.11739 30.3664L3.34889 30.5979L3.32567 30.6212L3.25624 30.76C3.21003 30.8294 3.18681 30.8989 3.14061 30.9451L3.07118 31.0839C3.04796 31.1534 3.00175 31.2228 2.97853 31.2922L2.90911 31.4311C2.88588 31.5005 2.83968 31.5699 2.81646 31.6393C2.79324 31.6856 2.77025 31.732 2.77025 31.7782L2.70082 31.9865C2.6776 32.0327 2.6776 32.0791 2.65462 32.1253C2.6314 32.1948 2.60841 32.2642 2.58519 32.3568C2.58519 32.3801 2.56197 32.403 2.56197 32.4263C2.56197 32.4495 2.53875 32.4725 2.53875 32.4957C2.51553 32.5651 2.49254 32.6578 2.46932 32.7272C2.46932 32.7734 2.4461 32.8198 2.4461 32.866C2.4461 32.8893 2.42288 32.9355 2.42288 32.9587C2.42288 33.0049 2.39966 33.0513 2.39966 33.0975C2.39966 33.1437 2.37644 33.1902 2.37644 33.2364C2.35322 33.329 2.35322 33.4215 2.33024 33.5373C2.33024 33.5605 2.33024 33.5835 2.30701 33.63V33.6532C2.30701 33.7226 2.28379 33.792 2.28379 33.8382C2.28379 33.9309 2.26057 34.0465 2.26057 34.1392V35.2962C2.26057 35.3424 2.26057 35.3889 2.28379 35.4351C2.28379 35.4813 2.28379 35.5507 2.30701 35.6201V35.6896C2.30701 35.7358 2.33024 35.8052 2.33024 35.8516C2.33024 35.8978 2.35346 35.9443 2.35346 36.0137C2.35346 36.0369 2.35346 36.0599 2.37668 36.0831C2.37668 36.1063 2.3999 36.1526 2.3999 36.1758V36.222C2.3999 36.2682 2.42312 36.3146 2.4461 36.407C2.4461 36.4303 2.4461 36.4303 2.46932 36.4532C2.49254 36.4995 2.49254 36.5459 2.49254 36.5689L2.51576 36.6151C2.51576 36.6383 2.51576 36.6383 2.53899 36.6613L2.56221 36.7075V36.7769C2.56221 36.8001 2.56221 36.8001 2.58543 36.8231L2.60865 36.8693C2.60865 36.9155 2.63187 36.9388 2.63187 36.985C2.65509 37.0312 2.65509 37.0776 2.67807 37.17V37.1468V37.17C2.67807 37.1933 2.67807 37.1933 2.70129 37.2162C2.72451 37.2857 2.7475 37.3319 2.7475 37.3551C2.77072 37.4013 2.79371 37.4477 2.81693 37.5402L2.84015 37.5634C2.86337 37.6096 2.86337 37.656 2.88635 37.679L2.90957 37.7252C2.90957 37.7484 2.93279 37.7714 2.93279 37.7946C2.93279 37.8179 2.95602 37.8641 2.979 37.8873L3.00222 37.9335C3.02544 37.9567 3.02544 38.0029 3.04843 38.0261C3.07165 38.0494 3.07165 38.0723 3.07165 38.0956C3.09487 38.1418 3.11785 38.1882 3.14108 38.2576L3.1643 38.2809C3.18752 38.3041 3.18752 38.3271 3.2105 38.3503C3.23372 38.3735 3.23372 38.4197 3.25671 38.4429C3.27993 38.4662 3.30292 38.5124 3.32614 38.5818L3.34936 38.605C3.37258 38.6282 3.37258 38.6512 3.39556 38.6744C3.41878 38.7206 3.44177 38.7439 3.44177 38.7671C3.46499 38.7903 3.48798 38.8365 3.5112 38.8827V38.9059C3.53442 38.9292 3.53442 38.9521 3.5574 38.9754C3.58062 39.0216 3.60361 39.0448 3.62683 39.068C3.65005 39.0912 3.67304 39.1374 3.71948 39.2069C3.7427 39.2301 3.76568 39.2531 3.76568 39.2763C3.7889 39.3225 3.81189 39.3457 3.83511 39.3689C3.85833 39.3922 3.88132 39.4384 3.90454 39.4846C3.92776 39.5078 3.95074 39.554 3.97396 39.5772C3.99718 39.6234 4.02017 39.6466 4.06661 39.6699L4.13604 39.7393L4.15926 39.7625C4.20546 39.8087 4.22868 39.8552 4.27489 39.9014L4.3211 39.9476L4.39052 40.017L4.52938 40.1559L4.57558 40.2021L4.64501 40.2715L4.66823 40.2947C4.71444 40.3409 4.78386 40.3874 4.83031 40.4568L4.85353 40.48C4.87675 40.5032 4.89973 40.5032 4.92295 40.5494C4.99238 40.6189 5.06181 40.6651 5.13123 40.7345L5.17744 40.7577L5.20066 40.7809L5.24687 40.8041C5.31629 40.8504 5.3625 40.8968 5.43193 40.943L5.45515 40.9662C5.47837 40.9894 5.50135 40.9894 5.50135 40.9894L5.54756 41.0356C5.59377 41.0819 5.64021 41.1051 5.68641 41.1513L5.73262 41.1745L5.77883 41.2207L5.80205 41.2439C5.84825 41.2672 5.91768 41.3134 5.96412 41.3366C5.98734 41.3598 6.01033 41.3828 6.05677 41.3828L6.10298 41.406L6.1262 41.4292H6.14942C6.24206 41.4754 6.31149 41.5219 6.38092 41.5681L6.42712 41.5913L6.70483 41.7302H6.72805L6.77426 41.7534L6.91311 41.8228C6.93633 41.8228 6.95932 41.846 6.98254 41.846C7.00576 41.8692 7.02874 41.8692 7.07519 41.8922H7.09841C7.14461 41.9154 7.19105 41.9384 7.23726 41.9384H7.26048C7.30669 41.9617 7.35313 41.9846 7.42255 42.0079H7.44578L7.49198 42.0311C7.5152 42.0311 7.53819 42.0543 7.56141 42.0543H7.58463C7.65406 42.0775 7.72348 42.1005 7.81613 42.1237H7.83935C7.95498 42.1699 8.07085 42.1932 8.18648 42.2164H8.20971C8.30235 42.2396 8.41799 42.2626 8.51063 42.2858H8.60328C8.69593 42.309 8.78834 42.332 8.88099 42.332H8.97364C9.04306 42.332 9.08927 42.3552 9.1587 42.3552C9.1587 42.3784 9.18192 42.4014 9.18192 42.4247C9.34399 42.8642 9.50583 43.304 9.69089 43.7205C12.4215 51.2874 19.9883 57.1649 28.6196 58.2526C37.251 59.3169 46.4838 53.5782 50.2327 45.8263C50.3947 45.5254 50.5336 45.2479 50.6724 44.947C51.0428 44.5537 51.3435 44.1603 51.5285 43.7438C51.8274 43.4872 51.8968 42.978 51.8736 42.5382ZM3.95004 39.5301H3.97326H3.95004Z" fill="#664F44"/>
<path d="M44.492 4.68076C44.0754 4.21799 43.5894 3.87085 43.0572 3.61637C42.9646 3.57016 42.8722 3.54694 42.7563 3.52372C42.7101 3.5005 42.6637 3.45429 42.6174 3.43107C42.1547 3.24601 41.6687 3.13014 41.1597 3.06072C38.6606 2.7368 35.7911 3.66234 34.1713 4.3104C34.0786 4.35661 33.9862 4.37983 33.8936 4.42604C33.7547 4.49546 33.6159 4.54167 33.477 4.6111C33.2455 4.70374 33.0143 4.81938 32.7598 4.93501C32.7136 4.95823 32.6903 4.95823 32.6441 4.98122L32.2046 4.47224L31.9963 4.24074L31.8113 4.03246L31.7418 3.93981L30.0526 1.99609L29.9137 1.83401L29.7287 1.62573H29.7055L29.2195 1.74137L28.6641 1.857C28.3631 1.71815 27.993 1.6255 27.5764 1.55607C26.7433 1.44044 25.6789 1.55607 24.4757 1.857C23.2725 2.15793 21.9071 2.69013 20.4724 3.40738C17.5799 4.84213 14.3865 7.04034 11.2858 9.86363C10.1982 10.8356 9.20319 11.8538 8.27742 12.8488C7.37487 13.8207 6.56497 14.8157 5.8245 15.7645C4.32033 17.7314 3.18651 19.6289 2.44604 21.3414C1.96005 22.4752 1.65935 23.5166 1.54349 24.4191C1.45084 25.067 1.47406 25.6456 1.58969 26.1084C1.6359 26.2705 1.68234 26.3861 1.72855 26.5249C1.84418 26.8027 1.98303 27.0339 2.16833 27.2422L4.04262 29.2091L4.2509 29.4174L4.27412 29.3942C4.32033 29.3248 4.38975 29.2554 4.45918 29.2091L4.4824 29.1859L4.55183 29.1165C4.59803 29.0471 4.66746 29.0009 4.7139 28.9314C4.76011 28.8852 4.78333 28.862 4.82953 28.8388C4.87574 28.8156 4.89896 28.7694 4.94517 28.7461L4.99137 28.6999C5.03758 28.6767 5.0608 28.6305 5.10701 28.6073C5.15321 28.5611 5.22264 28.5146 5.26908 28.4684C5.2923 28.4452 5.33851 28.4222 5.36173 28.399H5.38495C5.45438 28.3528 5.50058 28.3064 5.57001 28.2602C5.61622 28.2369 5.63944 28.2139 5.68564 28.1675C5.75507 28.1213 5.80128 28.0749 5.8707 28.0287C5.91691 28.0054 5.94013 27.9824 5.98634 27.9592C6.05576 27.913 6.12519 27.8666 6.19462 27.8436C6.24082 27.8204 6.26404 27.7974 6.31025 27.7742C6.37968 27.728 6.4491 27.7047 6.51853 27.6585C6.56474 27.6353 6.58796 27.6123 6.63416 27.5891L6.68037 27.5659C6.7498 27.5427 6.796 27.4965 6.86543 27.4732C6.88865 27.45 6.93486 27.45 6.95808 27.427C7.00428 27.4038 7.05072 27.3808 7.12015 27.3576L7.25901 27.2882L7.30521 27.265L7.65235 27.1261C7.69855 27.1029 7.72177 27.1029 7.76798 27.0799C7.81419 27.0569 7.83741 27.0567 7.88361 27.0337L7.92982 27.0105C7.95304 27.0105 7.97603 26.9872 7.99925 26.9872C8.04545 26.964 8.09189 26.964 8.16132 26.941H8.20753C8.27695 26.9178 8.32316 26.9178 8.39259 26.8948C8.43879 26.8716 8.50822 26.8716 8.55466 26.8486C8.62409 26.8254 8.69351 26.8254 8.76294 26.8024C8.78616 26.8024 8.80915 26.7792 8.85559 26.7792C8.87881 26.7792 8.92502 26.7792 8.94824 26.756C9.01766 26.7328 9.08709 26.7328 9.15652 26.7328C9.22594 26.7328 9.27215 26.7095 9.34158 26.7095C9.38778 26.7095 9.43422 26.6863 9.48043 26.6863H9.66549C9.89699 26.6863 10.1745 26.6863 10.4522 26.7095H10.4984C10.7761 26.7328 11.1 26.779 11.4239 26.8484C11.4933 26.8716 11.586 26.8716 11.6554 26.8946C11.6786 26.8714 11.6786 26.8252 11.7016 26.802C11.8867 26.501 12.0488 26.1771 12.2338 25.8764C13.2752 24.141 14.3858 22.6136 15.5196 21.2715C15.913 20.8087 16.3063 20.3921 16.6999 19.9756C18.3429 18.2631 19.9857 16.9442 21.4669 15.9261C21.7908 15.6946 22.1379 15.4863 22.4389 15.2782C22.8786 15.0005 23.295 14.7693 23.6885 14.5378C24.0125 14.3527 24.3134 14.1906 24.6141 14.0518C25.1001 13.7973 25.5396 13.589 25.9332 13.4269L26.2803 13.2881C26.4424 13.2186 26.6042 13.1492 26.7431 13.103C26.6275 13.0798 26.4886 13.0798 26.3727 13.0798H25.91C25.7943 13.0798 25.6555 13.0798 25.5396 13.103C25.3081 13.1262 25.0536 13.1492 24.7991 13.1724C24.7065 13.1957 24.6371 13.1957 24.5446 13.2186C25.1695 12.8947 25.7943 12.6632 26.3727 12.4782C26.7661 12.3625 27.1594 12.2699 27.5298 12.2005C28.0387 12.1078 28.5247 12.0384 28.9645 12.0154C29.2654 11.9922 29.5429 11.9922 29.7976 11.9922C30.0521 11.9922 30.3066 12.0154 30.5149 12.0154C31.2786 12.0616 31.7414 12.1775 31.7414 12.1775C31.6257 12.0154 31.4869 11.8998 31.348 11.7841C31.0703 11.5758 30.7696 11.437 30.4919 11.3214C30.3763 11.2752 30.2836 11.2519 30.191 11.2057C30.1216 11.1825 30.0521 11.1595 30.0059 11.1595C30.1448 11.1363 30.2604 11.1133 30.3763 11.1133C30.5151 11.0901 30.6308 11.0901 30.7696 11.0671C31.8572 10.9745 32.8292 11.0671 33.5465 11.1827C34.4026 11.3448 34.9348 11.5531 34.9348 11.5531C34.8191 11.3216 34.6338 11.1133 34.4258 10.9283C34.2869 10.8126 34.1249 10.6968 33.986 10.6043C34.2869 10.6738 34.5414 10.7432 34.8191 10.8358C35.5134 11.0441 36.0918 11.2986 36.5546 11.5069L36.9711 11.7152C37.0173 11.7384 37.0405 11.7614 37.0638 11.7614C37.4803 11.9929 37.7116 12.1547 37.7116 12.1547C37.6422 11.9002 37.5033 11.6687 37.3183 11.4605C37.2721 11.4142 37.2256 11.3448 37.1794 11.2984H37.2026C37.2258 11.2984 37.2488 11.3216 37.2953 11.3216C37.3185 11.3216 37.3647 11.3448 37.4109 11.3678C37.596 11.4372 37.8737 11.5529 38.1976 11.7149C38.2208 11.7149 38.2208 11.7382 38.2438 11.7382L38.3826 11.8076C38.4983 11.877 38.6141 11.9232 38.7298 12.0159L39.0769 12.2241C39.1463 12.2704 39.1925 12.2936 39.262 12.3398C39.3776 12.4324 39.5165 12.5248 39.6323 12.6407C39.7712 12.7563 39.8868 12.8722 40.0027 12.9878L40.0721 13.0573C40.1648 13.1499 40.2572 13.2423 40.3266 13.335C40.4887 13.52 40.6275 13.7283 40.7661 13.9366C40.9282 14.1911 41.0438 14.492 41.1595 14.7927C41.1595 14.8159 41.1595 14.8389 41.1827 14.8389C41.2521 14.7695 41.391 14.6306 41.5531 14.4456C42.8954 12.8727 46.9219 7.78175 44.492 4.68076Z" fill="#132134"/>
<path d="M50.4857 42.7005C50.4857 42.7005 50.5319 42.3534 50.3468 42.0294C50.3468 42.0062 50.3236 41.9832 50.3236 41.9832L50.3004 41.96L50.2309 41.8906C50.1847 41.8444 50.1383 41.7979 50.0689 41.7517C50.0457 41.7285 49.9994 41.7055 49.9532 41.6823C49.8376 41.6361 49.7217 41.5897 49.5599 41.5667C49.4443 41.5435 49.3284 41.5435 49.1895 41.5435H49.0045V41.5897C49.0045 41.6129 49.0277 41.6359 49.0277 41.6823C49.0277 41.7055 49.0277 41.7285 49.0509 41.7285C49.0741 41.7979 49.0971 41.9136 49.1203 42.0062C49.1203 42.0062 49.1203 42.0294 49.0971 42.0757V42.0989C49.0277 42.2609 48.8426 42.6311 48.4261 43.0938C48.3567 43.1865 48.2872 43.2559 48.1946 43.3483C47.0375 44.5516 44.5384 46.2408 39.2624 47.1896C37.4806 47.4441 35.8146 47.4673 34.426 47.2822C32.3434 47.0277 30.7931 46.3567 30.0526 45.4541C29.9832 45.3847 29.937 45.292 29.8675 45.2226C29.8213 45.1532 29.7981 45.107 29.7519 45.0376C29.7287 45.0143 29.7287 44.9914 29.7057 44.9681C29.4048 44.4127 29.2659 43.8111 29.2659 43.2327C29.2659 42.5154 29.4974 41.8444 29.8675 41.3352C30.1685 40.9186 30.5618 40.5947 31.0478 40.4558C31.2793 40.3864 31.5338 40.3402 31.7883 40.3632C31.8345 40.3632 31.9039 40.3632 31.9965 40.3864C32.1586 40.4096 32.4131 40.4326 32.7138 40.4791C32.737 40.4791 32.7832 40.4791 32.8064 40.5023C33.8014 40.6179 35.375 40.78 37.2725 40.6644C40.7436 40.4561 45.3021 39.3685 49.4443 35.6199V35.5966C49.4675 35.2727 49.421 34.7173 49.0277 34.2775C48.9583 34.2081 48.8888 34.1387 48.7962 34.0693C48.75 34.023 48.6806 33.9998 48.6341 33.9536C48.5647 33.9304 48.5185 33.8842 48.4721 33.861L48.2638 33.7221V33.6989C48.2406 33.6527 48.2176 33.6062 48.1711 33.56C47.1067 31.9402 45.6258 30.9915 45.0239 30.5517C44.7462 30.3434 44.5612 30.2508 44.5612 30.2508C43.2885 29.4641 43.1034 29.2094 43.2191 27.1036C43.2653 26.3399 43.3347 25.3449 43.4273 23.9796C43.4273 23.7945 43.4506 23.6324 43.4506 23.4706V23.355V22.7995C43.4506 22.6839 43.4273 22.568 43.4273 22.4756C43.4273 22.4294 43.4273 22.383 43.4041 22.3368C43.3809 22.2211 43.3809 22.1053 43.3579 21.9896C43.3579 21.9434 43.3347 21.874 43.3347 21.8276C43.3347 21.7581 43.3115 21.7119 43.2885 21.6425C43.2653 21.5963 43.2653 21.5269 43.2423 21.4804C43.2191 21.411 43.1961 21.3416 43.1961 21.2721C43.1961 21.2489 43.1729 21.2259 43.1729 21.2027C43.1729 21.1795 43.1496 21.1565 43.1496 21.1333V21.1101L43.1264 21.0406C43.1032 20.9944 43.0802 20.948 43.0802 20.9018V20.8786L43.057 20.8324L43.0338 20.7862C42.9876 20.6935 42.9643 20.6011 42.9181 20.5317L42.8949 20.4622C42.8487 20.3928 42.8023 20.3002 42.7561 20.2307L42.7328 20.2075L42.7096 20.1843C42.6634 20.1381 42.6402 20.0916 42.594 20.0454L42.5478 19.976C42.5016 19.9066 42.4551 19.8604 42.4089 19.8139V19.6289C42.3857 19.5362 42.3627 19.4206 42.3395 19.305C42.3395 19.2817 42.3163 19.2355 42.3163 19.2123V19.1891C42.3163 19.1429 42.2931 19.1197 42.2931 19.0735C42.2698 18.9808 42.2469 18.8884 42.2004 18.7958C42.2004 18.7725 42.1772 18.7263 42.1772 18.7031L42.1078 18.4948C42.0845 18.4486 42.0845 18.4022 42.0616 18.3792C42.0383 18.3098 42.0154 18.2403 41.9689 18.1709L41.8995 18.0321C41.8763 17.9626 41.8301 17.8932 41.8068 17.8238L41.7374 17.6849C41.6912 17.6155 41.668 17.5461 41.6218 17.4766L41.5524 17.3378C41.5061 17.2684 41.4597 17.1989 41.4135 17.1063C41.3903 17.0601 41.3673 17.0369 41.3441 16.9906C41.3209 16.9674 41.2979 16.9212 41.2746 16.898C41.2052 16.8286 41.159 16.7591 41.0896 16.6897L41.0434 16.6665C40.9507 16.5739 40.8813 16.4814 40.7889 16.412L40.7657 16.3888C40.7195 16.3656 40.673 16.3194 40.65 16.2961H40.6268C40.5806 16.2729 40.5574 16.2499 40.5112 16.2267L40.488 16.2035C40.4418 16.1803 40.3723 16.1341 40.2797 16.0879C40.2565 16.0646 40.2103 16.0646 40.1641 16.0417C39.9558 15.9722 39.7013 15.8796 39.3774 15.7872C39.3541 15.7872 39.3312 15.7872 39.3079 15.7639C39.0535 15.6945 38.7525 15.6251 38.4286 15.5789C38.313 15.5557 38.2203 15.5557 38.1047 15.5327C38.0585 15.5327 38.0121 15.5327 37.9426 15.5095H37.8732C37.6187 15.4862 37.3872 15.4633 37.1327 15.4633H37.1095C36.7856 15.4633 36.4617 15.4865 36.1607 15.5559C36.2302 15.4403 36.4385 15.3014 36.6235 15.1855C36.878 15.0467 37.1095 14.954 37.1095 14.954C36.9706 14.954 36.8318 14.9773 36.6929 15.0002C36.6467 15.0002 36.6003 15.0235 36.5541 15.0235C36.5309 15.0235 36.4847 15.0235 36.4614 15.0467H36.4382C36.415 15.0467 36.392 15.0467 36.3688 15.0699C35.6515 15.232 34.9573 15.4865 34.5639 15.6483L34.4251 15.7177H34.4019C34.3556 15.7177 34.3324 15.7177 34.2862 15.741C34.5639 15.2088 34.9805 14.9311 35.3044 14.7922C35.3506 14.769 35.42 14.746 35.4665 14.7228C35.4897 14.7228 35.4897 14.7228 35.5127 14.6996C35.5589 14.6763 35.6053 14.6763 35.6283 14.6533C35.6977 14.6301 35.744 14.6301 35.744 14.6301H35.3736C34.5869 14.7228 33.8694 14.9773 33.2678 15.3244C32.8512 15.5559 32.4811 15.8104 32.157 16.0649C32.0643 16.0881 31.9949 16.1111 31.9025 16.1111C31.0232 16.2961 30.0282 16.5276 28.9868 16.8516C28.5935 16.9672 28.2001 17.106 27.8065 17.2449C27.5056 17.3605 27.1817 17.4764 26.881 17.592C26.6495 17.6847 26.4415 17.7771 26.21 17.8697C24.6134 18.587 23.0166 19.5358 21.6977 20.8087L21.5588 20.9475L21.2117 21.2947L21.0728 21.4335C21.0266 21.5029 20.9572 21.5724 20.9108 21.6186C20.6563 21.8963 20.4248 22.197 20.1935 22.5211C20.0314 22.7526 19.8696 23.0071 19.7307 23.2616L19.7075 23.2848C19.4066 23.817 19.1291 24.3724 18.9208 24.9973C18.8052 25.2982 18.7126 25.6221 18.6199 25.946C18.5967 26.0387 18.5737 26.1081 18.5505 26.2005L18.5273 26.2467C18.4346 26.5939 18.3652 26.964 18.319 27.3344C18.319 27.4038 18.2958 27.4732 18.2958 27.5659C18.2725 27.7509 18.2496 27.9362 18.2496 28.1443C18.2263 28.3293 18.2263 28.4914 18.2263 28.6765V29.3937C18.2263 29.602 18.2263 29.8103 18.2496 30.0186V30.0418C18.2496 30.2501 18.2728 30.4583 18.2958 30.6896C18.2958 30.7823 18.319 30.8747 18.319 30.9673V31.0367C18.319 31.0829 18.319 31.1294 18.3422 31.1988C18.3654 31.4303 18.4116 31.6848 18.4349 31.9393C18.4349 32.0087 18.4581 32.0781 18.4581 32.1476C18.5043 32.3559 18.5275 32.5874 18.5737 32.7954C18.5737 32.7954 18.5275 32.5177 18.5505 32.1011C18.5505 32.0085 18.5737 31.8929 18.5737 31.8002C18.5969 31.5687 18.6431 31.2912 18.7358 31.0365L18.8052 30.8282C18.8052 30.805 18.8284 30.782 18.8514 30.7356C18.8976 30.6199 18.967 30.4811 19.0365 30.3652C19.0597 30.4579 19.0597 30.5503 19.0827 30.6197V31.8462C19.1059 32.6329 19.1753 33.5816 19.3372 34.3915C19.3372 34.3915 19.3604 32.9338 19.6149 32.7485C19.6149 32.7485 20.0547 35.4791 20.448 36.4973C20.4942 36.6362 20.5636 36.7288 20.6101 36.7983V36.5205L20.5639 35.0164V34.8543C20.8648 35.4791 21.2117 36.104 21.6053 36.775C21.7209 36.9601 21.8135 37.1454 21.9292 37.3304C21.1887 37.9783 20.4944 38.927 19.9855 40.0379C19.916 40.2229 19.8234 40.4082 19.754 40.5933C19.7078 40.7089 19.6845 40.8016 19.6383 40.9172C19.6383 40.9404 19.6151 40.9866 19.6151 41.0099C19.5919 41.0793 19.5689 41.1719 19.5457 41.2414C19.5457 41.2876 19.5225 41.3108 19.5225 41.357C19.4992 41.4264 19.4763 41.5191 19.453 41.5885C19.453 41.6347 19.4298 41.6579 19.4298 41.7041L19.3604 42.0513C19.3372 42.1669 19.3142 42.2828 19.3142 42.3984C19.3142 42.4446 19.3142 42.4678 19.291 42.514C19.291 42.6067 19.2677 42.6761 19.2677 42.7685C19.2677 42.8147 19.2677 42.8612 19.2445 42.9074C19.2445 43 19.2213 43.0694 19.2213 43.1619V43.9718C19.2213 44.0644 19.2213 44.1568 19.2445 44.2727V44.3421C19.2445 44.4578 19.2677 44.5736 19.2907 44.7125C19.2907 44.7587 19.2907 44.7819 19.3139 44.8281C19.3139 44.9208 19.3372 44.9902 19.3602 45.0826C19.3602 45.1288 19.3834 45.1752 19.3834 45.2215C19.4066 45.2909 19.4066 45.3835 19.4296 45.453C19.4296 45.4992 19.4528 45.5456 19.4528 45.5918C19.476 45.6612 19.499 45.7307 19.499 45.8233C19.5222 45.8695 19.5222 45.916 19.5452 45.9854C19.5684 46.0548 19.5914 46.1475 19.6146 46.2169C19.6379 46.2631 19.6379 46.3095 19.6608 46.3557C19.6841 46.4252 19.7071 46.5178 19.7303 46.5872C19.7535 46.6334 19.7535 46.6799 19.7765 46.7261C19.7997 46.8187 19.8459 46.9112 19.8691 46.9806C19.8923 47.0268 19.8923 47.05 19.9153 47.0962L20.2625 47.8599C20.2857 47.9061 20.3087 47.9293 20.3319 47.9755L20.4707 48.2533C20.494 48.2995 20.517 48.3459 20.5634 48.3921C20.6096 48.4615 20.656 48.5542 20.7022 48.6236C20.7255 48.6698 20.7717 48.7163 20.7949 48.7625C20.8411 48.8319 20.8875 48.9245 20.957 48.994C21.0032 49.0402 21.0264 49.0866 21.0726 49.156C21.1188 49.2255 21.1882 49.3181 21.2347 49.3875C21.2809 49.4338 21.3041 49.4802 21.3503 49.5496C21.4197 49.619 21.4659 49.7117 21.5354 49.7811C21.5816 49.8273 21.6048 49.8738 21.651 49.92C21.7204 50.0126 21.7899 50.0821 21.8825 50.1745L21.9981 50.2901C22.1138 50.4057 22.2296 50.5446 22.3453 50.6605C22.3453 50.6605 22.2758 50.5678 22.1832 50.3827C22.16 50.3595 22.137 50.3133 22.137 50.2671L22.0676 50.1283C22.0443 50.0821 22.0214 50.0356 21.9981 49.9662C21.8131 49.5496 21.651 48.948 21.6742 48.3002L21.8825 48.5779C21.9519 48.74 22.0676 48.9482 22.1834 49.1795C22.2296 49.2489 22.2761 49.3416 22.2991 49.411C22.4841 49.7349 22.6694 50.1053 22.9007 50.4524C23.1784 50.8922 23.4561 51.3085 23.7568 51.7021C23.7568 51.7021 23.4097 50.9616 23.294 50.4756C23.2708 50.3368 23.2478 50.2211 23.2708 50.1517C23.294 50.1749 23.317 50.2211 23.3635 50.2444C23.3867 50.2676 23.4097 50.3138 23.4561 50.337C23.5023 50.4064 23.5717 50.4991 23.6644 50.6147L23.7106 50.6609C23.7568 50.7071 23.78 50.7766 23.8262 50.823C23.8724 50.8924 23.9189 50.9619 23.9883 51.0313C24.4743 51.6561 25.1453 52.489 25.6081 52.9288C25.7702 53.0677 25.909 53.1833 26.0014 53.2297L25.3304 52.0265C26.8575 53.2762 33.1981 54.8728 39.4229 53.0909C40.1866 52.8826 40.927 52.6049 41.6675 52.281C42.1071 52.0959 42.5468 51.8644 42.9866 51.6331L43.0561 51.5869C43.357 51.4249 43.6577 51.2398 43.9586 51.0547C44.1901 50.9159 44.4214 50.7538 44.6297 50.6152C45 50.3607 45.3701 50.083 45.7405 49.7821C45.7637 49.7588 45.7867 49.7359 45.8099 49.7359C46.157 49.4349 46.5042 49.111 46.8049 48.7871C47.2214 48.3473 47.5916 47.9078 47.9157 47.468L47.9389 47.4448C48.0316 47.3291 48.101 47.2365 48.1704 47.1208L48.1936 47.0976C48.2169 47.0514 48.2398 47.0282 48.2631 46.982C48.3787 46.8199 48.4714 46.6811 48.587 46.5192C48.6102 46.473 48.6332 46.4498 48.6564 46.4036C48.7026 46.3109 48.7491 46.2415 48.8185 46.1491C48.8647 46.0797 48.8879 46.0335 48.9341 45.964C48.9803 45.8946 49.0268 45.8252 49.0498 45.7558C49.1192 45.6401 49.1886 45.5013 49.258 45.3854L49.3275 45.2465L49.4663 44.9688L49.5357 44.83L49.559 44.7838C49.6052 44.6681 49.6746 44.5523 49.721 44.4366V44.4134C49.9293 44.2284 50.0682 44.0431 50.207 43.8812C50.2302 43.858 50.2532 43.835 50.2532 43.8118C50.393 43.3715 50.4857 43.0244 50.4857 42.7005ZM13.2529 38.2112C13.2529 38.188 13.2529 38.165 13.2297 38.1185C13.1603 37.7252 13.0909 37.3086 13.0676 36.8921V36.7994C12.9982 36.8226 12.9288 36.9151 12.8361 37.0309C12.8129 37.0771 12.7667 37.1236 12.7435 37.193C12.5352 37.5863 12.3501 38.1418 12.3501 38.1418C12.3734 37.9567 12.3964 37.7714 12.3964 37.5863V37.5169C12.4196 37.3319 12.4426 37.1236 12.4658 36.9385V36.8691C12.489 36.6376 12.5352 36.4295 12.5814 36.2213C12.5814 36.198 12.5814 36.175 12.6046 36.1286V36.1054C12.6046 36.0822 12.6046 36.0592 12.6279 36.036C12.6279 35.9898 12.6511 35.9665 12.6511 35.9203C12.6743 35.7583 12.7205 35.5964 12.7437 35.4343C12.7669 35.2955 12.7899 35.1566 12.8132 35.041V34.9948C12.8132 34.9716 12.8132 34.9486 12.8364 34.9486V34.9024C12.8364 34.8792 12.8596 34.8329 12.8596 34.8097C12.8596 34.7865 12.8596 34.7635 12.8828 34.7403C12.8828 34.6941 12.906 34.6477 12.906 34.6247C12.906 34.6014 12.9293 34.5552 12.9293 34.532C12.9293 34.4858 12.9525 34.4394 12.9525 34.4164C12.9525 34.3932 12.9525 34.3702 12.9757 34.347C12.9757 34.3237 12.9757 34.3008 12.9989 34.3008C12.9989 34.2545 13.0221 34.2313 13.0221 34.2081V34.1387L12.9759 34.1849C12.9297 34.2081 12.9065 34.2543 12.8603 34.2775L12.8141 34.3237C12.7679 34.3699 12.7214 34.4164 12.6985 34.4626L12.6752 34.4858L12.5364 34.6941L12.5132 34.7173C12.5132 34.7405 12.4899 34.7405 12.4899 34.7635L12.4205 34.9024V34.9486C12.3973 35.018 12.3511 35.0874 12.3279 35.1569C12.2584 35.3419 12.189 35.5272 12.1428 35.6891C12.1196 35.7353 12.1196 35.8047 12.0966 35.8279C12.0734 35.9206 12.0504 36.013 12.0504 36.0362V36.0594V36.0362C12.0504 35.9668 12.0504 35.9206 12.0736 35.8511C12.0736 35.7355 12.0968 35.5966 12.0968 35.4808C12.0968 35.3881 12.1201 35.2725 12.143 35.1798C12.143 35.1566 12.143 35.1104 12.1663 35.0872C12.1663 35.041 12.1895 34.9946 12.1895 34.9483C12.1895 34.9021 12.2127 34.8557 12.2127 34.8095V34.7401C12.2127 34.6939 12.2359 34.6244 12.2359 34.578V34.4624V34.4162C12.2359 34.3929 12.2359 34.3699 12.2591 34.3467C12.2824 34.2773 12.3053 34.1847 12.3053 34.1152V34.092C12.3286 34.0458 12.3286 33.9764 12.3516 33.9299V33.9067C12.3748 33.7911 12.421 33.6752 12.4442 33.5596V33.5134C12.4442 33.4901 12.4442 33.4672 12.4674 33.4439C12.5136 33.2589 12.5831 33.0736 12.6295 32.9117V32.8885C12.6757 32.7497 12.7451 32.5876 12.7916 32.449V32.4258C12.8148 32.3563 12.8378 32.3101 12.861 32.2407C12.9072 32.148 12.9304 32.0556 12.9766 31.963C12.9766 31.9398 12.9999 31.8936 13.0461 31.8009C13.0693 31.7777 13.0693 31.7315 13.0923 31.7083C13.1155 31.6621 13.1385 31.6156 13.1617 31.5462L13.1849 31.5L13.5783 30.7827C13.6015 30.7595 13.6015 30.7133 13.6245 30.6901V30.6669L13.6477 30.6206C13.6939 30.5512 13.7403 30.4586 13.7865 30.3891C13.856 30.2735 13.9022 30.1576 13.9716 30.0652C14.0872 29.8569 14.1799 29.6719 14.2493 29.5792C14.2725 29.5098 14.2955 29.4866 14.3187 29.4636C14.2955 29.4636 14.1799 29.371 13.9948 29.2553C13.7633 29.1165 13.4394 28.9314 13.0461 28.7463C12.9072 28.6769 12.7916 28.6307 12.6527 28.5613C12.4906 28.4919 12.3056 28.4224 12.1205 28.353C12.0743 28.3298 12.0279 28.3298 11.9817 28.3068C11.8196 28.2606 11.6807 28.2142 11.5189 28.1679C11.4033 28.1447 11.2874 28.1217 11.195 28.0985C11.1026 28.0753 11.0099 28.0753 10.9173 28.0523C10.8711 28.0523 10.8246 28.0523 10.7784 28.0291C10.7322 28.0291 10.6858 28.0291 10.6396 28.0059C10.5239 28.0059 10.3851 27.9827 10.2692 27.9827H10.0842C9.80645 27.9827 9.55196 28.0059 9.29748 28.0521H9.25127C8.7885 28.1215 8.34872 28.2371 7.90917 28.3992C7.77032 28.4454 7.63147 28.5148 7.46939 28.5843C7.42319 28.6075 7.39997 28.6305 7.35376 28.6305L7.21491 28.6999C6.79834 28.9082 6.405 29.1859 6.03465 29.4866H6.01143C5.68752 29.7411 5.40981 30.042 5.15532 30.3427L4.94704 30.6204C4.85439 30.736 4.78497 30.8519 4.71554 30.9675C4.57669 31.1758 4.43783 31.4071 4.3222 31.6386C4.27599 31.7312 4.22955 31.8007 4.20657 31.8931C4.20657 31.9163 4.18334 31.9163 4.18334 31.9393C3.95184 32.4947 3.76678 33.0731 3.69736 33.698C3.67414 33.8136 3.67414 33.9295 3.65115 34.0683V34.1145C3.65115 34.2072 3.62793 34.2996 3.62793 34.4154V34.832C3.62793 34.9247 3.62793 35.0171 3.65115 35.1097V35.2254C3.65115 35.2948 3.67437 35.3642 3.67437 35.4336V35.4569C3.67437 35.5031 3.67437 35.5263 3.69759 35.5725C3.69759 35.6419 3.72081 35.7113 3.72081 35.7575C3.72081 35.8038 3.74403 35.8502 3.74403 35.8964C3.76725 35.9658 3.76725 36.012 3.79024 36.0815C3.79024 36.1277 3.81346 36.1741 3.83644 36.2203V36.2435L3.85967 36.2897V36.336L3.88289 36.3822C3.90611 36.4284 3.90611 36.4748 3.92909 36.521C3.95231 36.5672 3.95231 36.6366 3.9753 36.6831C3.99828 36.7295 4.0215 36.7757 4.0215 36.8452L4.04473 36.8914C4.06795 36.9376 4.06795 36.9608 4.09093 37.007C4.11415 37.0532 4.13714 37.0996 4.16036 37.1691L4.22979 37.3079C4.25301 37.3312 4.25301 37.3541 4.27599 37.3774C4.29921 37.4006 4.29921 37.4236 4.3222 37.4468L4.39163 37.5856C4.41485 37.6318 4.43783 37.7013 4.48427 37.7477C4.50749 37.7939 4.53048 37.8404 4.5537 37.8633C4.57692 37.9096 4.62313 37.979 4.64635 38.0254C4.66957 38.0719 4.69255 38.0949 4.71577 38.1411C4.73899 38.1873 4.7852 38.2567 4.83141 38.3031C4.85463 38.3493 4.87761 38.3726 4.90083 38.3958C4.94704 38.442 4.97026 38.5114 5.01647 38.5579C5.03969 38.5811 5.06267 38.6273 5.08589 38.6505C5.1321 38.6967 5.17854 38.7661 5.22475 38.8126C5.24797 38.8358 5.27095 38.8588 5.29417 38.9052C5.34038 38.9514 5.38682 39.0209 5.43303 39.0673L5.50245 39.1367C5.54866 39.1829 5.5951 39.2524 5.66453 39.2988L5.73396 39.3682L5.89603 39.5303C5.91925 39.5535 5.94224 39.5765 5.96546 39.5765C6.01166 39.6227 6.08109 39.6692 6.15052 39.7386C6.17374 39.7618 6.19672 39.7618 6.21994 39.7848C6.28937 39.831 6.33558 39.8774 6.405 39.9236C6.42822 39.9469 6.45121 39.9469 6.45121 39.9699L6.65949 40.1087L6.7057 40.1319L6.91398 40.2708L6.96018 40.294C7.02961 40.3402 7.12226 40.3866 7.19169 40.4329L7.23789 40.4561C7.30732 40.5023 7.39997 40.5487 7.46939 40.5717L7.5156 40.5949C7.60825 40.6411 7.67767 40.6644 7.77009 40.7106L7.79331 40.7338C7.88595 40.78 7.97837 40.8032 8.04779 40.8494H8.07101C8.16366 40.8726 8.25607 40.9188 8.34872 40.9421H8.37194C8.41815 40.9653 8.46459 40.9653 8.5108 40.9883C8.557 41.0115 8.60344 41.0115 8.67287 41.0345H8.69609C8.78874 41.0577 8.90437 41.0807 8.99702 41.1039C9.08967 41.1271 9.2053 41.1501 9.29795 41.1501C9.62186 41.1963 9.94577 41.2195 10.2699 41.2428H10.5014C10.6171 41.2428 10.7097 41.2428 10.8253 41.2195C10.9642 41.1963 11.1263 41.1963 11.2881 41.1733C11.427 41.1501 11.5658 41.1271 11.6814 41.1039C11.8897 41.0577 12.098 41.0113 12.2831 40.9418C12.8847 40.7798 13.3939 40.5485 13.7178 40.294C13.7178 40.294 13.5095 39.3685 13.3475 38.4427C13.2991 38.3965 13.2759 38.3038 13.2529 38.2112Z" fill="#90694C"/>
<path d="M28.1089 3.82471L28.0394 2.89917L28.5022 1.88099L28.6873 1.83478C28.3863 1.69593 28.0162 1.60328 27.5997 1.53386C26.7665 1.41822 25.7021 1.53385 24.4989 1.83478C23.2957 2.13571 21.9303 2.66791 20.4956 3.38516C17.6034 4.81967 14.41 7.01811 11.3092 9.84116C10.2216 10.8131 9.22663 11.8313 8.30086 12.8263C7.39831 13.7983 6.58841 14.7932 5.84794 15.742C4.34376 17.7089 3.20995 19.6064 2.46947 21.3189C1.98349 22.4527 1.68279 23.4941 1.56692 24.3966C1.47428 25.0445 1.4975 25.6231 1.61313 26.0859C1.65934 26.2479 1.70578 26.3636 1.75198 26.5024C1.86762 26.7801 2.00647 27.0114 2.19177 27.2197L4.06606 29.1866L4.27434 29.3949L4.29756 29.3717C4.34376 29.3023 4.41319 29.2328 4.48262 29.1866L4.50584 29.1634L4.57527 29.094C4.62147 29.0246 4.6909 28.9783 4.73734 28.9089C4.78355 28.8627 4.80677 28.8395 4.85297 28.8163C4.89918 28.793 4.9224 28.7468 4.96861 28.7236L5.01481 28.6774C5.06102 28.6542 5.08424 28.608 5.13045 28.5848C5.17665 28.5386 5.24608 28.4921 5.29252 28.4459C5.31574 28.4227 5.36195 28.3997 5.38517 28.3765H5.40839C5.47781 28.3303 5.52402 28.2838 5.59345 28.2376C5.63965 28.2144 5.66287 28.1914 5.70908 28.145C5.77851 28.0988 5.82471 28.0523 5.89414 28.0061C5.94035 27.9829 5.96357 27.9599 6.00977 27.9367C6.0792 27.8905 6.14863 27.8441 6.21806 27.8211C6.26426 27.7979 6.28748 27.7749 6.33369 27.7516C6.40312 27.7054 6.47254 27.6822 6.54197 27.636C6.58818 27.6128 6.6114 27.5898 6.6576 27.5666L6.70381 27.5434C7.14359 26.3169 7.81464 24.9516 8.69397 23.5633C9.75836 21.8508 11.1237 20.046 12.7435 18.2411C13.7617 17.1073 14.8725 15.9732 16.0757 14.8859C17.6261 13.4743 19.2229 12.2017 20.7963 11.0908C21.8607 10.3504 22.9021 9.67932 23.9203 9.10068C24.0129 9.05447 24.1053 8.98505 24.2212 8.93861C24.4989 8.77653 24.7534 8.63768 25.0311 8.49882C25.6095 8.1979 26.1881 7.92042 26.7435 7.68892L26.4658 7.36501L26.4196 7.3188L26.0725 6.92546L24.1518 4.61139L24.175 2.94538L24.1518 2.92216L25.5171 2.5056L28.1089 3.82471Z" fill="#2F83C1"/>
<path d="M50.4855 42.7003C50.4855 42.7003 50.5317 42.3532 50.3466 42.0293C50.3466 42.0061 50.3234 41.9831 50.3234 41.9831L50.3002 41.9598L50.2308 41.8904C50.1846 41.8442 50.1381 41.7978 50.0687 41.7516C50.0455 41.7283 49.9993 41.7054 49.953 41.6821C49.8374 41.6359 49.7215 41.5895 49.5597 41.5665C49.4441 41.5433 49.3282 41.5433 49.1893 41.5433H49.0043V41.5895C49.0043 41.6127 49.0275 41.6357 49.0275 41.6821C49.0275 41.7054 49.0275 41.7283 49.0507 41.7283C49.074 41.7978 49.0969 41.9134 49.1202 42.0061C49.1202 42.0061 49.1202 42.0293 49.0969 42.0755V42.0987C49.0275 42.2608 48.8424 42.6309 48.4259 43.0937C48.3565 43.1863 48.287 43.2557 48.1944 43.3482C47.0373 44.5514 44.5382 46.2406 39.2622 47.1894C37.4803 47.4439 35.8143 47.4671 34.4258 47.282C32.3432 47.0275 30.7928 46.3565 30.0523 45.4539C29.9829 45.3845 29.9367 45.2919 29.8673 45.2224C29.8211 45.153 29.7978 45.1068 29.7516 45.0374C29.7284 45.0142 29.7284 44.9912 29.7054 44.9679C29.4045 44.4125 29.2656 43.8109 29.2656 43.2325C29.2656 42.5153 29.4971 41.8442 29.8673 41.335C30.1682 40.9184 30.5615 40.5945 31.0475 40.4557C31.279 40.3863 31.5335 40.34 31.788 40.363C31.8342 40.363 31.9036 40.363 31.9963 40.3863C32.1584 40.4095 32.4128 40.4325 32.7135 40.4789C32.7368 40.4789 32.783 40.4789 32.8062 40.5021C33.8012 40.6178 35.3748 40.7798 37.2723 40.6642C40.7434 40.4559 45.3019 39.3683 49.4441 35.6197V35.5965C49.4673 35.2726 49.4209 34.7172 49.0275 34.2774C48.9581 34.208 48.8887 34.1386 48.796 34.0691C48.7498 34.0229 48.6804 33.9997 48.6339 33.9535C48.5645 33.9303 48.5183 33.8841 48.4719 33.8608L48.2636 33.722V33.6988C48.2404 33.6526 48.2174 33.6061 48.1709 33.5599C47.1065 31.9401 45.6256 30.9914 45.0237 30.5516C44.746 30.3433 44.561 30.2507 44.561 30.2507C43.2883 29.464 43.1032 29.2093 43.2189 27.1035C43.2651 26.3398 43.3345 25.3448 43.4271 23.9795C43.4271 23.7944 43.4504 23.6324 43.4504 23.4705V23.3549V22.7995C43.4504 22.6838 43.4271 22.568 43.4271 22.4756C43.4271 22.4294 43.4271 22.3829 43.4039 22.3367C43.3807 22.2211 43.3807 22.1052 43.3577 21.9896C43.3577 21.9434 43.3345 21.8739 43.3345 21.8275C43.3345 21.7581 43.3113 21.7119 43.2883 21.6424C43.2651 21.5962 43.2651 21.5268 43.2421 21.4804C43.2189 21.4109 43.1959 21.3415 43.1959 21.2721C43.1959 21.2489 43.1726 21.2259 43.1726 21.2027C43.1726 21.1794 43.1494 21.1565 43.1494 21.1332V21.11L43.1262 21.0406C43.103 20.9944 43.08 20.9479 43.08 20.9017V20.8785L43.0568 20.8323L43.0336 20.7861C42.9874 20.6935 42.9641 20.601 42.9179 20.5316L42.8947 20.4622C42.8485 20.3928 42.8021 20.3001 42.7558 20.2307L42.7326 20.2075L42.7094 20.1842C42.6632 20.138 42.64 20.0916 42.5938 20.0454L42.5476 19.976C42.5014 19.9065 42.4549 19.8603 42.4087 19.8139L42.2237 19.6288C42.1542 19.5826 42.0848 19.5362 42.0154 19.5132C41.9921 19.49 41.9692 19.49 41.9459 19.49L41.8071 19.4206C41.7839 19.4206 41.7609 19.3973 41.7377 19.3973C41.6915 19.3741 41.645 19.3741 41.622 19.3511C41.5988 19.3511 41.5758 19.3279 41.5294 19.3279C41.4829 19.3279 41.46 19.3047 41.4137 19.3047H40.9048C40.8815 19.3047 40.8586 19.3047 40.8353 19.3279C40.8121 19.3279 40.7891 19.3279 40.7659 19.3511C40.7197 19.3511 40.6733 19.3743 40.6038 19.3973H40.5576C40.4188 19.4435 40.3031 19.49 40.1643 19.5362L40.1181 19.5594C40.0719 19.5826 40.0254 19.6056 39.956 19.6288L39.8866 19.6521L39.7477 19.7215L39.6783 19.7677L39.5394 19.8371L39.47 19.8833C39.4238 19.9065 39.3774 19.9527 39.3312 19.976L39.285 19.9992C39.2388 20.0454 39.1693 20.0686 39.1229 20.1148L39.0997 20.138C39.0302 20.1842 38.984 20.2307 38.9146 20.2537C38.799 20.3231 38.6831 20.4158 38.5675 20.4852C38.4748 20.5546 38.3824 20.624 38.2665 20.6935L38.2203 20.7167C38.1277 20.7861 38.0121 20.8555 37.9194 20.9017L37.8732 20.925C37.7806 20.9944 37.6649 21.0406 37.5723 21.11L37.5261 21.1332C37.4334 21.2027 37.3178 21.2489 37.2021 21.2953L37.1559 21.3185C37.0403 21.3647 36.9477 21.4112 36.832 21.4574L36.7858 21.4806C36.6702 21.5268 36.5543 21.55 36.4387 21.5962H36.4155C36.2998 21.6195 36.161 21.6424 36.0451 21.6657C35.8368 21.6889 35.6056 21.7119 35.3973 21.7119C35.0501 21.7119 34.703 21.6887 34.3329 21.6424L33.9857 21.573C33.9395 21.573 33.8931 21.5498 33.8701 21.5498C33.5692 21.4804 33.2453 21.4109 32.9446 21.3415C32.8057 21.3183 32.6901 21.2721 32.5512 21.2489C32.343 21.2027 32.1347 21.1562 31.9034 21.11C31.8572 21.11 31.8108 21.0868 31.7878 21.0868C31.7646 21.0868 31.7183 21.0636 31.6951 21.0636C31.6489 21.0636 31.6025 21.0404 31.5563 21.0404C31.5101 21.0404 31.4636 21.0171 31.4174 21.0171H31.3712C31.325 21.0171 31.2786 20.9939 31.2556 20.9939C31.1629 20.9707 31.0705 20.9477 30.9546 20.9477C30.9314 20.9477 30.8852 20.9477 30.862 20.9245C30.7926 20.9245 30.7231 20.9013 30.6537 20.9013C30.6075 20.9013 30.5843 20.9013 30.5381 20.878C30.4687 20.878 30.4224 20.8548 30.353 20.8548H29.2886C29.173 20.8548 29.0803 20.878 28.9647 20.878H28.8721C28.8026 20.878 28.7332 20.9013 28.6638 20.9013H28.6406C28.5944 20.9013 28.5711 20.9245 28.5249 20.9245C28.4555 20.9477 28.3861 20.9477 28.3167 20.9707C28.2704 20.9707 28.224 20.9939 28.201 20.9939C28.1316 21.0171 28.0622 21.0401 27.9927 21.0401C27.9465 21.0401 27.9233 21.0633 27.8771 21.0863C27.8077 21.1095 27.715 21.1325 27.6456 21.1558C27.5994 21.179 27.5762 21.179 27.553 21.202C27.4373 21.2482 27.3215 21.2946 27.229 21.3408C26.3497 21.8498 25.586 22.5441 25.0076 23.331C24.7993 23.6087 24.6143 23.8864 24.4522 24.1641C24.2671 24.465 24.1283 24.7889 23.9894 25.1128C23.9432 25.2055 23.92 25.2979 23.8738 25.3906C23.8276 25.5526 23.7582 25.7145 23.7117 25.8765C23.7117 25.8998 23.7117 25.9227 23.6885 25.9227C23.6423 26.1078 23.5958 26.2931 23.5496 26.5011C23.5034 26.7094 23.4802 26.8945 23.457 27.1028C23.4338 27.2184 23.4338 27.311 23.4338 27.4267C23.4105 27.7276 23.4105 28.0051 23.4338 28.306V28.3754C23.4338 28.4449 23.4338 28.5143 23.457 28.6069C23.4802 28.8152 23.5032 29.0235 23.5496 29.2318C23.5729 29.3012 23.5958 29.3706 23.5958 29.4633C23.6191 29.5327 23.6191 29.6021 23.642 29.6716C23.7809 30.2037 23.9892 30.6897 24.2437 31.1063C25.1924 32.7493 26.766 33.7443 27.9231 34.2765C28.3626 34.4615 28.8256 34.6468 29.3114 34.8087L29.2652 34.8549C29.1725 34.8781 29.0801 34.9011 28.9642 34.9243C28.8022 34.9705 28.5939 35.0399 28.3858 35.1094C28.1543 35.1788 27.8769 35.2944 27.5992 35.4103C26.8587 35.7112 26.0256 36.1508 25.2851 36.7524C25.1924 36.8218 25.1 36.9144 25.0074 36.9839C24.8453 37.1227 24.7064 37.2616 24.5676 37.4234L24.5214 37.4696L24.452 37.5391C24.4057 37.6085 24.3363 37.6547 24.2899 37.7241L24.2205 37.7935C24.151 37.8862 24.0816 37.9786 24.0354 38.0712C23.966 38.1639 23.9198 38.2563 23.8503 38.349C23.4105 39.1126 23.1561 40.0382 23.2255 41.149V41.1028C23.2255 41.0796 23.2255 41.0566 23.2487 41.0334V41.0102C23.2487 40.9869 23.2719 40.964 23.2719 40.9175V40.8943C23.2719 40.8711 23.2951 40.8249 23.2951 40.7787C23.2951 40.7324 23.3184 40.7092 23.3414 40.663V40.6398C23.3646 40.5936 23.3646 40.5472 23.3876 40.5009V40.4777C23.4108 40.4315 23.4108 40.3851 23.4338 40.3389V40.3157C23.457 40.2694 23.48 40.223 23.5032 40.1536L23.5264 40.1304C23.5496 40.0842 23.5726 40.0147 23.6191 39.9683C23.6653 39.8756 23.7117 39.8062 23.7579 39.7138C23.7811 39.6906 23.8041 39.6444 23.8273 39.6212L23.8506 39.5979L23.9894 39.3897C24.0356 39.3434 24.0821 39.274 24.1283 39.2276L24.1745 39.1814C24.2207 39.1352 24.2439 39.0887 24.2901 39.0657L24.3363 39.0195C24.3825 38.9733 24.452 38.9269 24.4984 38.8575C24.4984 38.8575 23.5034 41.1253 23.943 42.907V42.8837V42.8375V42.7681V42.6755V42.5598C23.943 42.5136 23.943 42.4672 23.9662 42.421C23.9662 42.3748 23.9662 42.3283 23.9894 42.2821V42.2589C23.9894 42.2127 24.0126 42.1433 24.0126 42.0968V42.0506C24.0359 41.9812 24.0359 41.935 24.0588 41.8656V41.8423C24.0821 41.7729 24.1051 41.7035 24.1051 41.6573C24.1051 41.6341 24.1283 41.6111 24.1283 41.5879L24.1515 41.5416C24.1747 41.4954 24.1977 41.426 24.2209 41.3796C24.2441 41.3101 24.2903 41.2407 24.3366 41.1713C24.3366 41.1481 24.3598 41.1251 24.3598 41.1251L24.4986 40.9168C24.4986 40.9168 24.4524 41.4722 24.4524 42.1433C24.4524 42.2589 24.4524 42.3515 24.4756 42.4672C24.4756 42.5366 24.4756 42.606 24.4989 42.6755C24.5451 41.9582 24.6839 41.2872 24.8692 40.6623C24.6842 41.2872 24.5453 41.9582 24.4989 42.6755C24.4756 43.1382 24.4756 43.601 24.5221 44.087C24.5915 44.8969 24.7998 45.7762 25.1469 46.6788C25.1469 46.6788 24.823 45.6374 25.2858 44.5962L25.4246 44.8739C25.4708 45.1748 25.5173 45.6144 25.6097 46.1004C25.7023 46.9103 26.0725 49.34 27.7387 51.0292C27.7387 51.0292 27.1139 50.2193 27.2065 49.1779C27.2759 49.3167 27.3454 49.4324 27.3916 49.5482C27.6693 50.0804 28.2247 51.0524 28.8493 51.7467C28.8493 51.7467 28.3633 50.7979 28.479 50.5896C28.479 50.5896 30.0988 52.6028 30.608 52.7881L29.9369 51.6772L29.9137 51.654C32.2508 53.3665 35.4906 53.9913 39.4707 52.8805C40.165 52.6954 40.859 52.4409 41.5997 52.14C42.0393 51.9549 42.4791 51.7234 42.9189 51.4922L42.9883 51.446C43.2892 51.2839 43.5899 51.0988 43.8908 50.9138C44.1223 50.7749 44.3536 50.6129 44.5619 50.474C44.9322 50.2195 45.3024 49.9418 45.6727 49.6409C45.6959 49.6177 45.7189 49.5947 45.7421 49.5947C46.0893 49.2937 46.4364 48.9698 46.7371 48.6459C47.1537 48.2061 47.5238 47.7666 47.8479 47.3268L47.8712 47.3036C47.9638 47.188 48.0332 47.0953 48.1027 46.9797L48.1259 46.9565C48.1491 46.9103 48.1721 46.887 48.1953 46.8408C48.311 46.6788 48.4036 46.5399 48.5192 46.3781C48.5425 46.3319 48.5654 46.3086 48.5887 46.2624C48.6349 46.1698 48.6813 46.1004 48.7507 46.0079C48.7969 45.9385 48.8202 45.8923 48.8664 45.8229C48.9126 45.7535 48.959 45.684 48.982 45.6146C49.0514 45.499 49.1209 45.3601 49.1903 45.2442L49.2597 45.1054L49.3986 44.8277L49.468 44.6888L49.4912 44.6426C49.5374 44.527 49.6068 44.4111 49.6533 44.2955V44.2723C49.8616 44.0872 50.0004 43.9019 50.1393 43.7401C50.1625 43.7169 50.1855 43.6939 50.1855 43.6707C50.3928 43.3714 50.4855 43.0242 50.4855 42.7003ZM13.0675 36.7995C12.9981 36.8227 12.9287 36.9152 12.836 37.031C12.8128 37.0772 12.7666 37.1237 12.7434 37.1931C12.5351 37.5864 12.3501 38.1418 12.3501 38.1418C12.3733 37.9568 12.3963 37.7715 12.3963 37.5864V37.517C12.4195 37.3319 12.4425 37.1237 12.4657 36.9386V36.8692C12.4889 36.6377 12.5351 36.4296 12.5813 36.2214C12.5813 36.1981 12.5813 36.1751 12.6045 36.1287V36.1055C12.6045 36.0823 12.6045 36.0593 12.6278 36.0361C12.6278 35.9899 12.651 35.9666 12.651 35.9204C12.6742 35.7584 12.7204 35.5965 12.7436 35.4344C12.7669 35.2956 12.7898 35.1567 12.8131 35.0411V34.9949C12.8131 34.9717 12.8131 34.9487 12.8363 34.9487V34.9025C12.8363 34.8793 12.8595 34.8331 12.8595 34.8098C12.8595 34.7866 12.8595 34.7636 12.8827 34.7404C12.8827 34.6942 12.9059 34.6478 12.9059 34.6248C12.9059 34.6016 12.9292 34.5553 12.9292 34.5321C12.9292 34.4859 12.9524 34.4395 12.9524 34.4165C12.9524 34.3933 12.9524 34.3703 12.9756 34.3471C12.9756 34.3238 12.9756 34.3009 12.9988 34.3009C12.9988 34.2547 13.022 34.2314 13.022 34.2082V34.1388L12.9758 34.185C12.9296 34.2082 12.9064 34.2544 12.8602 34.2776L12.814 34.3238C12.7678 34.3701 12.7214 34.4165 12.6984 34.4627L12.6751 34.4859L12.5363 34.6942L12.5131 34.7174C12.5131 34.7406 12.4898 34.7406 12.4898 34.7636L12.4204 34.9025V34.9487C12.3972 35.0181 12.351 35.0875 12.3278 35.157C12.2583 35.342 12.1889 35.5273 12.1427 35.6892C12.1195 35.7354 12.1195 35.8048 12.0965 35.828C12.0733 35.9207 12.0503 36.0131 12.0503 36.0363V36.0595V36.0363C12.0503 35.9669 12.0503 35.9207 12.0735 35.8512C12.0735 35.7356 12.0967 35.5967 12.0967 35.4809C12.0967 35.3882 12.12 35.2726 12.1429 35.18C12.1429 35.1567 12.1429 35.1105 12.1662 35.0873C12.1662 35.0411 12.1894 34.9947 12.1894 34.9485C12.1894 34.9022 12.2126 34.8558 12.2126 34.8096V34.7402C12.2126 34.694 12.2358 34.6245 12.2358 34.5781V34.4625V34.4163C12.2358 34.393 12.2358 34.3701 12.259 34.3468C12.2823 34.2774 12.3053 34.1848 12.3053 34.1153V34.0921C12.3285 34.0459 12.3285 33.9765 12.3515 33.93V33.9068C12.3747 33.7912 12.4209 33.6753 12.4441 33.5597V33.5135C12.4441 33.4903 12.4441 33.4673 12.4673 33.4441C12.5135 33.259 12.583 33.0737 12.6294 32.9119V32.8886C12.6756 32.7498 12.745 32.5877 12.7915 32.4491V32.4259C12.8147 32.3564 12.8377 32.3102 12.8609 32.2408C12.9071 32.1482 12.9303 32.0557 12.9765 31.9631C12.9765 31.9399 12.9998 31.8937 13.046 31.801C13.0692 31.7778 13.0692 31.7316 13.0922 31.7084C13.1154 31.6622 13.1384 31.6157 13.1616 31.5463L13.1848 31.5001C13.1616 31.4769 13.1154 31.4769 13.0922 31.4539H13.069L13.0227 31.4307C12.8145 31.338 12.583 31.2456 12.3517 31.1762H12.3055C12.1434 31.13 12.0046 31.1068 11.8427 31.0835C11.7501 31.0835 11.6577 31.0603 11.565 31.0603H11.3335C11.2179 31.0603 11.102 31.0835 10.9864 31.0835C10.9402 31.0835 10.9169 31.0835 10.8707 31.1068C10.8245 31.1068 10.7551 31.13 10.7087 31.13C10.6854 31.13 10.6625 31.13 10.6392 31.1532C10.593 31.1532 10.5698 31.1764 10.5236 31.1764C10.4542 31.1996 10.3615 31.2226 10.2921 31.2459C10.2689 31.2459 10.2227 31.2691 10.1995 31.2691C10.1068 31.3153 9.99118 31.3385 9.89853 31.3847C9.85232 31.4079 9.8291 31.4309 9.78289 31.4309L9.64404 31.5003L9.59783 31.5236C9.55163 31.5468 9.50519 31.5698 9.45898 31.6162C9.41277 31.6394 9.36633 31.6624 9.32013 31.7089C9.27392 31.7321 9.22748 31.7783 9.18127 31.8015C9.15805 31.8247 9.11184 31.8477 9.08862 31.8709C9.0192 31.9404 8.92655 32.0098 8.85712 32.0792L8.74149 32.1948C8.67206 32.2643 8.62585 32.3337 8.55643 32.4031L8.53321 32.4263C8.50999 32.4725 8.46378 32.4958 8.44056 32.542L8.37113 32.6114C8.2555 32.7735 8.13963 32.9585 8.04722 33.1436C8.024 33.1668 8.024 33.1898 8.00101 33.213C7.9548 33.3057 7.93158 33.3981 7.88538 33.4907C7.86216 33.5369 7.86216 33.5602 7.83917 33.6064C7.81595 33.699 7.76974 33.7914 7.74652 33.9073V33.9999C7.7233 34.0694 7.7233 34.1388 7.70032 34.2082C7.70032 34.2544 7.70032 34.2776 7.6771 34.3238C7.6771 34.3701 7.6771 34.3933 7.65387 34.4395V34.5321C7.65387 34.6478 7.63065 34.7636 7.65387 34.8793C7.65387 34.9719 7.65387 35.0643 7.6771 35.157V35.2032C7.6771 35.2494 7.70032 35.2958 7.70032 35.342C7.72354 35.5271 7.76974 35.6892 7.81595 35.8742C7.86216 36.0131 7.9086 36.1287 7.9548 36.2446C8.04745 36.4761 8.16309 36.6841 8.30194 36.8924C8.57965 37.309 8.94977 37.6791 9.38955 37.9568C9.62105 38.1189 9.89853 38.2345 10.1762 38.3271C10.4307 38.4198 10.7084 38.4892 11.0094 38.5122C11.0788 38.5122 11.1482 38.5354 11.1944 38.5354H11.4954C11.588 38.5354 11.6804 38.5122 11.7731 38.5122C11.8193 38.5122 11.8887 38.5122 11.9351 38.489C12.074 38.4658 12.1896 38.4428 12.3285 38.4196H12.3517C12.3979 38.3963 12.4443 38.3963 12.5138 38.3733C12.6758 38.3271 12.8377 38.2577 12.9765 38.1883L12.9998 38.1651C13.046 38.1418 13.0924 38.1189 13.1154 38.1189C13.046 37.7255 12.9765 37.309 12.9533 36.8924C13.0675 36.8457 13.0675 36.8227 13.0675 36.7995Z" fill="#FCE9CD"/>
<path d="M28.6875 4.10242L28.7574 4.14893L28.6875 4.10242Z" fill="#4D9ED7"/>
<path d="M49.0736 41.7518C49.0736 41.7286 49.0736 41.7056 49.0503 41.7056C49.0271 41.6594 49.0271 41.6362 49.0271 41.613C48.9115 41.2426 48.7726 40.9651 48.6338 40.7569C48.4717 40.5024 48.3328 40.3635 48.3328 40.3635L48.4023 40.0858C48.4255 39.9702 48.4485 39.8543 48.4485 39.7386C48.5411 38.9055 48.3329 38.2577 48.1476 37.8873C48.1243 37.8179 48.1014 37.7717 48.0781 37.7252C47.9393 37.8179 47.8236 37.9103 47.6848 38.0029C45.1857 39.6922 42.3856 40.7798 39.3543 41.2426C37.2717 41.5665 35.0733 41.5898 32.7824 41.312L32.8286 41.3353C32.8286 41.3353 31.4403 41.5203 31.07 42.8395L31.0932 42.8627L30.9775 43.742C31.0237 44.9453 31.5559 45.6858 32.1808 46.0792C32.8286 46.3337 33.6155 46.5187 34.4949 46.6346C35.999 46.8197 37.7577 46.7734 39.5163 46.4957C41.8766 46.1718 45.2089 44.9221 47.5924 43.3023C48.1246 42.9319 48.6338 42.5385 49.0501 42.1452L49.0733 42.122L49.0965 42.0987C49.0965 41.9369 49.0736 41.8445 49.0736 41.7518Z" fill="white"/>
<path d="M44.5612 30.3204C43.2885 29.5337 43.1035 29.279 43.2191 27.1732C43.2653 26.4095 43.3348 25.4145 43.4274 24.0492C43.4274 23.8641 43.4506 23.7021 43.4506 23.5402V23.4246V22.8692C43.4506 22.7536 43.4274 22.6377 43.4274 22.5453C43.4274 22.4991 43.4274 22.4526 43.4042 22.4064C43.381 22.2908 43.381 22.1749 43.358 22.0593C43.358 22.0131 43.3348 21.9436 43.3348 21.8972C43.3348 21.8278 43.3115 21.7816 43.2885 21.7121C43.2653 21.6659 43.2653 21.5965 43.2423 21.5501C43.0573 21.2724 42.849 21.0411 42.5945 20.8328L42.5483 20.7866L42.5021 20.7634H42.4789C42.4327 20.7402 42.4095 20.7172 42.3632 20.694C42.317 20.6707 42.2706 20.6478 42.2476 20.6245C41.8773 20.393 41.4377 20.2542 40.9979 20.1848C40.7434 20.1386 40.489 20.1385 40.2342 20.1385C40.1186 20.1385 39.9797 20.1618 39.8639 20.1618C39.54 20.208 39.2161 20.2774 38.8689 20.3701C38.7533 20.4395 38.6374 20.5321 38.5218 20.6016C38.4291 20.671 38.3367 20.7404 38.2209 20.8098L38.1746 20.8331C38.082 20.9025 37.9664 20.9719 37.8737 21.0181L37.8275 21.0413C37.7349 21.1108 37.6192 21.157 37.5266 21.2264L37.4804 21.2496C37.3877 21.319 37.2721 21.3652 37.1565 21.4117L37.1103 21.4349C36.9946 21.4811 36.902 21.5276 36.7863 21.5738L36.7401 21.597C36.6245 21.6432 36.5086 21.6664 36.393 21.7126H36.3698C36.2541 21.7358 36.1153 21.7588 35.9994 21.782C35.7911 21.8053 35.5599 21.8282 35.3516 21.8282C35.0045 21.8282 34.6573 21.805 34.2872 21.7588L33.9401 21.6894C33.8939 21.6894 33.8474 21.6662 33.8244 21.6662C33.5235 21.5967 33.1996 21.5273 32.8989 21.4579C32.7601 21.4347 32.6444 21.3885 32.5056 21.3652C32.2973 21.319 32.089 21.2726 31.8577 21.2264C31.8115 21.2264 31.7651 21.2032 31.7421 21.2032C31.557 21.2032 31.3718 21.2264 31.2099 21.2494H31.1637C30.6315 21.3188 30.1223 21.4344 29.5901 21.6197C29.5669 21.6197 29.5439 21.643 29.4975 21.643C29.4048 21.6662 29.3354 21.7124 29.243 21.7356C29.1273 21.7818 29.0347 21.8283 28.9191 21.8745C28.1554 22.1984 27.4381 22.6611 26.7438 23.2398C26.4661 23.4713 26.2116 23.7258 25.9572 23.9802C25.5868 24.3736 25.2629 24.7901 24.9622 25.2299C24.939 25.2532 24.939 25.2761 24.916 25.2994C24.7539 25.5309 24.6151 25.7853 24.4994 26.0166C24.4532 26.1093 24.4068 26.2017 24.3606 26.2711V26.2943C24.2217 26.5952 24.1061 26.8727 24.0134 27.1737C24.0134 27.1969 24.0134 27.2199 23.9902 27.2199C23.967 27.2661 23.967 27.3125 23.944 27.3587C23.8978 27.4976 23.8514 27.6364 23.8284 27.7753C23.7822 27.9141 23.759 28.053 23.7357 28.2151C23.7357 28.2383 23.7125 28.2845 23.7125 28.3077C23.6893 28.4003 23.6893 28.4928 23.6663 28.5622C23.6201 28.8861 23.5969 29.21 23.5737 29.5342V29.7657C23.7125 30.2979 23.9208 30.7838 24.1753 31.2004C25.124 32.8434 26.6976 33.8384 27.8547 34.3706C28.2945 34.5557 28.7572 34.7409 29.243 34.9028L29.2662 34.926L29.2894 34.9028C29.3588 34.8566 29.405 34.8101 29.4745 34.7639C29.4977 34.7407 29.5207 34.7407 29.5439 34.7177L29.7522 34.5789C29.7754 34.5557 29.7984 34.5557 29.8216 34.5327L30.0299 34.3938C30.0531 34.3706 30.0761 34.3706 30.0993 34.3476C30.1687 34.3014 30.2382 34.255 30.3308 34.2088C30.354 34.1855 30.377 34.1855 30.4002 34.1625C30.4697 34.1163 30.5623 34.0699 30.6317 34.0237C30.655 34.0005 30.678 34.0005 30.7012 33.9775C30.7706 33.9313 30.8632 33.8848 30.9327 33.8386C30.9559 33.8154 31.0021 33.8154 31.0253 33.7924C31.0947 33.7462 31.1874 33.6998 31.2568 33.6536C31.28 33.6304 31.3262 33.6074 31.3495 33.6074C31.4189 33.5612 31.5115 33.5147 31.604 33.4685C31.6502 33.4453 31.6734 33.4223 31.7196 33.4223C31.8122 33.3761 31.8817 33.3297 31.9741 33.3067C32.0203 33.2835 32.0435 33.2605 32.0897 33.2605C32.1824 33.2143 32.2518 33.191 32.3442 33.1448L32.4831 33.0754C32.5757 33.0292 32.6451 33.006 32.7375 32.9598C32.7837 32.9366 32.8302 32.9136 32.8996 32.8903C32.9923 32.8671 33.0617 32.8209 33.1541 32.7977C33.2003 32.7745 33.2697 32.7515 33.3162 32.7283C33.4088 32.7051 33.4782 32.6588 33.5707 32.6356C33.6401 32.6124 33.6863 32.5894 33.7557 32.5662C33.8484 32.543 33.9178 32.4968 34.0102 32.4735L34.2185 32.4041C34.2879 32.3809 34.3806 32.3579 34.45 32.3115C34.5194 32.2883 34.6121 32.2653 34.6815 32.242C34.7509 32.2188 34.8436 32.1958 34.913 32.1726C35.0056 32.1494 35.0981 32.1264 35.1675 32.1032C35.2369 32.08 35.3063 32.057 35.399 32.0338C35.4916 32.0105 35.584 31.9876 35.6999 31.9411C35.7461 31.9179 35.7926 31.9179 35.8388 31.8949C36.2091 30.9462 37.3429 28.5859 39.2634 28.3314C39.4717 28.3082 39.6568 28.2852 39.8418 28.2852H39.9807C39.9575 28.1463 39.9345 28.0075 39.9345 27.8454C39.865 26.8272 40.189 25.9711 40.6287 25.9479C40.9759 25.9247 41.2536 26.4339 41.2998 26.5957C41.4386 26.8966 41.5313 27.29 41.5543 27.7295C41.5775 28.1229 41.5311 28.4932 41.4616 28.8171C41.5078 28.8634 41.5311 28.9098 41.5773 28.9328C42.0168 29.4882 42.0862 30.2287 42.0633 30.7841C42.2253 30.7609 42.4104 30.7609 42.5955 30.7379C42.6417 30.7379 42.6881 30.7379 42.7343 30.7147H42.827C43.0352 30.6914 43.2665 30.6685 43.498 30.6685C44.007 30.6222 44.5162 30.599 45.0484 30.5758C44.7465 30.4128 44.5612 30.3204 44.5612 30.3204ZM49.3976 44.5747C48.5645 45.3152 47.6852 45.9168 46.8059 46.4028C46.3663 46.6343 45.9265 46.8423 45.51 47.0276C44.5612 47.4442 43.6587 47.7219 42.8488 47.9302C41.0669 48.37 39.8404 48.37 39.8404 48.37C40.8124 48.9022 42.0389 48.9022 42.8717 48.8327C43.4501 48.7865 43.8437 48.6707 43.8437 48.6707C43.8205 49.0178 43.7743 49.3417 43.7281 49.6656C43.6587 50.0127 43.566 50.3134 43.4504 50.5912V50.6144C43.3115 50.9615 43.1265 51.2622 42.9414 51.5399C42.9182 51.5631 42.8952 51.6093 42.872 51.6326L42.9414 51.5863C43.2423 51.4243 43.543 51.2392 43.844 51.0542C44.0755 50.9153 44.3067 50.7532 44.515 50.6144C44.8854 50.3599 45.2555 50.0822 45.6258 49.7812C45.6491 49.758 45.672 49.735 45.6953 49.735C46.0424 49.4341 46.3895 49.1102 46.6902 48.7863C47.1068 48.3467 47.4769 47.907 47.8011 47.4672L47.8243 47.444C47.9169 47.3283 47.9864 47.2357 48.0558 47.12L48.079 47.0968C48.1022 47.0506 48.1252 47.0274 48.1484 46.9812C48.2641 46.8191 48.3567 46.6803 48.4723 46.5184C48.4956 46.4722 48.5185 46.449 48.5418 46.4028C48.588 46.3101 48.6344 46.2407 48.7038 46.1483C48.75 46.0789 48.7733 46.0327 48.8195 45.9632C48.8657 45.8938 48.9121 45.8244 48.9351 45.755C49.0045 45.6393 49.074 45.5005 49.1434 45.3846L49.2128 45.2458L49.3517 44.968L49.4211 44.8292L49.4443 44.783C49.4905 44.6673 49.5599 44.5515 49.6064 44.4358C49.5133 44.4591 49.4671 44.5053 49.3976 44.5747ZM28.2937 35.2492C28.0622 35.3186 27.7848 35.4343 27.5071 35.5501C26.7666 35.8511 25.9335 36.2906 25.193 36.8922C25.1003 36.9617 25.0079 37.0543 24.9153 37.1237C24.7532 37.2626 24.6144 37.4015 24.4755 37.5635L24.4293 37.6097L24.3599 37.6792C24.3137 37.7486 24.2442 37.7948 24.1978 37.8642L24.1284 37.9336C24.0589 38.0263 23.9895 38.1187 23.9433 38.2114C23.8739 38.304 23.8277 38.3964 23.7582 38.4891C23.3185 39.2528 23.064 40.1783 23.1334 41.2891V41.2429C23.1334 41.2197 23.1334 41.1967 23.1566 41.1735V41.1503C23.1566 41.127 23.1798 41.1041 23.1798 41.0576V41.0344C23.1798 41.0112 23.2031 40.965 23.2031 40.9188C23.2031 40.8726 23.2263 40.8493 23.2493 40.8031V40.7799C23.2725 40.7337 23.2725 40.6873 23.2955 40.6411V40.6178C23.3187 40.5716 23.3187 40.5252 23.3417 40.479V40.4558C23.3649 40.4096 23.3879 40.3631 23.4111 40.2937L23.4343 40.2705C23.4576 40.2243 23.4805 40.1548 23.527 40.1084C23.5732 40.0157 23.6196 39.9463 23.6658 39.8539C23.6891 39.8307 23.712 39.7845 23.7353 39.7613L23.7585 39.738L23.8973 39.5298C23.9435 39.4836 23.99 39.4141 24.0362 39.3677L24.0824 39.3215C24.1286 39.2753 24.1518 39.2288 24.198 39.2058L24.2442 39.1596C24.2904 39.1134 24.3599 39.067 24.4063 38.9976C24.4063 38.9976 23.4114 41.2654 23.8509 43.0471V43.0239V42.9776V42.9082V42.8156V42.6999C23.8509 42.6537 23.8509 42.6073 23.8741 42.5611C23.8741 42.5149 23.8741 42.4684 23.8973 42.4222V42.399C23.8973 42.3528 23.9206 42.2834 23.9206 42.2369V42.1907C23.9438 42.1213 23.9438 42.0751 23.9668 42.0057V41.9825C23.99 41.913 24.013 41.8436 24.013 41.7974C24.013 41.7742 24.0362 41.7512 24.0362 41.728L24.0594 41.6818C24.0826 41.6356 24.1056 41.5661 24.1288 41.5197C24.1521 41.4503 24.1983 41.3808 24.2445 41.3114C24.2445 41.2882 24.2677 41.2652 24.2677 41.2652L24.4065 41.0569C24.4065 41.0569 24.3603 41.6123 24.3603 42.2834C24.3603 42.399 24.3603 42.4917 24.3836 42.6073C24.3836 42.6767 24.3836 42.7461 24.4068 42.8156C24.453 42.0983 24.5918 41.4273 24.7771 40.8024C24.8233 40.6404 24.8928 40.4553 24.9392 40.2935C24.9392 40.2702 24.9624 40.2472 24.9624 40.224C25.0319 40.062 25.0781 39.9231 25.1475 39.7613C25.1707 39.738 25.1707 39.7151 25.1937 39.6686C25.2631 39.5298 25.3326 39.3677 25.402 39.2291C25.4252 39.2058 25.4252 39.1829 25.4252 39.1596C25.5873 38.8587 25.7491 38.5812 25.9112 38.3265C25.9344 38.3033 25.9344 38.2803 25.9574 38.2571C26.0268 38.1644 26.0962 38.072 26.1657 37.9562C26.1889 37.9329 26.1889 37.91 26.2119 37.8867C26.2351 37.8635 26.2351 37.8405 26.2581 37.8173C26.3507 37.7017 26.4202 37.5858 26.5126 37.4702C26.5358 37.447 26.5358 37.424 26.5588 37.424C26.6514 37.3083 26.7438 37.1925 26.8365 37.1001C26.9521 36.9612 27.068 36.8456 27.1836 36.7067C27.2763 36.6141 27.3457 36.5217 27.4381 36.4522L27.5308 36.3596C27.7158 36.1745 27.9011 35.9892 28.0862 35.8274C28.5951 35.3646 29.0117 35.0637 29.1506 34.9713C29.0579 34.9945 28.9655 35.0175 28.8496 35.0407C28.7101 35.1104 28.525 35.1798 28.2937 35.2492Z" fill="#F2D2AC"/>
<path d="M41.6225 30.2278C41.6225 30.2278 41.6225 30.1816 41.5993 30.0889C41.5066 29.765 41.1827 28.9781 39.91 29.0939C38.5679 29.2328 38.1052 30.3204 37.9893 30.6905C37.9661 30.76 37.9661 30.8062 37.9661 30.8062L38.0123 30.8294C38.1744 30.6905 38.4983 30.6905 38.799 30.8988C38.9378 30.9915 39.0305 31.0839 39.1229 31.1997C39.2385 31.3848 39.2617 31.5701 39.1923 31.7087L39.1229 31.7781C39.1229 31.7781 39.1691 31.8014 39.2617 31.8243C39.6321 31.94 40.6733 32.1483 41.2287 31.431C41.2519 31.3848 41.2749 31.3616 41.2981 31.3154C41.1825 31.2692 41.136 31.1071 41.136 30.8988C41.136 30.8062 41.1592 30.7138 41.1822 30.5979C41.2521 30.3204 41.4604 30.1583 41.6225 30.2278ZM34.935 40.1319C34.0557 40.317 33.292 40.4558 32.7136 40.5485C32.7368 40.5485 32.783 40.5485 32.8062 40.5717C33.8012 40.6873 35.3748 40.8494 37.2723 40.7338C40.7434 40.5255 45.3019 39.4379 49.444 35.6891V35.6658C49.4673 35.3419 49.4208 34.7865 49.0275 34.3467C48.958 34.2773 48.8886 34.2079 48.796 34.1384C48.7727 34.1384 48.7727 34.1152 48.7498 34.1152C48.6341 34.0458 48.5415 33.9996 48.4488 33.9302L48.2406 33.7913V33.7681C47.9861 34.1384 47.6851 34.4853 47.3612 34.8095C47.2456 34.9251 47.1297 35.041 46.9909 35.1566C45.8571 36.1748 44.3761 37.0541 42.7793 37.7484C40.1415 38.9055 37.1794 39.6692 34.935 40.1319ZM12.998 34.0922C12.9518 34.1154 12.9286 34.1617 12.8823 34.1849L12.8361 34.2311C12.7899 34.2773 12.7435 34.3237 12.7205 34.3699L12.6973 34.3932L12.5584 34.6014L12.5352 34.6247C12.5352 34.6479 12.512 34.6479 12.512 34.6709L12.4426 34.8097V34.8559C12.4193 34.9254 12.3731 34.9948 12.3499 35.0642C12.2805 35.2493 12.2111 35.4346 12.1649 35.5964C12.1416 35.6426 12.1416 35.712 12.1186 35.7353C12.0954 35.8279 12.0724 35.9203 12.0724 35.9435V35.9668V35.9435C12.0724 35.8741 12.0724 35.8279 12.0957 35.7585C12.0957 35.6428 12.1189 35.504 12.1189 35.3881C12.1189 35.2955 12.1421 35.1798 12.1651 35.0872C12.1651 35.064 12.1651 35.0178 12.1883 34.9945C12.1883 34.9483 12.2115 34.9019 12.2115 34.8557C12.2115 34.8095 12.2348 34.763 12.2348 34.7168V34.6474C12.2348 34.6012 12.258 34.5318 12.258 34.4853V34.3697V34.3235C12.258 34.3003 12.258 34.2773 12.2812 34.2541C12.3044 34.1846 12.3274 34.092 12.3274 34.0226V33.9993C12.3506 33.9531 12.3506 33.8837 12.3736 33.8373V33.814C12.3968 33.6984 12.443 33.5825 12.4663 33.4669V33.4207C12.4663 33.3975 12.4663 33.3745 12.4895 33.3513C12.5357 33.1662 12.6051 32.9809 12.6515 32.8191V32.7959C12.6978 32.657 12.7672 32.4949 12.8136 32.3563V32.3331C12.8368 32.2637 12.8598 32.2175 12.883 32.148C12.9293 32.0554 12.9525 31.963 12.9987 31.8703C12.9987 31.8471 13.0219 31.8009 13.0681 31.7082C13.0913 31.685 13.0913 31.6388 13.1143 31.6156C13.1375 31.5694 13.1605 31.523 13.1837 31.4535L13.207 31.4073C13.1837 31.3841 13.1375 31.3841 13.1143 31.3611H13.0911L13.0449 31.3379C12.8366 31.2452 12.6051 31.1528 12.3738 31.0834H12.3276C12.1656 31.0372 12.0267 31.014 11.8649 30.9908C11.7722 30.9908 11.6798 30.9675 11.5872 30.9675H11.3557C11.24 30.9675 11.1242 30.9908 11.0085 30.9908C10.9623 30.9908 10.9391 30.9908 10.8929 31.014C10.8467 31.014 10.7773 31.0372 10.7308 31.0372C10.7076 31.0372 10.6846 31.0372 10.6614 31.0604C10.6152 31.0604 10.592 31.0836 10.5458 31.0836C10.4763 31.1069 10.3837 31.1298 10.3143 31.1531C10.291 31.1531 10.2448 31.1763 10.2216 31.1763C10.129 31.2225 10.0133 31.2457 9.92068 31.2919C9.87447 31.3151 9.85125 31.3381 9.80505 31.3381L9.66619 31.4076L9.61999 31.4308C9.57378 31.454 9.52734 31.477 9.48113 31.5234C9.43493 31.5466 9.38848 31.5696 9.34228 31.6161C9.29607 31.6393 9.24963 31.6855 9.20342 31.7087C9.1802 31.7319 9.134 31.7549 9.11078 31.7781C9.04135 31.8476 8.9487 31.917 8.87928 31.9864L8.76364 32.1021C8.69422 32.1715 8.64801 32.2409 8.57858 32.3103L8.55536 32.3336C8.53214 32.3798 8.48593 32.403 8.46271 32.4492L8.39329 32.5186C8.27765 32.6807 8.16179 32.8658 8.06937 33.0508C8.04615 33.074 8.04615 33.097 8.02317 33.1202C7.97696 33.2129 7.95374 33.3053 7.90753 33.398C7.88431 33.4442 7.88431 33.4674 7.86133 33.5136C7.86133 33.5368 7.88455 33.5598 7.88455 33.583C7.90777 33.6757 7.93075 33.7451 7.95398 33.8375V33.8837C7.9772 33.9531 8.0234 34.0458 8.04662 34.1152C8.13927 34.3467 8.23168 34.5548 8.34755 34.7401C8.37077 34.7633 8.37077 34.7863 8.39376 34.8095V34.8327L8.41698 34.8559C8.4864 34.9948 8.55583 35.1104 8.62526 35.2031C8.74089 35.3651 8.83354 35.4808 8.90297 35.5734L8.94917 35.6196C8.94917 35.6428 8.97239 35.6428 8.97239 35.6428L9.0186 35.6891C9.0186 35.6428 8.99538 35.5964 8.99538 35.5734C8.92595 35.2725 8.90273 34.995 8.90273 34.6941V34.6479C8.90273 34.4628 8.90273 34.2775 8.92595 34.1157L8.99538 34.324C9.0186 34.4166 9.06481 34.509 9.08803 34.6017V34.6479C9.22688 35.0412 9.38895 35.3651 9.55079 35.6199C9.73585 35.9438 9.89793 36.1521 10.0136 36.2909C10.0368 36.3141 10.0598 36.3371 10.0598 36.3603L10.106 36.4065C10.0365 36.0826 9.99034 35.7817 9.99034 35.481V35.1801C9.99034 35.0412 9.99034 34.9256 10.0136 34.8097C10.0598 35.018 10.1292 35.2263 10.1986 35.4113V35.4346C10.4531 36.1056 10.754 36.5916 10.9623 36.8923L10.9855 36.9155C11.0317 36.9617 11.055 37.0082 11.0782 37.0544C11.1014 37.0776 11.1244 37.1006 11.1244 37.1238L11.1706 37.17L11.1938 37.1932V37.147C11.1938 37.1008 11.1706 37.0544 11.1706 37.0082C11.1474 36.8461 11.1244 36.6843 11.1012 36.5454C11.1012 36.4527 11.0779 36.3371 11.0779 36.2445V35.9668V35.9206V35.7355C11.0779 35.6199 11.1012 35.481 11.1012 35.3651C11.1244 35.4346 11.1474 35.5272 11.1706 35.5966C11.1938 35.6428 11.2168 35.7123 11.24 35.7587V35.7819L11.2632 35.8052C11.2865 35.8746 11.3095 35.944 11.3327 35.9902C11.3789 36.1058 11.4253 36.2217 11.4947 36.3141C11.5642 36.453 11.6104 36.5686 11.6798 36.6613C11.726 36.7307 11.7492 36.7769 11.7725 36.8233C11.8187 36.8928 11.8651 36.9622 11.8881 37.0084C11.9343 37.0546 11.9575 37.101 11.9807 37.1473L12.004 37.1705C12.0272 37.2167 12.0734 37.2399 12.0966 37.2861C12.1198 37.3093 12.1428 37.3323 12.1428 37.3555C12.189 37.4017 12.2122 37.4482 12.2355 37.4482L12.2587 37.4714V37.402C12.2819 37.2169 12.3049 37.0086 12.3281 36.8236V36.7541C12.3513 36.5226 12.3975 36.3146 12.4437 36.1063C12.4437 36.0831 12.4437 36.0601 12.467 36.0137V35.9904C12.467 35.9672 12.467 35.9442 12.4902 35.921C12.4902 35.8748 12.5134 35.8516 12.5134 35.8054C12.5366 35.6433 12.5828 35.4815 12.606 35.3194C12.6293 35.1805 12.6523 35.0417 12.6755 34.9261V34.8798C12.6755 34.8566 12.6755 34.8336 12.6987 34.8336V34.7874C12.6987 34.7642 12.7219 34.718 12.7219 34.6948C12.7219 34.6716 12.7219 34.6486 12.7451 34.6254C12.7451 34.5792 12.7684 34.5327 12.7684 34.5097C12.7684 34.4867 12.7916 34.4403 12.7916 34.4171C12.7916 34.3709 12.8148 34.3244 12.8148 34.3014C12.8148 34.2782 12.8148 34.2552 12.838 34.232C12.838 34.2088 12.838 34.1858 12.8612 34.1858C12.8612 34.1396 12.8845 34.1164 12.8845 34.0932V34.0237L12.998 34.0922ZM41.0438 43.7649C41.3678 43.6493 41.6455 43.5566 41.877 43.464C42.3165 43.2789 42.548 43.14 42.548 43.0936C42.5248 43.0474 42.2703 43.0704 41.8075 43.1862C41.576 43.2325 41.2986 43.2789 40.9514 43.3713C40.7894 43.4175 40.6043 43.4407 40.4192 43.464C40.2342 43.4872 40.0259 43.5334 39.8176 43.5566C39.4011 43.626 38.9383 43.6722 38.4293 43.7187L37.6656 43.7881C37.4111 43.8113 37.1334 43.8113 36.8557 43.8343C35.7449 43.8575 34.5187 43.8111 33.269 43.5798C32.6212 43.4642 31.7186 43.1633 31.0938 42.8161L31.0705 42.7929C31.4409 41.4738 32.8292 41.2887 32.8292 41.2887L32.783 41.2655H32.7136C32.5053 41.2423 32.3432 41.2193 32.1814 41.1961C32.0657 41.1729 31.9731 41.1729 31.9037 41.1499C31.8342 41.1499 31.7648 41.1266 31.7416 41.1266C30.9085 41.0804 30.4457 41.7745 30.3068 42.0754L30.2374 42.2143C30.1218 42.492 30.0291 42.7927 30.0059 43.1398C29.9597 43.7646 30.1215 44.4357 30.6075 45.0141C30.9315 45.4074 31.4869 45.7546 32.2041 46.0323C31.5793 45.6389 31.0239 44.8752 31.0009 43.6952C31.7181 43.9961 32.528 44.1812 33.1529 44.2968C34.472 44.5513 35.7676 44.5746 36.9017 44.5051C37.1794 44.4819 37.4801 44.4589 37.7348 44.4357C38.0125 44.3895 38.267 44.3663 38.5215 44.3431C39.0305 44.2504 39.4703 44.181 39.9098 44.0886C40.1181 44.0424 40.3264 43.9959 40.5114 43.9265C40.7199 43.8808 40.882 43.8343 41.0438 43.7649Z" fill="#F2D2AC"/>
<path d="M39.9562 28.3073C40.6505 28.3305 41.1132 28.5388 41.4371 28.8627C41.5066 28.5618 41.5528 28.1917 41.5298 27.7751C41.5066 27.3353 41.4142 26.942 41.2753 26.6413C41.2291 26.4562 40.9514 25.9703 40.6043 25.9935C40.1647 26.0167 39.8406 26.8728 39.91 27.891C39.91 28.0296 39.9332 28.1685 39.9562 28.3073ZM41.1132 30.9221C41.1132 31.1072 41.1827 31.2692 41.2753 31.3387C41.4374 31.4313 41.6457 31.246 41.7381 30.9453C41.7381 30.9221 41.7613 30.8991 41.7613 30.8759C41.8307 30.5982 41.7613 30.3205 41.5992 30.2511C41.4371 30.1584 41.2289 30.3437 41.1364 30.6444C41.1364 30.737 41.1132 30.8295 41.1132 30.9221ZM37.9663 31.4311C38.0357 31.5467 38.1513 31.6626 38.2902 31.755C38.5911 31.9401 38.915 31.9633 39.1001 31.8012L39.1695 31.7318C39.2389 31.5929 39.2157 31.4079 39.1001 31.2228C39.0307 31.1072 38.915 30.9913 38.7762 30.9219C38.4752 30.7368 38.1513 30.7136 37.9895 30.8524C37.9663 30.8757 37.9433 30.8986 37.9201 30.9451C37.8506 31.061 37.8736 31.246 37.9663 31.4311ZM49.467 35.6659C49.4437 35.6659 49.4437 35.6659 49.467 35.6659V35.6659ZM49.0966 42.0757C48.6571 42.4923 48.1711 42.8856 47.6157 43.256C45.2322 44.8758 41.8999 46.1484 39.5396 46.4494C37.7578 46.7271 36.0223 46.7733 34.5181 46.5882C33.6388 46.4726 32.8751 46.2873 32.2041 46.0328C31.4868 45.7551 30.9314 45.408 30.6075 45.0146C30.1215 44.4362 29.9826 43.742 30.0059 43.1403C30.0291 42.8164 30.0985 42.4925 30.2374 42.2148L30.3068 42.0759C30.4689 41.775 30.9084 41.0578 31.7415 41.1272C31.7648 41.1272 31.8342 41.1272 31.9036 41.1504C31.973 41.1504 32.0887 41.1736 32.1813 41.1966C32.3434 41.2198 32.5052 41.2428 32.7135 41.266H32.7829C35.0738 41.5437 37.2722 41.5205 39.3548 41.1966C42.3861 40.7338 45.1862 39.6462 47.6853 37.957C47.8242 37.8643 47.9398 37.7719 48.0787 37.6793L49.444 35.6429C45.3018 39.4147 40.7431 40.5023 37.2722 40.7106C35.3747 40.8263 33.8011 40.6874 32.8062 40.5485C32.76 40.5485 32.7367 40.5485 32.7135 40.5253C32.4126 40.4791 32.1813 40.4559 31.9963 40.4327C31.9036 40.4327 31.8342 40.4095 31.788 40.4095C31.5335 40.3862 31.279 40.4327 31.0475 40.5021C30.5847 40.641 30.1682 40.9649 29.8672 41.3814C29.4969 41.8904 29.2656 42.5847 29.2656 43.279C29.2656 43.8574 29.4045 44.4592 29.7054 45.0144C29.7286 45.0376 29.7286 45.0606 29.7516 45.0838C29.7978 45.1532 29.821 45.1995 29.8672 45.2689C29.9135 45.3383 29.9829 45.431 30.0523 45.5004C30.7696 46.4029 32.3432 47.0508 34.4257 47.3285C35.8373 47.5135 37.4803 47.4906 39.2622 47.2358C44.5381 46.2871 47.0373 44.5746 48.1943 43.3946C48.2869 43.3019 48.3564 43.2325 48.4258 43.1401C48.8424 42.6541 49.0274 42.284 49.0968 42.1451V42.1219C49.1201 42.0757 49.1201 42.0525 49.1201 42.0525L49.0966 42.0757Z" fill="#664F44"/>
<path d="M32.3204 23.7947C32.1583 23.7021 31.9732 23.6326 31.7882 23.5864C31.6725 23.5632 31.5567 23.5402 31.4178 23.517C31.3716 23.517 31.3252 23.517 31.279 23.4938C30.6541 23.4476 30.1219 23.54 30.1219 23.54C30.0063 23.5632 29.8904 23.5862 29.798 23.6326C28.9649 23.8871 28.3865 24.3269 27.9699 24.8359C27.646 25.2524 27.4145 25.692 27.2989 26.1318C27.2757 26.178 27.2757 26.2012 27.2757 26.2474C27.2524 26.363 27.2062 26.4789 27.183 26.5713C27.1136 26.9417 27.0674 27.2656 27.0674 27.5433C27.0674 27.9137 27.0906 28.1449 27.0906 28.1449C27.2295 27.821 27.3915 27.5433 27.5534 27.2656C27.9467 26.5945 28.3633 26.0391 28.8031 25.5996C29.6362 24.7435 30.4923 24.2805 31.1401 24.0492C31.8344 23.8179 32.3204 23.7947 32.3204 23.7947ZM42.3401 22.6147L42.3169 22.5685C42.2243 22.4529 42.1086 22.337 41.9698 22.2446C41.6459 22.0363 41.2061 21.9207 40.6045 22.0363C40.6045 22.0363 39.8872 22.1984 39.4706 22.6841C39.4706 22.6841 40.7203 22.1519 42.0624 23.1007C42.1781 23.1933 42.3169 23.2857 42.4328 23.4016C42.5484 23.5172 42.6873 23.6331 42.8031 23.795C42.8031 23.795 42.7569 23.2166 42.4098 22.7073C42.3866 22.6609 42.3633 22.6377 42.3401 22.6147Z" fill="#E9B784"/>
<path d="M32.4822 31.8246C32.9682 31.6858 33.4772 31.5469 34.0558 31.4081C34.1485 30.9685 34.1715 30.4361 34.102 29.8577C33.94 28.5156 33.3383 27.4741 32.7367 27.5436C32.135 27.613 31.7879 28.77 31.9499 30.1122C32.0424 30.8064 32.2277 31.4081 32.4822 31.8246Z" fill="#664F44"/>
<path d="M29.7281 1.57996L28.4785 1.85767L28.7329 4.12555L25.4239 2.4363L24.0586 2.85287L24.0818 2.87609L28.1083 7.45782L28.1545 7.4346L28.2008 7.41138C28.3164 7.34195 28.4552 7.24931 28.5711 7.17988C28.6173 7.15666 28.6638 7.13367 28.71 7.08723C28.895 6.9716 29.0803 6.85573 29.2654 6.76331L27.5529 4.79636L30.3065 6.13847C30.3992 6.09226 30.4686 6.04582 30.561 5.99961L30.3065 4.03266L31.5562 5.4904H31.5794C31.6951 5.4442 31.7877 5.37477 31.9034 5.32833L31.9496 5.30511L31.9958 5.28189C32.019 5.28189 32.042 5.25867 32.042 5.25867L32.1808 5.18924C32.1808 5.18924 32.2041 5.18924 32.2041 5.16602C32.3429 5.09659 32.505 5.02716 32.6436 4.95774L29.7281 1.57996Z" fill="#FFD250"/>
<path d="M28.5022 1.9271V1.85768V1.9271ZM28.5022 1.85768L28.6873 1.81147C28.3863 1.67261 28.0162 1.57997 27.5997 1.51054C26.7666 1.39491 25.7022 1.51054 24.4989 1.81147C23.2957 2.1124 21.9304 2.6446 20.4957 3.36185C17.6032 4.7966 14.4098 6.99482 11.3091 9.81811C10.2215 10.7901 9.22654 11.8083 8.30078 12.8032L12.0496 17.4314C13.0677 16.3206 14.1553 15.21 15.3586 14.1224C16.9552 12.6646 18.5752 11.3687 20.1718 10.2579C21.7221 9.17028 23.2725 8.24474 24.7304 7.50426L24.0826 4.54235L24.1058 2.87633L24.0826 2.85311L25.4479 2.43655L28.1091 3.80187L28.0397 2.87633L28.5022 1.85768Z" fill="#4D9ED7"/>
<path d="M28.5025 1.85779L28.0397 2.87597L28.1091 3.82473L28.757 4.14864L28.5025 1.85779ZM27.5537 4.7967L30.3306 6.16202L29.2662 6.76364L27.5537 4.7967ZM30.3306 4.03301L30.585 5.99995L31.58 5.49097L30.3306 4.03301Z" fill="#132134"/>
<path d="M40.7896 3.31577H41.2986C41.7614 3.31577 42.2012 3.3852 42.6177 3.47785C42.6409 3.47785 42.6639 3.47785 42.6871 3.50107H42.7104L42.7566 3.52429H42.8028C42.7566 3.50107 42.7101 3.45486 42.6639 3.43164C42.2011 3.24658 41.7152 3.13071 41.2062 3.06128C38.7071 2.73737 35.8376 3.66291 34.2178 4.31097C34.1251 4.35717 34.0327 4.3804 33.9401 4.4266C33.8012 4.49603 33.6624 4.54224 33.5235 4.61166C33.292 4.70431 33.0607 4.81994 32.8062 4.93558C32.76 4.9588 32.7368 4.9588 32.6906 4.98178C32.5518 5.05121 32.3897 5.12064 32.2511 5.19006C32.2511 5.19006 32.2278 5.19006 32.2278 5.21328L32.089 5.28271C32.0658 5.28271 32.0428 5.30593 32.0428 5.30593H31.9501L31.9269 5.32915C31.8113 5.37536 31.7186 5.4218 31.603 5.49123H31.5798C31.5566 5.51445 31.5336 5.51445 31.5104 5.53743H31.4871C31.4639 5.53743 31.4409 5.56065 31.4409 5.56065C31.2789 5.6533 31.117 5.72273 30.9549 5.81514C30.8393 5.88457 30.7234 5.93077 30.6078 6.0002H30.5846C30.4919 6.04641 30.4225 6.09285 30.3301 6.13905C30.0524 6.27791 29.7979 6.43998 29.5202 6.60182C29.497 6.62504 29.474 6.62504 29.4275 6.64803C29.4043 6.67125 29.3813 6.67125 29.3581 6.69423C29.3349 6.71745 29.3119 6.71745 29.2887 6.74044L29.2655 6.76366C29.0804 6.87929 28.8951 6.97194 28.7101 7.08757C28.6639 7.1108 28.6174 7.13378 28.5712 7.18022C28.4556 7.24965 28.3167 7.3423 28.2008 7.41172L28.1546 7.43494L28.1084 7.45816L27.067 8.15243C26.4886 8.54577 25.9332 8.93911 25.3778 9.35568C25.3084 9.40188 25.2389 9.47131 25.1695 9.51775C23.7118 10.6054 22.3233 11.7856 20.9812 12.9889C19.5696 14.2847 18.2043 15.6036 16.9316 16.946C16.2374 17.6402 15.6358 18.2651 15.173 18.774C14.201 19.8154 13.6688 20.4633 13.692 20.4865C13.692 20.4865 13.7847 20.4171 13.9465 20.255C13.8309 20.3938 13.692 20.5559 13.5762 20.6948C15.7052 18.4269 18.0422 16.1131 20.5646 13.9378C22.0918 12.6187 23.6886 11.3461 25.3316 10.166C26.0489 9.65707 26.7893 9.14786 27.53 8.66188C27.7615 8.4998 28.016 8.36095 28.2473 8.19911C28.3629 8.12968 28.4788 8.06025 28.6176 7.99083C28.6871 7.94462 28.7565 7.89818 28.8259 7.87519C28.9648 7.80577 29.0804 7.71312 29.2193 7.64369C29.3349 7.57427 29.4738 7.50484 29.5896 7.41219C29.659 7.36599 29.7285 7.34277 29.7979 7.29656L30.2839 7.01885C30.3765 6.97265 30.4689 6.90322 30.5616 6.85678C30.8625 6.6947 31.1632 6.53286 31.4871 6.37079C31.5104 6.34757 31.5333 6.34757 31.5566 6.32458L31.6954 6.25516C31.7648 6.23194 31.811 6.18573 31.8805 6.16251C31.9037 6.13929 31.9267 6.13929 31.9499 6.1163L32.0888 6.04688C32.0888 6.04688 32.112 6.04687 32.112 6.02365H32.1352C32.274 5.95423 32.4129 5.8848 32.5285 5.83859C32.5518 5.83859 32.5747 5.81537 32.598 5.79239L32.7368 5.72296C32.8989 5.65353 33.0377 5.58411 33.1996 5.51468C33.2458 5.49146 33.2922 5.46847 33.3152 5.44525C33.3384 5.44525 33.3614 5.42203 33.3846 5.42203C33.4308 5.39881 33.4773 5.37583 33.5235 5.37583C33.7086 5.3064 33.8706 5.21375 34.0557 5.14433C34.2178 5.0749 34.3566 5.00547 34.5185 4.93605C35.3978 4.56569 36.2077 4.265 36.9714 4.01051C38.4061 3.61647 39.679 3.36198 40.7896 3.31577Z" fill="white"/>
</svg>
