<svg width="60" height="60" viewBox="0 0 60 60" fill="none" xmlns="http://www.w3.org/2000/svg">
<path d="M29.9997 25.0302C32.791 25.0302 35.0531 27.2923 35.0531 30.0813C35.0531 32.8725 32.791 35.1347 29.9997 35.1347C27.2108 35.1347 24.9486 32.8725 24.9486 30.0813C24.9486 27.2923 27.2085 25.0302 29.9997 25.0302ZM12.785 30.0813C12.785 20.5743 20.4927 12.8665 29.9975 12.8665C39.5045 12.8665 47.2122 20.572 47.2122 30.0813C47.2122 30.7107 47.178 31.3309 47.1119 31.9421C46.9819 33.6205 48.2133 34.9021 49.8803 34.9021C52.7103 34.9021 53.0113 31.2534 53.0113 30.0813C53.0113 17.3703 42.7084 7.06743 29.9975 7.06743C17.2865 7.06743 6.98588 17.3703 6.98588 30.0813C6.98588 42.7923 17.2888 53.0951 29.9997 53.0951C36.7497 53.0951 42.8225 50.1899 47.0321 45.5607L51.7639 49.5331C46.4187 55.5078 38.647 59.2705 29.9997 59.2705C13.8795 59.2705 0.810547 46.2015 0.810547 30.0813C0.810547 13.9611 13.8795 0.89209 29.9997 0.89209C46.1222 0.89209 59.1889 13.9611 59.1889 30.0813C59.1889 36.5622 56.1035 41.8231 49.9054 41.8231C47.178 41.8231 45.5202 40.5734 44.6149 39.1778C41.5751 44.051 36.166 47.2961 29.9975 47.2961C20.4927 47.2961 12.785 39.5883 12.785 30.0813ZM29.9997 19.0418C23.9042 19.0418 18.9603 23.9835 18.9603 30.0813C18.9603 36.1791 23.9042 41.1207 29.9997 41.1207C36.0975 41.1207 41.0392 36.1768 41.0392 30.0813C41.0392 23.9835 36.0953 19.0418 29.9997 19.0418Z" fill="#AF252A"/>
</svg>
