<svg width="47" height="62" viewBox="0 0 47 62" fill="none" xmlns="http://www.w3.org/2000/svg">
<path d="M44.12 61H2.88C1.84 61 1 60.16 1 59.12V12.25L12.25 1H44.13C45.16 1 46 1.84 46 2.88V59.13C46 60.16 45.16 61 44.12 61Z" fill="white" stroke="url(#paint0_linear)" stroke-width="2" stroke-miterlimit="10" stroke-linecap="round" stroke-linejoin="round"/>
<path d="M10.89 12.25H1L12.25 1V10.89C12.25 11.64 11.64 12.25 10.89 12.25Z" fill="white" stroke="url(#paint1_linear)" stroke-width="2" stroke-miterlimit="10" stroke-linecap="round" stroke-linejoin="round"/>
<path d="M16.4255 29.3431C17.2012 29.3431 17.862 29.5384 18.4079 29.9292C18.9595 30.3199 19.3761 30.8715 19.6576 31.584C19.9392 32.2965 20.08 33.1297 20.08 34.0836V34.2646C20.08 35.1782 19.9363 35.9941 19.649 36.7124C19.3675 37.4307 18.9537 37.9938 18.4079 38.4017C17.862 38.8097 17.2098 39.0137 16.4513 39.0137C15.4515 39.0137 14.6413 38.6775 14.0208 38.0053V42.4269H11.8746V29.5155H13.8484L13.9346 30.4549C14.5609 29.7137 15.3912 29.3431 16.4255 29.3431ZM17.9338 34.0836C17.9338 33.1987 17.7586 32.4804 17.4081 31.9288C17.0633 31.3714 16.5375 31.0927 15.8308 31.0927C14.9918 31.0927 14.3885 31.4404 14.0208 32.1357V36.2297C14.3942 36.9365 15.0033 37.2899 15.848 37.2899C16.549 37.2899 17.0719 37.0083 17.4167 36.4452C17.7614 35.8821 17.9338 35.1552 17.9338 34.2646V34.0836ZM29.6299 25.6024V38.8413H27.6906L27.5872 37.8674C26.9666 38.6316 26.1363 39.0137 25.0963 39.0137C24.3608 39.0137 23.7144 38.8097 23.157 38.4017C22.6054 37.9938 22.1802 37.4307 21.8814 36.7124C21.5826 35.9941 21.4332 35.1839 21.4332 34.2818V34.1008C21.4332 33.1585 21.5797 32.3281 21.8727 31.6099C22.1715 30.8916 22.5968 30.3343 23.1484 29.9378C23.7057 29.5413 24.3608 29.3431 25.1135 29.3431C26.0904 29.3431 26.8804 29.685 27.4838 30.3687V25.6024H29.6299ZM25.6393 37.2554C26.4897 37.2554 27.1045 36.8819 27.4838 36.1349V32.1874C27.1103 31.4576 26.5012 31.0927 25.6565 31.0927C24.9555 31.0927 24.4326 31.3714 24.0879 31.9288C23.7488 32.4862 23.5793 33.2102 23.5793 34.1008V34.2818C23.5793 35.1667 23.746 35.885 24.0792 36.4366C24.4183 36.9825 24.9383 37.2554 25.6393 37.2554ZM36.1632 27.1797C35.692 27.1797 35.3271 27.3061 35.0686 27.5589C34.81 27.8117 34.6807 28.1709 34.6807 28.6363V29.5155H36.5683V31.1014H34.6807V38.8413H32.5346V31.1014H31.1124V29.5155H32.5346V28.6363C32.5346 27.9525 32.6667 27.3693 32.931 26.8866C33.1954 26.404 33.5746 26.0391 34.0688 25.792C34.5629 25.5449 35.149 25.4214 35.8271 25.4214C36.2063 25.4214 36.6028 25.4731 37.0165 25.5765L36.9648 27.2572C36.7407 27.2055 36.4735 27.1797 36.1632 27.1797Z" fill="#D34E92"/>
<defs>
<linearGradient id="paint0_linear" x1="23.5" y1="0" x2="23.5" y2="62" gradientUnits="userSpaceOnUse">
<stop stop-color="#A91572"/>
<stop offset="1" stop-color="#D995BD"/>
</linearGradient>
<linearGradient id="paint1_linear" x1="5.9179" y1="5.9179" x2="12.5577" y2="12.5577" gradientUnits="userSpaceOnUse">
<stop stop-color="#A91572"/>
<stop offset="1" stop-color="#D677AB"/>
</linearGradient>
</defs>
</svg>
