<svg width="116" height="34" viewBox="0 0 116 34" fill="none" xmlns="http://www.w3.org/2000/svg">
<path d="M21.426 3.20227C20.931 1.7113 19.3419 0.900429 17.8571 1.37126C16.3722 1.86825 15.5646 3.46384 16.0336 4.95481L23.3537 27.5547C23.8486 28.941 25.3596 29.7257 26.7923 29.3072C28.3032 28.8625 29.215 27.267 28.7201 25.8021C28.7201 25.7498 21.426 3.20227 21.426 3.20227Z" fill="#ECB32D"/>
<path d="M10.0939 6.8905C9.59898 5.39954 8.00991 4.58866 6.52504 5.05949C5.04018 5.55648 4.23262 7.15207 4.70152 8.64304L12.0217 31.2429C12.5166 32.6293 14.0275 33.414 15.4603 32.9955C16.9712 32.5508 17.883 30.9552 17.388 29.4904C17.388 29.4381 10.0939 6.8905 10.0939 6.8905Z" fill="#63C1A0"/>
<path d="M30.6471 21.905C32.132 21.408 32.9395 19.8124 32.4706 18.3214C31.9757 16.8304 30.3866 16.0196 28.9017 16.4904L6.36822 23.8667C4.98756 24.3637 4.20605 25.8809 4.62285 27.3195C5.06571 28.8366 6.65477 29.7521 8.11359 29.2551C8.16569 29.2551 30.6471 21.905 30.6471 21.905Z" fill="#E01A59"/>
<path d="M11.0579 28.3131C12.5167 27.8423 14.4184 27.2145 16.4503 26.5606C15.9814 25.0957 15.3562 23.1863 14.7049 21.146L9.3125 22.8985L11.0579 28.3131Z" fill="#331433"/>
<path d="M22.4153 24.5992C24.4472 23.9453 26.3489 23.3175 27.8077 22.8467C27.3388 21.3819 26.7136 19.4724 26.0623 17.4321L20.6699 19.1847L22.4153 24.5992Z" fill="#D62027"/>
<path d="M26.9482 10.5263C28.4331 10.0293 29.2406 8.43371 28.7717 6.94275C28.2768 5.45178 26.6877 4.64091 25.2028 5.11174L2.69537 12.4619C1.3147 12.9589 0.533195 14.476 0.949999 15.9147C1.39285 17.4318 2.98192 18.3473 4.44074 17.8503C4.49284 17.8503 26.9482 10.5263 26.9482 10.5263Z" fill="#89D3DF"/>
<path d="M7.38502 16.9088C8.84383 16.438 10.7455 15.8102 12.7774 15.1563C12.1262 13.116 11.501 11.2065 11.0321 9.7417L5.63965 11.4942L7.38502 16.9088Z" fill="#258B74"/>
<path d="M18.7161 13.2208C20.748 12.5669 22.6497 11.9391 24.1085 11.4683C23.4572 9.428 22.832 7.51852 22.3631 6.05371L16.9707 7.80625L18.7161 13.2208Z" fill="#819C3C"/>
<path d="M53.4676 9.14026C54.4576 9.58494 54.5357 9.89882 53.7542 11.3898C52.9466 12.9069 52.7643 13.0115 51.7744 12.6192C50.55 12.096 48.9609 11.7037 47.945 11.7037C46.2778 11.7037 45.1837 12.3053 45.1837 13.2208C45.1837 16.2289 54.7181 14.6071 54.7181 20.9895C54.7181 24.2069 51.9567 26.3517 47.8408 26.3517C45.6786 26.3517 42.9954 25.6193 41.1459 24.6777C40.2341 24.2069 40.156 23.9453 40.9635 22.402C41.6408 21.068 41.8753 20.911 42.8652 21.3296C44.4282 22.0096 46.4341 22.5589 47.7626 22.5589C49.2736 22.5589 50.2895 21.9312 50.2895 21.0418C50.2895 18.1384 40.5728 19.5247 40.5728 13.3254C40.5728 10.0296 43.308 7.8324 47.3979 7.8324C49.3778 7.80624 51.8004 8.3817 53.4676 9.14026Z" fill="#2D333A"/>
<path d="M61.1779 1.55453V25.41C61.1779 25.7762 60.7871 26.1424 60.2661 26.1424H57.7653C57.2182 26.1424 56.8535 25.75 56.8535 25.41V1.55453C56.8535 0.377454 57.1922 0.272825 59.0157 0.272825C61.0997 0.246667 61.1779 0.403611 61.1779 1.55453Z" fill="#2D333A"/>
<path d="M78.944 14.9471V25.2269C78.944 25.7762 78.5532 26.1424 78.0322 26.1424H75.5574C74.9843 26.1424 74.5936 25.7239 74.6457 25.1484L74.6717 24.0498C73.3432 25.5408 71.4155 26.3255 69.4877 26.3255C65.7625 26.3255 63.2617 24.1544 63.2617 20.9371C63.2617 17.5105 66.0752 15.1825 70.3213 15.1825C71.9365 15.1825 73.3953 15.4702 74.5936 15.9672V14.7901C74.5936 12.9068 73.1087 11.7821 70.5818 11.7821C69.4096 11.7821 67.9508 12.2529 66.8046 12.933C65.9188 13.43 65.7104 13.4038 64.7466 11.9652C63.8088 10.5265 63.8348 10.2649 64.7466 9.66332C66.492 8.53856 68.8365 7.80615 70.9986 7.80615C75.8701 7.80615 78.944 10.448 78.944 14.9471ZM67.4298 20.9109C67.4298 22.1403 68.4718 22.9512 70.0087 22.9512C71.8844 22.9512 73.6037 22.0357 74.5936 20.4924V18.8968C73.6037 18.5045 72.3793 18.2952 71.3113 18.2952C68.9667 18.2952 67.4298 19.3938 67.4298 20.9109Z" fill="#2D333A"/>
<path d="M95.8776 9.16633C96.7894 9.68948 96.8154 9.97721 95.8255 11.5205C94.8877 12.9853 94.7314 13.0638 93.7154 12.5668C92.96 12.1744 91.7356 11.8344 90.7457 11.8344C87.6197 11.8344 85.5357 13.9008 85.5357 17.0397C85.5357 20.2832 87.6197 22.4804 90.7457 22.4804C91.8398 22.4804 93.1944 22.0619 94.0802 21.5649C94.9919 21.0417 95.1743 21.0679 96.1381 22.4804C96.9978 23.7882 96.9978 24.1021 96.2163 24.6514C94.8096 25.6193 92.6213 26.3517 90.6676 26.3517C84.8844 26.3517 81.0029 22.6373 81.0029 17.0397C81.0029 11.4943 84.8844 7.80615 90.7197 7.80615C92.4911 7.80615 94.5751 8.40777 95.8776 9.16633Z" fill="#2D333A"/>
<path d="M114.79 23.8935C115.52 24.809 115.233 25.149 113.409 25.8029C111.56 26.483 111.299 26.4307 110.648 25.5937L105.464 18.662L103.146 20.9115V25.4106C103.146 25.7768 102.755 26.143 102.234 26.143H99.733C99.186 26.143 98.8213 25.7506 98.8213 25.4106V1.55514C98.8213 0.378066 99.1599 0.273438 100.983 0.273438C103.094 0.273438 103.146 0.430381 103.146 1.55514V15.1046L110.231 8.27756C111.013 7.54516 111.456 7.59747 112.836 8.51298C114.373 9.50695 114.478 9.79469 113.748 10.5009L108.486 15.6801L114.79 23.8935Z" fill="#2D333A"/>
</svg>
