<svg width="64" height="61" viewBox="0 0 64 61" fill="none" xmlns="http://www.w3.org/2000/svg">
<path d="M62.6698 59.5306C56.8698 54.3806 47.7098 51.8606 43.2298 50.8306C43.1498 50.8106 43.0898 50.7306 43.0898 50.6406V46.0806" stroke="url(#paint0_linear)" stroke-width="2" stroke-miterlimit="10" stroke-linecap="round" stroke-linejoin="round"/>
<path d="M20.57 46.0605V50.5705C20.58 50.6605 20.52 50.7405 20.43 50.7605C15.96 51.8405 6.8 54.3805 1 59.5305" stroke="url(#paint1_linear)" stroke-width="2" stroke-miterlimit="10" stroke-linecap="round" stroke-linejoin="round"/>
<path d="M49.6401 26.7206C50.5101 22.0206 51.5901 10.9106 44.0801 5.29056C44.9601 4.28056 45.4401 2.91056 45.4001 1.50056C45.3901 1.36056 45.3401 1.24056 45.2401 1.15056C45.1501 1.06056 45.0301 1.02056 44.9001 1.03056C44.8001 1.03056 35.4101 2.23056 30.8801 1.18056C26.2401 0.100556 21.1301 4.05056 20.0801 8.10056C18.3301 8.36056 16.7301 9.37056 15.6301 10.9206C13.5801 13.7606 12.9501 18.2806 13.7601 24.3506C13.8101 25.1206 13.9001 25.9206 14.0201 26.6906" fill="white"/>
<path d="M49.6401 26.7206C50.5101 22.0206 51.5901 10.9106 44.0801 5.29056C44.9601 4.28056 45.4401 2.91056 45.4001 1.50056C45.3901 1.36056 45.3401 1.24056 45.2401 1.15056C45.1501 1.06056 45.0301 1.02056 44.9001 1.03056C44.8001 1.03056 35.4101 2.23056 30.8801 1.18056C26.2401 0.100556 21.1301 4.05056 20.0801 8.10056C18.3301 8.36056 16.7301 9.37056 15.6301 10.9206C13.5801 13.7606 12.9501 18.2806 13.7601 24.3506C13.8101 25.1206 13.9001 25.9206 14.0201 26.6906" stroke="url(#paint2_linear)" stroke-width="2" stroke-miterlimit="10" stroke-linecap="round" stroke-linejoin="round"/>
<path d="M16.3305 26.5106C16.3305 26.5106 14.7905 26.0906 13.9305 26.7606C13.0705 27.4306 12.2305 28.3106 13.5805 32.2206C14.9305 36.1306 17.2505 37.1406 17.2805 37.4206C18.0205 42.8406 21.6805 50.2906 27.9705 52.7606C30.4705 53.7606 33.1905 53.7606 35.6905 52.7606C41.7105 50.3206 45.5705 42.9506 46.3305 37.4206C46.3705 37.1406 48.6705 36.1306 50.0305 32.2206C51.3905 28.3006 50.5505 27.4306 49.6805 26.7606C48.8205 26.0906 47.2805 26.5106 47.2805 26.5106C47.2805 26.5106 47.8005 25.1906 48.0105 24.2406C48.2205 23.2906 49.3405 18.3406 45.6105 15.2406C42.3405 16.0606 36.9605 16.3006 29.7305 12.8106C26.2005 11.1206 23.2405 11.0506 20.9405 12.6306C16.3505 15.7706 15.9205 23.8006 16.3305 26.5106Z" fill="white" stroke="url(#paint3_linear)" stroke-width="2" stroke-miterlimit="10" stroke-linecap="round" stroke-linejoin="round"/>
<path d="M29.0703 26.1505C29.9103 25.8505 30.8503 25.6805 31.8503 25.6805C32.8403 25.6805 33.7803 25.8505 34.6303 26.1505" fill="white"/>
<path d="M29.0703 26.1505C29.9103 25.8505 30.8503 25.6805 31.8503 25.6805C32.8403 25.6805 33.7803 25.8505 34.6303 26.1505" stroke="url(#paint4_linear)" stroke-width="2" stroke-miterlimit="10" stroke-linecap="round" stroke-linejoin="round"/>
<path d="M24.5102 33.4005C27.3048 33.4005 29.5702 31.1351 29.5702 28.3405C29.5702 25.546 27.3048 23.2805 24.5102 23.2805C21.7156 23.2805 19.4502 25.546 19.4502 28.3405C19.4502 31.1351 21.7156 33.4005 24.5102 33.4005Z" fill="white" stroke="url(#paint5_linear)" stroke-width="2" stroke-miterlimit="10" stroke-linecap="round" stroke-linejoin="round"/>
<path d="M30.3496 37.8306H34.3896C34.3896 37.8306 36.6896 37.8906 36.6896 35.5806C36.6896 33.2706 34.1096 32.8906 34.1096 28.3406" fill="white"/>
<path d="M30.3496 37.8306H34.3896C34.3896 37.8306 36.6896 37.8906 36.6896 35.5806C36.6896 33.2706 34.1096 32.8906 34.1096 28.3406" stroke="url(#paint6_linear)" stroke-width="2" stroke-miterlimit="10" stroke-linecap="round" stroke-linejoin="round"/>
<path d="M39.1801 33.4005C41.9747 33.4005 44.2401 31.1351 44.2401 28.3405C44.2401 25.546 41.9747 23.2805 39.1801 23.2805C36.3856 23.2805 34.1201 25.546 34.1201 28.3405C34.1201 31.1351 36.3856 33.4005 39.1801 33.4005Z" fill="white" stroke="url(#paint7_linear)" stroke-width="2" stroke-miterlimit="10" stroke-linecap="round" stroke-linejoin="round"/>
<path d="M37.3004 43.0806C36.0303 43.6906 34.2704 44.0606 32.3304 44.0606C30.3904 44.0606 28.6304 43.6806 27.3604 43.0806" fill="white"/>
<path d="M37.3004 43.0806C36.0304 43.6906 34.2704 44.0606 32.3304 44.0606C30.3904 44.0606 28.6304 43.6806 27.3604 43.0806" stroke="url(#paint8_linear)" stroke-width="2" stroke-miterlimit="10" stroke-linecap="round" stroke-linejoin="round"/>
<defs>
<linearGradient id="paint0_linear" x1="52.878" y1="45.0868" x2="52.878" y2="60.5328" gradientUnits="userSpaceOnUse">
<stop stop-color="#A91572"/>
<stop offset="1" stop-color="#D995BD"/>
</linearGradient>
<linearGradient id="paint1_linear" x1="10.7873" y1="45.0648" x2="10.7873" y2="60.5327" gradientUnits="userSpaceOnUse">
<stop stop-color="#A91572"/>
<stop offset="1" stop-color="#D995BD"/>
</linearGradient>
<linearGradient id="paint2_linear" x1="31.8419" y1="0.000555668" x2="31.8419" y2="27.725" gradientUnits="userSpaceOnUse">
<stop stop-color="#A91572"/>
<stop offset="1" stop-color="#D995BD"/>
</linearGradient>
<linearGradient id="paint3_linear" x1="31.8125" y1="10.4927" x2="31.8125" y2="54.5157" gradientUnits="userSpaceOnUse">
<stop stop-color="#A91572"/>
<stop offset="1" stop-color="#D995BD"/>
</linearGradient>
<linearGradient id="paint4_linear" x1="31.8421" y1="24.6824" x2="31.8421" y2="27.1505" gradientUnits="userSpaceOnUse">
<stop stop-color="#A91572"/>
<stop offset="1" stop-color="#D995BD"/>
</linearGradient>
<linearGradient id="paint5_linear" x1="24.5078" y1="22.279" x2="24.5078" y2="34.4053" gradientUnits="userSpaceOnUse">
<stop stop-color="#A91572"/>
<stop offset="1" stop-color="#D995BD"/>
</linearGradient>
<linearGradient id="paint6_linear" x1="33.5213" y1="27.3423" x2="33.5213" y2="38.8344" gradientUnits="userSpaceOnUse">
<stop stop-color="#A91572"/>
<stop offset="1" stop-color="#D995BD"/>
</linearGradient>
<linearGradient id="paint7_linear" x1="39.1762" y1="22.279" x2="39.1762" y2="34.4053" gradientUnits="userSpaceOnUse">
<stop stop-color="#A91572"/>
<stop offset="1" stop-color="#D995BD"/>
</linearGradient>
<linearGradient id="paint8_linear" x1="32.3231" y1="42.0841" x2="32.3231" y2="45.0691" gradientUnits="userSpaceOnUse">
<stop stop-color="#A91572"/>
<stop offset="1" stop-color="#D995BD"/>
</linearGradient>
</defs>
</svg>
