<svg width="240" height="367" viewBox="0 0 240 367" xmlns="http://www.w3.org/2000/svg"><g fill="none" fill-rule="evenodd"><path fill="#E7ECED" d="M77.556 273.955v19.293H8.103l69.453-77.17v30.867zM162.444 216.077l69.453 77.17h-69.453V246.946z"/><path d="M120 88.746c12.812 0 23.151 10.34 23.151 23.151 0 12.812-10.34 23.151-23.151 23.151-12.812 0-23.151-10.34-23.151-23.15 0-12.813 10.34-23.152 23.151-23.152z" fill="#737779"/><path d="M193.312 96.463v38.585h-22.917a26.082 26.082 0 0 1-1.085 2.698l16.21 16.21-27.318 27.319-16.21-16.203c-.845.377-1.772.769-2.699 1.07v22.926h-38.585v-22.925c-.927-.302-1.853-.693-2.702-1.07L81.8 181.198l-27.318-27.243 16.206-16.21a26.95 26.95 0 0 1-1.077-2.699H46.688V96.462H69.61c.306-.927.693-1.853 1.078-2.698l-16.128-16.21L81.8 50.237 98.006 66.44c.848-.376 1.775-.769 2.701-1.07V42.444h38.586v22.925c.926.301 1.853.693 2.697 1.07l16.21-16.203 27.32 27.319-16.211 16.21c.392.844.776 1.771 1.085 2.698h22.918zm-50.16 15.434c0-12.812-10.34-23.151-23.152-23.151-12.812 0-23.151 10.34-23.151 23.151 0 12.812 10.34 23.151 23.151 23.151 12.812 0 23.151-10.34 23.151-23.15z" fill="#AFB6BB"/><path d="M228.039 115.756c0 44.599-27.01 82.882-65.595 99.394V246.945H77.556V215.15c-38.585-16.511-65.595-54.795-65.595-99.394C11.961 56.099 60.347 7.717 120 7.717c59.657 0 108.039 48.382 108.039 108.039zm-34.727 19.292V96.463h-22.917a26.082 26.082 0 0 0-1.085-2.698l16.21-16.21-27.318-27.319-16.21 16.203c-.845-.376-1.772-.769-2.699-1.07V42.444h-38.585v22.925c-.927.301-1.853.693-2.702 1.07L81.8 50.236 54.56 77.555l16.127 16.21a26.95 26.95 0 0 0-1.077 2.698H46.688v38.585H69.61c.306.927.693 1.854 1.078 2.698l-16.207 16.21L81.798 181.2l16.207-16.127c.848.377 1.775.769 2.702 1.07v22.925h38.585v-22.925c.927-.302 1.853-.693 2.698-1.07l16.21 16.202 27.318-27.318-16.21-16.21c.392-.845.776-1.772 1.085-2.699h22.919z" fill="#FFD248"/><path fill="#AFB6BB" d="M162.444 293.248v11.575H77.556v-30.868h84.888z"/><path fill="#E7ECED" d="M77.556 246.945h84.887v27.01H77.556z"/><path fill="#546A79" d="M92.99 304.823h54.019v38.585H92.99z"/><g fill="#231F20"><path d="M87.243 186.67l5.747-5.72v8.118a7.717 7.717 0 0 0 7.717 7.717h38.586a7.717 7.717 0 0 0 7.717-7.717V181l5.736 5.733a7.717 7.717 0 0 0 10.912 0l27.319-27.319a7.718 7.718 0 0 0 0-10.914l-5.735-5.735h8.07a7.717 7.717 0 0 0 7.717-7.717V96.463a7.717 7.717 0 0 0-7.717-7.717h-8.07l5.735-5.735a7.717 7.717 0 0 0 0-10.913L163.658 44.78a7.718 7.718 0 0 0-10.912-.001l-5.736 5.733v-8.068a7.717 7.717 0 0 0-7.717-7.717h-38.586a7.717 7.717 0 0 0-7.717 7.717v8.069l-5.735-5.735a7.718 7.718 0 0 0-5.456-2.26h-.006a7.718 7.718 0 0 0-5.458 2.269l-27.24 27.318a7.716 7.716 0 0 0-.006 10.891l5.719 5.748h-8.12a7.717 7.717 0 0 0-7.717 7.717v38.586a7.717 7.717 0 0 0 7.717 7.717h8.069l-5.734 5.735a7.717 7.717 0 0 0 .008 10.92l27.318 27.244a7.717 7.717 0 0 0 10.894.007zM65.4 153.948l10.744-10.746a7.718 7.718 0 0 0 1.566-8.655 19.116 19.116 0 0 1-.771-1.913 7.718 7.718 0 0 0-7.33-5.303H54.404v-23.15H69.61a7.718 7.718 0 0 0 7.33-5.304c.177-.536.429-1.162.772-1.913a7.716 7.716 0 0 0-1.553-8.64L65.45 77.561l16.357-16.404 10.74 10.74a7.714 7.714 0 0 0 8.592 1.593c.577-.256 1.32-.577 1.954-.783a7.718 7.718 0 0 0 5.33-7.34V50.162h23.152v15.208a7.718 7.718 0 0 0 5.33 7.339c.64.208 1.372.525 1.939.778a7.717 7.717 0 0 0 8.601-1.59L158.2 61.149l16.407 16.407-10.754 10.753a7.717 7.717 0 0 0-1.543 8.707c.31.67.575 1.323.764 1.888a7.717 7.717 0 0 0 7.32 5.277h15.202v23.151h-15.2a7.717 7.717 0 0 0-7.322 5.277 18.381 18.381 0 0 1-.764 1.888 7.716 7.716 0 0 0 1.544 8.707l10.754 10.754-16.408 16.406-10.753-10.748a7.718 7.718 0 0 0-8.602-1.59c-.567.253-1.3.57-1.938.779a7.718 7.718 0 0 0-5.331 7.339v15.207h-23.151v-15.207a7.718 7.718 0 0 0-5.331-7.34c-.633-.205-1.377-.526-1.954-.783a7.712 7.712 0 0 0-8.578 1.582l-10.757 10.705L65.4 153.948z"/><path d="M120 142.765c17.02 0 30.868-13.847 30.868-30.868 0-17.02-13.847-30.868-30.868-30.868-17.02 0-30.868 13.847-30.868 30.868 0 17.02 13.847 30.868 30.868 30.868zm0-46.302c8.51 0 15.434 6.924 15.434 15.434 0 8.51-6.924 15.434-15.434 15.434-8.51 0-15.434-6.924-15.434-15.434 0-8.51 6.924-15.434 15.434-15.434z"/><path d="M237.633 288.085l-63.15-70.167a115.675 115.675 0 0 0 61.273-102.162C235.756 51.928 183.828 0 120 0S4.244 51.928 4.244 115.756c0 43.068 23.752 82.15 61.274 102.162L2.367 288.085a7.716 7.716 0 0 0 5.736 12.88h61.736v3.858a7.717 7.717 0 0 0 7.717 7.717h7.717v30.868a7.717 7.717 0 0 0 7.717 7.717h19.293v15.434h15.434v-15.434h19.293a7.717 7.717 0 0 0 7.717-7.717V312.54h7.717a7.717 7.717 0 0 0 7.717-7.717v-3.858h61.736a7.717 7.717 0 0 0 5.736-12.88zm-152.36-33.423h69.454v11.576H85.273v-11.576zM19.678 115.756C19.678 60.438 64.683 15.434 120 15.434s100.322 45.004 100.322 100.322c0 40.235-23.91 76.465-60.914 92.3a7.716 7.716 0 0 0-4.681 7.094v24.078H85.273V215.15a7.716 7.716 0 0 0-4.68-7.094 100.283 100.283 0 0 1-60.915-92.3zm5.753 169.775l44.408-49.343v49.343H25.431zm113.862 50.16h-38.586v-23.15h38.586v23.15zm15.434-38.585H85.273v-15.434h69.454v15.434zm15.434-11.575v-49.343l44.408 49.343h-44.408z"/></g></g></svg>
