<?xml version="1.0" encoding="UTF-8"?><svg width="350px" height="402px" viewBox="0 0 350 402" version="1.1" xmlns="http://www.w3.org/2000/svg" xmlns:xlink="http://www.w3.org/1999/xlink"><g id="Page-1" stroke="none" stroke-width="1" fill="none" fill-rule="evenodd"><g id="enterprise-innovation-meets-lean-startup" fill="#0070D3"><g id="Page-1"><g id="enterprise-innovation-meets-lean-startup"><rect id="Rectangle-path" x="168.518519" y="0" width="12.962963" height="25.9259259"></rect><rect id="Rectangle-path" transform="translate(126.387625, 25.991362) rotate(59.999272) translate(-126.387625, -25.991362) " x="113.425352" y="19.5100233" width="25.9245454" height="12.9626778"></rect><rect id="Rectangle-path" transform="translate(90.797145, 61.567285) rotate(30.000728) translate(-90.797145, -61.567285) " x="77.8348723" y="55.0859457" width="25.9245454" height="12.9626778"></rect><rect id="Rectangle-path" x="64.8148148" y="103.703704" width="25.9259259" height="12.9629629"></rect><rect id="Rectangle-path" transform="translate(90.806451, 158.796955) rotate(240.007099) translate(-90.806451, -158.796955) " x="84.3248749" y="145.833803" width="12.9631524" height="25.9263047"></rect><rect id="Rectangle-path" transform="translate(259.186766, 158.789154) rotate(30.000728) translate(-259.186766, -158.789154) " x="246.224494" y="152.307815" width="25.9245454" height="12.9626778"></rect><rect id="Rectangle-path" x="259.259259" y="103.703704" width="25.9259259" height="12.9629629"></rect><rect id="Rectangle-path" transform="translate(259.206498, 61.584663) rotate(60.007099) translate(-259.206498, -61.584663) " x="252.724922" y="48.6215111" width="12.9631524" height="25.9263047"></rect><rect id="Rectangle-path" transform="translate(223.615436, 25.983931) rotate(29.992901) translate(-223.615436, -25.983931) " x="217.13386" y="13.0207783" width="12.9631524" height="25.9263047"></rect><path d="M246.296296,110.185185 C246.296296,70.875 214.310185,38.8888889 175,38.8888889 C135.689815,38.8888889 103.703704,70.875 103.703704,110.185185 C103.703704,128.540741 110.587037,145.794444 123.148148,159.081481 L123.148148,162.037037 L110.185185,162.037037 L110.185185,175 L123.148148,175 L123.148148,187.962963 L110.185185,187.962963 L110.185185,200.925926 L123.148148,200.925926 L123.148148,226.851852 L226.851852,226.851852 L226.851852,200.925926 L239.814815,200.925926 L239.814815,187.962963 L226.851852,187.962963 L226.851852,175 L239.814815,175 L239.814815,162.037037 L226.851852,162.037037 L226.851852,159.081481 C239.406481,145.794444 246.296296,128.540741 246.296296,110.185185 Z M213.888889,213.888888 L136.111111,213.888888 L136.111111,200.925926 L213.888889,200.925926 L213.888889,213.888888 Z M213.888889,187.962963 L136.111111,187.962963 L136.111111,175 L213.888889,175 L213.888889,187.962963 Z M215.833334,151.809259 L213.888889,153.714815 L213.888889,162.037037 L181.481481,162.037037 L181.481481,135.190741 C192.629629,132.293519 200.925926,122.234259 200.925926,110.185185 C200.925926,95.8870369 189.298148,84.2592593 175,84.2592593 C160.701852,84.2592593 149.074074,95.8870369 149.074074,110.185185 C149.074074,122.234259 157.363889,132.293519 168.518519,135.190741 L168.518519,162.037037 L136.111112,162.037037 L136.111112,153.714815 L134.166666,151.809259 C122.882407,140.738889 116.666666,125.95463 116.666666,110.185185 C116.666666,78.0175926 142.832407,51.8518519 175,51.8518519 C207.167593,51.8518519 233.333334,78.0175926 233.333334,110.185185 C233.333334,125.95463 227.117593,140.738889 215.833334,151.809259 Z M175,123.148148 C167.850926,123.148148 162.037037,117.334259 162.037037,110.185185 C162.037037,103.036112 167.850926,97.2222221 175,97.2222221 C182.142593,97.2222221 187.962963,103.036112 187.962963,110.185185 C187.962963,117.334259 182.142593,123.148148 175,123.148148 Z" id="Shape"></path><path d="M324.074074,155.555556 C309.775926,155.555556 298.148148,167.183334 298.148148,181.481481 C298.148148,188.001852 300.643519,193.893519 304.629629,198.45 L304.629629,258.228704 C298.569444,255.571296 292.036112,253.788888 285.185185,253.108334 L285.185185,239.814815 L64.8148148,239.814815 L64.8148148,253.108334 C57.9574074,253.79537 51.4305556,255.571296 45.3703704,258.228704 L45.3703704,198.45 C49.3564815,193.893519 51.8518519,188.001852 51.8518519,181.481481 C51.8518519,167.183334 40.2240741,155.555556 25.9259259,155.555556 C11.6277778,155.555556 0,167.183334 0,181.481481 C0,188.001852 2.49537037,193.893519 6.48148148,198.45 L6.48148148,317.592593 C6.48148148,351.140741 32.1092593,378.816666 64.8148148,382.076852 L64.8148148,401.851852 L285.185185,401.851852 L285.185185,382.076852 C317.890741,378.810185 343.518519,351.140741 343.518519,317.592593 L343.518519,198.45 C347.50463,193.893519 350,188.001852 350,181.481481 C350,167.183334 338.372222,155.555556 324.074074,155.555556 Z M12.962963,181.481481 C12.962963,174.332407 18.7768519,168.518519 25.9259259,168.518519 C33.0685185,168.518519 38.8888889,174.332407 38.8888889,181.481481 C38.8888889,188.630556 33.0685185,194.444444 25.9259259,194.444444 C18.7768519,194.444444 12.962963,188.630556 12.962963,181.481481 Z M32.5759259,265.740741 C27.5916666,269.474074 23.1777778,273.887963 19.4444444,278.872222 L19.4444444,206.487037 C21.525,207.031481 23.6768519,207.407407 25.9259259,207.407407 C28.175,207.407407 30.3203704,207.031481 32.4074074,206.487037 L32.4074074,265.740741 L32.5759259,265.740741 Z M64.8148148,285.185185 L51.8518519,285.185185 L51.8518519,298.148148 L64.8148148,298.148148 L64.8148148,311.111112 L51.8518519,311.111112 L51.8518519,324.074074 L64.8148148,324.074074 L64.8148148,337.037037 L51.8518519,337.037037 L51.8518519,350 L64.8148148,350 L64.8148148,368.997222 C39.2777778,365.788889 19.4444444,343.985185 19.4444444,317.592593 C19.4444444,291.2 39.2777778,269.396296 64.8148148,266.187963 L64.8148148,285.185185 Z M207.407407,388.888889 L142.592593,388.888889 L142.592593,362.962963 L207.407407,362.962963 L207.407407,388.888889 Z M272.222222,388.888889 L220.370371,388.888889 L220.370371,350 L129.629629,350 L129.629629,388.888889 L77.7777778,388.888889 L77.7777778,252.777778 L272.222222,252.777778 L272.222222,388.888889 Z M285.185185,368.997222 L285.185185,350 L298.148148,350 L298.148148,337.037037 L285.185185,337.037037 L285.185185,324.074074 L298.148148,324.074074 L298.148148,311.111112 L285.185185,311.111112 L285.185185,298.148148 L298.148148,298.148148 L298.148148,285.185185 L285.185185,285.185185 L285.185185,266.187963 C310.722222,269.396296 330.555556,291.2 330.555556,317.592593 C330.555556,343.985185 310.722222,365.788889 285.185185,368.997222 Z M330.555556,278.872222 C326.822222,273.887963 322.408334,269.474074 317.424074,265.740741 L317.592593,265.740741 L317.592593,206.487037 C319.673148,207.031481 321.825,207.407407 324.074074,207.407407 C326.323148,207.407407 328.468519,207.031481 330.555556,206.487037 L330.555556,278.872222 Z M324.074074,194.444444 C316.925,194.444444 311.111111,188.630556 311.111111,181.481481 C311.111111,174.332407 316.925,168.518519 324.074074,168.518519 C331.216666,168.518519 337.037037,174.332407 337.037037,181.481481 C337.037037,188.630556 331.216666,194.444444 324.074074,194.444444 Z" id="Shape"></path><path d="M123.148148,343.518519 C141.017593,343.518519 155.555556,328.980556 155.555556,311.111111 C155.555556,293.241666 141.017593,278.703704 123.148148,278.703704 C105.278704,278.703704 90.740741,293.241666 90.740741,311.111111 C90.740741,328.980556 105.278704,343.518519 123.148148,343.518519 Z M123.148148,291.666666 C133.868519,291.666666 142.592593,300.390741 142.592593,311.111111 C142.592593,321.831481 133.868519,330.555556 123.148148,330.555556 C112.427778,330.555556 103.703704,321.831481 103.703704,311.111111 C103.703704,300.390741 112.427778,291.666666 123.148148,291.666666 Z" id="Shape"></path><path d="M226.851852,343.518519 C244.721296,343.518519 259.259259,328.980556 259.259259,311.111111 C259.259259,293.241666 244.721296,278.703704 226.851852,278.703704 C208.982407,278.703704 194.444444,293.241666 194.444444,311.111111 C194.444444,328.980556 208.982407,343.518519 226.851852,343.518519 Z M226.851852,291.666666 C237.572222,291.666666 246.296296,300.390741 246.296296,311.111111 C246.296296,321.831481 237.572222,330.555556 226.851852,330.555556 C216.131481,330.555556 207.407407,321.831481 207.407407,311.111111 C207.407407,300.390741 216.131481,291.666666 226.851852,291.666666 Z" id="Shape"></path></g></g></g></g></svg>
