<?xml version="1.0" encoding="UTF-8"?><svg width="400px" height="460px" viewBox="0 0 400 460" version="1.1" xmlns="http://www.w3.org/2000/svg" xmlns:xlink="http://www.w3.org/1999/xlink"><g id="Page-1" stroke="none" stroke-width="1" fill="none" fill-rule="evenodd"><g id="enterprise-innovation-meets-lean-startup" fill="#0070D3"><rect id="Rectangle-path" x="192.592593" y="0" width="14.8148148" height="29.6296296"></rect><rect id="Rectangle-path" transform="translate(144.443000, 29.704414) rotate(59.999272) translate(-144.443000, -29.704414) " x="129.628974" y="22.2971694" width="29.6280519" height="14.8144889"></rect><rect id="Rectangle-path" transform="translate(103.768166, 70.362611) rotate(30.000728) translate(-103.768166, -70.362611) " x="88.9541398" y="62.9553667" width="29.6280519" height="14.8144889"></rect><rect id="Rectangle-path" x="74.0740741" y="118.518519" width="29.6296296" height="14.8148148"></rect><rect id="Rectangle-path" transform="translate(103.778802, 181.482234) rotate(240.007099) translate(-103.778802, -181.482234) " x="96.3712865" y="166.667202" width="14.8150313" height="29.6300625"></rect><rect id="Rectangle-path" transform="translate(296.213447, 181.473319) rotate(30.000728) translate(-296.213447, -181.473319) " x="281.399421" y="174.066074" width="29.6280519" height="14.8144889"></rect><rect id="Rectangle-path" x="296.296296" y="118.518519" width="29.6296296" height="14.8148148"></rect><rect id="Rectangle-path" transform="translate(296.235998, 70.382473) rotate(60.007099) translate(-296.235998, -70.382473) " x="288.828482" y="55.5674414" width="14.8150313" height="29.6300625"></rect><rect id="Rectangle-path" transform="translate(255.560499, 29.695921) rotate(29.992901) translate(-255.560499, -29.695921) " x="248.152983" y="14.8808897" width="14.8150313" height="29.6300625"></rect><path d="M281.481481,125.925926 C281.481481,81 244.925926,44.4444444 200,44.4444444 C155.074074,44.4444444 118.518519,81 118.518519,125.925926 C118.518519,146.903704 126.385185,166.622222 140.740741,181.807407 L140.740741,185.185185 L125.925926,185.185185 L125.925926,200 L140.740741,200 L140.740741,214.814815 L125.925926,214.814815 L125.925926,229.62963 L140.740741,229.62963 L140.740741,259.259259 L259.259259,259.259259 L259.259259,229.62963 L274.074074,229.62963 L274.074074,214.814815 L259.259259,214.814815 L259.259259,200 L274.074074,200 L274.074074,185.185185 L259.259259,185.185185 L259.259259,181.807407 C273.607407,166.622222 281.481481,146.903704 281.481481,125.925926 Z M244.444444,244.444444 L155.555556,244.444444 L155.555556,229.62963 L244.444444,229.62963 L244.444444,244.444444 Z M244.444444,214.814815 L155.555556,214.814815 L155.555556,200 L244.444444,200 L244.444444,214.814815 Z M246.666667,173.496296 L244.444444,175.674074 L244.444444,185.185185 L207.407407,185.185185 L207.407407,154.503704 C220.148148,151.192593 229.62963,139.696296 229.62963,125.925926 C229.62963,109.585185 216.340741,96.2962963 200,96.2962963 C183.659259,96.2962963 170.37037,109.585185 170.37037,125.925926 C170.37037,139.696296 179.844444,151.192593 192.592593,154.503704 L192.592593,185.185185 L155.555556,185.185185 L155.555556,175.674074 L153.333333,173.496296 C140.437037,160.844444 133.333333,143.948148 133.333333,125.925926 C133.333333,89.162963 163.237037,59.2592593 200,59.2592593 C236.762963,59.2592593 266.666667,89.162963 266.666667,125.925926 C266.666667,143.948148 259.562963,160.844444 246.666667,173.496296 Z M200,140.740741 C191.82963,140.740741 185.185185,134.096296 185.185185,125.925926 C185.185185,117.755556 191.82963,111.111111 200,111.111111 C208.162963,111.111111 214.814815,117.755556 214.814815,125.925926 C214.814815,134.096296 208.162963,140.740741 200,140.740741 Z" id="Shape"></path><path d="M370.37037,177.777778 C354.02963,177.777778 340.740741,191.066667 340.740741,207.407407 C340.740741,214.859259 343.592593,221.592593 348.148148,226.8 L348.148148,295.118519 C341.222222,292.081481 333.755556,290.044444 325.925926,289.266667 L325.925926,274.074074 L74.0740741,274.074074 L74.0740741,289.266667 C66.237037,290.051852 58.7777778,292.081481 51.8518519,295.118519 L51.8518519,226.8 C56.4074074,221.592593 59.2592593,214.859259 59.2592593,207.407407 C59.2592593,191.066667 45.9703704,177.777778 29.6296296,177.777778 C13.2888889,177.777778 0,191.066667 0,207.407407 C0,214.859259 2.85185185,221.592593 7.40740741,226.8 L7.40740741,362.962963 C7.40740741,401.303704 36.6962963,432.933333 74.0740741,436.659259 L74.0740741,459.259259 L325.925926,459.259259 L325.925926,436.659259 C363.303704,432.925926 392.592593,401.303704 392.592593,362.962963 L392.592593,226.8 C397.148148,221.592593 400,214.859259 400,207.407407 C400,191.066667 386.711111,177.777778 370.37037,177.777778 Z M14.8148148,207.407407 C14.8148148,199.237037 21.4592593,192.592593 29.6296296,192.592593 C37.7925926,192.592593 44.4444444,199.237037 44.4444444,207.407407 C44.4444444,215.577778 37.7925926,222.222222 29.6296296,222.222222 C21.4592593,222.222222 14.8148148,215.577778 14.8148148,207.407407 Z M37.2296296,303.703704 C31.5333333,307.97037 26.4888889,313.014815 22.2222222,318.711111 L22.2222222,235.985185 C24.6,236.607407 27.0592593,237.037037 29.6296296,237.037037 C32.2,237.037037 34.6518519,236.607407 37.037037,235.985185 L37.037037,303.703704 L37.2296296,303.703704 Z M74.0740741,325.925926 L59.2592593,325.925926 L59.2592593,340.740741 L74.0740741,340.740741 L74.0740741,355.555556 L59.2592593,355.555556 L59.2592593,370.37037 L74.0740741,370.37037 L74.0740741,385.185185 L59.2592593,385.185185 L59.2592593,400 L74.0740741,400 L74.0740741,421.711111 C44.8888889,418.044444 22.2222222,393.125926 22.2222222,362.962963 C22.2222222,332.8 44.8888889,307.881481 74.0740741,304.214815 L74.0740741,325.925926 Z M237.037037,444.444444 L162.962963,444.444444 L162.962963,414.814815 L237.037037,414.814815 L237.037037,444.444444 Z M311.111111,444.444444 L251.851852,444.444444 L251.851852,400 L148.148148,400 L148.148148,444.444444 L88.8888889,444.444444 L88.8888889,288.888889 L311.111111,288.888889 L311.111111,444.444444 Z M325.925926,421.711111 L325.925926,400 L340.740741,400 L340.740741,385.185185 L325.925926,385.185185 L325.925926,370.37037 L340.740741,370.37037 L340.740741,355.555556 L325.925926,355.555556 L325.925926,340.740741 L340.740741,340.740741 L340.740741,325.925926 L325.925926,325.925926 L325.925926,304.214815 C355.111111,307.881481 377.777778,332.8 377.777778,362.962963 C377.777778,393.125926 355.111111,418.044444 325.925926,421.711111 Z M377.777778,318.711111 C373.511111,313.014815 368.466667,307.97037 362.77037,303.703704 L362.962963,303.703704 L362.962963,235.985185 C365.340741,236.607407 367.8,237.037037 370.37037,237.037037 C372.940741,237.037037 375.392593,236.607407 377.777778,235.985185 L377.777778,318.711111 Z M370.37037,222.222222 C362.2,222.222222 355.555556,215.577778 355.555556,207.407407 C355.555556,199.237037 362.2,192.592593 370.37037,192.592593 C378.533333,192.592593 385.185185,199.237037 385.185185,207.407407 C385.185185,215.577778 378.533333,222.222222 370.37037,222.222222 Z" id="Shape"></path><path d="M140.740741,392.592593 C161.162963,392.592593 177.777778,375.977778 177.777778,355.555556 C177.777778,335.133333 161.162963,318.518519 140.740741,318.518519 C120.318519,318.518519 103.703704,335.133333 103.703704,355.555556 C103.703704,375.977778 120.318519,392.592593 140.740741,392.592593 Z M140.740741,333.333333 C152.992593,333.333333 162.962963,343.303704 162.962963,355.555556 C162.962963,367.807407 152.992593,377.777778 140.740741,377.777778 C128.488889,377.777778 118.518519,367.807407 118.518519,355.555556 C118.518519,343.303704 128.488889,333.333333 140.740741,333.333333 Z" id="Shape"></path><path d="M259.259259,392.592593 C279.681481,392.592593 296.296296,375.977778 296.296296,355.555556 C296.296296,335.133333 279.681481,318.518519 259.259259,318.518519 C238.837037,318.518519 222.222222,335.133333 222.222222,355.555556 C222.222222,375.977778 238.837037,392.592593 259.259259,392.592593 Z M259.259259,333.333333 C271.511111,333.333333 281.481481,343.303704 281.481481,355.555556 C281.481481,367.807407 271.511111,377.777778 259.259259,377.777778 C247.007407,377.777778 237.037037,367.807407 237.037037,355.555556 C237.037037,343.303704 247.007407,333.333333 259.259259,333.333333 Z" id="Shape"></path></g></g></svg>
