<svg width="300" height="345" viewBox="0 0 300 345" xmlns="http://www.w3.org/2000/svg"><title>enterprise-innovation-meets-lean-startup</title><g fill="#0070D3" fill-rule="evenodd"><path d="M144.444 0h11.111v22.222h-11.111zM107.588 9.879l11.11 19.244-9.622 5.555-11.11-19.243zM70.982 42.406l19.244 11.11-5.556 9.623-19.244-11.11zM55.556 88.889h22.222V100H55.556zM70.988 146.478l-5.554-9.623 19.247-11.109 5.554 9.623zM215.316 125.74l19.244 11.11-5.556 9.622-19.244-11.11zM222.222 88.889h22.222V100h-22.222zM229.023 42.42l5.554 9.624-19.247 11.109-5.554-9.623zM192.413 9.872l9.623 5.554-11.109 19.247-9.623-5.554zM211.111 94.444c0-33.694-27.417-61.11-61.111-61.11-33.694 0-61.111 27.416-61.111 61.11 0 15.734 5.9 30.523 16.667 41.912v2.533H94.444V150h11.112v11.111H94.444v11.111h11.112v22.222h88.888v-22.222h11.112v-11.11h-11.112V150h11.112v-11.111h-11.112v-2.533c10.762-11.39 16.667-26.178 16.667-41.912zm-27.778 88.89h-66.666v-11.112h66.666v11.111zm0-22.223h-66.666V150h66.666v11.111zM185 130.122l-1.667 1.634v7.133h-27.777v-23.011c9.555-2.484 16.666-11.106 16.666-21.434 0-12.255-9.966-22.222-22.222-22.222-12.256 0-22.222 9.967-22.222 22.222 0 10.328 7.105 18.95 16.666 21.434v23.01h-27.777v-7.132L115 130.122c-9.672-9.489-15-22.16-15-35.678 0-27.572 22.428-50 50-50s50 22.428 50 50c0 13.517-5.328 26.19-15 35.678zm-35-24.566c-6.128 0-11.111-4.984-11.111-11.112 0-6.127 4.983-11.11 11.111-11.11 6.122 0 11.111 4.983 11.111 11.11 0 6.128-4.989 11.112-11.111 11.112z"/><path d="M277.778 133.333c-12.256 0-22.222 9.967-22.222 22.223 0 5.588 2.138 10.638 5.555 14.544v51.239a55.002 55.002 0 0 0-16.667-4.389v-11.394H55.556v11.394a55.12 55.12 0 0 0-16.667 4.389V170.1c3.417-3.906 5.555-8.956 5.555-14.544 0-12.256-9.966-22.223-22.222-22.223C9.967 133.333 0 143.3 0 155.556c0 5.588 2.139 10.638 5.556 14.544v102.122c0 28.756 21.966 52.478 50 55.272v16.95h188.888v-16.95c28.034-2.8 50-26.516 50-55.272V170.1c3.417-3.906 5.556-8.956 5.556-14.544 0-12.256-9.967-22.223-22.222-22.223zM11.11 155.556c0-6.128 4.983-11.112 11.111-11.112 6.122 0 11.111 4.984 11.111 11.112 0 6.127-4.989 11.11-11.11 11.11-6.129 0-11.112-4.983-11.112-11.11zm16.811 72.222a55.983 55.983 0 0 0-11.255 11.255V176.99c1.783.467 3.627.789 5.555.789s3.767-.322 5.556-.79v50.79h.144zm27.634 16.666H44.444v11.112h11.112v11.11H44.444v11.112h11.112v11.11H44.444V300h11.112v16.283c-21.89-2.75-38.89-21.439-38.89-44.06 0-22.623 17-41.312 38.89-44.062v16.283zm122.222 88.89h-55.556V311.11h55.556v22.222zm55.555 0H188.89V300H111.11v33.333H66.667V216.667h166.666v116.666zm11.111-17.05V300h11.112v-11.111h-11.112v-11.111h11.112v-11.111h-11.112v-11.111h11.112v-11.112h-11.112v-16.283c21.89 2.75 38.89 21.439 38.89 44.061s-17 41.311-38.89 44.061zm38.89-77.25a55.983 55.983 0 0 0-11.256-11.256h.144v-50.79c1.784.468 3.628.79 5.556.79s3.766-.322 5.555-.79v62.045zm-5.556-72.367c-6.128 0-11.111-4.984-11.111-11.111 0-6.128 4.983-11.112 11.11-11.112 6.123 0 11.112 4.984 11.112 11.112 0 6.127-4.989 11.11-11.111 11.11z"/><path d="M105.556 294.444c15.316 0 27.777-12.46 27.777-27.777s-12.46-27.778-27.777-27.778-27.778 12.461-27.778 27.778c0 15.316 12.46 27.777 27.778 27.777zm0-44.444c9.188 0 16.666 7.478 16.666 16.667 0 9.189-7.478 16.666-16.666 16.666-9.19 0-16.667-7.477-16.667-16.666 0-9.19 7.478-16.667 16.667-16.667zM194.444 294.444c15.317 0 27.778-12.46 27.778-27.777s-12.46-27.778-27.778-27.778c-15.316 0-27.777 12.461-27.777 27.778 0 15.316 12.46 27.777 27.777 27.777zm0-44.444c9.19 0 16.667 7.478 16.667 16.667 0 9.189-7.478 16.666-16.667 16.666-9.188 0-16.666-7.477-16.666-16.666 0-9.19 7.478-16.667 16.666-16.667z"/></g></svg>
