<?xml version="1.0" encoding="UTF-8"?>
<svg width="300px" height="345px" viewBox="0 0 300 345" version="1.1" xmlns="http://www.w3.org/2000/svg" xmlns:xlink="http://www.w3.org/1999/xlink">
    <!-- Generator: Sketch 41.2 (35397) - http://www.bohemiancoding.com/sketch -->
    <title>enterprise-innovation-meets-lean-startup</title>
    <desc>Created with Sketch.</desc>
    <defs></defs>
    <g id="Page-1" stroke="none" stroke-width="1" fill="none" fill-rule="evenodd">
        <g id="enterprise-innovation-meets-lean-startup" fill="#0070D3">
            <rect id="Rectangle-path" x="144.444445" y="0" width="11.1111111" height="22.2222222"></rect>
            <rect id="Rectangle-path" transform="translate(108.332250, 22.278310) rotate(59.999272) translate(-108.332250, -22.278310) " x="97.2217303" y="16.7228768" width="22.2210389" height="11.1108667"></rect>
            <rect id="Rectangle-path" transform="translate(77.826124, 52.771958) rotate(30.000728) translate(-77.826124, -52.771958) " x="66.715605" y="47.2165249" width="22.2210389" height="11.1108667"></rect>
            <rect id="Rectangle-path" x="55.5555555" y="88.8888891" width="22.2222222" height="11.1111111"></rect>
            <rect id="Rectangle-path" transform="translate(77.834101, 136.111675) rotate(240.007099) translate(-77.834101, -136.111675) " x="72.2784643" y="125.000402" width="11.1112735" height="22.2225469"></rect>
            <rect id="Rectangle-path" transform="translate(222.160086, 136.104989) rotate(30.000728) translate(-222.160086, -136.104989) " x="211.049566" y="130.549556" width="22.2210389" height="11.1108667"></rect>
            <rect id="Rectangle-path" x="222.222222" y="88.8888891" width="22.2222222" height="11.1111111"></rect>
            <rect id="Rectangle-path" transform="translate(222.176998, 52.786854) rotate(60.007099) translate(-222.176998, -52.786854) " x="216.621361" y="41.6755809" width="11.1112735" height="22.2225469"></rect>
            <rect id="Rectangle-path" transform="translate(191.670374, 22.271941) rotate(29.992901) translate(-191.670374, -22.271941) " x="186.114737" y="11.1606672" width="11.1112735" height="22.2225469"></rect>
            <path d="M211.111111,94.4444443 C211.111111,60.75 183.694444,33.3333333 150,33.3333333 C116.305556,33.3333333 88.8888891,60.75 88.8888891,94.4444443 C88.8888891,110.177778 94.7888889,124.966666 105.555555,136.355555 L105.555555,138.888889 L94.4444443,138.888889 L94.4444443,150 L105.555555,150 L105.555555,161.111111 L94.4444443,161.111111 L94.4444443,172.222222 L105.555555,172.222222 L105.555555,194.444445 L194.444445,194.444445 L194.444445,172.222222 L205.555556,172.222222 L205.555556,161.111111 L194.444445,161.111111 L194.444445,150 L205.555556,150 L205.555556,138.888889 L194.444445,138.888889 L194.444445,136.355555 C205.205555,124.966666 211.111111,110.177778 211.111111,94.4444443 Z M183.333333,183.333333 L116.666667,183.333333 L116.666667,172.222222 L183.333333,172.222222 L183.333333,183.333333 Z M183.333333,161.111111 L116.666667,161.111111 L116.666667,150 L183.333333,150 L183.333333,161.111111 Z M185.000001,130.122222 L183.333333,131.755556 L183.333333,138.888889 L155.555555,138.888889 L155.555555,115.877778 C165.111111,113.394445 172.222222,104.772222 172.222222,94.4444443 C172.222222,82.1888888 162.255555,72.2222223 150,72.2222223 C137.744445,72.2222223 127.777778,82.1888888 127.777778,94.4444443 C127.777778,104.772222 134.883333,113.394445 144.444445,115.877778 L144.444445,138.888889 L116.666667,138.888889 L116.666667,131.755556 L114.999999,130.122222 C105.327777,120.633333 99.9999994,107.961111 99.9999994,94.4444443 C99.9999994,66.8722222 122.427777,44.4444445 150,44.4444445 C177.572223,44.4444445 200.000001,66.8722222 200.000001,94.4444443 C200.000001,107.961111 194.672223,120.633333 185.000001,130.122222 Z M150,105.555555 C143.872222,105.555555 138.888889,100.572222 138.888889,94.4444443 C138.888889,88.3166674 143.872222,83.3333332 150,83.3333332 C156.122223,83.3333332 161.111111,88.3166674 161.111111,94.4444443 C161.111111,100.572222 156.122223,105.555555 150,105.555555 Z" id="Shape"></path>
            <path d="M277.777778,133.333334 C265.522222,133.333334 255.555555,143.300001 255.555555,155.555555 C255.555555,161.144445 257.694445,166.194445 261.111111,170.1 L261.111111,221.338889 C255.916666,219.061111 250.316667,217.533333 244.444444,216.950001 L244.444444,205.555556 L55.5555555,205.555556 L55.5555555,216.950001 C49.6777778,217.538889 44.0833334,219.061111 38.8888889,221.338889 L38.8888889,170.1 C42.3055556,166.194445 44.4444445,161.144445 44.4444445,155.555555 C44.4444445,143.300001 34.4777778,133.333334 22.2222222,133.333334 C9.96666669,133.333334 0,143.300001 0,155.555555 C0,161.144445 2.13888889,166.194445 5.55555555,170.1 L5.55555555,272.222223 C5.55555555,300.977778 27.5222223,324.699999 55.5555555,327.494445 L55.5555555,344.444445 L244.444444,344.444445 L244.444444,327.494445 C272.477778,324.694444 294.444445,300.977778 294.444445,272.222223 L294.444445,170.1 C297.861111,166.194445 300,161.144445 300,155.555555 C300,143.300001 290.033333,133.333334 277.777778,133.333334 Z M11.1111111,155.555555 C11.1111111,149.427777 16.0944445,144.444445 22.2222222,144.444445 C28.3444444,144.444445 33.3333333,149.427777 33.3333333,155.555555 C33.3333333,161.683334 28.3444444,166.666666 22.2222222,166.666666 C16.0944445,166.666666 11.1111111,161.683334 11.1111111,155.555555 Z M27.9222222,227.777778 C23.6499999,230.977778 19.8666667,234.761111 16.6666666,239.033333 L16.6666666,176.988889 C18.45,177.455555 20.2944445,177.777777 22.2222222,177.777777 C24.15,177.777777 25.9888889,177.455555 27.7777778,176.988889 L27.7777778,227.777778 L27.9222222,227.777778 Z M55.5555555,244.444444 L44.4444445,244.444444 L44.4444445,255.555555 L55.5555555,255.555555 L55.5555555,266.666667 L44.4444445,266.666667 L44.4444445,277.777778 L55.5555555,277.777778 L55.5555555,288.888889 L44.4444445,288.888889 L44.4444445,300 L55.5555555,300 L55.5555555,316.283333 C33.6666667,313.533333 16.6666666,294.844444 16.6666666,272.222223 C16.6666666,249.6 33.6666667,230.911111 55.5555555,228.161111 L55.5555555,244.444444 Z M177.777777,333.333333 L122.222223,333.333333 L122.222223,311.111111 L177.777777,311.111111 L177.777777,333.333333 Z M233.333333,333.333333 L188.888889,333.333333 L188.888889,300 L111.111111,300 L111.111111,333.333333 L66.6666667,333.333333 L66.6666667,216.666667 L233.333333,216.666667 L233.333333,333.333333 Z M244.444444,316.283333 L244.444444,300 L255.555555,300 L255.555555,288.888889 L244.444444,288.888889 L244.444444,277.777778 L255.555555,277.777778 L255.555555,266.666667 L244.444444,266.666667 L244.444444,255.555555 L255.555555,255.555555 L255.555555,244.444444 L244.444444,244.444444 L244.444444,228.161111 C266.333333,230.911111 283.333334,249.6 283.333334,272.222223 C283.333334,294.844444 266.333333,313.533333 244.444444,316.283333 Z M283.333334,239.033333 C280.133333,234.761111 276.350001,230.977778 272.077778,227.777778 L272.222223,227.777778 L272.222223,176.988889 C274.005555,177.455555 275.85,177.777777 277.777778,177.777777 C279.705555,177.777777 281.544445,177.455555 283.333334,176.988889 L283.333334,239.033333 Z M277.777778,166.666666 C271.65,166.666666 266.666667,161.683334 266.666667,155.555555 C266.666667,149.427777 271.65,144.444445 277.777778,144.444445 C283.899999,144.444445 288.888889,149.427777 288.888889,155.555555 C288.888889,161.683334 283.899999,166.666666 277.777778,166.666666 Z" id="Shape"></path>
            <path d="M105.555555,294.444445 C120.872223,294.444445 133.333334,281.983334 133.333334,266.666667 C133.333334,251.349999 120.872223,238.888889 105.555555,238.888889 C90.2388891,238.888889 77.777778,251.349999 77.777778,266.666667 C77.777778,281.983334 90.2388891,294.444445 105.555555,294.444445 Z M105.555555,249.999999 C114.744445,249.999999 122.222223,257.477778 122.222223,266.666667 C122.222223,275.855555 114.744445,283.333334 105.555555,283.333334 C96.3666669,283.333334 88.8888891,275.855555 88.8888891,266.666667 C88.8888891,257.477778 96.3666669,249.999999 105.555555,249.999999 Z" id="Shape"></path>
            <path d="M194.444445,294.444445 C209.761111,294.444445 222.222222,281.983334 222.222222,266.666667 C222.222222,251.349999 209.761111,238.888889 194.444445,238.888889 C179.127777,238.888889 166.666666,251.349999 166.666666,266.666667 C166.666666,281.983334 179.127777,294.444445 194.444445,294.444445 Z M194.444445,249.999999 C203.633333,249.999999 211.111111,257.477778 211.111111,266.666667 C211.111111,275.855555 203.633333,283.333334 194.444445,283.333334 C185.255555,283.333334 177.777777,275.855555 177.777777,266.666667 C177.777777,257.477778 185.255555,249.999999 194.444445,249.999999 Z" id="Shape"></path>
        </g>
    </g>
</svg>
