<svg width="94" height="82" viewBox="0 0 94 82" xmlns="http://www.w3.org/2000/svg"><path d="M25.108.913c-6.412 0-12.867 2.472-17.744 7.349-9.753 9.753-9.753 25.734 0 35.487l.388.368.307.338 7.271 7.271.12.128 27.6 27.6c2.178 2.177 5.707 2.177 7.885 0l34.995-34.993.163-.181.542-.516c9.752-9.752 9.752-25.732 0-35.485-9.753-9.753-25.734-9.753-35.487 0l-.377.394-.329.301-3.446 3.446-3.45-3.452-.179-.163-.516-.542c-4.877-4.877-11.331-7.349-17.744-7.349zm43.784 11.135c3.556 0 7.113 1.371 9.859 4.117 5.491 5.491 5.491 14.224 0 19.715-.17.17-.345.335-.518.492-.167.153-.324.316-.471.488l-30.769 30.767-23.533-23.533-.12-.128-6.999-6.999c-.175-.218-.367-.423-.573-.612-.187-.169-.362-.333-.518-.49-5.491-5.49-5.491-14.226 0-19.717 2.745-2.745 6.281-4.082 9.858-4.082 3.577 0 7.114 1.337 9.858 4.082.157.157.321.331.49.518.15.162.309.316.477.46l7.12 7.123c2.178 2.177 5.707 2.177 7.885 0l7.012-7.012c.21-.171.407-.356.59-.555.146-.161.31-.334.492-.516 2.745-2.745 6.302-4.117 9.858-4.117z" fill="#fff"/></svg>
