<?xml version="1.0" encoding="UTF-8" standalone="no"?>
<svg width="1600px" height="607px" viewBox="0 0 1600 607" version="1.1" xmlns="http://www.w3.org/2000/svg" xmlns:xlink="http://www.w3.org/1999/xlink">
    <!-- Generator: Sketch 3.8.1 (29687) - http://www.bohemiancoding.com/sketch -->
    <title>Group 22</title>
    <desc>Created with Sketch.</desc>
    <defs>
        <rect id="path-1" x="0" y="0" width="1600" height="607"></rect>
        <polygon id="path-3" points="0.0600161111 1622.2018 1235.90611 1622.2018 1235.90611 0.504667897 0.0600161111 0.504667897 0.0600161111 1622.2018"></polygon>
    </defs>
    <g id="Desktop-design" stroke="none" stroke-width="1" fill="none" fill-rule="evenodd">
        <g id="Home-page-v2" transform="translate(0.000000, -5290.000000)">
            <g id="Group-22" transform="translate(0.000000, 5290.000000)">
                <mask id="mask-2" fill="white">
                    <use xlink:href="#path-1"></use>
                </mask>
                <use id="Mask" fill="#642EE1" xlink:href="#path-1"></use>
                <g id="slack_cmyk" opacity="0.2" mask="url(#mask-2)">
                    <g transform="translate(-9.956441, -499.000000)">
                        <g id="Group-4" stroke-width="1" fill="none" transform="translate(190.195056, 0.000000)">
                            <mask id="mask-4" fill="white">
                                <use xlink:href="#path-3"></use>
                            </mask>
                            <g id="Clip-2"></g>
                            <path d="M857.404613,100.413148 C832.847771,24.4913361 751.667141,-17.0548033 676.089286,7.62277869 C600.498185,32.2870574 559.133019,113.822852 583.703106,189.731361 L955.790927,1339.56034 C981.341169,1410.48012 1057.62103,1450.33675 1130.84121,1429.17123 C1207.21379,1407.08779 1253.77112,1325.61851 1229.39972,1250.28204 C1228.47254,1247.40853 857.404613,100.413148 857.404613,100.413148" id="Fill-1" fill="#DFA22F" mask="url(#mask-4)"></path>
                            <path d="M280.861873,288.561418 C256.291785,212.65291 175.111155,171.10677 99.5333001,195.771049 C23.9421997,220.435328 -17.422967,301.971123 7.14712082,377.892934 L379.234942,1527.72192 C404.785184,1598.6417 481.065041,1638.49832 554.285228,1617.3195 C630.657803,1595.24936 677.215139,1513.78008 652.843731,1438.43031 C651.916558,1435.57011 280.861873,288.561418 280.861873,288.561418" id="Fill-3" fill="#3CB187" mask="url(#mask-4)"></path>
                        </g>
                        <path d="M1515.95455,1052.70175 C1591.54565,1028.03747 1632.89757,946.501672 1608.34073,870.579861 C1583.78389,794.671352 1502.60326,753.125213 1427.0254,777.789492 L282.205009,1151.5185 C211.594153,1177.16722 171.911143,1253.7808 192.984463,1327.32133 C214.971712,1404.02803 296.086115,1450.78906 371.094421,1426.31102 C373.955412,1425.3798 1515.95455,1052.70175 1515.95455,1052.70175" id="Fill-5" fill="#CE1E5B"></path>
                        <path d="M520.80639,1377.46139 C595.324619,1353.14299 691.366509,1321.80047 794.428425,1288.16978 C770.215961,1213.32553 739.009963,1116.85016 705.512522,1013.32404 L431.877242,1102.65556 L520.80639,1377.46139" id="Fill-6" fill="#392538"></path>
                        <g id="Group-10" stroke-width="1" fill="none" transform="translate(0.000000, 191.367284)">
                            <path d="M1097.36238,997.932527 C1200.80841,964.182109 1296.95626,932.799675 1370.98441,908.640921 C1346.77195,833.796675 1315.5527,737.294691 1282.05526,633.74197 L1008.41998,723.073486 L1097.36238,997.932527" id="Fill-7" fill="#BB242A"></path>
                            <path d="M1328.62584,282.256044 C1404.2037,257.591765 1445.56887,176.05597 1421.01202,100.134158 C1396.45518,24.2256501 1315.27455,-17.3204892 1239.68345,7.34378946 L94.8630561,381.072798 C24.2521999,406.721519 -15.4308099,483.335101 5.65575607,556.875626 C27.6297591,633.58233 108.744162,680.343355 183.765714,655.865322 C186.61346,654.934093 1328.62584,282.256044 1328.62584,282.256044" id="Fill-9" fill="#72C5CD"></path>
                        </g>
                        <path d="M333.424701,798.39627 C407.94293,774.077877 504.011311,742.722049 607.086472,709.091361 C573.483069,605.179451 542.237335,508.610951 518.183815,434.245623 L244.482308,523.590443 L333.424701,798.39627" id="Fill-11" fill="#248C73"></path>
                        <path d="M909.967442,610.248 C1013.43996,576.484279 1109.60106,545.101844 1183.64246,520.929787 C1150.02581,417.004574 1118.78007,320.409467 1094.71331,246.030836 L821.025048,335.375656 L909.967442,610.248" id="Fill-12" fill="#62803A"></path>
                    </g>
                </g>
            </g>
        </g>
    </g>
</svg>
