<?xml version="1.0" encoding="UTF-8" standalone="no"?>
<svg width="36px" height="36px" viewBox="0 0 36 36" version="1.1" xmlns="http://www.w3.org/2000/svg" xmlns:xlink="http://www.w3.org/1999/xlink">
    <!-- Generator: Sketch 3.8.1 (29687) - http://www.bohemiancoding.com/sketch -->
    <title>Page 1</title>
    <desc>Created with Sketch.</desc>
    <defs>
        <polygon id="path-1" points="17.9943845 35.7482517 0 35.7482517 0 0.00956643357 17.9943845 0.00956643357 35.988769 0.00956643357 35.988769 35.7482517"></polygon>
    </defs>
    <g id="Page-1" stroke="none" stroke-width="1" fill="none" fill-rule="evenodd">
        <g>
            <path d="M16.8514479,20.3494406 L20.2379831,19.2563497 L19.1374479,15.8937483 L15.7511662,16.9865874 L16.8514479,20.3494406 Z M16.0206592,34.7318182 C14.3337296,34.7318182 12.8148845,33.6732168 12.2411662,32.098028 L11.6887437,30.4125734 L10.0269127,30.9487972 C9.64739155,31.0708951 9.25139155,31.1333287 8.85158873,31.1333287 C7.08556056,31.1333287 5.50587042,29.9377762 5.00947606,28.2256364 C4.42612394,26.2134126 5.52184225,24.0790909 7.50387042,23.3668951 L9.20296901,22.8180839 L8.10192676,19.4542238 C8.10192676,19.4542238 6.44389859,19.9891888 6.43705352,19.9914545 C6.06184225,20.1127972 5.66584225,20.174979 5.26578592,20.174979 C3.50001127,20.174979 1.92006761,18.9794266 1.42392676,17.2675385 C0.840574648,15.2550629 1.93603944,13.1207413 3.91832113,12.4087972 L5.61615211,11.859986 L5.10530704,10.2999021 C4.77344789,9.28535664 4.85913803,8.20309091 5.34691268,7.25248951 C5.83468732,6.30188811 6.6659831,5.59699301 7.68767324,5.2672028 C8.09102535,5.13704895 8.50958873,5.07109091 8.93119437,5.07109091 C10.6782085,5.07109091 12.215307,6.18029371 12.7555606,7.83125874 L13.2658986,9.39109091 L16.6511662,8.29825175 L16.1410817,6.73917483 C15.4555606,4.64488112 16.6138986,2.3872028 18.7231944,1.70672727 C19.1268,1.57657343 19.5451099,1.51036364 19.966462,1.51036364 C21.7139831,1.51036364 23.2508282,2.61981818 23.7910817,4.27078322 L24.3009127,5.82935664 L25.8702085,5.32309091 C26.2738141,5.19268531 26.6921239,5.12672727 27.1137296,5.12672727 C28.8609972,5.12672727 30.3980958,6.23593007 30.9380958,7.88714685 C31.6236169,9.98144056 30.4650254,12.2391189 28.3559831,12.9195944 L26.7866873,13.4258601 L27.8867155,16.7877063 L29.4557577,16.2811888 C29.8593634,16.151035 30.2776732,16.0850769 30.6995324,16.0850769 C32.4465465,16.0850769 33.9836451,17.1942797 34.5238986,18.844993 C35.2091662,20.9397902 34.0505746,23.1974685 31.9415324,23.8779441 L30.3722366,24.3842098 C30.7008,25.3881818 30.9013352,26.0011888 30.9102085,26.0281259 C31.2354761,27.0225315 31.1373634,28.0864196 30.6343775,29.026951 C30.1194761,29.9893846 29.2212507,30.7139161 28.1696451,31.0145035 C27.8060958,31.1184755 27.4316451,31.1710909 27.0561803,31.1710909 L27.0559268,31.1710909 C25.3692507,31.1708392 23.8504056,30.1124895 23.2766873,28.5375524 L22.7242648,26.8518462 L19.3367155,27.9446853 C19.6716169,28.968042 19.8741803,29.5870909 19.8772225,29.5961538 C20.1999549,30.5827552 20.1018423,31.6468951 19.5988563,32.5871748 C19.0842085,33.5501119 18.1859831,34.2743916 17.1341239,34.5752308 C16.7708282,34.6792028 16.3961239,34.7318182 16.0206592,34.7318182 L16.0206592,34.7318182 Z" id="Fill-1" fill="#FEFEFE"></path>
            <g id="Group-5" transform="translate(0.000000, 0.242182)">
                <mask id="mask-2" fill="white">
                    <use xlink:href="#path-1"></use>
                </mask>
                <g id="Clip-4"></g>
                <path d="M19.9667408,0.00956643357 L19.9667408,0.00956643357 C19.4120366,0.00956643357 18.8616423,0.0961678322 18.3312761,0.267356643 C15.5575014,1.16232168 14.034093,4.13144056 14.9353606,6.88606993 L15.0540085,7.24808392 L14.0797268,7.56251748 L13.9610789,7.20025175 C13.2507127,5.02917483 11.2293887,3.57029371 8.93121972,3.57004196 C8.37651549,3.57004196 7.82637465,3.6568951 7.29600845,3.82783217 C4.52198028,4.72304895 2.99857183,7.69216783 3.89983944,10.4465455 L4.01874085,10.8098182 L3.56595211,10.9558322 L3.52640282,10.9686713 L3.48710704,10.9827692 C0.879895775,11.9195245 -0.561625352,14.7265175 0.205783099,17.3733986 C0.857332394,19.6215105 2.9382338,21.1914126 5.26606479,21.1914126 C5.7989662,21.1914126 6.32679718,21.1085874 6.8346,20.9446993 L7.2881493,20.7984336 L7.60555775,21.7679161 L7.15150141,21.9141818 L7.11195211,21.927021 L7.07290986,21.9411189 C4.46544507,22.8778741 3.02417746,25.6848671 3.79133239,28.3317483 C4.44288169,30.5798601 6.5237831,32.150014 8.85161408,32.150014 C9.38476901,32.150014 9.91234648,32.0669371 10.4201493,31.903049 L10.8749662,31.7562797 L11.0220085,32.2059021 L11.034938,32.2451748 L11.0491352,32.2841958 C11.8038676,34.3560839 13.8018676,35.7482517 16.0206845,35.7482517 C16.5147972,35.7482517 17.0073887,35.679021 17.484769,35.5425734 C18.8646845,35.1480839 20.0433042,34.197986 20.718431,32.9357203 C21.3839239,31.6913287 21.5127127,30.2792727 21.0809662,28.9601119 L20.9339239,28.5107413 L21.4990225,28.3284755 L21.9104873,28.1958042 L22.0575296,28.6451748 L22.0704592,28.6846993 L22.0846563,28.7234685 C22.8393887,30.7956084 24.8373887,32.1877762 27.0562056,32.1877762 C27.5503183,32.1877762 28.0429099,32.1185455 28.5202901,31.9820979 C29.9002056,31.5876084 31.0788254,30.6375105 31.7539521,29.3752448 C32.4194451,28.1306014 32.5482338,26.7187972 32.1164873,25.3993846 L31.9856704,24.9991049 L31.9694451,24.9502657 L32.3332479,24.8326993 C35.1072761,23.9377343 36.6306845,20.9688671 35.7294169,18.2142378 C35.0187972,16.0429091 32.9974732,14.584028 30.6993042,14.584028 C30.1446,14.584028 29.5944592,14.6708811 29.0643465,14.8418182 L28.7005437,14.9593846 L28.3838958,13.9919161 L28.7476986,13.8743497 C30.0913606,13.4408392 31.1845437,12.5136503 31.8262056,11.2637203 C32.4676141,10.0135385 32.580431,8.59015385 32.1436141,7.25588811 C31.4332479,5.08481119 29.4119239,3.62593007 27.1137549,3.62567832 C26.5590507,3.62567832 26.0089099,3.71253147 25.4785437,3.88346853 L25.1147408,4.00103497 L24.9966,3.63977622 C24.2862338,1.46844755 22.2649099,0.00981818182 19.9667408,0.00956643357 L19.9667408,0.00956643357 Z M16.0376704,21.6933986 L21.8354451,19.8221538 L19.9510225,14.0656783 C18.0617831,14.6751608 16.0473042,15.3251748 14.1537549,15.9361678 C14.7677831,17.8124476 15.4223746,19.8130909 16.0376704,21.6933986 L16.0376704,21.6933986 Z M19.9664873,2.52704895 C21.1276141,2.52704895 22.2073606,3.2619021 22.5853606,4.41767832 C22.5853606,4.41767832 22.938769,5.49742657 23.4871352,7.17331469 L26.2619239,6.27784615 C26.5448535,6.18646154 26.8315859,6.14316084 27.1137549,6.14316084 C28.2746282,6.14341259 29.3543746,6.87801399 29.7326282,8.03379021 C30.2026563,9.47051748 29.4109099,11.0134825 27.9643183,11.4802238 C27.9643183,11.4802238 26.8769662,11.8309091 25.1892761,12.3754406 C25.8033042,14.2514685 26.4576423,16.2518601 27.072938,18.1316643 L29.8477268,17.2361958 C30.1304028,17.1448112 30.4171352,17.1015105 30.6993042,17.1015105 C31.8601775,17.1015105 32.9401775,17.8363636 33.3181775,18.9921399 C33.7882056,20.4288671 32.9967127,21.9718322 31.5498676,22.4385734 C31.5498676,22.4385734 30.462769,22.7892587 28.7750789,23.3337902 C29.3366282,25.0502098 29.7014451,26.1652028 29.7055014,26.1775385 C30.1719803,27.6031888 29.2808535,29.1448951 27.8190507,29.5627972 C27.5645155,29.6355524 27.3082056,29.6702937 27.0562056,29.6702937 C25.9194169,29.6702937 24.8688254,28.9653986 24.4685155,27.867021 L23.5378394,25.0235245 C21.648093,25.6332587 19.633107,26.2835245 17.7395577,26.8945175 C18.301107,28.6109371 18.6659239,29.7256783 18.6699803,29.738014 C19.1364592,31.1639161 18.2453324,32.7056224 16.7835296,33.1232727 C16.5289944,33.196028 16.2726845,33.2307692 16.0206845,33.2307692 C14.8838958,33.2307692 13.8333042,32.5261259 13.4329944,31.4277483 L12.5023183,28.5842517 C10.7727972,29.1421259 9.64919155,29.5046434 9.63676901,29.5086713 C9.37640282,29.5927552 9.11248732,29.6322797 8.85161408,29.6322797 C7.67527606,29.6322797 6.57220563,28.8236643 6.22767042,27.6354126 C5.82431831,26.2437483 6.58386761,24.7939301 7.93538873,24.3085594 L10.8001775,23.3838881 L10.8001775,23.3838881 L8.91550141,17.6261538 C7.18648732,18.184028 6.06338873,18.5462937 6.05121972,18.5503217 C5.79085352,18.6344056 5.52668451,18.6739301 5.26606479,18.6739301 C4.08947324,18.6739301 2.98640282,17.8653147 2.64212113,16.6770629 C2.23851549,15.2853986 2.99806479,13.8355804 4.34958592,13.3502098 L7.21336056,12.4257902 L6.31107887,9.66864336 C5.84079718,8.23191608 6.63254366,6.68895105 8.07938873,6.22220979 C8.36206479,6.13107692 8.64879718,6.08752448 8.9309662,6.08752448 C10.092093,6.08777622 11.1718394,6.82237762 11.5498394,7.97815385 C11.5498394,7.97815385 11.9035014,9.05840559 12.4521211,10.735049 L18.2486282,8.86405594 L17.3466,6.10791608 C16.8763183,4.67144056 17.6680648,3.12847552 19.1149099,2.66173427 C19.3975859,2.57034965 19.6843183,2.52704895 19.9664873,2.52704895 L19.9664873,2.52704895 Z" id="Fill-3" fill="#FEFEFE" mask="url(#mask-2)"></path>
            </g>
            <path d="M22.5854873,4.65983497 C22.1154592,3.22335944 20.5616282,2.43714965 19.1147831,2.90389091 C17.6681915,3.37063217 16.8764451,4.9135972 17.3464732,6.35007273 L24.4686423,28.1091776 C24.957431,29.4514993 26.4174592,30.2054853 27.8189239,29.8049538 C29.2807268,29.3870517 30.172107,27.8453455 29.7053746,26.4196951 C29.6876282,26.3655692 22.5854873,4.65983497 22.5854873,4.65983497" id="Fill-6" fill="#E9A823"></path>
            <path d="M11.5499915,8.22043636 C11.0799634,6.78396084 9.52613239,5.99775105 8.07928732,6.46449231 C6.63269577,6.93123357 5.8409493,8.4741986 6.31097746,9.91067413 L13.4331465,31.669779 C13.9219352,33.0121007 15.3819634,33.7660867 16.7834282,33.3655552 C18.245231,32.9476531 19.1366113,31.4059469 18.6698789,29.9802965 C18.6521324,29.9261706 11.5499915,8.22043636 11.5499915,8.22043636" id="Fill-8" fill="#3FB991"></path>
            <path d="M31.549893,22.6807301 C32.9964845,22.2139888 33.788231,20.6710238 33.3182028,19.2342965 C32.8481746,17.797821 31.2943437,17.0116112 29.8477521,17.4783524 L7.93541408,24.5507161 C6.58363944,25.0360867 5.82434366,26.4859049 6.22769577,27.8775692 C6.64854085,29.3291497 8.20110423,30.2142965 9.63679437,29.750828 C9.69130141,29.7332056 31.549893,22.6807301 31.549893,22.6807301" id="Fill-10" fill="#E01664"></path>
            <path d="M12.5023437,28.826358 C13.9286535,28.3661622 15.7669352,27.7730434 17.7395831,27.1366238 C17.2761465,25.7202881 16.6785972,23.8946098 16.0376958,21.9355049 L10.8002028,23.6259944 L12.5023437,28.826358 Z" id="Fill-12" fill="#462948"></path>
            <path d="M23.5378648,25.2657818 C25.5178648,24.6268448 27.3581746,24.0332224 28.7751042,23.5760476 C28.3114141,22.1594601 27.7141183,20.3335301 27.0729634,18.3739217 L21.8354704,20.0644112 L23.5378648,25.2657818 Z" id="Fill-14" fill="#CD2026"></path>
            <path d="M27.9642423,11.7223804 C29.4108338,11.2556392 30.2025803,9.71267413 29.7325521,8.27594685 C29.2625239,6.83947133 27.708693,6.05326154 26.2621014,6.5200028 L4.34976338,13.5923664 C2.99798873,14.0777371 2.23869296,15.5275552 2.64204507,16.9192196 C3.06289014,18.3708 4.61545352,19.2559469 6.05114366,18.7924783 C6.1056507,18.7748559 27.9642423,11.7223804 27.9642423,11.7223804" id="Fill-16" fill="#70CBDB"></path>
            <path d="M8.91562817,17.8683608 C10.341938,17.408165 12.1807268,16.8147944 14.1538817,16.1783748 C13.5104451,14.2119692 12.9123887,12.3845287 12.4519944,10.9772559 L7.21348732,12.6679972 L8.91562817,17.8683608 Z" id="Fill-18" fill="#1B947D"></path>
            <path d="M19.9511493,14.3077846 C21.9316563,13.6688476 23.7722197,13.0749734 25.1894028,12.6177986 C24.5459662,10.6508895 23.9476563,8.82294545 23.487262,7.41567273 L18.2487549,9.10641399 L19.9511493,14.3077846 Z" id="Fill-20" fill="#65863A"></path>
        </g>
    </g>
</svg>
