<svg width="1600" height="607" viewBox="0 0 1600 607" xmlns="http://www.w3.org/2000/svg" xmlns:xlink="http://www.w3.org/1999/xlink"><defs><path id="a" d="M0 0h1600v607h-1600z"/><path id="c" d="M.06 1622.202h1235.846v-1621.697h-1235.846v1621.697z"/></defs><g transform="translate(0 -5290) translate(0 5290)" fill="none"><mask id="b"><use xlink:href="#a"/></mask><use fill="#642EE1" xlink:href="#a"/><g opacity=".2" mask="url(#b)"><g transform="translate(-9.956 -499) translate(190.195)"><mask id="d"><use xlink:href="#c"/></mask><path d="M857.405 100.413c-24.557-75.922-105.737-117.468-181.315-92.79-75.591 24.664-116.956 106.2-92.386 182.109l372.088 1149.829c25.55 70.92 101.83 110.776 175.05 89.611 76.373-22.083 122.93-103.553 98.559-178.889-.927-2.874-371.995-1149.869-371.995-1149.869" fill="#DFA22F" mask="url(#d)"/><path d="M280.862 288.561c-24.57-75.909-105.751-117.455-181.329-92.79-75.591 24.664-116.956 106.2-92.386 182.122l372.088 1149.829c25.55 70.92 101.83 110.776 175.05 89.598 76.373-22.07 122.93-103.539 98.559-178.889-.927-2.86-371.982-1149.869-371.982-1149.869" fill="#3CB187" mask="url(#d)"/></g><path d="M1505.998 553.702c75.591-24.664 116.943-106.2 92.386-182.122-24.557-75.909-105.737-117.455-181.315-92.79l-1144.82 373.729c-70.611 25.649-110.294 102.262-89.221 175.803 21.987 76.707 103.102 123.468 178.11 98.99 2.861-.931 1144.86-373.609 1144.86-373.609" fill="#CE1E5B"/><path d="M510.85 878.461c74.518-24.318 170.56-55.661 273.622-89.292-24.212-74.844-55.418-171.32-88.916-274.846l-273.635 89.332 88.929 274.806" fill="#392538"/><g><path d="M1087.406 690.3c103.446-33.75 199.594-65.133 273.622-89.292-24.212-74.844-55.432-171.346-88.929-274.899l-273.635 89.332 88.942 274.859" fill="#BB242A"/><path d="M1318.67-25.377c75.578-24.664 116.943-106.2 92.386-182.122-24.557-75.909-105.737-117.455-181.329-92.79l-1144.82 373.729c-70.611 25.649-110.294 102.262-89.207 175.803 21.974 76.707 103.088 123.468 178.11 98.99 2.848-.931 1144.86-373.609 1144.86-373.609" fill="#72C5CD"/></g><path d="M323.468 299.396c74.518-24.318 170.587-55.674 273.662-89.305-33.603-103.912-64.849-200.48-88.903-274.846l-273.702 89.345 88.942 274.806" fill="#248C73"/><path d="M900.011 111.248c103.473-33.764 199.634-65.146 273.675-89.318-33.617-103.925-64.862-200.52-88.929-274.899l-273.688 89.345 88.942 274.872" fill="#62803A"/></g></g></svg>
