<svg width="30" height="30" viewBox="0 0 30 30" xmlns="http://www.w3.org/2000/svg"><path d="M27.386 13.99c.745 0 1.367.243 1.866.73.499.487.748 1.097.748 1.83 0 1.166-.559 1.947-1.677 2.344l-3.101 1.064 1.01 3.011c.084.252.126.535.126.847 0 .709-.252 1.322-.757 1.839-.505.517-1.112.775-1.821.775-.565 0-1.079-.162-1.541-.487-.463-.325-.784-.757-.965-1.298l-.992-2.975-5.589 1.911.992 2.957c.096.288.144.571.144.847 0 .709-.252 1.322-.757 1.839-.505.517-1.118.775-1.839.775-.565 0-1.076-.162-1.532-.487-.457-.325-.775-.757-.956-1.298l-.992-2.939-2.758.956c-.349.108-.649.162-.901.162-.733 0-1.343-.24-1.83-.721-.487-.481-.73-1.088-.73-1.821 0-.565.165-1.076.496-1.532.331-.457.76-.775 1.289-.956l2.812-.956-1.893-5.643-2.812.974c-.313.096-.601.144-.865.144-.721 0-1.328-.243-1.821-.73-.493-.487-.739-1.091-.739-1.812 0-.565.165-1.076.496-1.532.331-.457.76-.775 1.289-.956l2.831-.956-.956-2.867c-.096-.288-.144-.571-.144-.847 0-.721.252-1.337.757-1.848.505-.511 1.118-.766 1.839-.766.565 0 1.076.162 1.532.487.457.325.775.757.956 1.298l.974 2.885 5.589-1.893-.974-2.885c-.096-.288-.144-.571-.144-.847 0-.709.255-1.322.766-1.839.511-.517 1.121-.775 1.83-.775.565 0 1.079.165 1.541.496.463.331.784.76.965 1.289l.956 2.903 2.921-.992c.252-.072.511-.108.775-.108.721 0 1.337.237 1.848.712.511.475.766 1.067.766 1.776 0 .541-.18 1.031-.541 1.469-.361.439-.805.748-1.334.928l-2.831.974 1.893 5.697 2.957-1.01c.288-.096.565-.144.829-.144zm-14.315 4.724l5.589-1.893-1.893-5.679-5.589 1.929 1.893 5.643z" fill="#fff"/></svg>
