<?xml version="1.0" encoding="UTF-8"?>
<svg width="210px" height="214px" viewBox="0 0 210 214" version="1.1" xmlns="http://www.w3.org/2000/svg" xmlns:xlink="http://www.w3.org/1999/xlink">
<g id="Page-1" stroke="none" stroke-width="1" fill="none" fill-rule="evenodd">
<g id="accelerate-your-startup" fill="#000000">
<path d="M104.812448,152.817 C103.385172,152.817 101.981069,153.39631 100.973793,154.402138 C99.9607241,155.415931 99.3814138,156.813517 99.3814138,158.240069 C99.3814138,159.673862 99.9607241,161.071448 100.973793,162.085966 C101.987586,163.092517 103.385172,163.671103 104.812448,163.671103 C106.246241,163.671103 107.643828,163.091793 108.650379,162.085966 C109.663448,161.072172 110.243483,159.674586 110.243483,158.240069 C110.243483,156.813517 109.663448,155.416655 108.650379,154.402138 C107.643828,153.39631 106.245517,152.817 104.812448,152.817 Z" id="Shape"></path>
<path d="M192.438931,15.4502069 L122.420586,15.4502069 C115.476103,6.50782759 108.958862,1.52358621 108.377379,1.08765517 C106.446828,-0.362793103 103.787793,-0.362068966 101.855793,1.08837931 C101.27431,1.52503448 94.7599655,6.50855172 87.8191034,15.4502069 L17.1895862,15.4502069 C7.8062069,15.4502069 0.172344828,23.084069 0.172344828,32.4674483 L0.172344828,163.698621 C0.172344828,173.082 7.8062069,180.715862 17.1895862,180.715862 L75.2893448,180.715862 L67.8292759,203.109828 L60.7225862,203.109828 C57.7224828,203.109828 55.2915517,205.540759 55.2915517,208.540862 C55.2915517,211.540966 57.7224828,213.971897 60.7225862,213.971897 L71.7273103,213.971897 C71.7331034,213.971897 71.7396207,213.973345 71.7446897,213.973345 C71.7504828,213.973345 71.757,213.971897 71.7627931,213.971897 L137.864276,213.971897 C137.870069,213.971897 137.875862,213.973345 137.881655,213.973345 C137.887448,213.973345 137.893966,213.971897 137.899034,213.971897 L148.905207,213.971897 C151.90531,213.971897 154.336241,211.540966 154.336241,208.540862 C154.336241,205.540759 151.90531,203.109828 148.905207,203.109828 L141.797069,203.109828 L134.337724,180.715862 L192.437483,180.715862 C201.820862,180.715862 209.454724,173.082 209.454724,163.698621 L209.454724,32.4674483 C209.456172,23.084069 201.82231,15.4502069 192.438931,15.4502069 Z M192.438931,26.3122759 C195.832241,26.3122759 198.594103,29.0734138 198.594103,32.4674483 L198.594103,134.428966 L154.33769,134.428966 L154.33769,100.403897 C154.33769,91.2363103 148.154276,83.4923793 139.744138,81.1164828 L139.744138,63.8733103 C139.744138,48.8742414 135.245793,36.2336897 129.654724,26.3122759 L192.438931,26.3122759 L192.438931,26.3122759 Z M80.4531724,118.021448 C81.0469655,117.130034 81.3641379,116.082207 81.3641379,115.011207 L81.3641379,113.254448 L92.3978276,113.254448 L92.3978276,121.206207 C92.3978276,124.908 94.8555517,130.178276 97.2415862,134.428966 L69.5273793,134.428966 L80.4531724,118.021448 Z M66.7684138,118.974414 L66.7684138,100.403897 C66.7684138,97.3762759 68.2384138,94.6861034 70.5013448,93.0133448 L70.5013448,113.368138 L66.7684138,118.974414 Z M143.475621,118.972966 L139.744138,113.368862 L139.744138,93.0147931 C142.006345,94.6882759 143.475621,97.3777241 143.475621,100.404621 L143.475621,118.972966 Z M128.882069,85.7922414 L128.882069,102.392379 L117.852,102.392379 L117.852,94.2023793 C117.852,86.5699655 112.139276,80.3612069 105.118034,80.3612069 C98.1047586,80.3612069 92.3985517,86.5699655 92.3985517,94.2023793 L92.3985517,102.392379 L81.3641379,102.392379 L81.3641379,85.7922414 L81.3641379,66.3976552 L128.882069,66.3976552 L128.882069,85.7922414 L128.882069,85.7922414 Z M103.259897,121.206931 L103.259897,94.2031034 C103.259897,92.384069 104.360586,91.224 105.11731,91.224 C105.880552,91.224 106.989207,92.3847931 106.989207,94.2031034 L106.989931,121.174345 C106.94069,122.005655 106.216552,123.830483 105.119483,126.047793 C104.028931,123.838448 103.308414,122.025931 103.259897,121.206931 Z M117.851276,121.206931 L117.851276,113.255172 L128.881345,113.255172 L128.881345,115.011931 C128.881345,116.083655 129.198517,117.130759 129.791586,118.021448 L140.717379,134.42969 L112.999552,134.42969 C115.390655,130.178276 117.851276,124.908724 117.851276,121.206931 Z M105.11731,12.6101379 C111.444828,18.5357586 125.015897,33.4508276 128.199207,54.7542414 L82.0462759,54.7542414 C85.2288621,33.4464828 98.7977586,18.5314138 105.11731,12.6101379 Z M17.1895862,26.3122759 L80.5878621,26.3122759 C74.9989655,36.2336897 70.502069,48.8742414 70.502069,63.8733103 L70.502069,81.1172069 C62.0912069,83.4931034 55.907069,91.2370345 55.907069,100.404621 L55.907069,134.42969 L11.0344138,134.42969 L11.0344138,32.4674483 C11.0344138,29.0734138 13.7955517,26.3122759 17.1895862,26.3122759 Z M130.349897,203.109828 L79.2778966,203.109828 L86.7379655,180.715862 L122.891276,180.715862 L130.349897,203.109828 Z M192.438931,169.853793 L17.1895862,169.853793 C13.7955517,169.853793 11.0344138,167.091931 11.0344138,163.698621 L11.0344138,145.291034 L198.594828,145.291034 L198.594828,163.698621 C198.594103,167.092655 195.832966,169.853793 192.438931,169.853793 Z" id="Shape"></path>
</g>
</g>
</svg>
