<?xml version="1.0" encoding="iso-8859-1"?>
<!-- Generator: Adobe Illustrator 19.0.0, SVG Export Plug-In . SVG Version: 6.00 Build 0)  -->
<svg version="1.1" id="Layer_1" xmlns="http://www.w3.org/2000/svg" xmlns:xlink="http://www.w3.org/1999/xlink" x="0px" y="0px"
	 viewBox="0 0 512 512" style="enable-background:new 0 0 512 512;" xml:space="preserve">
<path style="fill:#314E55;" d="M480.461,339.939c-25.51-55.681-54.141-116.152-90.111-190.303
	c-15.184-31.282-33.073-67.543-53.234-102.004C323.57,24.48,302.489,8.457,277.752,2.505c-24.3-5.84-49.654-1.393-71.396,12.518
	c-21.117,13.523-33.144,33.809-42.122,51.868l-20.947,42.002c-23.577,47.225-47.953,96.058-71.271,144.439l-0.536,1.112
	c-16.411,34.046-33.381,69.253-46.417,105.469c-19.907,55.315,6.224,115.835,60.775,140.783
	c41.725,19.09,84.874,13.634,128.26-16.26c11.75-8.081,22.546-17.554,33.975-27.59c3.018-2.643,6.107-5.357,9.308-8.125
	c1.268,1.714,2.746,3.411,4.536,4.902c3.741,3.116,7.438,6.313,11.139,9.518c11.594,10.036,23.586,20.421,37.122,28.457
	C333.066,505.196,356.005,512,378.385,512c22.171,0,43.787-6.679,64.23-20.036C492.104,459.632,507.315,398.54,480.461,339.939z
	 M256.358,364.789c-20.001-28.171-37.72-55.556-39.716-89.173c-1.134-19.108,5.049-31.265,19.461-38.252
	c7.197-3.491,14.188-5.237,20.947-5.237c9.148,0,17.867,3.196,26.072,9.576c12.8,9.947,16.197,24.099,11.371,47.314
	C288.605,317.331,273.064,341.993,256.358,364.789z M435.334,421.755c-7.424,16.179-21.961,28.331-39.894,33.35
	c-3.746,1.045-7.96,1.464-12.42,1.902c-2.054,0.205-4.112,0.411-6.152,0.67c-24.934-0.536-44.31-12.84-65.668-31.135
	c-1.866-1.589-3.911-3.214-5.996-4.857c-4.915-3.884-12.326-9.741-12.956-13.206c-0.022-2.5,5.371-9.42,8.273-13.143
	c2-2.563,3.965-5.09,5.612-7.527c16.148-23.831,35.604-56.279,42.765-95.959c9.201-50.904-19.996-98.308-67.922-110.259
	c-50.591-12.621-100.911,14.666-114.549,62.141c-8.032,27.965-5.103,57.574,8.478,85.62c12.634,26.108,28.564,50.824,44.073,74.896
	c1.286,1.991,1.839,3.152,2.081,3.768c-0.263,0.268-0.692,0.652-1.362,1.152c-6.063,4.545-11.978,9.393-17.894,14.251
	c-12.88,10.572-25.046,20.554-38.693,27.421c-16.17,8.134-33.859,9.465-49.815,3.759c-15.938-5.706-28.671-17.777-35.854-34.001
	c-7.598-17.144-7.281-34.644,0.933-52.029c35.484-75.093,71.994-151.707,111.612-234.22c5.464-11.38,11.558-22.8,17.452-33.845
	c3.634-6.813,7.273-13.625,10.8-20.487c8.313-16.166,22.639-25.773,38.386-25.773c0.12,0,0.245,0,0.371,0
	c15.461,0.147,29.345,9.724,37.131,25.617l14.643,29.841c41.703,84.99,84.829,172.873,125.635,260.02
	C442.482,386.977,442.812,405.46,435.334,421.755z"/>
<path style="fill:#EA86A5;" d="M463.835,347.556C438.383,292,409.806,231.644,373.898,157.619
	c-15.032-30.97-32.733-66.855-52.569-100.754c-11.005-18.813-28.001-31.805-47.855-36.578c-19.412-4.674-39.756-1.067-57.261,10.139
	c-17.358,11.117-27.742,28.787-35.609,44.614l-20.956,42.02c-23.55,47.172-47.899,95.946-71.159,144.216l-0.536,1.107
	c-16.211,33.626-32.97,68.405-45.685,103.728c-16.657,46.288,5.339,96.995,51.176,117.96
	c35.961,16.447,72.039,11.643,110.281-14.688c10.867-7.482,20.791-16.197,32.287-26.278c5.527-4.857,11.3-9.911,17.519-15.135
	l7.643-6.42l5.723,8.179c0.924,1.313,1.799,2.75,2.683,4.223c1.33,2.223,2.71,4.509,4.036,5.616
	c3.835,3.197,7.616,6.473,11.407,9.75c11.496,9.947,22.354,19.349,34.492,26.564c39.711,23.599,77.771,23.858,113.098,0.777
	C474.867,449.051,487.122,398.379,463.835,347.556z M256.358,364.789c-20.001-28.171-37.72-55.556-39.716-89.173
	c-1.134-19.108,5.049-31.265,19.461-38.252c7.197-3.491,14.188-5.237,20.947-5.237c9.148,0,17.867,3.196,26.072,9.576
	c12.8,9.947,16.197,24.099,11.371,47.314C288.605,317.331,273.064,341.993,256.358,364.789z M435.334,421.755
	c-7.424,16.179-21.961,28.331-39.894,33.35c-3.746,1.045-7.96,1.464-12.42,1.902c-2.054,0.205-4.112,0.411-6.152,0.67
	c-24.934-0.536-44.31-12.84-65.668-31.135c-1.866-1.589-3.911-3.214-5.996-4.857c-4.915-3.884-12.326-9.741-12.956-13.206
	c-0.022-2.5,5.371-9.42,8.273-13.143c2-2.563,3.965-5.09,5.612-7.527c16.148-23.831,35.604-56.279,42.765-95.959
	c9.201-50.904-19.996-98.308-67.922-110.259c-50.591-12.621-100.911,14.666-114.549,62.141c-8.032,27.965-5.103,57.574,8.478,85.62
	c12.634,26.108,28.564,50.824,44.073,74.896c1.286,1.991,1.839,3.152,2.081,3.768c-0.263,0.268-0.692,0.652-1.362,1.152
	c-6.063,4.545-11.978,9.393-17.894,14.251c-12.88,10.572-25.046,20.554-38.693,27.421c-16.17,8.134-33.859,9.465-49.815,3.759
	c-15.938-5.706-28.671-17.777-35.854-34.001c-7.598-17.144-7.281-34.644,0.933-52.029c35.484-75.093,71.994-151.707,111.612-234.22
	c5.464-11.38,11.558-22.8,17.452-33.845c3.634-6.813,7.273-13.625,10.8-20.487c8.313-16.166,22.639-25.773,38.386-25.773
	c0.12,0,0.245,0,0.371,0c15.461,0.147,29.345,9.724,37.131,25.617l14.643,29.841c41.703,84.99,84.829,172.873,125.635,260.02
	C442.482,386.977,442.812,405.46,435.334,421.755z"/>
<g>
	<path style="fill:#314E55;" d="M294.346,227.265c-19.934-15.505-42.841-17.706-66.226-6.357
		c-14.653,7.112-31.707,22.559-29.729,55.797c2.491,42.011,24.943,73.378,48.716,106.603l8.875,12.402l7.5-9.902
		c20.621-27.233,41.381-56.851,48.913-93.075C316.351,273.722,318.78,246.257,294.346,227.265z M294.493,289.017
		c-5.889,28.314-21.429,52.975-38.136,75.771c-20.001-28.171-37.72-55.556-39.716-89.173c-1.134-19.108,5.049-31.265,19.461-38.252
		c7.197-3.491,14.188-5.237,20.947-5.237c9.148,0,17.867,3.196,26.072,9.576C295.922,251.65,299.32,265.802,294.493,289.017z"/>
	<path style="fill:#314E55;" d="M450.964,361.967c-40.877-87.298-84.039-175.262-125.782-260.323l-14.639-29.836
		c-10.898-22.233-30.85-35.635-53.377-35.854c-23.041,0.107-43.587,13.126-55.19,35.693c-3.491,6.786-7.081,13.514-10.675,20.246
		c-5.982,11.215-12.17,22.809-17.8,34.542c-39.635,82.544-76.16,159.19-111.665,234.318c-10.438,22.09-10.822,45.341-1.121,67.253
		c9.233,20.84,25.715,36.394,46.413,43.805c8.536,3.054,17.425,4.572,26.372,4.572c12.773,0,25.666-3.089,37.832-9.206
		c15.461-7.786,28.988-18.894,42.073-29.626c5.706-4.679,11.411-9.367,17.26-13.759c15.282-11.447,6.857-24.528,3.576-29.626
		c-15.108-23.438-30.729-47.672-42.881-72.78c-11.746-24.269-14.224-48.699-7.362-72.606c10.911-37.957,51.574-59.672,92.549-49.448
		c38.457,9.59,61.824,47.966,54.359,89.267c-5.116,28.331-17.425,55.77-39.908,88.95c-1.433,2.116-3.156,4.313-4.893,6.536
		c-6.331,8.116-13.505,17.322-11.92,27.233v0.018c1.692,10.483,11.251,18.036,19.684,24.697c1.889,1.491,3.741,2.956,5.433,4.402
		c21.255,18.206,45.413,35.109,77.968,35.537l0.679,0.009l0.67-0.089c2.049-0.277,4.121-0.482,6.192-0.688
		c5.049-0.491,10.273-1.009,15.559-2.491c23.113-6.465,41.917-22.251,51.587-43.323C461.71,408.121,461.357,384.182,450.964,361.967
		z M435.334,421.755c-7.424,16.179-21.961,28.331-39.894,33.35c-3.746,1.045-7.96,1.464-12.42,1.902
		c-2.054,0.205-4.112,0.411-6.152,0.67c-24.934-0.536-44.31-12.84-65.668-31.135c-1.866-1.589-3.911-3.214-5.996-4.857
		c-4.915-3.884-12.326-9.741-12.956-13.206c-0.022-2.5,5.371-9.42,8.273-13.143c2-2.563,3.965-5.09,5.612-7.527
		c16.148-23.831,35.604-56.279,42.765-95.959c9.201-50.904-19.996-98.308-67.922-110.259
		c-50.591-12.621-100.911,14.666-114.549,62.141c-8.032,27.965-5.103,57.574,8.478,85.62c12.634,26.108,28.564,50.824,44.073,74.896
		c1.286,1.991,1.839,3.152,2.081,3.768c-0.263,0.268-0.692,0.652-1.362,1.152c-6.063,4.545-11.978,9.393-17.894,14.251
		c-12.88,10.572-25.046,20.554-38.693,27.421c-16.17,8.134-33.859,9.465-49.815,3.759c-15.938-5.706-28.671-17.777-35.854-34.001
		c-7.598-17.144-7.281-34.644,0.933-52.029c35.484-75.093,71.994-151.707,111.612-234.22c5.464-11.38,11.558-22.8,17.452-33.845
		c3.634-6.813,7.273-13.625,10.8-20.487c8.313-16.166,22.639-25.773,38.386-25.773c0.12,0,0.245,0,0.371,0
		c15.461,0.147,29.345,9.724,37.131,25.617l14.643,29.841c41.703,84.99,84.829,172.873,125.635,260.02
		C442.482,386.977,442.812,405.46,435.334,421.755z"/>
</g>
<g>
</g>
<g>
</g>
<g>
</g>
<g>
</g>
<g>
</g>
<g>
</g>
<g>
</g>
<g>
</g>
<g>
</g>
<g>
</g>
<g>
</g>
<g>
</g>
<g>
</g>
<g>
</g>
<g>
</g>
</svg>
