<?xml version="1.0" encoding="utf-8"?>
<!-- Svg Vector Icons : http://www.onlinewebfonts.com/icon -->
<!DOCTYPE svg PUBLIC "-//W3C//DTD SVG 1.1//EN" "http://www.w3.org/Graphics/SVG/1.1/DTD/svg11.dtd">
<svg version="1.1" xmlns="http://www.w3.org/2000/svg" xmlns:xlink="http://www.w3.org/1999/xlink" x="0px" y="0px" viewBox="0 0 1000 1000" enable-background="new 0 0 1000 1000" xml:space="preserve">
<metadata> Svg Vector Icons : http://www.onlinewebfonts.com/icon </metadata>
<g><path fill="#000" d="M119.9,685.5c-4.2-0.9-10.3-4.2-14.9-7.9C62.6,637,116.7,589.5,179.1,562v-78.3c14.9,8.9,22.4,9.8,23.3,11.2l47.5-47.5l-15.9-40.1c139.8-48.5,196.2-67.1,309.9-86.2l-20.5-18.6l33.6-19.6c76.4,25.6,147.7,32.2,135.6,96c3.3-42.9-50.4-59.7-133.3-83l-15.4,9.8l30.3,25.2c-136.1,23.8-220,49.9-319.2,84.4l13.1,35.4l-49.4,48.9c8.4,2.3,95.1,31.7,186-31.7c0.5-0.5,1.9-0.9,1.9-1.9c-3.3-4.7-8.9-8.9-16.3-15.8c26.1,1.9,43.3,25.2,40.1,49.4h-12.1c1.4-7.5-0.5-16.3-3.7-21.9c-69.4,51.3-151,58.7-220.4,34.5v60.6c-34,11.6-94.2,48.9-93.7,84.8C102.7,674.8,111.5,680.8,119.9,685.5L119.9,685.5z"/><path fill="#f26d30" d="M403.7,669.6c-75,38.7-146.8,69-258.6,73.2C1.1,740-21.3,644,47.2,543.8c64.3-101.1,166.8-192.9,330.4-250.3c46.6-16.3,117-35.9,183.6-36.4c96.5-0.9,190.1,29.4,184.1,121.2c-3.3,70.8-105.3,171-158.9,242.8c-23.3,31.2-27,51.3,12.1,49.9c142.1-9.3,272.2-58.7,391.5-110c-80.2,54.5-500.5,262.8-502.8,120.7c0.5-17.7,9.3-36.8,22.8-56.9c13.5-20,32.2-41.5,51.3-63.4c28.4-32.6,99.3-110.9,123-158c40.1-88.5-49.9-93.2-127.2-120.7l-33.6,19.6l20,18.6c-113.2,19.1-169.6,37.7-309.4,86.2l15.9,40.1l-47.5,47.5c-0.9-1.4-8.4-2.3-23.3-11.2V562c-62.5,27.5-116.5,75-74.1,115.6c4.7,3.7,10.7,7,14.9,7.9c0,0,0,0-0.5,0C196.3,728.8,404.2,669.6,403.7,669.6L403.7,669.6z"/></g>
</svg>