<?xml version="1.0" encoding="UTF-8"?><svg width="152px" height="49px" viewBox="0 0 152 49" version="1.1" xmlns="http://www.w3.org/2000/svg" xmlns:xlink="http://www.w3.org/1999/xlink"><g id="Page-1" stroke="none" stroke-width="1" fill="none" fill-rule="evenodd"><g id="cars" fill="#000000"><path d="M92.675,43.1875 L92.675,46.675 C92.675,47.7571429 91.8446429,48.5875 90.7625,48.5875 L83.6910714,48.5875 C82.6107143,48.5875 81.7785714,47.7571429 81.7785714,46.675 L81.7785714,43.6321429 C85.4839286,43.5607143 89.125,43.4125 92.675,43.1875 Z" id="Shape"></path><path d="M150.082143,13.8107143 L143.508929,13.8107143 C143.092857,13.1464286 142.760714,12.5625 142.344643,11.9821429 C142.010714,11.5660714 141.7625,11.0678571 141.430357,10.65 C140.182143,8.90357143 137.601786,5.57678571 135.605357,3.1625 C133.941071,1.08214286 131.6125,0.167857143 129.116071,0.167857143 L99.9964286,0.167857143 C98.7678571,0.167857143 97.6017857,0.367857143 96.525,0.832142857 C97.15,1.29107143 97.7196429,1.83928571 98.2303571,2.475 C98.6857143,3.02678571 99.1839286,3.6375 99.6910714,4.27321429 C100.248214,4.1375 100.826786,4.07678571 101.4125,4.07678571 L109.816071,4.07678571 L109.816071,4.41071429 C109.816071,5.49107143 110.646429,6.32321429 111.728571,6.32321429 L117.635714,6.32321429 C118.717857,6.32321429 119.548214,5.49107143 119.548214,4.41071429 L119.548214,4.07678571 L128.035714,4.07678571 C129.948214,4.07678571 131.780357,4.74285714 133.110714,6.40714286 C134.525,8.15357143 136.439286,10.6482143 137.435714,11.9803571 C137.519643,12.0625 137.601786,12.1464286 137.601786,12.2303571 C138.017857,12.8125 138.517857,13.4767857 138.933929,14.1428571 C139.1,14.3928571 139.516071,14.9732143 139.516071,15.4732143 C139.516071,16.4732143 138.685714,17.3035714 137.6875,17.3035714 L114.780357,17.3035714 L114.780357,17.9696429 C114.780357,19.6517857 113.4625,20.9714286 111.778571,20.9714286 L109.2125,20.9714286 C109.871429,23.6071429 110.203571,26.4517857 110.203571,29.4535714 L110.203571,42.5642857 C111.639286,42.5892857 113.0875,42.6 114.555357,42.6 C122.375,42.6 129.780357,42.2678571 136.435714,41.6839286 L136.435714,46.675 C136.435714,47.7571429 137.267857,48.5875 138.35,48.5875 L145.421429,48.5875 C146.501786,48.5875 147.333929,47.7571429 147.333929,46.675 L147.333929,29.4535714 C147.333929,25.7928571 146.835714,22.6321429 146.003571,19.8857143 L150,19.8857143 C151.080357,19.8857143 151.9125,19.0535714 151.9125,17.9714286 L151.9125,15.725 C151.994643,14.7285714 151.164286,13.8107143 150.082143,13.8107143 Z M141.928571,29.1214286 L137.301786,29.1214286 C137.091071,29.175 136.880357,29.2035714 136.678571,29.2035714 L125.364286,29.2035714 C124.532143,29.2035714 123.95,28.5392857 123.95,27.7910714 L124.117857,25.7107143 C124.2,24.8803571 124.95,24.2964286 125.696429,24.2964286 L126.1,24.2964286 C126.117857,24.2839286 126.135714,24.2714286 126.155357,24.2589286 C126.169643,24.2517857 126.183929,24.2428571 126.198214,24.2357143 C126.2125,24.2285714 126.226786,24.2214286 126.241071,24.2142857 C126.2625,24.2071429 126.285714,24.1964286 126.310714,24.1892857 C126.328571,24.1821429 126.348214,24.1767857 126.367857,24.1732143 C126.389286,24.1678571 126.408929,24.1625 126.432143,24.1607143 C126.526786,24.1392857 126.630357,24.1303571 126.746429,24.1303571 L141.594643,24.1303571 C141.607143,24.1303571 141.619643,24.1303571 141.632143,24.1321429 C142.446429,24.1482143 143.092857,24.725 143.175,25.5464286 L143.342857,27.625 C143.426786,28.4553571 142.760714,29.1214286 141.928571,29.1214286 Z" id="Shape"></path><path d="M70.8982143,43.6321429 L70.8982143,46.675 C70.8982143,47.7571429 70.0660714,48.5875 68.9839286,48.5875 L61.9125,48.5875 C60.8303571,48.5875 59.9982143,47.7571429 59.9982143,46.675 L59.9982143,43.1875 C63.55,43.4125 67.1910714,43.5607143 70.8982143,43.6321429 Z" id="Shape"></path><path d="M52.6785714,0.169642857 L23.5589286,0.169642857 C21.0625,0.169642857 18.8160714,1.00178571 17.0696429,3.16428571 C15.1571429,5.57857143 10.6642857,11.4839286 10.3321429,11.9821429 C9.91607143,12.5642857 9.58214286,13.2303571 9.16607143,13.8107143 C9.16607143,13.8107143 9.16607143,13.8107143 9.08392857,13.8107143 L2.67678571,13.8107143 C1.59464286,13.8107143 0.764285714,14.6428571 0.764285714,15.725 L0.764285714,17.9714286 C0.764285714,19.0535714 1.59464286,19.8857143 2.67678571,19.8857143 L6.66964286,19.8857143 C5.8375,22.6303571 5.33928571,25.7928571 5.33928571,29.4535714 L5.33928571,46.675 C5.33928571,47.7571429 6.17142857,48.5875 7.25357143,48.5875 L14.325,48.5875 C15.4053571,48.5875 16.2375,47.7571429 16.2375,46.675 L16.2375,41.6821429 C22.8928571,42.2660714 30.2982143,42.6 38.1178571,42.6 C39.5839286,42.6 41.0357143,42.5875 42.4696429,42.5642857 L42.4696429,29.4517857 C42.4696429,26.4517857 42.8035714,23.6071429 43.4607143,20.9714286 L40.8946429,20.9714286 C39.2125,20.9714286 37.8928571,19.6517857 37.8928571,17.9696429 L37.8928571,17.3053571 L15.2392857,17.3053571 C14.2410714,17.3053571 13.4089286,16.4732143 13.4089286,15.4732143 C13.4089286,14.975 13.825,14.3928571 13.9928571,14.1410714 C14.4089286,13.4767857 18.4857143,8.15178571 19.9,6.40357143 C21.2303571,4.74107143 23.0625,4.07321429 24.975,4.07321429 L33.3767857,4.07321429 L33.3767857,4.40714286 C33.3767857,5.4875 34.2089286,6.32142857 35.2910714,6.32142857 L41.1982143,6.32142857 C42.2803571,6.32142857 43.1125,5.48928571 43.1125,4.40714286 L43.1125,4.07321429 L51.5964286,4.07321429 C52.1,4.07321429 52.5982143,4.11964286 53.0821429,4.21607143 C53.6071429,3.5375 54.0785714,2.93571429 54.4392857,2.48392857 L54.4410714,2.48035714 L54.4446429,2.47678571 C54.9571429,1.84285714 55.5196429,1.29642857 56.1321429,0.8375 C55.0571429,0.383928571 53.8857143,0.169642857 52.6785714,0.169642857 Z M26.9642857,24.1285714 C27.7964286,24.1285714 28.4607143,24.7125 28.5446429,25.5428571 L28.7107143,27.6232143 C28.7928571,28.4553571 28.1285714,29.1196429 27.2964286,29.1196429 L22.7089286,29.1196429 C22.6553571,29.1339286 22.6035714,29.1446429 22.5517857,29.1553571 C22.5035714,29.1642857 22.4535714,29.1732143 22.4053571,29.1803571 L22.3946429,29.1803571 C22.3446429,29.1875 22.2946429,29.1928571 22.2446429,29.1982143 L22.2392857,29.1982143 C22.2053571,29.2 22.1714286,29.2017857 22.1392857,29.2017857 L22.0875,29.2017857 L10.7732143,29.2017857 L10.6964286,29.2017857 C9.89107143,29.175 9.33214286,28.5232143 9.33214286,27.7892857 L9.49821429,25.7089286 C9.58035714,24.8928571 10.3,24.3178571 11.0339286,24.2964286 C11.0571429,24.2946429 11.0803571,24.2946429 11.1053571,24.2946429 L11.5089286,24.2946429 C11.6482143,24.1875 11.8660714,24.1285714 12.1553571,24.1285714 L26.9642857,24.1285714 L26.9642857,24.1285714 Z" id="Shape"></path><path d="M57.2285714,41.9071429 C57.9125,41.9571429 58.6035714,42.0071429 59.3,42.0517857 C59.5321429,42.0696429 59.7642857,42.0839286 59.9982143,42.0964286 L59.9982143,41.6821429 C59.0892857,41.7625 58.1642857,41.8375 57.2285714,41.9071429 Z M94.4535714,0.885714286 C94.5910714,0.946428571 94.7267857,1.0125 94.8625,1.08214286 C94.7267857,1.01071429 94.5910714,0.946428571 94.4535714,0.885714286 Z" id="Shape"></path><path d="M39.0857143,18.6 C39.0803571,18.5857143 39.075,18.5678571 39.0696429,18.5535714 C39.0714286,18.5660714 39.0767857,18.5785714 39.0803571,18.5910714 L39.0964286,18.6392857 C39.0964286,18.6446429 39.1,18.65 39.1035714,18.6553571 C39.0964286,18.6375 39.0910714,18.6196429 39.0857143,18.6 Z M38.9839286,18.0125 C38.9839286,18.0321429 38.9839286,18.0517857 38.9857143,18.0732143 C38.9857143,18.1071429 38.9892857,18.1410714 38.9910714,18.1732143 C38.9910714,18.1785714 38.9928571,18.1857143 38.9946429,18.1910714 C38.9875,18.1303571 38.9857143,18.0732143 38.9839286,18.0125 Z" id="Shape"></path><path d="M111.864286,13.8107143 L105.291071,13.8107143 C104.875,13.1464286 104.542857,12.5625 104.125,11.9821429 C103.792857,11.5660714 103.542857,11.0678571 103.210714,10.65 C102.821429,10.1035714 102.301786,9.40357143 101.708929,8.625 C101.65,8.54821429 101.591071,8.46785714 101.528571,8.38928571 C100.633929,7.2125 99.5910714,5.88392857 98.5964286,4.64464286 C98.1803571,4.12857143 97.7732143,3.62857143 97.3875,3.16071429 C97.2785714,3.025 97.1678571,2.89642857 97.0553571,2.76964286 C97.0053571,2.71428571 96.9535714,2.65892857 96.9017857,2.60535714 C96.8589286,2.56071429 96.8142857,2.51607143 96.7714286,2.47142857 C96.6928571,2.39285714 96.6125,2.31607143 96.5303571,2.24107143 C96.4892857,2.20178571 96.4482143,2.16607143 96.4053571,2.12857143 C96.0982143,1.85714286 95.775,1.61964286 95.4410714,1.40535714 C95.4410714,1.40535714 95.4410714,1.40535714 95.4392857,1.40535714 C95.3767857,1.36785714 95.3142857,1.33035714 95.25,1.29107143 C95.2053571,1.26428571 95.1607143,1.24107143 95.1160714,1.21428571 C95.0821429,1.19642857 95.0464286,1.17678571 95.0107143,1.15714286 C94.9642857,1.13035714 94.9142857,1.10535714 94.8642857,1.08035714 C94.7303571,1.01071429 94.5946429,0.944642857 94.4553571,0.883928571 C94.3857143,0.853571429 94.3160714,0.825 94.2482143,0.794642857 C94.1839286,0.767857143 94.1178571,0.742857143 94.0535714,0.719642857 C94.0357143,0.7125 94.0178571,0.705357143 94,0.7 C93.8892857,0.657142857 93.7785714,0.619642857 93.6660714,0.583928571 C93.6107143,0.564285714 93.5553571,0.546428571 93.4982143,0.532142857 C93.4428571,0.514285714 93.3857143,0.496428571 93.3285714,0.483928571 C93.2910714,0.473214286 93.2535714,0.4625 93.2160714,0.451785714 C93.1785714,0.441071429 93.1410714,0.433928571 93.1035714,0.423214286 C93.0553571,0.408928571 93.0053571,0.398214286 92.9571429,0.3875 C92.8607143,0.366071429 92.7678571,0.346428571 92.6714286,0.326785714 C92.5839286,0.310714286 92.4946429,0.294642857 92.4071429,0.282142857 C92.3125,0.267857143 92.2196429,0.253571429 92.1232143,0.241071429 C92.1178571,0.241071429 92.1107143,0.241071429 92.1035714,0.239285714 C92.0125,0.228571429 91.9214286,0.217857143 91.8285714,0.208928571 L91.8107143,0.208928571 C91.7142857,0.2 91.6160714,0.191071429 91.5178571,0.1875 C91.5107143,0.185714286 91.5,0.185714286 91.4928571,0.185714286 C91.4232143,0.182142857 91.3535714,0.178571429 91.2857143,0.176785714 C91.2428571,0.175 91.1982143,0.173214286 91.1553571,0.171428571 C91.0714286,0.169642857 90.9875,0.169642857 90.9017857,0.169642857 L61.7785714,0.169642857 C61.6928571,0.169642857 61.6071429,0.169642857 61.5214286,0.171428571 C61.4857143,0.173214286 61.4482143,0.173214286 61.4142857,0.175 C61.3303571,0.175 61.2464286,0.180357143 61.1642857,0.185714286 C61.0625,0.191071429 60.9625,0.198214286 60.8607143,0.207142857 L60.8553571,0.207142857 C60.7642857,0.214285714 60.6714286,0.225 60.5821429,0.235714286 C60.5607143,0.2375 60.5410714,0.241071429 60.5196429,0.244642857 C60.4517857,0.251785714 60.3857143,0.260714286 60.3214286,0.271428571 C60.2892857,0.275 60.2553571,0.280357143 60.2214286,0.285714286 C60.1392857,0.3 60.0553571,0.314285714 59.9714286,0.330357143 C59.8785714,0.348214286 59.7892857,0.366071429 59.6982143,0.385714286 C59.6714286,0.392857143 59.6482143,0.398214286 59.6232143,0.403571429 C59.5642857,0.417857143 59.5053571,0.432142857 59.4464286,0.446428571 C59.4160714,0.453571429 59.3857143,0.460714286 59.3553571,0.469642857 C59.3196429,0.478571429 59.2857143,0.4875 59.25,0.5 C59.0892857,0.544642857 58.9285714,0.594642857 58.7714286,0.651785714 C58.6964286,0.676785714 58.6232143,0.705357143 58.55,0.732142857 C58.4571429,0.769642857 58.3660714,0.807142857 58.275,0.844642857 C58.1857143,0.883928571 58.0946429,0.926785714 58.0053571,0.967857143 C57.7821429,1.07678571 57.5642857,1.19642857 57.3482143,1.32857143 C57.3071429,1.35535714 57.2625,1.38214286 57.2196429,1.40892857 L57.2196429,1.40892857 C57.1339286,1.46428571 57.0482143,1.52142857 56.9625,1.58214286 C56.9196429,1.6125 56.8785714,1.64285714 56.8357143,1.67321429 C56.7946429,1.70178571 56.7517857,1.73571429 56.7089286,1.76607143 C56.6678571,1.79821429 56.625,1.83035714 56.5857143,1.86428571 C56.5446429,1.89642857 56.5035714,1.93035714 56.4625,1.96428571 C56.4,2.01428571 56.3410714,2.06607143 56.2785714,2.12142857 C56.2339286,2.15892857 56.1892857,2.2 56.1446429,2.24285714 C56.0875,2.29464286 56.0339286,2.34821429 55.9767857,2.40178571 C55.7964286,2.57678571 55.6232143,2.76428571 55.4553571,2.96071429 C55.4,3.02678571 55.3446429,3.09285714 55.2892857,3.16071429 C54.9821429,3.54642857 54.6107143,4.02321429 54.2,4.55178571 C53.9285714,4.9 53.6410714,5.27142857 53.3446429,5.65535714 C53.2142857,5.825 53.0821429,5.99821429 52.9464286,6.17321429 C52.1375,7.22142857 51.2946429,8.32678571 50.5625,9.28928571 C50.4964286,9.37678571 50.4303571,9.46428571 50.3660714,9.55 C50.2660714,9.68214286 50.1696429,9.81071429 50.075,9.93214286 C50.0125,10.0142857 49.9517857,10.0964286 49.8910714,10.1767857 C49.5017857,10.6946429 49.1714286,11.1339286 48.9339286,11.4517857 C48.9071429,11.4892857 48.8803571,11.5232143 48.8571429,11.5571429 C48.8142857,11.6142857 48.775,11.6678571 48.7428571,11.7125 C48.7142857,11.75 48.6892857,11.7857143 48.6678571,11.8142857 C48.6553571,11.8321429 48.6446429,11.8464286 48.6357143,11.8571429 C48.6178571,11.8803571 48.6053571,11.8982143 48.5928571,11.9160714 C48.5821429,11.9339286 48.5732143,11.9464286 48.5660714,11.9571429 C48.5607143,11.9660714 48.5553571,11.9714286 48.5517857,11.9803571 C48.4535714,12.1160714 48.3625,12.2571429 48.2696429,12.4 C48.1196429,12.6392857 47.975,12.8839286 47.8267857,13.1267857 C47.6857143,13.3589286 47.5410714,13.5892857 47.3857143,13.8089286 C47.3857143,13.8089286 47.3857143,13.8089286 47.3017857,13.8089286 L40.8964286,13.8089286 C40.3571429,13.8089286 39.8785714,14.0160714 39.5339286,14.3607143 C39.4910714,14.4035714 39.45,14.4482143 39.4107143,14.4946429 C39.3946429,14.5160714 39.3785714,14.5375 39.3625,14.5571429 C39.3303571,14.5982143 39.3,14.6446429 39.2714286,14.6892857 C39.2571429,14.7125 39.2428571,14.7339286 39.2303571,14.7589286 C39.2107143,14.7946429 39.1928571,14.8303571 39.175,14.8660714 C39.1392857,14.9392857 39.1089286,15.0142857 39.0821429,15.0946429 C39.075,15.1178571 39.0660714,15.1428571 39.0589286,15.1696429 C39.0464286,15.2125 39.0357143,15.2553571 39.025,15.3017857 C39.0142857,15.3446429 39.0071429,15.3910714 39.0017857,15.4375 L39.0017857,15.4392857 C38.9892857,15.5321429 38.9821429,15.625 38.9821429,15.7232143 L38.9821429,17.9696429 C38.9821429,17.9821429 38.9821429,17.9964286 38.9839286,18.0107143 C38.9857143,18.0696429 38.9875,18.1285714 38.9946429,18.1857143 C38.9964286,18.2089286 38.9982143,18.2285714 39.0017857,18.25 C39.0017857,18.2553571 39.0017857,18.2607143 39.0035714,18.2660714 C39.0053571,18.2892857 39.0107143,18.3107143 39.0142857,18.3339286 C39.0160714,18.3428571 39.0178571,18.3517857 39.0196429,18.3642857 C39.0214286,18.3785714 39.0267857,18.3928571 39.0285714,18.4071429 C39.0303571,18.4214286 39.0339286,18.4392857 39.0392857,18.4535714 L39.0392857,18.4571429 C39.0410714,18.4607143 39.0410714,18.4660714 39.0428571,18.4696429 C39.0464286,18.4857143 39.05,18.5 39.0553571,18.5142857 C39.0553571,18.5160714 39.0571429,18.5214286 39.0571429,18.5232143 C39.0571429,18.525 39.0589286,18.5285714 39.0607143,18.5303571 L39.0607143,18.5321429 C39.0625,18.5339286 39.0642857,18.5392857 39.0625,18.5428571 L39.0642857,18.5446429 C39.0696429,18.5625 39.075,18.5785714 39.0803571,18.5928571 C39.0875,18.6125 39.0928571,18.6303571 39.0982143,18.6464286 C39.1035714,18.6642857 39.1107143,18.6821429 39.1160714,18.6982143 C39.1178571,18.7035714 39.1214286,18.7089286 39.1232143,18.7160714 C39.1339286,18.7428571 39.1446429,18.7660714 39.1553571,18.7910714 C39.1696429,18.8196429 39.1839286,18.8517857 39.1982143,18.8803571 C39.2,18.8821429 39.2,18.8857143 39.2017857,18.8857143 C39.2017857,18.8875 39.2035714,18.8875 39.2053571,18.8892857 C39.2125,18.9017857 39.2178571,18.9142857 39.225,18.9267857 C39.2303571,18.9375 39.2375,18.95 39.2428571,18.9607143 L39.25,18.975 C39.2607143,18.9910714 39.2714286,19.0053571 39.2803571,19.0196429 C39.2857143,19.0267857 39.2910714,19.0357143 39.2964286,19.0428571 C39.3107143,19.0678571 39.3303571,19.0928571 39.3446429,19.1160714 C39.3642857,19.1428571 39.3821429,19.1678571 39.4035714,19.1910714 C39.4428571,19.2375 39.4839286,19.2821429 39.5267857,19.325 C39.8696429,19.6696429 40.3482143,19.8767857 40.8892857,19.8767857 L44.8821429,19.8767857 C44.4410714,21.3357143 44.0928571,22.9107143 43.8625,24.6178571 C43.8232143,24.9178571 43.7875,25.225 43.7517857,25.5357143 C43.7410714,25.6375 43.7303571,25.7410714 43.7214286,25.8446429 C43.7017857,26.0517857 43.6839286,26.2625 43.6660714,26.475 C43.65,26.6857143 43.6357143,26.9 43.6214286,27.1142857 C43.6107143,27.3017857 43.5982143,27.4928571 43.5910714,27.6839286 C43.5839286,27.875 43.575,28.0660714 43.5696429,28.2607143 L43.5696429,28.2642857 C43.5660714,28.4196429 43.5625,28.575 43.5589286,28.7321429 C43.5589286,28.7714286 43.5589286,28.8089286 43.5553571,28.85 L43.5553571,28.9571429 C43.5535714,29.1178571 43.5535714,29.2821429 43.5535714,29.4446429 L43.5535714,46.6660714 C43.5535714,46.7642857 43.5607143,46.8571429 43.5732143,46.95 L43.5732143,46.95 C43.5803571,46.9964286 43.5875,47.0428571 43.5982143,47.0857143 C43.6071429,47.1321429 43.6196429,47.175 43.6303571,47.2196429 C43.6392857,47.2446429 43.6464286,47.2696429 43.6535714,47.2946429 C43.6785714,47.3714286 43.7107143,47.4482143 43.7446429,47.5214286 C43.7625,47.5589286 43.7803571,47.5946429 43.8017857,47.6303571 C43.8142857,47.6517857 43.8285714,47.675 43.8428571,47.6982143 C43.8714286,47.7428571 43.9017857,47.7875 43.9339286,47.8303571 C43.95,47.85 43.9660714,47.8732143 43.9821429,47.8928571 C44.0196429,47.9392857 44.0607143,47.9839286 44.1035714,48.0285714 C44.4482143,48.3714286 44.9267857,48.5803571 45.4660714,48.5803571 L52.5375,48.5803571 C53.6196429,48.5803571 54.4517857,47.7482143 54.4517857,46.6660714 L54.4517857,41.675 C54.6767857,41.6946429 54.9071429,41.7142857 55.1357143,41.7357143 C55.4928571,41.7642857 55.8517857,41.7946429 56.2125,41.8232143 C56.5464286,41.85 56.8821429,41.875 57.2196429,41.9 L57.2196429,41.9 C58.1553571,41.8321429 59.0803571,41.7571429 59.9910714,41.6767857 L59.9910714,42.0928571 C60.2053571,42.1053571 60.4214286,42.1196429 60.6375,42.1321429 C60.725,42.1375 60.8107143,42.1428571 60.8964286,42.1464286 C61.2517857,42.1678571 61.6071429,42.1875 61.9678571,42.2089286 C62.1892857,42.2214286 62.4107143,42.2321429 62.6339286,42.2446429 C62.8535714,42.2553571 63.0714286,42.2678571 63.2892857,42.2803571 C63.5482143,42.2928571 63.8089286,42.3053571 64.0678571,42.3160714 C64.2625,42.325 64.4571429,42.3357143 64.6535714,42.3428571 C65.7857143,42.3928571 66.9285714,42.4357143 68.0875,42.4696429 C68.3178571,42.4767857 68.5517857,42.4821429 68.7839286,42.4892857 C69.4821429,42.5089286 70.1839286,42.5267857 70.8910714,42.5392857 C71.2517857,42.5464286 71.6142857,42.5535714 71.9767857,42.5607143 C72.2482143,42.5642857 72.5196429,42.5678571 72.7910714,42.5714286 C73.0571429,42.575 73.3232143,42.5785714 73.5892857,42.5803571 C73.9214286,42.5839286 74.2517857,42.5875 74.5857143,42.5875 L74.8696429,42.5875 C75.0946429,42.5892857 75.3214286,42.5892857 75.5482143,42.5892857 C75.8089286,42.5910714 76.0696429,42.5910714 76.3303571,42.5910714 C76.5910714,42.5910714 76.8517857,42.5910714 77.1125,42.5892857 C77.3392857,42.5892857 77.5660714,42.5892857 77.7928571,42.5875 L78.075,42.5875 C78.4071429,42.5857143 78.7392857,42.5839286 79.0714286,42.5803571 C79.3357143,42.5785714 79.6035714,42.575 79.8696429,42.5714286 C80.1410714,42.5696429 80.4125,42.5642857 80.6839286,42.5607143 C81.0482143,42.5535714 81.4107143,42.5464286 81.7714286,42.5392857 C82.1232143,42.5339286 82.4732143,42.525 82.8232143,42.5160714 C83.05,42.5107143 83.2767857,42.5053571 83.5035714,42.4982143 C83.6285714,42.4964286 83.7535714,42.4928571 83.8767857,42.4892857 C84.1089286,42.4803571 84.3410714,42.475 84.5714286,42.4678571 C85.6285714,42.4357143 86.6732143,42.3982143 87.7053571,42.3553571 C87.9142857,42.3464286 88.1214286,42.3375 88.3285714,42.3285714 C88.6767857,42.3125 89.025,42.2964286 89.3696429,42.2785714 C89.5910714,42.2678571 89.8089286,42.2571429 90.0267857,42.2446429 C90.25,42.2339286 90.4714286,42.2214286 90.6928571,42.2071429 C91.3571429,42.1714286 92.0178571,42.1339286 92.6678571,42.0928571 C93.6053571,42.0339286 94.5285714,41.9696429 95.4410714,41.9017857 L95.4410714,41.9017857 C95.7839286,41.8767857 96.1267857,41.8517857 96.4660714,41.8232143 C96.8214286,41.7946429 97.175,41.7660714 97.525,41.7375 C97.7553571,41.7178571 97.9839286,41.7 98.2107143,41.6785714 L98.2107143,46.6714286 C98.2107143,47.0089286 98.2910714,47.3214286 98.4357143,47.5928571 C98.5232143,47.7571429 98.6321429,47.9071429 98.7625,48.0339286 C99.1071429,48.3767857 99.5839286,48.5839286 100.125,48.5839286 L107.196429,48.5839286 C108.278571,48.5839286 109.110714,47.7517857 109.110714,46.6714286 L109.110714,29.4482143 C109.110714,25.7875 108.6125,22.6267857 107.780357,19.8803571 L111.773214,19.8803571 C112.855357,19.8803571 113.6875,19.05 113.6875,17.9678571 L113.6875,15.7214286 C113.775,14.7285714 112.944643,13.8107143 111.864286,13.8107143 Z M65.4892857,29.1214286 L60.9035714,29.1214286 C60.85,29.1357143 60.7982143,29.1464286 60.7464286,29.1571429 C60.6982143,29.1660714 60.6482143,29.175 60.5982143,29.1821429 L60.5892857,29.1821429 C60.5392857,29.1910714 60.4892857,29.1946429 60.4392857,29.2 L60.4339286,29.2 C60.3821429,29.2035714 60.3321429,29.2035714 60.2821429,29.2035714 L48.9678571,29.2035714 C48.1357143,29.2035714 47.5517857,28.5392857 47.5517857,27.7910714 L47.7196429,25.7107143 C47.8035714,24.8803571 48.5517857,24.2964286 49.3,24.2964286 L49.7017857,24.2964286 C49.8428571,24.1892857 50.0607143,24.1303571 50.3482143,24.1303571 L65.1571429,24.1303571 C65.9892857,24.1303571 66.6535714,24.7142857 66.7392857,25.5446429 L66.9053571,27.625 C66.9875,28.4553571 66.3232143,29.1214286 65.4892857,29.1214286 Z M53.4589286,17.3071429 C52.4607143,17.3071429 51.6285714,16.475 51.6285714,15.4767857 C51.6285714,14.9767857 52.0446429,14.3964286 52.2107143,14.1464286 C52.5696429,13.5732143 55.6482143,9.5375 57.3964286,7.31428571 C57.6785714,6.95714286 57.9232143,6.65 58.1178571,6.40892857 C58.7678571,5.59642857 59.5357143,5.025 60.3767857,4.64821429 C61.2571429,4.25357143 62.2125,4.07857143 63.1928571,4.07857143 L71.5964286,4.07857143 L71.5964286,4.4125 C71.5964286,5.49285714 72.4285714,6.325 73.5107143,6.325 L79.4178571,6.325 C80.4964286,6.325 81.3303571,5.49285714 81.3303571,4.4125 L81.3303571,4.07857143 L89.8160714,4.07857143 C90.7160714,4.07857143 91.6,4.225 92.4196429,4.55535714 C93.3428571,4.92678571 94.1875,5.52678571 94.8928571,6.40892857 C95.1214286,6.69285714 95.3678571,6.99642857 95.6178571,7.31428571 C96.9053571,8.93928571 98.3839286,10.8678571 99.2196429,11.9821429 C99.3035714,12.0642857 99.3857143,12.1464286 99.3857143,12.2321429 C99.8017857,12.8142857 100.301786,13.4803571 100.717857,14.1464286 C100.882143,14.3964286 101.3,14.9767857 101.3,15.4767857 C101.3,16.4767857 100.467857,17.3071429 99.4696429,17.3071429 L53.4589286,17.3071429 Z M103.710714,29.1214286 L99.1232143,29.1214286 C98.9125,29.175 98.7017857,29.2035714 98.5,29.2035714 L87.1857143,29.2035714 C86.3535714,29.2035714 85.7714286,28.5392857 85.7714286,27.7910714 L85.9392857,25.7107143 C86.0214286,24.8803571 86.7696429,24.2964286 87.5178571,24.2964286 L87.9214286,24.2964286 C87.9392857,24.2839286 87.9589286,24.2696429 87.9785714,24.2589286 C87.9910714,24.2517857 88.0071429,24.2428571 88.0214286,24.2357143 C88.0339286,24.2285714 88.05,24.2214286 88.0642857,24.2142857 C88.0857143,24.2071429 88.1089286,24.1964286 88.1339286,24.1892857 C88.1517857,24.1821429 88.1714286,24.1767857 88.1910714,24.1732143 C88.2125,24.1678571 88.2321429,24.1625 88.2535714,24.1607143 C88.3482143,24.1392857 88.4517857,24.1303571 88.5678571,24.1303571 L103.376786,24.1303571 C104.208929,24.1303571 104.875,24.7125 104.957143,25.5446429 L105.125,27.6232143 C105.207143,28.4553571 104.541071,29.1214286 103.710714,29.1214286 Z" id="Shape"></path></g></g></svg>
