<svg width="18" height="18" viewBox="0 0 18 18" xmlns="http://www.w3.org/2000/svg"><g fill="none"><path d="M-1205-255h1400v415h-1400z"/><path d="M8.574 6.477c-1.329-2.362-2.75-4.288-2.854-4.43-2.143 1.014-3.743 2.989-4.243 5.368.202.004 3.406.042 7.097-.938zm.957 2.583l.302-.092c-.193-.437-.403-.876-.623-1.307-3.958 1.186-7.756 1.1-7.89 1.096l-.007.245c0 1.975.746 3.777 1.972 5.138l-.005-.006s2.103-3.731 6.25-5.074zm-5.256 6v-.004l-.174-.132.174.136zm2.883-13.522l-.015.004.014-.002.001-.002zm6.918 1.694c-1.354-1.192-3.13-1.918-5.076-1.918-.625 0-1.231.076-1.812.216.117.157 1.56 2.073 2.874 4.485 2.898-1.085 3.993-2.751 4.014-2.782zm-5.076 14.769c-4.97 0-9-4.03-9-9-.001-4.972 4.029-9.001 9-9.001 4.972 0 9 4.03 9 9.001 0 4.97-4.029 9-9 9zm1.307-7.742c-4.511 1.572-6.001 4.733-6.031 4.798 1.305 1.018 2.941 1.63 4.723 1.63 1.064 0 2.079-.216 3-.608-.113-.674-.561-3.029-1.643-5.838l-.05.018zm.346-3.097c.18.365.35.738.512 1.114l.166.397c2.654-.335 5.268.233 5.354.25-.019-1.823-.671-3.495-1.748-4.805-.018.023-1.251 1.803-4.284 3.044zm1.146 2.725c1.009 2.774 1.418 5.03 1.496 5.489 1.726-1.165 2.953-3.013 3.294-5.156-.153-.049-2.305-.731-4.79-.334z" fill="#B8C0C9"/></g></svg>
