<?xml version="1.0" encoding="UTF-8"?>
<svg width="210px" height="182px" viewBox="0 0 210 182" version="1.1" xmlns="http://www.w3.org/2000/svg" xmlns:xlink="http://www.w3.org/1999/xlink">
<g id="Page-1" stroke="none" stroke-width="1" fill="none" fill-rule="evenodd">
<g id="Group" fill="#000000">
<path d="M199.828475,0.171864407 L10.1694915,0.171864407 C4.55237288,0.171864407 0,4.72474576 0,10.3413559 L0,129.324407 C0,134.941017 4.55237288,139.493898 10.1694915,139.493898 L81.100678,139.493898 L81.100678,162.537966 L53.4991525,162.537966 C48.3122034,162.537966 44.0923729,166.757797 44.0923729,171.944746 C44.0923729,177.131695 48.3122034,181.351525 53.4991525,181.351525 L156.498814,181.351525 C161.685763,181.351525 165.905593,177.131695 165.905593,171.944746 C165.905593,166.757797 161.685763,162.537966 156.498814,162.537966 L128.897288,162.537966 L128.897288,139.493898 L199.828475,139.493898 C205.445593,139.493898 209.997966,134.941017 209.997966,129.324407 L209.997966,10.3413559 C209.997966,4.72474576 205.445593,0.171864407 199.828475,0.171864407 Z M194.743729,124.239661 L15.2542373,124.239661 L15.2542373,15.4261017 L194.743729,15.4261017 L194.743729,124.239661 Z" id="Shape"></path>
<path d="M48.0971186,75.5781356 L80.1737288,90.4947458 C81.0030508,90.8786441 81.8857627,91.0733898 82.7984746,91.0733898 C83.9872881,91.0733898 85.1455932,90.7357627 86.1528814,90.0950847 C87.9569492,88.9423729 89.0338983,86.9781356 89.0338983,84.84 L89.0338983,84.6762712 C89.0338983,82.2605085 87.6177966,80.0415254 85.4257627,79.0225424 L65.3638983,69.7022034 L85.4262712,60.3798305 C87.6177966,59.3608475 89.0338983,57.1413559 89.0338983,54.7266102 L89.0338983,54.5644068 C89.0338983,52.4232203 87.9564407,50.4589831 86.1533898,49.3098305 C85.1557627,48.6722034 83.9938983,48.3355932 82.7944068,48.3355932 C81.890339,48.3355932 80.9827119,48.5344068 80.170678,48.9116949 L48.0966102,63.8262712 C45.9061017,64.8457627 44.4910169,67.0647458 44.4910169,69.4789831 L44.4910169,69.9254237 C44.4905085,72.3366102 45.9050847,74.5550847 48.0971186,75.5781356 Z" id="Shape"></path>
<path d="M89.319661,105.960508 C90.489661,107.561695 92.3715254,108.517627 94.3540678,108.517627 L94.5142373,108.517627 C97.2355932,108.517627 99.620339,106.775593 100.449153,104.187458 L121.579831,38.7162712 C122.185932,36.8262712 121.849322,34.7410169 120.679322,33.1362712 C119.509322,31.5350847 117.627458,30.5786441 115.644915,30.5786441 L115.485254,30.5786441 C112.762881,30.5786441 110.376102,32.320678 109.54678,34.9088136 L88.4135593,100.385593 C87.8125424,102.277119 88.1511864,104.360339 89.319661,105.960508 Z" id="Shape"></path>
<path d="M120.964068,54.7261017 C120.964068,57.139322 122.378644,59.3583051 124.571695,60.3813559 L144.633559,69.7016949 L124.571695,79.0220339 C122.379661,80.0410169 120.963559,82.26 120.963559,84.6757627 L120.963559,84.8394915 C120.963559,86.9776271 122.04,88.9418644 123.846102,90.0950847 C124.849831,90.7347458 126.009153,91.0728814 127.199492,91.0728814 C128.110678,91.0728814 128.992881,90.8781356 129.827797,90.4922034 L161.902881,75.5761017 C164.092881,74.5545763 165.507458,72.3361017 165.507458,69.9244068 L165.507458,69.4779661 C165.507458,67.0637288 164.092373,64.8447458 161.900847,63.8252542 L129.826271,48.909661 C129.017288,48.5338983 128.111186,48.3345763 127.20661,48.3345763 C126.007627,48.3345763 124.845254,48.6711864 123.848644,49.3067797 C122.041525,50.4579661 120.964068,52.4222034 120.964068,54.5633898 L120.964068,54.7261017 L120.964068,54.7261017 Z" id="Shape"></path>
</g>
</g>
</svg>
