<svg width="18" height="18" viewBox="0 0 18 18" xmlns="http://www.w3.org/2000/svg"><g fill="none"><path d="M-1165-255h1400v415h-1400z"/><path d="M16.431 8.394c.447 0 .82.146 1.12.438.299.292.449.658.449 1.098 0 .7-.335 1.168-1.006 1.406l-1.861.638.606 1.806c.05.151.076.321.076.508 0 .425-.151.793-.454 1.103-.303.31-.667.465-1.093.465-.339 0-.647-.097-.925-.292-.278-.195-.471-.454-.579-.779l-.595-1.785-3.353 1.147.595 1.774c.058.173.087.343.087.508 0 .425-.151.793-.454 1.103-.303.31-.671.465-1.103.465-.339 0-.645-.097-.919-.292-.274-.195-.465-.454-.573-.779l-.595-1.763-1.655.573c-.209.065-.389.097-.541.097-.44 0-.806-.144-1.098-.433-.292-.288-.438-.653-.438-1.093 0-.339.099-.645.297-.919.198-.274.456-.465.773-.573l1.688-.573-1.136-3.386-1.688.584c-.188.058-.361.087-.519.087-.433 0-.797-.146-1.093-.438-.296-.292-.444-.654-.444-1.087 0-.339.099-.645.297-.919.198-.274.456-.465.773-.573l1.698-.573-.573-1.72c-.058-.173-.087-.343-.087-.508 0-.433.151-.802.454-1.109.303-.306.671-.46 1.103-.46.339 0 .645.097.919.292.274.195.465.454.573.779l.584 1.731 3.353-1.136-.584-1.731c-.058-.173-.087-.343-.087-.508 0-.425.153-.793.46-1.103.306-.31.672-.465 1.098-.465.339 0 .647.099.925.297.278.198.471.456.579.773l.573 1.742 1.752-.595c.151-.043.306-.065.465-.065.433 0 .802.142 1.109.427.306.285.46.64.46 1.066 0 .325-.108.618-.325.882-.216.263-.483.449-.8.557l-1.698.584 1.136 3.418 1.774-.606c.173-.058.339-.087.498-.087zm-8.589 2.834l3.353-1.136-1.136-3.407-3.353 1.157 1.136 3.386z" fill="#B8C0C9"/></g></svg>
