<?xml version="1.0" encoding="UTF-8"?>
<svg width="210px" height="174px" viewBox="0 0 210 174" version="1.1" xmlns="http://www.w3.org/2000/svg" xmlns:xlink="http://www.w3.org/1999/xlink">
<g id="Page-1" stroke="none" stroke-width="1" fill="none" fill-rule="evenodd">
<g id="speed-for-your-enterprise" fill="#FFFFFF">
<g id="Shape">
<path d="M146.734627,36.9004478 C143.805075,16.4238806 126.25806,0.663432836 104.964478,0.663432836 C83.691791,0.663432836 66.1249254,16.4238806 63.2152239,36.9004478 L0,36.9004478 L0,173.754627 L14.6780597,173.754627 L14.6780597,57.0510448 L18.7819403,57.0510448 L18.7819403,173.754627 L190.821045,173.754627 L190.821045,56.8462687 L195.026269,56.8462687 L195.026269,173.754627 L209.939403,173.754627 L209.939403,36.9004478 L146.734627,36.9004478 Z M85.6935821,36.9004478 C86.6328358,26.9886567 94.8395522,19.2510448 104.97597,19.2510448 C115.112388,19.2510448 123.34,27.0085075 124.258358,36.9004478 L85.6935821,36.9004478 L85.6935821,36.9004478 Z"></path>
</g>
</g>
</g>
</svg>
