<?xml version="1.0" encoding="iso-8859-1"?>
<svg xmlns="http://www.w3.org/2000/svg" xmlns:xlink="http://www.w3.org/1999/xlink" version="1.1" id="Capa_1" x="0px" y="0px" viewBox="0 0 297.504 297.504" style="enable-background:new 0 0 297.504 297.504;" xml:space="preserve" width="512px" height="512px">
<g>
<path d="M267.762,75.021c1.563,1.563,3.609,2.344,5.657,2.344c2.047,0,4.095-0.781,5.656-2.343   c3.125-3.124,3.125-8.189,0.001-11.313l-28.895-28.896c-3.124-3.124-8.189-3.124-11.313-0.001   c-3.125,3.124-3.125,8.189-0.001,11.313l3.136,3.136l-16.904,16.737c-17.963-14.035-39.597-23.439-63.597-26.4V16h4.333   c4.418,0,8-3.582,8-8s-3.582-8-8-8h-41c-4.418,0-8,3.582-8,8s3.582,8,8,8h4.667v23.567c-64,7.85-113.417,62.473-113.417,128.481   c0,71.382,58.157,129.455,129.538,129.455S275.12,239.431,275.12,168.049c0-29.902-10.174-57.466-27.265-79.406l16.764-16.754   L267.762,75.021z M95.157,237.427c2.507-4.343,8.061-5.833,12.405-3.324c4.341,2.508,5.831,8.063,3.322,12.405   c-2.508,4.343-8.063,5.832-12.404,3.323C94.136,247.324,92.65,241.77,95.157,237.427z M98.479,86.23   c4.344-2.51,9.896-1.021,12.404,3.322c2.509,4.343,1.021,9.898-3.324,12.405c-4.342,2.508-9.896,1.019-12.404-3.324   C92.647,94.29,94.136,88.736,98.479,86.23z M69.413,168.032c0,5.013-4.066,9.079-9.081,9.079c-5.014,0-9.081-4.066-9.081-9.08   c0-5.016,4.064-9.081,9.081-9.081C65.347,158.95,69.414,163.016,69.413,168.032z M63.906,120.804   c2.508-4.345,8.059-5.834,12.404-3.324c4.342,2.507,5.833,8.062,3.322,12.404c-2.506,4.343-8.061,5.831-12.403,3.323   C62.888,130.699,61.399,125.145,63.906,120.804z M67.231,202.855c4.343-2.508,9.898-1.022,12.404,3.324   c2.509,4.342,1.02,9.896-3.323,12.403c-4.344,2.507-9.897,1.019-12.405-3.323C61.399,210.915,62.888,205.363,67.231,202.855z    M145.706,73.575c5.016,0,9.08,4.063,9.08,9.08c0,5.014-4.064,9.081-9.08,9.081c-5.015,0-9.081-4.067-9.081-9.081   C136.625,77.639,140.692,73.575,145.706,73.575z M137.502,151.683V117c0-4.418,3.582-8,8-8s8,3.582,8,8v34.807   c6,2.984,10.2,9.119,10.2,16.225c0,10.029-8.049,18.16-18.079,18.16c-10.029,0-18.287-8.131-18.287-18.16   C127.336,160.824,131.502,154.617,137.502,151.683z M145.709,244.323c5.015,0,9.08,4.066,9.08,9.081   c0,5.017-4.065,9.082-9.081,9.081c-5.015,0-9.08-4.065-9.081-9.081C136.627,248.39,140.693,244.323,145.709,244.323z    M196.258,98.632c-2.507,4.343-8.061,5.834-12.404,3.324c-4.343-2.507-5.831-8.063-3.324-12.404   c2.51-4.343,8.062-5.833,12.406-3.322C197.278,88.736,198.765,94.289,196.258,98.632z M192.938,249.829   c-4.345,2.508-9.896,1.021-12.406-3.322c-2.507-4.344-1.021-9.897,3.325-12.406c4.343-2.506,9.897-1.018,12.403,3.326   C198.767,241.77,197.28,247.324,192.938,249.829z M215.106,218.58c-4.345-2.507-5.834-8.061-3.324-12.404   c2.507-4.343,8.061-5.831,12.404-3.324c4.343,2.509,5.832,8.063,3.324,12.405C225.002,219.599,219.45,221.089,215.106,218.58z    M222.002,168.027c0-5.013,4.065-9.079,9.08-9.079c5.016,0.001,9.083,4.066,9.081,9.081c0,5.014-4.063,9.08-9.081,9.08   C226.068,177.109,222,173.044,222.002,168.027z M224.184,133.205c-4.343,2.508-9.897,1.021-12.405-3.324   c-2.507-4.341-1.019-9.897,3.326-12.403c4.343-2.508,9.898-1.021,12.404,3.324C230.016,125.144,228.529,130.697,224.184,133.205z" fill="#0070d3"/>
</g>
<g>
</g>
<g>
</g>
<g>
</g>
<g>
</g>
<g>
</g>
<g>
</g>
<g>
</g>
<g>
</g>
<g>
</g>
<g>
</g>
<g>
</g>
<g>
</g>
<g>
</g>
<g>
</g>
<g>
</g>
</svg>
