<?xml version="1.0" encoding="utf-8"?>
<svg version="1.1" id="Layer_1" xmlns="http://www.w3.org/2000/svg" xmlns:xlink="http://www.w3.org/1999/xlink" x="0px" y="0px"
viewBox="0 0 64 64" enable-background="new 0 0 64 64" xml:space="preserve">
<g id="Brain-power_1_">
<path d="M24.6973553,14.6655998c-1.6688995,0-3.0263004,1.3574009-3.0263004,3.0263004
c0,1.6690006,1.3574009,3.0268993,3.0263004,3.0268993c1.6690006,0,3.027401-1.3578987,3.027401-3.0268993
C27.7247562,16.0230007,26.3663559,14.6655998,24.6973553,14.6655998z M24.6973553,19.7187996
c-1.1171989,0-2.0263004-0.9091988-2.0263004-2.0268993c0-1.1172009,0.9091015-2.0263004,2.0263004-2.0263004
c1.1182003,0,2.027401,0.9090996,2.027401,2.0263004C26.7247562,18.8096008,25.8155556,19.7187996,24.6973553,19.7187996z"/>
<path d="M43.6426544,21.4741993c-0.2919998-0.8149986-0.743103-1.5571995-1.342701-2.2066002
c-0.1504021-0.1620998-0.3867989-0.2118988-0.5908966-0.1259995l-1.2587013,0.5386009
c-0.4239006-0.3241997-0.902401-0.586401-1.4112015-0.7728996l-0.1317978-1.2671013
c-0.0235023-0.2304993-0.1963005-0.4179993-0.4238014-0.4604988c-0.8848-0.1660004-1.7812996-0.1660004-2.6660995,0
c-0.2275009,0.0424995-0.4002991,0.2294998-0.4238014,0.4599991l-0.1327972,1.2670994
c-0.5078011,0.1865005-0.9873009,0.4492016-1.4111023,0.7734013l-0.6721992-0.2881012
c0.1448021-0.0726986,0.2525024-0.2094002,0.2775993-0.3773994c0.1299019-0.8775005,0.1299019-1.7675991,0-2.6450005
c-0.035099-0.2343998-0.2274971-0.4140997-0.4637985-0.4325991l-1.8544998-0.1456003
c-0.1436005-0.4951-0.339901-0.9692001-0.5869007-1.4168997l1.2089005-1.4156008
c0.1534004-0.1801996,0.1630993-0.4432993,0.0214996-0.6337996c-0.5282993-0.7124004-1.1571999-1.3413-1.8691006-1.8696003
c-0.1924-0.1415997-0.4530983-0.1328001-0.6348,0.0220003l-1.414999,1.2089996
c-0.4482994-0.2480993-0.9229012-0.4448996-1.4160004-0.5873995l-0.1464996-1.8544998
c-0.0186005-0.2364006-0.1982994-0.4287004-0.4326-0.4634008c-0.8770008-0.1317997-1.767601-0.1317997-2.6445999,0
c-0.2343006,0.0347004-0.4139996,0.2270002-0.4326,0.4634008l-0.1464996,1.8544998
c-0.4931011,0.1424999-0.967701,0.3393002-1.4160004,0.5873995l-1.4150009-1.2089996
c-0.1816998-0.1538-0.4433994-0.1626005-0.6348-0.0220003c-0.7108994,0.5274-1.3397999,1.1563005-1.8701,1.8691006
c-0.1415997,0.191-0.1317997,0.4540997,0.022501,0.6342993l1.2089005,1.4156008
c-0.2480011,0.4491997-0.4443016,0.9232998-0.5869007,1.4168997l-1.8544998,0.1456003
c-0.2363005,0.0184994-0.4287004,0.1976995-0.4638004,0.4320993c-0.1318998,0.8779011-0.1318998,1.7679996,0,2.6459999
c0.0351,0.2343998,0.2275,0.4136009,0.4638004,0.4321003l1.8544998,0.1455002
c0.1425991,0.4937,0.3388996,0.9678001,0.5869007,1.4169998l-1.2089005,1.4155006
c-0.1543007,0.1801987-0.1641006,0.4438992-0.022501,0.6343002c0.5303001,0.7128983,1.1592007,1.3417988,1.8701,1.8695984
c0.1904011,0.1407013,0.4540997,0.1319008,0.6348-0.0218983l1.4150009-1.2095013
c0.4482994,0.2480011,0.9228992,0.4447994,1.4160004,0.5874004l0.1464996,1.8544998
c0.0186005,0.2362995,0.1982994,0.4286995,0.4326,0.4633999c0.4384995,0.0659008,0.8808994,0.0986004,1.3223,0.0986004
s0.8838005-0.0326996,1.3223-0.0986004c0.2343006-0.0347004,0.4139996-0.2271004,0.4326-0.4633999l0.1464996-1.8544998
c0.4930992-0.142601,0.967701-0.3393993,1.4160004-0.5874004l1.414999,1.2095013
c0.0825005,0.0704994,0.1844006,0.1019993,0.2866001,0.1114998c-0.7607002-0.1571999-1.5353985-0.1926003-2.3071003-0.0881004
c-0.2128983,0.0287991-0.3817997,0.1924-0.4169998,0.4037991l-0.2118988,1.2821999
c-0.517601,0.1582012-1.0116997,0.397501-1.4531002,0.703701l-1.210001-0.6133003
c-0.1854992-0.0928001-0.4110985-0.0596008-0.5614986,0.0858994c-0.6211014,0.6069012-1.1074009,1.3179016-1.4442997,2.1133003
c-0.0860004,0.2026005-0.0244007,0.4379997,0.1483994,0.5737l1.044899,0.8178997
c-0.112299,0.5044003-0.1444988,1.0264015-0.0936985,1.5391006l-1.1406002,0.6942997
c-0.1875,0.1142006-0.2754002,0.3393021-0.214901,0.5503006c0.2354012,0.8256989,0.6317997,1.5873985,1.1767998,2.2640991
c0.1317997,0.1636009,0.3515015,0.2222023,0.5488014,0.1519012l1.2763996-0.471199
c0.4004002,0.3535004,0.8603001,0.6459999,1.3535004,0.8622971l0.0536995,1.2944031
c0.0088005,0.2158966,0.1592007,0.4003983,0.3682003,0.4526978c0.5555992,0.1395988,1.1210003,0.2094994,1.6893997,0.2094994
c0.3046989,0,0.6112995-0.0200996,0.9169998-0.0606003c0.2129002-0.0282974,0.3827991-0.1918983,0.4179993-0.4037971
l0.2109013-1.2821999c0.5185986-0.1587029,1.0116997-0.3975029,1.4531002-0.7036018l1.2099991,0.6132011
c0.1865005,0.0932999,0.4110985,0.0606003,0.5615005-0.0858994c0.6211014-0.6069031,1.107399-1.3184013,1.4442978-2.1138
c0.0860023-0.2026024,0.0245018-0.4379997-0.1483994-0.5737l-1.044899-0.8174019
c0.1142006-0.5077991,0.1455002-1.0233994,0.0937004-1.5389996l1.1407013-0.6944008
c0.1875-0.1141987,0.2753983-0.3392982,0.214798-0.5502987c-0.2123985-0.7446003-0.5612984-1.4323006-1.0237007-2.0547009
l0.2346001-0.1005001c0.4239006,0.3241997,0.902401,0.5869007,1.410202,0.773901l0.1327972,1.2660999
c0.0235023,0.2299995,0.1963005,0.4169998,0.4229012,0.4599991c0.4422989,0.0834999,0.8885994,0.1254005,1.3339005,0.1254005
c0.4454002,0,0.8917007-0.0419006,1.3339996-0.1254005c0.2266006-0.0429993,0.3993988-0.2299995,0.4229012-0.4604988
l0.1317978-1.2656002c0.5078011-0.1870003,0.9873009-0.4497013,1.4112015-0.773901l1.2587013,0.5384998
c0.2040977,0.0869007,0.4404945,0.0370998,0.5908966-0.1259003c0.5995979-0.6484985,1.0507011-1.3911991,1.342701-2.2070999
c0.0800972-0.2245998-0.0018997-0.4750996-0.1982002-0.6093998l-1.0946999-0.7440987
c0.0790977-0.4966011,0.0790977-1.0059013,0-1.5029011l1.0946999-0.7441998
C43.6417542,21.9493008,43.7227516,21.6987991,43.6426544,21.4741993z M30.7515564,21.2458992L30.5499554,21.0098
c0.2469997-0.4477005,0.4433002-0.9223995,0.5869007-1.4169998l0.6345005-0.0498009
C31.3416557,20.0596008,31.0001564,20.6299,30.7515564,21.2458992z M28.2471561,22.6875
c-0.1689014-0.1434994-0.4131012-0.1606007-0.6014996-0.0443993c-0.5528011,0.3466988-1.1563015,0.5971985-1.7940006,0.7440987
c-0.2168007,0.0499001-0.3759995,0.2343998-0.3934994,0.4561005l-0.1416016,1.8022003
c-0.5136986,0.0499001-1.0312996,0.0499001-1.5450001,0l-0.1415997-1.8022003
c-0.0174999-0.2217007-0.1767006-0.4062004-0.3934994-0.4561005c-0.637701-0.1469002-1.2411995-0.3973999-1.7940006-0.7440987
c-0.1884003-0.1172009-0.4326-0.1001015-0.6014996,0.0443993l-1.375,1.1748009
c-0.397501-0.3276005-0.7637005-0.6933002-1.0928001-1.0922012l1.1748009-1.375
c0.1444988-0.1689987,0.1630993-0.4125996,0.044899-0.601099c-0.3465996-0.5531998-0.5965996-1.1568012-0.7441006-1.7944012
c-0.049799-0.2167988-0.2343998-0.3759995-0.4560986-0.3935986l-1.8017006-0.1416016
c-0.0508003-0.5136986-0.0508003-1.0307999,0-1.5443993l1.8017006-0.1415997
c0.2216988-0.017601,0.4062996-0.1767998,0.4560986-0.3936005c0.147501-0.6377001,0.397501-1.2411995,0.7441006-1.7944002
c0.1182003-0.1884995,0.0995998-0.4321995-0.044899-0.6015997l-1.1748009-1.3745003
c0.3290997-0.3989,0.6942997-0.7645998,1.0928001-1.0922995l1.375,1.1747999
c0.169899,0.1444998,0.414999,0.1616001,0.6014996,0.0444994c0.5528011-0.3466997,1.1562996-0.5971994,1.7940006-0.7441998
c0.2167988-0.0497999,0.3759995-0.2343998,0.3934994-0.4560003L23.7715549,9.7388
c0.5137005-0.0497999,1.0313015-0.0497999,1.5450001,0l0.1416016,1.8022995
c0.0174999,0.2216005,0.1766987,0.4062004,0.3934994,0.4560003c0.6376991,0.1470003,1.2411995,0.3975,1.7940006,0.7441998
c0.1875,0.1162004,0.4315987,0.0991001,0.6014996-0.0444994l1.375-1.1747999
c0.3985004,0.3280993,0.7636986,0.6933994,1.0917988,1.0917997l-1.174799,1.3754997
c-0.1434994,0.1689005-0.1620998,0.4126005-0.0438995,0.6011c0.3456993,0.5508003,0.5956993,1.1548004,0.7440987,1.7953997
c0.0498009,0.216301,0.2343998,0.375,0.4561005,0.392601l1.8016987,0.1415997c0.0498009,0.5135994,0.0498009,1.0307007,0,1.5443993
l-1.8016987,0.1416016c-0.2217007,0.0175991-0.4062996,0.1763-0.4561005,0.3925991
c-0.1483994,0.6406002-0.3983994,1.2446003-0.7440987,1.7954006c-0.1182003,0.1884995-0.0995998,0.4321003,0.0438995,0.601099
l1.174799,1.375c-0.3281002,0.398901-0.6932983,0.7646008-1.0917988,1.092701L28.2471561,22.6875z M29.9112549,24.9291992
c0.7119007-0.5282993,1.3408012-1.1571999,1.8691006-1.8701c0.0633011-0.0851994,0.0860004-0.1864986,0.0893993-0.2867985
l0.081501,0.0553989c-0.0790997,0.4969997-0.0790997,1.0063,0,1.5029011l-1.0956993,0.7440987
c-0.1982002,0.1343002-0.2793007,0.3848-0.1992016,0.6099014c0.2554016,0.7128983,0.6394005,1.3642998,1.1296005,1.9491997
l-0.1480999,0.0546989c-0.4013996-0.3535004-0.8614006-0.6459999-1.3535995-0.8617992l-0.0536995-1.2943993
c-0.0088005-0.2159004-0.1592007-0.3999004-0.3681011-0.4527016c-0.0872002-0.0219002-0.1753006-0.0345993-0.2630005-0.0534
C29.7083549,25.0279007,29.8184547,24.9978008,29.9112549,24.9291992z M32.5049553,30.2110004
c-0.169899,0.1040001-0.2597008,0.301199-0.2265015,0.4979992c0.0996017,0.5888996,0.0635033,1.1797009-0.107399,1.7559013
c-0.0576973,0.1918983,0.0087013,0.3993988,0.1660004,0.5228996l0.9930992,0.7769012
c-0.2215996,0.4389992-0.5,0.8446999-0.8319969,1.2108994l-1.1572018-0.5864029
c-0.1718998-0.0858994-0.3740005-0.0663986-0.5235004,0.0527c-0.4834003,0.3824005-1.0370998,0.6494026-1.6455002,0.7945023
c-0.1903992,0.0453987-0.3358994,0.2006989-0.3680992,0.3945007l-0.2012005,1.2235985
c-0.5126991,0.0367012-1.0263996,0.0088005-1.5321999-0.0868988l-0.0508003-1.2344017
c-0.0088005-0.1977005-0.1348-0.3705978-0.3213005-0.4384003c-0.5770988-0.2094994-1.107399-0.5463982-1.5351982-0.9741974
c-0.1337013-0.134201-0.3330002-0.1772003-0.5136013-0.1132011l-1.219799,0.4501991
c-0.2851009-0.4019012-0.5116997-0.8349991-0.6767006-1.293499l1.0839996-0.660202
c0.1709003-0.1040001,0.2607002-0.3016968,0.2264996-0.4989967c-0.1005993-0.5879021-0.0643997-1.1782017,0.1075001-1.7544022
c0.0576-0.1919003-0.0078983-0.3999004-0.1660995-0.5233994l-0.9930992-0.7769012
c0.2216988-0.4389,0.5-0.8441982,0.8319988-1.2103996l1.1571999,0.586401
c0.1700001,0.0844994,0.3731003,0.0649986,0.5235004-0.0527c0.4764996-0.3770008,1.0459003-0.6519012,1.6445007-0.7945004
c0.1914005-0.0449009,0.3368988-0.2005997,0.3691006-0.3945007l0.2021999-1.2241001
c0.5155983-0.0375996,1.0243988-0.0082989,1.5311985,0.0869007l0.0508003,1.2348995
c0.0088005,0.1977005,0.1348,0.3711014,0.3213005,0.4384003c0.5762005,0.2084999,1.1065006,0.5454998,1.5352001,0.9742012
c0.1346989,0.1346989,0.3368988,0.1791992,0.5135994,0.1131992l1.2206993-0.4505997
c0.2842026,0.4007988,0.5107994,0.8338985,0.6758003,1.2938995L32.5049553,30.2110004z M41.4737549,22.1562996
c-0.1796989,0.1224995-0.264698,0.3432999-0.2138977,0.5552006c0.1357994,0.5678005,0.1357994,1.1679001,0,1.7353001
c-0.0508003,0.2113991,0.0341988,0.4326,0.2138977,0.5552006l1.0331993,0.7020988
c-0.190403,0.4288006-0.4365005,0.830101-0.7372971,1.1996994l-1.1991997-0.5130997
c-0.1846008-0.0790997-0.3975029-0.0444984-0.5508003,0.0874004c-0.4580002,0.4004002-1.0156021,0.7049999-1.6142998,0.8813
c-0.2031021,0.0601006-0.3506012,0.2373009-0.3720016,0.4482994l-0.1259995,1.201601
c-0.5039024,0.0625-1.0107994,0.0625-1.5147018,0l-0.1259003-1.2021008
c-0.0214996-0.2109985-0.1689987-0.3876991-0.372097-0.4477997c-0.5986023-0.1763-1.1562996-0.4808998-1.6142998-0.8813
c-0.1533012-0.1327991-0.3652-0.1665001-0.5507011-0.0874004l-1.1982994,0.5136013
c-0.3008003-0.3691006-0.547802-0.7709999-0.7392006-1.200201l1.0340996-0.7020988
c0.1806984-0.1221008,0.2657013-0.3432999,0.214901-0.5552006c-0.1357994-0.5674-0.1357994-1.1674995,0-1.7353001
c0.0508003-0.2119007-0.0342026-0.4330997-0.214901-0.5552006l-1.0340996-0.7021999
c0.1913986-0.4286995,0.4393997-0.8299999,0.7392006-1.1991997l1.1982994,0.5132008
c0.1865005,0.0800991,0.4002991,0.0443993,0.5507011-0.0874004c0.4580002-0.4004002,1.0156975-0.705101,1.6132965-0.8803997
c0.2041016-0.0594997,0.3516006-0.2368011,0.3731003-0.4477005l0.1259003-1.2031002
c0.5039024-0.0615997,1.0107994-0.0615997,1.5147018,0l0.1259995,1.2026005
c0.0214005,0.2113991,0.1688995,0.3887005,0.3730011,0.4482002c0.5976982,0.1752987,1.1553001,0.4799995,1.6133003,0.8803997
c0.1503983,0.1317997,0.3641968,0.1674995,0.5508003,0.0874004L41.7696571,20.2549
c0.2997971,0.3701,0.5468941,0.7714996,0.7372971,1.1991997L41.4737549,22.1562996z"/>
<path d="M58.0342522,33.1416016c-0.0185013-0.2275009-0.1161957-0.4419022-0.2733994-0.6069031
c-0.0360985-0.0375977-3.4618988-3.6254978-5.5917969-6.6713982c1.0966988-3.9526005,0.6405983-7.5419998,0.2304955-9.4496994
c0.592701-0.0395012,1.2168007-0.2085018,1.6473999-0.6621008c0.2627029-0.2768002,0.6612015-0.8926001,0.3770027-1.9071999
C51.7217522,4.2221999,45.7667542,3.5669,44.1973534,3.5669c-0.0078011,0-0.0156021,0-0.0223999,0
C42.8956528,2.8477001,37.311657,0.0039,29.6114559,0C21.8956566,0.0196,5.9610558,4.9527001,5.9610558,20.0771999
c0,8.5790997,2.7294998,13.0101986,5.1377001,16.9194012c1.8056993,2.9325981,3.3661995,5.4657974,3.21,9.2700005
c-0.2891006,7.0200996-5.7617998,16.1236-5.8174,16.2148972c-0.1866007,0.3086014-0.1934004,0.6943016-0.0157003,1.0093002
C8.6524553,63.8051987,8.9854555,64,9.346756,64h29.8066978c0.3095016,0,0.6015015-0.144001,0.7910004-0.3890991
c0.1893997-0.2451019,0.2549019-0.5645027,0.1767998-0.8642998c-0.3671989-1.4028015-1.0107994-5.4472008,0.3916016-7.2929001
c0.4970016-0.652401,1.2265015-0.9771004,2.2333984-0.9922028c4.3798027-0.0673981,7.047802-0.8002968,8.3973999-2.3066978
c1.2968979-1.4477005,1.1259995-3.2411995,0.9755974-4.8232002c-0.0565987-0.5946999-0.1103973-1.1636009-0.0878983-1.6812019
c0.6338005-0.5140991,0.9921989-1.0560989,1.0937996-1.6473999c0.110302-0.6464996-0.1142998-1.1728973-0.3574982-1.5639992
c1.1114006-0.3358994,1.5830002-0.980999,1.782299-1.480999c0.4432983-1.1108017-0.0235023-2.357399-0.7373009-3.5985985
C58.1280556,35.8814011,58.0596542,33.4384995,58.0342522,33.1416016z M52.0284538,35.7984009
c-0.3145027,0.0775986-0.5723,0.3031998-0.6905022,0.6049995c-0.1190987,0.3017006-0.0838966,0.642498,0.0937996,0.9134979
c0.3721008,0.5674019,1.502903,2.2930031,1.2607002,2.8994026c-0.0545998,0.1367989-0.2929001,0.2636986-0.6532974,0.3486977
c-0.3828011,0.0898018-1.2783012,0.3013-1.5605011,1.0688019c-0.2559013,0.6939011,0.1610985,1.2621994,0.410099,1.6021004
c0.089901,0.1224976,0.2578011,0.3511009,0.2647018,0.4301987c0,0-0.0517998,0.2210999-0.6416016,0.6235008
c-0.232399,0.1591988-0.3876991,0.408699-0.4257965,0.6879997c-0.1182022,0.8496017-0.0361023,1.7103996,0.0419998,2.5429001
c0.1278992,1.3437996,0.2382965,2.5040016-0.4746017,3.3003006c-0.9248009,1.032299-3.2588005,1.5839996-6.9384995,1.6406975
c-1.6152,0.0244026-2.9286995,0.6416016-3.7958984,1.7851028C37.2598572,56.4317017,37.5948563,60.0834999,37.923954,62H11.066556
c1.6307993-2.9916992,5.0008993-9.8294983,5.2401991-15.6512985c0.1816006-4.4151001-1.6093998-7.3227997-3.5058994-10.4009018
c-2.2685003-3.6830978-4.8397999-7.8579006-4.8397999-15.8705997C7.9610558,6.46,22.5508556,2.0181,29.6172562,2
c0.0244999,0,0.0488987,0,0.0732994,0c7.982399,0,13.6552963,3.3965001,13.7118988,3.4306998
c0.1854973,0.1128001,0.402298,0.1611004,0.622097,0.1416001c0.047802-0.0112,5.8623009-0.4868002,8.4736023,8.8125
l0.0009995,0.0049c-0.2647018,0.0537004-0.7910004,0.0321999-1.2040977-0.0580997
c-0.3535042-0.0816002-0.7217026,0.0389996-0.9619026,0.3076c-0.2421989,0.2690001-0.3194008,0.6483994-0.2032013,0.9906998
c0.0166016,0.0479002,1.6065025,4.8495998-0.009697,10.1147995c-0.0889015,0.2881012-0.0419998,0.6009998,0.1259995,0.8509998
c1.8232002,2.7124004,4.7030983,5.8638,5.7118988,6.9424019C55.7403526,34.0331993,54.9415512,35.078701,52.0284538,35.7984009z"/>
</g>
<g>
</g>
<g>
</g>
<g>
</g>
<g>
</g>
<g>
</g>
<g>
</g>
<g>
</g>
<g>
</g>
<g>
</g>
<g>
</g>
<g>
</g>
<g>
</g>
<g>
</g>
<g>
</g>
<g>
</g>
</svg>
