<?xml version="1.0" encoding="iso-8859-1"?>
<svg version="1.1" id="Capa_1" xmlns="http://www.w3.org/2000/svg" xmlns:xlink="http://www.w3.org/1999/xlink" x="0px" y="0px"
viewBox="0 0 55.001 55.001" style="enable-background:new 0 0 55.001 55.001;" xml:space="preserve">
<g>
<path d="M31.5,0.001v3.345c0,3.07,2.425,5.568,5.404,5.568H44.5v28.569c0,4.825-3.483,8.605-7.93,8.605H18.372
c-4.414,0-7.871-3.753-7.871-8.545V8.914h12.63V4.823C23.13,2.164,21.028,0,18.444,0H1.5v37.482
c-0.001,4.654,1.761,9.044,4.959,12.361c3.207,3.326,7.458,5.158,11.97,5.158h18.065c9.378,0,17.007-7.895,17.007-17.599V0.001
H31.5z M51.5,37.402c0,8.602-6.732,15.599-15.007,15.599H18.429c-3.963,0-7.703-1.615-10.53-4.546
C5.062,45.513,3.5,41.616,3.5,37.482V2h14.943c1.481,0,2.687,1.267,2.687,2.823v2.091H8.5v30.629
c0,5.913,4.336,10.545,9.871,10.545h18.199c5.568,0,9.93-4.658,9.93-10.605V6.914h-9.596c-1.877,0-3.404-1.601-3.404-3.568V2.001
h18V37.402z"/>
</g>
<g>
</g>
<g>
</g>
<g>
</g>
<g>
</g>
<g>
</g>
<g>
</g>
<g>
</g>
<g>
</g>
<g>
</g>
<g>
</g>
<g>
</g>
<g>
</g>
<g>
</g>
<g>
</g>
<g>
</g>
</svg>
