<?xml version="1.0" encoding="iso-8859-1"?>
<!-- Generator: Adobe Illustrator 18.0.0, SVG Export Plug-In . SVG Version: 6.00 Build 0)  -->
<!DOCTYPE svg PUBLIC "-//W3C//DTD SVG 1.1//EN" "http://www.w3.org/Graphics/SVG/1.1/DTD/svg11.dtd">
<svg version="1.1" id="Capa_1" xmlns="http://www.w3.org/2000/svg" xmlns:xlink="http://www.w3.org/1999/xlink" x="0px" y="0px"
	 viewBox="0 0 295.487 295.487" style="enable-background:new 0 0 295.487 295.487;" xml:space="preserve">
<g>
	<path d="M147.741,211.033c-1.971,0-3.91,0.8-5.301,2.189c-1.399,1.4-2.199,3.33-2.199,5.3c0,1.98,0.8,3.91,2.199,5.311
		c1.4,1.39,3.33,2.189,5.301,2.189c1.98,0,3.91-0.8,5.3-2.189c1.399-1.4,2.2-3.33,2.2-5.311c0-1.97-0.801-3.899-2.2-5.3
		C151.651,211.833,149.72,211.033,147.741,211.033z"/>
	<path d="M268.749,21.336h-96.692c-9.59-12.349-18.59-19.232-19.393-19.834c-2.666-2.003-6.338-2.002-9.006,0.001
		c-0.803,0.603-9.799,7.485-19.384,19.833H26.738c-12.958,0-23.5,10.542-23.5,23.5V226.06c0,12.958,10.542,23.5,23.5,23.5h80.233
		l-10.302,30.925h-9.814c-4.143,0-7.5,3.357-7.5,7.5s3.357,7.5,7.5,7.5h15.197c0.008,0,0.017,0.002,0.024,0.002
		c0.008,0,0.017-0.002,0.025-0.002h91.283c0.008,0,0.016,0.002,0.024,0.002c0.008,0,0.017-0.002,0.024-0.002h15.199
		c4.143,0,7.5-3.357,7.5-7.5s-3.357-7.5-7.5-7.5h-9.816l-10.301-30.925h80.233c12.958,0,23.5-10.542,23.5-23.5V44.836
		C292.249,31.878,281.707,21.336,268.749,21.336z M268.749,36.336c4.686,0,8.5,3.813,8.5,8.5V185.64h-61.116v-46.987
		c0-12.66-8.539-23.354-20.153-26.635V88.206c0-20.713-6.212-38.169-13.933-51.87H268.749z M114.102,162.982
		c0.82-1.231,1.258-2.678,1.258-4.157v-2.426h15.237v10.981c0,5.112,3.394,12.39,6.689,18.26H99.014L114.102,162.982z
		 M95.204,164.298v-25.645c0-4.181,2.03-7.896,5.155-10.206v28.109L95.204,164.298z M201.133,164.296l-5.153-7.739v-28.108
		c3.124,2.311,5.153,6.025,5.153,10.205V164.296z M180.98,118.475v22.924h-15.232v-11.31c0-10.54-7.889-19.114-17.585-19.114
		c-9.685,0-17.565,8.574-17.565,19.114v11.31H115.36v-22.924V91.692h65.62V118.475z M145.597,167.381V130.09
		c0-2.512,1.52-4.114,2.565-4.114c1.054,0,2.585,1.603,2.585,4.114l0.001,37.246c-0.068,1.148-1.068,3.668-2.583,6.73
		C146.659,171.015,145.664,168.512,145.597,167.381z M165.747,167.381v-10.981h15.232v2.426c0,1.48,0.438,2.926,1.257,4.156
		l15.088,22.659h-38.277C162.349,179.77,165.747,172.493,165.747,167.381z M148.162,17.414c8.738,8.183,27.479,28.78,31.875,58.199
		h-63.735C120.697,46.188,139.435,25.591,148.162,17.414z M26.738,36.336h87.55c-7.718,13.701-13.928,31.157-13.928,51.87v23.813
		c-11.615,3.281-20.155,13.975-20.155,26.635v46.987H18.238V44.836C18.238,40.149,22.051,36.336,26.738,36.336z M183.007,280.485
		h-70.528l10.302-30.925h49.926L183.007,280.485z M268.749,234.56H26.738c-4.687,0-8.5-3.814-8.5-8.5v-25.42h259.012v25.42
		C277.249,230.747,273.436,234.56,268.749,234.56z"/>
</g>
<g>
</g>
<g>
</g>
<g>
</g>
<g>
</g>
<g>
</g>
<g>
</g>
<g>
</g>
<g>
</g>
<g>
</g>
<g>
</g>
<g>
</g>
<g>
</g>
<g>
</g>
<g>
</g>
<g>
</g>
</svg>
