<?xml version="1.0" encoding="UTF-8"?>
<svg width="1110px" height="225px" viewBox="0 0 1110 225" version="1.1" xmlns="http://www.w3.org/2000/svg" xmlns:xlink="http://www.w3.org/1999/xlink">
<g id="Page-1" stroke="none" stroke-width="1" fill="none" fill-rule="evenodd">
<g id="hosting-publish" transform="translate(72.000000, 0.000000)">
<g id="Icons">
<g id="Icon_-_HTML_copy" transform="translate(96.000000, 47.000000)">
<path d="M20.7,0.5 L59.1,0.5 C62.6,0.5 65.5,3.3 65.5,6.8 L65.5,6.8 L65.5,75.1 C65.5,78.6 62.6,81.4 59.1,81.4 L59.1,81.4 L7.9,81.4 C4.4,81.4 1.5,78.6 1.5,75.1 L1.5,75.1 L1.5,19.5 L20.7,0.5 L20.7,0.5 Z" id="Bg" stroke="#141E4F" stroke-width="3" fill="#FFFFFF"></path>
<path d="M65.5,8.5 L65.5,75.2 C65.5,78.7 62.6,81.5 59.1,81.5 L59.1,81.5 L7.5,81.5" id="Shadow" stroke="#141E4F" stroke-width="3" fill="#FAFAFA"></path>
<path d="M19.2,3 L0,22 L12.8,22 C16.3,22 19.2,19.2 19.2,15.7 L19.2,15.7 L19.2,3 L19.2,3 Z" id="Corner" stroke="#141E4F" stroke-width="3" fill="#FFFFFF"></path>
<path d="M28.5,45.7 C28.5,46.1 28.4,46.5 28.2,46.9 C28,47.2 27.7,47.3 27.3,47.3 C27.1,47.3 27,47.3 26.8,47.2 C26.7,47.2 26.5,47.1 26.4,47 C26.3,46.9 26.2,46.7 26.2,46.6 C26.1,46.4 26.1,46.1 26.1,45.9 L23.3,45.9 C23.3,46.4 23.4,47 23.6,47.5 C23.8,47.9 24.1,48.3 24.4,48.6 C24.8,48.9 25.2,49.1 25.7,49.3 C26.2,49.4 26.8,49.5 27.3,49.5 C27.8,49.5 28.4,49.4 28.9,49.2 C29.4,49 29.8,48.8 30.2,48.4 C30.6,48.1 30.8,47.7 31,47.2 C31.2,46.7 31.3,46.2 31.3,45.6 L31.3,37.8 L28.5,37.8 L28.5,45.7 L28.5,45.7 L28.5,45.7 Z M38.9,46.7 C38.8,46.8 38.8,47 38.6,47.1 C38.5,47.2 38.3,47.3 38.1,47.3 C37.9,47.4 37.7,47.4 37.4,47.4 C37.1,47.4 36.8,47.4 36.5,47.3 C36.3,47.2 36.1,47.1 35.9,47 C35.7,46.9 35.6,46.7 35.5,46.4 C35.4,46.1 35.4,45.8 35.4,45.6 L32.6,45.6 C32.6,46 32.7,46.4 32.8,46.8 C32.9,47.2 33.1,47.5 33.3,47.8 C33.5,48.1 33.8,48.3 34.1,48.5 C34.4,48.7 34.7,48.9 35.1,49 C35.5,49.1 35.8,49.2 36.2,49.3 C36.6,49.4 37,49.4 37.4,49.4 C38,49.4 38.6,49.3 39.2,49.2 C39.7,49.1 40.1,48.9 40.5,48.6 C40.9,48.3 41.2,48 41.4,47.6 C41.6,47.2 41.7,46.7 41.7,46.2 C41.7,45.8 41.6,45.3 41.4,44.9 C41.2,44.5 41,44.2 40.6,43.9 C40.2,43.6 39.8,43.3 39.4,43.1 C38.9,42.8 38.3,42.6 37.8,42.5 C37.5,42.4 37.2,42.3 36.9,42.2 C36.7,42.1 36.4,42 36.2,41.9 C36,41.8 35.9,41.7 35.8,41.5 C35.7,41.4 35.7,41.2 35.7,41 C35.7,40.8 35.7,40.7 35.8,40.6 C35.9,40.5 36,40.3 36.1,40.2 C36.3,40.1 36.4,40 36.6,40 C36.8,39.9 37.1,39.9 37.3,39.9 C37.5,39.9 37.8,39.9 38,40 C38.2,40.1 38.4,40.2 38.5,40.3 C38.6,40.4 38.7,40.6 38.8,40.8 C38.9,41 38.9,41.2 38.9,41.4 L41.7,41.4 C41.7,40.4 41.3,39.5 40.5,38.8 C40.1,38.5 39.6,38.2 39.1,38.1 C38.5,37.9 38,37.8 37.4,37.9 C36.8,37.9 36.2,38 35.6,38.1 C35.1,38.2 34.6,38.4 34.2,38.7 C33.8,39 33.5,39.3 33.3,39.7 C33.1,40.1 33,40.6 33,41 C33,41.5 33.1,41.9 33.3,42.3 C33.5,42.7 33.8,43 34.2,43.3 C34.6,43.6 35,43.9 35.4,44 C35.9,44.2 36.4,44.4 36.9,44.6 C37.3,44.7 37.6,44.8 37.9,45 C38.1,45.1 38.3,45.2 38.5,45.4 C38.6,45.5 38.7,45.7 38.8,45.8 C38.9,46 38.9,46.1 38.9,46.3 C39,46.4 38.9,46.5 38.9,46.7 L38.9,46.7 Z" id="JS" fill="#FFCC01"></path>
</g>
<g id="Icon_-_HTML" transform="translate(52.000000, 79.000000)">
<path d="M19.7,0.5 L58.1,0.5 C61.6,0.5 64.5,3.3 64.5,6.8 L64.5,6.8 L64.5,75.1 C64.5,78.6 61.6,81.4 58.1,81.4 L58.1,81.4 L6.9,81.4 C3.4,81.4 0.5,78.6 0.5,75.1 L0.5,75.1 L0.5,19.5 L19.7,0.5 L19.7,0.5 Z" id="Bg-2" stroke="#141E4F" stroke-width="3" fill="#FFFFFF"></path>
<path d="M64.5,8.5 L64.5,75.2 C64.5,78.7 61.6,81.5 58.1,81.5 L58.1,81.5 L6.5,81.5" id="Shadow-2" stroke="#141E4F" stroke-width="3" fill="#FAFAFA"></path>
<path d="M19.7,0.5 L58.1,0.5 C61.6,0.5 64.5,3.3 64.5,6.8 L64.5,6.8 L64.5,75.1 C64.5,78.6 61.6,81.4 58.1,81.4 L58.1,81.4 L6.9,81.4 C3.4,81.4 0.5,78.6 0.5,75.1 L0.5,75.1 L0.5,19.5 L19.7,0.5 L19.7,0.5 Z" id="Border" stroke="#141E4F" stroke-width="3"></path>
<path d="M19.2,0 L0,19 L12.8,19 C16.3,19 19.2,16.2 19.2,12.7 L19.2,12.7 L19.2,0 L19.2,0 Z" id="Corner-2" stroke="#141E4F" stroke-width="3" fill="#FFFFFF"></path>
<path d="M20,37.9 L17.2,37.9 L17.2,42.4 L13.1,42.4 L13.1,37.9 L10.3,37.9 L10.3,49.3 L13.1,49.3 L13.1,44.5 L17.2,44.5 L17.2,49.3 L20,49.3 L20,37.9 L20,37.9 L20,37.9 Z M30.6,37.9 L21,37.9 L21,40 L24.4,40 L24.4,49.2 L27.2,49.2 L27.2,40 L30.7,40 L30.6,37.9 L30.6,37.9 L30.6,37.9 Z M31.7,37.9 L31.7,49.3 L34.5,49.3 L34.5,46.6 L34.2,41.2 L37,49.3 L38.8,49.3 L41.6,41.2 L41.3,46.6 L41.3,49.3 L44.1,49.3 L44.1,37.9 L40.4,37.9 L37.8,45.8 L35.2,37.9 L31.7,37.9 L31.7,37.9 Z M48.7,37.9 L45.9,37.9 L45.9,49.3 L53.5,49.3 L53.5,47.2 L48.7,47.2 L48.7,37.9 L48.7,37.9 L48.7,37.9 Z" id="HTML" fill="#E54D26"></path>
</g>
<g id="Icon_-_HTML_copy_2" transform="translate(40.000000, 18.000000)">
<path d="M21.7,2.5 L60.1,2.5 C63.6,2.5 66.5,5.3 66.5,8.8 L66.5,8.8 L66.5,77.1 C66.5,80.6 63.6,83.4 60.1,83.4 L60.1,83.4 L8.9,83.4 C5.4,83.4 2.5,80.6 2.5,77.1 L2.5,77.1 L2.5,21.5 L21.7,2.5 L21.7,2.5 Z" id="Bg-3" stroke="#141E4F" stroke-width="3" fill="#FFFFFF"></path>
<path d="M66.5,10.5 L66.5,77.2 C66.5,80.7 63.6,83.5 60.1,83.5 L60.1,83.5 L8.5,83.5" id="Shadow-3" stroke="#141E4F" stroke-width="3" fill="#FAFAFA"></path>
<g id="Corner-3">
<path d="M4.5,20.7 L20.8,4.6 L20.8,15.2 C20.8,18.3 18.3,20.8 15.2,20.8 L4.5,20.8 L4.5,20.7 Z" id="Shape" fill="#FFFFFF"></path>
<path d="M19.3,8.1 L19.3,15 L19.3,15 C19.3,17.3 17.4,19.1 15.1,19.1 L8.1,19.1 L19.3,8.1 L19.3,8.1 Z M22.3,0.9 L0.8,22.2 L15.1,22.2 L15.1,22.2 C19,22.2 22.2,19 22.2,15.1 L22.2,15.1 L22.2,0.9 L22.3,0.9 L22.3,0.9 Z" id="Shape" fill="#141E4F"></path>
</g>
<path d="M25.7,47.4 C25.7,47.9 25.5,48.4 25.2,48.8 C24.8,49.1 24.3,49.3 23.7,49.2 C23.4,49.2 23,49.1 22.7,49 C22.4,48.9 22.2,48.7 22.1,48.4 C21.9,48.1 21.8,47.7 21.7,47.3 C21.6,46.8 21.6,46.3 21.6,45.7 L21.6,45.1 C21.6,44.6 21.6,44.1 21.7,43.5 C21.8,43.1 21.9,42.8 22.1,42.4 C22.2,42.1 22.5,41.9 22.7,41.8 C23,41.7 23.3,41.6 23.6,41.6 C23.9,41.6 24.2,41.6 24.5,41.7 C24.7,41.8 24.9,41.9 25.1,42.1 C25.3,42.3 25.4,42.5 25.5,42.7 C25.6,43 25.6,43.3 25.6,43.5 L28.4,43.5 C28.4,42.9 28.2,42.4 28,41.9 C27.8,41.4 27.5,41 27.1,40.6 C26.7,40.2 26.2,39.9 25.6,39.7 C25,39.5 24.3,39.4 23.6,39.4 C22.9,39.4 22.2,39.5 21.6,39.8 C21,40.1 20.5,40.4 20.1,40.9 C19.7,41.4 19.3,42 19.1,42.6 C18.9,43.3 18.7,44.1 18.8,44.9 L18.8,45.5 C18.8,46.3 18.9,47.1 19.1,47.8 C19.3,48.4 19.6,49 20.1,49.5 C20.5,50 21,50.4 21.6,50.6 C22.3,50.9 23,51 23.7,51 C24.4,51 25,50.9 25.6,50.7 C26.1,50.5 26.6,50.2 27.1,49.9 C27.5,49.6 27.8,49.1 28.1,48.6 C28.3,48.1 28.5,47.5 28.5,47 L25.7,47.4 L25.7,47.4 L25.7,47.4 Z M35.6,48.7 C35.5,48.8 35.5,49 35.3,49.1 C35.2,49.2 35,49.3 34.8,49.3 C34.6,49.4 34.4,49.4 34.1,49.4 C33.8,49.4 33.5,49.4 33.2,49.3 C33,49.2 32.8,49.1 32.6,49 C32.4,48.9 32.3,48.7 32.2,48.4 C32.1,48.1 32.1,47.8 32.1,47.6 L29.3,47.6 C29.3,48 29.4,48.4 29.5,48.8 C29.6,49.2 29.8,49.5 30,49.8 C30.2,50.1 30.5,50.3 30.8,50.5 C31.1,50.7 31.4,50.9 31.8,51 C32.2,51.1 32.5,51.2 32.9,51.3 C33.3,51.4 33.7,51.4 34.1,51.4 C34.7,51.4 35.3,51.3 35.9,51.2 C36.4,51.1 36.8,50.9 37.2,50.6 C37.6,50.3 37.9,50 38.1,49.6 C38.3,49.2 38.4,48.7 38.4,48.2 C38.4,47.8 38.3,47.3 38.1,46.9 C37.9,46.5 37.7,46.2 37.3,45.9 C36.9,45.6 36.5,45.3 36.1,45.1 C35.6,44.8 35,44.6 34.5,44.5 C34.2,44.4 33.9,44.3 33.6,44.2 C33.4,44.1 33.1,44 32.9,43.9 C32.7,43.8 32.6,43.7 32.5,43.5 C32.4,43.4 32.4,43.2 32.4,43 C32.4,42.8 32.4,42.7 32.5,42.6 C32.6,42.5 32.7,42.3 32.8,42.2 C33,42.1 33.1,42 33.3,42 C33.5,41.9 33.8,41.9 34,41.9 C34.2,41.9 34.5,41.9 34.7,42 C34.9,42.1 35.1,42.2 35.2,42.3 C35.3,42.4 35.4,42.6 35.5,42.8 C35.6,43 35.6,43.2 35.6,43.4 L38.4,43.4 C38.4,42.9 38.3,42.4 38.1,42 C37.9,41.6 37.6,41.2 37.2,40.9 C36.8,40.6 36.3,40.3 35.8,40.2 C35.2,40 34.7,39.9 34.1,40 C33.5,40 32.9,40.1 32.3,40.2 C31.8,40.3 31.3,40.5 30.9,40.8 C30.5,41.1 30.2,41.4 30,41.8 C29.8,42.2 29.7,42.7 29.7,43.1 C29.7,43.6 29.8,44 30,44.4 C30.2,44.8 30.5,45.1 30.9,45.4 C31.3,45.7 31.7,46 32.1,46.1 C32.6,46.3 33.1,46.5 33.6,46.7 C34,46.8 34.3,46.9 34.6,47.1 C34.8,47.2 35,47.3 35.2,47.5 C35.3,47.6 35.4,47.8 35.5,47.9 C35.6,48.1 35.6,48.2 35.6,48.4 C35.7,48.4 35.6,48.5 35.6,48.7 L35.6,48.7 Z M45.7,48.7 C45.6,48.8 45.6,49 45.4,49.1 C45.3,49.2 45.1,49.3 44.9,49.3 C44.7,49.4 44.5,49.4 44.2,49.4 C43.9,49.4 43.6,49.4 43.3,49.3 C43.1,49.2 42.9,49.1 42.7,49 C42.5,48.9 42.4,48.7 42.3,48.4 C42.2,48.1 42.2,47.8 42.2,47.6 L39.4,47.6 C39.4,48 39.5,48.4 39.6,48.8 C39.7,49.2 39.9,49.5 40.1,49.8 C40.3,50.1 40.6,50.3 40.9,50.5 C41.2,50.7 41.5,50.9 41.9,51 C42.3,51.1 42.6,51.2 43,51.3 C43.4,51.4 43.8,51.4 44.2,51.4 C44.8,51.4 45.4,51.3 46,51.2 C46.5,51.1 46.9,50.9 47.3,50.6 C47.7,50.3 48,50 48.2,49.6 C48.4,49.2 48.5,48.7 48.5,48.2 C48.5,47.8 48.4,47.3 48.2,46.9 C48,46.5 47.8,46.2 47.4,45.9 C47,45.6 46.6,45.3 46.2,45.1 C45.7,44.8 45.1,44.6 44.6,44.5 C44.3,44.4 44,44.3 43.7,44.2 C43.5,44.1 43.2,44 43,43.9 C42.8,43.8 42.7,43.7 42.6,43.5 C42.5,43.4 42.5,43.2 42.5,43 C42.5,42.8 42.5,42.7 42.6,42.6 C42.7,42.5 42.8,42.3 42.9,42.2 C43.1,42.1 43.2,42 43.4,42 C43.6,41.9 43.9,41.9 44.1,41.9 C44.3,41.9 44.6,41.9 44.8,42 C45,42.1 45.2,42.2 45.3,42.3 C45.4,42.4 45.5,42.6 45.6,42.8 C45.7,43 45.7,43.2 45.7,43.4 L48.5,43.4 C48.5,42.9 48.4,42.4 48.2,42 C48,41.6 47.7,41.2 47.3,40.9 C47,40.4 46.5,40.1 46,40 C45.4,39.8 44.9,39.7 44.3,39.8 C43.7,39.8 43.1,39.9 42.5,40 C42,40.1 41.5,40.3 41.1,40.6 C40.7,40.9 40.4,41.2 40.2,41.6 C40,42 39.9,42.5 39.9,42.9 C39.9,43.4 40,43.8 40.2,44.2 C40.4,44.6 40.7,44.9 41.1,45.2 C41.5,45.5 41.9,45.8 42.3,45.9 C42.8,46.1 43.3,46.3 43.8,46.5 C44.2,46.6 44.5,46.7 44.8,46.9 C45,47 45.2,47.1 45.4,47.3 C45.5,47.4 45.6,47.6 45.7,47.7 C45.8,47.9 45.8,48 45.8,48.2 C45.8,48.4 45.8,48.5 45.7,48.7 L45.7,48.7 Z" id="CSS" fill="#197ED7"></path>
</g>
<g id="BG-4" opacity="0.6">
<path d="M84.5,187.5 L84.5,185.5 C84.5,184.4 83.6,183.5 82.5,183.5 L81.5,183.5 C80.4,183.5 79.5,184.4 79.5,185.5 L79.5,187.5 L77.5,187.5 C76.4,187.5 75.5,188.4 75.5,189.5 L75.5,190.5 C75.5,191.6 76.4,192.5 77.5,192.5 L79.5,192.5 L79.5,194.5 C79.5,195.6 80.4,196.5 81.5,196.5 L82.5,196.5 C83.6,196.5 84.5,195.6 84.5,194.5 L84.5,192.5 L86.5,192.5 C87.6,192.5 88.5,191.6 88.5,190.5 L88.5,189.5 C88.5,188.4 87.6,187.5 86.5,187.5 L84.5,187.5 Z" id="X" fill="#27C93F" opacity="0.5"></path>
<polygon id="Shape" stroke="#FF5F56" stroke-width="3" points="124.8 147 134 137.8 143.2 147 134 156.2"></polygon>
<polygon id="Rectangle_1_copy" stroke="#FFBD2E" stroke-width="3" opacity="0.5" points="1.8 137 11 127.8 20.2 137 11 146.2"></polygon>
<path d="M178.5,65.5 L178.5,63.5 C178.5,62.4 177.6,61.5 176.5,61.5 L175.5,61.5 C174.4,61.5 173.5,62.4 173.5,63.5 L173.5,65.5 L171.5,65.5 C170.4,65.5 169.5,66.4 169.5,67.5 L169.5,68.5 C169.5,69.6 170.4,70.5 171.5,70.5 L173.5,70.5 L173.5,72.5 C173.5,73.6 174.4,74.5 175.5,74.5 L176.5,74.5 C177.6,74.5 178.5,73.6 178.5,72.5 L178.5,70.5 L180.5,70.5 C181.6,70.5 182.5,69.6 182.5,68.5 L182.5,67.5 C182.5,66.4 181.6,65.5 180.5,65.5 L178.5,65.5 Z" id="X_copy_6" fill="#FF5F56" opacity="0.5"></path>
<path d="M29.5,69.5 L29.5,67.5 C29.5,66.4 28.6,65.5 27.5,65.5 L26.5,65.5 C25.4,65.5 24.5,66.4 24.5,67.5 L24.5,69.5 L22.5,69.5 C21.4,69.5 20.5,70.4 20.5,71.5 L20.5,72.5 C20.5,73.6 21.4,74.5 22.5,74.5 L24.5,74.5 L24.5,76.5 C24.5,77.6 25.4,78.5 26.5,78.5 L27.5,78.5 C28.6,78.5 29.5,77.6 29.5,76.5 L29.5,74.5 L31.5,74.5 C32.6,74.5 33.5,73.6 33.5,72.5 L33.5,71.5 C33.5,70.4 32.6,69.5 31.5,69.5 L29.5,69.5 Z" id="X_copy_7" fill="#53D466"></path>
<circle id="Oval" stroke="#98E5A3" stroke-width="3" opacity="0.5" cx="178" cy="173" r="6.5"></circle>
<path d="M16,8 C16,3.581722 12.418278,0 8,0 C3.581722,0 0,3.581722 0,8 C0,12.418278 3.581722,16 8,16 C12.418278,16 16,12.418278 16,8 Z M3,8 C3,5.23857625 5.23857625,3 8,3 C10.7614237,3 13,5.23857625 13,8 C13,10.7614237 10.7614237,13 8,13 C5.23857625,13 3,10.7614237 3,8 Z" id="Oval" fill="#FF5F56"></path>
<circle id="Oval" stroke="#FFBD2E" stroke-width="3" cx="134" cy="29" r="6.5"></circle>
</g>
</g>
<g id="Browser" transform="translate(727.000000, 21.000000)">
<g id="BG-5">
<ellipse id="Shadow_copy" fill="#000000" opacity="0.2" cx="150.5" cy="195.5" rx="150" ry="8"></ellipse>
<path d="M19.5,0.5 L281.5,0.5 C287,0.5 291.5,5 291.5,10.5 L291.5,186.5 C291.5,192 287,196.5 281.5,196.5 L19.5,196.5 C14,196.5 9.5,192 9.5,186.5 L9.5,10.5 C9.5,5 14,0.5 19.5,0.5 L19.5,0.5 Z" id="Rounded_Rectangle_1" stroke="#141E4F" stroke-width="3" fill="#FFFFFF"></path>
</g>
<g id="Website" transform="translate(50.000000, 48.000000)" fill="#CCCCCC">
<path d="M4.5,0.5 L22.5,0.5 C24.7,0.5 26.5,2.3 26.5,4.5 L26.5,4.5 C26.5,6.7 24.7,8.5 22.5,8.5 L4.5,8.5 C2.3,8.5 0.5,6.7 0.5,4.5 L0.5,4.5 C0.5,2.3 2.3,0.5 4.5,0.5 L4.5,0.5 Z" id="Rounded_Rectangle_2"></path>
<path d="M93.5,52.5 L111.5,52.5 C113.7,52.5 115.5,54.3 115.5,56.5 L115.5,58.5 C115.5,60.7 113.7,62.5 111.5,62.5 L93.5,62.5 C91.3,62.5 89.5,60.7 89.5,58.5 L89.5,56.5 C89.5,54.3 91.3,52.5 93.5,52.5 L93.5,52.5 Z" id="Rounded_Rectangle_2_copy_6"></path>
<rect id="Rounded_Rectangle_2_copy" x="178.5" y="0.5" width="23" height="8"></rect>
<rect id="Rounded_Rectangle_2_copy_2" x="150.5" y="0.5" width="23" height="8"></rect>
<rect id="Rounded_Rectangle_2_copy_3" x="122.5" y="0.5" width="23" height="8"></rect>
<rect id="Rounded_Rectangle_2_copy_4" x="46.5" y="24.5" width="113" height="8"></rect>
<rect id="Rounded_Rectangle_2_copy_11" x="74.5" y="78.5" width="58" height="5"></rect>
<rect id="Rounded_Rectangle_2_copy_5" x="72.5" y="35.5" width="61" height="5"></rect>
<g id="Group" transform="translate(11.000000, 99.000000)">
<g>
<rect id="Rounded_Rectangle_2_copy_8" x="9.5" y="18.5" width="18" height="4"></rect>
<rect id="Rounded_Rectangle_2_copy_9" x="0.5" y="24.5" width="35" height="4"></rect>
<rect id="Rounded_Rectangle_2_copy_10" x="0.5" y="30.5" width="35" height="4"></rect>
<path d="M19,0.5 L19,0.5 C22,0.5 24.5,3 24.5,6 L24.5,6 C24.5,9 22,11.5 19,11.5 L19,11.5 C16,11.5 13.5,9 13.5,6 L13.5,6 C13.5,3 16,0.5 19,0.5 L19,0.5 Z" id="Rounded_Rectangle_2_copy_7"></path>
</g>
<g id="Group_2_copy_2" transform="translate(48.000000, 0.000000)">
<rect id="Rounded_Rectangle_2_copy_8-2" x="9.5" y="18.5" width="18" height="4"></rect>
<rect id="Rounded_Rectangle_2_copy_9-2" x="0.5" y="24.5" width="35" height="4"></rect>
<rect id="Rounded_Rectangle_2_copy_10-2" x="0.5" y="30.5" width="35" height="4"></rect>
<path d="M19,0.5 L19,0.5 C22,0.5 24.5,3 24.5,6 L24.5,6 C24.5,9 22,11.5 19,11.5 L19,11.5 C16,11.5 13.5,9 13.5,6 L13.5,6 C13.5,3 16,0.5 19,0.5 L19,0.5 Z" id="Rounded_Rectangle_2_copy_7-2"></path>
</g>
<g id="Group_2_copy_3" transform="translate(97.000000, 0.000000)">
<rect id="Rounded_Rectangle_2_copy_8-3" x="9.5" y="18.5" width="18" height="4"></rect>
<rect id="Rounded_Rectangle_2_copy_9-3" x="0.5" y="24.5" width="35" height="4"></rect>
<rect id="Rounded_Rectangle_2_copy_10-3" x="0.5" y="30.5" width="35" height="4"></rect>
<path d="M19,0.5 L19,0.5 C22,0.5 24.5,3 24.5,6 L24.5,6 C24.5,9 22,11.5 19,11.5 L19,11.5 C16,11.5 13.5,9 13.5,6 L13.5,6 C13.5,3 16,0.5 19,0.5 L19,0.5 Z" id="Rounded_Rectangle_2_copy_7-3"></path>
</g>
<g id="Group_2_copy_4" transform="translate(145.000000, 0.000000)">
<rect id="Rounded_Rectangle_2_copy_8-4" x="9.5" y="18.5" width="18" height="4"></rect>
<rect id="Rounded_Rectangle_2_copy_9-4" x="0.5" y="24.5" width="35" height="4"></rect>
<rect id="Rounded_Rectangle_2_copy_10-4" x="0.5" y="30.5" width="35" height="4"></rect>
<path d="M19,0.5 L19,0.5 C22,0.5 24.5,3 24.5,6 L24.5,6 C24.5,9 22,11.5 19,11.5 L19,11.5 C16,11.5 13.5,9 13.5,6 L13.5,6 C13.5,3 16,0.5 19,0.5 L19,0.5 Z" id="Rounded_Rectangle_2_copy_7-4"></path>
</g>
</g>
</g>
<g id="Actions" transform="translate(22.000000, 12.000000)">
<path d="M4.3,0.5 C6.5,0.4 8.4,2.1 8.5,4.3 C8.6,6.5 6.9,8.4 4.7,8.5 C2.5,8.6 0.6,6.9 0.5,4.7 L0.5,4.5 C0.4,2.3 2.1,0.6 4.3,0.5 L4.3,0.5 L4.3,0.5 Z" id="Shape" fill="#FF5F56"></path>
<circle id="Ellipse_1_copy" fill="#FFBD2E" cx="17" cy="4.5" r="3.8"></circle>
<circle id="Ellipse_1_copy_2" fill="#27C93F" cx="29.7" cy="4.5" r="3.8"></circle>
</g>
<path d="M72.4,12.9 C69.8,12.9 67.7,15 67.7,17.6 C67.7,20.2 69.8,22.3 72.4,22.3 C75,22.3 77.1,20.2 77.1,17.6 L77.1,17.6 C77.1,15 75,12.9 72.4,12.9 L72.4,12.9 Z M74.1,16.1 C74.2,16 74.3,16 74.4,16 C74.5,16 74.5,16 74.4,16.1 L74.3,16.1 C74.4,16.1 74.4,16.1 74.4,16.2 C74.6,16.3 74.3,16.4 74.2,16.4 C74.3,16.4 74.1,16.5 74.1,16.5 C74,16.5 74,16.5 73.9,16.6 C73.9,16.7 73.9,16.8 73.8,16.8 C73.8,16.9 73.6,16.8 73.6,16.9 C73.7,17 73.5,17.1 73.5,17 L73.4,17.1 L73.4,17.2 L73.5,17.3 C73.5,17.3 73.5,17.4 73.4,17.4 C73.4,17.5 73.4,17.6 73.3,17.6 C73.2,17.6 73.2,17.7 73.1,17.7 C73,17.8 72.9,18 73.1,18 L73.1,18.2 C73.1,18.3 73.1,18.5 73,18.4 C72.9,18.3 72.9,18.2 72.9,18.1 C72.9,18 72.9,18 72.8,17.9 C72.7,18 72.7,17.9 72.6,17.9 C72.5,17.9 72.5,17.9 72.4,17.8 C72.3,17.9 72.2,17.9 72.2,17.7 L72.2,17.8 C72.2,17.9 72.1,17.9 72.1,17.8 L71.8,17.8 L71.9,17.8 C71.9,17.9 71.8,17.8 71.8,17.9 L71.7,18 L71.7,18.5 C71.7,18.7 71.8,18.8 71.9,18.9 L72.2,18.9 C72.3,18.9 72.3,18.8 72.3,18.7 C72.3,18.6 72.4,18.6 72.5,18.6 C72.8,18.6 72.6,18.8 72.5,18.9 L72.5,19.1 L72.6,19.1 C72.6,19.1 72.6,19.1 72.6,19 C72.6,19.1 72.7,19.1 72.8,19 L72.8,19 C72.9,19.1 72.9,19.1 73,19.2 C73,19.3 73.1,19.4 73,19.4 C72.9,19.4 73,19.6 73,19.6 C73,19.7 73.2,19.8 73.3,19.7 L73.3,19.7 C73.3,19.8 73.3,19.8 73.2,19.9 C73.1,19.9 73,19.8 73,19.7 C73,19.7 73,19.7 72.9,19.8 C72.8,19.7 72.7,19.7 72.7,19.6 C72.6,19.5 72.6,19.4 72.6,19.3 C72.5,19.3 72.4,19.3 72.3,19.2 C72.2,19.1 72.1,19 72,19 L71.7,19 C71.6,19 71.5,18.9 71.5,18.9 C71.4,18.9 71.3,18.8 71.2,18.7 C71.2,18.6 71.2,18.5 71.1,18.4 C71,18.3 71,18.2 70.9,18.2 C71,18.2 70.8,18 70.8,18 C70.7,17.9 70.6,17.7 70.5,17.6 C70.5,17.6 70.4,17.5 70.3,17.5 C70.3,17.6 70.3,17.6 70.4,17.7 C70.4,17.8 70.5,17.8 70.5,17.9 C70.6,18 70.6,18.1 70.6,18.3 C70.5,18.3 70.5,18.2 70.5,18.2 C70.4,18.2 70.4,18.1 70.3,18 L70.3,18 C70.3,17.9 70.1,17.8 70.2,17.7 C70.1,17.6 70.1,17.5 70.1,17.4 C70,17.3 70,17.3 69.9,17.2 C69.8,17.1 69.7,17 69.7,16.9 C69.6,16.9 69.5,16.6 69.5,16.6 L69.5,16.6 L69.5,16.6 C69.5,16.4 69.5,16.3 69.6,16.1 C69.5,16.1 69.5,15.9 69.5,15.9 C69.5,15.9 69.6,15.9 69.6,16 L69.7,15.9 C69.7,15.8 69.6,15.8 69.6,15.8 L69.3,15.6 L69.3,15.5 L69.3,15.5 C69.2,15.6 69.2,15.4 69.2,15.4 C69.2,15.4 69.1,15.4 69.1,15.3 C69.5,14.7 70,14.3 70.5,13.9 L70.6,13.9 C70.7,13.9 70.8,14 70.8,14.1 L70.8,14 L70.9,13.9 L71.1,13.9 C71.1,13.8 71,13.8 71,13.7 L71,13.7 L70.7,13.7 C70.6,13.7 70.6,13.8 70.6,13.8 C70.6,13.8 70.6,13.8 70.5,13.8 C70.7,13.7 70.9,13.6 71.1,13.6 L71.2,13.7 L71.2,13.8 C71.3,13.9 71.4,13.9 71.5,13.8 L71.7,13.8 C71.7,13.9 71.8,13.9 71.8,14 L71.8,13.8 C71.8,13.8 71.9,13.7 72,13.7 C72,13.7 72,13.6 71.9,13.6 C71.8,13.6 71.6,13.5 71.7,13.4 L71.9,13.4 C72,13.4 72,13.5 72,13.6 L72.2,13.7 L72.3,13.6 C72.3,13.6 72.4,13.7 72.4,13.8 C72.5,14 72.6,13.6 72.7,13.7 C72.6,13.7 72.8,13.6 72.9,13.6 C72.9,13.6 73,13.8 72.9,13.8 C73,13.9 73,14 72.8,14 C72.7,14 72.6,13.9 72.5,14 C72.4,14.1 72.4,14.2 72.4,14.2 C72.3,14.3 72.2,14.3 72.1,14.3 C72.1,14.4 72.1,14.4 72,14.5 L71.9,14.6 L71.9,14.8 C72,14.8 72.1,15 72,15 L72.4,15 C72.5,15 72.6,15.1 72.6,15.2 L72.8,15.2 C72.9,15.2 72.9,15.3 72.9,15.4 C72.9,15.5 73,15.6 73.1,15.6 C73.1,15.6 73.3,15.5 73.2,15.5 C73.1,15.5 73.1,15.4 73.1,15.3 C73.2,15.3 73.2,15.2 73.3,15.1 C73.4,15 73.1,15 73.1,14.9 C73.1,14.9 73.2,14.8 73.2,14.7 C73.2,14.6 73.1,14.5 73.2,14.5 C73.3,14.5 73.5,14.5 73.6,14.6 C73.7,14.6 73.8,14.7 73.8,14.7 L73.8,14.7 C73.9,14.7 73.9,14.8 73.8,14.9 C73.9,14.9 74,15 73.9,15 L74,15 L74.1,15 C74.1,14.9 74.2,14.9 74.2,14.9 L74.3,15 L74.4,15.1 C74.4,15.2 74.5,15.3 74.6,15.3 C74.7,15.3 74.8,15.2 74.8,15.3 C74.8,15.3 74.8,15.3 74.8,15.2 C74.8,15.3 74.9,15.4 75,15.4 L75,15.5 C74.9,15.5 74.9,15.6 74.8,15.6 C74.7,15.6 74.7,15.7 74.7,15.8 C74.6,15.7 74.5,15.7 74.4,15.7 C74.3,15.7 74.2,15.7 74.1,15.8 C74.1,16 74.1,16 74.1,16.1 C74,16.1 74,16.2 74,16.2 C74,16.1 74,16.1 74.1,16.1 L74.1,16.1 L74.1,16.1 Z M73.1,21.4 C73.1,21.4 73.1,21.3 73.1,21.4 C73.1,21.2 73.2,21.1 73.2,21 C73.1,21 73.1,20.9 73.1,20.8 L73.1,20.8 C73.1,20.7 73.2,20.6 73.3,20.6 C73.4,20.5 73.4,20.4 73.4,20.3 C73.4,20.2 73.4,20 73.3,19.9 C73.3,19.9 73.4,19.9 73.4,20 C73.4,20 73.4,19.9 73.5,19.9 L73.6,19.8 C73.7,19.8 73.8,19.6 73.9,19.7 L73.9,19.9 C73.9,19.8 73.9,19.8 74,19.7 C74.1,19.6 74.2,19.7 74.3,19.7 C74.4,19.7 74.5,19.8 74.5,19.8 L74.6,19.7 C74.7,19.7 74.8,19.7 74.8,19.8 C74.9,19.8 75,19.9 75,20 C75.1,20 75.1,20 75.2,20.1 C75.3,20.1 75.3,20.1 75.4,20.2 C74.7,20.9 73.9,21.3 73.1,21.4 L73.1,21.4 L73.1,21.4 Z M87.1,13.2 L86.1,13.2 L86.1,21.4 L87.1,21.4 L87.1,17.3 C87.2,17 87.4,16.8 87.7,16.6 C87.9,16.4 88.2,16.3 88.5,16.3 C88.7,16.3 88.8,16.3 89,16.4 C89.1,16.4 89.3,16.5 89.4,16.6 C89.5,16.7 89.6,16.8 89.6,17 C89.7,17.2 89.7,17.4 89.7,17.6 L89.7,21.4 L90.7,21.4 L90.7,17.6 C90.7,17.3 90.7,16.9 90.6,16.6 C90.5,16.4 90.4,16.1 90.2,15.9 C90,15.7 89.8,15.6 89.6,15.5 C89.4,15.4 89.1,15.4 88.8,15.4 C88.5,15.4 88.1,15.5 87.8,15.6 C87.5,15.7 87.3,15.9 87,16.2 L87.1,13.2 L87.1,13.2 L87.1,13.2 Z M92.5,14.3 L92.5,15.7 L91.4,15.7 L91.4,16.5 L92.5,16.5 L92.5,20.1 C92.5,20.3 92.5,20.6 92.6,20.8 C92.7,21 92.8,21.1 92.9,21.3 C93,21.4 93.2,21.5 93.3,21.6 C93.5,21.7 93.6,21.7 93.8,21.7 L94.2,21.7 C94.3,21.7 94.4,21.6 94.5,21.6 L94.5,20.8 L94.3,20.8 L94,20.8 L93.8,20.8 C93.7,20.8 93.6,20.8 93.6,20.7 C93.5,20.6 93.5,20.6 93.5,20.5 C93.5,20.4 93.4,20.3 93.4,20.1 L93.4,16.5 L94.5,16.5 L94.5,15.7 L93.4,15.7 L93.4,14.3 L92.5,14.3 L92.5,14.3 L92.5,14.3 Z M96.1,14.3 L96.1,15.7 L95,15.7 L95,16.5 L96.1,16.5 L96.1,20.1 C96.1,20.3 96.1,20.6 96.2,20.8 C96.3,21 96.4,21.1 96.5,21.3 C96.6,21.4 96.8,21.5 96.9,21.6 C97.1,21.7 97.2,21.7 97.4,21.7 L97.9,21.7 C98,21.7 98.1,21.6 98.2,21.6 L98.2,20.8 L98,20.8 L97.7,20.8 L97.5,20.8 C97.4,20.8 97.4,20.8 97.3,20.7 L97.1,20.5 C97.1,20.4 97,20.3 97,20.1 L97,16.5 L98.1,16.5 L98.1,15.7 L97,15.7 L97,14.3 L96.1,14.3 L96.1,14.3 L96.1,14.3 Z M104.3,18.6 C104.3,18.2 104.3,17.8 104.2,17.4 C104.1,17.1 104,16.8 103.8,16.5 C103.6,16.2 103.4,16 103.1,15.9 C102.8,15.7 102.5,15.7 102.1,15.7 C101.8,15.7 101.4,15.8 101.1,15.9 C100.8,16 100.6,16.2 100.4,16.5 L100.3,15.9 L99.4,15.9 L99.4,23.9 L100.4,23.9 L100.4,21.1 C100.6,21.3 100.8,21.5 101.1,21.6 C101.4,21.7 101.7,21.8 102.1,21.8 C102.4,21.8 102.8,21.7 103.1,21.6 C103.4,21.4 103.6,21.2 103.8,21 C104,20.7 104.1,20.4 104.2,20.1 C104.3,19.7 104.4,19.3 104.4,18.9 L104.4,18.6 L104.3,18.6 Z M103.3,18.7 C103.3,19 103.3,19.3 103.2,19.5 C103.1,19.7 103,20 102.9,20.2 C102.6,20.6 102.2,20.8 101.7,20.8 C101.5,20.8 101.4,20.8 101.2,20.7 C101.1,20.7 100.9,20.6 100.8,20.5 C100.7,20.4 100.6,20.3 100.5,20.3 C100.4,20.2 100.3,20.1 100.3,20 L100.3,17.2 C100.4,17.1 100.4,17 100.5,16.9 C100.6,16.8 100.7,16.7 100.8,16.6 C100.9,16.5 101,16.5 101.2,16.4 C101.3,16.4 101.5,16.3 101.7,16.3 C101.9,16.3 102.2,16.4 102.4,16.5 C102.6,16.6 102.8,16.8 102.9,17 C103,17.2 103.1,17.4 103.2,17.7 C103.3,18 103.3,18.2 103.3,18.5 L103.3,18.7 L103.3,18.7 L103.3,18.7 Z M108.8,20.3 C108.7,20.4 108.7,20.5 108.6,20.6 C108.5,20.7 108.4,20.7 108.2,20.8 C108,20.8 107.8,20.9 107.7,20.9 C107.5,20.9 107.4,20.9 107.2,20.8 C107,20.8 106.9,20.7 106.8,20.6 C106.7,20.5 106.6,20.4 106.5,20.3 C106.4,20.1 106.4,20 106.3,19.8 L105.3,19.8 C105.3,20 105.4,20.3 105.5,20.5 C105.6,20.7 105.8,20.9 106,21.1 C106.2,21.3 106.5,21.4 106.7,21.5 C107,21.6 107.4,21.7 107.7,21.7 C108,21.7 108.3,21.7 108.6,21.6 C108.9,21.5 109.1,21.4 109.3,21.3 C109.5,21.2 109.6,21 109.8,20.8 C109.9,20.6 110,20.3 110,20.1 C110,19.9 110,19.7 109.9,19.5 C109.8,19.3 109.7,19.1 109.5,19 C109.3,18.8 109.1,18.7 108.8,18.6 C108.5,18.5 108.2,18.4 107.9,18.3 C107.7,18.3 107.4,18.2 107.2,18.1 C107.1,18.1 106.9,18 106.8,17.9 C106.7,17.8 106.6,17.8 106.6,17.7 C106.6,17.6 106.5,17.5 106.5,17.4 C106.5,17.3 106.5,17.2 106.6,17.1 C106.6,17 106.7,16.9 106.8,16.8 C106.9,16.7 107,16.7 107.1,16.6 C107.3,16.5 107.5,16.5 107.6,16.5 C107.8,16.5 108,16.5 108.1,16.6 C108.2,16.7 108.4,16.7 108.5,16.8 C108.6,16.9 108.7,17 108.7,17.1 C108.8,17.2 108.8,17.3 108.8,17.5 L109.8,17.5 C109.8,17.3 109.8,17 109.6,16.8 C109.5,16.6 109.3,16.4 109.2,16.2 C109,16 108.8,15.9 108.5,15.8 C108.2,15.7 107.9,15.7 107.6,15.7 C107.3,15.7 107,15.7 106.7,15.8 C106.5,15.9 106.2,16 106,16.2 C105.8,16.3 105.7,16.5 105.6,16.7 C105.5,16.9 105.4,17.1 105.4,17.4 C105.4,17.6 105.4,17.8 105.6,18 C105.7,18.2 105.8,18.3 106,18.5 C106.2,18.6 106.4,18.8 106.7,18.8 C107,18.9 107.3,19 107.6,19 C107.8,19.1 108.1,19.1 108.3,19.2 C108.4,19.3 108.6,19.3 108.7,19.4 C108.8,19.5 108.9,19.6 108.9,19.7 C108.9,19.8 108.9,19.9 109,20 C108.9,20.1 108.9,20.2 108.8,20.3 L108.8,20.3 L108.8,20.3 Z M111.3,21.4 C111.4,21.5 111.6,21.6 111.8,21.6 C112,21.6 112.1,21.5 112.3,21.4 C112.4,21.3 112.5,21.1 112.5,21 C112.5,20.8 112.4,20.7 112.3,20.6 C112.2,20.5 112,20.4 111.8,20.4 C111.6,20.4 111.5,20.4 111.3,20.6 C111.2,20.7 111.1,20.9 111.1,21 C111.2,21.1 111.2,21.3 111.3,21.4 L111.3,21.4 L111.3,21.4 Z M111.3,16.7 C111.4,16.8 111.6,16.9 111.8,16.9 C112,16.9 112.1,16.8 112.3,16.7 C112.4,16.6 112.5,16.4 112.5,16.3 C112.5,16.1 112.4,16 112.3,15.9 C112.2,15.8 112,15.7 111.8,15.7 C111.6,15.7 111.5,15.8 111.3,15.9 C111.2,16 111.1,16.2 111.1,16.3 C111.2,16.4 111.2,16.5 111.3,16.7 L111.3,16.7 L111.3,16.7 Z M117.3,13.7 L116.5,13.7 L113.2,22.2 L114,22.2 L117.3,13.7 L117.3,13.7 Z M120.7,13.7 L119.9,13.7 L116.6,22.2 L117.4,22.2 L120.7,13.7 L120.7,13.7 Z M121.7,15.7 L121.7,21.5 L122.7,21.5 L122.7,17.3 C122.9,16.8 123.5,16.4 124,16.5 C124.2,16.5 124.3,16.5 124.5,16.6 C124.6,16.6 124.8,16.7 124.9,16.8 C125,16.9 125.1,17 125.1,17.2 C125.2,17.4 125.2,17.6 125.2,17.8 L125.2,21.6 L126.2,21.6 L126.2,17.7 C126.2,17.5 126.3,17.4 126.3,17.2 C126.4,17.1 126.5,16.9 126.6,16.8 C126.7,16.7 126.9,16.6 127,16.5 C127.2,16.4 127.4,16.4 127.5,16.4 C127.7,16.4 127.8,16.4 128,16.5 C128.1,16.5 128.3,16.6 128.4,16.7 C128.5,16.8 128.6,16.9 128.6,17.1 C128.7,17.3 128.7,17.5 128.7,17.7 L128.7,21.5 L129.7,21.5 L129.7,17.7 C129.7,17.4 129.7,17.1 129.6,16.8 C129.5,16.6 129.4,16.3 129.2,16.1 C129,15.9 128.8,15.8 128.6,15.7 C128.3,15.6 128.1,15.6 127.8,15.6 C127.4,15.6 127,15.7 126.7,15.9 C126.4,16.1 126.1,16.3 125.9,16.6 C125.8,16.3 125.5,16 125.2,15.9 C124.9,15.8 124.5,15.7 124.2,15.7 C123.9,15.7 123.5,15.8 123.2,15.9 C122.9,16 122.7,16.2 122.5,16.5 L122.5,15.9 L121.7,15.7 L121.7,15.7 L121.7,15.7 Z M131.8,15.7 L130.7,15.7 L132.8,21.5 L132.6,22.1 C132.5,22.3 132.5,22.4 132.4,22.5 C132.3,22.6 132.2,22.7 132.1,22.8 C132,22.9 131.9,22.9 131.8,23 C131.7,23 131.5,23.1 131.4,23.1 C131.4,23.1 131.4,23.1 131.3,23.1 L131.2,23.1 L131.1,23.1 L131,23.1 L131,23.9 L131.1,23.9 L131.3,23.9 L131.5,23.9 L131.6,23.9 C131.8,23.9 132.1,23.9 132.3,23.7 C132.5,23.6 132.7,23.5 132.8,23.3 C132.9,23.2 133.1,23 133.1,22.8 C133.2,22.6 133.3,22.5 133.3,22.3 L135.6,15.6 L134.5,15.6 L133.2,19.9 L131.8,15.7 L131.8,15.7 Z M138.7,17.8 L136,17.8 L136,18.6 L138.6,18.6 L138.6,17.8 L138.7,17.8 Z M144.5,18.6 C144.5,18.2 144.5,17.8 144.4,17.4 C144.3,17.1 144.2,16.8 144,16.5 C143.8,16.2 143.6,16 143.3,15.9 C143,15.7 142.7,15.7 142.3,15.7 C142,15.7 141.6,15.8 141.3,15.9 C141,16 140.8,16.2 140.6,16.5 L140.5,15.9 L139.6,15.9 L139.6,23.9 L140.6,23.9 L140.6,21.1 C140.8,21.3 141,21.5 141.3,21.6 C141.6,21.7 141.9,21.8 142.2,21.8 C142.5,21.8 142.9,21.7 143.2,21.6 C143.5,21.5 143.7,21.2 143.9,21 C144.1,20.7 144.2,20.4 144.3,20.1 C144.4,19.7 144.5,19.3 144.5,18.9 L144.5,18.6 L144.5,18.6 Z M143.5,18.7 C143.5,19 143.5,19.3 143.4,19.5 C143.3,19.7 143.3,20 143.1,20.2 C143,20.4 142.8,20.5 142.6,20.7 C142.4,20.8 142.1,20.9 141.9,20.9 C141.7,20.9 141.6,20.9 141.4,20.8 C141.3,20.8 141.1,20.7 141,20.6 C140.9,20.5 140.8,20.4 140.7,20.4 C140.6,20.3 140.5,20.2 140.5,20.1 L140.5,17.3 C140.6,17.2 140.6,17.1 140.7,17 C140.8,16.9 140.9,16.8 141,16.7 C141.1,16.6 141.2,16.6 141.4,16.5 C141.5,16.5 141.7,16.4 141.9,16.4 C142.1,16.4 142.4,16.5 142.6,16.6 C142.8,16.7 143,16.9 143.1,17.1 C143.2,17.3 143.3,17.5 143.4,17.8 C143.5,18.1 143.5,18.3 143.5,18.6 L143.5,18.7 L143.5,18.7 L143.5,18.7 Z M148.6,15.7 C148.5,15.7 148.5,15.7 148.4,15.6 L148.2,15.6 C147.9,15.6 147.6,15.7 147.4,15.8 C147.2,15.9 147,16.1 146.8,16.4 L146.8,15.7 L145.8,15.7 L145.8,21.5 L146.8,21.5 L146.8,17.4 C146.9,17.2 147.1,16.9 147.3,16.8 C147.5,16.6 147.8,16.6 148.1,16.6 L148.3,16.6 L148.5,16.6 L148.5,15.7 L148.6,15.7 Z M149.1,18.7 C149.1,19.1 149.2,19.5 149.3,19.9 C149.4,20.2 149.6,20.6 149.8,20.8 C150,21.1 150.3,21.3 150.6,21.4 C150.9,21.6 151.3,21.6 151.7,21.6 C152.1,21.6 152.5,21.5 152.8,21.4 C153.1,21.3 153.4,21.1 153.6,20.8 C153.8,20.5 154,20.2 154.1,19.9 C154.2,19.5 154.3,19.1 154.3,18.7 L154.3,18.6 C154.3,18.2 154.2,17.8 154.1,17.4 C154,17.1 153.8,16.7 153.6,16.5 C153.4,16.2 153.1,16 152.8,15.9 C152.5,15.7 152.1,15.7 151.7,15.7 C151.3,15.7 150.9,15.8 150.6,15.9 C150.3,16 150,16.3 149.8,16.5 C149.6,16.8 149.4,17.1 149.3,17.4 C149.2,17.8 149.1,18.2 149.1,18.6 L149.1,18.7 L149.1,18.7 Z M150.1,18.5 C150.1,18.2 150.1,17.9 150.2,17.7 C150.3,17.5 150.4,17.2 150.5,17 C150.6,16.8 150.8,16.6 151,16.5 C151.2,16.4 151.5,16.3 151.7,16.3 C152,16.3 152.2,16.4 152.4,16.5 C152.6,16.6 152.8,16.8 152.9,17 C153,17.2 153.1,17.4 153.2,17.7 C153.3,18 153.3,18.2 153.3,18.5 L153.3,18.6 C153.3,18.9 153.3,19.2 153.2,19.4 C153.1,19.6 153,19.9 152.9,20.1 C152.8,20.3 152.6,20.5 152.4,20.6 C151.9,20.8 151.4,20.8 151,20.6 C150.8,20.5 150.6,20.3 150.5,20.1 C150.4,19.9 150.3,19.7 150.2,19.4 C150.1,19.1 150.1,18.9 150.1,18.6 L150.1,18.5 L150.1,18.5 Z M155.7,15.7 L155.7,22.2 C155.7,22.4 155.7,22.7 155.5,22.8 C155.4,22.9 155.2,23 155,23 L154.8,23 L154.6,23 L154.6,23.8 C154.7,23.8 154.8,23.9 154.9,23.9 L155.2,23.9 C155.6,23.9 156,23.8 156.4,23.5 C156.7,23.1 156.8,22.7 156.8,22.3 L156.8,15.8 L155.7,15.8 L155.7,15.7 L155.7,15.7 Z M155.8,14.6 C155.9,14.7 156.1,14.8 156.2,14.8 C156.5,14.8 156.8,14.6 156.8,14.3 L156.8,14.2 C156.8,14 156.8,13.9 156.6,13.8 C156.4,13.6 156,13.6 155.7,13.8 C155.6,13.9 155.6,14.1 155.6,14.2 C155.6,14.3 155.7,14.4 155.8,14.6 L155.8,14.6 Z M161.5,21.5 C161.7,21.4 161.9,21.4 162.1,21.3 C162.3,21.2 162.4,21.1 162.6,20.9 C162.7,20.8 162.8,20.6 162.9,20.5 L162.3,20 C162.1,20.2 161.9,20.4 161.7,20.6 C161.4,20.8 161.1,20.8 160.8,20.8 C160.6,20.8 160.3,20.8 160.1,20.6 C159.9,20.5 159.7,20.4 159.6,20.2 C159.4,20 159.3,19.8 159.3,19.6 C159.2,19.4 159.2,19.1 159.2,18.8 L163.1,18.8 L163.1,18.4 C163.1,18 163.1,17.6 163,17.3 C162.9,17 162.8,16.7 162.6,16.4 C162.4,16.1 162.1,15.9 161.8,15.8 C161.5,15.6 161.1,15.6 160.7,15.6 C160.4,15.6 160,15.7 159.8,15.8 C159.5,15.9 159.2,16.1 159,16.4 C158.7,16.7 158.6,17 158.4,17.3 C158.3,17.7 158.2,18.1 158.2,18.6 L158.2,18.8 C158.2,19.2 158.3,19.6 158.4,19.9 C158.5,20.2 158.7,20.5 158.9,20.8 C159.1,21 159.4,21.2 159.7,21.4 C160,21.5 160.4,21.6 160.8,21.6 C161,21.6 161.2,21.6 161.5,21.5 L161.5,21.5 Z M161.2,16.5 C161.4,16.6 161.5,16.7 161.6,16.9 C161.7,17.1 161.8,17.2 161.8,17.4 C161.9,17.6 161.9,17.8 161.9,18 L161.9,18.1 L159,18.1 C159,17.9 159.1,17.6 159.2,17.4 C159.3,17.2 159.4,17 159.5,16.9 C159.6,16.8 159.8,16.7 159.9,16.6 C160.1,16.5 160.3,16.5 160.5,16.5 C160.8,16.4 161,16.4 161.2,16.5 L161.2,16.5 Z M165.7,20.6 C165.5,20.5 165.3,20.3 165.2,20.1 C165.1,19.9 165,19.7 164.9,19.4 C164.9,19.1 164.8,18.9 164.8,18.6 L164.8,18.4 C164.8,18.1 164.8,17.9 164.9,17.6 C164.9,17.4 165,17.1 165.2,16.9 C165.3,16.7 165.5,16.5 165.7,16.4 C165.9,16.3 166.2,16.2 166.5,16.2 C166.9,16.2 167.2,16.3 167.5,16.6 C167.6,16.7 167.7,16.8 167.8,17 C167.9,17.2 167.9,17.3 167.9,17.5 L168.8,17.5 C168.8,17.2 168.7,16.9 168.6,16.7 C168.5,16.5 168.3,16.2 168.1,16 C167.9,15.8 167.6,15.7 167.4,15.6 C167.1,15.5 166.8,15.4 166.5,15.4 C166.1,15.4 165.7,15.5 165.4,15.6 C165.1,15.8 164.8,16 164.6,16.2 C164.4,16.5 164.2,16.8 164.1,17.1 C164,17.5 163.9,17.8 163.9,18.2 L163.9,18.4 C163.9,18.8 164,19.2 164.1,19.5 C164.2,19.8 164.4,20.1 164.6,20.4 C164.8,20.7 165.1,20.9 165.4,21 C165.8,21.2 166.1,21.3 166.5,21.2 C167.1,21.2 167.7,21 168.1,20.6 C168.3,20.4 168.5,20.2 168.6,20 C168.7,19.8 168.8,19.5 168.8,19.3 L167.9,19.3 C167.9,19.5 167.8,19.6 167.8,19.7 C167.7,19.8 167.6,20 167.5,20 C167.4,20.1 167.2,20.2 167.1,20.2 C166.9,20.3 166.8,20.3 166.6,20.3 C166.2,20.8 165.9,20.7 165.7,20.6 L165.7,20.6 Z M170.2,14.3 L170.2,15.7 L169.1,15.7 L169.1,16.5 L170.2,16.5 L170.2,20.1 C170.2,20.3 170.2,20.6 170.3,20.8 C170.4,21 170.5,21.1 170.6,21.3 C170.7,21.4 170.9,21.5 171,21.6 C171.2,21.7 171.3,21.7 171.5,21.7 L172,21.7 C172.1,21.7 172.2,21.6 172.3,21.6 L172.3,20.8 L172.1,20.8 L171.8,20.8 L171.6,20.8 C171.5,20.8 171.4,20.8 171.4,20.7 C171.3,20.6 171.3,20.6 171.3,20.5 C171.3,20.4 171.2,20.3 171.2,20.1 L171.2,16.5 L172.3,16.5 L172.3,15.7 L171.2,15.7 L171.2,14.3 L170.2,14.3 L170.2,14.3 L170.2,14.3 Z M173.7,21.4 C173.8,21.5 174,21.6 174.2,21.6 C174.4,21.6 174.5,21.5 174.7,21.4 C174.8,21.3 174.9,21.1 174.9,21 C174.9,20.8 174.8,20.7 174.7,20.6 C174.6,20.5 174.4,20.4 174.2,20.4 C174,20.4 173.9,20.4 173.7,20.6 C173.6,20.7 173.5,20.9 173.5,21 C173.5,21.1 173.5,21.3 173.7,21.4 L173.7,21.4 Z M179.7,20.3 C179.6,20.4 179.6,20.5 179.5,20.6 C179.4,20.7 179.3,20.7 179.1,20.8 C178.9,20.8 178.7,20.9 178.6,20.9 C178.4,20.9 178.3,20.9 178.1,20.8 C177.9,20.8 177.8,20.7 177.7,20.6 C177.6,20.5 177.5,20.4 177.4,20.3 C177.3,20.1 177.3,20 177.2,19.8 L176.2,19.8 C176.2,20 176.3,20.3 176.4,20.5 C176.5,20.7 176.7,20.9 176.9,21.1 C177.1,21.3 177.4,21.4 177.6,21.5 C177.9,21.6 178.3,21.7 178.6,21.7 C178.9,21.7 179.2,21.7 179.5,21.6 C179.8,21.5 180,21.4 180.2,21.3 C180.4,21.2 180.5,21 180.6,20.8 C180.7,20.6 180.8,20.3 180.8,20.1 C180.8,19.9 180.8,19.7 180.7,19.5 C180.6,19.3 180.5,19.2 180.3,19 C180.1,18.8 179.9,18.7 179.6,18.6 C179.3,18.5 179,18.4 178.7,18.3 C178.5,18.3 178.2,18.2 178,18.1 C177.9,18.1 177.7,18 177.6,17.9 C177.5,17.8 177.4,17.8 177.4,17.7 C177.4,17.6 177.3,17.5 177.3,17.4 C177.3,17.3 177.3,17.2 177.4,17.1 C177.4,17 177.5,16.9 177.6,16.8 C177.7,16.7 177.8,16.7 178,16.6 C178.2,16.5 178.4,16.5 178.5,16.5 C178.7,16.5 178.9,16.5 179,16.6 C179.1,16.7 179.3,16.7 179.4,16.8 C179.5,16.9 179.6,17 179.6,17.1 C179.7,17.2 179.7,17.3 179.7,17.5 L180.7,17.5 C180.7,17.3 180.7,17 180.5,16.8 C180.4,16.6 180.2,16.4 180.1,16.2 C179.9,16 179.7,15.9 179.4,15.8 C179.1,15.7 178.8,15.7 178.5,15.7 C178.2,15.7 177.9,15.7 177.6,15.8 C177.4,15.9 177.1,16 176.9,16.2 C176.7,16.3 176.6,16.5 176.5,16.7 C176.4,16.9 176.3,17.1 176.3,17.4 C176.3,17.6 176.3,17.8 176.5,18 C176.6,18.2 176.7,18.3 176.9,18.5 C177.1,18.6 177.3,18.8 177.6,18.8 C177.9,18.9 178.2,19 178.5,19 C178.7,19.1 179,19.1 179.2,19.2 C179.4,19.3 179.5,19.3 179.6,19.4 C179.7,19.5 179.8,19.6 179.8,19.7 C179.8,19.8 179.8,19.9 179.9,20 C179.8,20.1 179.7,20.2 179.7,20.3 L179.7,20.3 Z M182.5,15.7 L181.4,15.7 L183.5,21.5 L183.3,22.1 C183.2,22.3 183.2,22.4 183.1,22.5 C183,22.6 182.9,22.7 182.8,22.8 C182.7,22.9 182.6,22.9 182.5,23 C182.4,23 182.2,23 182.1,23.1 C182.1,23.1 182.1,23.1 182,23.1 L181.9,23.1 C181.9,23.1 181.9,23.1 181.8,23.1 L181.7,23.1 L181.7,23.9 L181.8,23.9 L182,23.9 L182.2,23.9 L182.3,23.9 C182.5,23.9 182.8,23.9 183,23.7 C183.2,23.6 183.4,23.5 183.5,23.3 C183.6,23.2 183.8,23 183.8,22.8 C183.9,22.7 184,22.5 184,22.3 L186.3,15.6 L185.2,15.6 L184,20 L182.5,15.7 L182.5,15.7 Z M187.2,15.7 L187.2,21.5 L188.2,21.5 L188.2,17.4 C188.3,17.1 188.5,16.9 188.8,16.7 C189,16.5 189.3,16.4 189.6,16.4 C189.8,16.4 189.9,16.4 190.1,16.5 C190.2,16.5 190.4,16.6 190.5,16.7 C190.6,16.8 190.7,16.9 190.7,17.1 C190.8,17.3 190.8,17.5 190.8,17.7 L190.8,21.5 L191.8,21.5 L191.8,17.7 C191.8,17.4 191.8,17 191.7,16.7 C191.6,16.5 191.5,16.2 191.3,16 C191.1,15.8 190.9,15.7 190.7,15.6 C190.5,15.5 190.2,15.5 189.9,15.5 C189.6,15.5 189.2,15.6 188.9,15.7 C188.6,15.8 188.3,16.1 188.1,16.3 L188.1,15.6 L187.2,15.7 L187.2,15.7 L187.2,15.7 Z M194.9,20.6 C194.7,20.5 194.5,20.3 194.4,20.1 C194.3,19.9 194.2,19.7 194.1,19.4 C194.1,19.1 194,18.9 194,18.6 L194,18.4 C194,18.1 194,17.9 194.1,17.6 C194.1,17.4 194.2,17.1 194.4,16.9 C194.7,16.5 195.1,16.2 195.7,16.2 C195.9,16.2 196.1,16.2 196.2,16.3 C196.4,16.4 196.5,16.5 196.6,16.6 C196.7,16.7 196.8,16.8 196.9,17 C197,17.2 197,17.3 197,17.5 L197.9,17.5 C197.9,17.2 197.8,16.9 197.7,16.7 C197.6,16.4 197.4,16.2 197.2,16 C197,15.8 196.7,15.7 196.5,15.6 C196.2,15.5 195.9,15.4 195.6,15.4 C195.2,15.4 194.8,15.5 194.5,15.6 C194.2,15.8 193.9,16 193.7,16.2 C193.5,16.5 193.3,16.8 193.2,17.1 C193.1,17.5 193,17.8 193,18.2 L193,18.4 C193,18.8 193.1,19.1 193.2,19.5 C193.3,19.8 193.5,20.1 193.7,20.4 C193.9,20.7 194.2,20.9 194.5,21 C194.9,21.2 195.2,21.2 195.6,21.2 C196.2,21.2 196.8,21 197.2,20.6 C197.4,20.4 197.6,20.2 197.7,20 C197.8,19.8 197.9,19.5 197.9,19.3 L197,19.3 C197,19.5 196.9,19.6 196.9,19.7 C196.8,19.8 196.7,20 196.6,20 C196.3,20.2 196,20.3 195.7,20.3 C195.4,20.8 195.1,20.7 194.9,20.6 L194.9,20.6 L194.9,20.6 Z M203.7,21.5 L203.7,21.5 C203.6,21.2 203.6,21 203.5,20.8 C203.5,20.6 203.4,20.4 203.4,20.2 L203.4,17.5 C203.4,17.2 203.4,16.9 203.2,16.7 C203.1,16.5 203,16.3 202.8,16.1 C202.6,15.9 202.4,15.8 202.1,15.7 C201.8,15.6 201.5,15.6 201.2,15.6 C200.9,15.6 200.6,15.6 200.3,15.8 C200,15.9 199.8,16 199.6,16.2 C199.4,16.4 199.2,16.5 199.1,16.8 C199,17 198.9,17.2 198.9,17.4 L199.9,17.4 C199.9,17.3 199.9,17.2 200,17.1 C200.1,17 200.2,16.9 200.3,16.8 C200.4,16.7 200.5,16.6 200.7,16.6 C200.9,16.5 201,16.5 201.2,16.5 C201.5,16.5 201.9,16.6 202.1,16.8 C202.3,17 202.4,17.3 202.4,17.6 L202.4,18 L201.4,18 C201,18 200.7,18 200.3,18.1 C200,18.2 199.7,18.3 199.5,18.5 C199.3,18.7 199.1,18.9 199,19.1 C198.9,19.4 198.8,19.6 198.8,19.9 C198.8,20.1 198.8,20.4 198.9,20.6 C199,20.8 199.1,21 199.3,21.2 C199.5,21.4 199.7,21.5 199.9,21.6 C200.2,21.7 200.4,21.7 200.7,21.7 C200.9,21.7 201,21.7 201.2,21.6 C201.4,21.6 201.5,21.5 201.6,21.4 C201.7,21.3 201.9,21.3 202,21.2 C202.1,21.1 202.2,21 202.3,20.9 C202.3,21 202.3,21.1 202.4,21.2 C202.4,21.3 202.4,21.4 202.5,21.5 L203.7,21.5 L203.7,21.5 L203.7,21.5 Z M200.5,20.7 C200.4,20.7 200.3,20.6 200.2,20.5 C200.1,20.4 200,20.3 200,20.2 C200,20.1 199.9,19.9 199.9,19.8 C199.9,19.5 200.1,19.2 200.4,19 C200.8,18.8 201.3,18.7 201.7,18.7 L202.5,18.7 L202.5,19.9 C202.4,20 202.4,20.1 202.3,20.2 C202.2,20.3 202.1,20.4 202,20.5 C201.9,20.6 201.7,20.7 201.6,20.7 C201.4,20.7 201.3,20.8 201.1,20.8 C200.9,20.7 200.7,20.7 200.5,20.7 L200.5,20.7 L200.5,20.7 Z M205.1,15.7 L205.1,21.5 L206.1,21.5 L206.1,17.4 C206.2,17.1 206.4,16.9 206.7,16.7 C206.9,16.5 207.2,16.4 207.5,16.4 C207.7,16.4 207.8,16.4 208,16.5 C208.1,16.5 208.3,16.6 208.4,16.7 C208.5,16.8 208.6,16.9 208.6,17.1 C208.7,17.3 208.7,17.5 208.7,17.7 L208.7,21.5 L209.7,21.5 L209.7,17.7 C209.7,17.4 209.7,17 209.6,16.7 C209.5,16.5 209.4,16.2 209.2,16 C209,15.8 208.8,15.7 208.6,15.6 C208.4,15.5 208.1,15.5 207.8,15.5 C207.5,15.5 207.1,15.6 206.8,15.7 C206.5,15.8 206.2,16.1 206,16.3 L206,15.6 L205.1,15.7 L205.1,15.7 L205.1,15.7 Z M210.9,18.7 C210.9,19.1 211,19.5 211.1,19.9 C211.2,20.2 211.4,20.6 211.6,20.8 C211.8,21.1 212.1,21.3 212.4,21.4 C212.7,21.6 213.1,21.6 213.5,21.6 C213.9,21.6 214.3,21.5 214.6,21.4 C214.9,21.3 215.2,21.1 215.4,20.8 C215.6,20.5 215.8,20.2 215.9,19.9 C216,19.5 216.1,19.1 216.1,18.7 L216.1,18.6 C216.1,18.2 216,17.8 215.9,17.4 C215.8,17.1 215.6,16.7 215.4,16.5 C215.2,16.2 214.9,16 214.6,15.9 C214.3,15.7 213.9,15.7 213.5,15.7 C213.1,15.7 212.7,15.8 212.4,15.9 C212.1,16 211.8,16.3 211.6,16.5 C211.4,16.8 211.2,17.1 211.1,17.4 C211,17.8 210.9,18.2 210.9,18.6 L210.9,18.7 L210.9,18.7 Z M211.9,18.5 C211.9,18.2 211.9,17.9 212,17.7 C212.1,17.5 212.2,17.2 212.3,17 C212.4,16.8 212.6,16.6 212.8,16.5 C213,16.4 213.3,16.3 213.5,16.3 C213.8,16.3 214,16.4 214.2,16.5 C214.4,16.6 214.6,16.8 214.7,17 C214.8,17.2 214.9,17.4 215,17.7 C215.1,18 215.1,18.2 215.1,18.5 L215.1,18.6 C215.1,18.9 215.1,19.2 215,19.4 C214.9,19.6 214.8,19.9 214.7,20.1 C214.6,20.3 214.4,20.5 214.2,20.6 C213.7,20.8 213.2,20.8 212.8,20.6 C212.6,20.5 212.4,20.3 212.3,20.1 C212.2,19.9 212.1,19.7 212,19.4 C211.9,19.1 211.9,18.9 211.9,18.6 L211.9,18.5 L211.9,18.5 Z M217.6,21.4 C217.7,21.5 217.9,21.6 218.1,21.6 C218.3,21.6 218.4,21.5 218.6,21.4 C218.7,21.3 218.8,21.1 218.8,21 C218.8,20.8 218.7,20.7 218.6,20.6 C218.5,20.5 218.3,20.4 218.1,20.4 C217.9,20.4 217.8,20.4 217.6,20.6 C217.5,20.7 217.4,20.9 217.4,21 C217.4,21.1 217.5,21.3 217.6,21.4 L217.6,21.4 L217.6,21.4 Z M223.6,20.3 C223.5,20.4 223.5,20.5 223.4,20.6 C223.3,20.7 223.2,20.7 223,20.8 C222.8,20.8 222.6,20.9 222.5,20.9 C222.3,20.9 222.2,20.9 222,20.8 C221.8,20.8 221.7,20.7 221.6,20.6 C221.5,20.5 221.4,20.4 221.3,20.3 C221.2,20.1 221.2,20 221.1,19.8 L220.1,19.8 C220.1,20 220.2,20.3 220.3,20.5 C220.4,20.7 220.6,20.9 220.8,21.1 C221,21.3 221.3,21.4 221.5,21.5 C221.8,21.6 222.2,21.7 222.5,21.7 C222.8,21.7 223.1,21.7 223.4,21.6 C223.7,21.5 223.9,21.4 224.1,21.3 C224.3,21.2 224.4,21 224.5,20.8 C224.6,20.6 224.7,20.3 224.7,20.1 C224.7,19.7 224.5,19.3 224.2,19 C224,18.8 223.8,18.7 223.5,18.6 C223.2,18.5 222.9,18.4 222.6,18.3 C222.4,18.3 222.1,18.2 221.9,18.1 C221.8,18.1 221.6,18 221.5,17.9 C221.4,17.8 221.3,17.8 221.3,17.7 C221.3,17.6 221.2,17.5 221.2,17.4 C221.2,17.3 221.2,17.2 221.3,17.1 C221.3,17 221.4,16.9 221.5,16.8 C221.6,16.7 221.7,16.6 221.9,16.6 C222.1,16.5 222.3,16.5 222.4,16.5 C222.6,16.5 222.8,16.5 222.9,16.6 C223,16.7 223.2,16.7 223.3,16.8 C223.4,16.9 223.5,17 223.5,17.1 C223.6,17.2 223.6,17.3 223.6,17.5 L224.6,17.5 C224.6,17 224.4,16.5 224,16.2 C223.8,16 223.6,15.9 223.3,15.8 C223,15.7 222.7,15.7 222.4,15.7 C222.1,15.7 221.8,15.7 221.5,15.8 C221.3,15.9 221,16 220.8,16.2 C220.6,16.3 220.5,16.5 220.4,16.7 C220.3,16.9 220.2,17.1 220.2,17.4 C220.2,17.6 220.2,17.8 220.3,18 C220.4,18.2 220.5,18.3 220.7,18.5 C220.9,18.6 221.1,18.8 221.4,18.8 C221.7,18.9 222,19 222.3,19 C222.5,19.1 222.8,19.1 223,19.2 C223.1,19.3 223.3,19.3 223.4,19.4 C223.5,19.5 223.5,19.6 223.6,19.7 L223.6,20 C223.7,20.1 223.7,20.2 223.6,20.3 L223.6,20.3 L223.6,20.3 Z M227,15.7 L226,15.7 L226,21.5 L227,21.5 L227,15.7 L227,15.7 L227,15.7 Z M226.1,14.6 C226.2,14.7 226.4,14.8 226.5,14.8 C226.7,14.8 226.8,14.8 226.9,14.6 C227,14.5 227.1,14.3 227.1,14.2 C227.1,14 227.1,13.9 226.9,13.8 C226.8,13.7 226.6,13.6 226.5,13.6 C226.3,13.6 226.2,13.7 226.1,13.8 C226,13.9 225.9,14.1 225.9,14.2 C226,14.3 226,14.4 226.1,14.6 L226.1,14.6 L226.1,14.6 Z M229,14.3 L229,15.7 L227.9,15.7 L227.9,16.5 L229,16.5 L229,20.1 C229,20.3 229,20.6 229.1,20.8 C229.2,21 229.3,21.1 229.4,21.3 C229.5,21.4 229.7,21.5 229.8,21.6 C230,21.7 230.1,21.7 230.3,21.7 L230.8,21.7 C230.9,21.7 231,21.6 231.1,21.6 L231.1,20.8 L230.9,20.8 L230.6,20.8 L230.4,20.8 C230.3,20.8 230.3,20.8 230.2,20.7 L230,20.5 C230,20.4 229.9,20.3 229.9,20.1 L229.9,16.5 L231,16.5 L231,15.7 L230,15.7 L230,14.3 L229,14.3 L229,14.3 L229,14.3 Z M235.4,21.5 C235.6,21.4 235.8,21.4 236,21.3 C236.2,21.2 236.3,21.1 236.5,20.9 C236.6,20.8 236.7,20.6 236.8,20.5 L236.2,20 C236,20.2 235.8,20.4 235.6,20.6 C235.3,20.8 235,20.8 234.7,20.8 C234.5,20.8 234.2,20.8 234,20.6 C233.8,20.5 233.6,20.4 233.5,20.2 C233.3,20 233.2,19.8 233.2,19.6 C233.1,19.4 233.1,19.1 233.1,18.8 L237,18.8 L237,18.4 C237,18 237,17.6 236.9,17.3 C236.8,17 236.7,16.7 236.5,16.4 C236.3,16.1 236.1,15.9 235.8,15.8 C235.2,15.5 234.4,15.5 233.8,15.8 C233.5,15.9 233.2,16.1 233,16.4 C232.8,16.7 232.6,17 232.4,17.3 C232.3,17.7 232.2,18.1 232.2,18.6 L232.2,18.8 C232.2,19.2 232.3,19.6 232.4,19.9 C232.5,20.2 232.7,20.5 232.9,20.8 C233.1,21 233.4,21.2 233.7,21.4 C234,21.5 234.4,21.6 234.8,21.6 C234.9,21.6 235.2,21.6 235.4,21.5 L235.4,21.5 L235.4,21.5 Z M235.2,16.5 C235.4,16.6 235.5,16.7 235.6,16.9 C235.7,17.1 235.8,17.2 235.8,17.4 C235.9,17.6 235.9,17.8 235.9,18 L235.9,18.1 L233,18.1 C233,17.9 233.1,17.6 233.2,17.4 C233.3,17.2 233.4,17 233.5,16.9 C233.6,16.8 233.8,16.7 233.9,16.6 C234.1,16.5 234.3,16.5 234.5,16.5 C234.7,16.4 235,16.4 235.2,16.5 L235.2,16.5 L235.2,16.5 Z" id="_https:_my-project.syncano.site" fill="#999999"></path>
</g>
<g id="Arrows" transform="translate(157.000000, 19.000000)" stroke="#FFCC00" stroke-width="2" stroke-dasharray="4,4">
<g id="arrow_1" transform="translate(0.000000, 81.000000)">
<path d="M15.5,0.5 C15.5,0.5 48.4,27.7 5.5,62.5 C-20.3,83.4 54.3,122.9 98.5,88.5" id="Shape"></path>
<path d="M82.5,83.5 C88,85.5 93.3,87.8 98.5,90.5 C96.8,98.8 89.8,105.8 89.5,107.5" id="Shape"></path>
</g>
<g id="arrow_2" transform="translate(437.000000, 0.000000)">
<path d="M0.5,20.5 C13.7,8.3 43.8,-7.8 73.5,6.5 C103.2,20.8 136.5,20.5 136.5,20.5" id="Shape"></path>
<polyline id="Shape" points="128.6 8 139.5 22.5 122.5 32.5"></polyline>
</g>
</g>
</g>
</g>
</svg>
