<?xml version="1.0" encoding="UTF-8" standalone="no"?>
<svg
   xmlns:dc="http://purl.org/dc/elements/1.1/"
   xmlns:cc="http://creativecommons.org/ns#"
   xmlns:rdf="http://www.w3.org/1999/02/22-rdf-syntax-ns#"
   xmlns:svg="http://www.w3.org/2000/svg"
   xmlns="http://www.w3.org/2000/svg"
   viewBox="0 0 686.66669 445.33334"
   height="445.33334"
   width="686.66669"
   xml:space="preserve"
   id="svg2"
   version="1.1"><metadata
     id="metadata8"><rdf:RDF><cc:Work
         rdf:about=""><dc:format>image/svg+xml</dc:format><dc:type
           rdf:resource="http://purl.org/dc/dcmitype/StillImage" /></cc:Work></rdf:RDF></metadata><defs
     id="defs6"><clipPath
       id="clipPath86"
       clipPathUnits="userSpaceOnUse"><path
         id="path84"
         d="M 0,334 H 515 V 0 H 0 Z" /></clipPath></defs><g
     transform="matrix(1.3333333,0,0,-1.3333333,0,445.33333)"
     id="g10"><g
       transform="translate(106.291,103.79)"
       id="g12"><path
         id="path14"
         style="fill:#ff9900;fill-opacity:1;fill-rule:evenodd;stroke:none"
         d="M 0,0 -23.065,8.274 V 42.082 L 0,34.223 Z" /></g><g
       transform="translate(110.521,103.79)"
       id="g16"><path
         id="path18"
         style="fill:#ff9900;fill-opacity:1;fill-rule:evenodd;stroke:none"
         d="M 0,0 23.065,8.274 V 42.082 L 0,34.223 Z" /></g><g
       transform="translate(85.5962,148.4004)"
       id="g20"><path
         id="path22"
         style="fill:#ff9900;fill-opacity:1;fill-rule:evenodd;stroke:none"
         d="M 0,0 23.344,6.571 44.989,-0.408 23.344,-7.757 Z" /></g><g
       transform="translate(78.8311,151.0195)"
       id="g24"><path
         id="path26"
         style="fill:#ff9900;fill-opacity:1;fill-rule:evenodd;stroke:none"
         d="M 0,0 -23.065,8.274 V 42.081 L 0,34.224 Z" /></g><g
       transform="translate(83.061,151.0195)"
       id="g28"><path
         id="path30"
         style="fill:#ff9900;fill-opacity:1;fill-rule:evenodd;stroke:none"
         d="M 0,0 23.066,8.274 V 42.081 L 0,34.224 Z" /></g><g
       transform="translate(58.1362,195.6309)"
       id="g32"><path
         id="path34"
         style="fill:#ff9900;fill-opacity:1;fill-rule:evenodd;stroke:none"
         d="M 0,0 23.344,6.57 44.99,-0.409 23.344,-7.757 Z" /></g><g
       transform="translate(132.6514,151.0195)"
       id="g36"><path
         id="path38"
         style="fill:#ff9900;fill-opacity:1;fill-rule:evenodd;stroke:none"
         d="M 0,0 -23.066,8.274 V 42.081 L 0,34.224 Z" /></g><g
       transform="translate(136.8809,151.0195)"
       id="g40"><path
         id="path42"
         style="fill:#ff9900;fill-opacity:1;fill-rule:evenodd;stroke:none"
         d="M 0,0 23.066,8.274 V 42.081 L 0,34.224 Z" /></g><g
       transform="translate(111.9565,195.6309)"
       id="g44"><path
         id="path46"
         style="fill:#ff9900;fill-opacity:1;fill-rule:evenodd;stroke:none"
         d="M 0,0 23.343,6.57 44.989,-0.409 23.343,-7.757 Z" /></g><g
       transform="translate(160.1108,198.2495)"
       id="g48"><path
         id="path50"
         style="fill:#ff9900;fill-opacity:1;fill-rule:evenodd;stroke:none"
         d="M 0,0 -23.065,8.273 V 42.081 L 0,34.223 Z" /></g><g
       transform="translate(164.3408,198.2495)"
       id="g52"><path
         id="path54"
         style="fill:#ff9900;fill-opacity:1;fill-rule:evenodd;stroke:none"
         d="M 0,0 23.066,8.273 V 42.081 L 0,34.223 Z" /></g><g
       transform="translate(139.416,242.8604)"
       id="g56"><path
         id="path58"
         style="fill:#ff9900;fill-opacity:1;fill-rule:evenodd;stroke:none"
         d="M 0,0 23.344,6.57 44.989,-0.409 23.344,-7.757 Z" /></g><g
       transform="translate(213.9307,198.2495)"
       id="g60"><path
         id="path62"
         style="fill:#ff9900;fill-opacity:1;fill-rule:evenodd;stroke:none"
         d="M 0,0 -23.066,8.273 V 42.081 L 0,34.223 Z" /></g><g
       transform="translate(218.1606,198.2495)"
       id="g64"><path
         id="path66"
         style="fill:#ff9900;fill-opacity:1;fill-rule:evenodd;stroke:none"
         d="M 0,0 23.066,8.273 V 42.081 L 0,34.223 Z" /></g><g
       transform="translate(193.2358,242.8604)"
       id="g68"><path
         id="path70"
         style="fill:#ff9900;fill-opacity:1;fill-rule:evenodd;stroke:none"
         d="M 0,0 23.344,6.57 44.988,-0.409 23.344,-7.757 Z" /></g><g
       transform="translate(202.1982,125.8125)"
       id="g72"><path
         id="path74"
         style="fill:#000000;fill-opacity:1;fill-rule:nonzero;stroke:none"
         d="m 0,0 -7.748,-26.916 h -3.368 l -6.032,19.992 -5.532,-19.992 h -3.432 L -34.165,0 h 4.164 L -24.136,-20.058 -18.553,0 h 3.073 L -9.411,-20.122 -3.382,0 Z" /></g><g
       transform="translate(202.1982,125.8125)"
       id="g76"><path
         id="path78"
         style="fill:none;stroke:#000000;stroke-width:1;stroke-linecap:butt;stroke-linejoin:miter;stroke-miterlimit:4;stroke-dasharray:none;stroke-opacity:1"
         d="m 0,0 -7.748,-26.916 h -3.368 l -6.032,19.992 -5.532,-19.992 h -3.432 L -34.165,0 h 4.164 L -24.136,-20.058 -18.553,0 h 3.073 L -9.411,-20.122 -3.382,0 Z" /></g><g
       id="g80"><g
         clip-path="url(#clipPath86)"
         id="g82"><g
           transform="translate(223.4028,115.1172)"
           id="g88"><path
             id="path90"
             style="fill:#000000;fill-opacity:1;fill-rule:nonzero;stroke:none"
             d="m 0,0 c -0.036,1.509 -0.283,2.85 -0.745,4.021 -0.461,1.173 -1.241,2.171 -2.34,2.998 -1.099,0.825 -2.42,1.238 -3.962,1.238 -2.074,0 -3.834,-0.746 -5.278,-2.238 C -13.77,4.527 -14.58,2.521 -14.758,0 Z m 0.228,-8.191 3.9,-0.8 c -0.71,-2.302 -2.093,-4.208 -4.149,-5.715 -2.059,-1.509 -4.479,-2.263 -7.264,-2.263 -3.671,0 -6.641,1.293 -8.912,3.882 -2.27,2.587 -3.405,5.98 -3.405,10.177 0,4.287 1.18,7.75 3.539,10.39 2.358,2.642 5.32,3.962 8.886,3.962 3.513,0 6.337,-1.215 8.474,-3.647 C 3.435,5.362 4.53,1.725 4.583,-3.12 h -19.536 c 0,-4.071 0.85,-6.816 2.553,-8.238 1.7,-1.422 3.5,-2.132 5.396,-2.132 3.421,0 5.831,1.766 7.232,5.299" /></g><g
           transform="translate(223.4028,115.1172)"
           id="g92"><path
             id="path94"
             style="fill:none;stroke:#000000;stroke-width:1;stroke-linecap:butt;stroke-linejoin:miter;stroke-miterlimit:4;stroke-dasharray:none;stroke-opacity:1"
             d="m 0,0 c -0.036,1.509 -0.283,2.85 -0.745,4.021 -0.461,1.173 -1.241,2.171 -2.34,2.998 -1.099,0.825 -2.42,1.238 -3.962,1.238 -2.074,0 -3.834,-0.746 -5.278,-2.238 C -13.77,4.527 -14.58,2.521 -14.758,0 Z m 0.228,-8.191 3.9,-0.8 c -0.71,-2.302 -2.093,-4.208 -4.149,-5.715 -2.059,-1.509 -4.479,-2.263 -7.264,-2.263 -3.671,0 -6.641,1.293 -8.912,3.882 -2.27,2.587 -3.405,5.98 -3.405,10.177 0,4.287 1.18,7.75 3.539,10.39 2.358,2.642 5.32,3.962 8.886,3.962 3.513,0 6.337,-1.215 8.474,-3.647 C 3.435,5.362 4.53,1.725 4.583,-3.12 h -19.536 c 0,-4.071 0.85,-6.816 2.553,-8.238 1.7,-1.422 3.5,-2.132 5.396,-2.132 3.421,0 5.831,1.766 7.232,5.299 z" /></g><g
           transform="translate(237.6885,109.4492)"
           id="g96"><path
             id="path98"
             style="fill:#000000;fill-opacity:1;fill-rule:nonzero;stroke:none"
             d="m 0,0 c 0.195,-2.764 1.042,-4.769 2.542,-6.017 1.5,-1.247 3.084,-1.871 4.752,-1.871 2.129,0 3.846,0.925 5.15,2.774 1.305,1.848 1.957,4.382 1.957,7.599 0,3.466 -0.63,6.191 -1.89,8.174 -1.261,1.982 -3.009,2.974 -5.243,2.974 -1.758,0 -3.341,-0.706 -4.752,-2.116 C 1.104,10.104 0.266,8.281 0,6.045 Z M -2.178,-10.553 H -4.193 V 25.79 H 0 V 11.877 c 1.914,3.489 4.553,5.233 7.92,5.233 3.082,0 5.664,-1.217 7.747,-3.655 2.081,-2.436 3.123,-5.976 3.123,-10.616 0,-4.002 -1.025,-7.359 -3.072,-10.07 -2.05,-2.713 -4.714,-4.07 -7.995,-4.07 -3.653,0 -6.455,1.735 -8.406,5.201 z" /></g><g
           transform="translate(237.6885,109.4492)"
           id="g100"><path
             id="path102"
             style="fill:none;stroke:#000000;stroke-width:1;stroke-linecap:butt;stroke-linejoin:miter;stroke-miterlimit:4;stroke-dasharray:none;stroke-opacity:1"
             d="m 0,0 c 0.195,-2.764 1.042,-4.769 2.542,-6.017 1.5,-1.247 3.084,-1.871 4.752,-1.871 2.129,0 3.846,0.925 5.15,2.774 1.305,1.848 1.957,4.382 1.957,7.599 0,3.466 -0.63,6.191 -1.89,8.174 -1.261,1.982 -3.009,2.974 -5.243,2.974 -1.758,0 -3.341,-0.706 -4.752,-2.116 C 1.104,10.104 0.266,8.281 0,6.045 Z M -2.178,-10.553 H -4.193 V 25.79 H 0 V 11.877 c 1.914,3.489 4.553,5.233 7.92,5.233 3.082,0 5.664,-1.217 7.747,-3.655 2.081,-2.436 3.123,-5.976 3.123,-10.616 0,-4.002 -1.025,-7.359 -3.072,-10.07 -2.05,-2.713 -4.714,-4.07 -7.995,-4.07 -3.653,0 -6.455,1.735 -8.406,5.201 z" /></g><g
           transform="translate(267.1641,105.8721)"
           id="g104"><path
             id="path106"
             style="fill:#000000;fill-opacity:1;fill-rule:nonzero;stroke:none"
             d="m 0,0 3.998,0.826 c 0.889,-3.381 3.697,-5.071 8.424,-5.071 1.74,0 3.216,0.389 4.424,1.169 1.209,0.779 1.813,1.878 1.813,3.296 0,2.107 -1.538,3.445 -4.614,4.012 l -5.67,1.079 c -2.22,0.426 -3.986,1.261 -5.3,2.505 -1.313,1.244 -1.97,2.887 -1.97,4.931 0,2.255 0.896,4.143 2.689,5.662 1.792,1.519 4.206,2.278 7.241,2.278 5.839,0 9.444,-2.282 10.81,-6.845 l -3.836,-0.825 c -1.101,2.795 -3.362,4.193 -6.784,4.193 -1.704,0 -3.101,-0.35 -4.193,-1.048 -1.091,-0.698 -1.636,-1.674 -1.636,-2.93 0,-1.978 1.395,-3.223 4.182,-3.737 l 5.24,-0.964 c 5.487,-0.995 8.229,-3.657 8.229,-7.98 0,-2.473 -1.021,-4.471 -3.065,-5.991 C 17.94,-6.963 15.223,-7.724 11.829,-7.724 5.453,-7.724 1.509,-5.148 0,0" /></g><g
           transform="translate(267.1641,105.8721)"
           id="g108"><path
             id="path110"
             style="fill:none;stroke:#000000;stroke-width:1;stroke-linecap:butt;stroke-linejoin:miter;stroke-miterlimit:4;stroke-dasharray:none;stroke-opacity:1"
             d="m 0,0 3.998,0.826 c 0.889,-3.381 3.697,-5.071 8.424,-5.071 1.74,0 3.216,0.389 4.424,1.169 1.209,0.779 1.813,1.878 1.813,3.296 0,2.107 -1.538,3.445 -4.614,4.012 l -5.67,1.079 c -2.22,0.426 -3.986,1.261 -5.3,2.505 -1.313,1.244 -1.97,2.887 -1.97,4.931 0,2.255 0.896,4.143 2.689,5.662 1.792,1.519 4.206,2.278 7.241,2.278 5.839,0 9.444,-2.282 10.81,-6.845 l -3.836,-0.825 c -1.101,2.795 -3.362,4.193 -6.784,4.193 -1.704,0 -3.101,-0.35 -4.193,-1.048 -1.091,-0.698 -1.636,-1.674 -1.636,-2.93 0,-1.978 1.395,-3.223 4.182,-3.737 l 5.24,-0.964 c 5.487,-0.995 8.229,-3.657 8.229,-7.98 0,-2.473 -1.021,-4.471 -3.065,-5.991 C 17.94,-6.963 15.223,-7.724 11.829,-7.724 5.453,-7.724 1.509,-5.148 0,0 Z" /></g><g
           transform="translate(312.2842,115.1172)"
           id="g112"><path
             id="path114"
             style="fill:#000000;fill-opacity:1;fill-rule:nonzero;stroke:none"
             d="m 0,0 c -0.035,1.509 -0.284,2.85 -0.744,4.021 -0.462,1.173 -1.241,2.171 -2.34,2.998 -1.099,0.825 -2.421,1.238 -3.962,1.238 -2.074,0 -3.834,-0.746 -5.279,-2.238 C -13.77,4.527 -14.581,2.521 -14.758,0 Z m 0.228,-8.191 3.9,-0.8 c -0.708,-2.302 -2.092,-4.208 -4.15,-5.715 -2.056,-1.509 -4.478,-2.263 -7.262,-2.263 -3.672,0 -6.643,1.293 -8.912,3.882 -2.271,2.587 -3.406,5.98 -3.406,10.177 0,4.287 1.179,7.75 3.54,10.39 2.359,2.642 5.321,3.962 8.887,3.962 3.51,0 6.336,-1.215 8.473,-3.647 C 3.436,5.362 4.531,1.725 4.583,-3.12 h -19.536 c 0,-4.071 0.851,-6.816 2.552,-8.238 1.703,-1.422 3.501,-2.132 5.398,-2.132 3.42,0 5.831,1.766 7.231,5.299" /></g><g
           transform="translate(312.2842,115.1172)"
           id="g116"><path
             id="path118"
             style="fill:none;stroke:#000000;stroke-width:1;stroke-linecap:butt;stroke-linejoin:miter;stroke-miterlimit:4;stroke-dasharray:none;stroke-opacity:1"
             d="m 0,0 c -0.035,1.509 -0.284,2.85 -0.744,4.021 -0.462,1.173 -1.241,2.171 -2.34,2.998 -1.099,0.825 -2.421,1.238 -3.962,1.238 -2.074,0 -3.834,-0.746 -5.279,-2.238 C -13.77,4.527 -14.581,2.521 -14.758,0 Z m 0.228,-8.191 3.9,-0.8 c -0.708,-2.302 -2.092,-4.208 -4.15,-5.715 -2.056,-1.509 -4.478,-2.263 -7.262,-2.263 -3.672,0 -6.643,1.293 -8.912,3.882 -2.271,2.587 -3.406,5.98 -3.406,10.177 0,4.287 1.179,7.75 3.54,10.39 2.359,2.642 5.321,3.962 8.887,3.962 3.51,0 6.336,-1.215 8.473,-3.647 C 3.436,5.362 4.531,1.725 4.583,-3.12 h -19.536 c 0,-4.071 0.851,-6.816 2.552,-8.238 1.703,-1.422 3.501,-2.132 5.398,-2.132 3.42,0 5.831,1.766 7.231,5.299 z" /></g><g
           transform="translate(325.5703,98.8965)"
           id="g120"><path
             id="path122"
             style="fill:#000000;fill-opacity:1;fill-rule:nonzero;stroke:none"
             d="m 0,0 h -4.193 v 26.916 h 3.673 v -6.274 c 1.295,2.939 2.596,4.843 3.9,5.713 1.304,0.873 2.64,1.308 4.007,1.308 0.425,0 0.976,-0.032 1.65,-0.098 V 23.567 H 8.188 C 5.883,23.567 3.969,22.711 2.445,20.999 0.922,19.287 0.106,17.038 0,14.249 Z" /></g><g
           transform="translate(325.5703,98.8965)"
           id="g124"><path
             id="path126"
             style="fill:none;stroke:#000000;stroke-width:1;stroke-linecap:butt;stroke-linejoin:miter;stroke-miterlimit:4;stroke-dasharray:none;stroke-opacity:1"
             d="m 0,0 h -4.193 v 26.916 h 3.673 v -6.274 c 1.295,2.939 2.596,4.843 3.9,5.713 1.304,0.873 2.64,1.308 4.007,1.308 0.425,0 0.976,-0.032 1.65,-0.098 V 23.567 H 8.188 C 5.883,23.567 3.969,22.711 2.445,20.999 0.922,19.287 0.106,17.038 0,14.249 Z" /></g><g
           transform="translate(360.6523,125.8125)"
           id="g128"><path
             id="path130"
             style="fill:#000000;fill-opacity:1;fill-rule:nonzero;stroke:none"
             d="m 0,0 -9.293,-26.916 h -4.346 L -23.242,0 h 4.638 L -11.133,-21.878 -3.72,0 Z" /></g><g
           transform="translate(360.6523,125.8125)"
           id="g132"><path
             id="path134"
             style="fill:none;stroke:#000000;stroke-width:1;stroke-linecap:butt;stroke-linejoin:miter;stroke-miterlimit:4;stroke-dasharray:none;stroke-opacity:1"
             d="m 0,0 -9.293,-26.916 h -4.346 L -23.242,0 h 4.638 L -11.133,-21.878 -3.72,0 Z" /></g><path
           id="path136"
           style="fill:#000000;fill-opacity:1;fill-rule:nonzero;stroke:#000000;stroke-width:1;stroke-linecap:butt;stroke-linejoin:miter;stroke-miterlimit:4;stroke-dasharray:none;stroke-opacity:1"
           d="M 368.393,98.896 H 364.2 v 26.916 h 4.193 z m 0.097,31.695 h -4.486 v 4.648 h 4.486 z" /><g
           transform="translate(390.2988,108.3232)"
           id="g138"><path
             id="path140"
             style="fill:#000000;fill-opacity:1;fill-rule:nonzero;stroke:none"
             d="M 0,0 3.771,-0.665 C 3.238,-3.64 2.058,-5.968 0.229,-7.65 c -1.828,-1.683 -4.109,-2.525 -6.842,-2.525 -3.71,0 -6.537,1.37 -8.481,4.109 -1.943,2.738 -2.916,6.082 -2.916,10.031 0,4.09 1.026,7.491 3.076,10.203 2.049,2.713 4.841,4.068 8.373,4.068 2.93,0 5.277,-0.876 7.043,-2.63 C 2.249,13.854 3.344,11.59 3.771,8.813 L 0,8.095 c -0.71,4.441 -2.855,6.664 -6.438,6.664 -2.306,0 -4.08,-0.981 -5.32,-2.942 C -13,9.855 -13.621,7.313 -13.621,4.19 c 0,-3.443 0.616,-6.117 1.85,-8.025 1.232,-1.907 2.965,-2.861 5.201,-2.861 3.457,0 5.647,2.232 6.57,6.696" /></g><g
           transform="translate(390.2988,108.3232)"
           id="g142"><path
             id="path144"
             style="fill:none;stroke:#000000;stroke-width:1;stroke-linecap:butt;stroke-linejoin:miter;stroke-miterlimit:4;stroke-dasharray:none;stroke-opacity:1"
             d="M 0,0 3.771,-0.665 C 3.238,-3.64 2.058,-5.968 0.229,-7.65 c -1.828,-1.683 -4.109,-2.525 -6.842,-2.525 -3.71,0 -6.537,1.37 -8.481,4.109 -1.943,2.738 -2.916,6.082 -2.916,10.031 0,4.09 1.026,7.491 3.076,10.203 2.049,2.713 4.841,4.068 8.373,4.068 2.93,0 5.277,-0.876 7.043,-2.63 C 2.249,13.854 3.344,11.59 3.771,8.813 L 0,8.095 c -0.71,4.441 -2.855,6.664 -6.438,6.664 -2.306,0 -4.08,-0.981 -5.32,-2.942 C -13,9.855 -13.621,7.313 -13.621,4.19 c 0,-3.443 0.616,-6.117 1.85,-8.025 1.232,-1.907 2.965,-2.861 5.201,-2.861 3.457,0 5.647,2.232 6.57,6.696 z" /></g><g
           transform="translate(417.4893,115.1172)"
           id="g146"><path
             id="path148"
             style="fill:#000000;fill-opacity:1;fill-rule:nonzero;stroke:none"
             d="m 0,0 c -0.035,1.509 -0.284,2.85 -0.745,4.021 -0.461,1.173 -1.24,2.171 -2.339,2.998 -1.1,0.825 -2.421,1.238 -3.963,1.238 -2.075,0 -3.834,-0.746 -5.278,-2.238 C -13.771,4.527 -14.582,2.521 -14.758,0 Z m 0.228,-8.191 3.9,-0.8 c -0.709,-2.302 -2.092,-4.208 -4.15,-5.715 -2.056,-1.509 -4.478,-2.263 -7.262,-2.263 -3.672,0 -6.644,1.293 -8.913,3.882 -2.271,2.587 -3.406,5.98 -3.406,10.177 0,4.287 1.18,7.75 3.541,10.39 2.358,2.642 5.321,3.962 8.886,3.962 3.511,0 6.337,-1.215 8.474,-3.647 C 3.436,5.362 4.53,1.725 4.583,-3.12 h -19.536 c 0,-4.071 0.85,-6.816 2.552,-8.238 1.703,-1.422 3.5,-2.132 5.398,-2.132 3.419,0 5.83,1.766 7.231,5.299" /></g><g
           transform="translate(417.4893,115.1172)"
           id="g150"><path
             id="path152"
             style="fill:none;stroke:#000000;stroke-width:1;stroke-linecap:butt;stroke-linejoin:miter;stroke-miterlimit:4;stroke-dasharray:none;stroke-opacity:1"
             d="m 0,0 c -0.035,1.509 -0.284,2.85 -0.745,4.021 -0.461,1.173 -1.24,2.171 -2.339,2.998 -1.1,0.825 -2.421,1.238 -3.963,1.238 -2.075,0 -3.834,-0.746 -5.278,-2.238 C -13.771,4.527 -14.582,2.521 -14.758,0 Z m 0.228,-8.191 3.9,-0.8 c -0.709,-2.302 -2.092,-4.208 -4.15,-5.715 -2.056,-1.509 -4.478,-2.263 -7.262,-2.263 -3.672,0 -6.644,1.293 -8.913,3.882 -2.271,2.587 -3.406,5.98 -3.406,10.177 0,4.287 1.18,7.75 3.541,10.39 2.358,2.642 5.321,3.962 8.886,3.962 3.511,0 6.337,-1.215 8.474,-3.647 C 3.436,5.362 4.53,1.725 4.583,-3.12 h -19.536 c 0,-4.071 0.85,-6.816 2.552,-8.238 1.703,-1.422 3.5,-2.132 5.398,-2.132 3.419,0 5.83,1.766 7.231,5.299 z" /></g><g
           transform="translate(424.4404,105.8721)"
           id="g154"><path
             id="path156"
             style="fill:#000000;fill-opacity:1;fill-rule:nonzero;stroke:none"
             d="m 0,0 3.999,0.826 c 0.889,-3.381 3.696,-5.071 8.423,-5.071 1.741,0 3.216,0.389 4.424,1.169 1.209,0.779 1.813,1.878 1.813,3.296 0,2.107 -1.538,3.445 -4.614,4.012 L 8.376,5.311 C 6.155,5.737 4.39,6.572 3.075,7.816 c -1.312,1.244 -1.97,2.887 -1.97,4.931 0,2.255 0.896,4.143 2.69,5.662 1.791,1.519 4.205,2.278 7.241,2.278 5.839,0 9.443,-2.282 10.809,-6.845 l -3.836,-0.825 c -1.1,2.795 -3.362,4.193 -6.784,4.193 -1.704,0 -3.101,-0.35 -4.192,-1.048 -1.091,-0.698 -1.637,-1.674 -1.637,-2.93 0,-1.978 1.395,-3.223 4.183,-3.737 l 5.24,-0.964 c 5.486,-0.995 8.229,-3.657 8.229,-7.98 0,-2.473 -1.021,-4.471 -3.065,-5.991 C 17.941,-6.963 15.223,-7.724 11.83,-7.724 5.453,-7.724 1.51,-5.148 0,0" /></g><g
           transform="translate(424.4404,105.8721)"
           id="g158"><path
             id="path160"
             style="fill:none;stroke:#000000;stroke-width:1;stroke-linecap:butt;stroke-linejoin:miter;stroke-miterlimit:4;stroke-dasharray:none;stroke-opacity:1"
             d="m 0,0 3.999,0.826 c 0.889,-3.381 3.696,-5.071 8.423,-5.071 1.741,0 3.216,0.389 4.424,1.169 1.209,0.779 1.813,1.878 1.813,3.296 0,2.107 -1.538,3.445 -4.614,4.012 L 8.376,5.311 C 6.155,5.737 4.39,6.572 3.075,7.816 c -1.312,1.244 -1.97,2.887 -1.97,4.931 0,2.255 0.896,4.143 2.69,5.662 1.791,1.519 4.205,2.278 7.241,2.278 5.839,0 9.443,-2.282 10.809,-6.845 l -3.836,-0.825 c -1.1,2.795 -3.362,4.193 -6.784,4.193 -1.704,0 -3.101,-0.35 -4.192,-1.048 -1.091,-0.698 -1.637,-1.674 -1.637,-2.93 0,-1.978 1.395,-3.223 4.183,-3.737 l 5.24,-0.964 c 5.486,-0.995 8.229,-3.657 8.229,-7.98 0,-2.473 -1.021,-4.471 -3.065,-5.991 C 17.941,-6.963 15.223,-7.724 11.83,-7.724 5.453,-7.724 1.51,-5.148 0,0 Z" /></g><g
           transform="translate(329.9238,183.3389)"
           id="g162"><path
             id="path164"
             style="fill:#000000;fill-opacity:1;fill-rule:evenodd;stroke:none"
             d="m 0,0 v 6.465 c 0.004,0.984 0.745,1.64 1.639,1.639 l 28.977,0.002 c 0.927,0 1.67,-0.674 1.672,-1.633 L 32.286,0.928 c -0.007,-0.929 -0.79,-2.144 -2.182,-4.07 L 15.095,-24.573 c 5.572,0.131 11.466,-0.703 16.528,-3.549 1.142,-0.641 1.447,-1.592 1.537,-2.524 v -6.898 c 0,-0.951 -1.04,-2.051 -2.133,-1.478 -8.92,4.671 -20.756,5.183 -30.618,-0.057 -1.008,-0.537 -2.062,0.547 -2.062,1.498 v 6.558 c 0,1.049 0.019,2.844 1.078,4.444 L 16.815,-1.63 1.674,-1.627 C 0.748,-1.627 0.006,-0.968 0,0" /></g><g
           transform="translate(226.2197,142.957)"
           id="g166"><path
             id="path168"
             style="fill:#000000;fill-opacity:1;fill-rule:evenodd;stroke:none"
             d="m 0,0 h -8.815 c -0.839,0.055 -1.51,0.686 -1.578,1.49 l 0.006,45.247 c 0,0.905 0.762,1.629 1.701,1.629 l 8.21,0.002 c 0.86,-0.044 1.549,-0.694 1.604,-1.519 v -5.908 h 0.165 c 2.14,5.713 6.172,8.379 11.603,8.379 5.513,0 8.969,-2.666 11.439,-8.379 2.139,5.713 6.994,8.379 12.179,8.379 3.703,0 7.735,-1.523 10.204,-4.951 2.798,-3.808 2.222,-9.331 2.222,-14.187 L 48.934,1.629 C 48.934,0.725 48.172,0 47.233,0 h -8.805 c -0.885,0.057 -1.583,0.758 -1.583,1.625 l -0.002,23.987 c 0,1.904 0.165,6.665 -0.247,8.474 -0.658,3.047 -2.633,3.904 -5.184,3.904 -2.14,0 -4.362,-1.428 -5.267,-3.714 -0.906,-2.285 -0.823,-6.093 -0.823,-8.664 V 1.629 C 25.322,0.725 24.561,0 23.622,0 h -8.806 c -0.884,0.057 -1.583,0.758 -1.583,1.625 l -0.008,23.987 c 0,5.046 0.823,12.473 -5.431,12.473 -6.337,0 -6.09,-7.236 -6.09,-12.473 L 1.7,1.629 C 1.701,0.725 0.939,0 0,0" /></g><g
           transform="translate(383.5811,181.877)"
           id="g170"><path
             id="path172"
             style="fill:#000000;fill-opacity:1;fill-rule:evenodd;stroke:none"
             d="m 0,0 c -6.451,0 -6.858,-8.854 -6.858,-14.377 0,-5.522 -0.082,-16.165 6.776,-16.165 6.777,0 7.103,8.357 7.103,14.165 0,3.809 -0.163,8.379 -1.306,11.997 C 4.733,-1.238 2.774,0 0,0 m -0.082,10.4 c 12.98,0 20.001,-11.235 20.001,-25.517 0,-13.805 -7.754,-24.756 -20.001,-24.756 -12.735,0 -19.675,11.236 -19.675,25.232 0,14.092 7.022,25.041 19.675,25.041" /></g><g
           transform="translate(422.2871,142.957)"
           id="g174"><path
             id="path176"
             style="fill:#000000;fill-opacity:1;fill-rule:evenodd;stroke:none"
             d="m 0,0 h -8.783 c -0.883,0.057 -1.582,0.758 -1.582,1.625 l -0.014,45.264 c 0.074,0.827 0.805,1.477 1.693,1.477 l 8.178,0.002 c 0.77,-0.039 1.404,-0.565 1.567,-1.267 V 40.18 h 0.166 c 2.468,6.189 5.923,9.14 12.013,9.14 3.949,0 7.819,-1.428 10.287,-5.332 C 25.83,40.37 25.83,34.276 25.83,29.896 V 1.426 C 25.73,0.623 25.012,0 24.141,0 h -8.838 c -0.817,0.053 -1.475,0.652 -1.571,1.426 v 24.567 c 0,4.951 0.577,12.187 -5.513,12.187 -2.141,0 -4.115,-1.428 -5.102,-3.618 -1.234,-2.761 -1.4,-5.522 -1.4,-8.569 V 1.629 C 1.701,0.725 0.939,0 0,0" /></g><g
           transform="translate(316.7109,143.0703)"
           id="g178"><path
             id="path180"
             style="fill:#000000;fill-opacity:1;fill-rule:evenodd;stroke:none"
             d="m 0,0 c -0.584,-0.523 -1.425,-0.559 -2.083,-0.205 -2.928,2.434 -3.452,3.559 -5.053,5.875 -4.84,-4.93 -8.267,-6.408 -14.535,-6.408 -7.422,0 -13.195,4.58 -13.195,13.74 0,7.157 3.876,12.023 9.401,14.409 4.783,2.099 11.464,2.481 16.577,3.053 v 1.145 c 0,2.099 0.165,4.581 -1.072,6.393 -1.072,1.623 -3.134,2.291 -4.948,2.291 -3.363,0 -6.352,-1.723 -7.086,-5.294 -0.152,-0.794 -0.733,-1.58 -1.531,-1.621 l -8.545,0.925 c -0.722,0.163 -1.524,0.741 -1.316,1.843 1.964,10.367 11.325,13.499 19.715,13.499 4.288,0 9.897,-1.145 13.277,-4.39 4.29,-4.008 3.876,-9.352 3.876,-15.172 V 16.348 c 0,-4.132 1.717,-5.944 3.329,-8.171 C 7.373,7.375 7.5,6.421 6.781,5.836 4.98,4.326 1.781,1.547 0.021,-0.02 Z m -8.888,21.495 c 0,-3.436 0.082,-6.298 -1.649,-9.352 -1.402,-2.481 -3.629,-4.008 -6.104,-4.008 -3.38,0 -5.36,2.577 -5.36,6.394 0,7.508 6.735,8.874 13.113,8.874 z" /></g><g
           transform="translate(202.1426,143.0703)"
           id="g182"><path
             id="path184"
             style="fill:#000000;fill-opacity:1;fill-rule:evenodd;stroke:none"
             d="m 0,0 c -0.584,-0.523 -1.426,-0.559 -2.083,-0.205 -2.929,2.434 -3.453,3.559 -5.054,5.875 -4.839,-4.93 -8.266,-6.408 -14.534,-6.408 -7.423,0 -13.195,4.58 -13.195,13.74 0,7.157 3.876,12.023 9.401,14.409 4.783,2.099 11.464,2.481 16.576,3.053 v 1.145 c 0,2.099 0.165,4.581 -1.071,6.393 -1.072,1.623 -3.135,2.291 -4.948,2.291 -3.363,0 -6.353,-1.723 -7.086,-5.294 -0.153,-0.794 -0.733,-1.58 -1.532,-1.621 l -8.544,0.925 c -0.722,0.163 -1.525,0.741 -1.316,1.843 1.963,10.367 11.324,13.499 19.714,13.499 4.289,0 9.897,-1.145 13.278,-4.39 4.289,-4.008 3.876,-9.352 3.876,-15.172 V 16.348 C 3.482,12.216 5.198,10.404 6.81,8.177 7.372,7.375 7.499,6.421 6.781,5.836 4.98,4.326 1.78,1.547 0.021,-0.02 Z m -8.889,21.495 c 0,-3.436 0.083,-6.298 -1.649,-9.352 -1.401,-2.481 -3.628,-4.008 -6.103,-4.008 -3.38,0 -5.36,2.577 -5.36,6.394 0,7.508 6.735,8.874 13.112,8.874 z" /></g></g></g></g></svg>