<?xml version="1.0" encoding="iso-8859-1"?>
<!-- Generator: Adobe Illustrator 16.0.0, SVG Export Plug-In . SVG Version: 6.00 Build 0)  -->
<!DOCTYPE svg PUBLIC "-//W3C//DTD SVG 1.1//EN" "http://www.w3.org/Graphics/SVG/1.1/DTD/svg11.dtd">
<svg xmlns="http://www.w3.org/2000/svg" xmlns:xlink="http://www.w3.org/1999/xlink" version="1.1" id="Capa_1" x="0px" y="0px" width="512px" height="512px" viewBox="0 0 445.775 445.775" style="enable-background:new 0 0 445.775 445.775;" xml:space="preserve">
<g>
	<g>
		<g>
			<path d="M226.404,133.063v-0.009c-0.035,0-0.064,0.006-0.104,0.006v-0.006c-0.011,0-0.03,0-0.041,0.006     c-0.021-0.006-0.035-0.006-0.053-0.006v0.006c-0.039,0-0.063-0.006-0.096-0.006v0.009c-22.986,0.612-37.096,13.62-36.862,36.383     c0.347,32.798,14.167,52.696,36.896,52.348v0.009c0.02,0,0.038,0,0.062,0c0.009,0,0.021,0,0.042,0c0,0,0.002,0,0.012,0h0.011     c0.014,0,0.023,0,0.03,0c0.024,0,0.043,0,0.062,0v-0.009c22.728,0.349,36.553-19.55,36.902-52.348     C263.498,146.686,249.387,133.676,226.404,133.063z" fill="#0070d3"/>
			<path d="M112.791,355.553c-3.004-1.44-6.749-2.254-10.262-2.254c-9.145,0-14.824,5.446-14.824,14.19v7.933H84.27     c-1.392,0-2.516,1.132-2.516,2.527v5.188c0,1.382,1.124,2.513,2.516,2.513h3.435v19.686c0,1.396,1.124,2.526,2.516,2.526h9.863     c1.391,0,2.515-1.131,2.515-2.526v-19.609h8.671c1.385,0,2.516-1.127,2.516-2.513v-5.265c0-1.396-1.13-2.526-2.516-2.526h-8.671     v-5.782c0-2.801,0.967-4.053,3.143-4.053l0.151,0.003c0.909,0,1.97,0.223,3.287,0.674c0.655,0.208,1.377,0.157,1.987-0.155     c0.615-0.329,1.07-0.887,1.255-1.542l1.714-6.052C114.472,357.325,113.905,356.071,112.791,355.553z" fill="#0070d3"/>
			<path d="M383.459,2.888c-34.361,0-62.313,27.947-62.313,62.306c0,13.334,4.227,25.69,11.385,35.838l-27.855,27.854     c-20.733-18.84-48.252-30.333-78.408-30.333c-31.917,0-60.875,12.88-81.965,33.71l-28.384-23.455     c5.525-9.303,8.711-20.146,8.711-31.729c0-34.356-27.953-62.306-62.313-62.306S0,42.722,0,77.078     C0,111.441,27.953,139.4,62.314,139.4c16.323,0,31.193-6.319,42.313-16.627l27.893,23.05     c-14.421,19.418-22.963,43.445-22.963,69.438c0,36.812,17.134,69.688,43.839,91.095l-20.062,22.815     c-10.017-6.875-22.127-10.911-35.166-10.911c-34.361,0-62.313,27.964-62.313,62.322c0,34.356,27.953,62.306,62.314,62.306     c34.361,0,62.314-27.947,62.314-62.306c0-14.856-5.236-28.512-13.946-39.234l21.801-24.794     c17.08,9.809,36.86,15.417,57.93,15.417c64.355,0,116.709-52.351,116.709-116.71c0-27.75-9.737-53.261-25.971-73.312     l27.873-27.876c10.621,8.405,24.021,13.442,38.582,13.442c34.361,0,62.314-27.964,62.314-62.322     C445.775,30.834,417.82,2.888,383.459,2.888z M98.167,426.525c-25.334,0-45.95-20.612-45.95-45.941     c0-25.343,20.615-45.943,45.95-45.943s45.944,20.604,45.944,45.943C144.111,405.911,123.501,426.525,98.167,426.525z      M62.312,123.023c-25.334,0-45.95-20.6-45.95-45.945c0-25.323,20.615-45.938,45.95-45.938s45.943,20.615,45.943,45.938     C108.256,102.424,87.647,123.023,62.312,123.023z M302.236,272.148c-1.629-11.534-4.605-23.103-10.515-25.454l-36.972-14.737     l-8.659-7.293c-2.287-1.937-5.664-1.796-7.785,0.314l-12.036,11.975L214.2,224.974c-2.121-2.106-5.493-2.24-7.781-0.312     l-8.656,7.293l-36.972,14.741c-5.905,2.354-8.879,13.914-10.501,25.448c-11.907-15.864-18.973-35.564-18.973-56.885     c0-52.351,42.594-94.947,94.949-94.947s94.945,42.597,94.945,94.947C321.211,236.583,314.146,256.282,302.236,272.148z      M383.459,111.137c-25.334,0-45.943-20.603-45.943-45.943c0-25.329,20.609-45.943,45.943-45.943s45.949,20.614,45.949,45.943     C429.408,90.534,408.793,111.137,383.459,111.137z" fill="#0070d3"/>
			<path d="M397.715,81.208c-0.188-0.655-0.641-1.214-1.252-1.542c-0.613-0.312-1.326-0.363-1.981-0.155     c-1.324,0.451-2.388,0.674-3.296,0.674l-0.151,0.003c-2.168,0-3.135-1.252-3.135-4.053V60.042h8.664     c1.393,0,2.516-1.131,2.516-2.529v-5.262c0-1.386-1.123-2.512-2.516-2.512h-8.665v-9.299c0-1.396-1.132-2.513-2.517-2.513h-9.869     c-1.387,0-2.516,1.115-2.516,2.513v9.371h-3.43c-1.394,0-2.521,1.133-2.521,2.513v5.188c0,1.398,1.129,2.529,2.521,2.529h3.431     v18.242c0,8.746,5.678,14.192,14.822,14.192c3.52,0,7.26-0.812,10.271-2.255c1.111-0.518,1.674-1.771,1.342-2.944L397.715,81.208     z" fill="#0070d3"/>
			<path d="M80.484,50.12h-8.57c-1.391,0-2.514,1.129-2.514,2.512v1.173c-2.65-2.708-6.254-4.125-10.532-4.125l-0.225,0.002     c-10.024,0-17.017,7.79-17.017,18.938c0,11.399,7.101,19.351,17.275,19.351c4.265,0,7.858-1.415,10.498-4.107v2.403     c0,4.6-3.334,7.339-8.917,7.339c-3.393,0-6.855-0.954-9.999-2.739c-0.597-0.341-1.308-0.415-1.965-0.225     c-0.656,0.187-1.213,0.659-1.525,1.258l-2.57,5.021c-0.61,1.194-0.181,2.663,0.975,3.337c4.716,2.726,10.397,4.225,16.012,4.225     c12.91,0,21.588-7.466,21.588-18.571v-33.28C82.999,51.249,81.869,50.12,80.484,50.12z M61.992,77.751     c-4.521,0-7.551-3.528-7.551-8.774c0-5.292,3.031-8.839,7.551-8.839c4.429,0,7.408,3.547,7.408,8.839     C69.4,74.223,66.42,77.751,61.992,77.751z" fill="#0070d3"/>
		</g>
	</g>
</g>
<g>
</g>
<g>
</g>
<g>
</g>
<g>
</g>
<g>
</g>
<g>
</g>
<g>
</g>
<g>
</g>
<g>
</g>
<g>
</g>
<g>
</g>
<g>
</g>
<g>
</g>
<g>
</g>
<g>
</g>
</svg>
