<?xml version="1.0" encoding="iso-8859-1"?>
<!-- Generator: Adobe Illustrator 16.0.0, SVG Export Plug-In . SVG Version: 6.00 Build 0)  -->
<!DOCTYPE svg PUBLIC "-//W3C//DTD SVG 1.1//EN" "http://www.w3.org/Graphics/SVG/1.1/DTD/svg11.dtd">
<svg xmlns="http://www.w3.org/2000/svg" xmlns:xlink="http://www.w3.org/1999/xlink" version="1.1" id="Capa_1" x="0px" y="0px" width="512px" height="512px" viewBox="0 0 535.5 535.5" style="enable-background:new 0 0 535.5 535.5;" xml:space="preserve">
<g>
	<g id="lock-outline">
		<path d="M420.75,178.5h-25.5v-51c0-71.4-56.1-127.5-127.5-127.5c-71.4,0-127.5,56.1-127.5,127.5v51h-25.5c-28.05,0-51,22.95-51,51    v255c0,28.05,22.95,51,51,51h306c28.05,0,51-22.95,51-51v-255C471.75,201.45,448.8,178.5,420.75,178.5z M267.75,48.45    c43.35,0,79.05,35.7,79.05,79.05v51H191.25v-51h-2.55C188.7,84.15,224.4,48.45,267.75,48.45z M420.75,484.5h-306v-255h306V484.5z     M267.75,408c28.05,0,51-22.95,51-51s-22.95-51-51-51s-51,22.95-51,51S239.7,408,267.75,408z" fill="#0070d3"/>
	</g>
</g>
<g>
</g>
<g>
</g>
<g>
</g>
<g>
</g>
<g>
</g>
<g>
</g>
<g>
</g>
<g>
</g>
<g>
</g>
<g>
</g>
<g>
</g>
<g>
</g>
<g>
</g>
<g>
</g>
<g>
</g>
</svg>
