<?xml version="1.0" encoding="iso-8859-1"?>
<!-- Generator: Adobe Illustrator 18.0.0, SVG Export Plug-In . SVG Version: 6.00 Build 0)  -->
<!DOCTYPE svg PUBLIC "-//W3C//DTD SVG 1.1//EN" "http://www.w3.org/Graphics/SVG/1.1/DTD/svg11.dtd">
<svg xmlns="http://www.w3.org/2000/svg" xmlns:xlink="http://www.w3.org/1999/xlink" version="1.1" id="Capa_1" x="0px" y="0px" viewBox="0 0 491 491" style="enable-background:new 0 0 491 491;" xml:space="preserve" width="512px" height="512px">
<path d="M489.658,189.942l-45.205-85.169c-1.534-2.889-4.147-4.877-7.108-5.693c-0.02-0.005-0.032-0.012-0.053-0.018L248.97,48.229  c-1.958-0.527-4.021-0.53-5.98-0.004L53.721,99.058c-0.021,0.006-0.035,0.013-0.057,0.019c-2.966,0.814-5.583,2.804-7.118,5.696  L1.342,189.942c-1.473,2.776-1.746,6.034-0.756,9.016c0.99,2.982,3.158,5.43,5.999,6.772l39.331,18.592v116.344  c0,4.414,2.526,8.439,6.502,10.356l188.557,91.002c1.584,0.765,3.293,1.143,4.997,1.143c1.691,0,3.372-0.389,4.927-1.127  c0.025-0.006,0.049-0.005,0.072-0.017l188.557-91.002c3.976-1.918,6.502-5.942,6.502-10.356V224.332c0-0.15-0.017-0.297-0.022-0.445  l38.408-18.156c2.841-1.343,5.009-3.79,5.999-6.772C491.404,195.975,491.131,192.719,489.658,189.942z M245.965,71.241  l150.587,40.647L245.5,167.87L94.52,111.916L245.965,71.241z M62.144,124.445l167.892,62.223l-36.977,81.771L27.306,190.085  L62.144,124.445z M68.916,333.447v-98.252l124.887,59.035c1.552,0.734,3.232,1.104,4.915,1.104c1.341,0,2.685-0.234,3.968-0.706  c2.895-1.064,5.24-3.246,6.511-6.056l25.276-55.896v180.673L68.916,333.447z M423.029,333.447l-165.557,79.902V234.767  l24.331,53.805c1.271,2.81,3.616,4.991,6.511,6.056c1.283,0.472,2.627,0.706,3.968,0.706c1.684,0,3.363-0.369,4.915-1.104  l125.832-59.482V333.447z M297.941,268.438l-36.978-81.771l167.892-62.223l34.839,65.64L297.941,268.438z" fill="#0070d3"/>
<g>
</g>
<g>
</g>
<g>
</g>
<g>
</g>
<g>
</g>
<g>
</g>
<g>
</g>
<g>
</g>
<g>
</g>
<g>
</g>
<g>
</g>
<g>
</g>
<g>
</g>
<g>
</g>
<g>
</g>
</svg>
