<svg xmlns="http://www.w3.org/2000/svg" width="334" height="206" viewBox="0 0 334 206"><g fill="none"><path fill="#642EE1" d="M99.524 118.83c1.911-1.107 5.013-1.105 6.922 0l32.092 18.578c1.912 1.107 3.462 3.803 3.462 6.013v37.157c0 2.214-1.554 4.908-3.462 6.013l-32.092 18.578c-1.912 1.107-5.015 1.105-6.922 0L67.46 186.591c-1.911-1.107-3.46-3.803-3.46-6.013v-37.157c0-2.214 1.552-4.908 3.46-6.013l32.064-18.578z"/><path fill="#FFF" d="M110.222 159.66v12.451H92.889v-17.333h12.451a6.537 6.537 0 0 1-.173-1.444c0-.498.068-.979.173-1.444H92.889A2.895 2.895 0 0 0 90 154.779v17.333c0 1.589 1.3 2.889 2.889 2.889h17.333c1.589 0 2.889-1.3 2.889-2.889v-12.451a6.537 6.537 0 0 1-1.444.173c-.498 0-.979-.068-1.444-.173l-.001-.001zm1.444-10.66a4.333 4.333 0 1 0 0 8.666 4.333 4.333 0 0 0 0-8.666z"/><path fill="#00BCD4" d="M227.524 118.83c1.911-1.107 5.013-1.105 6.922 0l32.092 18.578c1.912 1.107 3.462 3.803 3.462 6.013v37.157c0 2.214-1.554 4.908-3.462 6.013l-32.092 18.578c-1.912 1.107-5.015 1.105-6.922 0l-32.064-18.578c-1.911-1.107-3.46-3.803-3.46-6.013v-37.157c0-2.214 1.552-4.908 3.46-6.013l32.064-18.578z"/><path fill="#FFF" d="M230.667 148c-7.731 0-14 6.269-14 14H212l6.222 6.222 6.222-6.222h-4.666a10.88 10.88 0 0 1 10.889-10.889A10.88 10.88 0 0 1 241.556 162a10.88 10.88 0 0 1-10.89 10.889c-2.348 0-4.526-.762-6.315-2.022l-2.209 2.24a14.019 14.019 0 0 0 8.525 2.893c7.73 0 14-6.269 14-14s-6.27-14-14-14zm3.11 14a3.12 3.12 0 0 0-3.11-3.111 3.12 3.12 0 0 0-3.111 3.111 3.12 3.12 0 0 0 3.11 3.111 3.12 3.12 0 0 0 3.112-3.111z"/><path fill="#FFCC01" d="M35.524.83c1.911-1.107 5.013-1.105 6.922 0l32.092 18.578C76.45 20.515 78 23.211 78 25.421v37.157c0 2.214-1.554 4.908-3.462 6.013L42.446 87.169c-1.912 1.107-5.015 1.105-6.922 0L3.46 68.591C1.549 67.484 0 64.788 0 62.578V25.421c0-2.214 1.552-4.908 3.46-6.013L35.524.83z"/><path fill="#FFF" d="M42 31l14 13-14 13v-6H28V37h14z"/><g><path fill="#D4E157" d="M163.524.83c1.911-1.107 5.013-1.105 6.922 0l32.092 18.578c1.912 1.107 3.462 3.803 3.462 6.013v37.157c0 2.214-1.554 4.908-3.462 6.013l-32.092 18.578c-1.912 1.107-5.015 1.105-6.922 0L131.46 68.591c-1.911-1.107-3.46-3.803-3.46-6.013V25.421c0-2.214 1.552-4.908 3.46-6.013L163.524.83z"/><path fill="#FFF" fill-opacity=".9" d="M167 28c-8.8 0-16 7.2-16 16s7.2 16 16 16 16-7.2 16-16-7.2-16-16-16zm0 28.8c-7.04 0-12.8-5.76-12.8-12.8 0-7.04 5.76-12.8 12.8-12.8 7.04 0 12.8 5.76 12.8 12.8 0 7.04-5.76 12.8-12.8 12.8zm.8-20.8h-2.4v9.6l8.32 5.12 1.28-2.08-7.2-4.32V36z"/></g><g><path fill="#49B9E8" d="M291.524.83c1.911-1.107 5.013-1.105 6.922 0l32.092 18.578c1.912 1.107 3.462 3.803 3.462 6.013v37.157c0 2.214-1.554 4.908-3.462 6.013l-32.092 18.578c-1.912 1.107-5.015 1.105-6.922 0L259.46 68.591c-1.911-1.107-3.46-3.803-3.46-6.013V25.421c0-2.214 1.552-4.908 3.46-6.013L291.524.83z"/><path fill="#FFF" d="M302.922 45v8c0 1.105-.861 2-1.923 2-.327 0-.635 0-1.808-1-1.192-1-3.211-3-5.288-4-1.923-.92-3.904-1-5.865-1l2.327 6.64.058.36c0 .552-.43 1-.961 1h-3.846a.94.94 0 0 1-.904-.68L282.135 49h-.365c-1.062 0-1.923-.895-1.923-2-2.124 0-3.846-1.791-3.846-4s1.722-4 3.846-4c0-1.105.861-2 1.923-2h5.769c2.135 0 4.269 0 6.365-1 2.077-1 4.096-3 5.288-4 1.173-1 1.481-1 1.808-1 1.062 0 1.923.895 1.923 2v8c1.062 0 1.923.895 1.923 2s-.861 2-1.923 2h-.001zM314 43c0 2.76-1.077 5.26-2.808 7.08l-2.731-2.84a6.11 6.11 0 0 0 1.692-4.24 6.11 6.11 0 0 0-1.692-4.24l2.731-2.84A10.25 10.25 0 0 1 314 43z"/></g></g></svg>
