<svg width="78" height="88" viewBox="0 0 78 88" xmlns="http://www.w3.org/2000/svg"><g fill="none"><path d="M35.524.83c1.911-1.107 5.013-1.105 6.922 0l32.092 18.578c1.912 1.107 3.462 3.803 3.462 6.013v37.157c0 2.214-1.554 4.908-3.462 6.013l-32.092 18.578c-1.912 1.107-5.015 1.105-6.922 0l-32.064-18.578c-1.911-1.107-3.46-3.803-3.46-6.013v-37.157c0-2.214 1.552-4.908 3.46-6.013l32.064-18.578z" fill="#D4E157"/><g fill-opacity=".9" fill="#fff"><path d="M39 28c-8.8 0-16 7.2-16 16s7.2 16 16 16 16-7.2 16-16-7.2-16-16-16zm0 28.8c-7.04 0-12.8-5.76-12.8-12.8 0-7.04 5.76-12.8 12.8-12.8 7.04 0 12.8 5.76 12.8 12.8 0 7.04-5.76 12.8-12.8 12.8zM39.8 36h-2.4v9.6l8.32 5.12 1.28-2.08-7.2-4.32z"/></g></g></svg>
