<?xml version="1.0" encoding="iso-8859-1"?>
<!-- Generator: Adobe Illustrator 19.0.0, SVG Export Plug-In . SVG Version: 6.00 Build 0)  -->
<svg version="1.1" id="Layer_1" xmlns="http://www.w3.org/2000/svg" xmlns:xlink="http://www.w3.org/1999/xlink" x="0px" y="0px"
	 viewBox="0 0 512.005 512.005" style="enable-background:new 0 0 512.005 512.005;" xml:space="preserve">
<path style="fill:#F96232;" d="M123.587,256.003c-63.378,0-114.76-17.393-114.76-38.845v70.607
	c0,21.453,51.379,38.845,114.76,38.845c63.383,0,114.76-17.393,114.76-38.845v-70.607
	C238.346,238.61,186.97,256.003,123.587,256.003z"/>
<g>
	<path style="fill:#242D3C;" d="M123.587,194.225C62.172,194.225,0,177.851,0,146.555C0,115.254,62.172,98.88,123.587,98.88
		s123.587,16.374,123.587,47.675C247.173,177.851,185.001,194.225,123.587,194.225z M123.587,116.534
		c-64.663,0-105.93,17.779-105.93,30.021c0,11.948,42.248,30.013,105.93,30.013s105.93-18.066,105.93-30.013
		C229.517,134.313,188.25,116.534,123.587,116.534z"/>
	<path style="fill:#242D3C;" d="M123.587,264.829C62.172,264.829,0,248.453,0,217.157v-70.605h17.654v70.605
		c0,12.237,41.27,30.019,105.93,30.019s105.93-17.779,105.93-30.019v-70.605h17.654v70.605
		C247.173,248.453,185.001,264.829,123.587,264.829z"/>
	<path style="fill:#242D3C;" d="M123.587,335.437C62.172,335.437,0,319.06,0,287.764v-70.607h17.654v70.607
		c0,12.237,41.27,30.019,105.93,30.019s105.93-17.779,105.93-30.019v-70.607h17.654v70.607
		C247.173,319.06,185.001,335.437,123.587,335.437z"/>
	<path style="fill:#242D3C;" d="M123.587,406.044C62.172,406.044,0,389.673,0,358.374v-70.61h17.654v70.61
		c0,12.237,41.27,30.013,105.93,30.013s105.93-17.774,105.93-30.013v-70.61h17.654v70.61
		C247.173,389.673,185.001,406.044,123.587,406.044z"/>
	<rect x="79.462" y="211.868" style="fill:#242D3C;" width="17.654" height="17.654"/>
	<rect x="114.76" y="211.868" style="fill:#242D3C;" width="17.654" height="17.654"/>
	<rect x="150.067" y="211.868" style="fill:#242D3C;" width="17.654" height="17.654"/>
</g>
<g>
	<rect x="79.462" y="282.473" style="fill:#FFFFFF;" width="17.654" height="17.654"/>
	<rect x="114.76" y="282.473" style="fill:#FFFFFF;" width="17.654" height="17.654"/>
	<rect x="150.067" y="282.473" style="fill:#FFFFFF;" width="17.654" height="17.654"/>
</g>
<g>
	<rect x="79.462" y="353.078" style="fill:#242D3C;" width="17.654" height="17.656"/>
	<rect x="114.76" y="353.078" style="fill:#242D3C;" width="17.654" height="17.656"/>
	<rect x="150.067" y="353.078" style="fill:#242D3C;" width="17.654" height="17.656"/>
	<rect x="264.832" y="317.827" style="fill:#242D3C;" width="35.31" height="17.654"/>
	<rect x="264.832" y="176.568" style="fill:#242D3C;" width="35.31" height="17.656"/>
	<rect x="300.134" y="247.196" style="fill:#242D3C;" width="35.31" height="17.654"/>
	<polygon style="fill:#242D3C;" points="335.447,413.169 291.31,413.169 291.31,98.88 335.447,98.88 335.447,116.534 
		308.964,116.534 308.964,395.512 335.447,395.512 	"/>
</g>
<rect x="361.933" y="81.221" style="fill:#43D3E8;" width="141.235" height="52.964"/>
<g>
	<rect x="388.403" y="98.88" style="fill:#242D3C;" width="17.654" height="17.654"/>
	<rect x="423.731" y="98.88" style="fill:#242D3C;" width="17.654" height="17.654"/>
	<rect x="459.034" y="98.88" style="fill:#242D3C;" width="44.137" height="17.654"/>
	<path style="fill:#242D3C;" d="M494.346,169.498H370.76c-4.716,0-9.149-1.833-12.483-5.169c-3.331-3.323-5.174-7.762-5.174-12.483
		V63.562c0-4.713,1.836-9.149,5.174-12.483c3.336-3.336,7.767-5.174,12.483-5.174h123.587c4.718,0,9.147,1.838,12.483,5.174
		c3.338,3.333,5.174,7.77,5.174,12.483v88.287c0,4.721-1.843,9.16-5.179,12.49C503.498,167.665,499.062,169.498,494.346,169.498z
		 M370.757,63.562v88.287l123.587-0.003c0.008,0,0.013,0,0.013,0l-0.013-88.282H370.757V63.562z"/>
</g>
<rect x="361.933" y="229.532" style="fill:#43D3E8;" width="141.235" height="52.964"/>
<g>
	<rect x="388.403" y="247.171" style="fill:#242D3C;" width="17.654" height="17.654"/>
	<rect x="423.731" y="247.171" style="fill:#242D3C;" width="17.654" height="17.654"/>
	<rect x="459.034" y="247.171" style="fill:#242D3C;" width="44.137" height="17.654"/>
	<path style="fill:#242D3C;" d="M494.346,317.804H370.76c-4.716,0-9.147-1.838-12.483-5.174c-3.338-3.336-5.174-7.77-5.174-12.485
		v-88.284c0-4.718,1.836-9.152,5.174-12.485c3.346-3.338,7.772-5.174,12.483-5.174h123.587c4.71,0,9.137,1.836,12.475,5.166
		c3.346,3.343,5.179,7.777,5.179,12.493v88.284c0,4.716-1.836,9.149-5.174,12.485C503.493,315.965,499.062,317.804,494.346,317.804z
		 M370.757,211.858v88.287l123.587,0.003c0.003,0,0.008,0,0.008,0l-0.008-88.287L370.757,211.858z"/>
</g>
<rect x="361.933" y="377.807" style="fill:#43D3E8;" width="141.235" height="52.964"/>
<g>
	<rect x="388.403" y="395.471" style="fill:#242D3C;" width="17.654" height="17.654"/>
	<rect x="423.731" y="395.471" style="fill:#242D3C;" width="17.654" height="17.654"/>
	<rect x="459.034" y="395.471" style="fill:#242D3C;" width="44.137" height="17.654"/>
	<path style="fill:#242D3C;" d="M494.346,466.099H370.76c-4.71,0-9.139-1.836-12.475-5.164c-3.346-3.354-5.179-7.782-5.179-12.493
		v-88.287c0-4.713,1.836-9.147,5.174-12.483c3.333-3.336,7.767-5.171,12.483-5.171h123.587c4.718,0,9.152,1.836,12.483,5.171
		c3.338,3.336,5.174,7.77,5.174,12.483v88.287c0,4.71-1.835,9.139-5.166,12.477C503.485,464.266,499.054,466.099,494.346,466.099z
		 M494.346,360.159l-123.587,0.003v88.284h123.587c0.008,0,0.008,0,0.008,0L494.346,360.159z"/>
</g>
<g>
</g>
<g>
</g>
<g>
</g>
<g>
</g>
<g>
</g>
<g>
</g>
<g>
</g>
<g>
</g>
<g>
</g>
<g>
</g>
<g>
</g>
<g>
</g>
<g>
</g>
<g>
</g>
<g>
</g>
</svg>
