<svg xmlns="http://www.w3.org/2000/svg" width="346" height="80" viewBox="0 0 346 80"><g fill="none"><path fill="#000" d="M210.056 30.487c-.167.082-.278.29-.278.624v5.556H152v6.666h57.778v5.556c0 .667.458.86.902.418l11.529-8.611c.444-.445.444-.945 0-1.39l-11.529-8.61c-.222-.223-.458-.292-.624-.21v.001z"/><path fill="#3270B8" d="M322.388 0h-46.204L253 40l23.184 40h46.204l23.183-40-23.183-40zm-22.53 69.224c-6.695 0-12.899-1.795-18.613-5.224l4.571-8c4.245 2.939 8.817 4.571 14.204 4.571 6.204 0 9.96-2.775 9.96-7.183 0-4.082-2.286-6.368-12.735-8.817-12.082-2.938-18.939-6.53-18.939-16.98 0-9.795 8.163-16.489 19.429-16.489 6.857 0 12.571 1.796 17.47 4.898l-4.736 8c-4.245-2.776-8.653-4.245-13.06-4.245-5.878 0-9.307 2.939-9.307 6.857 0 4.408 2.612 6.368 13.388 8.98 11.918 2.939 18.286 7.184 18.286 16.653.326 10.612-8 16.98-19.919 16.98l.001-.001z"/><path fill="#9D5125" d="M120.232 54.468v5.43c0 9.89-10.86 20.102-24.222 20.102H24.52C11.16 80 .3 69.787.3 59.898v-5.43h119.932z"/><path fill="#F58535" d="M46.461 1.532a30.638 30.638 0 0 1 27.95 17.974 15.557 15.557 0 0 1 24.323 12.222c12.085 1.004 21.498 12.663 21.498 21.923v2.009c0 9.957-10.86 20.05-24.273 20.05H24.521C11.142 75.71.283 65.618.283 55.66v-1.992c0-7.677 6.45-18.23 15.523-20.851v-.868A30.536 30.536 0 0 1 46.461 1.532z"/><path fill="#FFF" d="M30.342 37.123l-8.017 28h4.698l1.804-6.808h8.256l1.702 6.808h4.698l-7.37-28h-5.77zm-.715 17.566l3.405-13.838 3.234 13.804-6.639.034zM63.653 58.996h-.068l-3.796-21.873h-4.732l-3.711 21.754h-.085l-3.693-21.754h-4.545l5.43 28h5.225l3.592-21.089h.085l3.625 21.089h5.209l5.6-28h-4.46zM86.274 49.838l-3.047-1.106c-2.978-1.072-4.238-2.349-4.238-4.749a3.591 3.591 0 0 1 3.779-4.034A3.523 3.523 0 0 1 86.717 44v.596h4.51v-.63c0-2.894-.749-7.37-7.966-7.37-5.293 0-8.766 2.825-8.766 7.932 0 4 1.703 6.11 5.873 7.676l3.08 1.073a4.698 4.698 0 0 1 4.052 4.936 3.983 3.983 0 0 1-4.273 4.085c-3.115 0-4.612-1.702-4.612-5.107v-.714H74.12v.663c0 3.915 1.583 8.511 8.51 8.511 5.686 0 9.328-2.468 9.328-8.425.051-3.83-1.702-5.992-5.685-7.388z"/></g></svg>
