<svg xmlns="http://www.w3.org/2000/svg" width="200" height="442" viewBox="0 0 200 442"><g fill="#0070D3"><path d="M101.526 58.773v-.004l-.046.002v-.002c-.005 0-.014 0-.019.002-.009-.002-.015-.002-.023-.002v.002l-.043-.002v.004c-10.308.274-16.635 6.107-16.53 16.315.155 14.708 6.352 23.63 16.545 23.474v.004h.098v-.004c10.192.157 16.392-8.766 16.548-23.474.105-10.206-6.223-16.04-16.53-16.315zm-50.947 99.77c-1.347-.645-3.027-1.01-4.602-1.01-4.1 0-6.647 2.442-6.647 6.363v3.558h-1.54a1.13 1.13 0 0 0-1.129 1.133v2.326c0 .62.504 1.127 1.128 1.127h1.54v8.828a1.13 1.13 0 0 0 1.129 1.133h4.423a1.13 1.13 0 0 0 1.128-1.133v-8.793h3.888a1.13 1.13 0 0 0 1.128-1.127v-2.361c0-.626-.507-1.133-1.128-1.133h-3.888v-2.593c0-1.256.433-1.817 1.409-1.817l.068.001c.407 0 .883.1 1.474.303.293.093.617.07.89-.07a1.14 1.14 0 0 0 .563-.691l.77-2.714a1.125 1.125 0 0 0-.604-1.33z"/><path d="M171.955.398c-15.409 0-27.943 12.532-27.943 27.94a27.79 27.79 0 0 0 5.105 16.071l-12.491 12.49c-9.297-8.448-21.638-13.602-35.16-13.602-14.313 0-27.299 5.776-36.756 15.117L51.982 47.896a27.774 27.774 0 0 0 3.906-14.228c0-15.407-12.535-27.94-27.943-27.94C12.537 5.728 0 18.26 0 33.668c0 15.409 12.535 27.946 27.943 27.946 7.32 0 13.988-2.833 18.975-7.456l12.508 10.337a52.052 52.052 0 0 0-10.297 31.138c0 16.507 7.683 31.25 19.658 40.85l-8.996 10.23a27.778 27.778 0 0 0-15.77-4.892c-15.408 0-27.943 12.54-27.943 27.947 0 15.406 12.535 27.94 27.944 27.94 15.408 0 27.943-12.533 27.943-27.94a27.818 27.818 0 0 0-6.253-17.594l9.776-11.118a52.002 52.002 0 0 0 25.977 6.913c28.86 0 52.336-23.476 52.336-52.336 0-12.444-4.366-23.884-11.646-32.876l12.5-12.5c4.762 3.769 10.771 6.028 17.3 6.028 15.41 0 27.944-12.54 27.944-27.947 0-15.408-12.536-27.94-27.944-27.94zM44.02 190.37c-11.36 0-20.605-9.243-20.605-20.601 0-11.365 9.244-20.603 20.605-20.603s20.603 9.24 20.603 20.603c0 11.357-9.242 20.601-20.603 20.601zM27.943 54.27c-11.36 0-20.606-9.237-20.606-20.603 0-11.355 9.245-20.6 20.606-20.6 11.36 0 20.602 9.245 20.602 20.6 0 11.366-9.241 20.603-20.602 20.603zm107.589 66.873c-.73-5.173-2.065-10.36-4.715-11.415l-16.58-6.608-3.883-3.27a2.58 2.58 0 0 0-3.49.14l-5.398 5.37-5.412-5.372a2.585 2.585 0 0 0-3.49-.14l-3.881 3.27-16.58 6.611c-2.647 1.056-3.981 6.24-4.708 11.412a42.36 42.36 0 0 1-8.508-25.51c0-23.475 19.1-42.576 42.578-42.576 23.477 0 42.576 19.102 42.576 42.577a42.356 42.356 0 0 1-8.51 25.51zm36.423-72.203c-11.36 0-20.603-9.239-20.603-20.602 0-11.358 9.242-20.602 20.603-20.602 11.36 0 20.605 9.244 20.605 20.602 0 11.363-9.245 20.602-20.605 20.602z"/><path d="M178.348 35.52a1.148 1.148 0 0 0-.562-.692 1.175 1.175 0 0 0-.888-.07c-.594.203-1.071.303-1.478.303h-.068c-.972 0-1.406-.56-1.406-1.817v-7.216h3.885a1.13 1.13 0 0 0 1.129-1.134v-2.36c0-.621-.504-1.126-1.129-1.126h-3.885v-4.17c0-.626-.508-1.127-1.129-1.127h-4.426c-.621 0-1.128.5-1.128 1.127v4.202h-1.538a1.13 1.13 0 0 0-1.13 1.127v2.326c0 .627.506 1.134 1.13 1.134h1.539v8.18c0 3.923 2.546 6.365 6.646 6.365 1.579 0 3.256-.364 4.606-1.011a1.12 1.12 0 0 0 .602-1.32l-.77-2.722zM36.09 21.577h-3.843c-.623 0-1.127.507-1.127 1.127v.526c-1.188-1.214-2.804-1.85-4.723-1.85l-.1.001c-4.496 0-7.632 3.493-7.632 8.492 0 5.112 3.185 8.678 7.747 8.678 1.913 0 3.524-.635 4.708-1.842v1.078c0 2.063-1.495 3.29-3.999 3.29-1.522 0-3.074-.427-4.484-1.227a1.134 1.134 0 0 0-1.565.463l-1.152 2.251a1.136 1.136 0 0 0 .437 1.497c2.115 1.222 4.662 1.895 7.18 1.895 5.79 0 9.68-3.348 9.68-8.328V22.705a1.128 1.128 0 0 0-1.127-1.127zM27.8 33.97c-2.027 0-3.386-1.582-3.386-3.934 0-2.374 1.36-3.964 3.386-3.964 1.986 0 3.322 1.59 3.322 3.964 0 2.352-1.336 3.934-3.322 3.934zM160 301.333h-10v-20c0-28-22-50-50-50s-50 22-50 50v20H40c-11 0-20 9-20 20v100c0 11 9 20 20 20h120c11 0 20-9 20-20v-100c0-11-9-20-20-20zm-60-51c17 0 31 14 31 31v20H69v-20c0-17 14-31 31-31zm60 171H40v-100h120v100zm-60-30c11 0 20-9 20-20s-9-20-20-20-20 9-20 20 9 20 20 20z"/></g></svg>
