<svg xmlns="http://www.w3.org/2000/svg" width="250" height="206" viewBox="0 0 250 206"><g fill="none"><path fill="#F96232" d="M60.227 102.828c-30.885 0-55.925-8.476-55.925-18.93v34.408c0 10.455 25.038 18.93 55.925 18.93 30.889 0 55.926-8.475 55.926-18.93V83.899c0 10.454-25.037 18.93-55.925 18.93z"/><g fill="#242D3C"><path d="M60.227 72.721C30.299 72.721 0 64.741 0 49.491c0-15.255 30.298-23.234 60.227-23.234 29.93 0 60.228 7.98 60.228 23.233 0 15.251-30.298 23.231-60.227 23.231zm0-37.86c-31.512 0-51.622 8.664-51.622 14.63 0 5.822 20.588 14.625 51.623 14.625 31.034 0 51.622-8.804 51.622-14.625 0-5.966-20.11-14.63-51.622-14.63z"/><path d="M60.227 107.129C30.299 107.129 0 99.148 0 83.896V49.49h8.603v34.408c0 5.963 20.112 14.628 51.623 14.628 31.51 0 51.623-8.664 51.623-14.629V49.49h8.603v34.408c.003 15.251-30.295 23.232-60.224 23.232z"/><path d="M60.227 141.538C30.299 141.538 0 133.558 0 118.305V83.898h8.603v34.409c0 5.963 20.112 14.629 51.623 14.629 31.51 0 51.623-8.664 51.623-14.63V83.898h8.603v34.409c.003 15.251-30.295 23.232-60.224 23.232z"/><path d="M60.227 175.947C30.299 175.947 0 167.97 0 152.715v-34.41h8.603v34.41c0 5.965 20.112 14.627 51.623 14.627 31.51 0 51.623-8.662 51.623-14.627v-34.41h8.603v34.41c.003 15.254-30.295 23.232-60.224 23.232zM38.724 81.32h8.604v8.603h-8.604V81.32zm17.202 0h8.603v8.603h-8.603V81.32zm17.206 0h8.603v8.603h-8.603V81.32z"/></g><path fill="#FFF" d="M38.724 115.728h8.603v8.603h-8.603v-8.604zm17.202 0h8.603v8.603h-8.603v-8.604zm17.206 0h8.603v8.603h-8.603v-8.604z"/><g fill="#242D3C"><path d="M38.724 150.135h8.603v8.604h-8.603v-8.604zm17.202 0h8.603v8.604h-8.603v-8.604zm17.206 0h8.603v8.604h-8.603v-8.604zm55.928-17.179h17.208v8.604H129.06v-8.604zm0-68.84h17.208v8.604H129.06v-8.604zm17.204 34.42h17.207v8.603h-17.207v-8.604z"/><path d="M163.473 179.419h-21.509V26.257h21.509v8.603h-12.906v135.955h12.906z"/></g><path fill="#43D3E8" d="M176.381 17.652h68.828v25.81h-68.828z"/><g fill="#242D3C"><path d="M189.281 26.258h8.603v8.603h-8.603v-8.603zm17.216 0h8.603v8.603h-8.603v-8.603zm17.204 0h21.51v8.603H223.7v-8.603z"/><path d="M240.91 60.672h-60.226a8.542 8.542 0 0 1-6.084-2.52 8.542 8.542 0 0 1-2.521-6.083V9.046c0-2.297.895-4.458 2.521-6.083A8.546 8.546 0 0 1 180.684.44h60.227c2.3 0 4.459.896 6.084 2.521a8.542 8.542 0 0 1 2.521 6.084V52.07c0 2.3-.898 4.464-2.524 6.087a8.548 8.548 0 0 1-6.082 2.514zM180.68 9.046V52.07l60.228-.002h.006l-.006-43.022H180.68v-.001z"/></g><path fill="#43D3E8" d="M176.381 89.927h68.828v25.811h-68.828z"/><g fill="#242D3C"><path d="M189.281 98.524h8.603v8.603h-8.603v-8.603zm17.216 0h8.603v8.603h-8.603v-8.603zm17.204 0h21.51v8.603H223.7v-8.603z"/><path d="M240.91 132.946h-60.226a8.544 8.544 0 0 1-6.084-2.522 8.545 8.545 0 0 1-2.521-6.083V81.317c0-2.3.895-4.46 2.521-6.084a8.554 8.554 0 0 1 6.084-2.522h60.227c2.295 0 4.453.895 6.08 2.517a8.545 8.545 0 0 1 2.523 6.089v43.023a8.544 8.544 0 0 1-2.521 6.084 8.544 8.544 0 0 1-6.083 2.522zM180.68 81.315v43.025l60.228.002h.004l-.004-43.025-60.228-.002z"/></g><path fill="#43D3E8" d="M176.381 162.187h68.828v25.811h-68.828z"/><g fill="#242D3C"><path d="M189.281 170.795h8.603v8.604h-8.603v-8.604zm17.216 0h8.603v8.604h-8.603v-8.604zm17.204 0h21.51v8.604H223.7v-8.604z"/><path d="M240.91 205.214h-60.226c-2.281.006-4.47-.9-6.08-2.516a8.558 8.558 0 0 1-2.524-6.089v-43.025c0-2.297.895-4.459 2.522-6.084a8.542 8.542 0 0 1 6.083-2.52h60.228c2.299 0 4.46.895 6.083 2.52a8.544 8.544 0 0 1 2.522 6.084v43.025a8.552 8.552 0 0 1-2.519 6.08 8.563 8.563 0 0 1-6.089 2.525zm0-51.628l-60.228.002v43.023h60.232l-.004-43.025z"/></g></g></svg>
