<svg xmlns="http://www.w3.org/2000/svg" width="429" height="81" viewBox="0 0 429 81"><g fill="none" fill-rule="evenodd"><path fill="#000" fill-rule="nonzero" d="M293.056 30.487c-.167.082-.278.29-.278.624v5.556H235v6.666h57.778v5.556c0 .667.458.86.902.418l11.529-8.611c.444-.445.444-.945 0-1.39l-11.529-8.61c-.222-.223-.458-.292-.624-.21z"/><path fill="#F90" d="M26.818 76.67l-12.001-4.305V54.774l12.001 4.089zm2.202 0l12.001-4.305V54.774L29.02 58.863zM16.05 53.458l12.146-3.419 11.263 3.632-11.263 3.824zm-3.52-1.363L.529 47.79V30.199l12.001 4.088zm2.2 0l12.002-4.305V30.199L14.73 34.287zM1.762 28.882l12.146-3.418 11.263 3.631-11.263 3.824zm38.772 23.213L28.532 47.79V30.199l12.002 4.088zm2.201 0l12.002-4.305V30.199l-12.002 4.088zM29.766 28.882l12.146-3.418 11.263 3.631-11.263 3.824zm25.056-1.362l-12.001-4.305V5.624l12.001 4.089zm2.201 0l12.002-4.305V5.624L57.023 9.713zM44.054 4.308L56.2.89l11.263 3.631L56.2 8.345zM82.826 27.52l-12.002-4.305V5.624l12.002 4.089zm2.201 0l12.002-4.305V5.624L85.027 9.713zM72.058 4.308L84.204.89l11.262 3.631-11.262 3.824z"/><path fill="#000" fill-rule="nonzero" d="M76.721 65.211L72.69 79.216h-1.753l-3.138-10.402-2.879 10.402h-1.785l-4.191-14.005h2.167l3.052 10.437 2.905-10.437h1.599l3.158 10.47 3.137-10.47z"/><path stroke="#000" stroke-width="1.333" d="M76.721 65.211L72.69 79.216h-1.753l-3.138-10.402-2.879 10.402h-1.785l-4.191-14.005h2.167l3.052 10.437 2.905-10.437h1.599l3.158 10.47 3.137-10.47z"/><path fill="#000" fill-rule="nonzero" d="M87.755 70.776c-.02-.785-.148-1.482-.388-2.092-.24-.61-.646-1.13-1.218-1.56-.572-.429-1.259-.644-2.061-.644-1.08 0-1.995.388-2.747 1.165-.751.776-1.173 1.82-1.265 3.131h7.679zm.118 4.262l2.03.417c-.37 1.198-1.09 2.19-2.16 2.973-1.07.786-2.33 1.178-3.78 1.178-1.91 0-3.455-.673-4.636-2.02-1.181-1.346-1.772-3.112-1.772-5.295 0-2.231.614-4.033 1.842-5.407 1.226-1.374 2.768-2.061 4.623-2.061 1.828 0 3.297.632 4.41 1.898 1.112 1.265 1.682 3.158 1.71 5.679H79.973c0 2.118.442 3.546 1.328 4.286.885.74 1.822 1.11 2.808 1.11 1.78 0 3.034-.92 3.763-2.758z"/><path stroke="#000" stroke-width="1.333" d="M87.755 70.776c-.02-.785-.148-1.482-.388-2.092-.24-.61-.646-1.13-1.218-1.56-.572-.429-1.259-.644-2.061-.644-1.08 0-1.995.388-2.747 1.165-.751.776-1.173 1.82-1.265 3.131h7.679zm.118 4.262l2.03.417c-.37 1.198-1.09 2.19-2.16 2.973-1.07.786-2.33 1.178-3.78 1.178-1.91 0-3.455-.673-4.636-2.02-1.181-1.346-1.772-3.112-1.772-5.295 0-2.231.614-4.033 1.842-5.407 1.226-1.374 2.768-2.061 4.623-2.061 1.828 0 3.297.632 4.41 1.898 1.112 1.265 1.682 3.158 1.71 5.679H79.973c0 2.118.442 3.546 1.328 4.286.885.74 1.822 1.11 2.808 1.11 1.78 0 3.034-.92 3.763-2.758z"/><path fill="#000" fill-rule="nonzero" d="M95.189 73.725c.101 1.438.542 2.482 1.322 3.13.78.65 1.605.974 2.473.974 1.108 0 2.001-.48 2.68-1.443.679-.962 1.018-2.28 1.018-3.954 0-1.803-.328-3.221-.984-4.253-.656-1.031-1.565-1.547-2.728-1.547-.914 0-1.738.367-2.472 1.1-.735.736-1.171 1.684-1.31 2.848v3.145zm-1.134 5.491h-1.048v-18.91h2.182v7.24c.996-1.816 2.369-2.724 4.12-2.724 1.604 0 2.948.634 4.032 1.902 1.082 1.268 1.625 3.11 1.625 5.524 0 2.082-.534 3.829-1.599 5.24-1.067 1.411-2.453 2.117-4.16 2.117-1.9 0-3.359-.902-4.374-2.706l-.778 2.317z"/><path stroke="#000" stroke-width="1.333" d="M95.189 73.725c.101 1.438.542 2.482 1.322 3.13.78.65 1.605.974 2.473.974 1.108 0 2.001-.48 2.68-1.443.679-.962 1.018-2.28 1.018-3.954 0-1.803-.328-3.221-.984-4.253-.656-1.031-1.565-1.547-2.728-1.547-.914 0-1.738.367-2.472 1.1-.735.736-1.171 1.684-1.31 2.848v3.145zm-1.134 5.491h-1.048v-18.91h2.182v7.24c.996-1.816 2.369-2.724 4.12-2.724 1.604 0 2.948.634 4.032 1.902 1.082 1.268 1.625 3.11 1.625 5.524 0 2.082-.534 3.829-1.599 5.24-1.067 1.411-2.453 2.117-4.16 2.117-1.9 0-3.359-.902-4.374-2.706l-.778 2.317z"/><path fill="#000" fill-rule="nonzero" d="M110.525 75.586l2.08-.43c.463 1.76 1.924 2.64 4.383 2.64.906 0 1.674-.203 2.302-.61.63-.404.944-.976.944-1.714 0-1.096-.8-1.793-2.401-2.088l-2.95-.561c-1.155-.222-2.074-.656-2.758-1.303-.683-.648-1.025-1.503-1.025-2.566 0-1.174.466-2.156 1.4-2.946.932-.79 2.188-1.186 3.767-1.186 3.038 0 4.914 1.188 5.625 3.562l-1.996.43c-.573-1.455-1.75-2.182-3.53-2.182-.887 0-1.614.182-2.182.545-.568.363-.851.87-.851 1.524 0 1.03.726 1.677 2.176 1.945l2.726.502c2.855.517 4.282 1.902 4.282 4.152 0 1.286-.531 2.326-1.595 3.117-1.062.792-2.476 1.188-4.242 1.188-3.318 0-5.37-1.34-6.155-4.019"/><path stroke="#000" stroke-width="1.333" d="M110.525 75.586l2.08-.43c.463 1.76 1.924 2.64 4.383 2.64.906 0 1.674-.203 2.302-.61.63-.404.944-.976.944-1.714 0-1.096-.8-1.793-2.401-2.088l-2.95-.561c-1.155-.222-2.074-.656-2.758-1.303-.683-.648-1.025-1.503-1.025-2.566 0-1.174.466-2.156 1.4-2.946.932-.79 2.188-1.186 3.767-1.186 3.038 0 4.914 1.188 5.625 3.562l-1.996.43c-.573-1.455-1.75-2.182-3.53-2.182-.887 0-1.614.182-2.182.545-.568.363-.851.87-.851 1.524 0 1.03.726 1.677 2.176 1.945l2.726.502c2.855.517 4.282 1.902 4.282 4.152 0 1.286-.531 2.326-1.595 3.117-1.062.792-2.476 1.188-4.242 1.188-3.318 0-5.37-1.34-6.155-4.019z"/><path fill="#000" fill-rule="nonzero" d="M134.003 70.776c-.019-.785-.148-1.482-.388-2.092-.24-.61-.645-1.13-1.217-1.56-.572-.429-1.26-.644-2.062-.644-1.079 0-1.995.388-2.747 1.165-.751.776-1.173 1.82-1.265 3.131h7.679zm.118 4.262l2.03.417c-.369 1.198-1.09 2.19-2.16 2.973-1.07.786-2.33 1.178-3.779 1.178-1.91 0-3.456-.673-4.637-2.02-1.181-1.346-1.772-3.112-1.772-5.295 0-2.231.614-4.033 1.842-5.407 1.227-1.374 2.769-2.061 4.624-2.061 1.827 0 3.297.632 4.409 1.898 1.112 1.265 1.682 3.158 1.71 5.679h-10.166c0 2.118.443 3.546 1.328 4.286.886.74 1.822 1.11 2.809 1.11 1.78 0 3.034-.92 3.762-2.758z"/><path stroke="#000" stroke-width="1.333" d="M134.003 70.776c-.019-.785-.148-1.482-.388-2.092-.24-.61-.645-1.13-1.217-1.56-.572-.429-1.26-.644-2.062-.644-1.079 0-1.995.388-2.747 1.165-.751.776-1.173 1.82-1.265 3.131h7.679zm.118 4.262l2.03.417c-.369 1.198-1.09 2.19-2.16 2.973-1.07.786-2.33 1.178-3.779 1.178-1.91 0-3.456-.673-4.637-2.02-1.181-1.346-1.772-3.112-1.772-5.295 0-2.231.614-4.033 1.842-5.407 1.227-1.374 2.769-2.061 4.624-2.061 1.827 0 3.297.632 4.409 1.898 1.112 1.265 1.682 3.158 1.71 5.679h-10.166c0 2.118.443 3.546 1.328 4.286.886.74 1.822 1.11 2.809 1.11 1.78 0 3.034-.92 3.762-2.758z"/><path fill="#000" fill-rule="nonzero" d="M140.915 79.216h-2.182V65.211h1.911v3.264c.674-1.529 1.35-2.52 2.03-2.972.678-.454 1.373-.68 2.084-.68.221 0 .508.016.859.05v2.08h-.442c-1.2 0-2.195.446-2.988 1.337-.793.89-1.217 2.06-1.272 3.512v7.414z"/><path stroke="#000" stroke-width="1.333" d="M140.915 79.216h-2.182V65.211h1.911v3.264c.674-1.529 1.35-2.52 2.03-2.972.678-.454 1.373-.68 2.084-.68.221 0 .508.016.859.05v2.08h-.442c-1.2 0-2.195.446-2.988 1.337-.793.89-1.217 2.06-1.272 3.512v7.414z"/><path fill="#000" fill-rule="nonzero" d="M159.169 65.211l-4.836 14.005h-2.261l-4.997-14.005h2.414l3.887 11.384 3.857-11.384z"/><path stroke="#000" stroke-width="1.333" d="M159.169 65.211l-4.836 14.005h-2.261l-4.997-14.005h2.414l3.887 11.384 3.857-11.384z"/><path fill="#000" fill-rule="nonzero" stroke="#000" stroke-width="1.333" d="M163.197 79.216h-2.182V65.211h2.182v14.005zm.05-16.491h-2.334v-2.419h2.334v2.419z"/><path fill="#000" fill-rule="nonzero" d="M174.595 74.311l1.962.346c-.277 1.548-.891 2.76-1.843 3.635-.95.876-2.138 1.314-3.56 1.314-1.93 0-3.401-.713-4.413-2.138-1.01-1.425-1.517-3.165-1.517-5.22 0-2.128.534-3.897 1.6-5.309 1.067-1.411 2.52-2.116 4.357-2.116 1.525 0 2.746.456 3.665 1.368.92.912 1.49 2.09 1.711 3.535l-1.962.373c-.37-2.31-1.485-3.467-3.35-3.467-1.2 0-2.123.51-2.768 1.53-.646 1.022-.97 2.344-.97 3.97 0 1.79.321 3.182.963 4.175.641.992 1.543 1.489 2.707 1.489 1.798 0 2.938-1.162 3.418-3.485"/><path stroke="#000" stroke-width="1.333" d="M174.595 74.311l1.962.346c-.277 1.548-.891 2.76-1.843 3.635-.95.876-2.138 1.314-3.56 1.314-1.93 0-3.401-.713-4.413-2.138-1.01-1.425-1.517-3.165-1.517-5.22 0-2.128.534-3.897 1.6-5.309 1.067-1.411 2.52-2.116 4.357-2.116 1.525 0 2.746.456 3.665 1.368.92.912 1.49 2.09 1.711 3.535l-1.962.373c-.37-2.31-1.485-3.467-3.35-3.467-1.2 0-2.123.51-2.768 1.53-.646 1.022-.97 2.344-.97 3.97 0 1.79.321 3.182.963 4.175.641.992 1.543 1.489 2.707 1.489 1.798 0 2.938-1.162 3.418-3.485z"/><path fill="#000" fill-rule="nonzero" d="M188.744 70.776c-.019-.785-.148-1.482-.388-2.092-.24-.61-.645-1.13-1.217-1.56-.573-.429-1.26-.644-2.062-.644-1.08 0-1.995.388-2.747 1.165-.752.776-1.174 1.82-1.265 3.131h7.679zm.118 4.262l2.03.417c-.37 1.198-1.09 2.19-2.16 2.973-1.07.786-2.33 1.178-3.779 1.178-1.91 0-3.457-.673-4.637-2.02-1.182-1.346-1.772-3.112-1.772-5.295 0-2.231.614-4.033 1.842-5.407 1.227-1.374 2.769-2.061 4.624-2.061 1.827 0 3.297.632 4.409 1.898 1.112 1.265 1.682 3.158 1.71 5.679h-10.166c0 2.118.442 3.546 1.328 4.286.886.74 1.821 1.11 2.809 1.11 1.779 0 3.033-.92 3.762-2.758z"/><path stroke="#000" stroke-width="1.333" d="M188.744 70.776c-.019-.785-.148-1.482-.388-2.092-.24-.61-.645-1.13-1.217-1.56-.573-.429-1.26-.644-2.062-.644-1.08 0-1.995.388-2.747 1.165-.752.776-1.174 1.82-1.265 3.131h7.679zm.118 4.262l2.03.417c-.37 1.198-1.09 2.19-2.16 2.973-1.07.786-2.33 1.178-3.779 1.178-1.91 0-3.457-.673-4.637-2.02-1.182-1.346-1.772-3.112-1.772-5.295 0-2.231.614-4.033 1.842-5.407 1.227-1.374 2.769-2.061 4.624-2.061 1.827 0 3.297.632 4.409 1.898 1.112 1.265 1.682 3.158 1.71 5.679h-10.166c0 2.118.442 3.546 1.328 4.286.886.74 1.821 1.11 2.809 1.11 1.779 0 3.033-.92 3.762-2.758z"/><path fill="#000" fill-rule="nonzero" d="M192.36 75.586l2.08-.43c.463 1.76 1.924 2.64 4.383 2.64.906 0 1.674-.203 2.302-.61.63-.404.944-.976.944-1.714 0-1.096-.8-1.793-2.401-2.088l-2.95-.561c-1.155-.222-2.074-.656-2.758-1.303-.683-.648-1.025-1.503-1.025-2.566 0-1.174.466-2.156 1.4-2.946.932-.79 2.188-1.186 3.767-1.186 3.038 0 4.914 1.188 5.625 3.562l-1.996.43c-.573-1.455-1.75-2.182-3.53-2.182-.887 0-1.614.182-2.182.545-.567.363-.851.87-.851 1.524 0 1.03.726 1.677 2.176 1.945l2.727.502c2.854.517 4.281 1.902 4.281 4.152 0 1.286-.53 2.326-1.594 3.117-1.063.792-2.477 1.188-4.243 1.188-3.318 0-5.37-1.34-6.155-4.019"/><path stroke="#000" stroke-width="1.333" d="M192.36 75.586l2.08-.43c.463 1.76 1.924 2.64 4.383 2.64.906 0 1.674-.203 2.302-.61.63-.404.944-.976.944-1.714 0-1.096-.8-1.793-2.401-2.088l-2.95-.561c-1.155-.222-2.074-.656-2.758-1.303-.683-.648-1.025-1.503-1.025-2.566 0-1.174.466-2.156 1.4-2.946.932-.79 2.188-1.186 3.767-1.186 3.038 0 4.914 1.188 5.625 3.562l-1.996.43c-.573-1.455-1.75-2.182-3.53-2.182-.887 0-1.614.182-2.182.545-.567.363-.851.87-.851 1.524 0 1.03.726 1.677 2.176 1.945l2.727.502c2.854.517 4.281 1.902 4.281 4.152 0 1.286-.53 2.326-1.594 3.117-1.063.792-2.477 1.188-4.243 1.188-3.318 0-5.37-1.34-6.155-4.019z"/><path fill="#000" d="M143.18 35.279v-3.364a.832.832 0 0 1 .853-.853h15.078c.482 0 .869.35.87.849l-.001 2.885c-.004.484-.411 1.116-1.135 2.118l-7.81 11.15c2.9-.067 5.966.367 8.6 1.848.594.333.753.828.8 1.313v3.59c0 .494-.542 1.066-1.11.768-4.642-2.43-10.8-2.697-15.932.03-.524.28-1.072-.285-1.072-.78v-3.412c0-.546.01-1.48.56-2.312l9.049-12.982-7.878-.001c-.482 0-.868-.343-.871-.847M89.22 56.29h-4.586c-.437-.029-.786-.357-.821-.775l.003-23.543c0-.471.396-.848.885-.848l4.272-.001c.447.023.806.361.835.79v3.074h.085c1.114-2.972 3.212-4.36 6.038-4.36 2.868 0 4.666 1.388 5.952 4.36 1.113-2.972 3.639-4.36 6.337-4.36 1.926 0 4.024.793 5.31 2.577 1.455 1.981 1.155 4.855 1.155 7.382l-.003 14.856c0 .47-.396.848-.885.848h-4.581c-.46-.03-.824-.394-.824-.846l-.001-12.48c0-.991.086-3.469-.129-4.41-.342-1.585-1.37-2.031-2.697-2.031-1.113 0-2.27.743-2.74 1.932-.472 1.19-.429 3.17-.429 4.508v12.48c0 .47-.396.847-.884.847H96.93c-.46-.03-.824-.394-.824-.846l-.004-12.48c0-2.626.428-6.49-2.826-6.49-3.297 0-3.169 3.764-3.169 6.49l-.002 12.478c0 .47-.396.848-.884.848M171.1 36.04c-3.357 0-3.569 4.607-3.569 7.48 0 2.874-.043 8.412 3.526 8.412 3.526 0 3.696-4.349 3.696-7.37 0-1.983-.085-4.36-.68-6.243-.51-1.635-1.53-2.279-2.973-2.279m-.043-5.411c6.754 0 10.407 5.845 10.407 13.277 0 7.183-4.035 12.88-10.407 12.88-6.627 0-10.238-5.845-10.238-13.128 0-7.332 3.654-13.03 10.238-13.03M191.24 56.29h-4.57c-.46-.03-.824-.394-.824-.846l-.007-23.552c.039-.43.419-.768.881-.768l4.255-.001c.4.02.73.294.816.66v3.6h.086c1.284-3.22 3.082-4.755 6.25-4.755 2.055 0 4.07.743 5.353 2.774 1.2 1.882 1.2 5.053 1.2 7.332v14.814c-.052.418-.426.742-.88.742h-4.598a.866.866 0 0 1-.817-.742V42.765c0-2.576.3-6.341-2.869-6.341-1.114 0-2.141.743-2.655 1.883-.642 1.436-.728 2.873-.728 4.458v12.677c-.008.47-.405.848-.893.848m-54.935-.058c-.303.272-.741.29-1.083.106-1.524-1.266-1.797-1.851-2.63-3.057-2.518 2.566-4.301 3.335-7.563 3.335-3.861 0-6.865-2.383-6.865-7.15 0-3.724 2.017-6.255 4.891-7.497 2.489-1.092 5.965-1.29 8.626-1.589v-.595c0-1.092.086-2.384-.558-3.327-.558-.844-1.63-1.192-2.575-1.192-1.75 0-3.305.897-3.687 2.755-.079.413-.381.822-.796.843l-4.446-.481c-.376-.085-.793-.386-.685-.959 1.022-5.394 5.892-7.024 10.258-7.024 2.231 0 5.15.596 6.908 2.284 2.233 2.086 2.017 4.866 2.017 7.895v7.146c0 2.15.894 3.093 1.732 4.252.293.417.359.914-.015 1.218-.937.786-2.602 2.232-3.518 3.047l-.01-.01zm-4.624-11.185c0 1.788.042 3.277-.858 4.866-.73 1.291-1.889 2.086-3.176 2.086-1.759 0-2.79-1.341-2.79-3.327 0-3.907 3.505-4.617 6.824-4.617v.992zM76.692 56.232c-.303.272-.742.29-1.083.106-1.524-1.266-1.797-1.851-2.63-3.057-2.518 2.566-4.301 3.335-7.563 3.335-3.862 0-6.865-2.383-6.865-7.15 0-3.724 2.017-6.255 4.891-7.497 2.489-1.092 5.965-1.29 8.625-1.589v-.595c0-1.092.086-2.384-.557-3.327-.558-.844-1.631-1.192-2.575-1.192-1.75 0-3.305.897-3.687 2.755-.08.413-.381.822-.797.843l-4.445-.481c-.376-.085-.794-.386-.685-.959 1.021-5.394 5.892-7.024 10.257-7.024 2.232 0 5.15.596 6.91 2.284 2.231 2.086 2.016 4.866 2.016 7.895v7.146c0 2.15.893 3.093 1.732 4.252.292.417.358.914-.015 1.218-.937.786-2.602 2.232-3.518 3.047l-.01-.01zm-4.625-11.185c0 1.788.043 3.277-.858 4.866C70.48 51.204 69.321 52 68.034 52c-1.759 0-2.79-1.341-2.79-3.327 0-3.907 3.505-4.617 6.823-4.617v.992z"/><path fill="#3270B8" fill-rule="nonzero" d="M405.388 0h-46.204L336 40l23.184 40h46.204l23.183-40-23.183-40zm-22.53 69.224c-6.695 0-12.899-1.795-18.613-5.224l4.571-8c4.245 2.939 8.817 4.571 14.204 4.571 6.204 0 9.96-2.775 9.96-7.183 0-4.082-2.286-6.368-12.735-8.817-12.082-2.938-18.939-6.53-18.939-16.98 0-9.795 8.163-16.489 19.429-16.489 6.857 0 12.571 1.796 17.47 4.898l-4.736 8c-4.245-2.776-8.653-4.245-13.06-4.245-5.878 0-9.307 2.939-9.307 6.857 0 4.408 2.612 6.368 13.388 8.98 11.918 2.939 18.286 7.184 18.286 16.653.326 10.612-8 16.98-19.919 16.98z"/></g></svg>
