<svg xmlns="http://www.w3.org/2000/svg" width="250" height="345" viewBox="0 0 250 345"><g fill="none"><path fill="#2C2F33" d="M191.854 185.253c32.514-2.318 57.935-30.127 57.935-63.413 0-28.933-19.663-54.565-46.559-61.657C197.472 25.562 167.697 0 131.952 0c-25.913 0-49.93 14.045-62.71 36.236-2.458-.492-5.057-.702-7.585-.702-21.84 0-39.606 17.767-39.606 39.606 0 2.81.28 5.548.842 8.217C8.778 93.61.211 110.183.211 127.739c0 29.635 23.806 56.04 51.966 57.584h139.256c.07 0 .28 0 .42-.07zM52.739 171.419c-20.997-1.265-38.624-21.208-38.624-43.68 0-14.537 7.795-28.09 20.365-35.393 2.95-1.686 4.214-5.267 3.02-8.427-1.053-2.74-1.545-5.689-1.545-8.779 0-14.185 11.517-25.702 25.702-25.702 3.02 0 5.97.492 8.778 1.545 3.371 1.264 7.163-.28 8.708-3.581 9.55-20.365 30.337-33.498 52.88-33.498 30.266 0 55.266 22.683 58.146 52.74a6.865 6.865 0 0 0 5.758 6.179c22.823 3.933 40.028 25 40.028 49.017 0 25.491-20.084 47.682-44.803 49.579H52.739z"/><path fill="#3C92CA" d="M125 208.778a6.923 6.923 0 0 0-6.952 6.952v81.461c-9.621 2.95-16.784 11.868-16.995 22.331-.14 6.39 2.177 12.5 6.601 17.135 4.425 4.635 10.394 7.304 16.784 7.444H125c12.921 0 23.666-10.534 23.947-23.385.14-6.39-2.177-12.5-6.601-17.135a23.944 23.944 0 0 0-10.394-6.39v-81.46a6.923 6.923 0 0 0-6.952-6.953zm7.303 104.424c1.826 1.967 2.88 4.495 2.81 7.163-.141 5.407-4.635 9.832-10.043 9.832h-.28a10.136 10.136 0 0 1-7.023-3.09c-1.826-1.967-2.88-4.495-2.81-7.163.141-5.407 4.636-9.832 10.043-9.832h.28c2.67 0 5.127 1.124 7.023 3.09zM80.337 215.73v38.975c0 6.742-5.477 12.149-12.149 12.149H47.683c-3.02-9.832-12.15-17.065-22.964-17.065-13.202 0-24.017 10.745-24.017 24.017 0 13.273 10.745 24.017 24.017 24.017 10.815 0 19.944-7.163 22.964-17.065h20.505c14.396 0 26.054-11.727 26.054-26.053V215.73a6.923 6.923 0 0 0-6.953-6.952c-3.792 0-6.952 3.09-6.952 6.952zM24.72 283.92c-5.548 0-10.112-4.495-10.112-10.113a10.07 10.07 0 0 1 10.112-10.112c5.548 0 10.112 4.494 10.112 10.112A10.07 10.07 0 0 1 24.72 283.92zm157.093-3.09h20.505c3.02 9.831 12.15 17.064 22.964 17.064 13.202 0 24.017-10.744 24.017-24.017 0-13.272-10.745-24.016-24.017-24.016-10.815 0-19.944 7.162-22.964 17.064h-20.505c-6.742 0-12.15-5.477-12.15-12.149v-38.974a6.923 6.923 0 0 0-6.951-6.953 6.923 6.923 0 0 0-6.953 6.953v38.974c0 14.326 11.658 26.054 26.054 26.054zm43.469-17.065c5.548 0 10.112 4.494 10.112 10.112a10.07 10.07 0 0 1-10.112 10.113 10.07 10.07 0 0 1-10.112-10.113 10.07 10.07 0 0 1 10.112-10.112z"/></g></svg>
