<?xml version="1.0" encoding="utf-8"?>
<!-- Generator: Adobe Illustrator 16.0.0, SVG Export Plug-In . SVG Version: 6.00 Build 0)  -->
<!DOCTYPE svg PUBLIC "-//W3C//DTD SVG 1.1//EN" "http://www.w3.org/Graphics/SVG/1.1/DTD/svg11.dtd">
<svg version="1.1" id="Layer_1" xmlns="http://www.w3.org/2000/svg" xmlns:xlink="http://www.w3.org/1999/xlink" x="0px" y="0px"
	 width="389px" height="297px" viewBox="0 0 389 297" enable-background="new 0 0 389 297" xml:space="preserve">
<polygon fill="#0070D3" points="177.061,212.6 144.768,156.669 177.061,100.737 241.644,100.737 273.937,156.669 241.644,212.6 "/>
<path id="Path" fill="#F5F5F5" stroke="#FFFFFF" stroke-miterlimit="10" d="M211.317,190.387c-8.059,0-15.528-2.162-22.408-6.289
	l5.504-9.633c5.111,3.539,10.615,5.504,17.102,5.504c7.469,0,11.99-3.34,11.99-8.648c0-4.914-2.752-7.666-15.332-10.613
	c-14.546-3.539-22.802-7.863-22.802-20.444c0-11.793,9.829-19.853,23.392-19.853c8.256,0,15.135,2.162,21.032,5.897l-5.7,9.631
	c-5.111-3.342-10.418-5.11-15.725-5.11c-7.077,0-11.205,3.538-11.205,8.256c0,5.307,3.145,7.667,16.119,10.81
	c14.349,3.539,22.015,8.65,22.015,20.051C235.692,182.721,225.667,190.387,211.317,190.387L211.317,190.387z"/>
</svg>
