<svg xmlns="http://www.w3.org/2000/svg" width="250" height="217" viewBox="0 0 250 217"><path fill="#3270B8" d="M187.39 0H62.61L0 108.025 62.61 216.05h124.78L250 108.025 187.39 0zm-60.847 186.95c-18.077 0-34.833-4.85-50.265-14.11l12.346-21.606c11.464 7.937 23.81 12.346 38.36 12.346 16.755 0 26.896-7.495 26.896-19.4 0-11.023-6.172-17.196-34.392-23.81-32.627-7.936-51.145-17.637-51.145-45.855 0-26.455 22.045-44.533 52.469-44.533 18.518 0 33.95 4.85 47.177 13.228l-12.787 21.605c-11.463-7.496-23.368-11.464-35.273-11.464-15.872 0-25.132 7.937-25.132 18.518 0 11.905 7.055 17.196 36.155 24.25 32.187 7.938 49.384 19.401 49.384 44.975.88 28.659-21.606 45.855-53.793 45.855z"/></svg>
