<svg xmlns="http://www.w3.org/2000/svg" width="250" height="432" viewBox="0 0 250 432"><g fill="#0070D3"><path d="M167.494 120.928H81.675c-10.62 0-19.26 8.64-19.26 19.26V187c0 10.62 8.64 19.261 19.26 19.261h85.82c10.62 0 19.26-8.641 19.26-19.26v-46.811c0-10.62-8.64-19.261-19.26-19.261zm11.947 66.071c0 6.587-5.36 11.946-11.947 11.946H81.675c-6.587 0-11.947-5.359-11.947-11.946v-46.81c0-6.588 5.36-11.947 11.947-11.947h85.82c6.586 0 11.946 5.36 11.946 11.947v46.81z"/><path d="M107.666 141.503a3.657 3.657 0 0 0-5.172 0L82.99 161.007a3.657 3.657 0 0 0 0 5.172l19.504 19.505a3.657 3.657 0 0 0 5.172-5.171l-16.918-16.92 16.918-16.918a3.657 3.657 0 0 0 0-5.172zm39.01 0a3.657 3.657 0 0 0-5.173 5.172l16.919 16.919-16.919 16.918a3.657 3.657 0 1 0 5.172 5.172l19.504-19.505a3.657 3.657 0 0 0 0-5.172l-19.504-19.504zm-22.091 26.235a3.671 3.671 0 0 0-2.585 1.073 3.671 3.671 0 0 0-1.072 2.584c.002.97.387 1.899 1.072 2.585a3.671 3.671 0 0 0 2.585 1.072 3.671 3.671 0 0 0 2.584-1.072 3.671 3.671 0 0 0 1.073-2.585 3.662 3.662 0 0 0-3.657-3.657zm11.702 0a3.671 3.671 0 0 0-2.584 1.073 3.671 3.671 0 0 0-1.073 2.584c.003.97.388 1.899 1.073 2.585a3.671 3.671 0 0 0 2.584 1.072 3.671 3.671 0 0 0 2.585-1.072 3.671 3.671 0 0 0 1.072-2.585 3.671 3.671 0 0 0-1.072-2.584 3.671 3.671 0 0 0-2.585-1.073zm-23.405 0a3.671 3.671 0 0 0-2.585 1.073 3.671 3.671 0 0 0-1.072 2.584c.002.97.388 1.899 1.072 2.585a3.671 3.671 0 0 0 2.585 1.072 3.671 3.671 0 0 0 2.585-1.072 3.671 3.671 0 0 0 1.072-2.585 3.662 3.662 0 0 0-3.657-3.657z"/><path d="M240.69 79.548c-4.851-6.487-11.565-11.526-19.101-14.387-1.148-13.081-6.933-25.21-16.45-34.378-10.16-9.789-23.53-15.18-37.645-15.18-4.69 0-9.346.605-13.87 1.797C141.393 6.163 125.623 0 108.98 0 95.537 0 82.6 4.02 71.572 11.628c-10.134 6.99-18.049 16.549-22.998 27.748C21.158 42.292 0 65.584 0 93.378c0 13.793 5.173 26.947 14.567 37.037 9.344 10.038 21.995 16.136 35.624 17.173a3.658 3.658 0 0 0 .555-7.293c-11.79-.897-22.738-6.176-30.826-14.864A46.89 46.89 0 0 1 7.314 93.378c0-24.713 19.33-45.312 44.006-46.897a3.657 3.657 0 0 0 3.16-2.286c4.325-10.764 11.672-19.943 21.245-26.547 9.802-6.76 21.302-10.334 33.256-10.334 15.432 0 30.021 5.963 41.08 16.787a3.66 3.66 0 0 0 3.63.884 47.06 47.06 0 0 1 13.804-2.067c25.265 0 45.887 19.792 46.949 45.06a3.658 3.658 0 0 0 2.568 3.338c14.86 4.62 24.843 18.188 24.843 33.765 0 8.825-3.27 17.275-9.208 23.794-5.9 6.475-13.928 10.516-22.604 11.378a3.7 3.7 0 0 0-.824.179h-10.518a3.657 3.657 0 1 0 0 7.314h11.703c.561 0 1.093-.126 1.568-.352 10.014-1.284 19.236-6.08 26.082-13.594a42.552 42.552 0 0 0 11.115-28.72c0-9.286-2.931-18.115-8.48-25.532z"/><path d="M30.712 67.252a3.658 3.658 0 0 0-5.165.274c-6.412 7.127-9.943 16.308-9.943 25.852 0 7.674 2.274 15.12 6.578 21.53a3.653 3.653 0 0 0 5.075.996 3.657 3.657 0 0 0 .996-5.073c-3.49-5.2-5.335-11.235-5.335-17.453 0-7.735 2.865-15.179 8.067-20.96a3.658 3.658 0 0 0-.273-5.166zm103.433-36.217a3.658 3.658 0 0 0 4.282-5.93c-8.605-6.216-18.787-9.502-29.446-9.502a3.657 3.657 0 1 0 0 7.315c9.111 0 17.812 2.807 25.164 8.117zM50.066 54.909c-2.94.325-5.832.986-8.62 1.972a3.657 3.657 0 1 0 2.44 6.896 31.246 31.246 0 0 1 6.984-1.598 3.657 3.657 0 0 0-.804-7.27zm124.425-15.612a3.659 3.659 0 0 0 1.614-7.134 39.093 39.093 0 0 0-8.61-.957 3.657 3.657 0 1 0 0 7.315c2.364 0 4.718.26 6.996.776zm34.105 45.281a3.657 3.657 0 0 0 3.607-6.362 11.875 11.875 0 0 1-6.042-9.891c-.467-11.126-5.67-21.512-14.276-28.494a3.657 3.657 0 1 0-4.608 5.679c6.978 5.662 11.197 14.09 11.577 23.121.28 6.686 3.923 12.648 9.742 15.947zm39.892 218.435l-22.94-43.22a5.826 5.826 0 0 0-3.607-2.89l-.027-.008-95.568-25.798a5.845 5.845 0 0 0-3.035-.001l-96.05 25.797-.028.01a5.825 5.825 0 0 0-3.613 2.89L.681 303.014a5.838 5.838 0 0 0 2.661 8.012l19.96 9.435v59.041a5.834 5.834 0 0 0 3.3 5.255l95.687 46.182c.79.382 1.658.58 2.536.58a5.83 5.83 0 0 0 2.5-.572c.013-.003.025-.003.037-.008l95.688-46.182a5.835 5.835 0 0 0 3.299-5.255v-59.036c0-.076-.008-.15-.011-.226l19.49-9.213a5.836 5.836 0 0 0 2.661-8.013zm-123.667-60.237l76.418 20.627-76.654 28.41-76.62-28.395 76.855-20.641v-.001zm-93.284 27l85.2 31.576-18.764 41.497-84.116-39.763 17.68-33.31zm3.436 106.063v-49.86l63.377 29.958a5.834 5.834 0 0 0 7.812-2.87l12.826-28.367v91.687l-84.015-40.548zm179.703 0l-84.016 40.548v-90.625l12.347 27.304a5.838 5.838 0 0 0 7.813 2.872l63.856-30.186v50.087zm-63.48-32.99l-18.764-41.497 85.2-31.576 17.68 33.31-84.115 39.763z"/></g></svg>
